solid ASCII
  facet normal 4.772660e-01 8.275966e-01 2.954674e-01
    outer loop
      vertex   -5.570478e+02 1.255160e+02 -3.599456e+02
      vertex   -5.570561e+02 1.255208e+02 -3.599456e+02
      vertex   -5.510220e+02 1.219721e+02 -3.597525e+02
    endloop
  endfacet
  facet normal 4.803289e-01 8.318557e-01 2.780292e-01
    outer loop
      vertex   -5.510220e+02 1.219721e+02 -3.597525e+02
      vertex   -5.570561e+02 1.255208e+02 -3.599456e+02
      vertex   -5.570976e+02 1.254489e+02 -3.596589e+02
    endloop
  endfacet
  facet normal 4.915600e-01 8.544377e-01 1.682409e-01
    outer loop
      vertex   -5.510220e+02 1.219721e+02 -3.597525e+02
      vertex   -5.570976e+02 1.254489e+02 -3.596589e+02
      vertex   -5.571227e+02 1.254054e+02 -3.593647e+02
    endloop
  endfacet
  facet normal 4.987775e-01 8.648984e-01 5.631855e-02
    outer loop
      vertex   -5.571311e+02 1.253909e+02 -3.590667e+02
      vertex   -5.510672e+02 1.218939e+02 -3.590667e+02
      vertex   -5.571227e+02 1.254054e+02 -3.593647e+02
    endloop
  endfacet
  facet normal 4.925428e-01 8.604445e-01 1.305253e-01
    outer loop
      vertex   -5.571227e+02 1.254054e+02 -3.593647e+02
      vertex   -5.510672e+02 1.218939e+02 -3.590667e+02
      vertex   -5.510220e+02 1.219721e+02 -3.597525e+02
    endloop
  endfacet
  facet normal 4.592214e-01 8.016673e-01 3.826816e-01
    outer loop
      vertex   -5.510220e+02 1.219721e+02 -3.597525e+02
      vertex   -5.508896e+02 1.222014e+02 -3.603917e+02
      vertex   -5.570478e+02 1.255160e+02 -3.599456e+02
    endloop
  endfacet
  facet normal 4.485175e-01 7.728722e-01 4.488881e-01
    outer loop
      vertex   -5.570478e+02 1.255160e+02 -3.599456e+02
      vertex   -5.508896e+02 1.222014e+02 -3.603917e+02
      vertex   -5.568967e+02 1.257779e+02 -3.605475e+02
    endloop
  endfacet
  facet normal 3.941471e-01 6.885206e-01 6.087589e-01
    outer loop
      vertex   -5.568967e+02 1.257779e+02 -3.605475e+02
      vertex   -5.508896e+02 1.222014e+02 -3.603917e+02
      vertex   -5.506791e+02 1.225661e+02 -3.609405e+02
    endloop
  endfacet
  facet normal 3.774207e-01 6.499116e-01 6.596731e-01
    outer loop
      vertex   -5.568967e+02 1.257779e+02 -3.605475e+02
      vertex   -5.506791e+02 1.225661e+02 -3.609405e+02
      vertex   -5.566747e+02 1.261629e+02 -3.610537e+02
    endloop
  endfacet
  facet normal 3.020791e-01 5.285292e-01 7.933506e-01
    outer loop
      vertex   -5.566747e+02 1.261629e+02 -3.610537e+02
      vertex   -5.506791e+02 1.225661e+02 -3.609405e+02
      vertex   -5.504047e+02 1.230414e+02 -3.613616e+02
    endloop
  endfacet
  facet normal 2.820521e-01 4.848991e-01 8.278402e-01
    outer loop
      vertex   -5.566747e+02 1.261629e+02 -3.610537e+02
      vertex   -5.504047e+02 1.230414e+02 -3.613616e+02
      vertex   -5.563962e+02 1.266459e+02 -3.614316e+02
    endloop
  endfacet
  facet normal 1.893015e-01 3.325902e-01 9.238770e-01
    outer loop
      vertex   -5.563962e+02 1.266459e+02 -3.614316e+02
      vertex   -5.504047e+02 1.230414e+02 -3.613616e+02
      vertex   -5.500851e+02 1.235949e+02 -3.616264e+02
    endloop
  endfacet
  facet normal 1.685628e-01 2.885013e-01 9.425251e-01
    outer loop
      vertex   -5.563962e+02 1.266459e+02 -3.614316e+02
      vertex   -5.500851e+02 1.235949e+02 -3.616264e+02
      vertex   -5.560790e+02 1.271958e+02 -3.616566e+02
    endloop
  endfacet
  facet normal 6.351105e-02 1.140502e-01 9.914428e-01
    outer loop
      vertex   -5.560790e+02 1.271958e+02 -3.616566e+02
      vertex   -5.500851e+02 1.235949e+02 -3.616264e+02
      vertex   -5.497422e+02 1.241889e+02 -3.617167e+02
    endloop
  endfacet
  facet normal 4.427383e-02 7.341270e-02 9.963184e-01
    outer loop
      vertex   -5.560790e+02 1.271958e+02 -3.616566e+02
      vertex   -5.497422e+02 1.241889e+02 -3.617167e+02
      vertex   -5.557438e+02 1.277772e+02 -3.617144e+02
    endloop
  endfacet
  facet normal -6.670756e-02 -1.122048e-01 9.914435e-01
    outer loop
      vertex   -5.557438e+02 1.277772e+02 -3.617144e+02
      vertex   -5.497422e+02 1.241889e+02 -3.617167e+02
      vertex   -5.493992e+02 1.247828e+02 -3.616264e+02
    endloop
  endfacet
  facet normal -8.279734e-02 -1.464640e-01 9.857448e-01
    outer loop
      vertex   -5.557438e+02 1.277772e+02 -3.617144e+02
      vertex   -5.493992e+02 1.247828e+02 -3.616264e+02
      vertex   -5.554121e+02 1.283524e+02 -3.616011e+02
    endloop
  endfacet
  facet normal -1.924669e-01 -3.307635e-01 9.238788e-01
    outer loop
      vertex   -5.554121e+02 1.283524e+02 -3.616011e+02
      vertex   -5.493992e+02 1.247828e+02 -3.616264e+02
      vertex   -5.490797e+02 1.253363e+02 -3.613616e+02
    endloop
  endfacet
  facet normal -2.044544e-01 -3.569161e-01 9.114874e-01
    outer loop
      vertex   -5.554121e+02 1.283524e+02 -3.616011e+02
      vertex   -5.490797e+02 1.253363e+02 -3.613616e+02
      vertex   -5.551054e+02 1.288842e+02 -3.613240e+02
    endloop
  endfacet
  facet normal -3.051822e-01 -5.267398e-01 7.933530e-01
    outer loop
      vertex   -5.551054e+02 1.288842e+02 -3.613240e+02
      vertex   -5.490797e+02 1.253363e+02 -3.613616e+02
      vertex   -5.488052e+02 1.258116e+02 -3.609405e+02
    endloop
  endfacet
  facet normal -3.128518e-01 -5.443393e-01 7.783435e-01
    outer loop
      vertex   -5.551054e+02 1.288842e+02 -3.613240e+02
      vertex   -5.488052e+02 1.258116e+02 -3.609405e+02
      vertex   -5.548435e+02 1.293384e+02 -3.609011e+02
    endloop
  endfacet
  facet normal -3.971567e-01 -6.867868e-01 6.087614e-01
    outer loop
      vertex   -5.548435e+02 1.293384e+02 -3.609011e+02
      vertex   -5.488052e+02 1.258116e+02 -3.609405e+02
      vertex   -5.485947e+02 1.261764e+02 -3.603917e+02
    endloop
  endfacet
  facet normal -4.010016e-01 -6.966162e-01 5.949147e-01
    outer loop
      vertex   -5.548435e+02 1.293384e+02 -3.609011e+02
      vertex   -5.485947e+02 1.261764e+02 -3.603917e+02
      vertex   -5.546433e+02 1.296855e+02 -3.603597e+02
    endloop
  endfacet
  facet normal -4.621058e-01 -8.000072e-01 3.826835e-01
    outer loop
      vertex   -5.546433e+02 1.296855e+02 -3.603597e+02
      vertex   -5.485947e+02 1.261764e+02 -3.603917e+02
      vertex   -5.484623e+02 1.264056e+02 -3.597525e+02
    endloop
  endfacet
  facet normal -4.632252e-01 -8.038999e-01 3.730515e-01
    outer loop
      vertex   -5.546433e+02 1.296855e+02 -3.603597e+02
      vertex   -5.484623e+02 1.264056e+02 -3.597525e+02
      vertex   -5.545177e+02 1.299032e+02 -3.597348e+02
    endloop
  endfacet
  facet normal -4.955858e-01 -8.586953e-01 1.305262e-01
    outer loop
      vertex   -5.545177e+02 1.299032e+02 -3.597348e+02
      vertex   -5.484623e+02 1.264056e+02 -3.597525e+02
      vertex   -5.484172e+02 1.264838e+02 -3.590667e+02
    endloop
  endfacet
  facet normal -4.955197e-01 -8.592491e-01 1.270873e-01
    outer loop
      vertex   -5.545177e+02 1.299032e+02 -3.597348e+02
      vertex   -5.484172e+02 1.264838e+02 -3.590667e+02
      vertex   -5.544750e+02 1.299773e+02 -3.590667e+02
    endloop
  endfacet
  facet normal 4.955196e-01 8.592490e-01 1.270882e-01
    outer loop
      vertex   -5.499717e+02 1.377862e+02 -3.590667e+02
      vertex   -5.439100e+02 1.342905e+02 -3.590667e+02
      vertex   -5.499289e+02 1.378604e+02 -3.597348e+02
    endloop
  endfacet
  facet normal 4.950074e-01 8.590289e-01 1.305262e-01
    outer loop
      vertex   -5.499289e+02 1.378604e+02 -3.597348e+02
      vertex   -5.439100e+02 1.342905e+02 -3.590667e+02
      vertex   -5.438648e+02 1.343687e+02 -3.597525e+02
    endloop
  endfacet
  facet normal 4.637875e-01 8.035745e-01 3.730540e-01
    outer loop
      vertex   -5.499289e+02 1.378604e+02 -3.597348e+02
      vertex   -5.438648e+02 1.343687e+02 -3.597525e+02
      vertex   -5.498034e+02 1.380780e+02 -3.603597e+02
    endloop
  endfacet
  facet normal 4.609803e-01 8.006564e-01 3.826832e-01
    outer loop
      vertex   -5.498034e+02 1.380780e+02 -3.603597e+02
      vertex   -5.438648e+02 1.343687e+02 -3.597525e+02
      vertex   -5.437325e+02 1.345980e+02 -3.603917e+02
    endloop
  endfacet
  facet normal 4.020945e-01 6.959829e-01 5.949183e-01
    outer loop
      vertex   -5.498034e+02 1.380780e+02 -3.603597e+02
      vertex   -5.437325e+02 1.345980e+02 -3.603917e+02
      vertex   -5.496032e+02 1.384252e+02 -3.609011e+02
    endloop
  endfacet
  facet normal 3.955155e-01 6.877337e-01 6.087609e-01
    outer loop
      vertex   -5.496032e+02 1.384252e+02 -3.609011e+02
      vertex   -5.437325e+02 1.345980e+02 -3.603917e+02
      vertex   -5.435219e+02 1.349627e+02 -3.609405e+02
    endloop
  endfacet
  facet normal 3.144437e-01 5.434156e-01 7.783474e-01
    outer loop
      vertex   -5.496032e+02 1.384252e+02 -3.609011e+02
      vertex   -5.435219e+02 1.349627e+02 -3.609405e+02
      vertex   -5.493413e+02 1.388793e+02 -3.613240e+02
    endloop
  endfacet
  facet normal 3.030569e-01 5.279663e-01 7.933525e-01
    outer loop
      vertex   -5.493413e+02 1.388793e+02 -3.613240e+02
      vertex   -5.435219e+02 1.349627e+02 -3.609405e+02
      vertex   -5.432475e+02 1.354380e+02 -3.613616e+02
    endloop
  endfacet
  facet normal 2.065138e-01 3.557201e-01 9.114907e-01
    outer loop
      vertex   -5.493413e+02 1.388793e+02 -3.613240e+02
      vertex   -5.432475e+02 1.354380e+02 -3.613616e+02
      vertex   -5.490346e+02 1.394112e+02 -3.616011e+02
    endloop
  endfacet
  facet normal 1.898888e-01 3.322518e-01 9.238782e-01
    outer loop
      vertex   -5.490346e+02 1.394112e+02 -3.616011e+02
      vertex   -5.432475e+02 1.354380e+02 -3.613616e+02
      vertex   -5.429279e+02 1.359915e+02 -3.616264e+02
    endloop
  endfacet
  facet normal 8.529283e-02 1.450137e-01 9.857465e-01
    outer loop
      vertex   -5.490346e+02 1.394112e+02 -3.616011e+02
      vertex   -5.429279e+02 1.359915e+02 -3.616264e+02
      vertex   -5.487029e+02 1.399864e+02 -3.617144e+02
    endloop
  endfacet
  facet normal 6.370810e-02 1.139365e-01 9.914433e-01
    outer loop
      vertex   -5.487029e+02 1.399864e+02 -3.617144e+02
      vertex   -5.429279e+02 1.359915e+02 -3.616264e+02
      vertex   -5.425850e+02 1.365855e+02 -3.617167e+02
    endloop
  endfacet
  facet normal -4.137340e-02 -7.509865e-02 9.963174e-01
    outer loop
      vertex   -5.487029e+02 1.399864e+02 -3.617144e+02
      vertex   -5.425850e+02 1.365855e+02 -3.617167e+02
      vertex   -5.483676e+02 1.405677e+02 -3.616566e+02
    endloop
  endfacet
  facet normal -6.690056e-02 -1.120933e-01 9.914431e-01
    outer loop
      vertex   -5.483676e+02 1.405677e+02 -3.616566e+02
      vertex   -5.425850e+02 1.365855e+02 -3.617167e+02
      vertex   -5.422420e+02 1.371794e+02 -3.616264e+02
    endloop
  endfacet
  facet normal -1.652885e-01 -2.904041e-01 9.425206e-01
    outer loop
      vertex   -5.483676e+02 1.405677e+02 -3.616566e+02
      vertex   -5.422420e+02 1.371794e+02 -3.616264e+02
      vertex   -5.480505e+02 1.411177e+02 -3.614316e+02
    endloop
  endfacet
  facet normal -1.930497e-01 -3.304266e-01 9.238778e-01
    outer loop
      vertex   -5.480505e+02 1.411177e+02 -3.614316e+02
      vertex   -5.422420e+02 1.371794e+02 -3.616264e+02
      vertex   -5.419225e+02 1.377329e+02 -3.613616e+02
    endloop
  endfacet
  facet normal -2.784348e-01 -4.869996e-01 8.278318e-01
    outer loop
      vertex   -5.480505e+02 1.411177e+02 -3.614316e+02
      vertex   -5.419225e+02 1.377329e+02 -3.613616e+02
      vertex   -5.477719e+02 1.416007e+02 -3.610537e+02
    endloop
  endfacet
  facet normal -3.061547e-01 -5.261771e-01 7.933517e-01
    outer loop
      vertex   -5.477719e+02 1.416007e+02 -3.610537e+02
      vertex   -5.419225e+02 1.377329e+02 -3.613616e+02
      vertex   -5.416481e+02 1.382082e+02 -3.609405e+02
    endloop
  endfacet
  facet normal -3.734912e-01 -6.521905e-01 6.596604e-01
    outer loop
      vertex   -5.477719e+02 1.416007e+02 -3.610537e+02
      vertex   -5.416481e+02 1.382082e+02 -3.609405e+02
      vertex   -5.475499e+02 1.419856e+02 -3.605475e+02
    endloop
  endfacet
  facet normal -3.985188e-01 -6.859985e-01 6.087601e-01
    outer loop
      vertex   -5.475499e+02 1.419856e+02 -3.605475e+02
      vertex   -5.416481e+02 1.382082e+02 -3.609405e+02
      vertex   -5.414375e+02 1.385730e+02 -3.603917e+02
    endloop
  endfacet
  facet normal -4.443067e-01 -7.753103e-01 4.488714e-01
    outer loop
      vertex   -5.475499e+02 1.419856e+02 -3.605475e+02
      vertex   -5.414375e+02 1.385730e+02 -3.603917e+02
      vertex   -5.473989e+02 1.422475e+02 -3.599456e+02
    endloop
  endfacet
  facet normal -4.638575e-01 -7.989933e-01 3.826825e-01
    outer loop
      vertex   -5.473989e+02 1.422475e+02 -3.599456e+02
      vertex   -5.414375e+02 1.385730e+02 -3.603917e+02
      vertex   -5.413051e+02 1.388022e+02 -3.597525e+02
    endloop
  endfacet
  facet normal -4.794205e-01 -8.323848e-01 2.780134e-01
    outer loop
      vertex   -5.473989e+02 1.422475e+02 -3.599456e+02
      vertex   -5.413051e+02 1.388022e+02 -3.597525e+02
      vertex   -5.473574e+02 1.423194e+02 -3.596589e+02
    endloop
  endfacet
  facet normal -4.933396e-01 -8.534133e-01 1.682315e-01
    outer loop
      vertex   -5.473574e+02 1.423194e+02 -3.596589e+02
      vertex   -5.413051e+02 1.388022e+02 -3.597525e+02
      vertex   -5.473323e+02 1.423629e+02 -3.593647e+02
    endloop
  endfacet
  facet normal -4.980453e-01 -8.572712e-01 1.305257e-01
    outer loop
      vertex   -5.473323e+02 1.423629e+02 -3.593647e+02
      vertex   -5.413051e+02 1.388022e+02 -3.597525e+02
      vertex   -5.412600e+02 1.388804e+02 -3.590667e+02
    endloop
  endfacet
  facet normal -4.987776e-01 -8.648985e-01 5.631529e-02
    outer loop
      vertex   -5.473323e+02 1.423629e+02 -3.593647e+02
      vertex   -5.412600e+02 1.388804e+02 -3.590667e+02
      vertex   -5.473239e+02 1.423774e+02 -3.590667e+02
    endloop
  endfacet
  facet normal 4.995704e-01 8.662733e-01 2.211632e-14
    outer loop
      vertex   -5.570561e+02 1.255208e+02 -3.599456e+02
      vertex   -5.570478e+02 1.255160e+02 -3.599456e+02
      vertex   -5.570561e+02 1.255208e+02 -3.625136e+02
    endloop
  endfacet
  facet normal 4.995704e-01 8.662733e-01 -1.438152e-14
    outer loop
      vertex   -5.570561e+02 1.255208e+02 -3.625136e+02
      vertex   -5.570478e+02 1.255160e+02 -3.599456e+02
      vertex   -5.570478e+02 1.255160e+02 -3.625136e+02
    endloop
  endfacet
  facet normal -8.662733e-01 4.995704e-01 -8.293615e-15
    outer loop
      vertex   -5.570478e+02 1.255160e+02 -3.599456e+02
      vertex   -5.568967e+02 1.257779e+02 -3.605475e+02
      vertex   -5.570478e+02 1.255160e+02 -3.625136e+02
    endloop
  endfacet
  facet normal -8.662733e-01 4.995704e-01 6.190957e-15
    outer loop
      vertex   -5.570478e+02 1.255160e+02 -3.625136e+02
      vertex   -5.568967e+02 1.257779e+02 -3.605475e+02
      vertex   -5.566747e+02 1.261629e+02 -3.610537e+02
    endloop
  endfacet
  facet normal -8.662733e-01 4.995704e-01 -1.063460e-15
    outer loop
      vertex   -5.570478e+02 1.255160e+02 -3.625136e+02
      vertex   -5.566747e+02 1.261629e+02 -3.610537e+02
      vertex   -5.563962e+02 1.266459e+02 -3.614316e+02
    endloop
  endfacet
  facet normal -8.662733e-01 4.995704e-01 -1.013431e-13
    outer loop
      vertex   -5.563962e+02 1.266459e+02 -3.614316e+02
      vertex   -5.560790e+02 1.271958e+02 -3.616566e+02
      vertex   -5.570478e+02 1.255160e+02 -3.625136e+02
    endloop
  endfacet
  facet normal -8.662733e-01 4.995704e-01 -7.626997e-14
    outer loop
      vertex   -5.570478e+02 1.255160e+02 -3.625136e+02
      vertex   -5.560790e+02 1.271958e+02 -3.616566e+02
      vertex   -5.557438e+02 1.277772e+02 -3.617144e+02
    endloop
  endfacet
  facet normal -8.662733e-01 4.995704e-01 1.387448e-14
    outer loop
      vertex   -5.570478e+02 1.255160e+02 -3.625136e+02
      vertex   -5.557438e+02 1.277772e+02 -3.617144e+02
      vertex   -5.568192e+02 1.259124e+02 -3.625667e+02
    endloop
  endfacet
  facet normal -8.662733e-01 4.995704e-01 6.593507e-13
    outer loop
      vertex   -5.568192e+02 1.259124e+02 -3.625667e+02
      vertex   -5.557438e+02 1.277772e+02 -3.617144e+02
      vertex   -5.554121e+02 1.283524e+02 -3.616011e+02
    endloop
  endfacet
  facet normal -8.662733e-01 4.995704e-01 -5.812418e-14
    outer loop
      vertex   -5.568192e+02 1.259124e+02 -3.625667e+02
      vertex   -5.554121e+02 1.283524e+02 -3.616011e+02
      vertex   -5.476487e+02 1.418144e+02 -3.625667e+02
    endloop
  endfacet
  facet normal -8.662733e-01 4.995704e-01 3.948449e-14
    outer loop
      vertex   -5.476487e+02 1.418144e+02 -3.625667e+02
      vertex   -5.554121e+02 1.283524e+02 -3.616011e+02
      vertex   -5.490346e+02 1.394112e+02 -3.616011e+02
    endloop
  endfacet
  facet normal -8.662733e-01 4.995704e-01 6.781435e-13
    outer loop
      vertex   -5.476487e+02 1.418144e+02 -3.625667e+02
      vertex   -5.490346e+02 1.394112e+02 -3.616011e+02
      vertex   -5.487029e+02 1.399864e+02 -3.617144e+02
    endloop
  endfacet
  facet normal -8.662733e-01 4.995704e-01 1.663690e-13
    outer loop
      vertex   -5.490346e+02 1.394112e+02 -3.616011e+02
      vertex   -5.554121e+02 1.283524e+02 -3.616011e+02
      vertex   -5.493413e+02 1.388793e+02 -3.613240e+02
    endloop
  endfacet
  facet normal -8.662733e-01 4.995704e-01 2.333890e-13
    outer loop
      vertex   -5.493413e+02 1.388793e+02 -3.613240e+02
      vertex   -5.554121e+02 1.283524e+02 -3.616011e+02
      vertex   -5.551054e+02 1.288842e+02 -3.613240e+02
    endloop
  endfacet
  facet normal -8.662733e-01 4.995704e-01 9.083268e-14
    outer loop
      vertex   -5.493413e+02 1.388793e+02 -3.613240e+02
      vertex   -5.551054e+02 1.288842e+02 -3.613240e+02
      vertex   -5.496032e+02 1.384252e+02 -3.609011e+02
    endloop
  endfacet
  facet normal -8.662733e-01 4.995704e-01 4.805387e-15
    outer loop
      vertex   -5.496032e+02 1.384252e+02 -3.609011e+02
      vertex   -5.551054e+02 1.288842e+02 -3.613240e+02
      vertex   -5.548435e+02 1.293384e+02 -3.609011e+02
    endloop
  endfacet
  facet normal -8.662733e-01 4.995704e-01 -3.468054e-14
    outer loop
      vertex   -5.496032e+02 1.384252e+02 -3.609011e+02
      vertex   -5.548435e+02 1.293384e+02 -3.609011e+02
      vertex   -5.498034e+02 1.380780e+02 -3.603597e+02
    endloop
  endfacet
  facet normal -8.662733e-01 4.995704e-01 -6.095974e-14
    outer loop
      vertex   -5.498034e+02 1.380780e+02 -3.603597e+02
      vertex   -5.548435e+02 1.293384e+02 -3.609011e+02
      vertex   -5.546433e+02 1.296855e+02 -3.603597e+02
    endloop
  endfacet
  facet normal -8.662733e-01 4.995704e-01 2.816596e-14
    outer loop
      vertex   -5.498034e+02 1.380780e+02 -3.603597e+02
      vertex   -5.546433e+02 1.296855e+02 -3.603597e+02
      vertex   -5.545177e+02 1.299032e+02 -3.597348e+02
    endloop
  endfacet
  facet normal -8.662733e-01 4.995704e-01 -1.108976e-13
    outer loop
      vertex   -5.498034e+02 1.380780e+02 -3.603597e+02
      vertex   -5.545177e+02 1.299032e+02 -3.597348e+02
      vertex   -5.499289e+02 1.378604e+02 -3.597348e+02
    endloop
  endfacet
  facet normal -8.662733e-01 4.995704e-01 -1.146244e-13
    outer loop
      vertex   -5.499289e+02 1.378604e+02 -3.597348e+02
      vertex   -5.545177e+02 1.299032e+02 -3.597348e+02
      vertex   -5.544750e+02 1.299773e+02 -3.590667e+02
    endloop
  endfacet
  facet normal -8.662733e-01 4.995704e-01 2.445329e-14
    outer loop
      vertex   -5.499289e+02 1.378604e+02 -3.597348e+02
      vertex   -5.544750e+02 1.299773e+02 -3.590667e+02
      vertex   -5.499717e+02 1.377862e+02 -3.590667e+02
    endloop
  endfacet
  facet normal -8.662733e-01 4.995704e-01 3.706275e-13
    outer loop
      vertex   -5.476487e+02 1.418144e+02 -3.625667e+02
      vertex   -5.487029e+02 1.399864e+02 -3.617144e+02
      vertex   -5.473989e+02 1.422475e+02 -3.625032e+02
    endloop
  endfacet
  facet normal -8.662733e-01 4.995704e-01 -2.435739e-13
    outer loop
      vertex   -5.473989e+02 1.422475e+02 -3.625032e+02
      vertex   -5.487029e+02 1.399864e+02 -3.617144e+02
      vertex   -5.483676e+02 1.405677e+02 -3.616566e+02
    endloop
  endfacet
  facet normal -8.662733e-01 4.995704e-01 8.983433e-14
    outer loop
      vertex   -5.473989e+02 1.422475e+02 -3.625032e+02
      vertex   -5.483676e+02 1.405677e+02 -3.616566e+02
      vertex   -5.480505e+02 1.411177e+02 -3.614316e+02
    endloop
  endfacet
  facet normal -8.662733e-01 4.995704e-01 1.954998e-14
    outer loop
      vertex   -5.480505e+02 1.411177e+02 -3.614316e+02
      vertex   -5.477719e+02 1.416007e+02 -3.610537e+02
      vertex   -5.473989e+02 1.422475e+02 -3.625032e+02
    endloop
  endfacet
  facet normal -8.662733e-01 4.995704e-01 -1.238391e-14
    outer loop
      vertex   -5.473989e+02 1.422475e+02 -3.625032e+02
      vertex   -5.477719e+02 1.416007e+02 -3.610537e+02
      vertex   -5.475499e+02 1.419856e+02 -3.605475e+02
    endloop
  endfacet
  facet normal -8.662733e-01 4.995704e-01 -3.850677e-14
    outer loop
      vertex   -5.473989e+02 1.422475e+02 -3.625032e+02
      vertex   -5.475499e+02 1.419856e+02 -3.605475e+02
      vertex   -5.473989e+02 1.422475e+02 -3.599456e+02
    endloop
  endfacet
  facet normal -8.662733e-01 4.995704e-01 3.440012e-12
    outer loop
      vertex   -5.473989e+02 1.422475e+02 -3.625032e+02
      vertex   -5.474812e+02 1.421049e+02 -3.625384e+02
      vertex   -5.476487e+02 1.418144e+02 -3.625667e+02
    endloop
  endfacet
  facet normal -8.662733e-01 4.995704e-01 -1.126705e-11
    outer loop
      vertex   -5.476487e+02 1.418144e+02 -3.625667e+02
      vertex   -5.474812e+02 1.421049e+02 -3.625384e+02
      vertex   -5.475646e+02 1.419601e+02 -3.625596e+02
    endloop
  endfacet
  facet normal -8.662733e-01 4.995704e-01 5.292221e-12
    outer loop
      vertex   -5.568960e+02 1.257792e+02 -3.625608e+02
      vertex   -5.569723e+02 1.256468e+02 -3.625430e+02
      vertex   -5.568192e+02 1.259124e+02 -3.625667e+02
    endloop
  endfacet
  facet normal -8.662733e-01 4.995704e-01 5.152648e-12
    outer loop
      vertex   -5.568192e+02 1.259124e+02 -3.625667e+02
      vertex   -5.569723e+02 1.256468e+02 -3.625430e+02
      vertex   -5.570478e+02 1.255160e+02 -3.625136e+02
    endloop
  endfacet
  facet normal -1.408326e-14 8.121661e-15 1.000000e+00
    outer loop
      vertex   -5.544750e+02 1.299773e+02 -3.590667e+02
      vertex   -5.484172e+02 1.264838e+02 -3.590667e+02
      vertex   -5.499717e+02 1.377862e+02 -3.590667e+02
    endloop
  endfacet
  facet normal -3.884889e-15 9.524336e-15 1.000000e+00
    outer loop
      vertex   -5.499717e+02 1.377862e+02 -3.590667e+02
      vertex   -5.484172e+02 1.264838e+02 -3.590667e+02
      vertex   -5.439100e+02 1.342905e+02 -3.590667e+02
    endloop
  endfacet
  facet normal -6.320857e-02 -1.142248e-01 -9.914421e-01
    outer loop
      vertex   -5.510239e+02 1.219688e+02 -3.624985e+02
      vertex   -5.569723e+02 1.256468e+02 -3.625430e+02
      vertex   -5.507651e+02 1.224170e+02 -3.625667e+02
    endloop
  endfacet
  facet normal -5.610879e-02 -1.005660e-01 -9.933470e-01
    outer loop
      vertex   -5.507651e+02 1.224170e+02 -3.625667e+02
      vertex   -5.569723e+02 1.256468e+02 -3.625430e+02
      vertex   -5.568960e+02 1.257792e+02 -3.625608e+02
    endloop
  endfacet
  facet normal -1.922927e-02 -3.330607e-02 -9.992602e-01
    outer loop
      vertex   -5.507651e+02 1.224170e+02 -3.625667e+02
      vertex   -5.568960e+02 1.257792e+02 -3.625608e+02
      vertex   -5.568192e+02 1.259124e+02 -3.625667e+02
    endloop
  endfacet
  facet normal -1.896914e-01 -3.323656e-01 -9.238779e-01
    outer loop
      vertex   -5.512651e+02 1.215510e+02 -3.622987e+02
      vertex   -5.572660e+02 1.251572e+02 -3.623639e+02
      vertex   -5.510239e+02 1.219688e+02 -3.624985e+02
    endloop
  endfacet
  facet normal -1.686381e-01 -2.903874e-01 -9.419322e-01
    outer loop
      vertex   -5.510239e+02 1.219688e+02 -3.624985e+02
      vertex   -5.572660e+02 1.251572e+02 -3.623639e+02
      vertex   -5.570478e+02 1.255160e+02 -3.625136e+02
    endloop
  endfacet
  facet normal -9.516391e-02 -1.657852e-01 -9.815595e-01
    outer loop
      vertex   -5.510239e+02 1.219688e+02 -3.624985e+02
      vertex   -5.570478e+02 1.255160e+02 -3.625136e+02
      vertex   -5.569723e+02 1.256468e+02 -3.625430e+02
    endloop
  endfacet
  facet normal -2.693690e-01 -4.635108e-01 -8.441552e-01
    outer loop
      vertex   -5.572660e+02 1.251572e+02 -3.623639e+02
      vertex   -5.512651e+02 1.215510e+02 -3.622987e+02
      vertex   -5.574541e+02 1.248313e+02 -3.621250e+02
    endloop
  endfacet
  facet normal -3.023283e-01 -5.283858e-01 -7.933511e-01
    outer loop
      vertex   -5.574541e+02 1.248313e+02 -3.621250e+02
      vertex   -5.512651e+02 1.215510e+02 -3.622987e+02
      vertex   -5.514722e+02 1.211923e+02 -3.619809e+02
    endloop
  endfacet
  facet normal -3.564119e-01 -6.137686e-01 -7.044563e-01
    outer loop
      vertex   -5.574541e+02 1.248313e+02 -3.621250e+02
      vertex   -5.514722e+02 1.211923e+02 -3.619809e+02
      vertex   -5.576111e+02 1.245594e+02 -3.618086e+02
    endloop
  endfacet
  facet normal -3.945884e-01 -6.882672e-01 -6.087597e-01
    outer loop
      vertex   -5.576111e+02 1.245594e+02 -3.618086e+02
      vertex   -5.514722e+02 1.211923e+02 -3.619809e+02
      vertex   -5.516311e+02 1.209170e+02 -3.615667e+02
    endloop
  endfacet
  facet normal -4.254625e-01 -7.337083e-01 -5.297676e-01
    outer loop
      vertex   -5.576111e+02 1.245594e+02 -3.618086e+02
      vertex   -5.516311e+02 1.209170e+02 -3.615667e+02
      vertex   -5.577292e+02 1.243549e+02 -3.614306e+02
    endloop
  endfacet
  facet normal -4.601821e-01 -8.011157e-01 -3.826826e-01
    outer loop
      vertex   -5.577292e+02 1.243549e+02 -3.614306e+02
      vertex   -5.516311e+02 1.209170e+02 -3.615667e+02
      vertex   -5.517310e+02 1.207440e+02 -3.610843e+02
    endloop
  endfacet
  facet normal -4.730840e-01 -8.173767e-01 -3.287656e-01
    outer loop
      vertex   -5.577292e+02 1.243549e+02 -3.614306e+02
      vertex   -5.517310e+02 1.207440e+02 -3.610843e+02
      vertex   -5.578025e+02 1.242280e+02 -3.610096e+02
    endloop
  endfacet
  facet normal -4.946614e-01 -8.592281e-01 -1.305261e-01
    outer loop
      vertex   -5.578025e+02 1.242280e+02 -3.610096e+02
      vertex   -5.517310e+02 1.207440e+02 -3.610843e+02
      vertex   -5.517651e+02 1.206850e+02 -3.605667e+02
    endloop
  endfacet
  facet normal -4.968859e-01 -8.606317e-01 -1.114336e-01
    outer loop
      vertex   -5.578025e+02 1.242280e+02 -3.610096e+02
      vertex   -5.517651e+02 1.206850e+02 -3.605667e+02
      vertex   -5.578273e+02 1.241850e+02 -3.605667e+02
    endloop
  endfacet
  facet normal -1.678610e-01 -2.908574e-01 -9.419260e-01
    outer loop
      vertex   -5.572660e+02 1.251572e+02 -3.623639e+02
      vertex   -5.570561e+02 1.255208e+02 -3.625136e+02
      vertex   -5.570478e+02 1.255160e+02 -3.625136e+02
    endloop
  endfacet
  facet normal 7.043974e-15 -4.062184e-15 -1.000000e+00
    outer loop
      vertex   -5.568192e+02 1.259124e+02 -3.625667e+02
      vertex   -5.476487e+02 1.418144e+02 -3.625667e+02
      vertex   -5.507651e+02 1.224170e+02 -3.625667e+02
    endloop
  endfacet
  facet normal 7.032798e-15 -4.060388e-15 -1.000000e+00
    outer loop
      vertex   -5.507651e+02 1.224170e+02 -3.625667e+02
      vertex   -5.476487e+02 1.418144e+02 -3.625667e+02
      vertex   -5.415867e+02 1.383145e+02 -3.625667e+02
    endloop
  endfacet
  facet normal 8.660254e-01 -5.000000e-01 5.868339e-14
    outer loop
      vertex   -5.439100e+02 1.342905e+02 -3.590667e+02
      vertex   -5.484172e+02 1.264838e+02 -3.590667e+02
      vertex   -5.438648e+02 1.343687e+02 -3.597525e+02
    endloop
  endfacet
  facet normal 8.660254e-01 -5.000000e-01 -7.886722e-15
    outer loop
      vertex   -5.438648e+02 1.343687e+02 -3.597525e+02
      vertex   -5.484172e+02 1.264838e+02 -3.590667e+02
      vertex   -5.484623e+02 1.264056e+02 -3.597525e+02
    endloop
  endfacet
  facet normal 8.660254e-01 -5.000000e-01 -6.589435e-14
    outer loop
      vertex   -5.438648e+02 1.343687e+02 -3.597525e+02
      vertex   -5.484623e+02 1.264056e+02 -3.597525e+02
      vertex   -5.437325e+02 1.345980e+02 -3.603917e+02
    endloop
  endfacet
  facet normal 8.660254e-01 -5.000000e-01 -9.831861e-14
    outer loop
      vertex   -5.437325e+02 1.345980e+02 -3.603917e+02
      vertex   -5.484623e+02 1.264056e+02 -3.597525e+02
      vertex   -5.485947e+02 1.261764e+02 -3.603917e+02
    endloop
  endfacet
  facet normal 8.660254e-01 -5.000000e-01 -9.003124e-14
    outer loop
      vertex   -5.437325e+02 1.345980e+02 -3.603917e+02
      vertex   -5.485947e+02 1.261764e+02 -3.603917e+02
      vertex   -5.435219e+02 1.349627e+02 -3.609405e+02
    endloop
  endfacet
  facet normal 8.660254e-01 -5.000000e-01 5.881011e-14
    outer loop
      vertex   -5.435219e+02 1.349627e+02 -3.609405e+02
      vertex   -5.485947e+02 1.261764e+02 -3.603917e+02
      vertex   -5.488052e+02 1.258116e+02 -3.609405e+02
    endloop
  endfacet
  facet normal 8.660254e-01 -5.000000e-01 1.063818e-13
    outer loop
      vertex   -5.435219e+02 1.349627e+02 -3.609405e+02
      vertex   -5.488052e+02 1.258116e+02 -3.609405e+02
      vertex   -5.432475e+02 1.354380e+02 -3.613616e+02
    endloop
  endfacet
  facet normal 8.660254e-01 -5.000000e-01 -6.509101e-14
    outer loop
      vertex   -5.432475e+02 1.354380e+02 -3.613616e+02
      vertex   -5.488052e+02 1.258116e+02 -3.609405e+02
      vertex   -5.490797e+02 1.253363e+02 -3.613616e+02
    endloop
  endfacet
  facet normal 8.660254e-01 -5.000000e-01 -1.195080e-13
    outer loop
      vertex   -5.432475e+02 1.354380e+02 -3.613616e+02
      vertex   -5.490797e+02 1.253363e+02 -3.613616e+02
      vertex   -5.429279e+02 1.359915e+02 -3.616264e+02
    endloop
  endfacet
  facet normal 8.660254e-01 -5.000000e-01 2.364066e-13
    outer loop
      vertex   -5.429279e+02 1.359915e+02 -3.616264e+02
      vertex   -5.490797e+02 1.253363e+02 -3.613616e+02
      vertex   -5.493992e+02 1.247828e+02 -3.616264e+02
    endloop
  endfacet
  facet normal 8.660254e-01 -5.000000e-01 2.024508e-13
    outer loop
      vertex   -5.429279e+02 1.359915e+02 -3.616264e+02
      vertex   -5.493992e+02 1.247828e+02 -3.616264e+02
      vertex   -5.415867e+02 1.383145e+02 -3.625667e+02
    endloop
  endfacet
  facet normal 8.660254e-01 -5.000000e-01 -6.586399e-15
    outer loop
      vertex   -5.415867e+02 1.383145e+02 -3.625667e+02
      vertex   -5.493992e+02 1.247828e+02 -3.616264e+02
      vertex   -5.507651e+02 1.224170e+02 -3.625667e+02
    endloop
  endfacet
  facet normal 8.660254e-01 -5.000000e-01 2.040635e-13
    outer loop
      vertex   -5.507651e+02 1.224170e+02 -3.625667e+02
      vertex   -5.493992e+02 1.247828e+02 -3.616264e+02
      vertex   -5.497422e+02 1.241889e+02 -3.617167e+02
    endloop
  endfacet
  facet normal 8.660254e-01 -5.000000e-01 -3.072124e-13
    outer loop
      vertex   -5.507651e+02 1.224170e+02 -3.625667e+02
      vertex   -5.497422e+02 1.241889e+02 -3.617167e+02
      vertex   -5.512651e+02 1.215510e+02 -3.622987e+02
    endloop
  endfacet
  facet normal 8.660254e-01 -5.000000e-01 9.897616e-14
    outer loop
      vertex   -5.512651e+02 1.215510e+02 -3.622987e+02
      vertex   -5.497422e+02 1.241889e+02 -3.617167e+02
      vertex   -5.514722e+02 1.211923e+02 -3.619809e+02
    endloop
  endfacet
  facet normal 8.660254e-01 -5.000000e-01 5.541505e-13
    outer loop
      vertex   -5.514722e+02 1.211923e+02 -3.619809e+02
      vertex   -5.497422e+02 1.241889e+02 -3.617167e+02
      vertex   -5.500851e+02 1.235949e+02 -3.616264e+02
    endloop
  endfacet
  facet normal 8.660254e-01 -5.000000e-01 1.705613e-13
    outer loop
      vertex   -5.514722e+02 1.211923e+02 -3.619809e+02
      vertex   -5.500851e+02 1.235949e+02 -3.616264e+02
      vertex   -5.516311e+02 1.209170e+02 -3.615667e+02
    endloop
  endfacet
  facet normal 8.660254e-01 -5.000000e-01 -9.332081e-14
    outer loop
      vertex   -5.516311e+02 1.209170e+02 -3.615667e+02
      vertex   -5.500851e+02 1.235949e+02 -3.616264e+02
      vertex   -5.504047e+02 1.230414e+02 -3.613616e+02
    endloop
  endfacet
  facet normal 8.660254e-01 -5.000000e-01 -2.095409e-13
    outer loop
      vertex   -5.516311e+02 1.209170e+02 -3.615667e+02
      vertex   -5.504047e+02 1.230414e+02 -3.613616e+02
      vertex   -5.517310e+02 1.207440e+02 -3.610843e+02
    endloop
  endfacet
  facet normal 8.660254e-01 -5.000000e-01 2.222824e-13
    outer loop
      vertex   -5.517310e+02 1.207440e+02 -3.610843e+02
      vertex   -5.504047e+02 1.230414e+02 -3.613616e+02
      vertex   -5.506791e+02 1.225661e+02 -3.609405e+02
    endloop
  endfacet
  facet normal 8.660254e-01 -5.000000e-01 5.692600e-13
    outer loop
      vertex   -5.517310e+02 1.207440e+02 -3.610843e+02
      vertex   -5.506791e+02 1.225661e+02 -3.609405e+02
      vertex   -5.517651e+02 1.206850e+02 -3.605667e+02
    endloop
  endfacet
  facet normal 8.660254e-01 -5.000000e-01 -7.296475e-14
    outer loop
      vertex   -5.517651e+02 1.206850e+02 -3.605667e+02
      vertex   -5.506791e+02 1.225661e+02 -3.609405e+02
      vertex   -5.508896e+02 1.222014e+02 -3.603917e+02
    endloop
  endfacet
  facet normal 8.660254e-01 -5.000000e-01 1.190802e-13
    outer loop
      vertex   -5.517651e+02 1.206850e+02 -3.605667e+02
      vertex   -5.508896e+02 1.222014e+02 -3.603917e+02
      vertex   -5.510220e+02 1.219721e+02 -3.597525e+02
    endloop
  endfacet
  facet normal 8.660254e-01 -5.000000e-01 -2.101045e-14
    outer loop
      vertex   -5.510672e+02 1.218939e+02 -3.590667e+02
      vertex   -5.517651e+02 1.206850e+02 -3.590667e+02
      vertex   -5.510220e+02 1.219721e+02 -3.597525e+02
    endloop
  endfacet
  facet normal 8.660254e-01 -5.000000e-01 4.731077e-15
    outer loop
      vertex   -5.510220e+02 1.219721e+02 -3.597525e+02
      vertex   -5.517651e+02 1.206850e+02 -3.590667e+02
      vertex   -5.517651e+02 1.206850e+02 -3.605667e+02
    endloop
  endfacet
  facet normal 8.660254e-01 -5.000000e-01 1.576763e-12
    outer loop
      vertex   -5.512651e+02 1.215510e+02 -3.622987e+02
      vertex   -5.510239e+02 1.219688e+02 -3.624985e+02
      vertex   -5.507651e+02 1.224170e+02 -3.625667e+02
    endloop
  endfacet
  facet normal 8.660254e-01 -5.000000e-01 4.903701e-11
    outer loop
      vertex   -5.413279e+02 1.387628e+02 -3.624985e+02
      vertex   -5.410867e+02 1.391805e+02 -3.622987e+02
      vertex   -5.415867e+02 1.383145e+02 -3.625667e+02
    endloop
  endfacet
  facet normal 8.660254e-01 -5.000000e-01 -1.032371e-11
    outer loop
      vertex   -5.415867e+02 1.383145e+02 -3.625667e+02
      vertex   -5.410867e+02 1.391805e+02 -3.622987e+02
      vertex   -5.425850e+02 1.365855e+02 -3.617167e+02
    endloop
  endfacet
  facet normal 8.660254e-01 -5.000000e-01 -3.209006e-13
    outer loop
      vertex   -5.415867e+02 1.383145e+02 -3.625667e+02
      vertex   -5.425850e+02 1.365855e+02 -3.617167e+02
      vertex   -5.429279e+02 1.359915e+02 -3.616264e+02
    endloop
  endfacet
  facet normal 8.660254e-01 -5.000000e-01 2.259419e-12
    outer loop
      vertex   -5.410867e+02 1.391805e+02 -3.622987e+02
      vertex   -5.408796e+02 1.395393e+02 -3.619809e+02
      vertex   -5.425850e+02 1.365855e+02 -3.617167e+02
    endloop
  endfacet
  facet normal 8.660254e-01 -5.000000e-01 1.050094e-11
    outer loop
      vertex   -5.425850e+02 1.365855e+02 -3.617167e+02
      vertex   -5.408796e+02 1.395393e+02 -3.619809e+02
      vertex   -5.422420e+02 1.371794e+02 -3.616264e+02
    endloop
  endfacet
  facet normal 8.660254e-01 -5.000000e-01 2.006952e-12
    outer loop
      vertex   -5.422420e+02 1.371794e+02 -3.616264e+02
      vertex   -5.408796e+02 1.395393e+02 -3.619809e+02
      vertex   -5.407207e+02 1.398145e+02 -3.615667e+02
    endloop
  endfacet
  facet normal 8.660254e-01 -5.000000e-01 6.195695e-12
    outer loop
      vertex   -5.422420e+02 1.371794e+02 -3.616264e+02
      vertex   -5.407207e+02 1.398145e+02 -3.615667e+02
      vertex   -5.419225e+02 1.377329e+02 -3.613616e+02
    endloop
  endfacet
  facet normal 8.660254e-01 -5.000000e-01 1.474303e-12
    outer loop
      vertex   -5.419225e+02 1.377329e+02 -3.613616e+02
      vertex   -5.407207e+02 1.398145e+02 -3.615667e+02
      vertex   -5.406208e+02 1.399875e+02 -3.610843e+02
    endloop
  endfacet
  facet normal 8.660254e-01 -5.000000e-01 4.100403e-12
    outer loop
      vertex   -5.419225e+02 1.377329e+02 -3.613616e+02
      vertex   -5.406208e+02 1.399875e+02 -3.610843e+02
      vertex   -5.416481e+02 1.382082e+02 -3.609405e+02
    endloop
  endfacet
  facet normal 8.660254e-01 -5.000000e-01 1.429403e-11
    outer loop
      vertex   -5.416481e+02 1.382082e+02 -3.609405e+02
      vertex   -5.406208e+02 1.399875e+02 -3.610843e+02
      vertex   -5.405867e+02 1.400466e+02 -3.605667e+02
    endloop
  endfacet
  facet normal 8.660254e-01 -5.000000e-01 9.443114e-14
    outer loop
      vertex   -5.416481e+02 1.382082e+02 -3.609405e+02
      vertex   -5.405867e+02 1.400466e+02 -3.605667e+02
      vertex   -5.414375e+02 1.385730e+02 -3.603917e+02
    endloop
  endfacet
  facet normal 8.660254e-01 -5.000000e-01 -3.485827e-14
    outer loop
      vertex   -5.414375e+02 1.385730e+02 -3.603917e+02
      vertex   -5.405867e+02 1.400466e+02 -3.605667e+02
      vertex   -5.413051e+02 1.388022e+02 -3.597525e+02
    endloop
  endfacet
  facet normal 8.660254e-01 -5.000000e-01 9.478353e-15
    outer loop
      vertex   -5.413051e+02 1.388022e+02 -3.597525e+02
      vertex   -5.405867e+02 1.400466e+02 -3.605667e+02
      vertex   -5.405867e+02 1.400466e+02 -3.590667e+02
    endloop
  endfacet
  facet normal 8.660254e-01 -5.000000e-01 1.121891e-13
    outer loop
      vertex   -5.413051e+02 1.388022e+02 -3.597525e+02
      vertex   -5.405867e+02 1.400466e+02 -3.590667e+02
      vertex   -5.412600e+02 1.388804e+02 -3.590667e+02
    endloop
  endfacet
  facet normal 2.105046e-02 3.646047e-02 -9.991134e-01
    outer loop
      vertex   -5.476487e+02 1.418144e+02 -3.625667e+02
      vertex   -5.475646e+02 1.419601e+02 -3.625596e+02
      vertex   -5.415867e+02 1.383145e+02 -3.625667e+02
    endloop
  endfacet
  facet normal 6.475532e-02 1.081116e-01 -9.920275e-01
    outer loop
      vertex   -5.415867e+02 1.383145e+02 -3.625667e+02
      vertex   -5.475646e+02 1.419601e+02 -3.625596e+02
      vertex   -5.474812e+02 1.421049e+02 -3.625384e+02
    endloop
  endfacet
  facet normal 6.720534e-02 1.119173e-01 -9.914424e-01
    outer loop
      vertex   -5.415867e+02 1.383145e+02 -3.625667e+02
      vertex   -5.474812e+02 1.421049e+02 -3.625384e+02
      vertex   -5.413279e+02 1.387628e+02 -3.624985e+02
    endloop
  endfacet
  facet normal 1.046124e-01 1.809510e-01 -9.779126e-01
    outer loop
      vertex   -5.413279e+02 1.387628e+02 -3.624985e+02
      vertex   -5.474812e+02 1.421049e+02 -3.625384e+02
      vertex   -5.473989e+02 1.422475e+02 -3.625032e+02
    endloop
  endfacet
  facet normal 1.770802e-01 3.072595e-01 -9.350049e-01
    outer loop
      vertex   -5.413279e+02 1.387628e+02 -3.624985e+02
      vertex   -5.473989e+02 1.422475e+02 -3.625032e+02
      vertex   -5.471939e+02 1.426026e+02 -3.623477e+02
    endloop
  endfacet
  facet normal 1.926735e-01 3.306441e-01 -9.238784e-01
    outer loop
      vertex   -5.413279e+02 1.387628e+02 -3.624985e+02
      vertex   -5.471939e+02 1.426026e+02 -3.623477e+02
      vertex   -5.410867e+02 1.391805e+02 -3.622987e+02
    endloop
  endfacet
  facet normal 2.738687e-01 4.768172e-01 -8.352492e-01
    outer loop
      vertex   -5.410867e+02 1.391805e+02 -3.622987e+02
      vertex   -5.471939e+02 1.426026e+02 -3.623477e+02
      vertex   -5.470108e+02 1.429198e+02 -3.621065e+02
    endloop
  endfacet
  facet normal 3.063223e-01 5.260801e-01 -7.933513e-01
    outer loop
      vertex   -5.410867e+02 1.391805e+02 -3.622987e+02
      vertex   -5.470108e+02 1.429198e+02 -3.621065e+02
      vertex   -5.408796e+02 1.395393e+02 -3.619809e+02
    endloop
  endfacet
  facet normal 3.578796e-01 6.232317e-01 -6.953449e-01
    outer loop
      vertex   -5.408796e+02 1.395393e+02 -3.619809e+02
      vertex   -5.470108e+02 1.429198e+02 -3.621065e+02
      vertex   -5.468583e+02 1.431838e+02 -3.617914e+02
    endloop
  endfacet
  facet normal 3.987898e-01 6.858414e-01 -6.087596e-01
    outer loop
      vertex   -5.408796e+02 1.395393e+02 -3.619809e+02
      vertex   -5.468583e+02 1.431838e+02 -3.617914e+02
      vertex   -5.407207e+02 1.398145e+02 -3.615667e+02
    endloop
  endfacet
  facet normal 4.250567e-01 7.394761e-01 -5.220172e-01
    outer loop
      vertex   -5.407207e+02 1.398145e+02 -3.615667e+02
      vertex   -5.468583e+02 1.431838e+02 -3.617914e+02
      vertex   -5.467439e+02 1.433820e+02 -3.614174e+02
    endloop
  endfacet
  facet normal 4.637861e-01 7.990347e-01 -3.826826e-01
    outer loop
      vertex   -5.407207e+02 1.398145e+02 -3.615667e+02
      vertex   -5.467439e+02 1.433820e+02 -3.614174e+02
      vertex   -5.406208e+02 1.399875e+02 -3.610843e+02
    endloop
  endfacet
  facet normal 4.721733e-01 8.199617e-01 -3.235972e-01
    outer loop
      vertex   -5.406208e+02 1.399875e+02 -3.610843e+02
      vertex   -5.467439e+02 1.433820e+02 -3.614174e+02
      vertex   -5.466729e+02 1.435049e+02 -3.610025e+02
    endloop
  endfacet
  facet normal 4.968642e-01 8.579562e-01 -1.305261e-01
    outer loop
      vertex   -5.406208e+02 1.399875e+02 -3.610843e+02
      vertex   -5.466729e+02 1.435049e+02 -3.610025e+02
      vertex   -5.405867e+02 1.400466e+02 -3.605667e+02
    endloop
  endfacet
  facet normal 4.969867e-01 8.608061e-01 -1.096223e-01
    outer loop
      vertex   -5.405867e+02 1.400466e+02 -3.605667e+02
      vertex   -5.466729e+02 1.435049e+02 -3.610025e+02
      vertex   -5.466489e+02 1.435466e+02 -3.605667e+02
    endloop
  endfacet
  facet normal -7.032549e-15 4.060244e-15 1.000000e+00
    outer loop
      vertex   -5.412600e+02 1.388804e+02 -3.590667e+02
      vertex   -5.405867e+02 1.400466e+02 -3.590667e+02
      vertex   -5.473239e+02 1.423774e+02 -3.590667e+02
    endloop
  endfacet
  facet normal -7.032549e-15 4.060244e-15 1.000000e+00
    outer loop
      vertex   -5.473239e+02 1.423774e+02 -3.590667e+02
      vertex   -5.405867e+02 1.400466e+02 -3.590667e+02
      vertex   -5.466489e+02 1.435466e+02 -3.590667e+02
    endloop
  endfacet
  facet normal 5.000000e-01 8.660254e-01 -1.640928e-14
    outer loop
      vertex   -5.405867e+02 1.400466e+02 -3.605667e+02
      vertex   -5.466489e+02 1.435466e+02 -3.605667e+02
      vertex   -5.405867e+02 1.400466e+02 -3.590667e+02
    endloop
  endfacet
  facet normal 5.000000e-01 8.660254e-01 0.000000e+00
    outer loop
      vertex   -5.405867e+02 1.400466e+02 -3.590667e+02
      vertex   -5.466489e+02 1.435466e+02 -3.605667e+02
      vertex   -5.466489e+02 1.435466e+02 -3.590667e+02
    endloop
  endfacet
  facet normal -5.000000e-01 -8.660254e-01 8.204641e-15
    outer loop
      vertex   -5.578273e+02 1.241850e+02 -3.605667e+02
      vertex   -5.517651e+02 1.206850e+02 -3.605667e+02
      vertex   -5.578273e+02 1.241850e+02 -3.590667e+02
    endloop
  endfacet
  facet normal -5.000000e-01 -8.660254e-01 8.120488e-15
    outer loop
      vertex   -5.578273e+02 1.241850e+02 -3.590667e+02
      vertex   -5.517651e+02 1.206850e+02 -3.605667e+02
      vertex   -5.517651e+02 1.206850e+02 -3.590667e+02
    endloop
  endfacet
  facet normal -8.660254e-01 5.000000e-01 -1.606678e-13
    outer loop
      vertex   -5.571311e+02 1.253909e+02 -3.590667e+02
      vertex   -5.571227e+02 1.254054e+02 -3.593647e+02
      vertex   -5.578273e+02 1.241850e+02 -3.590667e+02
    endloop
  endfacet
  facet normal -8.660254e-01 5.000000e-01 -4.736952e-15
    outer loop
      vertex   -5.578273e+02 1.241850e+02 -3.590667e+02
      vertex   -5.571227e+02 1.254054e+02 -3.593647e+02
      vertex   -5.578273e+02 1.241850e+02 -3.605667e+02
    endloop
  endfacet
  facet normal -8.660254e-01 5.000000e-01 8.484209e-14
    outer loop
      vertex   -5.578273e+02 1.241850e+02 -3.605667e+02
      vertex   -5.571227e+02 1.254054e+02 -3.593647e+02
      vertex   -5.570976e+02 1.254489e+02 -3.596589e+02
    endloop
  endfacet
  facet normal -8.660254e-01 5.000000e-01 -1.308912e-13
    outer loop
      vertex   -5.578273e+02 1.241850e+02 -3.605667e+02
      vertex   -5.570976e+02 1.254489e+02 -3.596589e+02
      vertex   -5.577292e+02 1.243549e+02 -3.614306e+02
    endloop
  endfacet
  facet normal -8.660254e-01 5.000000e-01 1.214406e-14
    outer loop
      vertex   -5.577292e+02 1.243549e+02 -3.614306e+02
      vertex   -5.570976e+02 1.254489e+02 -3.596589e+02
      vertex   -5.576111e+02 1.245594e+02 -3.618086e+02
    endloop
  endfacet
  facet normal -8.660254e-01 5.000000e-01 2.553634e-15
    outer loop
      vertex   -5.576111e+02 1.245594e+02 -3.618086e+02
      vertex   -5.570976e+02 1.254489e+02 -3.596589e+02
      vertex   -5.574541e+02 1.248313e+02 -3.621250e+02
    endloop
  endfacet
  facet normal -8.660254e-01 5.000000e-01 1.061720e-13
    outer loop
      vertex   -5.574541e+02 1.248313e+02 -3.621250e+02
      vertex   -5.570976e+02 1.254489e+02 -3.596589e+02
      vertex   -5.570561e+02 1.255208e+02 -3.599456e+02
    endloop
  endfacet
  facet normal -8.660254e-01 5.000000e-01 -1.066528e-13
    outer loop
      vertex   -5.574541e+02 1.248313e+02 -3.621250e+02
      vertex   -5.570561e+02 1.255208e+02 -3.599456e+02
      vertex   -5.572660e+02 1.251572e+02 -3.623639e+02
    endloop
  endfacet
  facet normal -8.660254e-01 5.000000e-01 -3.833169e-14
    outer loop
      vertex   -5.572660e+02 1.251572e+02 -3.623639e+02
      vertex   -5.570561e+02 1.255208e+02 -3.599456e+02
      vertex   -5.570561e+02 1.255208e+02 -3.625136e+02
    endloop
  endfacet
  facet normal -8.660254e-01 5.000000e-01 -1.806345e-13
    outer loop
      vertex   -5.577292e+02 1.243549e+02 -3.614306e+02
      vertex   -5.578025e+02 1.242280e+02 -3.610096e+02
      vertex   -5.578273e+02 1.241850e+02 -3.605667e+02
    endloop
  endfacet
  facet normal -8.660254e-01 5.000000e-01 1.828289e-13
    outer loop
      vertex   -5.473574e+02 1.423194e+02 -3.596589e+02
      vertex   -5.470108e+02 1.429198e+02 -3.621065e+02
      vertex   -5.473989e+02 1.422475e+02 -3.599456e+02
    endloop
  endfacet
  facet normal -8.660254e-01 5.000000e-01 -4.883997e-14
    outer loop
      vertex   -5.473989e+02 1.422475e+02 -3.599456e+02
      vertex   -5.470108e+02 1.429198e+02 -3.621065e+02
      vertex   -5.471939e+02 1.426026e+02 -3.623477e+02
    endloop
  endfacet
  facet normal -8.660254e-01 5.000000e-01 -3.849575e-14
    outer loop
      vertex   -5.473989e+02 1.422475e+02 -3.599456e+02
      vertex   -5.471939e+02 1.426026e+02 -3.623477e+02
      vertex   -5.473989e+02 1.422475e+02 -3.625032e+02
    endloop
  endfacet
  facet normal -8.660254e-01 5.000000e-01 -1.860399e-15
    outer loop
      vertex   -5.473323e+02 1.423629e+02 -3.593647e+02
      vertex   -5.466489e+02 1.435466e+02 -3.605667e+02
      vertex   -5.473574e+02 1.423194e+02 -3.596589e+02
    endloop
  endfacet
  facet normal -8.660254e-01 5.000000e-01 -8.056977e-17
    outer loop
      vertex   -5.473574e+02 1.423194e+02 -3.596589e+02
      vertex   -5.466489e+02 1.435466e+02 -3.605667e+02
      vertex   -5.467439e+02 1.433820e+02 -3.614174e+02
    endloop
  endfacet
  facet normal -8.660254e-01 5.000000e-01 7.655391e-14
    outer loop
      vertex   -5.473574e+02 1.423194e+02 -3.596589e+02
      vertex   -5.467439e+02 1.433820e+02 -3.614174e+02
      vertex   -5.468583e+02 1.431838e+02 -3.617914e+02
    endloop
  endfacet
  facet normal -8.660254e-01 5.000000e-01 -1.509089e-13
    outer loop
      vertex   -5.473239e+02 1.423774e+02 -3.590667e+02
      vertex   -5.466489e+02 1.435466e+02 -3.590667e+02
      vertex   -5.473323e+02 1.423629e+02 -3.593647e+02
    endloop
  endfacet
  facet normal -8.660254e-01 5.000000e-01 0.000000e+00
    outer loop
      vertex   -5.473323e+02 1.423629e+02 -3.593647e+02
      vertex   -5.466489e+02 1.435466e+02 -3.590667e+02
      vertex   -5.466489e+02 1.435466e+02 -3.605667e+02
    endloop
  endfacet
  facet normal -8.660254e-01 5.000000e-01 -7.406614e-14
    outer loop
      vertex   -5.466489e+02 1.435466e+02 -3.605667e+02
      vertex   -5.466729e+02 1.435049e+02 -3.610025e+02
      vertex   -5.467439e+02 1.433820e+02 -3.614174e+02
    endloop
  endfacet
  facet normal -8.660254e-01 5.000000e-01 -8.348856e-14
    outer loop
      vertex   -5.468583e+02 1.431838e+02 -3.617914e+02
      vertex   -5.470108e+02 1.429198e+02 -3.621065e+02
      vertex   -5.473574e+02 1.423194e+02 -3.596589e+02
    endloop
  endfacet
  facet normal -1.406510e-14 8.120488e-15 1.000000e+00
    outer loop
      vertex   -5.571311e+02 1.253909e+02 -3.590667e+02
      vertex   -5.578273e+02 1.241850e+02 -3.590667e+02
      vertex   -5.510672e+02 1.218939e+02 -3.590667e+02
    endloop
  endfacet
  facet normal -2.739309e-14 -3.120524e-14 1.000000e+00
    outer loop
      vertex   -5.510672e+02 1.218939e+02 -3.590667e+02
      vertex   -5.578273e+02 1.241850e+02 -3.590667e+02
      vertex   -5.517651e+02 1.206850e+02 -3.590667e+02
    endloop
  endfacet
endsolid
