solid ASCII
  facet normal 0.000000e+00 -7.223094e-01 6.915701e-01
    outer loop
      vertex   -1.321982e+02 5.797704e+01 -4.051295e+02
      vertex   -1.321982e+02 5.659010e+01 -4.065781e+02
      vertex   -1.315982e+02 5.797704e+01 -4.051295e+02
    endloop
  endfacet
  facet normal 0.000000e+00 -7.223094e-01 6.915701e-01
    outer loop
      vertex   -1.315982e+02 5.797704e+01 -4.051295e+02
      vertex   -1.321982e+02 5.659010e+01 -4.065781e+02
      vertex   -1.315982e+02 5.659010e+01 -4.065781e+02
    endloop
  endfacet
  facet normal 0.000000e+00 1.000000e+00 0.000000e+00
    outer loop
      vertex   -1.321982e+02 5.797704e+01 -4.104926e+02
      vertex   -1.321982e+02 5.797704e+01 -4.051295e+02
      vertex   -1.315982e+02 5.797704e+01 -4.104926e+02
    endloop
  endfacet
  facet normal 0.000000e+00 1.000000e+00 -0.000000e+00
    outer loop
      vertex   -1.315982e+02 5.797704e+01 -4.104926e+02
      vertex   -1.321982e+02 5.797704e+01 -4.051295e+02
      vertex   -1.315982e+02 5.797704e+01 -4.051295e+02
    endloop
  endfacet
  facet normal 0.000000e+00 -9.426733e-02 9.955469e-01
    outer loop
      vertex   -1.321982e+02 5.871682e+01 -4.114480e+02
      vertex   -1.321982e+02 5.857630e+01 -4.114613e+02
      vertex   -1.315982e+02 5.871682e+01 -4.114480e+02
    endloop
  endfacet
  facet normal 0.000000e+00 -9.426733e-02 9.955469e-01
    outer loop
      vertex   -1.315982e+02 5.871682e+01 -4.114480e+02
      vertex   -1.321982e+02 5.857630e+01 -4.114613e+02
      vertex   -1.315982e+02 5.857630e+01 -4.114613e+02
    endloop
  endfacet
  facet normal 0.000000e+00 8.862237e-02 9.960653e-01
    outer loop
      vertex   -1.315982e+02 5.857630e+01 -4.114613e+02
      vertex   -1.321982e+02 5.857630e+01 -4.114613e+02
      vertex   -1.321982e+02 5.845385e+01 -4.114504e+02
    endloop
  endfacet
  facet normal 0.000000e+00 8.862237e-02 9.960653e-01
    outer loop
      vertex   -1.315982e+02 5.857630e+01 -4.114613e+02
      vertex   -1.321982e+02 5.845385e+01 -4.114504e+02
      vertex   -1.315982e+02 5.845385e+01 -4.114504e+02
    endloop
  endfacet
  facet normal 0.000000e+00 2.893775e-01 9.572150e-01
    outer loop
      vertex   -1.315982e+02 5.845385e+01 -4.114504e+02
      vertex   -1.321982e+02 5.845385e+01 -4.114504e+02
      vertex   -1.321982e+02 5.839872e+01 -4.114338e+02
    endloop
  endfacet
  facet normal 0.000000e+00 2.893775e-01 9.572150e-01
    outer loop
      vertex   -1.315982e+02 5.845385e+01 -4.114504e+02
      vertex   -1.321982e+02 5.839872e+01 -4.114338e+02
      vertex   -1.315982e+02 5.839872e+01 -4.114338e+02
    endloop
  endfacet
  facet normal 0.000000e+00 4.412799e-01 8.973695e-01
    outer loop
      vertex   -1.315982e+02 5.839872e+01 -4.114338e+02
      vertex   -1.321982e+02 5.839872e+01 -4.114338e+02
      vertex   -1.321982e+02 5.834729e+01 -4.114085e+02
    endloop
  endfacet
  facet normal 0.000000e+00 4.412799e-01 8.973695e-01
    outer loop
      vertex   -1.315982e+02 5.839872e+01 -4.114338e+02
      vertex   -1.321982e+02 5.834729e+01 -4.114085e+02
      vertex   -1.315982e+02 5.834729e+01 -4.114085e+02
    endloop
  endfacet
  facet normal 0.000000e+00 5.866681e-01 8.098275e-01
    outer loop
      vertex   -1.315982e+02 5.834729e+01 -4.114085e+02
      vertex   -1.321982e+02 5.834729e+01 -4.114085e+02
      vertex   -1.321982e+02 5.829929e+01 -4.113737e+02
    endloop
  endfacet
  facet normal 0.000000e+00 5.866681e-01 8.098275e-01
    outer loop
      vertex   -1.315982e+02 5.834729e+01 -4.114085e+02
      vertex   -1.321982e+02 5.829929e+01 -4.113737e+02
      vertex   -1.315982e+02 5.829929e+01 -4.113737e+02
    endloop
  endfacet
  facet normal 0.000000e+00 7.092493e-01 7.049578e-01
    outer loop
      vertex   -1.315982e+02 5.829929e+01 -4.113737e+02
      vertex   -1.321982e+02 5.829929e+01 -4.113737e+02
      vertex   -1.321982e+02 5.825446e+01 -4.113286e+02
    endloop
  endfacet
  facet normal 0.000000e+00 7.092493e-01 7.049578e-01
    outer loop
      vertex   -1.315982e+02 5.829929e+01 -4.113737e+02
      vertex   -1.321982e+02 5.825446e+01 -4.113286e+02
      vertex   -1.315982e+02 5.825446e+01 -4.113286e+02
    endloop
  endfacet
  facet normal 0.000000e+00 8.376995e-01 5.461315e-01
    outer loop
      vertex   -1.315982e+02 5.825446e+01 -4.113286e+02
      vertex   -1.321982e+02 5.825446e+01 -4.113286e+02
      vertex   -1.321982e+02 5.817318e+01 -4.112039e+02
    endloop
  endfacet
  facet normal 0.000000e+00 8.376995e-01 5.461315e-01
    outer loop
      vertex   -1.315982e+02 5.825446e+01 -4.113286e+02
      vertex   -1.321982e+02 5.817318e+01 -4.112039e+02
      vertex   -1.315982e+02 5.817318e+01 -4.112039e+02
    endloop
  endfacet
  facet normal 0.000000e+00 9.259969e-01 3.775312e-01
    outer loop
      vertex   -1.315982e+02 5.817318e+01 -4.112039e+02
      vertex   -1.321982e+02 5.817318e+01 -4.112039e+02
      vertex   -1.321982e+02 5.810130e+01 -4.110276e+02
    endloop
  endfacet
  facet normal 0.000000e+00 9.259969e-01 3.775312e-01
    outer loop
      vertex   -1.315982e+02 5.817318e+01 -4.112039e+02
      vertex   -1.321982e+02 5.810130e+01 -4.110276e+02
      vertex   -1.315982e+02 5.810130e+01 -4.110276e+02
    endloop
  endfacet
  facet normal 0.000000e+00 9.641184e-01 2.654727e-01
    outer loop
      vertex   -1.315982e+02 5.810130e+01 -4.110276e+02
      vertex   -1.321982e+02 5.810130e+01 -4.110276e+02
      vertex   -1.321982e+02 5.803664e+01 -4.107928e+02
    endloop
  endfacet
  facet normal 0.000000e+00 9.641184e-01 2.654727e-01
    outer loop
      vertex   -1.315982e+02 5.810130e+01 -4.110276e+02
      vertex   -1.321982e+02 5.803664e+01 -4.107928e+02
      vertex   -1.315982e+02 5.803664e+01 -4.107928e+02
    endloop
  endfacet
  facet normal 0.000000e+00 9.808541e-01 1.947439e-01
    outer loop
      vertex   -1.315982e+02 5.803664e+01 -4.107928e+02
      vertex   -1.321982e+02 5.803664e+01 -4.107928e+02
      vertex   -1.321982e+02 5.797704e+01 -4.104926e+02
    endloop
  endfacet
  facet normal 0.000000e+00 9.808541e-01 1.947439e-01
    outer loop
      vertex   -1.315982e+02 5.803664e+01 -4.107928e+02
      vertex   -1.321982e+02 5.797704e+01 -4.104926e+02
      vertex   -1.315982e+02 5.797704e+01 -4.104926e+02
    endloop
  endfacet
  facet normal -0.000000e+00 0.000000e+00 1.000000e+00
    outer loop
      vertex   -1.321982e+02 6.423391e+01 -4.114480e+02
      vertex   -1.321982e+02 5.871682e+01 -4.114480e+02
      vertex   -1.315982e+02 6.423391e+01 -4.114480e+02
    endloop
  endfacet
  facet normal 0.000000e+00 0.000000e+00 1.000000e+00
    outer loop
      vertex   -1.315982e+02 6.423391e+01 -4.114480e+02
      vertex   -1.321982e+02 5.871682e+01 -4.114480e+02
      vertex   -1.315982e+02 5.871682e+01 -4.114480e+02
    endloop
  endfacet
  facet normal 0.000000e+00 1.000000e+00 0.000000e+00
    outer loop
      vertex   -1.321982e+02 6.423391e+01 -4.132356e+02
      vertex   -1.321982e+02 6.423391e+01 -4.114480e+02
      vertex   -1.315982e+02 6.423391e+01 -4.132356e+02
    endloop
  endfacet
  facet normal 0.000000e+00 1.000000e+00 -0.000000e+00
    outer loop
      vertex   -1.315982e+02 6.423391e+01 -4.132356e+02
      vertex   -1.321982e+02 6.423391e+01 -4.114480e+02
      vertex   -1.315982e+02 6.423391e+01 -4.114480e+02
    endloop
  endfacet
  facet normal 0.000000e+00 0.000000e+00 -1.000000e+00
    outer loop
      vertex   -1.321982e+02 5.871682e+01 -4.132356e+02
      vertex   -1.321982e+02 6.423391e+01 -4.132356e+02
      vertex   -1.315982e+02 5.871682e+01 -4.132356e+02
    endloop
  endfacet
  facet normal 0.000000e+00 0.000000e+00 -1.000000e+00
    outer loop
      vertex   -1.315982e+02 5.871682e+01 -4.132356e+02
      vertex   -1.321982e+02 6.423391e+01 -4.132356e+02
      vertex   -1.315982e+02 6.423391e+01 -4.132356e+02
    endloop
  endfacet
  facet normal 0.000000e+00 -9.949951e-01 -9.992357e-02
    outer loop
      vertex   -1.321982e+02 5.659010e+01 -4.108316e+02
      vertex   -1.321982e+02 5.665493e+01 -4.114772e+02
      vertex   -1.315982e+02 5.659010e+01 -4.108316e+02
    endloop
  endfacet
  facet normal 0.000000e+00 -9.949951e-01 -9.992357e-02
    outer loop
      vertex   -1.315982e+02 5.659010e+01 -4.108316e+02
      vertex   -1.321982e+02 5.665493e+01 -4.114772e+02
      vertex   -1.315982e+02 5.665493e+01 -4.114772e+02
    endloop
  endfacet
  facet normal -0.000000e+00 -9.640696e-01 -2.656497e-01
    outer loop
      vertex   -1.315982e+02 5.665493e+01 -4.114772e+02
      vertex   -1.321982e+02 5.665493e+01 -4.114772e+02
      vertex   -1.321982e+02 5.679671e+01 -4.119917e+02
    endloop
  endfacet
  facet normal 0.000000e+00 -9.640696e-01 -2.656497e-01
    outer loop
      vertex   -1.315982e+02 5.665493e+01 -4.114772e+02
      vertex   -1.321982e+02 5.679671e+01 -4.119917e+02
      vertex   -1.315982e+02 5.679671e+01 -4.119917e+02
    endloop
  endfacet
  facet normal -0.000000e+00 -8.861828e-01 -4.633358e-01
    outer loop
      vertex   -1.315982e+02 5.679671e+01 -4.119917e+02
      vertex   -1.321982e+02 5.679671e+01 -4.119917e+02
      vertex   -1.321982e+02 5.700567e+01 -4.123914e+02
    endloop
  endfacet
  facet normal 0.000000e+00 -8.861828e-01 -4.633358e-01
    outer loop
      vertex   -1.315982e+02 5.679671e+01 -4.119917e+02
      vertex   -1.321982e+02 5.700567e+01 -4.123914e+02
      vertex   -1.315982e+02 5.700567e+01 -4.123914e+02
    endloop
  endfacet
  facet normal -0.000000e+00 -7.489036e-01 -6.626790e-01
    outer loop
      vertex   -1.315982e+02 5.700567e+01 -4.123914e+02
      vertex   -1.321982e+02 5.700567e+01 -4.123914e+02
      vertex   -1.321982e+02 5.727206e+01 -4.126924e+02
    endloop
  endfacet
  facet normal 0.000000e+00 -7.489036e-01 -6.626790e-01
    outer loop
      vertex   -1.315982e+02 5.700567e+01 -4.123914e+02
      vertex   -1.321982e+02 5.727206e+01 -4.126924e+02
      vertex   -1.315982e+02 5.727206e+01 -4.126924e+02
    endloop
  endfacet
  facet normal -0.000000e+00 -5.714402e-01 -8.206437e-01
    outer loop
      vertex   -1.315982e+02 5.727206e+01 -4.126924e+02
      vertex   -1.321982e+02 5.727206e+01 -4.126924e+02
      vertex   -1.321982e+02 5.758612e+01 -4.129111e+02
    endloop
  endfacet
  facet normal 0.000000e+00 -5.714402e-01 -8.206437e-01
    outer loop
      vertex   -1.315982e+02 5.727206e+01 -4.126924e+02
      vertex   -1.321982e+02 5.758612e+01 -4.129111e+02
      vertex   -1.315982e+02 5.758612e+01 -4.129111e+02
    endloop
  endfacet
  facet normal -0.000000e+00 -3.977392e-01 -9.174985e-01
    outer loop
      vertex   -1.315982e+02 5.758612e+01 -4.129111e+02
      vertex   -1.321982e+02 5.758612e+01 -4.129111e+02
      vertex   -1.321982e+02 5.793811e+01 -4.130637e+02
    endloop
  endfacet
  facet normal 0.000000e+00 -3.977392e-01 -9.174985e-01
    outer loop
      vertex   -1.315982e+02 5.758612e+01 -4.129111e+02
      vertex   -1.321982e+02 5.793811e+01 -4.130637e+02
      vertex   -1.315982e+02 5.793811e+01 -4.130637e+02
    endloop
  endfacet
  facet normal -0.000000e+00 -2.155138e-01 -9.765008e-01
    outer loop
      vertex   -1.315982e+02 5.793811e+01 -4.130637e+02
      vertex   -1.321982e+02 5.793811e+01 -4.130637e+02
      vertex   -1.321982e+02 5.871682e+01 -4.132356e+02
    endloop
  endfacet
  facet normal 0.000000e+00 -2.155138e-01 -9.765008e-01
    outer loop
      vertex   -1.315982e+02 5.793811e+01 -4.130637e+02
      vertex   -1.321982e+02 5.871682e+01 -4.132356e+02
      vertex   -1.315982e+02 5.871682e+01 -4.132356e+02
    endloop
  endfacet
  facet normal 0.000000e+00 -1.000000e+00 1.670512e-15
    outer loop
      vertex   -1.321982e+02 5.659010e+01 -4.065781e+02
      vertex   -1.321982e+02 5.659010e+01 -4.108316e+02
      vertex   -1.315982e+02 5.659010e+01 -4.065781e+02
    endloop
  endfacet
  facet normal 0.000000e+00 -1.000000e+00 1.670512e-15
    outer loop
      vertex   -1.315982e+02 5.659010e+01 -4.065781e+02
      vertex   -1.321982e+02 5.659010e+01 -4.108316e+02
      vertex   -1.315982e+02 5.659010e+01 -4.108316e+02
    endloop
  endfacet
  facet normal 1.000000e+00 0.000000e+00 0.000000e+00
    outer loop
      vertex   -1.315982e+02 5.797704e+01 -4.051295e+02
      vertex   -1.315982e+02 5.659010e+01 -4.065781e+02
      vertex   -1.315982e+02 5.797704e+01 -4.104926e+02
    endloop
  endfacet
  facet normal 1.000000e+00 0.000000e+00 0.000000e+00
    outer loop
      vertex   -1.315982e+02 5.797704e+01 -4.104926e+02
      vertex   -1.315982e+02 5.659010e+01 -4.065781e+02
      vertex   -1.315982e+02 5.659010e+01 -4.108316e+02
    endloop
  endfacet
  facet normal 1.000000e+00 0.000000e+00 0.000000e+00
    outer loop
      vertex   -1.315982e+02 5.797704e+01 -4.104926e+02
      vertex   -1.315982e+02 5.659010e+01 -4.108316e+02
      vertex   -1.315982e+02 5.803664e+01 -4.107928e+02
    endloop
  endfacet
  facet normal 1.000000e+00 0.000000e+00 0.000000e+00
    outer loop
      vertex   -1.315982e+02 5.803664e+01 -4.107928e+02
      vertex   -1.315982e+02 5.659010e+01 -4.108316e+02
      vertex   -1.315982e+02 5.665493e+01 -4.114772e+02
    endloop
  endfacet
  facet normal 1.000000e+00 0.000000e+00 0.000000e+00
    outer loop
      vertex   -1.315982e+02 5.803664e+01 -4.107928e+02
      vertex   -1.315982e+02 5.665493e+01 -4.114772e+02
      vertex   -1.315982e+02 5.810130e+01 -4.110276e+02
    endloop
  endfacet
  facet normal 1.000000e+00 0.000000e+00 0.000000e+00
    outer loop
      vertex   -1.315982e+02 5.810130e+01 -4.110276e+02
      vertex   -1.315982e+02 5.665493e+01 -4.114772e+02
      vertex   -1.315982e+02 5.817318e+01 -4.112039e+02
    endloop
  endfacet
  facet normal 1.000000e+00 0.000000e+00 0.000000e+00
    outer loop
      vertex   -1.315982e+02 5.817318e+01 -4.112039e+02
      vertex   -1.315982e+02 5.665493e+01 -4.114772e+02
      vertex   -1.315982e+02 5.679671e+01 -4.119917e+02
    endloop
  endfacet
  facet normal 1.000000e+00 0.000000e+00 0.000000e+00
    outer loop
      vertex   -1.315982e+02 5.817318e+01 -4.112039e+02
      vertex   -1.315982e+02 5.679671e+01 -4.119917e+02
      vertex   -1.315982e+02 5.825446e+01 -4.113286e+02
    endloop
  endfacet
  facet normal 1.000000e+00 0.000000e+00 0.000000e+00
    outer loop
      vertex   -1.315982e+02 5.825446e+01 -4.113286e+02
      vertex   -1.315982e+02 5.679671e+01 -4.119917e+02
      vertex   -1.315982e+02 5.700567e+01 -4.123914e+02
    endloop
  endfacet
  facet normal 1.000000e+00 0.000000e+00 0.000000e+00
    outer loop
      vertex   -1.315982e+02 5.825446e+01 -4.113286e+02
      vertex   -1.315982e+02 5.700567e+01 -4.123914e+02
      vertex   -1.315982e+02 5.727206e+01 -4.126924e+02
    endloop
  endfacet
  facet normal 1.000000e+00 0.000000e+00 0.000000e+00
    outer loop
      vertex   -1.315982e+02 5.825446e+01 -4.113286e+02
      vertex   -1.315982e+02 5.727206e+01 -4.126924e+02
      vertex   -1.315982e+02 5.829929e+01 -4.113737e+02
    endloop
  endfacet
  facet normal 1.000000e+00 0.000000e+00 0.000000e+00
    outer loop
      vertex   -1.315982e+02 5.829929e+01 -4.113737e+02
      vertex   -1.315982e+02 5.727206e+01 -4.126924e+02
      vertex   -1.315982e+02 5.758612e+01 -4.129111e+02
    endloop
  endfacet
  facet normal 1.000000e+00 0.000000e+00 0.000000e+00
    outer loop
      vertex   -1.315982e+02 5.829929e+01 -4.113737e+02
      vertex   -1.315982e+02 5.758612e+01 -4.129111e+02
      vertex   -1.315982e+02 5.834729e+01 -4.114085e+02
    endloop
  endfacet
  facet normal 1.000000e+00 0.000000e+00 0.000000e+00
    outer loop
      vertex   -1.315982e+02 5.834729e+01 -4.114085e+02
      vertex   -1.315982e+02 5.758612e+01 -4.129111e+02
      vertex   -1.315982e+02 5.839872e+01 -4.114338e+02
    endloop
  endfacet
  facet normal 1.000000e+00 0.000000e+00 0.000000e+00
    outer loop
      vertex   -1.315982e+02 5.839872e+01 -4.114338e+02
      vertex   -1.315982e+02 5.758612e+01 -4.129111e+02
      vertex   -1.315982e+02 5.793811e+01 -4.130637e+02
    endloop
  endfacet
  facet normal 1.000000e+00 0.000000e+00 0.000000e+00
    outer loop
      vertex   -1.315982e+02 5.839872e+01 -4.114338e+02
      vertex   -1.315982e+02 5.793811e+01 -4.130637e+02
      vertex   -1.315982e+02 5.845385e+01 -4.114504e+02
    endloop
  endfacet
  facet normal 1.000000e+00 0.000000e+00 0.000000e+00
    outer loop
      vertex   -1.315982e+02 5.845385e+01 -4.114504e+02
      vertex   -1.315982e+02 5.793811e+01 -4.130637e+02
      vertex   -1.315982e+02 5.857630e+01 -4.114613e+02
    endloop
  endfacet
  facet normal 1.000000e+00 0.000000e+00 0.000000e+00
    outer loop
      vertex   -1.315982e+02 5.857630e+01 -4.114613e+02
      vertex   -1.315982e+02 5.793811e+01 -4.130637e+02
      vertex   -1.315982e+02 5.871682e+01 -4.132356e+02
    endloop
  endfacet
  facet normal 1.000000e+00 -0.000000e+00 0.000000e+00
    outer loop
      vertex   -1.315982e+02 5.857630e+01 -4.114613e+02
      vertex   -1.315982e+02 5.871682e+01 -4.132356e+02
      vertex   -1.315982e+02 5.871682e+01 -4.114480e+02
    endloop
  endfacet
  facet normal 1.000000e+00 0.000000e+00 0.000000e+00
    outer loop
      vertex   -1.315982e+02 5.871682e+01 -4.114480e+02
      vertex   -1.315982e+02 5.871682e+01 -4.132356e+02
      vertex   -1.315982e+02 6.423391e+01 -4.132356e+02
    endloop
  endfacet
  facet normal 1.000000e+00 -0.000000e+00 0.000000e+00
    outer loop
      vertex   -1.315982e+02 5.871682e+01 -4.114480e+02
      vertex   -1.315982e+02 6.423391e+01 -4.132356e+02
      vertex   -1.315982e+02 6.423391e+01 -4.114480e+02
    endloop
  endfacet
  facet normal -1.000000e+00 0.000000e+00 -0.000000e+00
    outer loop
      vertex   -1.321982e+02 5.659010e+01 -4.065781e+02
      vertex   -1.321982e+02 5.797704e+01 -4.104926e+02
      vertex   -1.321982e+02 5.659010e+01 -4.108316e+02
    endloop
  endfacet
  facet normal -1.000000e+00 0.000000e+00 0.000000e+00
    outer loop
      vertex   -1.321982e+02 5.659010e+01 -4.108316e+02
      vertex   -1.321982e+02 5.797704e+01 -4.104926e+02
      vertex   -1.321982e+02 5.803664e+01 -4.107928e+02
    endloop
  endfacet
  facet normal -1.000000e+00 0.000000e+00 0.000000e+00
    outer loop
      vertex   -1.321982e+02 5.659010e+01 -4.108316e+02
      vertex   -1.321982e+02 5.803664e+01 -4.107928e+02
      vertex   -1.321982e+02 5.665493e+01 -4.114772e+02
    endloop
  endfacet
  facet normal -1.000000e+00 0.000000e+00 0.000000e+00
    outer loop
      vertex   -1.321982e+02 5.665493e+01 -4.114772e+02
      vertex   -1.321982e+02 5.803664e+01 -4.107928e+02
      vertex   -1.321982e+02 5.810130e+01 -4.110276e+02
    endloop
  endfacet
  facet normal -1.000000e+00 0.000000e+00 0.000000e+00
    outer loop
      vertex   -1.321982e+02 5.665493e+01 -4.114772e+02
      vertex   -1.321982e+02 5.810130e+01 -4.110276e+02
      vertex   -1.321982e+02 5.817318e+01 -4.112039e+02
    endloop
  endfacet
  facet normal -1.000000e+00 0.000000e+00 0.000000e+00
    outer loop
      vertex   -1.321982e+02 5.659010e+01 -4.065781e+02
      vertex   -1.321982e+02 5.797704e+01 -4.051295e+02
      vertex   -1.321982e+02 5.797704e+01 -4.104926e+02
    endloop
  endfacet
  facet normal -1.000000e+00 0.000000e+00 0.000000e+00
    outer loop
      vertex   -1.321982e+02 5.665493e+01 -4.114772e+02
      vertex   -1.321982e+02 5.817318e+01 -4.112039e+02
      vertex   -1.321982e+02 5.679671e+01 -4.119917e+02
    endloop
  endfacet
  facet normal -1.000000e+00 0.000000e+00 0.000000e+00
    outer loop
      vertex   -1.321982e+02 5.679671e+01 -4.119917e+02
      vertex   -1.321982e+02 5.817318e+01 -4.112039e+02
      vertex   -1.321982e+02 5.825446e+01 -4.113286e+02
    endloop
  endfacet
  facet normal -1.000000e+00 0.000000e+00 0.000000e+00
    outer loop
      vertex   -1.321982e+02 5.679671e+01 -4.119917e+02
      vertex   -1.321982e+02 5.825446e+01 -4.113286e+02
      vertex   -1.321982e+02 5.700567e+01 -4.123914e+02
    endloop
  endfacet
  facet normal -1.000000e+00 0.000000e+00 0.000000e+00
    outer loop
      vertex   -1.321982e+02 5.700567e+01 -4.123914e+02
      vertex   -1.321982e+02 5.825446e+01 -4.113286e+02
      vertex   -1.321982e+02 5.727206e+01 -4.126924e+02
    endloop
  endfacet
  facet normal -1.000000e+00 0.000000e+00 0.000000e+00
    outer loop
      vertex   -1.321982e+02 5.727206e+01 -4.126924e+02
      vertex   -1.321982e+02 5.825446e+01 -4.113286e+02
      vertex   -1.321982e+02 5.829929e+01 -4.113737e+02
    endloop
  endfacet
  facet normal -1.000000e+00 0.000000e+00 0.000000e+00
    outer loop
      vertex   -1.321982e+02 5.727206e+01 -4.126924e+02
      vertex   -1.321982e+02 5.829929e+01 -4.113737e+02
      vertex   -1.321982e+02 5.758612e+01 -4.129111e+02
    endloop
  endfacet
  facet normal -1.000000e+00 0.000000e+00 0.000000e+00
    outer loop
      vertex   -1.321982e+02 5.758612e+01 -4.129111e+02
      vertex   -1.321982e+02 5.829929e+01 -4.113737e+02
      vertex   -1.321982e+02 5.834729e+01 -4.114085e+02
    endloop
  endfacet
  facet normal -1.000000e+00 0.000000e+00 0.000000e+00
    outer loop
      vertex   -1.321982e+02 5.758612e+01 -4.129111e+02
      vertex   -1.321982e+02 5.834729e+01 -4.114085e+02
      vertex   -1.321982e+02 5.839872e+01 -4.114338e+02
    endloop
  endfacet
  facet normal -1.000000e+00 0.000000e+00 0.000000e+00
    outer loop
      vertex   -1.321982e+02 5.758612e+01 -4.129111e+02
      vertex   -1.321982e+02 5.839872e+01 -4.114338e+02
      vertex   -1.321982e+02 5.793811e+01 -4.130637e+02
    endloop
  endfacet
  facet normal -1.000000e+00 0.000000e+00 0.000000e+00
    outer loop
      vertex   -1.321982e+02 5.793811e+01 -4.130637e+02
      vertex   -1.321982e+02 5.839872e+01 -4.114338e+02
      vertex   -1.321982e+02 5.845385e+01 -4.114504e+02
    endloop
  endfacet
  facet normal -1.000000e+00 0.000000e+00 0.000000e+00
    outer loop
      vertex   -1.321982e+02 5.793811e+01 -4.130637e+02
      vertex   -1.321982e+02 5.845385e+01 -4.114504e+02
      vertex   -1.321982e+02 5.857630e+01 -4.114613e+02
    endloop
  endfacet
  facet normal -1.000000e+00 0.000000e+00 0.000000e+00
    outer loop
      vertex   -1.321982e+02 5.793811e+01 -4.130637e+02
      vertex   -1.321982e+02 5.857630e+01 -4.114613e+02
      vertex   -1.321982e+02 5.871682e+01 -4.132356e+02
    endloop
  endfacet
  facet normal -1.000000e+00 0.000000e+00 0.000000e+00
    outer loop
      vertex   -1.321982e+02 5.871682e+01 -4.132356e+02
      vertex   -1.321982e+02 5.857630e+01 -4.114613e+02
      vertex   -1.321982e+02 5.871682e+01 -4.114480e+02
    endloop
  endfacet
  facet normal -1.000000e+00 0.000000e+00 0.000000e+00
    outer loop
      vertex   -1.321982e+02 5.871682e+01 -4.132356e+02
      vertex   -1.321982e+02 5.871682e+01 -4.114480e+02
      vertex   -1.321982e+02 6.423391e+01 -4.132356e+02
    endloop
  endfacet
  facet normal -1.000000e+00 0.000000e+00 0.000000e+00
    outer loop
      vertex   -1.321982e+02 6.423391e+01 -4.132356e+02
      vertex   -1.321982e+02 5.871682e+01 -4.114480e+02
      vertex   -1.321982e+02 6.423391e+01 -4.114480e+02
    endloop
  endfacet
endsolid
