solid ASCII
  facet normal -4.463445e-01 -7.730914e-01 4.506731e-01
    outer loop
      vertex   -5.377286e+02 1.598902e+02 -2.296512e+02
      vertex   -5.316665e+02 1.563902e+02 -2.296512e+02
      vertex   -5.375727e+02 1.601602e+02 -2.290336e+02
    endloop
  endfacet
  facet normal -4.463445e-01 -7.730914e-01 4.506731e-01
    outer loop
      vertex   -5.375727e+02 1.601602e+02 -2.290336e+02
      vertex   -5.316665e+02 1.563902e+02 -2.296512e+02
      vertex   -5.315106e+02 1.566602e+02 -2.290336e+02
    endloop
  endfacet
  facet normal -4.894571e-01 -8.477646e-01 2.042718e-01
    outer loop
      vertex   -5.375727e+02 1.601602e+02 -2.290336e+02
      vertex   -5.315106e+02 1.566602e+02 -2.290336e+02
      vertex   -5.375021e+02 1.602826e+02 -2.283564e+02
    endloop
  endfacet
  facet normal -4.894571e-01 -8.477646e-01 2.042718e-01
    outer loop
      vertex   -5.375021e+02 1.602826e+02 -2.283564e+02
      vertex   -5.315106e+02 1.566602e+02 -2.290336e+02
      vertex   -5.314399e+02 1.567826e+02 -2.283564e+02
    endloop
  endfacet
  facet normal -4.992140e-01 -8.646640e-01 -5.605019e-02
    outer loop
      vertex   -5.375021e+02 1.602826e+02 -2.283564e+02
      vertex   -5.314399e+02 1.567826e+02 -2.283564e+02
      vertex   -5.375215e+02 1.602490e+02 -2.276657e+02
    endloop
  endfacet
  facet normal -4.992140e-01 -8.646640e-01 -5.605019e-02
    outer loop
      vertex   -5.375215e+02 1.602490e+02 -2.276657e+02
      vertex   -5.314399e+02 1.567826e+02 -2.283564e+02
      vertex   -5.314593e+02 1.567490e+02 -2.276657e+02
    endloop
  endfacet
  facet normal -4.749502e-01 -8.226380e-01 -3.125525e-01
    outer loop
      vertex   -5.375215e+02 1.602490e+02 -2.276657e+02
      vertex   -5.314593e+02 1.567490e+02 -2.276657e+02
      vertex   -5.376296e+02 1.600618e+02 -2.270086e+02
    endloop
  endfacet
  facet normal -4.749502e-01 -8.226380e-01 -3.125525e-01
    outer loop
      vertex   -5.376296e+02 1.600618e+02 -2.270086e+02
      vertex   -5.314593e+02 1.567490e+02 -2.276657e+02
      vertex   -5.315674e+02 1.565618e+02 -2.270086e+02
    endloop
  endfacet
  facet normal -4.183194e-01 -7.245505e-01 -5.477549e-01
    outer loop
      vertex   -5.376296e+02 1.600618e+02 -2.270086e+02
      vertex   -5.315674e+02 1.565618e+02 -2.270086e+02
      vertex   -5.378191e+02 1.597336e+02 -2.264298e+02
    endloop
  endfacet
  facet normal -4.183194e-01 -7.245505e-01 -5.477549e-01
    outer loop
      vertex   -5.378191e+02 1.597336e+02 -2.264298e+02
      vertex   -5.315674e+02 1.565618e+02 -2.270086e+02
      vertex   -5.317569e+02 1.562336e+02 -2.264298e+02
    endloop
  endfacet
  facet normal -3.331809e-01 -5.770862e-01 -7.456286e-01
    outer loop
      vertex   -5.378191e+02 1.597336e+02 -2.264298e+02
      vertex   -5.317569e+02 1.562336e+02 -2.264298e+02
      vertex   -5.380770e+02 1.592869e+02 -2.259689e+02
    endloop
  endfacet
  facet normal -3.331809e-01 -5.770862e-01 -7.456286e-01
    outer loop
      vertex   -5.380770e+02 1.592869e+02 -2.259689e+02
      vertex   -5.317569e+02 1.562336e+02 -2.264298e+02
      vertex   -5.320148e+02 1.557869e+02 -2.259689e+02
    endloop
  endfacet
  facet normal -2.253365e-01 -3.902943e-01 -8.926891e-01
    outer loop
      vertex   -5.380770e+02 1.592869e+02 -2.259689e+02
      vertex   -5.320148e+02 1.557869e+02 -2.259689e+02
      vertex   -5.383857e+02 1.587521e+02 -2.256571e+02
    endloop
  endfacet
  facet normal -2.253365e-01 -3.902943e-01 -8.926891e-01
    outer loop
      vertex   -5.383857e+02 1.587521e+02 -2.256571e+02
      vertex   -5.320148e+02 1.557869e+02 -2.259689e+02
      vertex   -5.323236e+02 1.552521e+02 -2.256571e+02
    endloop
  endfacet
  facet normal -1.021359e-01 -1.769046e-01 -9.789142e-01
    outer loop
      vertex   -5.383857e+02 1.587521e+02 -2.256571e+02
      vertex   -5.323236e+02 1.552521e+02 -2.256571e+02
      vertex   -5.387243e+02 1.581656e+02 -2.255158e+02
    endloop
  endfacet
  facet normal -1.021359e-01 -1.769046e-01 -9.789142e-01
    outer loop
      vertex   -5.387243e+02 1.581656e+02 -2.255158e+02
      vertex   -5.323236e+02 1.552521e+02 -2.256571e+02
      vertex   -5.326622e+02 1.546656e+02 -2.255158e+02
    endloop
  endfacet
  facet normal 2.802509e-02 4.854089e-02 -9.984280e-01
    outer loop
      vertex   -5.387243e+02 1.581656e+02 -2.255158e+02
      vertex   -5.326622e+02 1.546656e+02 -2.255158e+02
      vertex   -5.390697e+02 1.575674e+02 -2.255545e+02
    endloop
  endfacet
  facet normal 2.802509e-02 4.854089e-02 -9.984280e-01
    outer loop
      vertex   -5.390697e+02 1.575674e+02 -2.255545e+02
      vertex   -5.326622e+02 1.546656e+02 -2.255158e+02
      vertex   -5.330075e+02 1.540674e+02 -2.255545e+02
    endloop
  endfacet
  facet normal 1.562762e-01 2.706784e-01 -9.499005e-01
    outer loop
      vertex   -5.390697e+02 1.575674e+02 -2.255545e+02
      vertex   -5.330075e+02 1.540674e+02 -2.255545e+02
      vertex   -5.393983e+02 1.569983e+02 -2.257708e+02
    endloop
  endfacet
  facet normal 1.562762e-01 2.706784e-01 -9.499005e-01
    outer loop
      vertex   -5.393983e+02 1.569983e+02 -2.257708e+02
      vertex   -5.330075e+02 1.540674e+02 -2.255545e+02
      vertex   -5.333361e+02 1.534983e+02 -2.257708e+02
    endloop
  endfacet
  facet normal 2.738774e-01 4.743696e-01 -8.366389e-01
    outer loop
      vertex   -5.393983e+02 1.569983e+02 -2.257708e+02
      vertex   -5.333361e+02 1.534983e+02 -2.257708e+02
      vertex   -5.396876e+02 1.564971e+02 -2.261497e+02
    endloop
  endfacet
  facet normal 2.738774e-01 4.743696e-01 -8.366389e-01
    outer loop
      vertex   -5.396876e+02 1.564971e+02 -2.261497e+02
      vertex   -5.333361e+02 1.534983e+02 -2.257708e+02
      vertex   -5.336255e+02 1.529971e+02 -2.261497e+02
    endloop
  endfacet
  facet normal 3.728143e-01 6.457333e-01 -6.663617e-01
    outer loop
      vertex   -5.396876e+02 1.564971e+02 -2.261497e+02
      vertex   -5.336255e+02 1.529971e+02 -2.261497e+02
      vertex   -5.399181e+02 1.560979e+02 -2.266655e+02
    endloop
  endfacet
  facet normal 3.728143e-01 6.457333e-01 -6.663617e-01
    outer loop
      vertex   -5.399181e+02 1.560979e+02 -2.266655e+02
      vertex   -5.336255e+02 1.529971e+02 -2.261497e+02
      vertex   -5.338560e+02 1.525979e+02 -2.266655e+02
    endloop
  endfacet
  facet normal -4.463445e-01 -7.730914e-01 4.506731e-01
    outer loop
      vertex   -5.321819e+02 1.694975e+02 -2.372150e+02
      vertex   -5.261197e+02 1.659975e+02 -2.372150e+02
      vertex   -5.320260e+02 1.697675e+02 -2.365974e+02
    endloop
  endfacet
  facet normal -4.463445e-01 -7.730914e-01 4.506731e-01
    outer loop
      vertex   -5.320260e+02 1.697675e+02 -2.365974e+02
      vertex   -5.261197e+02 1.659975e+02 -2.372150e+02
      vertex   -5.259638e+02 1.662675e+02 -2.365974e+02
    endloop
  endfacet
  facet normal -4.894571e-01 -8.477646e-01 2.042718e-01
    outer loop
      vertex   -5.320260e+02 1.697675e+02 -2.365974e+02
      vertex   -5.259638e+02 1.662675e+02 -2.365974e+02
      vertex   -5.319553e+02 1.698899e+02 -2.359202e+02
    endloop
  endfacet
  facet normal -4.894571e-01 -8.477646e-01 2.042718e-01
    outer loop
      vertex   -5.319553e+02 1.698899e+02 -2.359202e+02
      vertex   -5.259638e+02 1.662675e+02 -2.365974e+02
      vertex   -5.258931e+02 1.663899e+02 -2.359202e+02
    endloop
  endfacet
  facet normal -4.992140e-01 -8.646640e-01 -5.605019e-02
    outer loop
      vertex   -5.319553e+02 1.698899e+02 -2.359202e+02
      vertex   -5.258931e+02 1.663899e+02 -2.359202e+02
      vertex   -5.319747e+02 1.698563e+02 -2.352295e+02
    endloop
  endfacet
  facet normal -4.992140e-01 -8.646640e-01 -5.605019e-02
    outer loop
      vertex   -5.319747e+02 1.698563e+02 -2.352295e+02
      vertex   -5.258931e+02 1.663899e+02 -2.359202e+02
      vertex   -5.259125e+02 1.663563e+02 -2.352295e+02
    endloop
  endfacet
  facet normal -4.749502e-01 -8.226380e-01 -3.125525e-01
    outer loop
      vertex   -5.319747e+02 1.698563e+02 -2.352295e+02
      vertex   -5.259125e+02 1.663563e+02 -2.352295e+02
      vertex   -5.320828e+02 1.696691e+02 -2.345724e+02
    endloop
  endfacet
  facet normal -4.749502e-01 -8.226380e-01 -3.125525e-01
    outer loop
      vertex   -5.320828e+02 1.696691e+02 -2.345724e+02
      vertex   -5.259125e+02 1.663563e+02 -2.352295e+02
      vertex   -5.260206e+02 1.661691e+02 -2.345724e+02
    endloop
  endfacet
  facet normal -4.183194e-01 -7.245505e-01 -5.477549e-01
    outer loop
      vertex   -5.320828e+02 1.696691e+02 -2.345724e+02
      vertex   -5.260206e+02 1.661691e+02 -2.345724e+02
      vertex   -5.322723e+02 1.693409e+02 -2.339936e+02
    endloop
  endfacet
  facet normal -4.183194e-01 -7.245505e-01 -5.477549e-01
    outer loop
      vertex   -5.322723e+02 1.693409e+02 -2.339936e+02
      vertex   -5.260206e+02 1.661691e+02 -2.345724e+02
      vertex   -5.262101e+02 1.658409e+02 -2.339936e+02
    endloop
  endfacet
  facet normal -3.331809e-01 -5.770862e-01 -7.456286e-01
    outer loop
      vertex   -5.322723e+02 1.693409e+02 -2.339936e+02
      vertex   -5.262101e+02 1.658409e+02 -2.339936e+02
      vertex   -5.325302e+02 1.688942e+02 -2.335326e+02
    endloop
  endfacet
  facet normal -3.331809e-01 -5.770862e-01 -7.456286e-01
    outer loop
      vertex   -5.325302e+02 1.688942e+02 -2.335326e+02
      vertex   -5.262101e+02 1.658409e+02 -2.339936e+02
      vertex   -5.264680e+02 1.653942e+02 -2.335326e+02
    endloop
  endfacet
  facet normal -2.253365e-01 -3.902943e-01 -8.926891e-01
    outer loop
      vertex   -5.325302e+02 1.688942e+02 -2.335326e+02
      vertex   -5.264680e+02 1.653942e+02 -2.335326e+02
      vertex   -5.328390e+02 1.683594e+02 -2.332209e+02
    endloop
  endfacet
  facet normal -2.253365e-01 -3.902943e-01 -8.926891e-01
    outer loop
      vertex   -5.328390e+02 1.683594e+02 -2.332209e+02
      vertex   -5.264680e+02 1.653942e+02 -2.335326e+02
      vertex   -5.267768e+02 1.648594e+02 -2.332209e+02
    endloop
  endfacet
  facet normal -1.021359e-01 -1.769046e-01 -9.789142e-01
    outer loop
      vertex   -5.328390e+02 1.683594e+02 -2.332209e+02
      vertex   -5.267768e+02 1.648594e+02 -2.332209e+02
      vertex   -5.331776e+02 1.677729e+02 -2.330796e+02
    endloop
  endfacet
  facet normal -1.021359e-01 -1.769046e-01 -9.789142e-01
    outer loop
      vertex   -5.331776e+02 1.677729e+02 -2.330796e+02
      vertex   -5.267768e+02 1.648594e+02 -2.332209e+02
      vertex   -5.271154e+02 1.642729e+02 -2.330796e+02
    endloop
  endfacet
  facet normal 2.802509e-02 4.854089e-02 -9.984280e-01
    outer loop
      vertex   -5.331776e+02 1.677729e+02 -2.330796e+02
      vertex   -5.271154e+02 1.642729e+02 -2.330796e+02
      vertex   -5.335229e+02 1.671747e+02 -2.331183e+02
    endloop
  endfacet
  facet normal 2.802509e-02 4.854089e-02 -9.984280e-01
    outer loop
      vertex   -5.335229e+02 1.671747e+02 -2.331183e+02
      vertex   -5.271154e+02 1.642729e+02 -2.330796e+02
      vertex   -5.274607e+02 1.636747e+02 -2.331183e+02
    endloop
  endfacet
  facet normal 1.562762e-01 2.706784e-01 -9.499005e-01
    outer loop
      vertex   -5.335229e+02 1.671747e+02 -2.331183e+02
      vertex   -5.274607e+02 1.636747e+02 -2.331183e+02
      vertex   -5.338515e+02 1.666056e+02 -2.333345e+02
    endloop
  endfacet
  facet normal 1.562762e-01 2.706784e-01 -9.499005e-01
    outer loop
      vertex   -5.338515e+02 1.666056e+02 -2.333345e+02
      vertex   -5.274607e+02 1.636747e+02 -2.331183e+02
      vertex   -5.277893e+02 1.631056e+02 -2.333345e+02
    endloop
  endfacet
  facet normal 2.738774e-01 4.743696e-01 -8.366389e-01
    outer loop
      vertex   -5.338515e+02 1.666056e+02 -2.333345e+02
      vertex   -5.277893e+02 1.631056e+02 -2.333345e+02
      vertex   -5.341409e+02 1.661044e+02 -2.337135e+02
    endloop
  endfacet
  facet normal 2.738774e-01 4.743696e-01 -8.366389e-01
    outer loop
      vertex   -5.341409e+02 1.661044e+02 -2.337135e+02
      vertex   -5.277893e+02 1.631056e+02 -2.333345e+02
      vertex   -5.280787e+02 1.626044e+02 -2.337135e+02
    endloop
  endfacet
  facet normal 3.728143e-01 6.457333e-01 -6.663617e-01
    outer loop
      vertex   -5.341409e+02 1.661044e+02 -2.337135e+02
      vertex   -5.280787e+02 1.626044e+02 -2.337135e+02
      vertex   -5.343714e+02 1.657052e+02 -2.342293e+02
    endloop
  endfacet
  facet normal 3.728143e-01 6.457333e-01 -6.663617e-01
    outer loop
      vertex   -5.343714e+02 1.657052e+02 -2.342293e+02
      vertex   -5.280787e+02 1.626044e+02 -2.337135e+02
      vertex   -5.283092e+02 1.622052e+02 -2.342293e+02
    endloop
  endfacet
  facet normal -2.816684e-01 -4.878640e-01 -8.262273e-01
    outer loop
      vertex   -5.399181e+02 1.560979e+02 -2.266655e+02
      vertex   -5.338560e+02 1.525979e+02 -2.266655e+02
      vertex   -5.404758e+02 1.551319e+02 -2.259050e+02
    endloop
  endfacet
  facet normal -2.816684e-01 -4.878640e-01 -8.262273e-01
    outer loop
      vertex   -5.404758e+02 1.551319e+02 -2.259050e+02
      vertex   -5.338560e+02 1.525979e+02 -2.266655e+02
      vertex   -5.344137e+02 1.516319e+02 -2.259050e+02
    endloop
  endfacet
  facet normal -8.660254e-01 5.000000e-01 3.119200e-14
    outer loop
      vertex   -5.343714e+02 1.657052e+02 -2.342293e+02
      vertex   -5.377286e+02 1.598902e+02 -2.296512e+02
      vertex   -5.341409e+02 1.661044e+02 -2.337135e+02
    endloop
  endfacet
  facet normal -8.660254e-01 5.000000e-01 1.427880e-13
    outer loop
      vertex   -5.341409e+02 1.661044e+02 -2.337135e+02
      vertex   -5.377286e+02 1.598902e+02 -2.296512e+02
      vertex   -5.375727e+02 1.601602e+02 -2.290336e+02
    endloop
  endfacet
  facet normal -8.660254e-01 5.000000e-01 -2.053388e-14
    outer loop
      vertex   -5.341409e+02 1.661044e+02 -2.337135e+02
      vertex   -5.375727e+02 1.601602e+02 -2.290336e+02
      vertex   -5.338515e+02 1.666056e+02 -2.333345e+02
    endloop
  endfacet
  facet normal -8.660254e-01 5.000000e-01 -6.416172e-14
    outer loop
      vertex   -5.338515e+02 1.666056e+02 -2.333345e+02
      vertex   -5.375727e+02 1.601602e+02 -2.290336e+02
      vertex   -5.375021e+02 1.602826e+02 -2.283564e+02
    endloop
  endfacet
  facet normal -8.660254e-01 5.000000e-01 2.197585e-14
    outer loop
      vertex   -5.338515e+02 1.666056e+02 -2.333345e+02
      vertex   -5.375021e+02 1.602826e+02 -2.283564e+02
      vertex   -5.335229e+02 1.671747e+02 -2.331183e+02
    endloop
  endfacet
  facet normal -8.660254e-01 5.000000e-01 8.694194e-14
    outer loop
      vertex   -5.335229e+02 1.671747e+02 -2.331183e+02
      vertex   -5.375021e+02 1.602826e+02 -2.283564e+02
      vertex   -5.375215e+02 1.602490e+02 -2.276657e+02
    endloop
  endfacet
  facet normal -8.660254e-01 5.000000e-01 -4.020147e-14
    outer loop
      vertex   -5.335229e+02 1.671747e+02 -2.331183e+02
      vertex   -5.375215e+02 1.602490e+02 -2.276657e+02
      vertex   -5.331776e+02 1.677729e+02 -2.330796e+02
    endloop
  endfacet
  facet normal -8.660254e-01 5.000000e-01 -2.818087e-14
    outer loop
      vertex   -5.331776e+02 1.677729e+02 -2.330796e+02
      vertex   -5.375215e+02 1.602490e+02 -2.276657e+02
      vertex   -5.376296e+02 1.600618e+02 -2.270086e+02
    endloop
  endfacet
  facet normal -8.660254e-01 5.000000e-01 1.058469e-13
    outer loop
      vertex   -5.331776e+02 1.677729e+02 -2.330796e+02
      vertex   -5.376296e+02 1.600618e+02 -2.270086e+02
      vertex   -5.328390e+02 1.683594e+02 -2.332209e+02
    endloop
  endfacet
  facet normal -8.660254e-01 5.000000e-01 1.224538e-13
    outer loop
      vertex   -5.328390e+02 1.683594e+02 -2.332209e+02
      vertex   -5.376296e+02 1.600618e+02 -2.270086e+02
      vertex   -5.378191e+02 1.597336e+02 -2.264298e+02
    endloop
  endfacet
  facet normal -8.660254e-01 5.000000e-01 5.046077e-14
    outer loop
      vertex   -5.328390e+02 1.683594e+02 -2.332209e+02
      vertex   -5.378191e+02 1.597336e+02 -2.264298e+02
      vertex   -5.314645e+02 1.707399e+02 -2.339570e+02
    endloop
  endfacet
  facet normal -8.660254e-01 5.000000e-01 -6.070677e-14
    outer loop
      vertex   -5.314645e+02 1.707399e+02 -2.339570e+02
      vertex   -5.378191e+02 1.597336e+02 -2.264298e+02
      vertex   -5.386638e+02 1.582705e+02 -2.241399e+02
    endloop
  endfacet
  facet normal -8.660254e-01 5.000000e-01 3.034928e-15
    outer loop
      vertex   -5.386638e+02 1.582705e+02 -2.241399e+02
      vertex   -5.378191e+02 1.597336e+02 -2.264298e+02
      vertex   -5.380770e+02 1.592869e+02 -2.259689e+02
    endloop
  endfacet
  facet normal -8.660254e-01 5.000000e-01 9.793270e-14
    outer loop
      vertex   -5.386638e+02 1.582705e+02 -2.241399e+02
      vertex   -5.380770e+02 1.592869e+02 -2.259689e+02
      vertex   -5.391524e+02 1.574242e+02 -2.237979e+02
    endloop
  endfacet
  facet normal -8.660254e-01 5.000000e-01 -1.656591e-13
    outer loop
      vertex   -5.391524e+02 1.574242e+02 -2.237979e+02
      vertex   -5.380770e+02 1.592869e+02 -2.259689e+02
      vertex   -5.394130e+02 1.569728e+02 -2.238272e+02
    endloop
  endfacet
  facet normal -8.660254e-01 5.000000e-01 1.460617e-13
    outer loop
      vertex   -5.394130e+02 1.569728e+02 -2.238272e+02
      vertex   -5.380770e+02 1.592869e+02 -2.259689e+02
      vertex   -5.383857e+02 1.587521e+02 -2.256571e+02
    endloop
  endfacet
  facet normal -8.660254e-01 5.000000e-01 -8.075693e-14
    outer loop
      vertex   -5.394130e+02 1.569728e+02 -2.238272e+02
      vertex   -5.383857e+02 1.587521e+02 -2.256571e+02
      vertex   -5.396610e+02 1.565433e+02 -2.239904e+02
    endloop
  endfacet
  facet normal -8.660254e-01 5.000000e-01 -1.560691e-13
    outer loop
      vertex   -5.396610e+02 1.565433e+02 -2.239904e+02
      vertex   -5.383857e+02 1.587521e+02 -2.256571e+02
      vertex   -5.387243e+02 1.581656e+02 -2.255158e+02
    endloop
  endfacet
  facet normal -8.660254e-01 5.000000e-01 8.317192e-14
    outer loop
      vertex   -5.396610e+02 1.565433e+02 -2.239904e+02
      vertex   -5.387243e+02 1.581656e+02 -2.255158e+02
      vertex   -5.398794e+02 1.561650e+02 -2.242764e+02
    endloop
  endfacet
  facet normal -8.660254e-01 5.000000e-01 -1.577936e-13
    outer loop
      vertex   -5.398794e+02 1.561650e+02 -2.242764e+02
      vertex   -5.387243e+02 1.581656e+02 -2.255158e+02
      vertex   -5.390697e+02 1.575674e+02 -2.255545e+02
    endloop
  endfacet
  facet normal -8.660254e-01 5.000000e-01 -3.163557e-13
    outer loop
      vertex   -5.398794e+02 1.561650e+02 -2.242764e+02
      vertex   -5.390697e+02 1.575674e+02 -2.255545e+02
      vertex   -5.400533e+02 1.558637e+02 -2.246657e+02
    endloop
  endfacet
  facet normal -8.660254e-01 5.000000e-01 6.818764e-14
    outer loop
      vertex   -5.400533e+02 1.558637e+02 -2.246657e+02
      vertex   -5.390697e+02 1.575674e+02 -2.255545e+02
      vertex   -5.393983e+02 1.569983e+02 -2.257708e+02
    endloop
  endfacet
  facet normal -8.660254e-01 5.000000e-01 -1.167817e-14
    outer loop
      vertex   -5.400533e+02 1.558637e+02 -2.246657e+02
      vertex   -5.393983e+02 1.569983e+02 -2.257708e+02
      vertex   -5.396876e+02 1.564971e+02 -2.261497e+02
    endloop
  endfacet
  facet normal -8.660254e-01 5.000000e-01 -7.583940e-14
    outer loop
      vertex   -5.399181e+02 1.560979e+02 -2.266655e+02
      vertex   -5.404758e+02 1.551319e+02 -2.259050e+02
      vertex   -5.396876e+02 1.564971e+02 -2.261497e+02
    endloop
  endfacet
  facet normal -8.660254e-01 5.000000e-01 3.702551e-14
    outer loop
      vertex   -5.396876e+02 1.564971e+02 -2.261497e+02
      vertex   -5.404758e+02 1.551319e+02 -2.259050e+02
      vertex   -5.400533e+02 1.558637e+02 -2.246657e+02
    endloop
  endfacet
  facet normal -8.660254e-01 5.000000e-01 1.302167e-13
    outer loop
      vertex   -5.391524e+02 1.574242e+02 -2.237979e+02
      vertex   -5.388968e+02 1.578669e+02 -2.239046e+02
      vertex   -5.386638e+02 1.582705e+02 -2.241399e+02
    endloop
  endfacet
  facet normal -8.660254e-01 5.000000e-01 5.578468e-13
    outer loop
      vertex   -5.312699e+02 1.710771e+02 -2.343049e+02
      vertex   -5.311269e+02 1.713247e+02 -2.347417e+02
      vertex   -5.314645e+02 1.707399e+02 -2.339570e+02
    endloop
  endfacet
  facet normal -8.660254e-01 5.000000e-01 2.971226e-13
    outer loop
      vertex   -5.314645e+02 1.707399e+02 -2.339570e+02
      vertex   -5.311269e+02 1.713247e+02 -2.347417e+02
      vertex   -5.325302e+02 1.688942e+02 -2.335326e+02
    endloop
  endfacet
  facet normal -8.660254e-01 5.000000e-01 -9.822131e-14
    outer loop
      vertex   -5.314645e+02 1.707399e+02 -2.339570e+02
      vertex   -5.325302e+02 1.688942e+02 -2.335326e+02
      vertex   -5.328390e+02 1.683594e+02 -2.332209e+02
    endloop
  endfacet
  facet normal -8.660254e-01 5.000000e-01 -1.403340e-13
    outer loop
      vertex   -5.311269e+02 1.713247e+02 -2.347417e+02
      vertex   -5.310453e+02 1.714661e+02 -2.352377e+02
      vertex   -5.325302e+02 1.688942e+02 -2.335326e+02
    endloop
  endfacet
  facet normal -8.660254e-01 5.000000e-01 -2.719378e-13
    outer loop
      vertex   -5.325302e+02 1.688942e+02 -2.335326e+02
      vertex   -5.310453e+02 1.714661e+02 -2.352377e+02
      vertex   -5.322723e+02 1.693409e+02 -2.339936e+02
    endloop
  endfacet
  facet normal -8.660254e-01 5.000000e-01 -9.254887e-14
    outer loop
      vertex   -5.322723e+02 1.693409e+02 -2.339936e+02
      vertex   -5.310453e+02 1.714661e+02 -2.352377e+02
      vertex   -5.310307e+02 1.714914e+02 -2.357590e+02
    endloop
  endfacet
  facet normal -8.660254e-01 5.000000e-01 8.576574e-14
    outer loop
      vertex   -5.322723e+02 1.693409e+02 -2.339936e+02
      vertex   -5.310307e+02 1.714914e+02 -2.357590e+02
      vertex   -5.320828e+02 1.696691e+02 -2.345724e+02
    endloop
  endfacet
  facet normal -8.660254e-01 5.000000e-01 5.098379e-14
    outer loop
      vertex   -5.320828e+02 1.696691e+02 -2.345724e+02
      vertex   -5.310307e+02 1.714914e+02 -2.357590e+02
      vertex   -5.310840e+02 1.713990e+02 -2.362701e+02
    endloop
  endfacet
  facet normal -8.660254e-01 5.000000e-01 -1.722933e-14
    outer loop
      vertex   -5.320828e+02 1.696691e+02 -2.345724e+02
      vertex   -5.310840e+02 1.713990e+02 -2.362701e+02
      vertex   -5.319747e+02 1.698563e+02 -2.352295e+02
    endloop
  endfacet
  facet normal -8.660254e-01 5.000000e-01 -1.241258e-13
    outer loop
      vertex   -5.319747e+02 1.698563e+02 -2.352295e+02
      vertex   -5.310840e+02 1.713990e+02 -2.362701e+02
      vertex   -5.312017e+02 1.711953e+02 -2.367361e+02
    endloop
  endfacet
  facet normal -8.660254e-01 5.000000e-01 4.520524e-14
    outer loop
      vertex   -5.319747e+02 1.698563e+02 -2.352295e+02
      vertex   -5.312017e+02 1.711953e+02 -2.367361e+02
      vertex   -5.319553e+02 1.698899e+02 -2.359202e+02
    endloop
  endfacet
  facet normal -8.660254e-01 5.000000e-01 4.385421e-15
    outer loop
      vertex   -5.319553e+02 1.698899e+02 -2.359202e+02
      vertex   -5.312017e+02 1.711953e+02 -2.367361e+02
      vertex   -5.320260e+02 1.697675e+02 -2.365974e+02
    endloop
  endfacet
  facet normal -8.660254e-01 5.000000e-01 3.576649e-14
    outer loop
      vertex   -5.320260e+02 1.697675e+02 -2.365974e+02
      vertex   -5.312017e+02 1.711953e+02 -2.367361e+02
      vertex   -5.316242e+02 1.704635e+02 -2.379755e+02
    endloop
  endfacet
  facet normal -8.660254e-01 5.000000e-01 1.094126e-15
    outer loop
      vertex   -5.320260e+02 1.697675e+02 -2.365974e+02
      vertex   -5.316242e+02 1.704635e+02 -2.379755e+02
      vertex   -5.321819e+02 1.694975e+02 -2.372150e+02
    endloop
  endfacet
  facet normal 8.660254e-01 -5.000000e-01 2.679859e-14
    outer loop
      vertex   -5.338560e+02 1.525979e+02 -2.266655e+02
      vertex   -5.336255e+02 1.529971e+02 -2.261497e+02
      vertex   -5.344137e+02 1.516319e+02 -2.259050e+02
    endloop
  endfacet
  facet normal 8.660254e-01 -5.000000e-01 -3.699981e-15
    outer loop
      vertex   -5.344137e+02 1.516319e+02 -2.259050e+02
      vertex   -5.336255e+02 1.529971e+02 -2.261497e+02
      vertex   -5.339912e+02 1.523637e+02 -2.246657e+02
    endloop
  endfacet
  facet normal 8.660254e-01 -5.000000e-01 -5.174553e-14
    outer loop
      vertex   -5.339912e+02 1.523637e+02 -2.246657e+02
      vertex   -5.336255e+02 1.529971e+02 -2.261497e+02
      vertex   -5.333361e+02 1.534983e+02 -2.257708e+02
    endloop
  endfacet
  facet normal 8.660254e-01 -5.000000e-01 1.238375e-13
    outer loop
      vertex   -5.339912e+02 1.523637e+02 -2.246657e+02
      vertex   -5.333361e+02 1.534983e+02 -2.257708e+02
      vertex   -5.330075e+02 1.540674e+02 -2.255545e+02
    endloop
  endfacet
  facet normal 8.660254e-01 -5.000000e-01 8.054755e-15
    outer loop
      vertex   -5.339912e+02 1.523637e+02 -2.246657e+02
      vertex   -5.330075e+02 1.540674e+02 -2.255545e+02
      vertex   -5.338172e+02 1.526650e+02 -2.242764e+02
    endloop
  endfacet
  facet normal 8.660254e-01 -5.000000e-01 1.056654e-14
    outer loop
      vertex   -5.338172e+02 1.526650e+02 -2.242764e+02
      vertex   -5.330075e+02 1.540674e+02 -2.255545e+02
      vertex   -5.326622e+02 1.546656e+02 -2.255158e+02
    endloop
  endfacet
  facet normal 8.660254e-01 -5.000000e-01 4.992162e-14
    outer loop
      vertex   -5.338172e+02 1.526650e+02 -2.242764e+02
      vertex   -5.326622e+02 1.546656e+02 -2.255158e+02
      vertex   -5.335988e+02 1.530433e+02 -2.239904e+02
    endloop
  endfacet
  facet normal 8.660254e-01 -5.000000e-01 -9.884375e-14
    outer loop
      vertex   -5.335988e+02 1.530433e+02 -2.239904e+02
      vertex   -5.326622e+02 1.546656e+02 -2.255158e+02
      vertex   -5.323236e+02 1.552521e+02 -2.256571e+02
    endloop
  endfacet
  facet normal 8.660254e-01 -5.000000e-01 -1.390913e-13
    outer loop
      vertex   -5.335988e+02 1.530433e+02 -2.239904e+02
      vertex   -5.323236e+02 1.552521e+02 -2.256571e+02
      vertex   -5.333508e+02 1.534728e+02 -2.238272e+02
    endloop
  endfacet
  facet normal 8.660254e-01 -5.000000e-01 1.605771e-13
    outer loop
      vertex   -5.333508e+02 1.534728e+02 -2.238272e+02
      vertex   -5.323236e+02 1.552521e+02 -2.256571e+02
      vertex   -5.320148e+02 1.557869e+02 -2.259689e+02
    endloop
  endfacet
  facet normal 8.660254e-01 -5.000000e-01 1.176575e-13
    outer loop
      vertex   -5.333508e+02 1.534728e+02 -2.238272e+02
      vertex   -5.320148e+02 1.557869e+02 -2.259689e+02
      vertex   -5.330902e+02 1.539242e+02 -2.237979e+02
    endloop
  endfacet
  facet normal 8.660254e-01 -5.000000e-01 -8.595647e-14
    outer loop
      vertex   -5.330902e+02 1.539242e+02 -2.237979e+02
      vertex   -5.320148e+02 1.557869e+02 -2.259689e+02
      vertex   -5.326016e+02 1.547705e+02 -2.241399e+02
    endloop
  endfacet
  facet normal 8.660254e-01 -5.000000e-01 4.264499e-13
    outer loop
      vertex   -5.330902e+02 1.539242e+02 -2.237979e+02
      vertex   -5.326016e+02 1.547705e+02 -2.241399e+02
      vertex   -5.328346e+02 1.543669e+02 -2.239046e+02
    endloop
  endfacet
  facet normal 8.660254e-01 -5.000000e-01 -1.110508e-13
    outer loop
      vertex   -5.320148e+02 1.557869e+02 -2.259689e+02
      vertex   -5.317569e+02 1.562336e+02 -2.264298e+02
      vertex   -5.326016e+02 1.547705e+02 -2.241399e+02
    endloop
  endfacet
  facet normal 8.660254e-01 -5.000000e-01 -1.096973e-14
    outer loop
      vertex   -5.326016e+02 1.547705e+02 -2.241399e+02
      vertex   -5.317569e+02 1.562336e+02 -2.264298e+02
      vertex   -5.267768e+02 1.648594e+02 -2.332209e+02
    endloop
  endfacet
  facet normal 8.660254e-01 -5.000000e-01 5.376885e-14
    outer loop
      vertex   -5.326016e+02 1.547705e+02 -2.241399e+02
      vertex   -5.267768e+02 1.648594e+02 -2.332209e+02
      vertex   -5.254024e+02 1.672399e+02 -2.339570e+02
    endloop
  endfacet
  facet normal 8.660254e-01 -5.000000e-01 -4.028177e-13
    outer loop
      vertex   -5.254024e+02 1.672399e+02 -2.339570e+02
      vertex   -5.267768e+02 1.648594e+02 -2.332209e+02
      vertex   -5.264680e+02 1.653942e+02 -2.335326e+02
    endloop
  endfacet
  facet normal 8.660254e-01 -5.000000e-01 -1.169585e-13
    outer loop
      vertex   -5.254024e+02 1.672399e+02 -2.339570e+02
      vertex   -5.264680e+02 1.653942e+02 -2.335326e+02
      vertex   -5.250647e+02 1.678247e+02 -2.347417e+02
    endloop
  endfacet
  facet normal 8.660254e-01 -5.000000e-01 1.269047e-13
    outer loop
      vertex   -5.250647e+02 1.678247e+02 -2.347417e+02
      vertex   -5.264680e+02 1.653942e+02 -2.335326e+02
      vertex   -5.249831e+02 1.679661e+02 -2.352377e+02
    endloop
  endfacet
  facet normal 8.660254e-01 -5.000000e-01 -4.536077e-15
    outer loop
      vertex   -5.249831e+02 1.679661e+02 -2.352377e+02
      vertex   -5.264680e+02 1.653942e+02 -2.335326e+02
      vertex   -5.262101e+02 1.658409e+02 -2.339936e+02
    endloop
  endfacet
  facet normal 8.660254e-01 -5.000000e-01 -1.047931e-13
    outer loop
      vertex   -5.249831e+02 1.679661e+02 -2.352377e+02
      vertex   -5.262101e+02 1.658409e+02 -2.339936e+02
      vertex   -5.249685e+02 1.679914e+02 -2.357590e+02
    endloop
  endfacet
  facet normal 8.660254e-01 -5.000000e-01 2.184967e-13
    outer loop
      vertex   -5.249685e+02 1.679914e+02 -2.357590e+02
      vertex   -5.262101e+02 1.658409e+02 -2.339936e+02
      vertex   -5.260206e+02 1.661691e+02 -2.345724e+02
    endloop
  endfacet
  facet normal 8.660254e-01 -5.000000e-01 1.151869e-13
    outer loop
      vertex   -5.249685e+02 1.679914e+02 -2.357590e+02
      vertex   -5.260206e+02 1.661691e+02 -2.345724e+02
      vertex   -5.250218e+02 1.678990e+02 -2.362701e+02
    endloop
  endfacet
  facet normal 8.660254e-01 -5.000000e-01 -1.371302e-13
    outer loop
      vertex   -5.250218e+02 1.678990e+02 -2.362701e+02
      vertex   -5.260206e+02 1.661691e+02 -2.345724e+02
      vertex   -5.259125e+02 1.663563e+02 -2.352295e+02
    endloop
  endfacet
  facet normal 8.660254e-01 -5.000000e-01 -1.755524e-14
    outer loop
      vertex   -5.250218e+02 1.678990e+02 -2.362701e+02
      vertex   -5.259125e+02 1.663563e+02 -2.352295e+02
      vertex   -5.251395e+02 1.676953e+02 -2.367361e+02
    endloop
  endfacet
  facet normal 8.660254e-01 -5.000000e-01 1.055809e-13
    outer loop
      vertex   -5.251395e+02 1.676953e+02 -2.367361e+02
      vertex   -5.259125e+02 1.663563e+02 -2.352295e+02
      vertex   -5.258931e+02 1.663899e+02 -2.359202e+02
    endloop
  endfacet
  facet normal 8.660254e-01 -5.000000e-01 -1.661329e-14
    outer loop
      vertex   -5.251395e+02 1.676953e+02 -2.367361e+02
      vertex   -5.258931e+02 1.663899e+02 -2.359202e+02
      vertex   -5.259638e+02 1.662675e+02 -2.365974e+02
    endloop
  endfacet
  facet normal 8.660254e-01 -5.000000e-01 -1.334468e-13
    outer loop
      vertex   -5.267768e+02 1.648594e+02 -2.332209e+02
      vertex   -5.317569e+02 1.562336e+02 -2.264298e+02
      vertex   -5.271154e+02 1.642729e+02 -2.330796e+02
    endloop
  endfacet
  facet normal 8.660254e-01 -5.000000e-01 -1.319974e-13
    outer loop
      vertex   -5.271154e+02 1.642729e+02 -2.330796e+02
      vertex   -5.317569e+02 1.562336e+02 -2.264298e+02
      vertex   -5.315674e+02 1.565618e+02 -2.270086e+02
    endloop
  endfacet
  facet normal 8.660254e-01 -5.000000e-01 7.788880e-14
    outer loop
      vertex   -5.271154e+02 1.642729e+02 -2.330796e+02
      vertex   -5.315674e+02 1.565618e+02 -2.270086e+02
      vertex   -5.274607e+02 1.636747e+02 -2.331183e+02
    endloop
  endfacet
  facet normal 8.660254e-01 -5.000000e-01 -4.357883e-15
    outer loop
      vertex   -5.274607e+02 1.636747e+02 -2.331183e+02
      vertex   -5.315674e+02 1.565618e+02 -2.270086e+02
      vertex   -5.314593e+02 1.567490e+02 -2.276657e+02
    endloop
  endfacet
  facet normal 8.660254e-01 -5.000000e-01 -1.513124e-14
    outer loop
      vertex   -5.274607e+02 1.636747e+02 -2.331183e+02
      vertex   -5.314593e+02 1.567490e+02 -2.276657e+02
      vertex   -5.277893e+02 1.631056e+02 -2.333345e+02
    endloop
  endfacet
  facet normal 8.660254e-01 -5.000000e-01 6.079986e-14
    outer loop
      vertex   -5.277893e+02 1.631056e+02 -2.333345e+02
      vertex   -5.314593e+02 1.567490e+02 -2.276657e+02
      vertex   -5.314399e+02 1.567826e+02 -2.283564e+02
    endloop
  endfacet
  facet normal 8.660254e-01 -5.000000e-01 2.390338e-14
    outer loop
      vertex   -5.277893e+02 1.631056e+02 -2.333345e+02
      vertex   -5.314399e+02 1.567826e+02 -2.283564e+02
      vertex   -5.280787e+02 1.626044e+02 -2.337135e+02
    endloop
  endfacet
  facet normal 8.660254e-01 -5.000000e-01 -4.349334e-14
    outer loop
      vertex   -5.280787e+02 1.626044e+02 -2.337135e+02
      vertex   -5.314399e+02 1.567826e+02 -2.283564e+02
      vertex   -5.315106e+02 1.566602e+02 -2.290336e+02
    endloop
  endfacet
  facet normal 8.660254e-01 -5.000000e-01 -1.330454e-13
    outer loop
      vertex   -5.280787e+02 1.626044e+02 -2.337135e+02
      vertex   -5.315106e+02 1.566602e+02 -2.290336e+02
      vertex   -5.283092e+02 1.622052e+02 -2.342293e+02
    endloop
  endfacet
  facet normal 8.660254e-01 -5.000000e-01 7.202445e-14
    outer loop
      vertex   -5.283092e+02 1.622052e+02 -2.342293e+02
      vertex   -5.315106e+02 1.566602e+02 -2.290336e+02
      vertex   -5.316665e+02 1.563902e+02 -2.296512e+02
    endloop
  endfacet
  facet normal 8.660254e-01 -5.000000e-01 1.600721e-14
    outer loop
      vertex   -5.261197e+02 1.659975e+02 -2.372150e+02
      vertex   -5.255620e+02 1.669635e+02 -2.379755e+02
      vertex   -5.259638e+02 1.662675e+02 -2.365974e+02
    endloop
  endfacet
  facet normal 8.660254e-01 -5.000000e-01 1.171661e-14
    outer loop
      vertex   -5.259638e+02 1.662675e+02 -2.365974e+02
      vertex   -5.255620e+02 1.669635e+02 -2.379755e+02
      vertex   -5.251395e+02 1.676953e+02 -2.367361e+02
    endloop
  endfacet
  facet normal 8.660254e-01 -5.000000e-01 6.392814e-14
    outer loop
      vertex   -5.250647e+02 1.678247e+02 -2.347417e+02
      vertex   -5.252077e+02 1.675771e+02 -2.343049e+02
      vertex   -5.254024e+02 1.672399e+02 -2.339570e+02
    endloop
  endfacet
  facet normal -2.816684e-01 -4.878640e-01 -8.262273e-01
    outer loop
      vertex   -5.261197e+02 1.659975e+02 -2.372150e+02
      vertex   -5.321819e+02 1.694975e+02 -2.372150e+02
      vertex   -5.255620e+02 1.669635e+02 -2.379755e+02
    endloop
  endfacet
  facet normal -2.816684e-01 -4.878640e-01 -8.262273e-01
    outer loop
      vertex   -5.255620e+02 1.669635e+02 -2.379755e+02
      vertex   -5.321819e+02 1.694975e+02 -2.372150e+02
      vertex   -5.316242e+02 1.704635e+02 -2.379755e+02
    endloop
  endfacet
  facet normal 4.463445e-01 7.730914e-01 -4.506731e-01
    outer loop
      vertex   -5.251395e+02 1.676953e+02 -2.367361e+02
      vertex   -5.312017e+02 1.711953e+02 -2.367361e+02
      vertex   -5.250218e+02 1.678990e+02 -2.362701e+02
    endloop
  endfacet
  facet normal 4.463445e-01 7.730914e-01 -4.506731e-01
    outer loop
      vertex   -5.250218e+02 1.678990e+02 -2.362701e+02
      vertex   -5.312017e+02 1.711953e+02 -2.367361e+02
      vertex   -5.310840e+02 1.713990e+02 -2.362701e+02
    endloop
  endfacet
  facet normal 4.894571e-01 8.477646e-01 -2.042718e-01
    outer loop
      vertex   -5.250218e+02 1.678990e+02 -2.362701e+02
      vertex   -5.310840e+02 1.713990e+02 -2.362701e+02
      vertex   -5.249685e+02 1.679914e+02 -2.357590e+02
    endloop
  endfacet
  facet normal 4.894571e-01 8.477646e-01 -2.042718e-01
    outer loop
      vertex   -5.249685e+02 1.679914e+02 -2.357590e+02
      vertex   -5.310840e+02 1.713990e+02 -2.362701e+02
      vertex   -5.310307e+02 1.714914e+02 -2.357590e+02
    endloop
  endfacet
  facet normal 4.992140e-01 8.646640e-01 5.605019e-02
    outer loop
      vertex   -5.249685e+02 1.679914e+02 -2.357590e+02
      vertex   -5.310307e+02 1.714914e+02 -2.357590e+02
      vertex   -5.249831e+02 1.679661e+02 -2.352377e+02
    endloop
  endfacet
  facet normal 4.992140e-01 8.646640e-01 5.605019e-02
    outer loop
      vertex   -5.249831e+02 1.679661e+02 -2.352377e+02
      vertex   -5.310307e+02 1.714914e+02 -2.357590e+02
      vertex   -5.310453e+02 1.714661e+02 -2.352377e+02
    endloop
  endfacet
  facet normal 4.749502e-01 8.226380e-01 3.125525e-01
    outer loop
      vertex   -5.249831e+02 1.679661e+02 -2.352377e+02
      vertex   -5.310453e+02 1.714661e+02 -2.352377e+02
      vertex   -5.250647e+02 1.678247e+02 -2.347417e+02
    endloop
  endfacet
  facet normal 4.749502e-01 8.226380e-01 3.125525e-01
    outer loop
      vertex   -5.250647e+02 1.678247e+02 -2.347417e+02
      vertex   -5.310453e+02 1.714661e+02 -2.352377e+02
      vertex   -5.311269e+02 1.713247e+02 -2.347417e+02
    endloop
  endfacet
  facet normal 4.183194e-01 7.245505e-01 5.477549e-01
    outer loop
      vertex   -5.250647e+02 1.678247e+02 -2.347417e+02
      vertex   -5.311269e+02 1.713247e+02 -2.347417e+02
      vertex   -5.252077e+02 1.675771e+02 -2.343049e+02
    endloop
  endfacet
  facet normal 4.183194e-01 7.245505e-01 5.477549e-01
    outer loop
      vertex   -5.252077e+02 1.675771e+02 -2.343049e+02
      vertex   -5.311269e+02 1.713247e+02 -2.347417e+02
      vertex   -5.312699e+02 1.710771e+02 -2.343049e+02
    endloop
  endfacet
  facet normal 3.331809e-01 5.770862e-01 7.456286e-01
    outer loop
      vertex   -5.252077e+02 1.675771e+02 -2.343049e+02
      vertex   -5.312699e+02 1.710771e+02 -2.343049e+02
      vertex   -5.254024e+02 1.672399e+02 -2.339570e+02
    endloop
  endfacet
  facet normal 3.331809e-01 5.770862e-01 7.456286e-01
    outer loop
      vertex   -5.254024e+02 1.672399e+02 -2.339570e+02
      vertex   -5.312699e+02 1.710771e+02 -2.343049e+02
      vertex   -5.314645e+02 1.707399e+02 -2.339570e+02
    endloop
  endfacet
  facet normal 2.816684e-01 4.878640e-01 8.262273e-01
    outer loop
      vertex   -5.254024e+02 1.672399e+02 -2.339570e+02
      vertex   -5.314645e+02 1.707399e+02 -2.339570e+02
      vertex   -5.326016e+02 1.547705e+02 -2.241399e+02
    endloop
  endfacet
  facet normal 2.816684e-01 4.878640e-01 8.262273e-01
    outer loop
      vertex   -5.326016e+02 1.547705e+02 -2.241399e+02
      vertex   -5.314645e+02 1.707399e+02 -2.339570e+02
      vertex   -5.386638e+02 1.582705e+02 -2.241399e+02
    endloop
  endfacet
  facet normal -3.728143e-01 -6.457333e-01 6.663617e-01
    outer loop
      vertex   -5.400533e+02 1.558637e+02 -2.246657e+02
      vertex   -5.339912e+02 1.523637e+02 -2.246657e+02
      vertex   -5.398794e+02 1.561650e+02 -2.242764e+02
    endloop
  endfacet
  facet normal -3.728143e-01 -6.457333e-01 6.663617e-01
    outer loop
      vertex   -5.398794e+02 1.561650e+02 -2.242764e+02
      vertex   -5.339912e+02 1.523637e+02 -2.246657e+02
      vertex   -5.338172e+02 1.526650e+02 -2.242764e+02
    endloop
  endfacet
  facet normal -2.738774e-01 -4.743696e-01 8.366389e-01
    outer loop
      vertex   -5.398794e+02 1.561650e+02 -2.242764e+02
      vertex   -5.338172e+02 1.526650e+02 -2.242764e+02
      vertex   -5.396610e+02 1.565433e+02 -2.239904e+02
    endloop
  endfacet
  facet normal -2.738774e-01 -4.743696e-01 8.366389e-01
    outer loop
      vertex   -5.396610e+02 1.565433e+02 -2.239904e+02
      vertex   -5.338172e+02 1.526650e+02 -2.242764e+02
      vertex   -5.335988e+02 1.530433e+02 -2.239904e+02
    endloop
  endfacet
  facet normal -1.562762e-01 -2.706784e-01 9.499005e-01
    outer loop
      vertex   -5.396610e+02 1.565433e+02 -2.239904e+02
      vertex   -5.335988e+02 1.530433e+02 -2.239904e+02
      vertex   -5.394130e+02 1.569728e+02 -2.238272e+02
    endloop
  endfacet
  facet normal -1.562762e-01 -2.706784e-01 9.499005e-01
    outer loop
      vertex   -5.394130e+02 1.569728e+02 -2.238272e+02
      vertex   -5.335988e+02 1.530433e+02 -2.239904e+02
      vertex   -5.333508e+02 1.534728e+02 -2.238272e+02
    endloop
  endfacet
  facet normal -2.802509e-02 -4.854089e-02 9.984280e-01
    outer loop
      vertex   -5.394130e+02 1.569728e+02 -2.238272e+02
      vertex   -5.333508e+02 1.534728e+02 -2.238272e+02
      vertex   -5.391524e+02 1.574242e+02 -2.237979e+02
    endloop
  endfacet
  facet normal -2.802509e-02 -4.854089e-02 9.984280e-01
    outer loop
      vertex   -5.391524e+02 1.574242e+02 -2.237979e+02
      vertex   -5.333508e+02 1.534728e+02 -2.238272e+02
      vertex   -5.330902e+02 1.539242e+02 -2.237979e+02
    endloop
  endfacet
  facet normal 1.021359e-01 1.769046e-01 9.789142e-01
    outer loop
      vertex   -5.391524e+02 1.574242e+02 -2.237979e+02
      vertex   -5.330902e+02 1.539242e+02 -2.237979e+02
      vertex   -5.388968e+02 1.578669e+02 -2.239046e+02
    endloop
  endfacet
  facet normal 1.021359e-01 1.769046e-01 9.789142e-01
    outer loop
      vertex   -5.388968e+02 1.578669e+02 -2.239046e+02
      vertex   -5.330902e+02 1.539242e+02 -2.237979e+02
      vertex   -5.328346e+02 1.543669e+02 -2.239046e+02
    endloop
  endfacet
  facet normal 2.253365e-01 3.902943e-01 8.926891e-01
    outer loop
      vertex   -5.388968e+02 1.578669e+02 -2.239046e+02
      vertex   -5.328346e+02 1.543669e+02 -2.239046e+02
      vertex   -5.386638e+02 1.582705e+02 -2.241399e+02
    endloop
  endfacet
  facet normal 2.253365e-01 3.902943e-01 8.926891e-01
    outer loop
      vertex   -5.386638e+02 1.582705e+02 -2.241399e+02
      vertex   -5.328346e+02 1.543669e+02 -2.239046e+02
      vertex   -5.326016e+02 1.547705e+02 -2.241399e+02
    endloop
  endfacet
  facet normal 4.131137e-01 7.155339e-01 -5.633368e-01
    outer loop
      vertex   -5.312017e+02 1.711953e+02 -2.367361e+02
      vertex   -5.251395e+02 1.676953e+02 -2.367361e+02
      vertex   -5.316242e+02 1.704635e+02 -2.379755e+02
    endloop
  endfacet
  facet normal 4.131137e-01 7.155339e-01 -5.633368e-01
    outer loop
      vertex   -5.316242e+02 1.704635e+02 -2.379755e+02
      vertex   -5.251395e+02 1.676953e+02 -2.367361e+02
      vertex   -5.255620e+02 1.669635e+02 -2.379755e+02
    endloop
  endfacet
  facet normal -4.131137e-01 -7.155339e-01 5.633368e-01
    outer loop
      vertex   -5.339912e+02 1.523637e+02 -2.246657e+02
      vertex   -5.400533e+02 1.558637e+02 -2.246657e+02
      vertex   -5.344137e+02 1.516319e+02 -2.259050e+02
    endloop
  endfacet
  facet normal -4.131137e-01 -7.155339e-01 5.633368e-01
    outer loop
      vertex   -5.344137e+02 1.516319e+02 -2.259050e+02
      vertex   -5.400533e+02 1.558637e+02 -2.246657e+02
      vertex   -5.404758e+02 1.551319e+02 -2.259050e+02
    endloop
  endfacet
  facet normal -2.816684e-01 -4.878640e-01 -8.262273e-01
    outer loop
      vertex   -5.316665e+02 1.563902e+02 -2.296512e+02
      vertex   -5.377286e+02 1.598902e+02 -2.296512e+02
      vertex   -5.283092e+02 1.622052e+02 -2.342293e+02
    endloop
  endfacet
  facet normal -2.816684e-01 -4.878640e-01 -8.262273e-01
    outer loop
      vertex   -5.283092e+02 1.622052e+02 -2.342293e+02
      vertex   -5.377286e+02 1.598902e+02 -2.296512e+02
      vertex   -5.343714e+02 1.657052e+02 -2.342293e+02
    endloop
  endfacet
endsolid
