solid ASCII
  facet normal 3.728143e-01 6.457333e-01 6.663617e-01
    outer loop
      vertex   -6.221905e+02 2.035979e+02 -3.563345e+02
      vertex   -6.161284e+02 2.000979e+02 -3.563345e+02
      vertex   -6.219601e+02 2.039971e+02 -3.568503e+02
    endloop
  endfacet
  facet normal 3.728143e-01 6.457333e-01 6.663617e-01
    outer loop
      vertex   -6.219601e+02 2.039971e+02 -3.568503e+02
      vertex   -6.161284e+02 2.000979e+02 -3.563345e+02
      vertex   -6.158979e+02 2.004971e+02 -3.568503e+02
    endloop
  endfacet
  facet normal 2.738774e-01 4.743696e-01 8.366389e-01
    outer loop
      vertex   -6.219601e+02 2.039971e+02 -3.568503e+02
      vertex   -6.158979e+02 2.004971e+02 -3.568503e+02
      vertex   -6.216707e+02 2.044983e+02 -3.572292e+02
    endloop
  endfacet
  facet normal 2.738774e-01 4.743696e-01 8.366389e-01
    outer loop
      vertex   -6.216707e+02 2.044983e+02 -3.572292e+02
      vertex   -6.158979e+02 2.004971e+02 -3.568503e+02
      vertex   -6.156085e+02 2.009983e+02 -3.572292e+02
    endloop
  endfacet
  facet normal 1.562762e-01 2.706784e-01 9.499005e-01
    outer loop
      vertex   -6.216707e+02 2.044983e+02 -3.572292e+02
      vertex   -6.156085e+02 2.009983e+02 -3.572292e+02
      vertex   -6.213421e+02 2.050674e+02 -3.574455e+02
    endloop
  endfacet
  facet normal 1.562762e-01 2.706784e-01 9.499005e-01
    outer loop
      vertex   -6.213421e+02 2.050674e+02 -3.574455e+02
      vertex   -6.156085e+02 2.009983e+02 -3.572292e+02
      vertex   -6.152799e+02 2.015674e+02 -3.574455e+02
    endloop
  endfacet
  facet normal 2.802509e-02 4.854089e-02 9.984280e-01
    outer loop
      vertex   -6.213421e+02 2.050674e+02 -3.574455e+02
      vertex   -6.152799e+02 2.015674e+02 -3.574455e+02
      vertex   -6.209967e+02 2.056656e+02 -3.574842e+02
    endloop
  endfacet
  facet normal 2.802509e-02 4.854089e-02 9.984280e-01
    outer loop
      vertex   -6.209967e+02 2.056656e+02 -3.574842e+02
      vertex   -6.152799e+02 2.015674e+02 -3.574455e+02
      vertex   -6.149346e+02 2.021656e+02 -3.574842e+02
    endloop
  endfacet
  facet normal -1.021359e-01 -1.769046e-01 9.789142e-01
    outer loop
      vertex   -6.209967e+02 2.056656e+02 -3.574842e+02
      vertex   -6.149346e+02 2.021656e+02 -3.574842e+02
      vertex   -6.206581e+02 2.062521e+02 -3.573429e+02
    endloop
  endfacet
  facet normal -1.021359e-01 -1.769046e-01 9.789142e-01
    outer loop
      vertex   -6.206581e+02 2.062521e+02 -3.573429e+02
      vertex   -6.149346e+02 2.021656e+02 -3.574842e+02
      vertex   -6.145960e+02 2.027521e+02 -3.573429e+02
    endloop
  endfacet
  facet normal -2.253365e-01 -3.902943e-01 8.926891e-01
    outer loop
      vertex   -6.206581e+02 2.062521e+02 -3.573429e+02
      vertex   -6.145960e+02 2.027521e+02 -3.573429e+02
      vertex   -6.203494e+02 2.067869e+02 -3.570311e+02
    endloop
  endfacet
  facet normal -2.253365e-01 -3.902943e-01 8.926891e-01
    outer loop
      vertex   -6.203494e+02 2.067869e+02 -3.570311e+02
      vertex   -6.145960e+02 2.027521e+02 -3.573429e+02
      vertex   -6.142872e+02 2.032869e+02 -3.570311e+02
    endloop
  endfacet
  facet normal -3.331809e-01 -5.770862e-01 7.456286e-01
    outer loop
      vertex   -6.203494e+02 2.067869e+02 -3.570311e+02
      vertex   -6.142872e+02 2.032869e+02 -3.570311e+02
      vertex   -6.200915e+02 2.072336e+02 -3.565702e+02
    endloop
  endfacet
  facet normal -3.331809e-01 -5.770862e-01 7.456286e-01
    outer loop
      vertex   -6.200915e+02 2.072336e+02 -3.565702e+02
      vertex   -6.142872e+02 2.032869e+02 -3.570311e+02
      vertex   -6.140293e+02 2.037336e+02 -3.565702e+02
    endloop
  endfacet
  facet normal -4.183194e-01 -7.245505e-01 5.477549e-01
    outer loop
      vertex   -6.200915e+02 2.072336e+02 -3.565702e+02
      vertex   -6.140293e+02 2.037336e+02 -3.565702e+02
      vertex   -6.199020e+02 2.075618e+02 -3.559914e+02
    endloop
  endfacet
  facet normal -4.183194e-01 -7.245505e-01 5.477549e-01
    outer loop
      vertex   -6.199020e+02 2.075618e+02 -3.559914e+02
      vertex   -6.140293e+02 2.037336e+02 -3.565702e+02
      vertex   -6.138398e+02 2.040618e+02 -3.559914e+02
    endloop
  endfacet
  facet normal -4.749502e-01 -8.226380e-01 3.125525e-01
    outer loop
      vertex   -6.199020e+02 2.075618e+02 -3.559914e+02
      vertex   -6.138398e+02 2.040618e+02 -3.559914e+02
      vertex   -6.197939e+02 2.077490e+02 -3.553343e+02
    endloop
  endfacet
  facet normal -4.749502e-01 -8.226380e-01 3.125525e-01
    outer loop
      vertex   -6.197939e+02 2.077490e+02 -3.553343e+02
      vertex   -6.138398e+02 2.040618e+02 -3.559914e+02
      vertex   -6.137317e+02 2.042490e+02 -3.553343e+02
    endloop
  endfacet
  facet normal -4.992140e-01 -8.646640e-01 5.605019e-02
    outer loop
      vertex   -6.197939e+02 2.077490e+02 -3.553343e+02
      vertex   -6.137317e+02 2.042490e+02 -3.553343e+02
      vertex   -6.197745e+02 2.077826e+02 -3.546436e+02
    endloop
  endfacet
  facet normal -4.992140e-01 -8.646640e-01 5.605019e-02
    outer loop
      vertex   -6.197745e+02 2.077826e+02 -3.546436e+02
      vertex   -6.137317e+02 2.042490e+02 -3.553343e+02
      vertex   -6.137123e+02 2.042826e+02 -3.546436e+02
    endloop
  endfacet
  facet normal -4.894571e-01 -8.477646e-01 -2.042718e-01
    outer loop
      vertex   -6.197745e+02 2.077826e+02 -3.546436e+02
      vertex   -6.137123e+02 2.042826e+02 -3.546436e+02
      vertex   -6.198452e+02 2.076602e+02 -3.539664e+02
    endloop
  endfacet
  facet normal -4.894571e-01 -8.477646e-01 -2.042718e-01
    outer loop
      vertex   -6.198452e+02 2.076602e+02 -3.539664e+02
      vertex   -6.137123e+02 2.042826e+02 -3.546436e+02
      vertex   -6.137830e+02 2.041602e+02 -3.539664e+02
    endloop
  endfacet
  facet normal -4.463445e-01 -7.730914e-01 -4.506731e-01
    outer loop
      vertex   -6.198452e+02 2.076602e+02 -3.539664e+02
      vertex   -6.137830e+02 2.041602e+02 -3.539664e+02
      vertex   -6.200010e+02 2.073902e+02 -3.533488e+02
    endloop
  endfacet
  facet normal -4.463445e-01 -7.730914e-01 -4.506731e-01
    outer loop
      vertex   -6.200010e+02 2.073902e+02 -3.533488e+02
      vertex   -6.137830e+02 2.041602e+02 -3.539664e+02
      vertex   -6.139389e+02 2.038902e+02 -3.533488e+02
    endloop
  endfacet
  facet normal 3.728143e-01 6.457333e-01 6.663617e-01
    outer loop
      vertex   -6.166438e+02 2.132052e+02 -3.487707e+02
      vertex   -6.105816e+02 2.097052e+02 -3.487707e+02
      vertex   -6.164133e+02 2.136044e+02 -3.492865e+02
    endloop
  endfacet
  facet normal 3.728143e-01 6.457333e-01 6.663617e-01
    outer loop
      vertex   -6.164133e+02 2.136044e+02 -3.492865e+02
      vertex   -6.105816e+02 2.097052e+02 -3.487707e+02
      vertex   -6.103511e+02 2.101044e+02 -3.492865e+02
    endloop
  endfacet
  facet normal 2.738774e-01 4.743696e-01 8.366389e-01
    outer loop
      vertex   -6.164133e+02 2.136044e+02 -3.492865e+02
      vertex   -6.103511e+02 2.101044e+02 -3.492865e+02
      vertex   -6.161239e+02 2.141056e+02 -3.496655e+02
    endloop
  endfacet
  facet normal 2.738774e-01 4.743696e-01 8.366389e-01
    outer loop
      vertex   -6.161239e+02 2.141056e+02 -3.496655e+02
      vertex   -6.103511e+02 2.101044e+02 -3.492865e+02
      vertex   -6.100617e+02 2.106056e+02 -3.496655e+02
    endloop
  endfacet
  facet normal 1.562762e-01 2.706784e-01 9.499005e-01
    outer loop
      vertex   -6.161239e+02 2.141056e+02 -3.496655e+02
      vertex   -6.100617e+02 2.106056e+02 -3.496655e+02
      vertex   -6.157953e+02 2.146747e+02 -3.498817e+02
    endloop
  endfacet
  facet normal 1.562762e-01 2.706784e-01 9.499005e-01
    outer loop
      vertex   -6.157953e+02 2.146747e+02 -3.498817e+02
      vertex   -6.100617e+02 2.106056e+02 -3.496655e+02
      vertex   -6.097332e+02 2.111747e+02 -3.498817e+02
    endloop
  endfacet
  facet normal 2.802509e-02 4.854089e-02 9.984280e-01
    outer loop
      vertex   -6.157953e+02 2.146747e+02 -3.498817e+02
      vertex   -6.097332e+02 2.111747e+02 -3.498817e+02
      vertex   -6.154500e+02 2.152729e+02 -3.499204e+02
    endloop
  endfacet
  facet normal 2.802509e-02 4.854089e-02 9.984280e-01
    outer loop
      vertex   -6.154500e+02 2.152729e+02 -3.499204e+02
      vertex   -6.097332e+02 2.111747e+02 -3.498817e+02
      vertex   -6.093878e+02 2.117729e+02 -3.499204e+02
    endloop
  endfacet
  facet normal -1.021359e-01 -1.769046e-01 9.789142e-01
    outer loop
      vertex   -6.154500e+02 2.152729e+02 -3.499204e+02
      vertex   -6.093878e+02 2.117729e+02 -3.499204e+02
      vertex   -6.151114e+02 2.158594e+02 -3.497791e+02
    endloop
  endfacet
  facet normal -1.021359e-01 -1.769046e-01 9.789142e-01
    outer loop
      vertex   -6.151114e+02 2.158594e+02 -3.497791e+02
      vertex   -6.093878e+02 2.117729e+02 -3.499204e+02
      vertex   -6.090492e+02 2.123594e+02 -3.497791e+02
    endloop
  endfacet
  facet normal -2.253365e-01 -3.902943e-01 8.926891e-01
    outer loop
      vertex   -6.151114e+02 2.158594e+02 -3.497791e+02
      vertex   -6.090492e+02 2.123594e+02 -3.497791e+02
      vertex   -6.148026e+02 2.163942e+02 -3.494674e+02
    endloop
  endfacet
  facet normal -2.253365e-01 -3.902943e-01 8.926891e-01
    outer loop
      vertex   -6.148026e+02 2.163942e+02 -3.494674e+02
      vertex   -6.090492e+02 2.123594e+02 -3.497791e+02
      vertex   -6.087404e+02 2.128942e+02 -3.494674e+02
    endloop
  endfacet
  facet normal -3.331809e-01 -5.770862e-01 7.456286e-01
    outer loop
      vertex   -6.148026e+02 2.163942e+02 -3.494674e+02
      vertex   -6.087404e+02 2.128942e+02 -3.494674e+02
      vertex   -6.145447e+02 2.168409e+02 -3.490064e+02
    endloop
  endfacet
  facet normal -3.331809e-01 -5.770862e-01 7.456286e-01
    outer loop
      vertex   -6.145447e+02 2.168409e+02 -3.490064e+02
      vertex   -6.087404e+02 2.128942e+02 -3.494674e+02
      vertex   -6.084825e+02 2.133409e+02 -3.490064e+02
    endloop
  endfacet
  facet normal -4.183194e-01 -7.245505e-01 5.477549e-01
    outer loop
      vertex   -6.145447e+02 2.168409e+02 -3.490064e+02
      vertex   -6.084825e+02 2.133409e+02 -3.490064e+02
      vertex   -6.143552e+02 2.171691e+02 -3.484276e+02
    endloop
  endfacet
  facet normal -4.183194e-01 -7.245505e-01 5.477549e-01
    outer loop
      vertex   -6.143552e+02 2.171691e+02 -3.484276e+02
      vertex   -6.084825e+02 2.133409e+02 -3.490064e+02
      vertex   -6.082930e+02 2.136691e+02 -3.484276e+02
    endloop
  endfacet
  facet normal -4.749502e-01 -8.226380e-01 3.125525e-01
    outer loop
      vertex   -6.143552e+02 2.171691e+02 -3.484276e+02
      vertex   -6.082930e+02 2.136691e+02 -3.484276e+02
      vertex   -6.142471e+02 2.173563e+02 -3.477705e+02
    endloop
  endfacet
  facet normal -4.749502e-01 -8.226380e-01 3.125525e-01
    outer loop
      vertex   -6.142471e+02 2.173563e+02 -3.477705e+02
      vertex   -6.082930e+02 2.136691e+02 -3.484276e+02
      vertex   -6.081849e+02 2.138563e+02 -3.477705e+02
    endloop
  endfacet
  facet normal -4.992140e-01 -8.646640e-01 5.605019e-02
    outer loop
      vertex   -6.142471e+02 2.173563e+02 -3.477705e+02
      vertex   -6.081849e+02 2.138563e+02 -3.477705e+02
      vertex   -6.142277e+02 2.173899e+02 -3.470798e+02
    endloop
  endfacet
  facet normal -4.992140e-01 -8.646640e-01 5.605019e-02
    outer loop
      vertex   -6.142277e+02 2.173899e+02 -3.470798e+02
      vertex   -6.081849e+02 2.138563e+02 -3.477705e+02
      vertex   -6.081656e+02 2.138899e+02 -3.470798e+02
    endloop
  endfacet
  facet normal -4.894571e-01 -8.477646e-01 -2.042718e-01
    outer loop
      vertex   -6.142277e+02 2.173899e+02 -3.470798e+02
      vertex   -6.081656e+02 2.138899e+02 -3.470798e+02
      vertex   -6.142984e+02 2.172675e+02 -3.464026e+02
    endloop
  endfacet
  facet normal -4.894571e-01 -8.477646e-01 -2.042718e-01
    outer loop
      vertex   -6.142984e+02 2.172675e+02 -3.464026e+02
      vertex   -6.081656e+02 2.138899e+02 -3.470798e+02
      vertex   -6.082362e+02 2.137675e+02 -3.464026e+02
    endloop
  endfacet
  facet normal -4.463445e-01 -7.730914e-01 -4.506731e-01
    outer loop
      vertex   -6.142984e+02 2.172675e+02 -3.464026e+02
      vertex   -6.082362e+02 2.137675e+02 -3.464026e+02
      vertex   -6.144543e+02 2.169975e+02 -3.457850e+02
    endloop
  endfacet
  facet normal -4.463445e-01 -7.730914e-01 -4.506731e-01
    outer loop
      vertex   -6.144543e+02 2.169975e+02 -3.457850e+02
      vertex   -6.082362e+02 2.137675e+02 -3.464026e+02
      vertex   -6.083921e+02 2.134975e+02 -3.457850e+02
    endloop
  endfacet
  facet normal -2.816684e-01 -4.878640e-01 8.262273e-01
    outer loop
      vertex   -6.161284e+02 2.000979e+02 -3.563345e+02
      vertex   -6.221905e+02 2.035979e+02 -3.563345e+02
      vertex   -6.166861e+02 1.991319e+02 -3.570950e+02
    endloop
  endfacet
  facet normal -2.816684e-01 -4.878640e-01 8.262273e-01
    outer loop
      vertex   -6.166861e+02 1.991319e+02 -3.570950e+02
      vertex   -6.221905e+02 2.035979e+02 -3.563345e+02
      vertex   -6.227482e+02 2.026319e+02 -3.570950e+02
    endloop
  endfacet
  facet normal -8.660254e-01 5.000000e-01 -2.158275e-14
    outer loop
      vertex   -6.221905e+02 2.035979e+02 -3.563345e+02
      vertex   -6.219601e+02 2.039971e+02 -3.568503e+02
      vertex   -6.227482e+02 2.026319e+02 -3.570950e+02
    endloop
  endfacet
  facet normal -8.660254e-01 5.000000e-01 -7.554129e-14
    outer loop
      vertex   -6.227482e+02 2.026319e+02 -3.570950e+02
      vertex   -6.219601e+02 2.039971e+02 -3.568503e+02
      vertex   -6.223257e+02 2.033637e+02 -3.583343e+02
    endloop
  endfacet
  facet normal -8.660254e-01 5.000000e-01 -3.850375e-14
    outer loop
      vertex   -6.223257e+02 2.033637e+02 -3.583343e+02
      vertex   -6.219601e+02 2.039971e+02 -3.568503e+02
      vertex   -6.216707e+02 2.044983e+02 -3.572292e+02
    endloop
  endfacet
  facet normal -8.660254e-01 5.000000e-01 -2.415162e-13
    outer loop
      vertex   -6.223257e+02 2.033637e+02 -3.583343e+02
      vertex   -6.216707e+02 2.044983e+02 -3.572292e+02
      vertex   -6.213421e+02 2.050674e+02 -3.574455e+02
    endloop
  endfacet
  facet normal -8.660254e-01 5.000000e-01 1.836071e-13
    outer loop
      vertex   -6.223257e+02 2.033637e+02 -3.583343e+02
      vertex   -6.213421e+02 2.050674e+02 -3.574455e+02
      vertex   -6.221518e+02 2.036650e+02 -3.587236e+02
    endloop
  endfacet
  facet normal -8.660254e-01 5.000000e-01 2.406823e-13
    outer loop
      vertex   -6.221518e+02 2.036650e+02 -3.587236e+02
      vertex   -6.213421e+02 2.050674e+02 -3.574455e+02
      vertex   -6.209967e+02 2.056656e+02 -3.574842e+02
    endloop
  endfacet
  facet normal -8.660254e-01 5.000000e-01 1.745640e-14
    outer loop
      vertex   -6.221518e+02 2.036650e+02 -3.587236e+02
      vertex   -6.209967e+02 2.056656e+02 -3.574842e+02
      vertex   -6.219334e+02 2.040433e+02 -3.590096e+02
    endloop
  endfacet
  facet normal -8.660254e-01 5.000000e-01 1.161848e-13
    outer loop
      vertex   -6.219334e+02 2.040433e+02 -3.590096e+02
      vertex   -6.209967e+02 2.056656e+02 -3.574842e+02
      vertex   -6.206581e+02 2.062521e+02 -3.573429e+02
    endloop
  endfacet
  facet normal -8.660254e-01 5.000000e-01 1.232794e-14
    outer loop
      vertex   -6.219334e+02 2.040433e+02 -3.590096e+02
      vertex   -6.206581e+02 2.062521e+02 -3.573429e+02
      vertex   -6.216854e+02 2.044728e+02 -3.591728e+02
    endloop
  endfacet
  facet normal -8.660254e-01 5.000000e-01 -2.875873e-13
    outer loop
      vertex   -6.216854e+02 2.044728e+02 -3.591728e+02
      vertex   -6.206581e+02 2.062521e+02 -3.573429e+02
      vertex   -6.203494e+02 2.067869e+02 -3.570311e+02
    endloop
  endfacet
  facet normal -8.660254e-01 5.000000e-01 -4.024146e-14
    outer loop
      vertex   -6.216854e+02 2.044728e+02 -3.591728e+02
      vertex   -6.203494e+02 2.067869e+02 -3.570311e+02
      vertex   -6.214248e+02 2.049242e+02 -3.592021e+02
    endloop
  endfacet
  facet normal -8.660254e-01 5.000000e-01 -1.180800e-13
    outer loop
      vertex   -6.214248e+02 2.049242e+02 -3.592021e+02
      vertex   -6.203494e+02 2.067869e+02 -3.570311e+02
      vertex   -6.209362e+02 2.057705e+02 -3.588601e+02
    endloop
  endfacet
  facet normal -8.660254e-01 5.000000e-01 3.324263e-13
    outer loop
      vertex   -6.214248e+02 2.049242e+02 -3.592021e+02
      vertex   -6.209362e+02 2.057705e+02 -3.588601e+02
      vertex   -6.211692e+02 2.053669e+02 -3.590954e+02
    endloop
  endfacet
  facet normal -8.660254e-01 5.000000e-01 -1.059466e-13
    outer loop
      vertex   -6.203494e+02 2.067869e+02 -3.570311e+02
      vertex   -6.200915e+02 2.072336e+02 -3.565702e+02
      vertex   -6.209362e+02 2.057705e+02 -3.588601e+02
    endloop
  endfacet
  facet normal -8.660254e-01 5.000000e-01 -2.319315e-14
    outer loop
      vertex   -6.209362e+02 2.057705e+02 -3.588601e+02
      vertex   -6.200915e+02 2.072336e+02 -3.565702e+02
      vertex   -6.151114e+02 2.158594e+02 -3.497791e+02
    endloop
  endfacet
  facet normal -8.660254e-01 5.000000e-01 -3.122062e-14
    outer loop
      vertex   -6.209362e+02 2.057705e+02 -3.588601e+02
      vertex   -6.151114e+02 2.158594e+02 -3.497791e+02
      vertex   -6.137370e+02 2.182399e+02 -3.490430e+02
    endloop
  endfacet
  facet normal -8.660254e-01 5.000000e-01 1.633343e-13
    outer loop
      vertex   -6.137370e+02 2.182399e+02 -3.490430e+02
      vertex   -6.151114e+02 2.158594e+02 -3.497791e+02
      vertex   -6.148026e+02 2.163942e+02 -3.494674e+02
    endloop
  endfacet
  facet normal -8.660254e-01 5.000000e-01 -8.123006e-14
    outer loop
      vertex   -6.137370e+02 2.182399e+02 -3.490430e+02
      vertex   -6.148026e+02 2.163942e+02 -3.494674e+02
      vertex   -6.133993e+02 2.188247e+02 -3.482583e+02
    endloop
  endfacet
  facet normal -8.660254e-01 5.000000e-01 1.288563e-13
    outer loop
      vertex   -6.133993e+02 2.188247e+02 -3.482583e+02
      vertex   -6.148026e+02 2.163942e+02 -3.494674e+02
      vertex   -6.133177e+02 2.189661e+02 -3.477623e+02
    endloop
  endfacet
  facet normal -8.660254e-01 5.000000e-01 9.979369e-15
    outer loop
      vertex   -6.133177e+02 2.189661e+02 -3.477623e+02
      vertex   -6.148026e+02 2.163942e+02 -3.494674e+02
      vertex   -6.145447e+02 2.168409e+02 -3.490064e+02
    endloop
  endfacet
  facet normal -8.660254e-01 5.000000e-01 -1.325197e-13
    outer loop
      vertex   -6.133177e+02 2.189661e+02 -3.477623e+02
      vertex   -6.145447e+02 2.168409e+02 -3.490064e+02
      vertex   -6.133031e+02 2.189914e+02 -3.472410e+02
    endloop
  endfacet
  facet normal -8.660254e-01 5.000000e-01 -8.554898e-14
    outer loop
      vertex   -6.133031e+02 2.189914e+02 -3.472410e+02
      vertex   -6.145447e+02 2.168409e+02 -3.490064e+02
      vertex   -6.143552e+02 2.171691e+02 -3.484276e+02
    endloop
  endfacet
  facet normal -8.660254e-01 5.000000e-01 1.462667e-13
    outer loop
      vertex   -6.133031e+02 2.189914e+02 -3.472410e+02
      vertex   -6.143552e+02 2.171691e+02 -3.484276e+02
      vertex   -6.133564e+02 2.188990e+02 -3.467299e+02
    endloop
  endfacet
  facet normal -8.660254e-01 5.000000e-01 -8.453230e-15
    outer loop
      vertex   -6.133564e+02 2.188990e+02 -3.467299e+02
      vertex   -6.143552e+02 2.171691e+02 -3.484276e+02
      vertex   -6.142471e+02 2.173563e+02 -3.477705e+02
    endloop
  endfacet
  facet normal -8.660254e-01 5.000000e-01 -6.154659e-14
    outer loop
      vertex   -6.133564e+02 2.188990e+02 -3.467299e+02
      vertex   -6.142471e+02 2.173563e+02 -3.477705e+02
      vertex   -6.134741e+02 2.186953e+02 -3.462639e+02
    endloop
  endfacet
  facet normal -8.660254e-01 5.000000e-01 -4.465190e-14
    outer loop
      vertex   -6.134741e+02 2.186953e+02 -3.462639e+02
      vertex   -6.142471e+02 2.173563e+02 -3.477705e+02
      vertex   -6.142277e+02 2.173899e+02 -3.470798e+02
    endloop
  endfacet
  facet normal -8.660254e-01 5.000000e-01 -6.254417e-15
    outer loop
      vertex   -6.134741e+02 2.186953e+02 -3.462639e+02
      vertex   -6.142277e+02 2.173899e+02 -3.470798e+02
      vertex   -6.142984e+02 2.172675e+02 -3.464026e+02
    endloop
  endfacet
  facet normal -8.660254e-01 5.000000e-01 1.380389e-13
    outer loop
      vertex   -6.151114e+02 2.158594e+02 -3.497791e+02
      vertex   -6.200915e+02 2.072336e+02 -3.565702e+02
      vertex   -6.154500e+02 2.152729e+02 -3.499204e+02
    endloop
  endfacet
  facet normal -8.660254e-01 5.000000e-01 -1.245258e-13
    outer loop
      vertex   -6.154500e+02 2.152729e+02 -3.499204e+02
      vertex   -6.200915e+02 2.072336e+02 -3.565702e+02
      vertex   -6.199020e+02 2.075618e+02 -3.559914e+02
    endloop
  endfacet
  facet normal -8.660254e-01 5.000000e-01 6.722312e-14
    outer loop
      vertex   -6.154500e+02 2.152729e+02 -3.499204e+02
      vertex   -6.199020e+02 2.075618e+02 -3.559914e+02
      vertex   -6.157953e+02 2.146747e+02 -3.498817e+02
    endloop
  endfacet
  facet normal -8.660254e-01 5.000000e-01 5.578090e-14
    outer loop
      vertex   -6.157953e+02 2.146747e+02 -3.498817e+02
      vertex   -6.199020e+02 2.075618e+02 -3.559914e+02
      vertex   -6.197939e+02 2.077490e+02 -3.553343e+02
    endloop
  endfacet
  facet normal -8.660254e-01 5.000000e-01 -1.755558e-13
    outer loop
      vertex   -6.157953e+02 2.146747e+02 -3.498817e+02
      vertex   -6.197939e+02 2.077490e+02 -3.553343e+02
      vertex   -6.161239e+02 2.141056e+02 -3.496655e+02
    endloop
  endfacet
  facet normal -8.660254e-01 5.000000e-01 -1.076817e-13
    outer loop
      vertex   -6.161239e+02 2.141056e+02 -3.496655e+02
      vertex   -6.197939e+02 2.077490e+02 -3.553343e+02
      vertex   -6.197745e+02 2.077826e+02 -3.546436e+02
    endloop
  endfacet
  facet normal -8.660254e-01 5.000000e-01 1.525413e-14
    outer loop
      vertex   -6.161239e+02 2.141056e+02 -3.496655e+02
      vertex   -6.197745e+02 2.077826e+02 -3.546436e+02
      vertex   -6.164133e+02 2.136044e+02 -3.492865e+02
    endloop
  endfacet
  facet normal -8.660254e-01 5.000000e-01 7.895715e-14
    outer loop
      vertex   -6.164133e+02 2.136044e+02 -3.492865e+02
      vertex   -6.197745e+02 2.077826e+02 -3.546436e+02
      vertex   -6.198452e+02 2.076602e+02 -3.539664e+02
    endloop
  endfacet
  facet normal -8.660254e-01 5.000000e-01 -6.348298e-14
    outer loop
      vertex   -6.164133e+02 2.136044e+02 -3.492865e+02
      vertex   -6.198452e+02 2.076602e+02 -3.539664e+02
      vertex   -6.166438e+02 2.132052e+02 -3.487707e+02
    endloop
  endfacet
  facet normal -8.660254e-01 5.000000e-01 -1.446863e-13
    outer loop
      vertex   -6.166438e+02 2.132052e+02 -3.487707e+02
      vertex   -6.198452e+02 2.076602e+02 -3.539664e+02
      vertex   -6.200010e+02 2.073902e+02 -3.533488e+02
    endloop
  endfacet
  facet normal -8.660254e-01 5.000000e-01 -3.054559e-14
    outer loop
      vertex   -6.144543e+02 2.169975e+02 -3.457850e+02
      vertex   -6.138966e+02 2.179635e+02 -3.450245e+02
      vertex   -6.142984e+02 2.172675e+02 -3.464026e+02
    endloop
  endfacet
  facet normal -8.660254e-01 5.000000e-01 -4.131646e-14
    outer loop
      vertex   -6.142984e+02 2.172675e+02 -3.464026e+02
      vertex   -6.138966e+02 2.179635e+02 -3.450245e+02
      vertex   -6.134741e+02 2.186953e+02 -3.462639e+02
    endloop
  endfacet
  facet normal -8.660254e-01 5.000000e-01 6.294463e-15
    outer loop
      vertex   -6.133993e+02 2.188247e+02 -3.482583e+02
      vertex   -6.135423e+02 2.185771e+02 -3.486951e+02
      vertex   -6.137370e+02 2.182399e+02 -3.490430e+02
    endloop
  endfacet
  facet normal 8.660254e-01 -5.000000e-01 2.748721e-15
    outer loop
      vertex   -6.105816e+02 2.097052e+02 -3.487707e+02
      vertex   -6.139389e+02 2.038902e+02 -3.533488e+02
      vertex   -6.103511e+02 2.101044e+02 -3.492865e+02
    endloop
  endfacet
  facet normal 8.660254e-01 -5.000000e-01 7.794105e-14
    outer loop
      vertex   -6.103511e+02 2.101044e+02 -3.492865e+02
      vertex   -6.139389e+02 2.038902e+02 -3.533488e+02
      vertex   -6.137830e+02 2.041602e+02 -3.539664e+02
    endloop
  endfacet
  facet normal 8.660254e-01 -5.000000e-01 -1.589180e-14
    outer loop
      vertex   -6.103511e+02 2.101044e+02 -3.492865e+02
      vertex   -6.137830e+02 2.041602e+02 -3.539664e+02
      vertex   -6.100617e+02 2.106056e+02 -3.496655e+02
    endloop
  endfacet
  facet normal 8.660254e-01 -5.000000e-01 4.843581e-14
    outer loop
      vertex   -6.100617e+02 2.106056e+02 -3.496655e+02
      vertex   -6.137830e+02 2.041602e+02 -3.539664e+02
      vertex   -6.137123e+02 2.042826e+02 -3.546436e+02
    endloop
  endfacet
  facet normal 8.660254e-01 -5.000000e-01 3.919027e-14
    outer loop
      vertex   -6.100617e+02 2.106056e+02 -3.496655e+02
      vertex   -6.137123e+02 2.042826e+02 -3.546436e+02
      vertex   -6.097332e+02 2.111747e+02 -3.498817e+02
    endloop
  endfacet
  facet normal 8.660254e-01 -5.000000e-01 -4.012705e-14
    outer loop
      vertex   -6.097332e+02 2.111747e+02 -3.498817e+02
      vertex   -6.137123e+02 2.042826e+02 -3.546436e+02
      vertex   -6.137317e+02 2.042490e+02 -3.553343e+02
    endloop
  endfacet
  facet normal 8.660254e-01 -5.000000e-01 -3.301096e-14
    outer loop
      vertex   -6.097332e+02 2.111747e+02 -3.498817e+02
      vertex   -6.137317e+02 2.042490e+02 -3.553343e+02
      vertex   -6.093878e+02 2.117729e+02 -3.499204e+02
    endloop
  endfacet
  facet normal 8.660254e-01 -5.000000e-01 -5.792735e-14
    outer loop
      vertex   -6.093878e+02 2.117729e+02 -3.499204e+02
      vertex   -6.137317e+02 2.042490e+02 -3.553343e+02
      vertex   -6.138398e+02 2.040618e+02 -3.559914e+02
    endloop
  endfacet
  facet normal 8.660254e-01 -5.000000e-01 1.125402e-13
    outer loop
      vertex   -6.093878e+02 2.117729e+02 -3.499204e+02
      vertex   -6.138398e+02 2.040618e+02 -3.559914e+02
      vertex   -6.090492e+02 2.123594e+02 -3.497791e+02
    endloop
  endfacet
  facet normal 8.660254e-01 -5.000000e-01 1.202274e-13
    outer loop
      vertex   -6.090492e+02 2.123594e+02 -3.497791e+02
      vertex   -6.138398e+02 2.040618e+02 -3.559914e+02
      vertex   -6.140293e+02 2.037336e+02 -3.565702e+02
    endloop
  endfacet
  facet normal 8.660254e-01 -5.000000e-01 5.735603e-14
    outer loop
      vertex   -6.090492e+02 2.123594e+02 -3.497791e+02
      vertex   -6.140293e+02 2.037336e+02 -3.565702e+02
      vertex   -6.076748e+02 2.147399e+02 -3.490430e+02
    endloop
  endfacet
  facet normal 8.660254e-01 -5.000000e-01 1.110067e-13
    outer loop
      vertex   -6.076748e+02 2.147399e+02 -3.490430e+02
      vertex   -6.140293e+02 2.037336e+02 -3.565702e+02
      vertex   -6.148740e+02 2.022705e+02 -3.588601e+02
    endloop
  endfacet
  facet normal 8.660254e-01 -5.000000e-01 1.724391e-13
    outer loop
      vertex   -6.148740e+02 2.022705e+02 -3.588601e+02
      vertex   -6.140293e+02 2.037336e+02 -3.565702e+02
      vertex   -6.142872e+02 2.032869e+02 -3.570311e+02
    endloop
  endfacet
  facet normal 8.660254e-01 -5.000000e-01 1.774805e-13
    outer loop
      vertex   -6.148740e+02 2.022705e+02 -3.588601e+02
      vertex   -6.142872e+02 2.032869e+02 -3.570311e+02
      vertex   -6.153626e+02 2.014242e+02 -3.592021e+02
    endloop
  endfacet
  facet normal 8.660254e-01 -5.000000e-01 7.695134e-14
    outer loop
      vertex   -6.153626e+02 2.014242e+02 -3.592021e+02
      vertex   -6.142872e+02 2.032869e+02 -3.570311e+02
      vertex   -6.156232e+02 2.009728e+02 -3.591728e+02
    endloop
  endfacet
  facet normal 8.660254e-01 -5.000000e-01 -1.433400e-13
    outer loop
      vertex   -6.156232e+02 2.009728e+02 -3.591728e+02
      vertex   -6.142872e+02 2.032869e+02 -3.570311e+02
      vertex   -6.145960e+02 2.027521e+02 -3.573429e+02
    endloop
  endfacet
  facet normal 8.660254e-01 -5.000000e-01 -1.795591e-14
    outer loop
      vertex   -6.156232e+02 2.009728e+02 -3.591728e+02
      vertex   -6.145960e+02 2.027521e+02 -3.573429e+02
      vertex   -6.158712e+02 2.005433e+02 -3.590096e+02
    endloop
  endfacet
  facet normal 8.660254e-01 -5.000000e-01 -8.150274e-14
    outer loop
      vertex   -6.158712e+02 2.005433e+02 -3.590096e+02
      vertex   -6.145960e+02 2.027521e+02 -3.573429e+02
      vertex   -6.149346e+02 2.021656e+02 -3.574842e+02
    endloop
  endfacet
  facet normal 8.660254e-01 -5.000000e-01 -3.962327e-14
    outer loop
      vertex   -6.158712e+02 2.005433e+02 -3.590096e+02
      vertex   -6.149346e+02 2.021656e+02 -3.574842e+02
      vertex   -6.160896e+02 2.001650e+02 -3.587236e+02
    endloop
  endfacet
  facet normal 8.660254e-01 -5.000000e-01 -2.442044e-14
    outer loop
      vertex   -6.160896e+02 2.001650e+02 -3.587236e+02
      vertex   -6.149346e+02 2.021656e+02 -3.574842e+02
      vertex   -6.152799e+02 2.015674e+02 -3.574455e+02
    endloop
  endfacet
  facet normal 8.660254e-01 -5.000000e-01 -1.303476e-13
    outer loop
      vertex   -6.160896e+02 2.001650e+02 -3.587236e+02
      vertex   -6.152799e+02 2.015674e+02 -3.574455e+02
      vertex   -6.162636e+02 1.998637e+02 -3.583343e+02
    endloop
  endfacet
  facet normal 8.660254e-01 -5.000000e-01 1.321960e-13
    outer loop
      vertex   -6.162636e+02 1.998637e+02 -3.583343e+02
      vertex   -6.152799e+02 2.015674e+02 -3.574455e+02
      vertex   -6.156085e+02 2.009983e+02 -3.572292e+02
    endloop
  endfacet
  facet normal 8.660254e-01 -5.000000e-01 1.520116e-13
    outer loop
      vertex   -6.162636e+02 1.998637e+02 -3.583343e+02
      vertex   -6.156085e+02 2.009983e+02 -3.572292e+02
      vertex   -6.158979e+02 2.004971e+02 -3.568503e+02
    endloop
  endfacet
  facet normal 8.660254e-01 -5.000000e-01 -9.700249e-14
    outer loop
      vertex   -6.161284e+02 2.000979e+02 -3.563345e+02
      vertex   -6.166861e+02 1.991319e+02 -3.570950e+02
      vertex   -6.158979e+02 2.004971e+02 -3.568503e+02
    endloop
  endfacet
  facet normal 8.660254e-01 -5.000000e-01 1.140314e-13
    outer loop
      vertex   -6.158979e+02 2.004971e+02 -3.568503e+02
      vertex   -6.166861e+02 1.991319e+02 -3.570950e+02
      vertex   -6.162636e+02 1.998637e+02 -3.583343e+02
    endloop
  endfacet
  facet normal 8.660254e-01 -5.000000e-01 -3.324263e-13
    outer loop
      vertex   -6.153626e+02 2.014242e+02 -3.592021e+02
      vertex   -6.151070e+02 2.018669e+02 -3.590954e+02
      vertex   -6.148740e+02 2.022705e+02 -3.588601e+02
    endloop
  endfacet
  facet normal 8.660254e-01 -5.000000e-01 3.642920e-13
    outer loop
      vertex   -6.074801e+02 2.150771e+02 -3.486951e+02
      vertex   -6.073371e+02 2.153247e+02 -3.482583e+02
      vertex   -6.076748e+02 2.147399e+02 -3.490430e+02
    endloop
  endfacet
  facet normal 8.660254e-01 -5.000000e-01 3.669772e-13
    outer loop
      vertex   -6.076748e+02 2.147399e+02 -3.490430e+02
      vertex   -6.073371e+02 2.153247e+02 -3.482583e+02
      vertex   -6.087404e+02 2.128942e+02 -3.494674e+02
    endloop
  endfacet
  facet normal 8.660254e-01 -5.000000e-01 5.749809e-13
    outer loop
      vertex   -6.076748e+02 2.147399e+02 -3.490430e+02
      vertex   -6.087404e+02 2.128942e+02 -3.494674e+02
      vertex   -6.090492e+02 2.123594e+02 -3.497791e+02
    endloop
  endfacet
  facet normal 8.660254e-01 -5.000000e-01 -1.622437e-13
    outer loop
      vertex   -6.073371e+02 2.153247e+02 -3.482583e+02
      vertex   -6.072555e+02 2.154661e+02 -3.477623e+02
      vertex   -6.087404e+02 2.128942e+02 -3.494674e+02
    endloop
  endfacet
  facet normal 8.660254e-01 -5.000000e-01 9.049474e-14
    outer loop
      vertex   -6.087404e+02 2.128942e+02 -3.494674e+02
      vertex   -6.072555e+02 2.154661e+02 -3.477623e+02
      vertex   -6.084825e+02 2.133409e+02 -3.490064e+02
    endloop
  endfacet
  facet normal 8.660254e-01 -5.000000e-01 -6.110369e-14
    outer loop
      vertex   -6.084825e+02 2.133409e+02 -3.490064e+02
      vertex   -6.072555e+02 2.154661e+02 -3.477623e+02
      vertex   -6.072409e+02 2.154914e+02 -3.472410e+02
    endloop
  endfacet
  facet normal 8.660254e-01 -5.000000e-01 1.483379e-13
    outer loop
      vertex   -6.084825e+02 2.133409e+02 -3.490064e+02
      vertex   -6.072409e+02 2.154914e+02 -3.472410e+02
      vertex   -6.082930e+02 2.136691e+02 -3.484276e+02
    endloop
  endfacet
  facet normal 8.660254e-01 -5.000000e-01 3.971563e-14
    outer loop
      vertex   -6.082930e+02 2.136691e+02 -3.484276e+02
      vertex   -6.072409e+02 2.154914e+02 -3.472410e+02
      vertex   -6.072942e+02 2.153990e+02 -3.467299e+02
    endloop
  endfacet
  facet normal 8.660254e-01 -5.000000e-01 -4.825386e-14
    outer loop
      vertex   -6.082930e+02 2.136691e+02 -3.484276e+02
      vertex   -6.072942e+02 2.153990e+02 -3.467299e+02
      vertex   -6.081849e+02 2.138563e+02 -3.477705e+02
    endloop
  endfacet
  facet normal 8.660254e-01 -5.000000e-01 -5.989434e-15
    outer loop
      vertex   -6.081849e+02 2.138563e+02 -3.477705e+02
      vertex   -6.072942e+02 2.153990e+02 -3.467299e+02
      vertex   -6.074119e+02 2.151953e+02 -3.462639e+02
    endloop
  endfacet
  facet normal 8.660254e-01 -5.000000e-01 -1.050413e-13
    outer loop
      vertex   -6.081849e+02 2.138563e+02 -3.477705e+02
      vertex   -6.074119e+02 2.151953e+02 -3.462639e+02
      vertex   -6.081656e+02 2.138899e+02 -3.470798e+02
    endloop
  endfacet
  facet normal 8.660254e-01 -5.000000e-01 1.486646e-14
    outer loop
      vertex   -6.081656e+02 2.138899e+02 -3.470798e+02
      vertex   -6.074119e+02 2.151953e+02 -3.462639e+02
      vertex   -6.082362e+02 2.137675e+02 -3.464026e+02
    endloop
  endfacet
  facet normal 8.660254e-01 -5.000000e-01 -6.423579e-15
    outer loop
      vertex   -6.082362e+02 2.137675e+02 -3.464026e+02
      vertex   -6.074119e+02 2.151953e+02 -3.462639e+02
      vertex   -6.078344e+02 2.144635e+02 -3.450245e+02
    endloop
  endfacet
  facet normal 8.660254e-01 -5.000000e-01 -3.687054e-15
    outer loop
      vertex   -6.082362e+02 2.137675e+02 -3.464026e+02
      vertex   -6.078344e+02 2.144635e+02 -3.450245e+02
      vertex   -6.083921e+02 2.134975e+02 -3.457850e+02
    endloop
  endfacet
  facet normal -2.816684e-01 -4.878640e-01 8.262273e-01
    outer loop
      vertex   -6.144543e+02 2.169975e+02 -3.457850e+02
      vertex   -6.083921e+02 2.134975e+02 -3.457850e+02
      vertex   -6.138966e+02 2.179635e+02 -3.450245e+02
    endloop
  endfacet
  facet normal -2.816684e-01 -4.878640e-01 8.262273e-01
    outer loop
      vertex   -6.138966e+02 2.179635e+02 -3.450245e+02
      vertex   -6.083921e+02 2.134975e+02 -3.457850e+02
      vertex   -6.078344e+02 2.144635e+02 -3.450245e+02
    endloop
  endfacet
  facet normal 3.331809e-01 5.770862e-01 -7.456286e-01
    outer loop
      vertex   -6.076748e+02 2.147399e+02 -3.490430e+02
      vertex   -6.137370e+02 2.182399e+02 -3.490430e+02
      vertex   -6.074801e+02 2.150771e+02 -3.486951e+02
    endloop
  endfacet
  facet normal 3.331809e-01 5.770862e-01 -7.456286e-01
    outer loop
      vertex   -6.074801e+02 2.150771e+02 -3.486951e+02
      vertex   -6.137370e+02 2.182399e+02 -3.490430e+02
      vertex   -6.135423e+02 2.185771e+02 -3.486951e+02
    endloop
  endfacet
  facet normal 4.183194e-01 7.245505e-01 -5.477549e-01
    outer loop
      vertex   -6.074801e+02 2.150771e+02 -3.486951e+02
      vertex   -6.135423e+02 2.185771e+02 -3.486951e+02
      vertex   -6.073371e+02 2.153247e+02 -3.482583e+02
    endloop
  endfacet
  facet normal 4.183194e-01 7.245505e-01 -5.477549e-01
    outer loop
      vertex   -6.073371e+02 2.153247e+02 -3.482583e+02
      vertex   -6.135423e+02 2.185771e+02 -3.486951e+02
      vertex   -6.133993e+02 2.188247e+02 -3.482583e+02
    endloop
  endfacet
  facet normal 4.749502e-01 8.226380e-01 -3.125525e-01
    outer loop
      vertex   -6.073371e+02 2.153247e+02 -3.482583e+02
      vertex   -6.133993e+02 2.188247e+02 -3.482583e+02
      vertex   -6.072555e+02 2.154661e+02 -3.477623e+02
    endloop
  endfacet
  facet normal 4.749502e-01 8.226380e-01 -3.125525e-01
    outer loop
      vertex   -6.072555e+02 2.154661e+02 -3.477623e+02
      vertex   -6.133993e+02 2.188247e+02 -3.482583e+02
      vertex   -6.133177e+02 2.189661e+02 -3.477623e+02
    endloop
  endfacet
  facet normal 4.992140e-01 8.646640e-01 -5.605019e-02
    outer loop
      vertex   -6.072555e+02 2.154661e+02 -3.477623e+02
      vertex   -6.133177e+02 2.189661e+02 -3.477623e+02
      vertex   -6.072409e+02 2.154914e+02 -3.472410e+02
    endloop
  endfacet
  facet normal 4.992140e-01 8.646640e-01 -5.605019e-02
    outer loop
      vertex   -6.072409e+02 2.154914e+02 -3.472410e+02
      vertex   -6.133177e+02 2.189661e+02 -3.477623e+02
      vertex   -6.133031e+02 2.189914e+02 -3.472410e+02
    endloop
  endfacet
  facet normal 4.894571e-01 8.477646e-01 2.042718e-01
    outer loop
      vertex   -6.072409e+02 2.154914e+02 -3.472410e+02
      vertex   -6.133031e+02 2.189914e+02 -3.472410e+02
      vertex   -6.072942e+02 2.153990e+02 -3.467299e+02
    endloop
  endfacet
  facet normal 4.894571e-01 8.477646e-01 2.042718e-01
    outer loop
      vertex   -6.072942e+02 2.153990e+02 -3.467299e+02
      vertex   -6.133031e+02 2.189914e+02 -3.472410e+02
      vertex   -6.133564e+02 2.188990e+02 -3.467299e+02
    endloop
  endfacet
  facet normal 4.463445e-01 7.730914e-01 4.506731e-01
    outer loop
      vertex   -6.072942e+02 2.153990e+02 -3.467299e+02
      vertex   -6.133564e+02 2.188990e+02 -3.467299e+02
      vertex   -6.074119e+02 2.151953e+02 -3.462639e+02
    endloop
  endfacet
  facet normal 4.463445e-01 7.730914e-01 4.506731e-01
    outer loop
      vertex   -6.074119e+02 2.151953e+02 -3.462639e+02
      vertex   -6.133564e+02 2.188990e+02 -3.467299e+02
      vertex   -6.134741e+02 2.186953e+02 -3.462639e+02
    endloop
  endfacet
  facet normal 2.816684e-01 4.878640e-01 -8.262273e-01
    outer loop
      vertex   -6.076748e+02 2.147399e+02 -3.490430e+02
      vertex   -6.148740e+02 2.022705e+02 -3.588601e+02
      vertex   -6.137370e+02 2.182399e+02 -3.490430e+02
    endloop
  endfacet
  facet normal 2.816684e-01 4.878640e-01 -8.262273e-01
    outer loop
      vertex   -6.137370e+02 2.182399e+02 -3.490430e+02
      vertex   -6.148740e+02 2.022705e+02 -3.588601e+02
      vertex   -6.209362e+02 2.057705e+02 -3.588601e+02
    endloop
  endfacet
  facet normal 2.253365e-01 3.902943e-01 -8.926891e-01
    outer loop
      vertex   -6.209362e+02 2.057705e+02 -3.588601e+02
      vertex   -6.148740e+02 2.022705e+02 -3.588601e+02
      vertex   -6.211692e+02 2.053669e+02 -3.590954e+02
    endloop
  endfacet
  facet normal 2.253365e-01 3.902943e-01 -8.926891e-01
    outer loop
      vertex   -6.211692e+02 2.053669e+02 -3.590954e+02
      vertex   -6.148740e+02 2.022705e+02 -3.588601e+02
      vertex   -6.151070e+02 2.018669e+02 -3.590954e+02
    endloop
  endfacet
  facet normal 1.021359e-01 1.769046e-01 -9.789142e-01
    outer loop
      vertex   -6.211692e+02 2.053669e+02 -3.590954e+02
      vertex   -6.151070e+02 2.018669e+02 -3.590954e+02
      vertex   -6.214248e+02 2.049242e+02 -3.592021e+02
    endloop
  endfacet
  facet normal 1.021359e-01 1.769046e-01 -9.789142e-01
    outer loop
      vertex   -6.214248e+02 2.049242e+02 -3.592021e+02
      vertex   -6.151070e+02 2.018669e+02 -3.590954e+02
      vertex   -6.153626e+02 2.014242e+02 -3.592021e+02
    endloop
  endfacet
  facet normal -2.802509e-02 -4.854089e-02 -9.984280e-01
    outer loop
      vertex   -6.214248e+02 2.049242e+02 -3.592021e+02
      vertex   -6.153626e+02 2.014242e+02 -3.592021e+02
      vertex   -6.216854e+02 2.044728e+02 -3.591728e+02
    endloop
  endfacet
  facet normal -2.802509e-02 -4.854089e-02 -9.984280e-01
    outer loop
      vertex   -6.216854e+02 2.044728e+02 -3.591728e+02
      vertex   -6.153626e+02 2.014242e+02 -3.592021e+02
      vertex   -6.156232e+02 2.009728e+02 -3.591728e+02
    endloop
  endfacet
  facet normal -1.562762e-01 -2.706784e-01 -9.499005e-01
    outer loop
      vertex   -6.216854e+02 2.044728e+02 -3.591728e+02
      vertex   -6.156232e+02 2.009728e+02 -3.591728e+02
      vertex   -6.219334e+02 2.040433e+02 -3.590096e+02
    endloop
  endfacet
  facet normal -1.562762e-01 -2.706784e-01 -9.499005e-01
    outer loop
      vertex   -6.219334e+02 2.040433e+02 -3.590096e+02
      vertex   -6.156232e+02 2.009728e+02 -3.591728e+02
      vertex   -6.158712e+02 2.005433e+02 -3.590096e+02
    endloop
  endfacet
  facet normal -2.738774e-01 -4.743696e-01 -8.366389e-01
    outer loop
      vertex   -6.219334e+02 2.040433e+02 -3.590096e+02
      vertex   -6.158712e+02 2.005433e+02 -3.590096e+02
      vertex   -6.221518e+02 2.036650e+02 -3.587236e+02
    endloop
  endfacet
  facet normal -2.738774e-01 -4.743696e-01 -8.366389e-01
    outer loop
      vertex   -6.221518e+02 2.036650e+02 -3.587236e+02
      vertex   -6.158712e+02 2.005433e+02 -3.590096e+02
      vertex   -6.160896e+02 2.001650e+02 -3.587236e+02
    endloop
  endfacet
  facet normal -3.728143e-01 -6.457333e-01 -6.663617e-01
    outer loop
      vertex   -6.221518e+02 2.036650e+02 -3.587236e+02
      vertex   -6.160896e+02 2.001650e+02 -3.587236e+02
      vertex   -6.223257e+02 2.033637e+02 -3.583343e+02
    endloop
  endfacet
  facet normal -3.728143e-01 -6.457333e-01 -6.663617e-01
    outer loop
      vertex   -6.223257e+02 2.033637e+02 -3.583343e+02
      vertex   -6.160896e+02 2.001650e+02 -3.587236e+02
      vertex   -6.162636e+02 1.998637e+02 -3.583343e+02
    endloop
  endfacet
  facet normal 4.131137e-01 7.155339e-01 5.633368e-01
    outer loop
      vertex   -6.074119e+02 2.151953e+02 -3.462639e+02
      vertex   -6.134741e+02 2.186953e+02 -3.462639e+02
      vertex   -6.078344e+02 2.144635e+02 -3.450245e+02
    endloop
  endfacet
  facet normal 4.131137e-01 7.155339e-01 5.633368e-01
    outer loop
      vertex   -6.078344e+02 2.144635e+02 -3.450245e+02
      vertex   -6.134741e+02 2.186953e+02 -3.462639e+02
      vertex   -6.138966e+02 2.179635e+02 -3.450245e+02
    endloop
  endfacet
  facet normal -4.131137e-01 -7.155339e-01 -5.633368e-01
    outer loop
      vertex   -6.223257e+02 2.033637e+02 -3.583343e+02
      vertex   -6.162636e+02 1.998637e+02 -3.583343e+02
      vertex   -6.227482e+02 2.026319e+02 -3.570950e+02
    endloop
  endfacet
  facet normal -4.131137e-01 -7.155339e-01 -5.633368e-01
    outer loop
      vertex   -6.227482e+02 2.026319e+02 -3.570950e+02
      vertex   -6.162636e+02 1.998637e+02 -3.583343e+02
      vertex   -6.166861e+02 1.991319e+02 -3.570950e+02
    endloop
  endfacet
  facet normal -2.816684e-01 -4.878640e-01 8.262273e-01
    outer loop
      vertex   -6.200010e+02 2.073902e+02 -3.533488e+02
      vertex   -6.139389e+02 2.038902e+02 -3.533488e+02
      vertex   -6.166438e+02 2.132052e+02 -3.487707e+02
    endloop
  endfacet
  facet normal -2.816684e-01 -4.878640e-01 8.262273e-01
    outer loop
      vertex   -6.166438e+02 2.132052e+02 -3.487707e+02
      vertex   -6.139389e+02 2.038902e+02 -3.533488e+02
      vertex   -6.105816e+02 2.097052e+02 -3.487707e+02
    endloop
  endfacet
endsolid
