solid ASCII
  facet normal 3.728143e-01 6.457333e-01 6.663617e-01
    outer loop
      vertex   -5.399181e+02 1.560979e+02 -3.563345e+02
      vertex   -5.338560e+02 1.525979e+02 -3.563345e+02
      vertex   -5.396876e+02 1.564971e+02 -3.568503e+02
    endloop
  endfacet
  facet normal 3.728143e-01 6.457333e-01 6.663617e-01
    outer loop
      vertex   -5.396876e+02 1.564971e+02 -3.568503e+02
      vertex   -5.338560e+02 1.525979e+02 -3.563345e+02
      vertex   -5.336255e+02 1.529971e+02 -3.568503e+02
    endloop
  endfacet
  facet normal 2.738774e-01 4.743696e-01 8.366389e-01
    outer loop
      vertex   -5.396876e+02 1.564971e+02 -3.568503e+02
      vertex   -5.336255e+02 1.529971e+02 -3.568503e+02
      vertex   -5.393983e+02 1.569983e+02 -3.572292e+02
    endloop
  endfacet
  facet normal 2.738774e-01 4.743696e-01 8.366389e-01
    outer loop
      vertex   -5.393983e+02 1.569983e+02 -3.572292e+02
      vertex   -5.336255e+02 1.529971e+02 -3.568503e+02
      vertex   -5.333361e+02 1.534983e+02 -3.572292e+02
    endloop
  endfacet
  facet normal 1.562762e-01 2.706784e-01 9.499005e-01
    outer loop
      vertex   -5.393983e+02 1.569983e+02 -3.572292e+02
      vertex   -5.333361e+02 1.534983e+02 -3.572292e+02
      vertex   -5.390697e+02 1.575674e+02 -3.574455e+02
    endloop
  endfacet
  facet normal 1.562762e-01 2.706784e-01 9.499005e-01
    outer loop
      vertex   -5.390697e+02 1.575674e+02 -3.574455e+02
      vertex   -5.333361e+02 1.534983e+02 -3.572292e+02
      vertex   -5.330075e+02 1.540674e+02 -3.574455e+02
    endloop
  endfacet
  facet normal 2.802509e-02 4.854089e-02 9.984280e-01
    outer loop
      vertex   -5.390697e+02 1.575674e+02 -3.574455e+02
      vertex   -5.330075e+02 1.540674e+02 -3.574455e+02
      vertex   -5.387243e+02 1.581656e+02 -3.574842e+02
    endloop
  endfacet
  facet normal 2.802509e-02 4.854089e-02 9.984280e-01
    outer loop
      vertex   -5.387243e+02 1.581656e+02 -3.574842e+02
      vertex   -5.330075e+02 1.540674e+02 -3.574455e+02
      vertex   -5.326622e+02 1.546656e+02 -3.574842e+02
    endloop
  endfacet
  facet normal -1.021359e-01 -1.769046e-01 9.789142e-01
    outer loop
      vertex   -5.387243e+02 1.581656e+02 -3.574842e+02
      vertex   -5.326622e+02 1.546656e+02 -3.574842e+02
      vertex   -5.383857e+02 1.587521e+02 -3.573429e+02
    endloop
  endfacet
  facet normal -1.021359e-01 -1.769046e-01 9.789142e-01
    outer loop
      vertex   -5.383857e+02 1.587521e+02 -3.573429e+02
      vertex   -5.326622e+02 1.546656e+02 -3.574842e+02
      vertex   -5.323236e+02 1.552521e+02 -3.573429e+02
    endloop
  endfacet
  facet normal -2.253365e-01 -3.902943e-01 8.926891e-01
    outer loop
      vertex   -5.383857e+02 1.587521e+02 -3.573429e+02
      vertex   -5.323236e+02 1.552521e+02 -3.573429e+02
      vertex   -5.380770e+02 1.592869e+02 -3.570311e+02
    endloop
  endfacet
  facet normal -2.253365e-01 -3.902943e-01 8.926891e-01
    outer loop
      vertex   -5.380770e+02 1.592869e+02 -3.570311e+02
      vertex   -5.323236e+02 1.552521e+02 -3.573429e+02
      vertex   -5.320148e+02 1.557869e+02 -3.570311e+02
    endloop
  endfacet
  facet normal -3.331809e-01 -5.770862e-01 7.456286e-01
    outer loop
      vertex   -5.380770e+02 1.592869e+02 -3.570311e+02
      vertex   -5.320148e+02 1.557869e+02 -3.570311e+02
      vertex   -5.378191e+02 1.597336e+02 -3.565702e+02
    endloop
  endfacet
  facet normal -3.331809e-01 -5.770862e-01 7.456286e-01
    outer loop
      vertex   -5.378191e+02 1.597336e+02 -3.565702e+02
      vertex   -5.320148e+02 1.557869e+02 -3.570311e+02
      vertex   -5.317569e+02 1.562336e+02 -3.565702e+02
    endloop
  endfacet
  facet normal -4.183194e-01 -7.245505e-01 5.477549e-01
    outer loop
      vertex   -5.378191e+02 1.597336e+02 -3.565702e+02
      vertex   -5.317569e+02 1.562336e+02 -3.565702e+02
      vertex   -5.376296e+02 1.600618e+02 -3.559914e+02
    endloop
  endfacet
  facet normal -4.183194e-01 -7.245505e-01 5.477549e-01
    outer loop
      vertex   -5.376296e+02 1.600618e+02 -3.559914e+02
      vertex   -5.317569e+02 1.562336e+02 -3.565702e+02
      vertex   -5.315674e+02 1.565618e+02 -3.559914e+02
    endloop
  endfacet
  facet normal -4.749502e-01 -8.226380e-01 3.125525e-01
    outer loop
      vertex   -5.376296e+02 1.600618e+02 -3.559914e+02
      vertex   -5.315674e+02 1.565618e+02 -3.559914e+02
      vertex   -5.375215e+02 1.602490e+02 -3.553343e+02
    endloop
  endfacet
  facet normal -4.749502e-01 -8.226380e-01 3.125525e-01
    outer loop
      vertex   -5.375215e+02 1.602490e+02 -3.553343e+02
      vertex   -5.315674e+02 1.565618e+02 -3.559914e+02
      vertex   -5.314593e+02 1.567490e+02 -3.553343e+02
    endloop
  endfacet
  facet normal -4.992140e-01 -8.646640e-01 5.605019e-02
    outer loop
      vertex   -5.375215e+02 1.602490e+02 -3.553343e+02
      vertex   -5.314593e+02 1.567490e+02 -3.553343e+02
      vertex   -5.375021e+02 1.602826e+02 -3.546436e+02
    endloop
  endfacet
  facet normal -4.992140e-01 -8.646640e-01 5.605019e-02
    outer loop
      vertex   -5.375021e+02 1.602826e+02 -3.546436e+02
      vertex   -5.314593e+02 1.567490e+02 -3.553343e+02
      vertex   -5.314399e+02 1.567826e+02 -3.546436e+02
    endloop
  endfacet
  facet normal -4.894571e-01 -8.477646e-01 -2.042718e-01
    outer loop
      vertex   -5.375021e+02 1.602826e+02 -3.546436e+02
      vertex   -5.314399e+02 1.567826e+02 -3.546436e+02
      vertex   -5.375727e+02 1.601602e+02 -3.539664e+02
    endloop
  endfacet
  facet normal -4.894571e-01 -8.477646e-01 -2.042718e-01
    outer loop
      vertex   -5.375727e+02 1.601602e+02 -3.539664e+02
      vertex   -5.314399e+02 1.567826e+02 -3.546436e+02
      vertex   -5.315106e+02 1.566602e+02 -3.539664e+02
    endloop
  endfacet
  facet normal -4.463445e-01 -7.730914e-01 -4.506731e-01
    outer loop
      vertex   -5.375727e+02 1.601602e+02 -3.539664e+02
      vertex   -5.315106e+02 1.566602e+02 -3.539664e+02
      vertex   -5.377286e+02 1.598902e+02 -3.533488e+02
    endloop
  endfacet
  facet normal -4.463445e-01 -7.730914e-01 -4.506731e-01
    outer loop
      vertex   -5.377286e+02 1.598902e+02 -3.533488e+02
      vertex   -5.315106e+02 1.566602e+02 -3.539664e+02
      vertex   -5.316665e+02 1.563902e+02 -3.533488e+02
    endloop
  endfacet
  facet normal 3.728143e-01 6.457333e-01 6.663617e-01
    outer loop
      vertex   -5.343714e+02 1.657052e+02 -3.487707e+02
      vertex   -5.283092e+02 1.622052e+02 -3.487707e+02
      vertex   -5.341409e+02 1.661044e+02 -3.492865e+02
    endloop
  endfacet
  facet normal 3.728143e-01 6.457333e-01 6.663617e-01
    outer loop
      vertex   -5.341409e+02 1.661044e+02 -3.492865e+02
      vertex   -5.283092e+02 1.622052e+02 -3.487707e+02
      vertex   -5.280787e+02 1.626044e+02 -3.492865e+02
    endloop
  endfacet
  facet normal 2.738774e-01 4.743696e-01 8.366389e-01
    outer loop
      vertex   -5.341409e+02 1.661044e+02 -3.492865e+02
      vertex   -5.280787e+02 1.626044e+02 -3.492865e+02
      vertex   -5.338515e+02 1.666056e+02 -3.496655e+02
    endloop
  endfacet
  facet normal 2.738774e-01 4.743696e-01 8.366389e-01
    outer loop
      vertex   -5.338515e+02 1.666056e+02 -3.496655e+02
      vertex   -5.280787e+02 1.626044e+02 -3.492865e+02
      vertex   -5.277893e+02 1.631056e+02 -3.496655e+02
    endloop
  endfacet
  facet normal 1.562762e-01 2.706784e-01 9.499005e-01
    outer loop
      vertex   -5.338515e+02 1.666056e+02 -3.496655e+02
      vertex   -5.277893e+02 1.631056e+02 -3.496655e+02
      vertex   -5.335229e+02 1.671747e+02 -3.498817e+02
    endloop
  endfacet
  facet normal 1.562762e-01 2.706784e-01 9.499005e-01
    outer loop
      vertex   -5.335229e+02 1.671747e+02 -3.498817e+02
      vertex   -5.277893e+02 1.631056e+02 -3.496655e+02
      vertex   -5.274607e+02 1.636747e+02 -3.498817e+02
    endloop
  endfacet
  facet normal 2.802509e-02 4.854089e-02 9.984280e-01
    outer loop
      vertex   -5.335229e+02 1.671747e+02 -3.498817e+02
      vertex   -5.274607e+02 1.636747e+02 -3.498817e+02
      vertex   -5.331776e+02 1.677729e+02 -3.499204e+02
    endloop
  endfacet
  facet normal 2.802509e-02 4.854089e-02 9.984280e-01
    outer loop
      vertex   -5.331776e+02 1.677729e+02 -3.499204e+02
      vertex   -5.274607e+02 1.636747e+02 -3.498817e+02
      vertex   -5.271154e+02 1.642729e+02 -3.499204e+02
    endloop
  endfacet
  facet normal -1.021359e-01 -1.769046e-01 9.789142e-01
    outer loop
      vertex   -5.331776e+02 1.677729e+02 -3.499204e+02
      vertex   -5.271154e+02 1.642729e+02 -3.499204e+02
      vertex   -5.328390e+02 1.683594e+02 -3.497791e+02
    endloop
  endfacet
  facet normal -1.021359e-01 -1.769046e-01 9.789142e-01
    outer loop
      vertex   -5.328390e+02 1.683594e+02 -3.497791e+02
      vertex   -5.271154e+02 1.642729e+02 -3.499204e+02
      vertex   -5.267768e+02 1.648594e+02 -3.497791e+02
    endloop
  endfacet
  facet normal -2.253365e-01 -3.902943e-01 8.926891e-01
    outer loop
      vertex   -5.328390e+02 1.683594e+02 -3.497791e+02
      vertex   -5.267768e+02 1.648594e+02 -3.497791e+02
      vertex   -5.325302e+02 1.688942e+02 -3.494674e+02
    endloop
  endfacet
  facet normal -2.253365e-01 -3.902943e-01 8.926891e-01
    outer loop
      vertex   -5.325302e+02 1.688942e+02 -3.494674e+02
      vertex   -5.267768e+02 1.648594e+02 -3.497791e+02
      vertex   -5.264680e+02 1.653942e+02 -3.494674e+02
    endloop
  endfacet
  facet normal -3.331809e-01 -5.770862e-01 7.456286e-01
    outer loop
      vertex   -5.325302e+02 1.688942e+02 -3.494674e+02
      vertex   -5.264680e+02 1.653942e+02 -3.494674e+02
      vertex   -5.322723e+02 1.693409e+02 -3.490064e+02
    endloop
  endfacet
  facet normal -3.331809e-01 -5.770862e-01 7.456286e-01
    outer loop
      vertex   -5.322723e+02 1.693409e+02 -3.490064e+02
      vertex   -5.264680e+02 1.653942e+02 -3.494674e+02
      vertex   -5.262101e+02 1.658409e+02 -3.490064e+02
    endloop
  endfacet
  facet normal -4.183194e-01 -7.245505e-01 5.477549e-01
    outer loop
      vertex   -5.322723e+02 1.693409e+02 -3.490064e+02
      vertex   -5.262101e+02 1.658409e+02 -3.490064e+02
      vertex   -5.320828e+02 1.696691e+02 -3.484276e+02
    endloop
  endfacet
  facet normal -4.183194e-01 -7.245505e-01 5.477549e-01
    outer loop
      vertex   -5.320828e+02 1.696691e+02 -3.484276e+02
      vertex   -5.262101e+02 1.658409e+02 -3.490064e+02
      vertex   -5.260206e+02 1.661691e+02 -3.484276e+02
    endloop
  endfacet
  facet normal -4.749502e-01 -8.226380e-01 3.125525e-01
    outer loop
      vertex   -5.320828e+02 1.696691e+02 -3.484276e+02
      vertex   -5.260206e+02 1.661691e+02 -3.484276e+02
      vertex   -5.319747e+02 1.698563e+02 -3.477705e+02
    endloop
  endfacet
  facet normal -4.749502e-01 -8.226380e-01 3.125525e-01
    outer loop
      vertex   -5.319747e+02 1.698563e+02 -3.477705e+02
      vertex   -5.260206e+02 1.661691e+02 -3.484276e+02
      vertex   -5.259125e+02 1.663563e+02 -3.477705e+02
    endloop
  endfacet
  facet normal -4.992140e-01 -8.646640e-01 5.605019e-02
    outer loop
      vertex   -5.319747e+02 1.698563e+02 -3.477705e+02
      vertex   -5.259125e+02 1.663563e+02 -3.477705e+02
      vertex   -5.319553e+02 1.698899e+02 -3.470798e+02
    endloop
  endfacet
  facet normal -4.992140e-01 -8.646640e-01 5.605019e-02
    outer loop
      vertex   -5.319553e+02 1.698899e+02 -3.470798e+02
      vertex   -5.259125e+02 1.663563e+02 -3.477705e+02
      vertex   -5.258931e+02 1.663899e+02 -3.470798e+02
    endloop
  endfacet
  facet normal -4.894571e-01 -8.477646e-01 -2.042718e-01
    outer loop
      vertex   -5.319553e+02 1.698899e+02 -3.470798e+02
      vertex   -5.258931e+02 1.663899e+02 -3.470798e+02
      vertex   -5.320260e+02 1.697675e+02 -3.464026e+02
    endloop
  endfacet
  facet normal -4.894571e-01 -8.477646e-01 -2.042718e-01
    outer loop
      vertex   -5.320260e+02 1.697675e+02 -3.464026e+02
      vertex   -5.258931e+02 1.663899e+02 -3.470798e+02
      vertex   -5.259638e+02 1.662675e+02 -3.464026e+02
    endloop
  endfacet
  facet normal -4.463445e-01 -7.730914e-01 -4.506731e-01
    outer loop
      vertex   -5.320260e+02 1.697675e+02 -3.464026e+02
      vertex   -5.259638e+02 1.662675e+02 -3.464026e+02
      vertex   -5.321819e+02 1.694975e+02 -3.457850e+02
    endloop
  endfacet
  facet normal -4.463445e-01 -7.730914e-01 -4.506731e-01
    outer loop
      vertex   -5.321819e+02 1.694975e+02 -3.457850e+02
      vertex   -5.259638e+02 1.662675e+02 -3.464026e+02
      vertex   -5.261197e+02 1.659975e+02 -3.457850e+02
    endloop
  endfacet
  facet normal -2.816684e-01 -4.878640e-01 8.262273e-01
    outer loop
      vertex   -5.338560e+02 1.525979e+02 -3.563345e+02
      vertex   -5.399181e+02 1.560979e+02 -3.563345e+02
      vertex   -5.344137e+02 1.516319e+02 -3.570950e+02
    endloop
  endfacet
  facet normal -2.816684e-01 -4.878640e-01 8.262273e-01
    outer loop
      vertex   -5.344137e+02 1.516319e+02 -3.570950e+02
      vertex   -5.399181e+02 1.560979e+02 -3.563345e+02
      vertex   -5.404758e+02 1.551319e+02 -3.570950e+02
    endloop
  endfacet
  facet normal -8.660254e-01 5.000000e-01 5.164873e-14
    outer loop
      vertex   -5.399181e+02 1.560979e+02 -3.563345e+02
      vertex   -5.396876e+02 1.564971e+02 -3.568503e+02
      vertex   -5.404758e+02 1.551319e+02 -3.570950e+02
    endloop
  endfacet
  facet normal -8.660254e-01 5.000000e-01 -2.661931e-14
    outer loop
      vertex   -5.404758e+02 1.551319e+02 -3.570950e+02
      vertex   -5.396876e+02 1.564971e+02 -3.568503e+02
      vertex   -5.400533e+02 1.558637e+02 -3.583343e+02
    endloop
  endfacet
  facet normal -8.660254e-01 5.000000e-01 1.890984e-14
    outer loop
      vertex   -5.400533e+02 1.558637e+02 -3.583343e+02
      vertex   -5.396876e+02 1.564971e+02 -3.568503e+02
      vertex   -5.393983e+02 1.569983e+02 -3.572292e+02
    endloop
  endfacet
  facet normal -8.660254e-01 5.000000e-01 -5.894931e-14
    outer loop
      vertex   -5.400533e+02 1.558637e+02 -3.583343e+02
      vertex   -5.393983e+02 1.569983e+02 -3.572292e+02
      vertex   -5.390697e+02 1.575674e+02 -3.574455e+02
    endloop
  endfacet
  facet normal -8.660254e-01 5.000000e-01 1.147803e-13
    outer loop
      vertex   -5.400533e+02 1.558637e+02 -3.583343e+02
      vertex   -5.390697e+02 1.575674e+02 -3.574455e+02
      vertex   -5.398794e+02 1.561650e+02 -3.587236e+02
    endloop
  endfacet
  facet normal -8.660254e-01 5.000000e-01 8.617599e-14
    outer loop
      vertex   -5.398794e+02 1.561650e+02 -3.587236e+02
      vertex   -5.390697e+02 1.575674e+02 -3.574455e+02
      vertex   -5.387243e+02 1.581656e+02 -3.574842e+02
    endloop
  endfacet
  facet normal -8.660254e-01 5.000000e-01 7.024125e-14
    outer loop
      vertex   -5.398794e+02 1.561650e+02 -3.587236e+02
      vertex   -5.387243e+02 1.581656e+02 -3.574842e+02
      vertex   -5.396610e+02 1.565433e+02 -3.590096e+02
    endloop
  endfacet
  facet normal -8.660254e-01 5.000000e-01 1.560691e-13
    outer loop
      vertex   -5.396610e+02 1.565433e+02 -3.590096e+02
      vertex   -5.387243e+02 1.581656e+02 -3.574842e+02
      vertex   -5.383857e+02 1.587521e+02 -3.573429e+02
    endloop
  endfacet
  facet normal -8.660254e-01 5.000000e-01 5.163441e-14
    outer loop
      vertex   -5.396610e+02 1.565433e+02 -3.590096e+02
      vertex   -5.383857e+02 1.587521e+02 -3.573429e+02
      vertex   -5.394130e+02 1.569728e+02 -3.591728e+02
    endloop
  endfacet
  facet normal -8.660254e-01 5.000000e-01 -1.043298e-13
    outer loop
      vertex   -5.394130e+02 1.569728e+02 -3.591728e+02
      vertex   -5.383857e+02 1.587521e+02 -3.573429e+02
      vertex   -5.380770e+02 1.592869e+02 -3.570311e+02
    endloop
  endfacet
  facet normal -8.660254e-01 5.000000e-01 -3.512996e-14
    outer loop
      vertex   -5.394130e+02 1.569728e+02 -3.591728e+02
      vertex   -5.380770e+02 1.592869e+02 -3.570311e+02
      vertex   -5.391524e+02 1.574242e+02 -3.592021e+02
    endloop
  endfacet
  facet normal -8.660254e-01 5.000000e-01 -4.662317e-14
    outer loop
      vertex   -5.391524e+02 1.574242e+02 -3.592021e+02
      vertex   -5.380770e+02 1.592869e+02 -3.570311e+02
      vertex   -5.386638e+02 1.582705e+02 -3.588601e+02
    endloop
  endfacet
  facet normal -8.660254e-01 5.000000e-01 6.231518e-13
    outer loop
      vertex   -5.391524e+02 1.574242e+02 -3.592021e+02
      vertex   -5.386638e+02 1.582705e+02 -3.588601e+02
      vertex   -5.388968e+02 1.578669e+02 -3.590954e+02
    endloop
  endfacet
  facet normal -8.660254e-01 5.000000e-01 2.477605e-13
    outer loop
      vertex   -5.380770e+02 1.592869e+02 -3.570311e+02
      vertex   -5.378191e+02 1.597336e+02 -3.565702e+02
      vertex   -5.386638e+02 1.582705e+02 -3.588601e+02
    endloop
  endfacet
  facet normal -8.660254e-01 5.000000e-01 -3.165552e-14
    outer loop
      vertex   -5.386638e+02 1.582705e+02 -3.588601e+02
      vertex   -5.378191e+02 1.597336e+02 -3.565702e+02
      vertex   -5.328390e+02 1.683594e+02 -3.497791e+02
    endloop
  endfacet
  facet normal -8.660254e-01 5.000000e-01 1.734479e-14
    outer loop
      vertex   -5.386638e+02 1.582705e+02 -3.588601e+02
      vertex   -5.328390e+02 1.683594e+02 -3.497791e+02
      vertex   -5.314645e+02 1.707399e+02 -3.490430e+02
    endloop
  endfacet
  facet normal -8.660254e-01 5.000000e-01 3.454300e-13
    outer loop
      vertex   -5.314645e+02 1.707399e+02 -3.490430e+02
      vertex   -5.328390e+02 1.683594e+02 -3.497791e+02
      vertex   -5.325302e+02 1.688942e+02 -3.494674e+02
    endloop
  endfacet
  facet normal -8.660254e-01 5.000000e-01 -1.126326e-13
    outer loop
      vertex   -5.314645e+02 1.707399e+02 -3.490430e+02
      vertex   -5.325302e+02 1.688942e+02 -3.494674e+02
      vertex   -5.311269e+02 1.713247e+02 -3.482583e+02
    endloop
  endfacet
  facet normal -8.660254e-01 5.000000e-01 1.442141e-13
    outer loop
      vertex   -5.311269e+02 1.713247e+02 -3.482583e+02
      vertex   -5.325302e+02 1.688942e+02 -3.494674e+02
      vertex   -5.310453e+02 1.714661e+02 -3.477623e+02
    endloop
  endfacet
  facet normal -8.660254e-01 5.000000e-01 -4.681231e-13
    outer loop
      vertex   -5.310453e+02 1.714661e+02 -3.477623e+02
      vertex   -5.325302e+02 1.688942e+02 -3.494674e+02
      vertex   -5.322723e+02 1.693409e+02 -3.490064e+02
    endloop
  endfacet
  facet normal -8.660254e-01 5.000000e-01 -1.041231e-13
    outer loop
      vertex   -5.310453e+02 1.714661e+02 -3.477623e+02
      vertex   -5.322723e+02 1.693409e+02 -3.490064e+02
      vertex   -5.310307e+02 1.714914e+02 -3.472410e+02
    endloop
  endfacet
  facet normal -8.660254e-01 5.000000e-01 -8.554898e-14
    outer loop
      vertex   -5.310307e+02 1.714914e+02 -3.472410e+02
      vertex   -5.322723e+02 1.693409e+02 -3.490064e+02
      vertex   -5.320828e+02 1.696691e+02 -3.484276e+02
    endloop
  endfacet
  facet normal -8.660254e-01 5.000000e-01 1.213867e-13
    outer loop
      vertex   -5.310307e+02 1.714914e+02 -3.472410e+02
      vertex   -5.320828e+02 1.696691e+02 -3.484276e+02
      vertex   -5.310840e+02 1.713990e+02 -3.467299e+02
    endloop
  endfacet
  facet normal -8.660254e-01 5.000000e-01 2.026427e-13
    outer loop
      vertex   -5.310840e+02 1.713990e+02 -3.467299e+02
      vertex   -5.320828e+02 1.696691e+02 -3.484276e+02
      vertex   -5.319747e+02 1.698563e+02 -3.477705e+02
    endloop
  endfacet
  facet normal -8.660254e-01 5.000000e-01 -3.911203e-14
    outer loop
      vertex   -5.310840e+02 1.713990e+02 -3.467299e+02
      vertex   -5.319747e+02 1.698563e+02 -3.477705e+02
      vertex   -5.312017e+02 1.711953e+02 -3.462639e+02
    endloop
  endfacet
  facet normal -8.660254e-01 5.000000e-01 -4.157246e-14
    outer loop
      vertex   -5.312017e+02 1.711953e+02 -3.462639e+02
      vertex   -5.319747e+02 1.698563e+02 -3.477705e+02
      vertex   -5.319553e+02 1.698899e+02 -3.470798e+02
    endloop
  endfacet
  facet normal -8.660254e-01 5.000000e-01 -1.661329e-14
    outer loop
      vertex   -5.312017e+02 1.711953e+02 -3.462639e+02
      vertex   -5.319553e+02 1.698899e+02 -3.470798e+02
      vertex   -5.320260e+02 1.697675e+02 -3.464026e+02
    endloop
  endfacet
  facet normal -8.660254e-01 5.000000e-01 -1.129915e-13
    outer loop
      vertex   -5.328390e+02 1.683594e+02 -3.497791e+02
      vertex   -5.378191e+02 1.597336e+02 -3.565702e+02
      vertex   -5.331776e+02 1.677729e+02 -3.499204e+02
    endloop
  endfacet
  facet normal -8.660254e-01 5.000000e-01 -1.220353e-13
    outer loop
      vertex   -5.331776e+02 1.677729e+02 -3.499204e+02
      vertex   -5.378191e+02 1.597336e+02 -3.565702e+02
      vertex   -5.376296e+02 1.600618e+02 -3.559914e+02
    endloop
  endfacet
  facet normal -8.660254e-01 5.000000e-01 3.503039e-14
    outer loop
      vertex   -5.331776e+02 1.677729e+02 -3.499204e+02
      vertex   -5.376296e+02 1.600618e+02 -3.559914e+02
      vertex   -5.335229e+02 1.671747e+02 -3.498817e+02
    endloop
  endfacet
  facet normal -8.660254e-01 5.000000e-01 1.995910e-13
    outer loop
      vertex   -5.335229e+02 1.671747e+02 -3.498817e+02
      vertex   -5.376296e+02 1.600618e+02 -3.559914e+02
      vertex   -5.375215e+02 1.602490e+02 -3.553343e+02
    endloop
  endfacet
  facet normal -8.660254e-01 5.000000e-01 -4.121383e-14
    outer loop
      vertex   -5.335229e+02 1.671747e+02 -3.498817e+02
      vertex   -5.375215e+02 1.602490e+02 -3.553343e+02
      vertex   -5.338515e+02 1.666056e+02 -3.496655e+02
    endloop
  endfacet
  facet normal -8.660254e-01 5.000000e-01 -8.643836e-14
    outer loop
      vertex   -5.338515e+02 1.666056e+02 -3.496655e+02
      vertex   -5.375215e+02 1.602490e+02 -3.553343e+02
      vertex   -5.375021e+02 1.602826e+02 -3.546436e+02
    endloop
  endfacet
  facet normal -8.660254e-01 5.000000e-01 1.234484e-14
    outer loop
      vertex   -5.338515e+02 1.666056e+02 -3.496655e+02
      vertex   -5.375021e+02 1.602826e+02 -3.546436e+02
      vertex   -5.341409e+02 1.661044e+02 -3.492865e+02
    endloop
  endfacet
  facet normal -8.660254e-01 5.000000e-01 9.635449e-14
    outer loop
      vertex   -5.341409e+02 1.661044e+02 -3.492865e+02
      vertex   -5.375021e+02 1.602826e+02 -3.546436e+02
      vertex   -5.375727e+02 1.601602e+02 -3.539664e+02
    endloop
  endfacet
  facet normal -8.660254e-01 5.000000e-01 -6.691239e-14
    outer loop
      vertex   -5.341409e+02 1.661044e+02 -3.492865e+02
      vertex   -5.375727e+02 1.601602e+02 -3.539664e+02
      vertex   -5.343714e+02 1.657052e+02 -3.487707e+02
    endloop
  endfacet
  facet normal -8.660254e-01 5.000000e-01 -2.925595e-13
    outer loop
      vertex   -5.343714e+02 1.657052e+02 -3.487707e+02
      vertex   -5.375727e+02 1.601602e+02 -3.539664e+02
      vertex   -5.377286e+02 1.598902e+02 -3.533488e+02
    endloop
  endfacet
  facet normal -8.660254e-01 5.000000e-01 -1.109114e-15
    outer loop
      vertex   -5.321819e+02 1.694975e+02 -3.457850e+02
      vertex   -5.316242e+02 1.704635e+02 -3.450245e+02
      vertex   -5.320260e+02 1.697675e+02 -3.464026e+02
    endloop
  endfacet
  facet normal -8.660254e-01 5.000000e-01 8.736067e-16
    outer loop
      vertex   -5.320260e+02 1.697675e+02 -3.464026e+02
      vertex   -5.316242e+02 1.704635e+02 -3.450245e+02
      vertex   -5.312017e+02 1.711953e+02 -3.462639e+02
    endloop
  endfacet
  facet normal -8.660254e-01 5.000000e-01 4.288103e-14
    outer loop
      vertex   -5.311269e+02 1.713247e+02 -3.482583e+02
      vertex   -5.312699e+02 1.710771e+02 -3.486951e+02
      vertex   -5.314645e+02 1.707399e+02 -3.490430e+02
    endloop
  endfacet
  facet normal 8.660254e-01 -5.000000e-01 6.580995e-14
    outer loop
      vertex   -5.283092e+02 1.622052e+02 -3.487707e+02
      vertex   -5.316665e+02 1.563902e+02 -3.533488e+02
      vertex   -5.280787e+02 1.626044e+02 -3.492865e+02
    endloop
  endfacet
  facet normal 8.660254e-01 -5.000000e-01 6.547048e-14
    outer loop
      vertex   -5.280787e+02 1.626044e+02 -3.492865e+02
      vertex   -5.316665e+02 1.563902e+02 -3.533488e+02
      vertex   -5.315106e+02 1.566602e+02 -3.539664e+02
    endloop
  endfacet
  facet normal 8.660254e-01 -5.000000e-01 -6.691284e-15
    outer loop
      vertex   -5.280787e+02 1.626044e+02 -3.492865e+02
      vertex   -5.315106e+02 1.566602e+02 -3.539664e+02
      vertex   -5.277893e+02 1.631056e+02 -3.496655e+02
    endloop
  endfacet
  facet normal 8.660254e-01 -5.000000e-01 -7.925859e-14
    outer loop
      vertex   -5.277893e+02 1.631056e+02 -3.496655e+02
      vertex   -5.315106e+02 1.566602e+02 -3.539664e+02
      vertex   -5.314399e+02 1.567826e+02 -3.546436e+02
    endloop
  endfacet
  facet normal 8.660254e-01 -5.000000e-01 1.854213e-13
    outer loop
      vertex   -5.277893e+02 1.631056e+02 -3.496655e+02
      vertex   -5.314399e+02 1.567826e+02 -3.546436e+02
      vertex   -5.274607e+02 1.636747e+02 -3.498817e+02
    endloop
  endfacet
  facet normal 8.660254e-01 -5.000000e-01 8.694194e-14
    outer loop
      vertex   -5.274607e+02 1.636747e+02 -3.498817e+02
      vertex   -5.314399e+02 1.567826e+02 -3.546436e+02
      vertex   -5.314593e+02 1.567490e+02 -3.553343e+02
    endloop
  endfacet
  facet normal 8.660254e-01 -5.000000e-01 -3.780463e-14
    outer loop
      vertex   -5.274607e+02 1.636747e+02 -3.498817e+02
      vertex   -5.314593e+02 1.567490e+02 -3.553343e+02
      vertex   -5.271154e+02 1.642729e+02 -3.499204e+02
    endloop
  endfacet
  facet normal 8.660254e-01 -5.000000e-01 2.504967e-14
    outer loop
      vertex   -5.271154e+02 1.642729e+02 -3.499204e+02
      vertex   -5.314593e+02 1.567490e+02 -3.553343e+02
      vertex   -5.315674e+02 1.565618e+02 -3.559914e+02
    endloop
  endfacet
  facet normal 8.660254e-01 -5.000000e-01 -1.913028e-13
    outer loop
      vertex   -5.271154e+02 1.642729e+02 -3.499204e+02
      vertex   -5.315674e+02 1.565618e+02 -3.559914e+02
      vertex   -5.267768e+02 1.648594e+02 -3.497791e+02
    endloop
  endfacet
  facet normal 8.660254e-01 -5.000000e-01 6.456656e-14
    outer loop
      vertex   -5.267768e+02 1.648594e+02 -3.497791e+02
      vertex   -5.315674e+02 1.565618e+02 -3.559914e+02
      vertex   -5.317569e+02 1.562336e+02 -3.565702e+02
    endloop
  endfacet
  facet normal 8.660254e-01 -5.000000e-01 4.387893e-14
    outer loop
      vertex   -5.267768e+02 1.648594e+02 -3.497791e+02
      vertex   -5.317569e+02 1.562336e+02 -3.565702e+02
      vertex   -5.254024e+02 1.672399e+02 -3.490430e+02
    endloop
  endfacet
  facet normal 8.660254e-01 -5.000000e-01 8.498948e-14
    outer loop
      vertex   -5.254024e+02 1.672399e+02 -3.490430e+02
      vertex   -5.317569e+02 1.562336e+02 -3.565702e+02
      vertex   -5.326016e+02 1.547705e+02 -3.588601e+02
    endloop
  endfacet
  facet normal 8.660254e-01 -5.000000e-01 2.141004e-13
    outer loop
      vertex   -5.326016e+02 1.547705e+02 -3.588601e+02
      vertex   -5.317569e+02 1.562336e+02 -3.565702e+02
      vertex   -5.320148e+02 1.557869e+02 -3.570311e+02
    endloop
  endfacet
  facet normal 8.660254e-01 -5.000000e-01 2.488171e-13
    outer loop
      vertex   -5.326016e+02 1.547705e+02 -3.588601e+02
      vertex   -5.320148e+02 1.557869e+02 -3.570311e+02
      vertex   -5.330902e+02 1.539242e+02 -3.592021e+02
    endloop
  endfacet
  facet normal 8.660254e-01 -5.000000e-01 -8.591971e-14
    outer loop
      vertex   -5.330902e+02 1.539242e+02 -3.592021e+02
      vertex   -5.320148e+02 1.557869e+02 -3.570311e+02
      vertex   -5.333508e+02 1.534728e+02 -3.591728e+02
    endloop
  endfacet
  facet normal 8.660254e-01 -5.000000e-01 3.764944e-13
    outer loop
      vertex   -5.333508e+02 1.534728e+02 -3.591728e+02
      vertex   -5.320148e+02 1.557869e+02 -3.570311e+02
      vertex   -5.323236e+02 1.552521e+02 -3.573429e+02
    endloop
  endfacet
  facet normal 8.660254e-01 -5.000000e-01 1.567792e-14
    outer loop
      vertex   -5.333508e+02 1.534728e+02 -3.591728e+02
      vertex   -5.323236e+02 1.552521e+02 -3.573429e+02
      vertex   -5.335988e+02 1.530433e+02 -3.590096e+02
    endloop
  endfacet
  facet normal 8.660254e-01 -5.000000e-01 -5.433516e-14
    outer loop
      vertex   -5.335988e+02 1.530433e+02 -3.590096e+02
      vertex   -5.323236e+02 1.552521e+02 -3.573429e+02
      vertex   -5.326622e+02 1.546656e+02 -3.574842e+02
    endloop
  endfacet
  facet normal 8.660254e-01 -5.000000e-01 -1.417756e-14
    outer loop
      vertex   -5.335988e+02 1.530433e+02 -3.590096e+02
      vertex   -5.326622e+02 1.546656e+02 -3.574842e+02
      vertex   -5.338172e+02 1.526650e+02 -3.587236e+02
    endloop
  endfacet
  facet normal 8.660254e-01 -5.000000e-01 6.152073e-14
    outer loop
      vertex   -5.338172e+02 1.526650e+02 -3.587236e+02
      vertex   -5.326622e+02 1.546656e+02 -3.574842e+02
      vertex   -5.330075e+02 1.540674e+02 -3.574455e+02
    endloop
  endfacet
  facet normal 8.660254e-01 -5.000000e-01 4.520473e-14
    outer loop
      vertex   -5.338172e+02 1.526650e+02 -3.587236e+02
      vertex   -5.330075e+02 1.540674e+02 -3.574455e+02
      vertex   -5.339912e+02 1.523637e+02 -3.583343e+02
    endloop
  endfacet
  facet normal 8.660254e-01 -5.000000e-01 1.231777e-13
    outer loop
      vertex   -5.339912e+02 1.523637e+02 -3.583343e+02
      vertex   -5.330075e+02 1.540674e+02 -3.574455e+02
      vertex   -5.333361e+02 1.534983e+02 -3.572292e+02
    endloop
  endfacet
  facet normal 8.660254e-01 -5.000000e-01 3.127208e-14
    outer loop
      vertex   -5.339912e+02 1.523637e+02 -3.583343e+02
      vertex   -5.333361e+02 1.534983e+02 -3.572292e+02
      vertex   -5.336255e+02 1.529971e+02 -3.568503e+02
    endloop
  endfacet
  facet normal 8.660254e-01 -5.000000e-01 -2.607916e-15
    outer loop
      vertex   -5.338560e+02 1.525979e+02 -3.563345e+02
      vertex   -5.344137e+02 1.516319e+02 -3.570950e+02
      vertex   -5.336255e+02 1.529971e+02 -3.568503e+02
    endloop
  endfacet
  facet normal 8.660254e-01 -5.000000e-01 6.516078e-14
    outer loop
      vertex   -5.336255e+02 1.529971e+02 -3.568503e+02
      vertex   -5.344137e+02 1.516319e+02 -3.570950e+02
      vertex   -5.339912e+02 1.523637e+02 -3.583343e+02
    endloop
  endfacet
  facet normal 8.660254e-01 -5.000000e-01 2.714487e-14
    outer loop
      vertex   -5.330902e+02 1.539242e+02 -3.592021e+02
      vertex   -5.328346e+02 1.543669e+02 -3.590954e+02
      vertex   -5.326016e+02 1.547705e+02 -3.588601e+02
    endloop
  endfacet
  facet normal 8.660254e-01 -5.000000e-01 6.730158e-13
    outer loop
      vertex   -5.252077e+02 1.675771e+02 -3.486951e+02
      vertex   -5.250647e+02 1.678247e+02 -3.482583e+02
      vertex   -5.254024e+02 1.672399e+02 -3.490430e+02
    endloop
  endfacet
  facet normal 8.660254e-01 -5.000000e-01 2.257459e-13
    outer loop
      vertex   -5.254024e+02 1.672399e+02 -3.490430e+02
      vertex   -5.250647e+02 1.678247e+02 -3.482583e+02
      vertex   -5.264680e+02 1.653942e+02 -3.494674e+02
    endloop
  endfacet
  facet normal 8.660254e-01 -5.000000e-01 -2.604520e-13
    outer loop
      vertex   -5.254024e+02 1.672399e+02 -3.490430e+02
      vertex   -5.264680e+02 1.653942e+02 -3.494674e+02
      vertex   -5.267768e+02 1.648594e+02 -3.497791e+02
    endloop
  endfacet
  facet normal 8.660254e-01 -5.000000e-01 -1.442141e-13
    outer loop
      vertex   -5.250647e+02 1.678247e+02 -3.482583e+02
      vertex   -5.249831e+02 1.679661e+02 -3.477623e+02
      vertex   -5.264680e+02 1.653942e+02 -3.494674e+02
    endloop
  endfacet
  facet normal 8.660254e-01 -5.000000e-01 4.309273e-14
    outer loop
      vertex   -5.264680e+02 1.653942e+02 -3.494674e+02
      vertex   -5.249831e+02 1.679661e+02 -3.477623e+02
      vertex   -5.262101e+02 1.658409e+02 -3.490064e+02
    endloop
  endfacet
  facet normal 8.660254e-01 -5.000000e-01 -9.183420e-14
    outer loop
      vertex   -5.262101e+02 1.658409e+02 -3.490064e+02
      vertex   -5.249831e+02 1.679661e+02 -3.477623e+02
      vertex   -5.249685e+02 1.679914e+02 -3.472410e+02
    endloop
  endfacet
  facet normal 8.660254e-01 -5.000000e-01 9.978306e-14
    outer loop
      vertex   -5.262101e+02 1.658409e+02 -3.490064e+02
      vertex   -5.249685e+02 1.679914e+02 -3.472410e+02
      vertex   -5.260206e+02 1.661691e+02 -3.484276e+02
    endloop
  endfacet
  facet normal 8.660254e-01 -5.000000e-01 4.839765e-14
    outer loop
      vertex   -5.260206e+02 1.661691e+02 -3.484276e+02
      vertex   -5.249685e+02 1.679914e+02 -3.472410e+02
      vertex   -5.250218e+02 1.678990e+02 -3.467299e+02
    endloop
  endfacet
  facet normal 8.660254e-01 -5.000000e-01 -7.076645e-14
    outer loop
      vertex   -5.260206e+02 1.661691e+02 -3.484276e+02
      vertex   -5.250218e+02 1.678990e+02 -3.467299e+02
      vertex   -5.259125e+02 1.663563e+02 -3.477705e+02
    endloop
  endfacet
  facet normal 8.660254e-01 -5.000000e-01 -7.703651e-14
    outer loop
      vertex   -5.259125e+02 1.663563e+02 -3.477705e+02
      vertex   -5.250218e+02 1.678990e+02 -3.467299e+02
      vertex   -5.251395e+02 1.676953e+02 -3.462639e+02
    endloop
  endfacet
  facet normal 8.660254e-01 -5.000000e-01 4.411575e-14
    outer loop
      vertex   -5.259125e+02 1.663563e+02 -3.477705e+02
      vertex   -5.251395e+02 1.676953e+02 -3.462639e+02
      vertex   -5.258931e+02 1.663899e+02 -3.470798e+02
    endloop
  endfacet
  facet normal 8.660254e-01 -5.000000e-01 7.915746e-15
    outer loop
      vertex   -5.258931e+02 1.663899e+02 -3.470798e+02
      vertex   -5.251395e+02 1.676953e+02 -3.462639e+02
      vertex   -5.259638e+02 1.662675e+02 -3.464026e+02
    endloop
  endfacet
  facet normal 8.660254e-01 -5.000000e-01 2.518043e-14
    outer loop
      vertex   -5.259638e+02 1.662675e+02 -3.464026e+02
      vertex   -5.251395e+02 1.676953e+02 -3.462639e+02
      vertex   -5.255620e+02 1.669635e+02 -3.450245e+02
    endloop
  endfacet
  facet normal 8.660254e-01 -5.000000e-01 1.094126e-15
    outer loop
      vertex   -5.259638e+02 1.662675e+02 -3.464026e+02
      vertex   -5.255620e+02 1.669635e+02 -3.450245e+02
      vertex   -5.261197e+02 1.659975e+02 -3.457850e+02
    endloop
  endfacet
  facet normal -2.816684e-01 -4.878640e-01 8.262273e-01
    outer loop
      vertex   -5.321819e+02 1.694975e+02 -3.457850e+02
      vertex   -5.261197e+02 1.659975e+02 -3.457850e+02
      vertex   -5.316242e+02 1.704635e+02 -3.450245e+02
    endloop
  endfacet
  facet normal -2.816684e-01 -4.878640e-01 8.262273e-01
    outer loop
      vertex   -5.316242e+02 1.704635e+02 -3.450245e+02
      vertex   -5.261197e+02 1.659975e+02 -3.457850e+02
      vertex   -5.255620e+02 1.669635e+02 -3.450245e+02
    endloop
  endfacet
  facet normal 3.331809e-01 5.770862e-01 -7.456286e-01
    outer loop
      vertex   -5.254024e+02 1.672399e+02 -3.490430e+02
      vertex   -5.314645e+02 1.707399e+02 -3.490430e+02
      vertex   -5.252077e+02 1.675771e+02 -3.486951e+02
    endloop
  endfacet
  facet normal 3.331809e-01 5.770862e-01 -7.456286e-01
    outer loop
      vertex   -5.252077e+02 1.675771e+02 -3.486951e+02
      vertex   -5.314645e+02 1.707399e+02 -3.490430e+02
      vertex   -5.312699e+02 1.710771e+02 -3.486951e+02
    endloop
  endfacet
  facet normal 4.183194e-01 7.245505e-01 -5.477549e-01
    outer loop
      vertex   -5.252077e+02 1.675771e+02 -3.486951e+02
      vertex   -5.312699e+02 1.710771e+02 -3.486951e+02
      vertex   -5.250647e+02 1.678247e+02 -3.482583e+02
    endloop
  endfacet
  facet normal 4.183194e-01 7.245505e-01 -5.477549e-01
    outer loop
      vertex   -5.250647e+02 1.678247e+02 -3.482583e+02
      vertex   -5.312699e+02 1.710771e+02 -3.486951e+02
      vertex   -5.311269e+02 1.713247e+02 -3.482583e+02
    endloop
  endfacet
  facet normal 4.749502e-01 8.226380e-01 -3.125525e-01
    outer loop
      vertex   -5.250647e+02 1.678247e+02 -3.482583e+02
      vertex   -5.311269e+02 1.713247e+02 -3.482583e+02
      vertex   -5.249831e+02 1.679661e+02 -3.477623e+02
    endloop
  endfacet
  facet normal 4.749502e-01 8.226380e-01 -3.125525e-01
    outer loop
      vertex   -5.249831e+02 1.679661e+02 -3.477623e+02
      vertex   -5.311269e+02 1.713247e+02 -3.482583e+02
      vertex   -5.310453e+02 1.714661e+02 -3.477623e+02
    endloop
  endfacet
  facet normal 4.992140e-01 8.646640e-01 -5.605019e-02
    outer loop
      vertex   -5.249831e+02 1.679661e+02 -3.477623e+02
      vertex   -5.310453e+02 1.714661e+02 -3.477623e+02
      vertex   -5.249685e+02 1.679914e+02 -3.472410e+02
    endloop
  endfacet
  facet normal 4.992140e-01 8.646640e-01 -5.605019e-02
    outer loop
      vertex   -5.249685e+02 1.679914e+02 -3.472410e+02
      vertex   -5.310453e+02 1.714661e+02 -3.477623e+02
      vertex   -5.310307e+02 1.714914e+02 -3.472410e+02
    endloop
  endfacet
  facet normal 4.894571e-01 8.477646e-01 2.042718e-01
    outer loop
      vertex   -5.249685e+02 1.679914e+02 -3.472410e+02
      vertex   -5.310307e+02 1.714914e+02 -3.472410e+02
      vertex   -5.250218e+02 1.678990e+02 -3.467299e+02
    endloop
  endfacet
  facet normal 4.894571e-01 8.477646e-01 2.042718e-01
    outer loop
      vertex   -5.250218e+02 1.678990e+02 -3.467299e+02
      vertex   -5.310307e+02 1.714914e+02 -3.472410e+02
      vertex   -5.310840e+02 1.713990e+02 -3.467299e+02
    endloop
  endfacet
  facet normal 4.463445e-01 7.730914e-01 4.506731e-01
    outer loop
      vertex   -5.250218e+02 1.678990e+02 -3.467299e+02
      vertex   -5.310840e+02 1.713990e+02 -3.467299e+02
      vertex   -5.251395e+02 1.676953e+02 -3.462639e+02
    endloop
  endfacet
  facet normal 4.463445e-01 7.730914e-01 4.506731e-01
    outer loop
      vertex   -5.251395e+02 1.676953e+02 -3.462639e+02
      vertex   -5.310840e+02 1.713990e+02 -3.467299e+02
      vertex   -5.312017e+02 1.711953e+02 -3.462639e+02
    endloop
  endfacet
  facet normal 2.816684e-01 4.878640e-01 -8.262273e-01
    outer loop
      vertex   -5.254024e+02 1.672399e+02 -3.490430e+02
      vertex   -5.326016e+02 1.547705e+02 -3.588601e+02
      vertex   -5.314645e+02 1.707399e+02 -3.490430e+02
    endloop
  endfacet
  facet normal 2.816684e-01 4.878640e-01 -8.262273e-01
    outer loop
      vertex   -5.314645e+02 1.707399e+02 -3.490430e+02
      vertex   -5.326016e+02 1.547705e+02 -3.588601e+02
      vertex   -5.386638e+02 1.582705e+02 -3.588601e+02
    endloop
  endfacet
  facet normal 2.253365e-01 3.902943e-01 -8.926891e-01
    outer loop
      vertex   -5.386638e+02 1.582705e+02 -3.588601e+02
      vertex   -5.326016e+02 1.547705e+02 -3.588601e+02
      vertex   -5.388968e+02 1.578669e+02 -3.590954e+02
    endloop
  endfacet
  facet normal 2.253365e-01 3.902943e-01 -8.926891e-01
    outer loop
      vertex   -5.388968e+02 1.578669e+02 -3.590954e+02
      vertex   -5.326016e+02 1.547705e+02 -3.588601e+02
      vertex   -5.328346e+02 1.543669e+02 -3.590954e+02
    endloop
  endfacet
  facet normal 1.021359e-01 1.769046e-01 -9.789142e-01
    outer loop
      vertex   -5.388968e+02 1.578669e+02 -3.590954e+02
      vertex   -5.328346e+02 1.543669e+02 -3.590954e+02
      vertex   -5.391524e+02 1.574242e+02 -3.592021e+02
    endloop
  endfacet
  facet normal 1.021359e-01 1.769046e-01 -9.789142e-01
    outer loop
      vertex   -5.391524e+02 1.574242e+02 -3.592021e+02
      vertex   -5.328346e+02 1.543669e+02 -3.590954e+02
      vertex   -5.330902e+02 1.539242e+02 -3.592021e+02
    endloop
  endfacet
  facet normal -2.802509e-02 -4.854089e-02 -9.984280e-01
    outer loop
      vertex   -5.391524e+02 1.574242e+02 -3.592021e+02
      vertex   -5.330902e+02 1.539242e+02 -3.592021e+02
      vertex   -5.394130e+02 1.569728e+02 -3.591728e+02
    endloop
  endfacet
  facet normal -2.802509e-02 -4.854089e-02 -9.984280e-01
    outer loop
      vertex   -5.394130e+02 1.569728e+02 -3.591728e+02
      vertex   -5.330902e+02 1.539242e+02 -3.592021e+02
      vertex   -5.333508e+02 1.534728e+02 -3.591728e+02
    endloop
  endfacet
  facet normal -1.562762e-01 -2.706784e-01 -9.499005e-01
    outer loop
      vertex   -5.394130e+02 1.569728e+02 -3.591728e+02
      vertex   -5.333508e+02 1.534728e+02 -3.591728e+02
      vertex   -5.396610e+02 1.565433e+02 -3.590096e+02
    endloop
  endfacet
  facet normal -1.562762e-01 -2.706784e-01 -9.499005e-01
    outer loop
      vertex   -5.396610e+02 1.565433e+02 -3.590096e+02
      vertex   -5.333508e+02 1.534728e+02 -3.591728e+02
      vertex   -5.335988e+02 1.530433e+02 -3.590096e+02
    endloop
  endfacet
  facet normal -2.738774e-01 -4.743696e-01 -8.366389e-01
    outer loop
      vertex   -5.396610e+02 1.565433e+02 -3.590096e+02
      vertex   -5.335988e+02 1.530433e+02 -3.590096e+02
      vertex   -5.398794e+02 1.561650e+02 -3.587236e+02
    endloop
  endfacet
  facet normal -2.738774e-01 -4.743696e-01 -8.366389e-01
    outer loop
      vertex   -5.398794e+02 1.561650e+02 -3.587236e+02
      vertex   -5.335988e+02 1.530433e+02 -3.590096e+02
      vertex   -5.338172e+02 1.526650e+02 -3.587236e+02
    endloop
  endfacet
  facet normal -3.728143e-01 -6.457333e-01 -6.663617e-01
    outer loop
      vertex   -5.398794e+02 1.561650e+02 -3.587236e+02
      vertex   -5.338172e+02 1.526650e+02 -3.587236e+02
      vertex   -5.400533e+02 1.558637e+02 -3.583343e+02
    endloop
  endfacet
  facet normal -3.728143e-01 -6.457333e-01 -6.663617e-01
    outer loop
      vertex   -5.400533e+02 1.558637e+02 -3.583343e+02
      vertex   -5.338172e+02 1.526650e+02 -3.587236e+02
      vertex   -5.339912e+02 1.523637e+02 -3.583343e+02
    endloop
  endfacet
  facet normal 4.131137e-01 7.155339e-01 5.633368e-01
    outer loop
      vertex   -5.251395e+02 1.676953e+02 -3.462639e+02
      vertex   -5.312017e+02 1.711953e+02 -3.462639e+02
      vertex   -5.255620e+02 1.669635e+02 -3.450245e+02
    endloop
  endfacet
  facet normal 4.131137e-01 7.155339e-01 5.633368e-01
    outer loop
      vertex   -5.255620e+02 1.669635e+02 -3.450245e+02
      vertex   -5.312017e+02 1.711953e+02 -3.462639e+02
      vertex   -5.316242e+02 1.704635e+02 -3.450245e+02
    endloop
  endfacet
  facet normal -4.131137e-01 -7.155339e-01 -5.633368e-01
    outer loop
      vertex   -5.400533e+02 1.558637e+02 -3.583343e+02
      vertex   -5.339912e+02 1.523637e+02 -3.583343e+02
      vertex   -5.404758e+02 1.551319e+02 -3.570950e+02
    endloop
  endfacet
  facet normal -4.131137e-01 -7.155339e-01 -5.633368e-01
    outer loop
      vertex   -5.404758e+02 1.551319e+02 -3.570950e+02
      vertex   -5.339912e+02 1.523637e+02 -3.583343e+02
      vertex   -5.344137e+02 1.516319e+02 -3.570950e+02
    endloop
  endfacet
  facet normal -2.816684e-01 -4.878640e-01 8.262273e-01
    outer loop
      vertex   -5.377286e+02 1.598902e+02 -3.533488e+02
      vertex   -5.316665e+02 1.563902e+02 -3.533488e+02
      vertex   -5.343714e+02 1.657052e+02 -3.487707e+02
    endloop
  endfacet
  facet normal -2.816684e-01 -4.878640e-01 8.262273e-01
    outer loop
      vertex   -5.343714e+02 1.657052e+02 -3.487707e+02
      vertex   -5.316665e+02 1.563902e+02 -3.533488e+02
      vertex   -5.283092e+02 1.622052e+02 -3.487707e+02
    endloop
  endfacet
endsolid
