solid ASCII
  facet normal 4.772660e-01 8.275966e-01 2.954674e-01
    outer loop
      vertex   -6.622202e+02 1.333521e+02 -3.599456e+02
      vertex   -6.622285e+02 1.333568e+02 -3.599456e+02
      vertex   -6.561944e+02 1.298081e+02 -3.597525e+02
    endloop
  endfacet
  facet normal 4.803289e-01 8.318557e-01 2.780292e-01
    outer loop
      vertex   -6.561944e+02 1.298081e+02 -3.597525e+02
      vertex   -6.622285e+02 1.333568e+02 -3.599456e+02
      vertex   -6.622700e+02 1.332850e+02 -3.596589e+02
    endloop
  endfacet
  facet normal 4.915600e-01 8.544377e-01 1.682409e-01
    outer loop
      vertex   -6.561944e+02 1.298081e+02 -3.597525e+02
      vertex   -6.622700e+02 1.332850e+02 -3.596589e+02
      vertex   -6.622951e+02 1.332415e+02 -3.593647e+02
    endloop
  endfacet
  facet normal 4.987775e-01 8.648984e-01 5.631855e-02
    outer loop
      vertex   -6.623035e+02 1.332269e+02 -3.590667e+02
      vertex   -6.562396e+02 1.297299e+02 -3.590667e+02
      vertex   -6.622951e+02 1.332415e+02 -3.593647e+02
    endloop
  endfacet
  facet normal 4.925428e-01 8.604445e-01 1.305253e-01
    outer loop
      vertex   -6.622951e+02 1.332415e+02 -3.593647e+02
      vertex   -6.562396e+02 1.297299e+02 -3.590667e+02
      vertex   -6.561944e+02 1.298081e+02 -3.597525e+02
    endloop
  endfacet
  facet normal 4.592214e-01 8.016673e-01 3.826816e-01
    outer loop
      vertex   -6.561944e+02 1.298081e+02 -3.597525e+02
      vertex   -6.560621e+02 1.300374e+02 -3.603917e+02
      vertex   -6.622202e+02 1.333521e+02 -3.599456e+02
    endloop
  endfacet
  facet normal 4.485175e-01 7.728722e-01 4.488881e-01
    outer loop
      vertex   -6.622202e+02 1.333521e+02 -3.599456e+02
      vertex   -6.560621e+02 1.300374e+02 -3.603917e+02
      vertex   -6.620691e+02 1.336140e+02 -3.605475e+02
    endloop
  endfacet
  facet normal 3.941471e-01 6.885206e-01 6.087589e-01
    outer loop
      vertex   -6.620691e+02 1.336140e+02 -3.605475e+02
      vertex   -6.560621e+02 1.300374e+02 -3.603917e+02
      vertex   -6.558515e+02 1.304021e+02 -3.609405e+02
    endloop
  endfacet
  facet normal 3.774207e-01 6.499116e-01 6.596731e-01
    outer loop
      vertex   -6.620691e+02 1.336140e+02 -3.605475e+02
      vertex   -6.558515e+02 1.304021e+02 -3.609405e+02
      vertex   -6.618472e+02 1.339989e+02 -3.610537e+02
    endloop
  endfacet
  facet normal 3.020791e-01 5.285292e-01 7.933506e-01
    outer loop
      vertex   -6.618472e+02 1.339989e+02 -3.610537e+02
      vertex   -6.558515e+02 1.304021e+02 -3.609405e+02
      vertex   -6.555771e+02 1.308774e+02 -3.613616e+02
    endloop
  endfacet
  facet normal 2.820521e-01 4.848991e-01 8.278402e-01
    outer loop
      vertex   -6.618472e+02 1.339989e+02 -3.610537e+02
      vertex   -6.555771e+02 1.308774e+02 -3.613616e+02
      vertex   -6.615686e+02 1.344819e+02 -3.614316e+02
    endloop
  endfacet
  facet normal 1.893015e-01 3.325902e-01 9.238770e-01
    outer loop
      vertex   -6.615686e+02 1.344819e+02 -3.614316e+02
      vertex   -6.555771e+02 1.308774e+02 -3.613616e+02
      vertex   -6.552575e+02 1.314309e+02 -3.616264e+02
    endloop
  endfacet
  facet normal 1.685628e-01 2.885013e-01 9.425251e-01
    outer loop
      vertex   -6.615686e+02 1.344819e+02 -3.614316e+02
      vertex   -6.552575e+02 1.314309e+02 -3.616264e+02
      vertex   -6.612514e+02 1.350319e+02 -3.616566e+02
    endloop
  endfacet
  facet normal 6.351105e-02 1.140502e-01 9.914428e-01
    outer loop
      vertex   -6.612514e+02 1.350319e+02 -3.616566e+02
      vertex   -6.552575e+02 1.314309e+02 -3.616264e+02
      vertex   -6.549146e+02 1.320249e+02 -3.617167e+02
    endloop
  endfacet
  facet normal 4.427383e-02 7.341270e-02 9.963184e-01
    outer loop
      vertex   -6.612514e+02 1.350319e+02 -3.616566e+02
      vertex   -6.549146e+02 1.320249e+02 -3.617167e+02
      vertex   -6.609162e+02 1.356132e+02 -3.617144e+02
    endloop
  endfacet
  facet normal -6.670756e-02 -1.122048e-01 9.914435e-01
    outer loop
      vertex   -6.609162e+02 1.356132e+02 -3.617144e+02
      vertex   -6.549146e+02 1.320249e+02 -3.617167e+02
      vertex   -6.545716e+02 1.326189e+02 -3.616264e+02
    endloop
  endfacet
  facet normal -8.279734e-02 -1.464640e-01 9.857448e-01
    outer loop
      vertex   -6.609162e+02 1.356132e+02 -3.617144e+02
      vertex   -6.545716e+02 1.326189e+02 -3.616264e+02
      vertex   -6.605845e+02 1.361884e+02 -3.616011e+02
    endloop
  endfacet
  facet normal -1.924669e-01 -3.307635e-01 9.238788e-01
    outer loop
      vertex   -6.605845e+02 1.361884e+02 -3.616011e+02
      vertex   -6.545716e+02 1.326189e+02 -3.616264e+02
      vertex   -6.542521e+02 1.331724e+02 -3.613616e+02
    endloop
  endfacet
  facet normal -2.044544e-01 -3.569161e-01 9.114874e-01
    outer loop
      vertex   -6.605845e+02 1.361884e+02 -3.616011e+02
      vertex   -6.542521e+02 1.331724e+02 -3.613616e+02
      vertex   -6.602778e+02 1.367202e+02 -3.613240e+02
    endloop
  endfacet
  facet normal -3.051822e-01 -5.267398e-01 7.933530e-01
    outer loop
      vertex   -6.602778e+02 1.367202e+02 -3.613240e+02
      vertex   -6.542521e+02 1.331724e+02 -3.613616e+02
      vertex   -6.539777e+02 1.336477e+02 -3.609405e+02
    endloop
  endfacet
  facet normal -3.128518e-01 -5.443393e-01 7.783435e-01
    outer loop
      vertex   -6.602778e+02 1.367202e+02 -3.613240e+02
      vertex   -6.539777e+02 1.336477e+02 -3.609405e+02
      vertex   -6.600159e+02 1.371744e+02 -3.609011e+02
    endloop
  endfacet
  facet normal -3.971567e-01 -6.867868e-01 6.087614e-01
    outer loop
      vertex   -6.600159e+02 1.371744e+02 -3.609011e+02
      vertex   -6.539777e+02 1.336477e+02 -3.609405e+02
      vertex   -6.537671e+02 1.340124e+02 -3.603917e+02
    endloop
  endfacet
  facet normal -4.010016e-01 -6.966162e-01 5.949147e-01
    outer loop
      vertex   -6.600159e+02 1.371744e+02 -3.609011e+02
      vertex   -6.537671e+02 1.340124e+02 -3.603917e+02
      vertex   -6.598157e+02 1.375215e+02 -3.603597e+02
    endloop
  endfacet
  facet normal -4.621058e-01 -8.000072e-01 3.826835e-01
    outer loop
      vertex   -6.598157e+02 1.375215e+02 -3.603597e+02
      vertex   -6.537671e+02 1.340124e+02 -3.603917e+02
      vertex   -6.536347e+02 1.342417e+02 -3.597525e+02
    endloop
  endfacet
  facet normal -4.632252e-01 -8.038999e-01 3.730515e-01
    outer loop
      vertex   -6.598157e+02 1.375215e+02 -3.603597e+02
      vertex   -6.536347e+02 1.342417e+02 -3.597525e+02
      vertex   -6.596902e+02 1.377392e+02 -3.597348e+02
    endloop
  endfacet
  facet normal -4.955858e-01 -8.586953e-01 1.305262e-01
    outer loop
      vertex   -6.596902e+02 1.377392e+02 -3.597348e+02
      vertex   -6.536347e+02 1.342417e+02 -3.597525e+02
      vertex   -6.535896e+02 1.343199e+02 -3.590667e+02
    endloop
  endfacet
  facet normal -4.955197e-01 -8.592491e-01 1.270873e-01
    outer loop
      vertex   -6.596902e+02 1.377392e+02 -3.597348e+02
      vertex   -6.535896e+02 1.343199e+02 -3.590667e+02
      vertex   -6.596474e+02 1.378133e+02 -3.590667e+02
    endloop
  endfacet
  facet normal 4.955196e-01 8.592490e-01 1.270882e-01
    outer loop
      vertex   -6.551441e+02 1.456222e+02 -3.590667e+02
      vertex   -6.490824e+02 1.421265e+02 -3.590667e+02
      vertex   -6.551013e+02 1.456964e+02 -3.597348e+02
    endloop
  endfacet
  facet normal 4.950074e-01 8.590289e-01 1.305262e-01
    outer loop
      vertex   -6.551013e+02 1.456964e+02 -3.597348e+02
      vertex   -6.490824e+02 1.421265e+02 -3.590667e+02
      vertex   -6.490372e+02 1.422047e+02 -3.597525e+02
    endloop
  endfacet
  facet normal 4.637875e-01 8.035745e-01 3.730540e-01
    outer loop
      vertex   -6.551013e+02 1.456964e+02 -3.597348e+02
      vertex   -6.490372e+02 1.422047e+02 -3.597525e+02
      vertex   -6.549758e+02 1.459141e+02 -3.603597e+02
    endloop
  endfacet
  facet normal 4.609803e-01 8.006564e-01 3.826832e-01
    outer loop
      vertex   -6.549758e+02 1.459141e+02 -3.603597e+02
      vertex   -6.490372e+02 1.422047e+02 -3.597525e+02
      vertex   -6.489049e+02 1.424340e+02 -3.603917e+02
    endloop
  endfacet
  facet normal 4.020945e-01 6.959829e-01 5.949183e-01
    outer loop
      vertex   -6.549758e+02 1.459141e+02 -3.603597e+02
      vertex   -6.489049e+02 1.424340e+02 -3.603917e+02
      vertex   -6.547756e+02 1.462612e+02 -3.609011e+02
    endloop
  endfacet
  facet normal 3.955155e-01 6.877337e-01 6.087609e-01
    outer loop
      vertex   -6.547756e+02 1.462612e+02 -3.609011e+02
      vertex   -6.489049e+02 1.424340e+02 -3.603917e+02
      vertex   -6.486943e+02 1.427987e+02 -3.609405e+02
    endloop
  endfacet
  facet normal 3.144437e-01 5.434156e-01 7.783474e-01
    outer loop
      vertex   -6.547756e+02 1.462612e+02 -3.609011e+02
      vertex   -6.486943e+02 1.427987e+02 -3.609405e+02
      vertex   -6.545137e+02 1.467154e+02 -3.613240e+02
    endloop
  endfacet
  facet normal 3.030569e-01 5.279663e-01 7.933525e-01
    outer loop
      vertex   -6.545137e+02 1.467154e+02 -3.613240e+02
      vertex   -6.486943e+02 1.427987e+02 -3.609405e+02
      vertex   -6.484199e+02 1.432740e+02 -3.613616e+02
    endloop
  endfacet
  facet normal 2.065138e-01 3.557201e-01 9.114907e-01
    outer loop
      vertex   -6.545137e+02 1.467154e+02 -3.613240e+02
      vertex   -6.484199e+02 1.432740e+02 -3.613616e+02
      vertex   -6.542070e+02 1.472472e+02 -3.616011e+02
    endloop
  endfacet
  facet normal 1.898888e-01 3.322518e-01 9.238782e-01
    outer loop
      vertex   -6.542070e+02 1.472472e+02 -3.616011e+02
      vertex   -6.484199e+02 1.432740e+02 -3.613616e+02
      vertex   -6.481003e+02 1.438275e+02 -3.616264e+02
    endloop
  endfacet
  facet normal 8.529283e-02 1.450137e-01 9.857465e-01
    outer loop
      vertex   -6.542070e+02 1.472472e+02 -3.616011e+02
      vertex   -6.481003e+02 1.438275e+02 -3.616264e+02
      vertex   -6.538753e+02 1.478224e+02 -3.617144e+02
    endloop
  endfacet
  facet normal 6.370810e-02 1.139365e-01 9.914433e-01
    outer loop
      vertex   -6.538753e+02 1.478224e+02 -3.617144e+02
      vertex   -6.481003e+02 1.438275e+02 -3.616264e+02
      vertex   -6.477574e+02 1.444215e+02 -3.617167e+02
    endloop
  endfacet
  facet normal -4.137340e-02 -7.509865e-02 9.963174e-01
    outer loop
      vertex   -6.538753e+02 1.478224e+02 -3.617144e+02
      vertex   -6.477574e+02 1.444215e+02 -3.617167e+02
      vertex   -6.535400e+02 1.484037e+02 -3.616566e+02
    endloop
  endfacet
  facet normal -6.690056e-02 -1.120933e-01 9.914431e-01
    outer loop
      vertex   -6.535400e+02 1.484037e+02 -3.616566e+02
      vertex   -6.477574e+02 1.444215e+02 -3.617167e+02
      vertex   -6.474145e+02 1.450155e+02 -3.616264e+02
    endloop
  endfacet
  facet normal -1.652885e-01 -2.904041e-01 9.425206e-01
    outer loop
      vertex   -6.535400e+02 1.484037e+02 -3.616566e+02
      vertex   -6.474145e+02 1.450155e+02 -3.616264e+02
      vertex   -6.532229e+02 1.489537e+02 -3.614316e+02
    endloop
  endfacet
  facet normal -1.930497e-01 -3.304266e-01 9.238778e-01
    outer loop
      vertex   -6.532229e+02 1.489537e+02 -3.614316e+02
      vertex   -6.474145e+02 1.450155e+02 -3.616264e+02
      vertex   -6.470949e+02 1.455690e+02 -3.613616e+02
    endloop
  endfacet
  facet normal -2.784348e-01 -4.869996e-01 8.278318e-01
    outer loop
      vertex   -6.532229e+02 1.489537e+02 -3.614316e+02
      vertex   -6.470949e+02 1.455690e+02 -3.613616e+02
      vertex   -6.529443e+02 1.494367e+02 -3.610537e+02
    endloop
  endfacet
  facet normal -3.061547e-01 -5.261771e-01 7.933517e-01
    outer loop
      vertex   -6.529443e+02 1.494367e+02 -3.610537e+02
      vertex   -6.470949e+02 1.455690e+02 -3.613616e+02
      vertex   -6.468205e+02 1.460443e+02 -3.609405e+02
    endloop
  endfacet
  facet normal -3.734912e-01 -6.521905e-01 6.596604e-01
    outer loop
      vertex   -6.529443e+02 1.494367e+02 -3.610537e+02
      vertex   -6.468205e+02 1.460443e+02 -3.609405e+02
      vertex   -6.527223e+02 1.498216e+02 -3.605475e+02
    endloop
  endfacet
  facet normal -3.985188e-01 -6.859985e-01 6.087601e-01
    outer loop
      vertex   -6.527223e+02 1.498216e+02 -3.605475e+02
      vertex   -6.468205e+02 1.460443e+02 -3.609405e+02
      vertex   -6.466099e+02 1.464090e+02 -3.603917e+02
    endloop
  endfacet
  facet normal -4.443067e-01 -7.753103e-01 4.488714e-01
    outer loop
      vertex   -6.527223e+02 1.498216e+02 -3.605475e+02
      vertex   -6.466099e+02 1.464090e+02 -3.603917e+02
      vertex   -6.525713e+02 1.500836e+02 -3.599456e+02
    endloop
  endfacet
  facet normal -4.638575e-01 -7.989933e-01 3.826825e-01
    outer loop
      vertex   -6.525713e+02 1.500836e+02 -3.599456e+02
      vertex   -6.466099e+02 1.464090e+02 -3.603917e+02
      vertex   -6.464775e+02 1.466383e+02 -3.597525e+02
    endloop
  endfacet
  facet normal -4.794205e-01 -8.323848e-01 2.780134e-01
    outer loop
      vertex   -6.525713e+02 1.500836e+02 -3.599456e+02
      vertex   -6.464775e+02 1.466383e+02 -3.597525e+02
      vertex   -6.525298e+02 1.501554e+02 -3.596589e+02
    endloop
  endfacet
  facet normal -4.933396e-01 -8.534133e-01 1.682315e-01
    outer loop
      vertex   -6.525298e+02 1.501554e+02 -3.596589e+02
      vertex   -6.464775e+02 1.466383e+02 -3.597525e+02
      vertex   -6.525047e+02 1.501989e+02 -3.593647e+02
    endloop
  endfacet
  facet normal -4.980453e-01 -8.572712e-01 1.305257e-01
    outer loop
      vertex   -6.525047e+02 1.501989e+02 -3.593647e+02
      vertex   -6.464775e+02 1.466383e+02 -3.597525e+02
      vertex   -6.464324e+02 1.467165e+02 -3.590667e+02
    endloop
  endfacet
  facet normal -4.987776e-01 -8.648985e-01 5.631529e-02
    outer loop
      vertex   -6.525047e+02 1.501989e+02 -3.593647e+02
      vertex   -6.464324e+02 1.467165e+02 -3.590667e+02
      vertex   -6.524963e+02 1.502135e+02 -3.590667e+02
    endloop
  endfacet
  facet normal 4.995704e-01 8.662733e-01 0.000000e+00
    outer loop
      vertex   -6.622285e+02 1.333568e+02 -3.599456e+02
      vertex   -6.622202e+02 1.333521e+02 -3.599456e+02
      vertex   -6.622285e+02 1.333568e+02 -3.625136e+02
    endloop
  endfacet
  facet normal 4.995704e-01 8.662733e-01 -1.917535e-14
    outer loop
      vertex   -6.622285e+02 1.333568e+02 -3.625136e+02
      vertex   -6.622202e+02 1.333521e+02 -3.599456e+02
      vertex   -6.622202e+02 1.333521e+02 -3.625136e+02
    endloop
  endfacet
  facet normal -8.662733e-01 4.995704e-01 -1.105815e-14
    outer loop
      vertex   -6.622202e+02 1.333521e+02 -3.599456e+02
      vertex   -6.620691e+02 1.336140e+02 -3.605475e+02
      vertex   -6.622202e+02 1.333521e+02 -3.625136e+02
    endloop
  endfacet
  facet normal -8.662733e-01 4.995704e-01 -7.434555e-15
    outer loop
      vertex   -6.622202e+02 1.333521e+02 -3.625136e+02
      vertex   -6.620691e+02 1.336140e+02 -3.605475e+02
      vertex   -6.618472e+02 1.339989e+02 -3.610537e+02
    endloop
  endfacet
  facet normal -8.662733e-01 4.995704e-01 -1.634690e-13
    outer loop
      vertex   -6.622202e+02 1.333521e+02 -3.625136e+02
      vertex   -6.618472e+02 1.339989e+02 -3.610537e+02
      vertex   -6.615686e+02 1.344819e+02 -3.614316e+02
    endloop
  endfacet
  facet normal -8.662733e-01 4.995704e-01 -1.791338e-13
    outer loop
      vertex   -6.615686e+02 1.344819e+02 -3.614316e+02
      vertex   -6.612514e+02 1.350319e+02 -3.616566e+02
      vertex   -6.622202e+02 1.333521e+02 -3.625136e+02
    endloop
  endfacet
  facet normal -8.662733e-01 4.995704e-01 -1.926140e-13
    outer loop
      vertex   -6.622202e+02 1.333521e+02 -3.625136e+02
      vertex   -6.612514e+02 1.350319e+02 -3.616566e+02
      vertex   -6.609162e+02 1.356132e+02 -3.617144e+02
    endloop
  endfacet
  facet normal -8.662733e-01 4.995704e-01 4.774583e-13
    outer loop
      vertex   -6.622202e+02 1.333521e+02 -3.625136e+02
      vertex   -6.609162e+02 1.356132e+02 -3.617144e+02
      vertex   -6.619916e+02 1.337484e+02 -3.625667e+02
    endloop
  endfacet
  facet normal -8.662733e-01 4.995704e-01 7.724611e-14
    outer loop
      vertex   -6.619916e+02 1.337484e+02 -3.625667e+02
      vertex   -6.609162e+02 1.356132e+02 -3.617144e+02
      vertex   -6.605845e+02 1.361884e+02 -3.616011e+02
    endloop
  endfacet
  facet normal -8.662733e-01 4.995704e-01 3.447365e-14
    outer loop
      vertex   -6.619916e+02 1.337484e+02 -3.625667e+02
      vertex   -6.605845e+02 1.361884e+02 -3.616011e+02
      vertex   -6.528211e+02 1.496504e+02 -3.625667e+02
    endloop
  endfacet
  facet normal -8.662733e-01 4.995704e-01 1.637021e-13
    outer loop
      vertex   -6.528211e+02 1.496504e+02 -3.625667e+02
      vertex   -6.605845e+02 1.361884e+02 -3.616011e+02
      vertex   -6.542070e+02 1.472472e+02 -3.616011e+02
    endloop
  endfacet
  facet normal -8.662733e-01 4.995704e-01 4.212916e-14
    outer loop
      vertex   -6.528211e+02 1.496504e+02 -3.625667e+02
      vertex   -6.542070e+02 1.472472e+02 -3.616011e+02
      vertex   -6.538753e+02 1.478224e+02 -3.617144e+02
    endloop
  endfacet
  facet normal -8.662733e-01 4.995704e-01 -1.720193e-13
    outer loop
      vertex   -6.542070e+02 1.472472e+02 -3.616011e+02
      vertex   -6.605845e+02 1.361884e+02 -3.616011e+02
      vertex   -6.545137e+02 1.467154e+02 -3.613240e+02
    endloop
  endfacet
  facet normal -8.662733e-01 4.995704e-01 -1.400334e-13
    outer loop
      vertex   -6.545137e+02 1.467154e+02 -3.613240e+02
      vertex   -6.605845e+02 1.361884e+02 -3.616011e+02
      vertex   -6.602778e+02 1.367202e+02 -3.613240e+02
    endloop
  endfacet
  facet normal -8.662733e-01 4.995704e-01 -1.314252e-13
    outer loop
      vertex   -6.545137e+02 1.467154e+02 -3.613240e+02
      vertex   -6.602778e+02 1.367202e+02 -3.613240e+02
      vertex   -6.547756e+02 1.462612e+02 -3.609011e+02
    endloop
  endfacet
  facet normal -8.662733e-01 4.995704e-01 4.805387e-15
    outer loop
      vertex   -6.547756e+02 1.462612e+02 -3.609011e+02
      vertex   -6.602778e+02 1.367202e+02 -3.613240e+02
      vertex   -6.600159e+02 1.371744e+02 -3.609011e+02
    endloop
  endfacet
  facet normal -8.662733e-01 4.995704e-01 1.472457e-13
    outer loop
      vertex   -6.547756e+02 1.462612e+02 -3.609011e+02
      vertex   -6.600159e+02 1.371744e+02 -3.609011e+02
      vertex   -6.549758e+02 1.459141e+02 -3.603597e+02
    endloop
  endfacet
  facet normal -8.662733e-01 4.995704e-01 -6.773305e-14
    outer loop
      vertex   -6.549758e+02 1.459141e+02 -3.603597e+02
      vertex   -6.600159e+02 1.371744e+02 -3.609011e+02
      vertex   -6.598157e+02 1.375215e+02 -3.603597e+02
    endloop
  endfacet
  facet normal -8.662733e-01 4.995704e-01 2.347163e-15
    outer loop
      vertex   -6.549758e+02 1.459141e+02 -3.603597e+02
      vertex   -6.598157e+02 1.375215e+02 -3.603597e+02
      vertex   -6.596902e+02 1.377392e+02 -3.597348e+02
    endloop
  endfacet
  facet normal -8.662733e-01 4.995704e-01 5.597099e-14
    outer loop
      vertex   -6.549758e+02 1.459141e+02 -3.603597e+02
      vertex   -6.596902e+02 1.377392e+02 -3.597348e+02
      vertex   -6.551013e+02 1.456964e+02 -3.597348e+02
    endloop
  endfacet
  facet normal -8.662733e-01 4.995704e-01 -9.609928e-14
    outer loop
      vertex   -6.551013e+02 1.456964e+02 -3.597348e+02
      vertex   -6.596902e+02 1.377392e+02 -3.597348e+02
      vertex   -6.596474e+02 1.378133e+02 -3.590667e+02
    endloop
  endfacet
  facet normal -8.662733e-01 4.995704e-01 2.725533e-14
    outer loop
      vertex   -6.551013e+02 1.456964e+02 -3.597348e+02
      vertex   -6.596474e+02 1.378133e+02 -3.590667e+02
      vertex   -6.551441e+02 1.456222e+02 -3.590667e+02
    endloop
  endfacet
  facet normal -8.662733e-01 4.995704e-01 3.706275e-13
    outer loop
      vertex   -6.528211e+02 1.496504e+02 -3.625667e+02
      vertex   -6.538753e+02 1.478224e+02 -3.617144e+02
      vertex   -6.525713e+02 1.500836e+02 -3.625032e+02
    endloop
  endfacet
  facet normal -8.662733e-01 4.995704e-01 -2.435739e-13
    outer loop
      vertex   -6.525713e+02 1.500836e+02 -3.625032e+02
      vertex   -6.538753e+02 1.478224e+02 -3.617144e+02
      vertex   -6.535400e+02 1.484037e+02 -3.616566e+02
    endloop
  endfacet
  facet normal -8.662733e-01 4.995704e-01 -1.345235e-13
    outer loop
      vertex   -6.525713e+02 1.500836e+02 -3.625032e+02
      vertex   -6.535400e+02 1.484037e+02 -3.616566e+02
      vertex   -6.532229e+02 1.489537e+02 -3.614316e+02
    endloop
  endfacet
  facet normal -8.662733e-01 4.995704e-01 9.673169e-14
    outer loop
      vertex   -6.532229e+02 1.489537e+02 -3.614316e+02
      vertex   -6.529443e+02 1.494367e+02 -3.610537e+02
      vertex   -6.525713e+02 1.500836e+02 -3.625032e+02
    endloop
  endfacet
  facet normal -8.662733e-01 4.995704e-01 -1.238391e-14
    outer loop
      vertex   -6.525713e+02 1.500836e+02 -3.625032e+02
      vertex   -6.529443e+02 1.494367e+02 -3.610537e+02
      vertex   -6.527223e+02 1.498216e+02 -3.605475e+02
    endloop
  endfacet
  facet normal -8.662733e-01 4.995704e-01 0.000000e+00
    outer loop
      vertex   -6.525713e+02 1.500836e+02 -3.625032e+02
      vertex   -6.527223e+02 1.498216e+02 -3.605475e+02
      vertex   -6.525713e+02 1.500836e+02 -3.599456e+02
    endloop
  endfacet
  facet normal -8.662733e-01 4.995704e-01 3.440012e-12
    outer loop
      vertex   -6.525713e+02 1.500836e+02 -3.625032e+02
      vertex   -6.526536e+02 1.499409e+02 -3.625384e+02
      vertex   -6.528211e+02 1.496504e+02 -3.625667e+02
    endloop
  endfacet
  facet normal -8.662733e-01 4.995704e-01 2.575366e-12
    outer loop
      vertex   -6.528211e+02 1.496504e+02 -3.625667e+02
      vertex   -6.526536e+02 1.499409e+02 -3.625384e+02
      vertex   -6.527370e+02 1.497962e+02 -3.625596e+02
    endloop
  endfacet
  facet normal -8.662733e-01 4.995704e-01 -3.578377e-12
    outer loop
      vertex   -6.620684e+02 1.336152e+02 -3.625608e+02
      vertex   -6.621447e+02 1.334829e+02 -3.625430e+02
      vertex   -6.619916e+02 1.337484e+02 -3.625667e+02
    endloop
  endfacet
  facet normal -8.662733e-01 4.995704e-01 2.225934e-12
    outer loop
      vertex   -6.619916e+02 1.337484e+02 -3.625667e+02
      vertex   -6.621447e+02 1.334829e+02 -3.625430e+02
      vertex   -6.622202e+02 1.333521e+02 -3.625136e+02
    endloop
  endfacet
  facet normal -1.408326e-14 8.121661e-15 1.000000e+00
    outer loop
      vertex   -6.596474e+02 1.378133e+02 -3.590667e+02
      vertex   -6.535896e+02 1.343199e+02 -3.590667e+02
      vertex   -6.551441e+02 1.456222e+02 -3.590667e+02
    endloop
  endfacet
  facet normal -1.407023e-14 8.123453e-15 1.000000e+00
    outer loop
      vertex   -6.551441e+02 1.456222e+02 -3.590667e+02
      vertex   -6.535896e+02 1.343199e+02 -3.590667e+02
      vertex   -6.490824e+02 1.421265e+02 -3.590667e+02
    endloop
  endfacet
  facet normal -6.320857e-02 -1.142248e-01 -9.914421e-01
    outer loop
      vertex   -6.561963e+02 1.298048e+02 -3.624985e+02
      vertex   -6.621447e+02 1.334829e+02 -3.625430e+02
      vertex   -6.559375e+02 1.302531e+02 -3.625667e+02
    endloop
  endfacet
  facet normal -5.610879e-02 -1.005660e-01 -9.933470e-01
    outer loop
      vertex   -6.559375e+02 1.302531e+02 -3.625667e+02
      vertex   -6.621447e+02 1.334829e+02 -3.625430e+02
      vertex   -6.620684e+02 1.336152e+02 -3.625608e+02
    endloop
  endfacet
  facet normal -1.922927e-02 -3.330607e-02 -9.992602e-01
    outer loop
      vertex   -6.559375e+02 1.302531e+02 -3.625667e+02
      vertex   -6.620684e+02 1.336152e+02 -3.625608e+02
      vertex   -6.619916e+02 1.337484e+02 -3.625667e+02
    endloop
  endfacet
  facet normal -1.896914e-01 -3.323656e-01 -9.238779e-01
    outer loop
      vertex   -6.564375e+02 1.293871e+02 -3.622987e+02
      vertex   -6.624384e+02 1.329932e+02 -3.623639e+02
      vertex   -6.561963e+02 1.298048e+02 -3.624985e+02
    endloop
  endfacet
  facet normal -1.686381e-01 -2.903874e-01 -9.419322e-01
    outer loop
      vertex   -6.561963e+02 1.298048e+02 -3.624985e+02
      vertex   -6.624384e+02 1.329932e+02 -3.623639e+02
      vertex   -6.622202e+02 1.333521e+02 -3.625136e+02
    endloop
  endfacet
  facet normal -9.516391e-02 -1.657852e-01 -9.815595e-01
    outer loop
      vertex   -6.561963e+02 1.298048e+02 -3.624985e+02
      vertex   -6.622202e+02 1.333521e+02 -3.625136e+02
      vertex   -6.621447e+02 1.334829e+02 -3.625430e+02
    endloop
  endfacet
  facet normal -2.693690e-01 -4.635108e-01 -8.441552e-01
    outer loop
      vertex   -6.624384e+02 1.329932e+02 -3.623639e+02
      vertex   -6.564375e+02 1.293871e+02 -3.622987e+02
      vertex   -6.626265e+02 1.326674e+02 -3.621250e+02
    endloop
  endfacet
  facet normal -3.023283e-01 -5.283858e-01 -7.933511e-01
    outer loop
      vertex   -6.626265e+02 1.326674e+02 -3.621250e+02
      vertex   -6.564375e+02 1.293871e+02 -3.622987e+02
      vertex   -6.566446e+02 1.290283e+02 -3.619809e+02
    endloop
  endfacet
  facet normal -3.564119e-01 -6.137686e-01 -7.044563e-01
    outer loop
      vertex   -6.626265e+02 1.326674e+02 -3.621250e+02
      vertex   -6.566446e+02 1.290283e+02 -3.619809e+02
      vertex   -6.627835e+02 1.323955e+02 -3.618086e+02
    endloop
  endfacet
  facet normal -3.945884e-01 -6.882672e-01 -6.087597e-01
    outer loop
      vertex   -6.627835e+02 1.323955e+02 -3.618086e+02
      vertex   -6.566446e+02 1.290283e+02 -3.619809e+02
      vertex   -6.568036e+02 1.287531e+02 -3.615667e+02
    endloop
  endfacet
  facet normal -4.254625e-01 -7.337083e-01 -5.297676e-01
    outer loop
      vertex   -6.627835e+02 1.323955e+02 -3.618086e+02
      vertex   -6.568036e+02 1.287531e+02 -3.615667e+02
      vertex   -6.629016e+02 1.321910e+02 -3.614306e+02
    endloop
  endfacet
  facet normal -4.601821e-01 -8.011157e-01 -3.826826e-01
    outer loop
      vertex   -6.629016e+02 1.321910e+02 -3.614306e+02
      vertex   -6.568036e+02 1.287531e+02 -3.615667e+02
      vertex   -6.569035e+02 1.285800e+02 -3.610843e+02
    endloop
  endfacet
  facet normal -4.730840e-01 -8.173767e-01 -3.287656e-01
    outer loop
      vertex   -6.629016e+02 1.321910e+02 -3.614306e+02
      vertex   -6.569035e+02 1.285800e+02 -3.610843e+02
      vertex   -6.629749e+02 1.320640e+02 -3.610096e+02
    endloop
  endfacet
  facet normal -4.946614e-01 -8.592281e-01 -1.305261e-01
    outer loop
      vertex   -6.629749e+02 1.320640e+02 -3.610096e+02
      vertex   -6.569035e+02 1.285800e+02 -3.610843e+02
      vertex   -6.569375e+02 1.285210e+02 -3.605667e+02
    endloop
  endfacet
  facet normal -4.968859e-01 -8.606317e-01 -1.114336e-01
    outer loop
      vertex   -6.629749e+02 1.320640e+02 -3.610096e+02
      vertex   -6.569375e+02 1.285210e+02 -3.605667e+02
      vertex   -6.629997e+02 1.320210e+02 -3.605667e+02
    endloop
  endfacet
  facet normal -1.678610e-01 -2.908574e-01 -9.419260e-01
    outer loop
      vertex   -6.624384e+02 1.329932e+02 -3.623639e+02
      vertex   -6.622285e+02 1.333568e+02 -3.625136e+02
      vertex   -6.622202e+02 1.333521e+02 -3.625136e+02
    endloop
  endfacet
  facet normal 1.408795e-14 -8.124367e-15 -1.000000e+00
    outer loop
      vertex   -6.619916e+02 1.337484e+02 -3.625667e+02
      vertex   -6.528211e+02 1.496504e+02 -3.625667e+02
      vertex   -6.559375e+02 1.302531e+02 -3.625667e+02
    endloop
  endfacet
  facet normal 1.406560e-14 -8.120776e-15 -1.000000e+00
    outer loop
      vertex   -6.559375e+02 1.302531e+02 -3.625667e+02
      vertex   -6.528211e+02 1.496504e+02 -3.625667e+02
      vertex   -6.467591e+02 1.461505e+02 -3.625667e+02
    endloop
  endfacet
  facet normal 8.660254e-01 -5.000000e-01 2.051135e-13
    outer loop
      vertex   -6.490824e+02 1.421265e+02 -3.590667e+02
      vertex   -6.535896e+02 1.343199e+02 -3.590667e+02
      vertex   -6.490372e+02 1.422047e+02 -3.597525e+02
    endloop
  endfacet
  facet normal 8.660254e-01 -5.000000e-01 -3.030754e-13
    outer loop
      vertex   -6.490372e+02 1.422047e+02 -3.597525e+02
      vertex   -6.535896e+02 1.343199e+02 -3.590667e+02
      vertex   -6.536347e+02 1.342417e+02 -3.597525e+02
    endloop
  endfacet
  facet normal 8.660254e-01 -5.000000e-01 8.335031e-14
    outer loop
      vertex   -6.490372e+02 1.422047e+02 -3.597525e+02
      vertex   -6.536347e+02 1.342417e+02 -3.597525e+02
      vertex   -6.489049e+02 1.424340e+02 -3.603917e+02
    endloop
  endfacet
  facet normal 8.660254e-01 -5.000000e-01 7.088086e-14
    outer loop
      vertex   -6.489049e+02 1.424340e+02 -3.603917e+02
      vertex   -6.536347e+02 1.342417e+02 -3.597525e+02
      vertex   -6.537671e+02 1.340124e+02 -3.603917e+02
    endloop
  endfacet
  facet normal 8.660254e-01 -5.000000e-01 8.162722e-14
    outer loop
      vertex   -6.489049e+02 1.424340e+02 -3.603917e+02
      vertex   -6.537671e+02 1.340124e+02 -3.603917e+02
      vertex   -6.486943e+02 1.427987e+02 -3.609405e+02
    endloop
  endfacet
  facet normal 8.660254e-01 -5.000000e-01 -9.924207e-14
    outer loop
      vertex   -6.486943e+02 1.427987e+02 -3.609405e+02
      vertex   -6.537671e+02 1.340124e+02 -3.603917e+02
      vertex   -6.539777e+02 1.336477e+02 -3.609405e+02
    endloop
  endfacet
  facet normal 8.660254e-01 -5.000000e-01 -1.637642e-13
    outer loop
      vertex   -6.486943e+02 1.427987e+02 -3.609405e+02
      vertex   -6.539777e+02 1.336477e+02 -3.609405e+02
      vertex   -6.484199e+02 1.432740e+02 -3.613616e+02
    endloop
  endfacet
  facet normal 8.660254e-01 -5.000000e-01 -4.339401e-14
    outer loop
      vertex   -6.484199e+02 1.432740e+02 -3.613616e+02
      vertex   -6.539777e+02 1.336477e+02 -3.609405e+02
      vertex   -6.542521e+02 1.331724e+02 -3.613616e+02
    endloop
  endfacet
  facet normal 8.660254e-01 -5.000000e-01 -1.603507e-13
    outer loop
      vertex   -6.484199e+02 1.432740e+02 -3.613616e+02
      vertex   -6.542521e+02 1.331724e+02 -3.613616e+02
      vertex   -6.481003e+02 1.438275e+02 -3.616264e+02
    endloop
  endfacet
  facet normal 8.660254e-01 -5.000000e-01 -1.078346e-13
    outer loop
      vertex   -6.481003e+02 1.438275e+02 -3.616264e+02
      vertex   -6.542521e+02 1.331724e+02 -3.613616e+02
      vertex   -6.545716e+02 1.326189e+02 -3.616264e+02
    endloop
  endfacet
  facet normal 8.660254e-01 -5.000000e-01 -1.783669e-13
    outer loop
      vertex   -6.481003e+02 1.438275e+02 -3.616264e+02
      vertex   -6.545716e+02 1.326189e+02 -3.616264e+02
      vertex   -6.467591e+02 1.461505e+02 -3.625667e+02
    endloop
  endfacet
  facet normal 8.660254e-01 -5.000000e-01 8.315329e-14
    outer loop
      vertex   -6.467591e+02 1.461505e+02 -3.625667e+02
      vertex   -6.545716e+02 1.326189e+02 -3.616264e+02
      vertex   -6.559375e+02 1.302531e+02 -3.625667e+02
    endloop
  endfacet
  facet normal 8.660254e-01 -5.000000e-01 -3.010772e-13
    outer loop
      vertex   -6.559375e+02 1.302531e+02 -3.625667e+02
      vertex   -6.545716e+02 1.326189e+02 -3.616264e+02
      vertex   -6.549146e+02 1.320249e+02 -3.617167e+02
    endloop
  endfacet
  facet normal 8.660254e-01 -5.000000e-01 -4.513298e-13
    outer loop
      vertex   -6.559375e+02 1.302531e+02 -3.625667e+02
      vertex   -6.549146e+02 1.320249e+02 -3.617167e+02
      vertex   -6.564375e+02 1.293871e+02 -3.622987e+02
    endloop
  endfacet
  facet normal 8.660254e-01 -5.000000e-01 1.327639e-13
    outer loop
      vertex   -6.564375e+02 1.293871e+02 -3.622987e+02
      vertex   -6.549146e+02 1.320249e+02 -3.617167e+02
      vertex   -6.566446e+02 1.290283e+02 -3.619809e+02
    endloop
  endfacet
  facet normal 8.660254e-01 -5.000000e-01 1.799190e-15
    outer loop
      vertex   -6.566446e+02 1.290283e+02 -3.619809e+02
      vertex   -6.549146e+02 1.320249e+02 -3.617167e+02
      vertex   -6.552575e+02 1.314309e+02 -3.616264e+02
    endloop
  endfacet
  facet normal 8.660254e-01 -5.000000e-01 -4.592881e-14
    outer loop
      vertex   -6.566446e+02 1.290283e+02 -3.619809e+02
      vertex   -6.552575e+02 1.314309e+02 -3.616264e+02
      vertex   -6.568036e+02 1.287531e+02 -3.615667e+02
    endloop
  endfacet
  facet normal 8.660254e-01 -5.000000e-01 3.488150e-13
    outer loop
      vertex   -6.568036e+02 1.287531e+02 -3.615667e+02
      vertex   -6.552575e+02 1.314309e+02 -3.616264e+02
      vertex   -6.555771e+02 1.308774e+02 -3.613616e+02
    endloop
  endfacet
  facet normal 8.660254e-01 -5.000000e-01 2.017641e-13
    outer loop
      vertex   -6.568036e+02 1.287531e+02 -3.615667e+02
      vertex   -6.555771e+02 1.308774e+02 -3.613616e+02
      vertex   -6.569035e+02 1.285800e+02 -3.610843e+02
    endloop
  endfacet
  facet normal 8.660254e-01 -5.000000e-01 2.222824e-13
    outer loop
      vertex   -6.569035e+02 1.285800e+02 -3.610843e+02
      vertex   -6.555771e+02 1.308774e+02 -3.613616e+02
      vertex   -6.558515e+02 1.304021e+02 -3.609405e+02
    endloop
  endfacet
  facet normal 8.660254e-01 -5.000000e-01 5.692600e-13
    outer loop
      vertex   -6.569035e+02 1.285800e+02 -3.610843e+02
      vertex   -6.558515e+02 1.304021e+02 -3.609405e+02
      vertex   -6.569375e+02 1.285210e+02 -3.605667e+02
    endloop
  endfacet
  facet normal 8.660254e-01 -5.000000e-01 1.336972e-13
    outer loop
      vertex   -6.569375e+02 1.285210e+02 -3.605667e+02
      vertex   -6.558515e+02 1.304021e+02 -3.609405e+02
      vertex   -6.560621e+02 1.300374e+02 -3.603917e+02
    endloop
  endfacet
  facet normal 8.660254e-01 -5.000000e-01 -6.477962e-15
    outer loop
      vertex   -6.569375e+02 1.285210e+02 -3.605667e+02
      vertex   -6.560621e+02 1.300374e+02 -3.603917e+02
      vertex   -6.561944e+02 1.298081e+02 -3.597525e+02
    endloop
  endfacet
  facet normal 8.660254e-01 -5.000000e-01 -1.745121e-13
    outer loop
      vertex   -6.562396e+02 1.297299e+02 -3.590667e+02
      vertex   -6.569375e+02 1.285210e+02 -3.590667e+02
      vertex   -6.561944e+02 1.298081e+02 -3.597525e+02
    endloop
  endfacet
  facet normal 8.660254e-01 -5.000000e-01 9.462155e-15
    outer loop
      vertex   -6.561944e+02 1.298081e+02 -3.597525e+02
      vertex   -6.569375e+02 1.285210e+02 -3.590667e+02
      vertex   -6.569375e+02 1.285210e+02 -3.605667e+02
    endloop
  endfacet
  facet normal 8.660254e-01 -5.000000e-01 2.350588e-12
    outer loop
      vertex   -6.564375e+02 1.293871e+02 -3.622987e+02
      vertex   -6.561963e+02 1.298048e+02 -3.624985e+02
      vertex   -6.559375e+02 1.302531e+02 -3.625667e+02
    endloop
  endfacet
  facet normal 8.660254e-01 -5.000000e-01 5.038324e-11
    outer loop
      vertex   -6.465003e+02 1.465988e+02 -3.624985e+02
      vertex   -6.462591e+02 1.470166e+02 -3.622987e+02
      vertex   -6.467591e+02 1.461505e+02 -3.625667e+02
    endloop
  endfacet
  facet normal 8.660254e-01 -5.000000e-01 -1.082087e-11
    outer loop
      vertex   -6.467591e+02 1.461505e+02 -3.625667e+02
      vertex   -6.462591e+02 1.470166e+02 -3.622987e+02
      vertex   -6.477574e+02 1.444215e+02 -3.617167e+02
    endloop
  endfacet
  facet normal 8.660254e-01 -5.000000e-01 -8.237551e-13
    outer loop
      vertex   -6.467591e+02 1.461505e+02 -3.625667e+02
      vertex   -6.477574e+02 1.444215e+02 -3.617167e+02
      vertex   -6.481003e+02 1.438275e+02 -3.616264e+02
    endloop
  endfacet
  facet normal 8.660254e-01 -5.000000e-01 2.472440e-12
    outer loop
      vertex   -6.462591e+02 1.470166e+02 -3.622987e+02
      vertex   -6.460520e+02 1.473753e+02 -3.619809e+02
      vertex   -6.477574e+02 1.444215e+02 -3.617167e+02
    endloop
  endfacet
  facet normal 8.660254e-01 -5.000000e-01 1.022451e-11
    outer loop
      vertex   -6.477574e+02 1.444215e+02 -3.617167e+02
      vertex   -6.460520e+02 1.473753e+02 -3.619809e+02
      vertex   -6.474145e+02 1.450155e+02 -3.616264e+02
    endloop
  endfacet
  facet normal 8.660254e-01 -5.000000e-01 1.740431e-12
    outer loop
      vertex   -6.474145e+02 1.450155e+02 -3.616264e+02
      vertex   -6.460520e+02 1.473753e+02 -3.619809e+02
      vertex   -6.458931e+02 1.476505e+02 -3.615667e+02
    endloop
  endfacet
  facet normal 8.660254e-01 -5.000000e-01 6.504011e-12
    outer loop
      vertex   -6.474145e+02 1.450155e+02 -3.616264e+02
      vertex   -6.458931e+02 1.476505e+02 -3.615667e+02
      vertex   -6.470949e+02 1.455690e+02 -3.613616e+02
    endloop
  endfacet
  facet normal 8.660254e-01 -5.000000e-01 1.474303e-12
    outer loop
      vertex   -6.470949e+02 1.455690e+02 -3.613616e+02
      vertex   -6.458931e+02 1.476505e+02 -3.615667e+02
      vertex   -6.457932e+02 1.478236e+02 -3.610843e+02
    endloop
  endfacet
  facet normal 8.660254e-01 -5.000000e-01 4.100403e-12
    outer loop
      vertex   -6.470949e+02 1.455690e+02 -3.613616e+02
      vertex   -6.457932e+02 1.478236e+02 -3.610843e+02
      vertex   -6.468205e+02 1.460443e+02 -3.609405e+02
    endloop
  endfacet
  facet normal 8.660254e-01 -5.000000e-01 1.450980e-11
    outer loop
      vertex   -6.468205e+02 1.460443e+02 -3.609405e+02
      vertex   -6.457932e+02 1.478236e+02 -3.610843e+02
      vertex   -6.457591e+02 1.478826e+02 -3.605667e+02
    endloop
  endfacet
  facet normal 8.660254e-01 -5.000000e-01 -1.601032e-13
    outer loop
      vertex   -6.468205e+02 1.460443e+02 -3.609405e+02
      vertex   -6.457591e+02 1.478826e+02 -3.605667e+02
      vertex   -6.466099e+02 1.464090e+02 -3.603917e+02
    endloop
  endfacet
  facet normal 8.660254e-01 -5.000000e-01 6.359676e-14
    outer loop
      vertex   -6.466099e+02 1.464090e+02 -3.603917e+02
      vertex   -6.457591e+02 1.478826e+02 -3.605667e+02
      vertex   -6.464775e+02 1.466383e+02 -3.597525e+02
    endloop
  endfacet
  facet normal 8.660254e-01 -5.000000e-01 0.000000e+00
    outer loop
      vertex   -6.464775e+02 1.466383e+02 -3.597525e+02
      vertex   -6.457591e+02 1.478826e+02 -3.605667e+02
      vertex   -6.457591e+02 1.478826e+02 -3.590667e+02
    endloop
  endfacet
  facet normal 8.660254e-01 -5.000000e-01 -5.061732e-14
    outer loop
      vertex   -6.464775e+02 1.466383e+02 -3.597525e+02
      vertex   -6.457591e+02 1.478826e+02 -3.590667e+02
      vertex   -6.464324e+02 1.467165e+02 -3.590667e+02
    endloop
  endfacet
  facet normal 2.105046e-02 3.646047e-02 -9.991134e-01
    outer loop
      vertex   -6.528211e+02 1.496504e+02 -3.625667e+02
      vertex   -6.527370e+02 1.497962e+02 -3.625596e+02
      vertex   -6.467591e+02 1.461505e+02 -3.625667e+02
    endloop
  endfacet
  facet normal 6.475532e-02 1.081116e-01 -9.920275e-01
    outer loop
      vertex   -6.467591e+02 1.461505e+02 -3.625667e+02
      vertex   -6.527370e+02 1.497962e+02 -3.625596e+02
      vertex   -6.526536e+02 1.499409e+02 -3.625384e+02
    endloop
  endfacet
  facet normal 6.720534e-02 1.119173e-01 -9.914424e-01
    outer loop
      vertex   -6.467591e+02 1.461505e+02 -3.625667e+02
      vertex   -6.526536e+02 1.499409e+02 -3.625384e+02
      vertex   -6.465003e+02 1.465988e+02 -3.624985e+02
    endloop
  endfacet
  facet normal 1.046124e-01 1.809510e-01 -9.779126e-01
    outer loop
      vertex   -6.465003e+02 1.465988e+02 -3.624985e+02
      vertex   -6.526536e+02 1.499409e+02 -3.625384e+02
      vertex   -6.525713e+02 1.500836e+02 -3.625032e+02
    endloop
  endfacet
  facet normal 1.770802e-01 3.072595e-01 -9.350049e-01
    outer loop
      vertex   -6.465003e+02 1.465988e+02 -3.624985e+02
      vertex   -6.525713e+02 1.500836e+02 -3.625032e+02
      vertex   -6.523663e+02 1.504386e+02 -3.623477e+02
    endloop
  endfacet
  facet normal 1.926735e-01 3.306441e-01 -9.238784e-01
    outer loop
      vertex   -6.465003e+02 1.465988e+02 -3.624985e+02
      vertex   -6.523663e+02 1.504386e+02 -3.623477e+02
      vertex   -6.462591e+02 1.470166e+02 -3.622987e+02
    endloop
  endfacet
  facet normal 2.738687e-01 4.768172e-01 -8.352492e-01
    outer loop
      vertex   -6.462591e+02 1.470166e+02 -3.622987e+02
      vertex   -6.523663e+02 1.504386e+02 -3.623477e+02
      vertex   -6.521832e+02 1.507558e+02 -3.621065e+02
    endloop
  endfacet
  facet normal 3.063223e-01 5.260801e-01 -7.933513e-01
    outer loop
      vertex   -6.462591e+02 1.470166e+02 -3.622987e+02
      vertex   -6.521832e+02 1.507558e+02 -3.621065e+02
      vertex   -6.460520e+02 1.473753e+02 -3.619809e+02
    endloop
  endfacet
  facet normal 3.578796e-01 6.232317e-01 -6.953449e-01
    outer loop
      vertex   -6.460520e+02 1.473753e+02 -3.619809e+02
      vertex   -6.521832e+02 1.507558e+02 -3.621065e+02
      vertex   -6.520307e+02 1.510198e+02 -3.617914e+02
    endloop
  endfacet
  facet normal 3.987898e-01 6.858414e-01 -6.087596e-01
    outer loop
      vertex   -6.460520e+02 1.473753e+02 -3.619809e+02
      vertex   -6.520307e+02 1.510198e+02 -3.617914e+02
      vertex   -6.458931e+02 1.476505e+02 -3.615667e+02
    endloop
  endfacet
  facet normal 4.250567e-01 7.394761e-01 -5.220172e-01
    outer loop
      vertex   -6.458931e+02 1.476505e+02 -3.615667e+02
      vertex   -6.520307e+02 1.510198e+02 -3.617914e+02
      vertex   -6.519163e+02 1.512181e+02 -3.614174e+02
    endloop
  endfacet
  facet normal 4.637861e-01 7.990347e-01 -3.826826e-01
    outer loop
      vertex   -6.458931e+02 1.476505e+02 -3.615667e+02
      vertex   -6.519163e+02 1.512181e+02 -3.614174e+02
      vertex   -6.457932e+02 1.478236e+02 -3.610843e+02
    endloop
  endfacet
  facet normal 4.721733e-01 8.199617e-01 -3.235972e-01
    outer loop
      vertex   -6.457932e+02 1.478236e+02 -3.610843e+02
      vertex   -6.519163e+02 1.512181e+02 -3.614174e+02
      vertex   -6.518453e+02 1.513410e+02 -3.610025e+02
    endloop
  endfacet
  facet normal 4.968642e-01 8.579562e-01 -1.305261e-01
    outer loop
      vertex   -6.457932e+02 1.478236e+02 -3.610843e+02
      vertex   -6.518453e+02 1.513410e+02 -3.610025e+02
      vertex   -6.457591e+02 1.478826e+02 -3.605667e+02
    endloop
  endfacet
  facet normal 4.969867e-01 8.608061e-01 -1.096223e-01
    outer loop
      vertex   -6.457591e+02 1.478826e+02 -3.605667e+02
      vertex   -6.518453e+02 1.513410e+02 -3.610025e+02
      vertex   -6.518213e+02 1.513826e+02 -3.605667e+02
    endloop
  endfacet
  facet normal -1.406510e-14 8.120488e-15 1.000000e+00
    outer loop
      vertex   -6.464324e+02 1.467165e+02 -3.590667e+02
      vertex   -6.457591e+02 1.478826e+02 -3.590667e+02
      vertex   -6.524963e+02 1.502135e+02 -3.590667e+02
    endloop
  endfacet
  facet normal -4.210623e-14 -7.293012e-14 1.000000e+00
    outer loop
      vertex   -6.524963e+02 1.502135e+02 -3.590667e+02
      vertex   -6.457591e+02 1.478826e+02 -3.590667e+02
      vertex   -6.518213e+02 1.513826e+02 -3.590667e+02
    endloop
  endfacet
  facet normal 5.000000e-01 8.660254e-01 -0.000000e+00
    outer loop
      vertex   -6.457591e+02 1.478826e+02 -3.605667e+02
      vertex   -6.518213e+02 1.513826e+02 -3.605667e+02
      vertex   -6.457591e+02 1.478826e+02 -3.590667e+02
    endloop
  endfacet
  facet normal 5.000000e-01 8.660254e-01 0.000000e+00
    outer loop
      vertex   -6.457591e+02 1.478826e+02 -3.590667e+02
      vertex   -6.518213e+02 1.513826e+02 -3.605667e+02
      vertex   -6.518213e+02 1.513826e+02 -3.590667e+02
    endloop
  endfacet
  facet normal -5.000000e-01 -8.660254e-01 0.000000e+00
    outer loop
      vertex   -6.629997e+02 1.320210e+02 -3.605667e+02
      vertex   -6.569375e+02 1.285210e+02 -3.605667e+02
      vertex   -6.629997e+02 1.320210e+02 -3.590667e+02
    endloop
  endfacet
  facet normal -5.000000e-01 -8.660254e-01 1.657933e-14
    outer loop
      vertex   -6.629997e+02 1.320210e+02 -3.590667e+02
      vertex   -6.569375e+02 1.285210e+02 -3.605667e+02
      vertex   -6.569375e+02 1.285210e+02 -3.590667e+02
    endloop
  endfacet
  facet normal -8.660254e-01 5.000000e-01 -1.184178e-12
    outer loop
      vertex   -6.623035e+02 1.332269e+02 -3.590667e+02
      vertex   -6.622951e+02 1.332415e+02 -3.593647e+02
      vertex   -6.629997e+02 1.320210e+02 -3.590667e+02
    endloop
  endfacet
  facet normal -8.660254e-01 5.000000e-01 0.000000e+00
    outer loop
      vertex   -6.629997e+02 1.320210e+02 -3.590667e+02
      vertex   -6.622951e+02 1.332415e+02 -3.593647e+02
      vertex   -6.629997e+02 1.320210e+02 -3.605667e+02
    endloop
  endfacet
  facet normal -8.660254e-01 5.000000e-01 3.872819e-13
    outer loop
      vertex   -6.629997e+02 1.320210e+02 -3.605667e+02
      vertex   -6.622951e+02 1.332415e+02 -3.593647e+02
      vertex   -6.622700e+02 1.332850e+02 -3.596589e+02
    endloop
  endfacet
  facet normal -8.660254e-01 5.000000e-01 -3.103506e-14
    outer loop
      vertex   -6.629997e+02 1.320210e+02 -3.605667e+02
      vertex   -6.622700e+02 1.332850e+02 -3.596589e+02
      vertex   -6.629016e+02 1.321910e+02 -3.614306e+02
    endloop
  endfacet
  facet normal -8.660254e-01 5.000000e-01 -9.073964e-14
    outer loop
      vertex   -6.629016e+02 1.321910e+02 -3.614306e+02
      vertex   -6.622700e+02 1.332850e+02 -3.596589e+02
      vertex   -6.627835e+02 1.323955e+02 -3.618086e+02
    endloop
  endfacet
  facet normal -8.660254e-01 5.000000e-01 -2.525877e-15
    outer loop
      vertex   -6.627835e+02 1.323955e+02 -3.618086e+02
      vertex   -6.622700e+02 1.332850e+02 -3.596589e+02
      vertex   -6.626265e+02 1.326674e+02 -3.621250e+02
    endloop
  endfacet
  facet normal -8.660254e-01 5.000000e-01 2.902260e-13
    outer loop
      vertex   -6.626265e+02 1.326674e+02 -3.621250e+02
      vertex   -6.622700e+02 1.332850e+02 -3.596589e+02
      vertex   -6.622285e+02 1.333568e+02 -3.599456e+02
    endloop
  endfacet
  facet normal -8.660254e-01 5.000000e-01 -6.835449e-14
    outer loop
      vertex   -6.626265e+02 1.326674e+02 -3.621250e+02
      vertex   -6.622285e+02 1.333568e+02 -3.599456e+02
      vertex   -6.624384e+02 1.329932e+02 -3.623639e+02
    endloop
  endfacet
  facet normal -8.660254e-01 5.000000e-01 0.000000e+00
    outer loop
      vertex   -6.624384e+02 1.329932e+02 -3.623639e+02
      vertex   -6.622285e+02 1.333568e+02 -3.599456e+02
      vertex   -6.622285e+02 1.333568e+02 -3.625136e+02
    endloop
  endfacet
  facet normal -8.660254e-01 5.000000e-01 1.789393e-13
    outer loop
      vertex   -6.629016e+02 1.321910e+02 -3.614306e+02
      vertex   -6.629749e+02 1.320640e+02 -3.610096e+02
      vertex   -6.629997e+02 1.320210e+02 -3.605667e+02
    endloop
  endfacet
  facet normal -8.660254e-01 5.000000e-01 -3.918945e-13
    outer loop
      vertex   -6.525298e+02 1.501554e+02 -3.596589e+02
      vertex   -6.521832e+02 1.507558e+02 -3.621065e+02
      vertex   -6.525713e+02 1.500836e+02 -3.599456e+02
    endloop
  endfacet
  facet normal -8.660254e-01 5.000000e-01 -6.665153e-15
    outer loop
      vertex   -6.525713e+02 1.500836e+02 -3.599456e+02
      vertex   -6.521832e+02 1.507558e+02 -3.621065e+02
      vertex   -6.523663e+02 1.504386e+02 -3.623477e+02
    endloop
  endfacet
  facet normal -8.660254e-01 5.000000e-01 0.000000e+00
    outer loop
      vertex   -6.525713e+02 1.500836e+02 -3.599456e+02
      vertex   -6.523663e+02 1.504386e+02 -3.623477e+02
      vertex   -6.525713e+02 1.500836e+02 -3.625032e+02
    endloop
  endfacet
  facet normal -8.660254e-01 5.000000e-01 2.982565e-13
    outer loop
      vertex   -6.525047e+02 1.501989e+02 -3.593647e+02
      vertex   -6.518213e+02 1.513826e+02 -3.605667e+02
      vertex   -6.525298e+02 1.501554e+02 -3.596589e+02
    endloop
  endfacet
  facet normal -8.660254e-01 5.000000e-01 -2.045666e-13
    outer loop
      vertex   -6.525298e+02 1.501554e+02 -3.596589e+02
      vertex   -6.518213e+02 1.513826e+02 -3.605667e+02
      vertex   -6.519163e+02 1.512181e+02 -3.614174e+02
    endloop
  endfacet
  facet normal -8.660254e-01 5.000000e-01 -1.197282e-13
    outer loop
      vertex   -6.525298e+02 1.501554e+02 -3.596589e+02
      vertex   -6.519163e+02 1.512181e+02 -3.614174e+02
      vertex   -6.520307e+02 1.510198e+02 -3.617914e+02
    endloop
  endfacet
  facet normal -8.660254e-01 5.000000e-01 2.353992e-13
    outer loop
      vertex   -6.524963e+02 1.502135e+02 -3.590667e+02
      vertex   -6.518213e+02 1.513826e+02 -3.590667e+02
      vertex   -6.525047e+02 1.501989e+02 -3.593647e+02
    endloop
  endfacet
  facet normal -8.660254e-01 5.000000e-01 0.000000e+00
    outer loop
      vertex   -6.525047e+02 1.501989e+02 -3.593647e+02
      vertex   -6.518213e+02 1.513826e+02 -3.590667e+02
      vertex   -6.518213e+02 1.513826e+02 -3.605667e+02
    endloop
  endfacet
  facet normal -8.660254e-01 5.000000e-01 -2.945464e-13
    outer loop
      vertex   -6.518213e+02 1.513826e+02 -3.605667e+02
      vertex   -6.518453e+02 1.513410e+02 -3.610025e+02
      vertex   -6.519163e+02 1.512181e+02 -3.614174e+02
    endloop
  endfacet
  facet normal -8.660254e-01 5.000000e-01 -6.478850e-14
    outer loop
      vertex   -6.520307e+02 1.510198e+02 -3.617914e+02
      vertex   -6.521832e+02 1.507558e+02 -3.621065e+02
      vertex   -6.525298e+02 1.501554e+02 -3.596589e+02
    endloop
  endfacet
  facet normal 0.000000e+00 0.000000e+00 1.000000e+00
    outer loop
      vertex   -6.623035e+02 1.332269e+02 -3.590667e+02
      vertex   -6.629997e+02 1.320210e+02 -3.590667e+02
      vertex   -6.562396e+02 1.297299e+02 -3.590667e+02
    endloop
  endfacet
  facet normal 0.000000e+00 0.000000e+00 1.000000e+00
    outer loop
      vertex   -6.562396e+02 1.297299e+02 -3.590667e+02
      vertex   -6.629997e+02 1.320210e+02 -3.590667e+02
      vertex   -6.569375e+02 1.285210e+02 -3.590667e+02
    endloop
  endfacet
endsolid
