solid ASCII
  facet normal 4.463445e-01 7.730914e-01 -4.506731e-01
    outer loop
      vertex   -5.903928e+02 6.867326e+01 -3.533488e+02
      vertex   -5.843306e+02 6.517326e+01 -3.533488e+02
      vertex   -5.905486e+02 6.840326e+01 -3.539664e+02
    endloop
  endfacet
  facet normal 4.463445e-01 7.730914e-01 -4.506731e-01
    outer loop
      vertex   -5.905486e+02 6.840326e+01 -3.539664e+02
      vertex   -5.843306e+02 6.517326e+01 -3.533488e+02
      vertex   -5.844865e+02 6.490326e+01 -3.539664e+02
    endloop
  endfacet
  facet normal 4.894571e-01 8.477646e-01 -2.042718e-01
    outer loop
      vertex   -5.905486e+02 6.840326e+01 -3.539664e+02
      vertex   -5.844865e+02 6.490326e+01 -3.539664e+02
      vertex   -5.906193e+02 6.828088e+01 -3.546436e+02
    endloop
  endfacet
  facet normal 4.894571e-01 8.477646e-01 -2.042718e-01
    outer loop
      vertex   -5.906193e+02 6.828088e+01 -3.546436e+02
      vertex   -5.844865e+02 6.490326e+01 -3.539664e+02
      vertex   -5.845571e+02 6.478088e+01 -3.546436e+02
    endloop
  endfacet
  facet normal 4.992140e-01 8.646640e-01 5.605019e-02
    outer loop
      vertex   -5.906193e+02 6.828088e+01 -3.546436e+02
      vertex   -5.845571e+02 6.478088e+01 -3.546436e+02
      vertex   -5.905999e+02 6.831446e+01 -3.553343e+02
    endloop
  endfacet
  facet normal 4.992140e-01 8.646640e-01 5.605019e-02
    outer loop
      vertex   -5.905999e+02 6.831446e+01 -3.553343e+02
      vertex   -5.845571e+02 6.478088e+01 -3.546436e+02
      vertex   -5.845377e+02 6.481446e+01 -3.553343e+02
    endloop
  endfacet
  facet normal 4.749502e-01 8.226380e-01 3.125525e-01
    outer loop
      vertex   -5.905999e+02 6.831446e+01 -3.553343e+02
      vertex   -5.845377e+02 6.481446e+01 -3.553343e+02
      vertex   -5.904918e+02 6.850171e+01 -3.559914e+02
    endloop
  endfacet
  facet normal 4.749502e-01 8.226380e-01 3.125525e-01
    outer loop
      vertex   -5.904918e+02 6.850171e+01 -3.559914e+02
      vertex   -5.845377e+02 6.481446e+01 -3.553343e+02
      vertex   -5.844296e+02 6.500171e+01 -3.559914e+02
    endloop
  endfacet
  facet normal 4.183194e-01 7.245505e-01 5.477549e-01
    outer loop
      vertex   -5.904918e+02 6.850171e+01 -3.559914e+02
      vertex   -5.844296e+02 6.500171e+01 -3.559914e+02
      vertex   -5.903023e+02 6.882988e+01 -3.565702e+02
    endloop
  endfacet
  facet normal 4.183194e-01 7.245505e-01 5.477549e-01
    outer loop
      vertex   -5.903023e+02 6.882988e+01 -3.565702e+02
      vertex   -5.844296e+02 6.500171e+01 -3.559914e+02
      vertex   -5.842402e+02 6.532988e+01 -3.565702e+02
    endloop
  endfacet
  facet normal 3.331809e-01 5.770862e-01 7.456286e-01
    outer loop
      vertex   -5.903023e+02 6.882988e+01 -3.565702e+02
      vertex   -5.842402e+02 6.532988e+01 -3.565702e+02
      vertex   -5.900444e+02 6.927659e+01 -3.570311e+02
    endloop
  endfacet
  facet normal 3.331809e-01 5.770862e-01 7.456286e-01
    outer loop
      vertex   -5.900444e+02 6.927659e+01 -3.570311e+02
      vertex   -5.842402e+02 6.532988e+01 -3.565702e+02
      vertex   -5.839823e+02 6.577659e+01 -3.570311e+02
    endloop
  endfacet
  facet normal 2.253365e-01 3.902943e-01 8.926891e-01
    outer loop
      vertex   -5.900444e+02 6.927659e+01 -3.570311e+02
      vertex   -5.839823e+02 6.577659e+01 -3.570311e+02
      vertex   -5.897357e+02 6.981140e+01 -3.573429e+02
    endloop
  endfacet
  facet normal 2.253365e-01 3.902943e-01 8.926891e-01
    outer loop
      vertex   -5.897357e+02 6.981140e+01 -3.573429e+02
      vertex   -5.839823e+02 6.577659e+01 -3.570311e+02
      vertex   -5.836735e+02 6.631140e+01 -3.573429e+02
    endloop
  endfacet
  facet normal 1.021359e-01 1.769046e-01 9.789142e-01
    outer loop
      vertex   -5.897357e+02 6.981140e+01 -3.573429e+02
      vertex   -5.836735e+02 6.631140e+01 -3.573429e+02
      vertex   -5.893971e+02 7.039788e+01 -3.574842e+02
    endloop
  endfacet
  facet normal 1.021359e-01 1.769046e-01 9.789142e-01
    outer loop
      vertex   -5.893971e+02 7.039788e+01 -3.574842e+02
      vertex   -5.836735e+02 6.631140e+01 -3.573429e+02
      vertex   -5.833349e+02 6.689788e+01 -3.574842e+02
    endloop
  endfacet
  facet normal -2.802509e-02 -4.854089e-02 9.984280e-01
    outer loop
      vertex   -5.893971e+02 7.039788e+01 -3.574842e+02
      vertex   -5.833349e+02 6.689788e+01 -3.574842e+02
      vertex   -5.890517e+02 7.099604e+01 -3.574455e+02
    endloop
  endfacet
  facet normal -2.802509e-02 -4.854089e-02 9.984280e-01
    outer loop
      vertex   -5.890517e+02 7.099604e+01 -3.574455e+02
      vertex   -5.833349e+02 6.689788e+01 -3.574842e+02
      vertex   -5.829895e+02 6.749604e+01 -3.574455e+02
    endloop
  endfacet
  facet normal -1.562762e-01 -2.706784e-01 9.499005e-01
    outer loop
      vertex   -5.890517e+02 7.099604e+01 -3.574455e+02
      vertex   -5.829895e+02 6.749604e+01 -3.574455e+02
      vertex   -5.887231e+02 7.156513e+01 -3.572292e+02
    endloop
  endfacet
  facet normal -1.562762e-01 -2.706784e-01 9.499005e-01
    outer loop
      vertex   -5.887231e+02 7.156513e+01 -3.572292e+02
      vertex   -5.829895e+02 6.749604e+01 -3.574455e+02
      vertex   -5.826610e+02 6.806513e+01 -3.572292e+02
    endloop
  endfacet
  facet normal -2.738774e-01 -4.743696e-01 8.366389e-01
    outer loop
      vertex   -5.887231e+02 7.156513e+01 -3.572292e+02
      vertex   -5.826610e+02 6.806513e+01 -3.572292e+02
      vertex   -5.884337e+02 7.206637e+01 -3.568503e+02
    endloop
  endfacet
  facet normal -2.738774e-01 -4.743696e-01 8.366389e-01
    outer loop
      vertex   -5.884337e+02 7.206637e+01 -3.568503e+02
      vertex   -5.826610e+02 6.806513e+01 -3.572292e+02
      vertex   -5.823716e+02 6.856637e+01 -3.568503e+02
    endloop
  endfacet
  facet normal -3.728143e-01 -6.457333e-01 6.663617e-01
    outer loop
      vertex   -5.884337e+02 7.206637e+01 -3.568503e+02
      vertex   -5.823716e+02 6.856637e+01 -3.568503e+02
      vertex   -5.882033e+02 7.246559e+01 -3.563345e+02
    endloop
  endfacet
  facet normal -3.728143e-01 -6.457333e-01 6.663617e-01
    outer loop
      vertex   -5.882033e+02 7.246559e+01 -3.563345e+02
      vertex   -5.823716e+02 6.856637e+01 -3.568503e+02
      vertex   -5.821411e+02 6.896559e+01 -3.563345e+02
    endloop
  endfacet
  facet normal 4.463445e-01 7.730914e-01 -4.506731e-01
    outer loop
      vertex   -5.959395e+02 5.906597e+01 -3.457850e+02
      vertex   -5.898774e+02 5.556597e+01 -3.457850e+02
      vertex   -5.960954e+02 5.879597e+01 -3.464026e+02
    endloop
  endfacet
  facet normal 4.463445e-01 7.730914e-01 -4.506731e-01
    outer loop
      vertex   -5.960954e+02 5.879597e+01 -3.464026e+02
      vertex   -5.898774e+02 5.556597e+01 -3.457850e+02
      vertex   -5.900332e+02 5.529597e+01 -3.464026e+02
    endloop
  endfacet
  facet normal 4.894571e-01 8.477646e-01 -2.042718e-01
    outer loop
      vertex   -5.960954e+02 5.879597e+01 -3.464026e+02
      vertex   -5.900332e+02 5.529597e+01 -3.464026e+02
      vertex   -5.961661e+02 5.867359e+01 -3.470798e+02
    endloop
  endfacet
  facet normal 4.894571e-01 8.477646e-01 -2.042718e-01
    outer loop
      vertex   -5.961661e+02 5.867359e+01 -3.470798e+02
      vertex   -5.900332e+02 5.529597e+01 -3.464026e+02
      vertex   -5.901039e+02 5.517359e+01 -3.470798e+02
    endloop
  endfacet
  facet normal 4.992140e-01 8.646640e-01 5.605019e-02
    outer loop
      vertex   -5.961661e+02 5.867359e+01 -3.470798e+02
      vertex   -5.901039e+02 5.517359e+01 -3.470798e+02
      vertex   -5.961467e+02 5.870717e+01 -3.477705e+02
    endloop
  endfacet
  facet normal 4.992140e-01 8.646640e-01 5.605019e-02
    outer loop
      vertex   -5.961467e+02 5.870717e+01 -3.477705e+02
      vertex   -5.901039e+02 5.517359e+01 -3.470798e+02
      vertex   -5.900845e+02 5.520717e+01 -3.477705e+02
    endloop
  endfacet
  facet normal 4.749502e-01 8.226380e-01 3.125525e-01
    outer loop
      vertex   -5.961467e+02 5.870717e+01 -3.477705e+02
      vertex   -5.900845e+02 5.520717e+01 -3.477705e+02
      vertex   -5.960386e+02 5.889442e+01 -3.484276e+02
    endloop
  endfacet
  facet normal 4.749502e-01 8.226380e-01 3.125525e-01
    outer loop
      vertex   -5.960386e+02 5.889442e+01 -3.484276e+02
      vertex   -5.900845e+02 5.520717e+01 -3.477705e+02
      vertex   -5.899764e+02 5.539442e+01 -3.484276e+02
    endloop
  endfacet
  facet normal 4.183194e-01 7.245505e-01 5.477549e-01
    outer loop
      vertex   -5.960386e+02 5.889442e+01 -3.484276e+02
      vertex   -5.899764e+02 5.539442e+01 -3.484276e+02
      vertex   -5.958491e+02 5.922259e+01 -3.490064e+02
    endloop
  endfacet
  facet normal 4.183194e-01 7.245505e-01 5.477549e-01
    outer loop
      vertex   -5.958491e+02 5.922259e+01 -3.490064e+02
      vertex   -5.899764e+02 5.539442e+01 -3.484276e+02
      vertex   -5.897869e+02 5.572259e+01 -3.490064e+02
    endloop
  endfacet
  facet normal 3.331809e-01 5.770862e-01 7.456286e-01
    outer loop
      vertex   -5.958491e+02 5.922259e+01 -3.490064e+02
      vertex   -5.897869e+02 5.572259e+01 -3.490064e+02
      vertex   -5.955912e+02 5.966930e+01 -3.494674e+02
    endloop
  endfacet
  facet normal 3.331809e-01 5.770862e-01 7.456286e-01
    outer loop
      vertex   -5.955912e+02 5.966930e+01 -3.494674e+02
      vertex   -5.897869e+02 5.572259e+01 -3.490064e+02
      vertex   -5.895290e+02 5.616930e+01 -3.494674e+02
    endloop
  endfacet
  facet normal 2.253365e-01 3.902943e-01 8.926891e-01
    outer loop
      vertex   -5.955912e+02 5.966930e+01 -3.494674e+02
      vertex   -5.895290e+02 5.616930e+01 -3.494674e+02
      vertex   -5.952824e+02 6.020411e+01 -3.497791e+02
    endloop
  endfacet
  facet normal 2.253365e-01 3.902943e-01 8.926891e-01
    outer loop
      vertex   -5.952824e+02 6.020411e+01 -3.497791e+02
      vertex   -5.895290e+02 5.616930e+01 -3.494674e+02
      vertex   -5.892202e+02 5.670411e+01 -3.497791e+02
    endloop
  endfacet
  facet normal 1.021359e-01 1.769046e-01 9.789142e-01
    outer loop
      vertex   -5.952824e+02 6.020411e+01 -3.497791e+02
      vertex   -5.892202e+02 5.670411e+01 -3.497791e+02
      vertex   -5.949438e+02 6.079059e+01 -3.499204e+02
    endloop
  endfacet
  facet normal 1.021359e-01 1.769046e-01 9.789142e-01
    outer loop
      vertex   -5.949438e+02 6.079059e+01 -3.499204e+02
      vertex   -5.892202e+02 5.670411e+01 -3.497791e+02
      vertex   -5.888816e+02 5.729059e+01 -3.499204e+02
    endloop
  endfacet
  facet normal -2.802509e-02 -4.854089e-02 9.984280e-01
    outer loop
      vertex   -5.949438e+02 6.079059e+01 -3.499204e+02
      vertex   -5.888816e+02 5.729059e+01 -3.499204e+02
      vertex   -5.945985e+02 6.138875e+01 -3.498817e+02
    endloop
  endfacet
  facet normal -2.802509e-02 -4.854089e-02 9.984280e-01
    outer loop
      vertex   -5.945985e+02 6.138875e+01 -3.498817e+02
      vertex   -5.888816e+02 5.729059e+01 -3.499204e+02
      vertex   -5.885363e+02 5.788875e+01 -3.498817e+02
    endloop
  endfacet
  facet normal -1.562762e-01 -2.706784e-01 9.499005e-01
    outer loop
      vertex   -5.945985e+02 6.138875e+01 -3.498817e+02
      vertex   -5.885363e+02 5.788875e+01 -3.498817e+02
      vertex   -5.942699e+02 6.195784e+01 -3.496655e+02
    endloop
  endfacet
  facet normal -1.562762e-01 -2.706784e-01 9.499005e-01
    outer loop
      vertex   -5.942699e+02 6.195784e+01 -3.496655e+02
      vertex   -5.885363e+02 5.788875e+01 -3.498817e+02
      vertex   -5.882077e+02 5.845784e+01 -3.496655e+02
    endloop
  endfacet
  facet normal -2.738774e-01 -4.743696e-01 8.366389e-01
    outer loop
      vertex   -5.942699e+02 6.195784e+01 -3.496655e+02
      vertex   -5.882077e+02 5.845784e+01 -3.496655e+02
      vertex   -5.939805e+02 6.245908e+01 -3.492865e+02
    endloop
  endfacet
  facet normal -2.738774e-01 -4.743696e-01 8.366389e-01
    outer loop
      vertex   -5.939805e+02 6.245908e+01 -3.492865e+02
      vertex   -5.882077e+02 5.845784e+01 -3.496655e+02
      vertex   -5.879183e+02 5.895908e+01 -3.492865e+02
    endloop
  endfacet
  facet normal -3.728143e-01 -6.457333e-01 6.663617e-01
    outer loop
      vertex   -5.939805e+02 6.245908e+01 -3.492865e+02
      vertex   -5.879183e+02 5.895908e+01 -3.492865e+02
      vertex   -5.937500e+02 6.285830e+01 -3.487707e+02
    endloop
  endfacet
  facet normal -3.728143e-01 -6.457333e-01 6.663617e-01
    outer loop
      vertex   -5.937500e+02 6.285830e+01 -3.487707e+02
      vertex   -5.879183e+02 5.895908e+01 -3.492865e+02
      vertex   -5.876879e+02 5.935830e+01 -3.487707e+02
    endloop
  endfacet
  facet normal 2.816684e-01 4.878640e-01 8.262273e-01
    outer loop
      vertex   -5.882033e+02 7.246559e+01 -3.563345e+02
      vertex   -5.821411e+02 6.896559e+01 -3.563345e+02
      vertex   -5.876456e+02 7.343156e+01 -3.570950e+02
    endloop
  endfacet
  facet normal 2.816684e-01 4.878640e-01 8.262273e-01
    outer loop
      vertex   -5.876456e+02 7.343156e+01 -3.570950e+02
      vertex   -5.821411e+02 6.896559e+01 -3.563345e+02
      vertex   -5.815834e+02 6.993156e+01 -3.570950e+02
    endloop
  endfacet
  facet normal -8.660254e-01 5.000000e-01 -1.885463e-13
    outer loop
      vertex   -5.937500e+02 6.285830e+01 -3.487707e+02
      vertex   -5.903928e+02 6.867326e+01 -3.533488e+02
      vertex   -5.939805e+02 6.245908e+01 -3.492865e+02
    endloop
  endfacet
  facet normal -8.660254e-01 5.000000e-01 -2.238467e-13
    outer loop
      vertex   -5.939805e+02 6.245908e+01 -3.492865e+02
      vertex   -5.903928e+02 6.867326e+01 -3.533488e+02
      vertex   -5.905486e+02 6.840326e+01 -3.539664e+02
    endloop
  endfacet
  facet normal -8.660254e-01 5.000000e-01 -5.541219e-14
    outer loop
      vertex   -5.939805e+02 6.245908e+01 -3.492865e+02
      vertex   -5.905486e+02 6.840326e+01 -3.539664e+02
      vertex   -5.942699e+02 6.195784e+01 -3.496655e+02
    endloop
  endfacet
  facet normal -8.660254e-01 5.000000e-01 4.717773e-14
    outer loop
      vertex   -5.942699e+02 6.195784e+01 -3.496655e+02
      vertex   -5.905486e+02 6.840326e+01 -3.539664e+02
      vertex   -5.906193e+02 6.828088e+01 -3.546436e+02
    endloop
  endfacet
  facet normal -8.660254e-01 5.000000e-01 8.240945e-16
    outer loop
      vertex   -5.942699e+02 6.195784e+01 -3.496655e+02
      vertex   -5.906193e+02 6.828088e+01 -3.546436e+02
      vertex   -5.945985e+02 6.138875e+01 -3.498817e+02
    endloop
  endfacet
  facet normal -8.660254e-01 5.000000e-01 -4.815246e-14
    outer loop
      vertex   -5.945985e+02 6.138875e+01 -3.498817e+02
      vertex   -5.906193e+02 6.828088e+01 -3.546436e+02
      vertex   -5.905999e+02 6.831446e+01 -3.553343e+02
    endloop
  endfacet
  facet normal -8.660254e-01 5.000000e-01 -9.707183e-14
    outer loop
      vertex   -5.945985e+02 6.138875e+01 -3.498817e+02
      vertex   -5.905999e+02 6.831446e+01 -3.553343e+02
      vertex   -5.949438e+02 6.079059e+01 -3.499204e+02
    endloop
  endfacet
  facet normal -8.660254e-01 5.000000e-01 1.910037e-13
    outer loop
      vertex   -5.949438e+02 6.079059e+01 -3.499204e+02
      vertex   -5.905999e+02 6.831446e+01 -3.553343e+02
      vertex   -5.904918e+02 6.850171e+01 -3.559914e+02
    endloop
  endfacet
  facet normal -8.660254e-01 5.000000e-01 6.288554e-14
    outer loop
      vertex   -5.949438e+02 6.079059e+01 -3.499204e+02
      vertex   -5.904918e+02 6.850171e+01 -3.559914e+02
      vertex   -5.952824e+02 6.020411e+01 -3.497791e+02
    endloop
  endfacet
  facet normal -8.660254e-01 5.000000e-01 -4.564188e-13
    outer loop
      vertex   -5.952824e+02 6.020411e+01 -3.497791e+02
      vertex   -5.904918e+02 6.850171e+01 -3.559914e+02
      vertex   -5.903023e+02 6.882988e+01 -3.565702e+02
    endloop
  endfacet
  facet normal -8.660254e-01 5.000000e-01 -1.723815e-14
    outer loop
      vertex   -5.952824e+02 6.020411e+01 -3.497791e+02
      vertex   -5.903023e+02 6.882988e+01 -3.565702e+02
      vertex   -5.966568e+02 5.782354e+01 -3.490430e+02
    endloop
  endfacet
  facet normal -8.660254e-01 5.000000e-01 8.759120e-14
    outer loop
      vertex   -5.966568e+02 5.782354e+01 -3.490430e+02
      vertex   -5.903023e+02 6.882988e+01 -3.565702e+02
      vertex   -5.894576e+02 7.029297e+01 -3.588601e+02
    endloop
  endfacet
  facet normal -8.660254e-01 5.000000e-01 1.266393e-13
    outer loop
      vertex   -5.894576e+02 7.029297e+01 -3.588601e+02
      vertex   -5.903023e+02 6.882988e+01 -3.565702e+02
      vertex   -5.900444e+02 6.927659e+01 -3.570311e+02
    endloop
  endfacet
  facet normal -8.660254e-01 5.000000e-01 -1.942632e-14
    outer loop
      vertex   -5.894576e+02 7.029297e+01 -3.588601e+02
      vertex   -5.900444e+02 6.927659e+01 -3.570311e+02
      vertex   -5.889690e+02 7.113923e+01 -3.592021e+02
    endloop
  endfacet
  facet normal -8.660254e-01 5.000000e-01 -2.788092e-14
    outer loop
      vertex   -5.889690e+02 7.113923e+01 -3.592021e+02
      vertex   -5.900444e+02 6.927659e+01 -3.570311e+02
      vertex   -5.887084e+02 7.159067e+01 -3.591728e+02
    endloop
  endfacet
  facet normal -8.660254e-01 5.000000e-01 5.352571e-14
    outer loop
      vertex   -5.887084e+02 7.159067e+01 -3.591728e+02
      vertex   -5.900444e+02 6.927659e+01 -3.570311e+02
      vertex   -5.897357e+02 6.981140e+01 -3.573429e+02
    endloop
  endfacet
  facet normal -8.660254e-01 5.000000e-01 2.068056e-13
    outer loop
      vertex   -5.887084e+02 7.159067e+01 -3.591728e+02
      vertex   -5.897357e+02 6.981140e+01 -3.573429e+02
      vertex   -5.884604e+02 7.202018e+01 -3.590096e+02
    endloop
  endfacet
  facet normal -8.660254e-01 5.000000e-01 2.953752e-13
    outer loop
      vertex   -5.884604e+02 7.202018e+01 -3.590096e+02
      vertex   -5.897357e+02 6.981140e+01 -3.573429e+02
      vertex   -5.893971e+02 7.039788e+01 -3.574842e+02
    endloop
  endfacet
  facet normal -8.660254e-01 5.000000e-01 1.680987e-14
    outer loop
      vertex   -5.884604e+02 7.202018e+01 -3.590096e+02
      vertex   -5.893971e+02 7.039788e+01 -3.574842e+02
      vertex   -5.882420e+02 7.239847e+01 -3.587236e+02
    endloop
  endfacet
  facet normal -8.660254e-01 5.000000e-01 1.237459e-13
    outer loop
      vertex   -5.882420e+02 7.239847e+01 -3.587236e+02
      vertex   -5.893971e+02 7.039788e+01 -3.574842e+02
      vertex   -5.890517e+02 7.099604e+01 -3.574455e+02
    endloop
  endfacet
  facet normal -8.660254e-01 5.000000e-01 3.495299e-13
    outer loop
      vertex   -5.882420e+02 7.239847e+01 -3.587236e+02
      vertex   -5.890517e+02 7.099604e+01 -3.574455e+02
      vertex   -5.880681e+02 7.269977e+01 -3.583343e+02
    endloop
  endfacet
  facet normal -8.660254e-01 5.000000e-01 -1.330759e-13
    outer loop
      vertex   -5.880681e+02 7.269977e+01 -3.583343e+02
      vertex   -5.890517e+02 7.099604e+01 -3.574455e+02
      vertex   -5.887231e+02 7.156513e+01 -3.572292e+02
    endloop
  endfacet
  facet normal -8.660254e-01 5.000000e-01 5.267392e-14
    outer loop
      vertex   -5.880681e+02 7.269977e+01 -3.583343e+02
      vertex   -5.887231e+02 7.156513e+01 -3.572292e+02
      vertex   -5.884337e+02 7.206637e+01 -3.568503e+02
    endloop
  endfacet
  facet normal -8.660254e-01 5.000000e-01 6.762596e-14
    outer loop
      vertex   -5.882033e+02 7.246559e+01 -3.563345e+02
      vertex   -5.876456e+02 7.343156e+01 -3.570950e+02
      vertex   -5.884337e+02 7.206637e+01 -3.568503e+02
    endloop
  endfacet
  facet normal -8.660254e-01 5.000000e-01 -4.923031e-14
    outer loop
      vertex   -5.884337e+02 7.206637e+01 -3.568503e+02
      vertex   -5.876456e+02 7.343156e+01 -3.570950e+02
      vertex   -5.880681e+02 7.269977e+01 -3.583343e+02
    endloop
  endfacet
  facet normal -8.660254e-01 5.000000e-01 6.471495e-13
    outer loop
      vertex   -5.889690e+02 7.113923e+01 -3.592021e+02
      vertex   -5.892246e+02 7.069661e+01 -3.590954e+02
      vertex   -5.894576e+02 7.029297e+01 -3.588601e+02
    endloop
  endfacet
  facet normal -8.660254e-01 5.000000e-01 9.515457e-13
    outer loop
      vertex   -5.968515e+02 5.748640e+01 -3.486951e+02
      vertex   -5.969945e+02 5.723873e+01 -3.482583e+02
      vertex   -5.966568e+02 5.782354e+01 -3.490430e+02
    endloop
  endfacet
  facet normal -8.660254e-01 5.000000e-01 -2.036359e-13
    outer loop
      vertex   -5.966568e+02 5.782354e+01 -3.490430e+02
      vertex   -5.969945e+02 5.723873e+01 -3.482583e+02
      vertex   -5.955912e+02 5.966930e+01 -3.494674e+02
    endloop
  endfacet
  facet normal -8.660254e-01 5.000000e-01 -1.313296e-13
    outer loop
      vertex   -5.966568e+02 5.782354e+01 -3.490430e+02
      vertex   -5.955912e+02 5.966930e+01 -3.494674e+02
      vertex   -5.952824e+02 6.020411e+01 -3.497791e+02
    endloop
  endfacet
  facet normal -8.660254e-01 5.000000e-01 -1.222346e-13
    outer loop
      vertex   -5.969945e+02 5.723873e+01 -3.482583e+02
      vertex   -5.970761e+02 5.709741e+01 -3.477623e+02
      vertex   -5.955912e+02 5.966930e+01 -3.494674e+02
    endloop
  endfacet
  facet normal -8.660254e-01 5.000000e-01 2.914429e-13
    outer loop
      vertex   -5.955912e+02 5.966930e+01 -3.494674e+02
      vertex   -5.970761e+02 5.709741e+01 -3.477623e+02
      vertex   -5.958491e+02 5.922259e+01 -3.490064e+02
    endloop
  endfacet
  facet normal -8.660254e-01 5.000000e-01 -3.394650e-14
    outer loop
      vertex   -5.958491e+02 5.922259e+01 -3.490064e+02
      vertex   -5.970761e+02 5.709741e+01 -3.477623e+02
      vertex   -5.970907e+02 5.707207e+01 -3.472410e+02
    endloop
  endfacet
  facet normal -8.660254e-01 5.000000e-01 -2.796238e-14
    outer loop
      vertex   -5.958491e+02 5.922259e+01 -3.490064e+02
      vertex   -5.970907e+02 5.707207e+01 -3.472410e+02
      vertex   -5.960386e+02 5.889442e+01 -3.484276e+02
    endloop
  endfacet
  facet normal -8.660254e-01 5.000000e-01 2.475300e-14
    outer loop
      vertex   -5.960386e+02 5.889442e+01 -3.484276e+02
      vertex   -5.970907e+02 5.707207e+01 -3.472410e+02
      vertex   -5.970374e+02 5.716443e+01 -3.467299e+02
    endloop
  endfacet
  facet normal -8.660254e-01 5.000000e-01 2.803068e-14
    outer loop
      vertex   -5.960386e+02 5.889442e+01 -3.484276e+02
      vertex   -5.970374e+02 5.716443e+01 -3.467299e+02
      vertex   -5.961467e+02 5.870717e+01 -3.477705e+02
    endloop
  endfacet
  facet normal -8.660254e-01 5.000000e-01 2.375120e-14
    outer loop
      vertex   -5.961467e+02 5.870717e+01 -3.477705e+02
      vertex   -5.970374e+02 5.716443e+01 -3.467299e+02
      vertex   -5.969197e+02 5.736821e+01 -3.462639e+02
    endloop
  endfacet
  facet normal -8.660254e-01 5.000000e-01 6.763086e-14
    outer loop
      vertex   -5.961467e+02 5.870717e+01 -3.477705e+02
      vertex   -5.969197e+02 5.736821e+01 -3.462639e+02
      vertex   -5.961661e+02 5.867359e+01 -3.470798e+02
    endloop
  endfacet
  facet normal -8.660254e-01 5.000000e-01 -1.473330e-13
    outer loop
      vertex   -5.961661e+02 5.867359e+01 -3.470798e+02
      vertex   -5.969197e+02 5.736821e+01 -3.462639e+02
      vertex   -5.960954e+02 5.879597e+01 -3.464026e+02
    endloop
  endfacet
  facet normal -8.660254e-01 5.000000e-01 3.232345e-14
    outer loop
      vertex   -5.960954e+02 5.879597e+01 -3.464026e+02
      vertex   -5.969197e+02 5.736821e+01 -3.462639e+02
      vertex   -5.964972e+02 5.810000e+01 -3.450245e+02
    endloop
  endfacet
  facet normal -8.660254e-01 5.000000e-01 4.871108e-14
    outer loop
      vertex   -5.960954e+02 5.879597e+01 -3.464026e+02
      vertex   -5.964972e+02 5.810000e+01 -3.450245e+02
      vertex   -5.959395e+02 5.906597e+01 -3.457850e+02
    endloop
  endfacet
  facet normal 8.660254e-01 -5.000000e-01 9.997012e-14
    outer loop
      vertex   -5.821411e+02 6.896559e+01 -3.563345e+02
      vertex   -5.823716e+02 6.856637e+01 -3.568503e+02
      vertex   -5.815834e+02 6.993156e+01 -3.570950e+02
    endloop
  endfacet
  facet normal 8.660254e-01 -5.000000e-01 -2.620820e-15
    outer loop
      vertex   -5.815834e+02 6.993156e+01 -3.570950e+02
      vertex   -5.823716e+02 6.856637e+01 -3.568503e+02
      vertex   -5.820059e+02 6.919977e+01 -3.583343e+02
    endloop
  endfacet
  facet normal 8.660254e-01 -5.000000e-01 -9.347421e-14
    outer loop
      vertex   -5.820059e+02 6.919977e+01 -3.583343e+02
      vertex   -5.823716e+02 6.856637e+01 -3.568503e+02
      vertex   -5.826610e+02 6.806513e+01 -3.572292e+02
    endloop
  endfacet
  facet normal 8.660254e-01 -5.000000e-01 9.128345e-14
    outer loop
      vertex   -5.820059e+02 6.919977e+01 -3.583343e+02
      vertex   -5.826610e+02 6.806513e+01 -3.572292e+02
      vertex   -5.829895e+02 6.749604e+01 -3.574455e+02
    endloop
  endfacet
  facet normal 8.660254e-01 -5.000000e-01 1.791667e-14
    outer loop
      vertex   -5.820059e+02 6.919977e+01 -3.583343e+02
      vertex   -5.829895e+02 6.749604e+01 -3.574455e+02
      vertex   -5.821798e+02 6.889847e+01 -3.587236e+02
    endloop
  endfacet
  facet normal 8.660254e-01 -5.000000e-01 -2.747300e-14
    outer loop
      vertex   -5.821798e+02 6.889847e+01 -3.587236e+02
      vertex   -5.829895e+02 6.749604e+01 -3.574455e+02
      vertex   -5.833349e+02 6.689788e+01 -3.574842e+02
    endloop
  endfacet
  facet normal 8.660254e-01 -5.000000e-01 -1.632497e-13
    outer loop
      vertex   -5.821798e+02 6.889847e+01 -3.587236e+02
      vertex   -5.833349e+02 6.689788e+01 -3.574842e+02
      vertex   -5.823982e+02 6.852018e+01 -3.590096e+02
    endloop
  endfacet
  facet normal 8.660254e-01 -5.000000e-01 -2.341036e-13
    outer loop
      vertex   -5.823982e+02 6.852018e+01 -3.590096e+02
      vertex   -5.833349e+02 6.689788e+01 -3.574842e+02
      vertex   -5.836735e+02 6.631140e+01 -3.573429e+02
    endloop
  endfacet
  facet normal 8.660254e-01 -5.000000e-01 1.232794e-14
    outer loop
      vertex   -5.823982e+02 6.852018e+01 -3.590096e+02
      vertex   -5.836735e+02 6.631140e+01 -3.573429e+02
      vertex   -5.826462e+02 6.809067e+01 -3.591728e+02
    endloop
  endfacet
  facet normal 8.660254e-01 -5.000000e-01 1.251957e-13
    outer loop
      vertex   -5.826462e+02 6.809067e+01 -3.591728e+02
      vertex   -5.836735e+02 6.631140e+01 -3.573429e+02
      vertex   -5.839823e+02 6.577659e+01 -3.570311e+02
    endloop
  endfacet
  facet normal 8.660254e-01 -5.000000e-01 1.052969e-13
    outer loop
      vertex   -5.826462e+02 6.809067e+01 -3.591728e+02
      vertex   -5.839823e+02 6.577659e+01 -3.570311e+02
      vertex   -5.829069e+02 6.763923e+01 -3.592021e+02
    endloop
  endfacet
  facet normal 8.660254e-01 -5.000000e-01 1.129530e-13
    outer loop
      vertex   -5.829069e+02 6.763923e+01 -3.592021e+02
      vertex   -5.839823e+02 6.577659e+01 -3.570311e+02
      vertex   -5.833954e+02 6.679297e+01 -3.588601e+02
    endloop
  endfacet
  facet normal 8.660254e-01 -5.000000e-01 -6.939645e-13
    outer loop
      vertex   -5.829069e+02 6.763923e+01 -3.592021e+02
      vertex   -5.833954e+02 6.679297e+01 -3.588601e+02
      vertex   -5.831624e+02 6.719661e+01 -3.590954e+02
    endloop
  endfacet
  facet normal 8.660254e-01 -5.000000e-01 5.407690e-14
    outer loop
      vertex   -5.839823e+02 6.577659e+01 -3.570311e+02
      vertex   -5.842402e+02 6.532988e+01 -3.565702e+02
      vertex   -5.833954e+02 6.679297e+01 -3.588601e+02
    endloop
  endfacet
  facet normal 8.660254e-01 -5.000000e-01 1.802170e-14
    outer loop
      vertex   -5.833954e+02 6.679297e+01 -3.588601e+02
      vertex   -5.842402e+02 6.532988e+01 -3.565702e+02
      vertex   -5.892202e+02 5.670411e+01 -3.497791e+02
    endloop
  endfacet
  facet normal 8.660254e-01 -5.000000e-01 -2.168099e-14
    outer loop
      vertex   -5.833954e+02 6.679297e+01 -3.588601e+02
      vertex   -5.892202e+02 5.670411e+01 -3.497791e+02
      vertex   -5.905947e+02 5.432354e+01 -3.490430e+02
    endloop
  endfacet
  facet normal 8.660254e-01 -5.000000e-01 9.932492e-15
    outer loop
      vertex   -5.905947e+02 5.432354e+01 -3.490430e+02
      vertex   -5.892202e+02 5.670411e+01 -3.497791e+02
      vertex   -5.895290e+02 5.616930e+01 -3.494674e+02
    endloop
  endfacet
  facet normal 8.660254e-01 -5.000000e-01 1.711920e-13
    outer loop
      vertex   -5.905947e+02 5.432354e+01 -3.490430e+02
      vertex   -5.895290e+02 5.616930e+01 -3.494674e+02
      vertex   -5.909323e+02 5.373873e+01 -3.482583e+02
    endloop
  endfacet
  facet normal 8.660254e-01 -5.000000e-01 -1.181686e-13
    outer loop
      vertex   -5.909323e+02 5.373873e+01 -3.482583e+02
      vertex   -5.895290e+02 5.616930e+01 -3.494674e+02
      vertex   -5.910139e+02 5.359741e+01 -3.477623e+02
    endloop
  endfacet
  facet normal 8.660254e-01 -5.000000e-01 -2.576492e-13
    outer loop
      vertex   -5.910139e+02 5.359741e+01 -3.477623e+02
      vertex   -5.895290e+02 5.616930e+01 -3.494674e+02
      vertex   -5.897869e+02 5.572259e+01 -3.490064e+02
    endloop
  endfacet
  facet normal 8.660254e-01 -5.000000e-01 3.444899e-14
    outer loop
      vertex   -5.910139e+02 5.359741e+01 -3.477623e+02
      vertex   -5.897869e+02 5.572259e+01 -3.490064e+02
      vertex   -5.910285e+02 5.357207e+01 -3.472410e+02
    endloop
  endfacet
  facet normal 8.660254e-01 -5.000000e-01 4.393056e-14
    outer loop
      vertex   -5.910285e+02 5.357207e+01 -3.472410e+02
      vertex   -5.897869e+02 5.572259e+01 -3.490064e+02
      vertex   -5.899764e+02 5.539442e+01 -3.484276e+02
    endloop
  endfacet
  facet normal 8.660254e-01 -5.000000e-01 -2.750076e-14
    outer loop
      vertex   -5.910285e+02 5.357207e+01 -3.472410e+02
      vertex   -5.899764e+02 5.539442e+01 -3.484276e+02
      vertex   -5.909752e+02 5.366443e+01 -3.467299e+02
    endloop
  endfacet
  facet normal 8.660254e-01 -5.000000e-01 -1.338428e-14
    outer loop
      vertex   -5.909752e+02 5.366443e+01 -3.467299e+02
      vertex   -5.899764e+02 5.539442e+01 -3.484276e+02
      vertex   -5.900845e+02 5.520717e+01 -3.477705e+02
    endloop
  endfacet
  facet normal 8.660254e-01 -5.000000e-01 -3.144453e-14
    outer loop
      vertex   -5.909752e+02 5.366443e+01 -3.467299e+02
      vertex   -5.900845e+02 5.520717e+01 -3.477705e+02
      vertex   -5.908576e+02 5.386821e+01 -3.462639e+02
    endloop
  endfacet
  facet normal 8.660254e-01 -5.000000e-01 8.468465e-14
    outer loop
      vertex   -5.908576e+02 5.386821e+01 -3.462639e+02
      vertex   -5.900845e+02 5.520717e+01 -3.477705e+02
      vertex   -5.901039e+02 5.517359e+01 -3.470798e+02
    endloop
  endfacet
  facet normal 8.660254e-01 -5.000000e-01 4.886263e-15
    outer loop
      vertex   -5.908576e+02 5.386821e+01 -3.462639e+02
      vertex   -5.901039e+02 5.517359e+01 -3.470798e+02
      vertex   -5.900332e+02 5.529597e+01 -3.464026e+02
    endloop
  endfacet
  facet normal 8.660254e-01 -5.000000e-01 -2.017705e-14
    outer loop
      vertex   -5.892202e+02 5.670411e+01 -3.497791e+02
      vertex   -5.842402e+02 6.532988e+01 -3.565702e+02
      vertex   -5.888816e+02 5.729059e+01 -3.499204e+02
    endloop
  endfacet
  facet normal 8.660254e-01 -5.000000e-01 4.507835e-13
    outer loop
      vertex   -5.888816e+02 5.729059e+01 -3.499204e+02
      vertex   -5.842402e+02 6.532988e+01 -3.565702e+02
      vertex   -5.844296e+02 6.500171e+01 -3.559914e+02
    endloop
  endfacet
  facet normal 8.660254e-01 -5.000000e-01 8.649963e-14
    outer loop
      vertex   -5.888816e+02 5.729059e+01 -3.499204e+02
      vertex   -5.844296e+02 6.500171e+01 -3.559914e+02
      vertex   -5.885363e+02 5.788875e+01 -3.498817e+02
    endloop
  endfacet
  facet normal 8.660254e-01 -5.000000e-01 -2.614730e-15
    outer loop
      vertex   -5.885363e+02 5.788875e+01 -3.498817e+02
      vertex   -5.844296e+02 6.500171e+01 -3.559914e+02
      vertex   -5.845377e+02 6.481446e+01 -3.553343e+02
    endloop
  endfacet
  facet normal 8.660254e-01 -5.000000e-01 1.170372e-15
    outer loop
      vertex   -5.885363e+02 5.788875e+01 -3.498817e+02
      vertex   -5.845377e+02 6.481446e+01 -3.553343e+02
      vertex   -5.882077e+02 5.845784e+01 -3.496655e+02
    endloop
  endfacet
  facet normal 8.660254e-01 -5.000000e-01 -1.003564e-13
    outer loop
      vertex   -5.882077e+02 5.845784e+01 -3.496655e+02
      vertex   -5.845377e+02 6.481446e+01 -3.553343e+02
      vertex   -5.845571e+02 6.478088e+01 -3.546436e+02
    endloop
  endfacet
  facet normal 8.660254e-01 -5.000000e-01 5.637739e-14
    outer loop
      vertex   -5.882077e+02 5.845784e+01 -3.496655e+02
      vertex   -5.845571e+02 6.478088e+01 -3.546436e+02
      vertex   -5.879183e+02 5.895908e+01 -3.492865e+02
    endloop
  endfacet
  facet normal 8.660254e-01 -5.000000e-01 -5.286114e-14
    outer loop
      vertex   -5.879183e+02 5.895908e+01 -3.492865e+02
      vertex   -5.845571e+02 6.478088e+01 -3.546436e+02
      vertex   -5.844865e+02 6.490326e+01 -3.539664e+02
    endloop
  endfacet
  facet normal 8.660254e-01 -5.000000e-01 2.088820e-14
    outer loop
      vertex   -5.879183e+02 5.895908e+01 -3.492865e+02
      vertex   -5.844865e+02 6.490326e+01 -3.539664e+02
      vertex   -5.876879e+02 5.935830e+01 -3.487707e+02
    endloop
  endfacet
  facet normal 8.660254e-01 -5.000000e-01 1.121797e-13
    outer loop
      vertex   -5.876879e+02 5.935830e+01 -3.487707e+02
      vertex   -5.844865e+02 6.490326e+01 -3.539664e+02
      vertex   -5.843306e+02 6.517326e+01 -3.533488e+02
    endloop
  endfacet
  facet normal 8.660254e-01 -5.000000e-01 1.618707e-15
    outer loop
      vertex   -5.898774e+02 5.556597e+01 -3.457850e+02
      vertex   -5.904351e+02 5.460000e+01 -3.450245e+02
      vertex   -5.900332e+02 5.529597e+01 -3.464026e+02
    endloop
  endfacet
  facet normal 8.660254e-01 -5.000000e-01 -2.050406e-14
    outer loop
      vertex   -5.900332e+02 5.529597e+01 -3.464026e+02
      vertex   -5.904351e+02 5.460000e+01 -3.450245e+02
      vertex   -5.908576e+02 5.386821e+01 -3.462639e+02
    endloop
  endfacet
  facet normal 8.660254e-01 -5.000000e-01 -4.327443e-14
    outer loop
      vertex   -5.909323e+02 5.373873e+01 -3.482583e+02
      vertex   -5.907893e+02 5.398640e+01 -3.486951e+02
      vertex   -5.905947e+02 5.432354e+01 -3.490430e+02
    endloop
  endfacet
  facet normal 2.816684e-01 4.878640e-01 8.262273e-01
    outer loop
      vertex   -5.898774e+02 5.556597e+01 -3.457850e+02
      vertex   -5.959395e+02 5.906597e+01 -3.457850e+02
      vertex   -5.904351e+02 5.460000e+01 -3.450245e+02
    endloop
  endfacet
  facet normal 2.816684e-01 4.878640e-01 8.262273e-01
    outer loop
      vertex   -5.904351e+02 5.460000e+01 -3.450245e+02
      vertex   -5.959395e+02 5.906597e+01 -3.457850e+02
      vertex   -5.964972e+02 5.810000e+01 -3.450245e+02
    endloop
  endfacet
  facet normal -4.463445e-01 -7.730914e-01 4.506731e-01
    outer loop
      vertex   -5.908576e+02 5.386821e+01 -3.462639e+02
      vertex   -5.969197e+02 5.736821e+01 -3.462639e+02
      vertex   -5.909752e+02 5.366443e+01 -3.467299e+02
    endloop
  endfacet
  facet normal -4.463445e-01 -7.730914e-01 4.506731e-01
    outer loop
      vertex   -5.909752e+02 5.366443e+01 -3.467299e+02
      vertex   -5.969197e+02 5.736821e+01 -3.462639e+02
      vertex   -5.970374e+02 5.716443e+01 -3.467299e+02
    endloop
  endfacet
  facet normal -4.894571e-01 -8.477646e-01 2.042718e-01
    outer loop
      vertex   -5.909752e+02 5.366443e+01 -3.467299e+02
      vertex   -5.970374e+02 5.716443e+01 -3.467299e+02
      vertex   -5.910285e+02 5.357207e+01 -3.472410e+02
    endloop
  endfacet
  facet normal -4.894571e-01 -8.477646e-01 2.042718e-01
    outer loop
      vertex   -5.910285e+02 5.357207e+01 -3.472410e+02
      vertex   -5.970374e+02 5.716443e+01 -3.467299e+02
      vertex   -5.970907e+02 5.707207e+01 -3.472410e+02
    endloop
  endfacet
  facet normal -4.992140e-01 -8.646640e-01 -5.605019e-02
    outer loop
      vertex   -5.910285e+02 5.357207e+01 -3.472410e+02
      vertex   -5.970907e+02 5.707207e+01 -3.472410e+02
      vertex   -5.910139e+02 5.359741e+01 -3.477623e+02
    endloop
  endfacet
  facet normal -4.992140e-01 -8.646640e-01 -5.605019e-02
    outer loop
      vertex   -5.910139e+02 5.359741e+01 -3.477623e+02
      vertex   -5.970907e+02 5.707207e+01 -3.472410e+02
      vertex   -5.970761e+02 5.709741e+01 -3.477623e+02
    endloop
  endfacet
  facet normal -4.749502e-01 -8.226380e-01 -3.125525e-01
    outer loop
      vertex   -5.910139e+02 5.359741e+01 -3.477623e+02
      vertex   -5.970761e+02 5.709741e+01 -3.477623e+02
      vertex   -5.909323e+02 5.373873e+01 -3.482583e+02
    endloop
  endfacet
  facet normal -4.749502e-01 -8.226380e-01 -3.125525e-01
    outer loop
      vertex   -5.909323e+02 5.373873e+01 -3.482583e+02
      vertex   -5.970761e+02 5.709741e+01 -3.477623e+02
      vertex   -5.969945e+02 5.723873e+01 -3.482583e+02
    endloop
  endfacet
  facet normal -4.183194e-01 -7.245505e-01 -5.477549e-01
    outer loop
      vertex   -5.909323e+02 5.373873e+01 -3.482583e+02
      vertex   -5.969945e+02 5.723873e+01 -3.482583e+02
      vertex   -5.907893e+02 5.398640e+01 -3.486951e+02
    endloop
  endfacet
  facet normal -4.183194e-01 -7.245505e-01 -5.477549e-01
    outer loop
      vertex   -5.907893e+02 5.398640e+01 -3.486951e+02
      vertex   -5.969945e+02 5.723873e+01 -3.482583e+02
      vertex   -5.968515e+02 5.748640e+01 -3.486951e+02
    endloop
  endfacet
  facet normal -3.331809e-01 -5.770862e-01 -7.456286e-01
    outer loop
      vertex   -5.907893e+02 5.398640e+01 -3.486951e+02
      vertex   -5.968515e+02 5.748640e+01 -3.486951e+02
      vertex   -5.905947e+02 5.432354e+01 -3.490430e+02
    endloop
  endfacet
  facet normal -3.331809e-01 -5.770862e-01 -7.456286e-01
    outer loop
      vertex   -5.905947e+02 5.432354e+01 -3.490430e+02
      vertex   -5.968515e+02 5.748640e+01 -3.486951e+02
      vertex   -5.966568e+02 5.782354e+01 -3.490430e+02
    endloop
  endfacet
  facet normal -2.816684e-01 -4.878640e-01 -8.262273e-01
    outer loop
      vertex   -5.905947e+02 5.432354e+01 -3.490430e+02
      vertex   -5.966568e+02 5.782354e+01 -3.490430e+02
      vertex   -5.833954e+02 6.679297e+01 -3.588601e+02
    endloop
  endfacet
  facet normal -2.816684e-01 -4.878640e-01 -8.262273e-01
    outer loop
      vertex   -5.833954e+02 6.679297e+01 -3.588601e+02
      vertex   -5.966568e+02 5.782354e+01 -3.490430e+02
      vertex   -5.894576e+02 7.029297e+01 -3.588601e+02
    endloop
  endfacet
  facet normal 3.728143e-01 6.457333e-01 -6.663617e-01
    outer loop
      vertex   -5.880681e+02 7.269977e+01 -3.583343e+02
      vertex   -5.820059e+02 6.919977e+01 -3.583343e+02
      vertex   -5.882420e+02 7.239847e+01 -3.587236e+02
    endloop
  endfacet
  facet normal 3.728143e-01 6.457333e-01 -6.663617e-01
    outer loop
      vertex   -5.882420e+02 7.239847e+01 -3.587236e+02
      vertex   -5.820059e+02 6.919977e+01 -3.583343e+02
      vertex   -5.821798e+02 6.889847e+01 -3.587236e+02
    endloop
  endfacet
  facet normal 2.738774e-01 4.743696e-01 -8.366389e-01
    outer loop
      vertex   -5.882420e+02 7.239847e+01 -3.587236e+02
      vertex   -5.821798e+02 6.889847e+01 -3.587236e+02
      vertex   -5.884604e+02 7.202018e+01 -3.590096e+02
    endloop
  endfacet
  facet normal 2.738774e-01 4.743696e-01 -8.366389e-01
    outer loop
      vertex   -5.884604e+02 7.202018e+01 -3.590096e+02
      vertex   -5.821798e+02 6.889847e+01 -3.587236e+02
      vertex   -5.823982e+02 6.852018e+01 -3.590096e+02
    endloop
  endfacet
  facet normal 1.562762e-01 2.706784e-01 -9.499005e-01
    outer loop
      vertex   -5.884604e+02 7.202018e+01 -3.590096e+02
      vertex   -5.823982e+02 6.852018e+01 -3.590096e+02
      vertex   -5.887084e+02 7.159067e+01 -3.591728e+02
    endloop
  endfacet
  facet normal 1.562762e-01 2.706784e-01 -9.499005e-01
    outer loop
      vertex   -5.887084e+02 7.159067e+01 -3.591728e+02
      vertex   -5.823982e+02 6.852018e+01 -3.590096e+02
      vertex   -5.826462e+02 6.809067e+01 -3.591728e+02
    endloop
  endfacet
  facet normal 2.802509e-02 4.854089e-02 -9.984280e-01
    outer loop
      vertex   -5.887084e+02 7.159067e+01 -3.591728e+02
      vertex   -5.826462e+02 6.809067e+01 -3.591728e+02
      vertex   -5.889690e+02 7.113923e+01 -3.592021e+02
    endloop
  endfacet
  facet normal 2.802509e-02 4.854089e-02 -9.984280e-01
    outer loop
      vertex   -5.889690e+02 7.113923e+01 -3.592021e+02
      vertex   -5.826462e+02 6.809067e+01 -3.591728e+02
      vertex   -5.829069e+02 6.763923e+01 -3.592021e+02
    endloop
  endfacet
  facet normal -1.021359e-01 -1.769046e-01 -9.789142e-01
    outer loop
      vertex   -5.889690e+02 7.113923e+01 -3.592021e+02
      vertex   -5.829069e+02 6.763923e+01 -3.592021e+02
      vertex   -5.892246e+02 7.069661e+01 -3.590954e+02
    endloop
  endfacet
  facet normal -1.021359e-01 -1.769046e-01 -9.789142e-01
    outer loop
      vertex   -5.892246e+02 7.069661e+01 -3.590954e+02
      vertex   -5.829069e+02 6.763923e+01 -3.592021e+02
      vertex   -5.831624e+02 6.719661e+01 -3.590954e+02
    endloop
  endfacet
  facet normal -2.253365e-01 -3.902943e-01 -8.926891e-01
    outer loop
      vertex   -5.892246e+02 7.069661e+01 -3.590954e+02
      vertex   -5.831624e+02 6.719661e+01 -3.590954e+02
      vertex   -5.894576e+02 7.029297e+01 -3.588601e+02
    endloop
  endfacet
  facet normal -2.253365e-01 -3.902943e-01 -8.926891e-01
    outer loop
      vertex   -5.894576e+02 7.029297e+01 -3.588601e+02
      vertex   -5.831624e+02 6.719661e+01 -3.590954e+02
      vertex   -5.833954e+02 6.679297e+01 -3.588601e+02
    endloop
  endfacet
  facet normal -4.131137e-01 -7.155339e-01 5.633368e-01
    outer loop
      vertex   -5.969197e+02 5.736821e+01 -3.462639e+02
      vertex   -5.908576e+02 5.386821e+01 -3.462639e+02
      vertex   -5.964972e+02 5.810000e+01 -3.450245e+02
    endloop
  endfacet
  facet normal -4.131137e-01 -7.155339e-01 5.633368e-01
    outer loop
      vertex   -5.964972e+02 5.810000e+01 -3.450245e+02
      vertex   -5.908576e+02 5.386821e+01 -3.462639e+02
      vertex   -5.904351e+02 5.460000e+01 -3.450245e+02
    endloop
  endfacet
  facet normal 4.131137e-01 7.155339e-01 -5.633368e-01
    outer loop
      vertex   -5.820059e+02 6.919977e+01 -3.583343e+02
      vertex   -5.880681e+02 7.269977e+01 -3.583343e+02
      vertex   -5.815834e+02 6.993156e+01 -3.570950e+02
    endloop
  endfacet
  facet normal 4.131137e-01 7.155339e-01 -5.633368e-01
    outer loop
      vertex   -5.815834e+02 6.993156e+01 -3.570950e+02
      vertex   -5.880681e+02 7.269977e+01 -3.583343e+02
      vertex   -5.876456e+02 7.343156e+01 -3.570950e+02
    endloop
  endfacet
  facet normal 2.816684e-01 4.878640e-01 8.262273e-01
    outer loop
      vertex   -5.843306e+02 6.517326e+01 -3.533488e+02
      vertex   -5.903928e+02 6.867326e+01 -3.533488e+02
      vertex   -5.876879e+02 5.935830e+01 -3.487707e+02
    endloop
  endfacet
  facet normal 2.816684e-01 4.878640e-01 8.262273e-01
    outer loop
      vertex   -5.876879e+02 5.935830e+01 -3.487707e+02
      vertex   -5.903928e+02 6.867326e+01 -3.533488e+02
      vertex   -5.937500e+02 6.285830e+01 -3.487707e+02
    endloop
  endfacet
endsolid
