solid ASCII
  facet normal -6.123724e-01 3.535534e-01 -7.071068e-01
    outer loop
      vertex   -5.407262e+02 1.161857e+02 -2.848196e+02
      vertex   -5.385634e+02 1.158336e+02 -2.868687e+02
      vertex   -5.403018e+02 1.158227e+02 -2.853687e+02
    endloop
  endfacet
  facet normal -6.123724e-01 3.535534e-01 -7.071068e-01
    outer loop
      vertex   -5.403018e+02 1.158227e+02 -2.853687e+02
      vertex   -5.385634e+02 1.158336e+02 -2.868687e+02
      vertex   -5.391823e+02 1.156404e+02 -2.864293e+02
    endloop
  endfacet
  facet normal -6.123724e-01 3.535534e-01 -7.071068e-01
    outer loop
      vertex   -5.403018e+02 1.158227e+02 -2.853687e+02
      vertex   -5.391823e+02 1.156404e+02 -2.864293e+02
      vertex   -5.397752e+02 1.156367e+02 -2.859177e+02
    endloop
  endfacet
  facet normal -6.123724e-01 3.535534e-01 -7.071068e-01
    outer loop
      vertex   -5.385634e+02 1.158336e+02 -2.868687e+02
      vertex   -5.407262e+02 1.161857e+02 -2.848196e+02
      vertex   -5.379608e+02 1.162031e+02 -2.872058e+02
    endloop
  endfacet
  facet normal -6.123724e-01 3.535534e-01 -7.071068e-01
    outer loop
      vertex   -5.379608e+02 1.162031e+02 -2.872058e+02
      vertex   -5.407262e+02 1.161857e+02 -2.848196e+02
      vertex   -5.410194e+02 1.167011e+02 -2.843080e+02
    endloop
  endfacet
  facet normal -6.123724e-01 3.535534e-01 -7.071068e-01
    outer loop
      vertex   -5.379608e+02 1.162031e+02 -2.872058e+02
      vertex   -5.410194e+02 1.167011e+02 -2.843080e+02
      vertex   -5.374155e+02 1.167238e+02 -2.874177e+02
    endloop
  endfacet
  facet normal -6.123724e-01 3.535534e-01 -7.071068e-01
    outer loop
      vertex   -5.374155e+02 1.167238e+02 -2.874177e+02
      vertex   -5.410194e+02 1.167011e+02 -2.843080e+02
      vertex   -5.411615e+02 1.173336e+02 -2.838687e+02
    endloop
  endfacet
  facet normal -6.123724e-01 3.535534e-01 -7.071068e-01
    outer loop
      vertex   -5.374155e+02 1.167238e+02 -2.874177e+02
      vertex   -5.411615e+02 1.173336e+02 -2.838687e+02
      vertex   -5.369647e+02 1.173601e+02 -2.874900e+02
    endloop
  endfacet
  facet normal -6.123724e-01 3.535534e-01 -7.071068e-01
    outer loop
      vertex   -5.369647e+02 1.173601e+02 -2.874900e+02
      vertex   -5.411615e+02 1.173336e+02 -2.838687e+02
      vertex   -5.411428e+02 1.180403e+02 -2.835315e+02
    endloop
  endfacet
  facet normal -6.123724e-01 3.535534e-01 -7.071068e-01
    outer loop
      vertex   -5.369647e+02 1.173601e+02 -2.874900e+02
      vertex   -5.411428e+02 1.180403e+02 -2.835315e+02
      vertex   -5.366391e+02 1.180686e+02 -2.874177e+02
    endloop
  endfacet
  facet normal -6.123724e-01 3.535534e-01 -7.071068e-01
    outer loop
      vertex   -5.366391e+02 1.180686e+02 -2.874177e+02
      vertex   -5.411428e+02 1.180403e+02 -2.835315e+02
      vertex   -5.409646e+02 1.187728e+02 -2.833196e+02
    endloop
  endfacet
  facet normal -6.123724e-01 3.535534e-01 -7.071068e-01
    outer loop
      vertex   -5.366391e+02 1.180686e+02 -2.874177e+02
      vertex   -5.409646e+02 1.187728e+02 -2.833196e+02
      vertex   -5.364608e+02 1.188012e+02 -2.872058e+02
    endloop
  endfacet
  facet normal -6.123724e-01 3.535534e-01 -7.071068e-01
    outer loop
      vertex   -5.364608e+02 1.188012e+02 -2.872058e+02
      vertex   -5.409646e+02 1.187728e+02 -2.833196e+02
      vertex   -5.406389e+02 1.194814e+02 -2.832473e+02
    endloop
  endfacet
  facet normal -6.123724e-01 3.535534e-01 -7.071068e-01
    outer loop
      vertex   -5.364608e+02 1.188012e+02 -2.872058e+02
      vertex   -5.406389e+02 1.194814e+02 -2.832473e+02
      vertex   -5.364421e+02 1.195079e+02 -2.868687e+02
    endloop
  endfacet
  facet normal -6.123724e-01 3.535534e-01 -7.071068e-01
    outer loop
      vertex   -5.364421e+02 1.195079e+02 -2.868687e+02
      vertex   -5.406389e+02 1.194814e+02 -2.832473e+02
      vertex   -5.401881e+02 1.201177e+02 -2.833196e+02
    endloop
  endfacet
  facet normal -6.123724e-01 3.535534e-01 -7.071068e-01
    outer loop
      vertex   -5.364421e+02 1.195079e+02 -2.868687e+02
      vertex   -5.401881e+02 1.201177e+02 -2.833196e+02
      vertex   -5.365842e+02 1.201404e+02 -2.864293e+02
    endloop
  endfacet
  facet normal -6.123724e-01 3.535534e-01 -7.071068e-01
    outer loop
      vertex   -5.365842e+02 1.201404e+02 -2.864293e+02
      vertex   -5.401881e+02 1.201177e+02 -2.833196e+02
      vertex   -5.396428e+02 1.206383e+02 -2.835315e+02
    endloop
  endfacet
  facet normal -6.123724e-01 3.535534e-01 -7.071068e-01
    outer loop
      vertex   -5.365842e+02 1.201404e+02 -2.864293e+02
      vertex   -5.396428e+02 1.206383e+02 -2.835315e+02
      vertex   -5.368775e+02 1.206558e+02 -2.859177e+02
    endloop
  endfacet
  facet normal -6.123724e-01 3.535534e-01 -7.071068e-01
    outer loop
      vertex   -5.368775e+02 1.206558e+02 -2.859177e+02
      vertex   -5.396428e+02 1.206383e+02 -2.835315e+02
      vertex   -5.390402e+02 1.210079e+02 -2.838687e+02
    endloop
  endfacet
  facet normal -6.123724e-01 3.535534e-01 -7.071068e-01
    outer loop
      vertex   -5.368775e+02 1.206558e+02 -2.859177e+02
      vertex   -5.390402e+02 1.210079e+02 -2.838687e+02
      vertex   -5.373018e+02 1.210188e+02 -2.853687e+02
    endloop
  endfacet
  facet normal -6.123724e-01 3.535534e-01 -7.071068e-01
    outer loop
      vertex   -5.373018e+02 1.210188e+02 -2.853687e+02
      vertex   -5.390402e+02 1.210079e+02 -2.838687e+02
      vertex   -5.384213e+02 1.212011e+02 -2.843080e+02
    endloop
  endfacet
  facet normal -6.123724e-01 3.535534e-01 -7.071068e-01
    outer loop
      vertex   -5.373018e+02 1.210188e+02 -2.853687e+02
      vertex   -5.384213e+02 1.212011e+02 -2.843080e+02
      vertex   -5.378284e+02 1.212048e+02 -2.848196e+02
    endloop
  endfacet
  facet normal -4.157918e-01 -9.047644e-01 -9.229596e-02
    outer loop
      vertex   -5.397752e+02 1.156367e+02 -2.859177e+02
      vertex   -5.304365e+02 1.102450e+02 -2.751343e+02
      vertex   -5.403018e+02 1.158227e+02 -2.853687e+02
    endloop
  endfacet
  facet normal -4.157918e-01 -9.047644e-01 -9.229596e-02
    outer loop
      vertex   -5.403018e+02 1.158227e+02 -2.853687e+02
      vertex   -5.304365e+02 1.102450e+02 -2.751343e+02
      vertex   -5.309631e+02 1.104310e+02 -2.745853e+02
    endloop
  endfacet
  facet normal -5.756531e-01 -8.124685e-01 9.229596e-02
    outer loop
      vertex   -5.403018e+02 1.158227e+02 -2.853687e+02
      vertex   -5.309631e+02 1.104310e+02 -2.745853e+02
      vertex   -5.407262e+02 1.161857e+02 -2.848196e+02
    endloop
  endfacet
  facet normal -5.756531e-01 -8.124685e-01 9.229596e-02
    outer loop
      vertex   -5.407262e+02 1.161857e+02 -2.848196e+02
      vertex   -5.309631e+02 1.104310e+02 -2.745853e+02
      vertex   -5.313875e+02 1.107940e+02 -2.740362e+02
    endloop
  endfacet
  facet normal -6.962846e-01 -6.648041e-01 2.705980e-01
    outer loop
      vertex   -5.407262e+02 1.161857e+02 -2.848196e+02
      vertex   -5.313875e+02 1.107940e+02 -2.740362e+02
      vertex   -5.410194e+02 1.167011e+02 -2.843080e+02
    endloop
  endfacet
  facet normal -6.962846e-01 -6.648041e-01 2.705980e-01
    outer loop
      vertex   -5.410194e+02 1.167011e+02 -2.843080e+02
      vertex   -5.313875e+02 1.107940e+02 -2.740362e+02
      vertex   -5.316807e+02 1.113094e+02 -2.735246e+02
    endloop
  endfacet
  facet normal -7.694654e-01 -4.718345e-01 4.304593e-01
    outer loop
      vertex   -5.410194e+02 1.167011e+02 -2.843080e+02
      vertex   -5.316807e+02 1.113094e+02 -2.735246e+02
      vertex   -5.411615e+02 1.173336e+02 -2.838687e+02
    endloop
  endfacet
  facet normal -7.694654e-01 -4.718345e-01 4.304593e-01
    outer loop
      vertex   -5.411615e+02 1.173336e+02 -2.838687e+02
      vertex   -5.316807e+02 1.113094e+02 -2.735246e+02
      vertex   -5.318228e+02 1.119419e+02 -2.730853e+02
    endloop
  endfacet
  facet normal -7.902084e-01 -2.467101e-01 5.609855e-01
    outer loop
      vertex   -5.411615e+02 1.173336e+02 -2.838687e+02
      vertex   -5.318228e+02 1.119419e+02 -2.730853e+02
      vertex   -5.411428e+02 1.180403e+02 -2.835315e+02
    endloop
  endfacet
  facet normal -7.902084e-01 -2.467101e-01 5.609855e-01
    outer loop
      vertex   -5.411428e+02 1.180403e+02 -2.835315e+02
      vertex   -5.318228e+02 1.119419e+02 -2.730853e+02
      vertex   -5.318041e+02 1.126486e+02 -2.727482e+02
    endloop
  endfacet
  facet normal -7.571001e-01 -4.772833e-03 6.532815e-01
    outer loop
      vertex   -5.411428e+02 1.180403e+02 -2.835315e+02
      vertex   -5.318041e+02 1.126486e+02 -2.727482e+02
      vertex   -5.409646e+02 1.187728e+02 -2.833196e+02
    endloop
  endfacet
  facet normal -7.571001e-01 -4.772833e-03 6.532815e-01
    outer loop
      vertex   -5.409646e+02 1.187728e+02 -2.833196e+02
      vertex   -5.318041e+02 1.126486e+02 -2.727482e+02
      vertex   -5.316259e+02 1.133811e+02 -2.725362e+02
    endloop
  endfacet
  facet normal -6.723966e-01 2.374897e-01 7.010574e-01
    outer loop
      vertex   -5.409646e+02 1.187728e+02 -2.833196e+02
      vertex   -5.316259e+02 1.133811e+02 -2.725362e+02
      vertex   -5.406389e+02 1.194814e+02 -2.832473e+02
    endloop
  endfacet
  facet normal -6.723966e-01 2.374897e-01 7.010574e-01
    outer loop
      vertex   -5.406389e+02 1.194814e+02 -2.832473e+02
      vertex   -5.316259e+02 1.133811e+02 -2.725362e+02
      vertex   -5.313003e+02 1.140897e+02 -2.724640e+02
    endloop
  endfacet
  facet normal -5.418704e-01 4.635677e-01 7.010574e-01
    outer loop
      vertex   -5.406389e+02 1.194814e+02 -2.832473e+02
      vertex   -5.313003e+02 1.140897e+02 -2.724640e+02
      vertex   -5.401881e+02 1.201177e+02 -2.833196e+02
    endloop
  endfacet
  facet normal -5.418704e-01 4.635677e-01 7.010574e-01
    outer loop
      vertex   -5.401881e+02 1.201177e+02 -2.833196e+02
      vertex   -5.313003e+02 1.140897e+02 -2.724640e+02
      vertex   -5.308494e+02 1.147260e+02 -2.725362e+02
    endloop
  endfacet
  facet normal -3.744166e-01 6.580543e-01 6.532815e-01
    outer loop
      vertex   -5.401881e+02 1.201177e+02 -2.833196e+02
      vertex   -5.308494e+02 1.147260e+02 -2.725362e+02
      vertex   -5.396428e+02 1.206383e+02 -2.835315e+02
    endloop
  endfacet
  facet normal -3.744166e-01 6.580543e-01 6.532815e-01
    outer loop
      vertex   -5.396428e+02 1.206383e+02 -2.835315e+02
      vertex   -5.308494e+02 1.147260e+02 -2.725362e+02
      vertex   -5.303041e+02 1.152466e+02 -2.727482e+02
    endloop
  endfacet
  facet normal -1.814470e-01 8.076956e-01 5.609855e-01
    outer loop
      vertex   -5.396428e+02 1.206383e+02 -2.835315e+02
      vertex   -5.303041e+02 1.152466e+02 -2.727482e+02
      vertex   -5.390402e+02 1.210079e+02 -2.838687e+02
    endloop
  endfacet
  facet normal -1.814470e-01 8.076956e-01 5.609855e-01
    outer loop
      vertex   -5.390402e+02 1.210079e+02 -2.838687e+02
      vertex   -5.303041e+02 1.152466e+02 -2.727482e+02
      vertex   -5.297015e+02 1.156162e+02 -2.730853e+02
    endloop
  endfacet
  facet normal 2.388795e-02 9.022938e-01 4.304593e-01
    outer loop
      vertex   -5.390402e+02 1.210079e+02 -2.838687e+02
      vertex   -5.297015e+02 1.156162e+02 -2.730853e+02
      vertex   -5.384213e+02 1.212011e+02 -2.843080e+02
    endloop
  endfacet
  facet normal 2.388795e-02 9.022938e-01 4.304593e-01
    outer loop
      vertex   -5.384213e+02 1.212011e+02 -2.843080e+02
      vertex   -5.297015e+02 1.156162e+02 -2.730853e+02
      vertex   -5.290827e+02 1.158094e+02 -2.735246e+02
    endloop
  endfacet
  facet normal 2.275950e-01 9.354022e-01 2.705981e-01
    outer loop
      vertex   -5.384213e+02 1.212011e+02 -2.843080e+02
      vertex   -5.290827e+02 1.158094e+02 -2.735246e+02
      vertex   -5.378284e+02 1.212048e+02 -2.848196e+02
    endloop
  endfacet
  facet normal 2.275950e-01 9.354022e-01 2.705981e-01
    outer loop
      vertex   -5.378284e+02 1.212048e+02 -2.848196e+02
      vertex   -5.290827e+02 1.158094e+02 -2.735246e+02
      vertex   -5.284897e+02 1.158131e+02 -2.740362e+02
    endloop
  endfacet
  facet normal 4.157918e-01 9.047644e-01 9.229596e-02
    outer loop
      vertex   -5.378284e+02 1.212048e+02 -2.848196e+02
      vertex   -5.284897e+02 1.158131e+02 -2.740362e+02
      vertex   -5.373018e+02 1.210188e+02 -2.853687e+02
    endloop
  endfacet
  facet normal 4.157918e-01 9.047644e-01 9.229596e-02
    outer loop
      vertex   -5.373018e+02 1.210188e+02 -2.853687e+02
      vertex   -5.284897e+02 1.158131e+02 -2.740362e+02
      vertex   -5.279631e+02 1.156271e+02 -2.745853e+02
    endloop
  endfacet
  facet normal 5.756531e-01 8.124685e-01 -9.229596e-02
    outer loop
      vertex   -5.373018e+02 1.210188e+02 -2.853687e+02
      vertex   -5.279631e+02 1.156271e+02 -2.745853e+02
      vertex   -5.368775e+02 1.206558e+02 -2.859177e+02
    endloop
  endfacet
  facet normal 5.756531e-01 8.124685e-01 -9.229596e-02
    outer loop
      vertex   -5.368775e+02 1.206558e+02 -2.859177e+02
      vertex   -5.279631e+02 1.156271e+02 -2.745853e+02
      vertex   -5.275388e+02 1.152641e+02 -2.751343e+02
    endloop
  endfacet
  facet normal 6.962846e-01 6.648041e-01 -2.705980e-01
    outer loop
      vertex   -5.368775e+02 1.206558e+02 -2.859177e+02
      vertex   -5.275388e+02 1.152641e+02 -2.751343e+02
      vertex   -5.365842e+02 1.201404e+02 -2.864293e+02
    endloop
  endfacet
  facet normal 6.962846e-01 6.648041e-01 -2.705980e-01
    outer loop
      vertex   -5.365842e+02 1.201404e+02 -2.864293e+02
      vertex   -5.275388e+02 1.152641e+02 -2.751343e+02
      vertex   -5.272455e+02 1.147487e+02 -2.756459e+02
    endloop
  endfacet
  facet normal 7.694654e-01 4.718345e-01 -4.304593e-01
    outer loop
      vertex   -5.365842e+02 1.201404e+02 -2.864293e+02
      vertex   -5.272455e+02 1.147487e+02 -2.756459e+02
      vertex   -5.364421e+02 1.195079e+02 -2.868687e+02
    endloop
  endfacet
  facet normal 7.694654e-01 4.718345e-01 -4.304593e-01
    outer loop
      vertex   -5.364421e+02 1.195079e+02 -2.868687e+02
      vertex   -5.272455e+02 1.147487e+02 -2.756459e+02
      vertex   -5.271034e+02 1.141162e+02 -2.760853e+02
    endloop
  endfacet
  facet normal 7.902084e-01 2.467101e-01 -5.609855e-01
    outer loop
      vertex   -5.364421e+02 1.195079e+02 -2.868687e+02
      vertex   -5.271034e+02 1.141162e+02 -2.760853e+02
      vertex   -5.364608e+02 1.188012e+02 -2.872058e+02
    endloop
  endfacet
  facet normal 7.902084e-01 2.467101e-01 -5.609855e-01
    outer loop
      vertex   -5.364608e+02 1.188012e+02 -2.872058e+02
      vertex   -5.271034e+02 1.141162e+02 -2.760853e+02
      vertex   -5.271222e+02 1.134095e+02 -2.764224e+02
    endloop
  endfacet
  facet normal 7.571001e-01 4.772833e-03 -6.532815e-01
    outer loop
      vertex   -5.364608e+02 1.188012e+02 -2.872058e+02
      vertex   -5.271222e+02 1.134095e+02 -2.764224e+02
      vertex   -5.366391e+02 1.180686e+02 -2.874177e+02
    endloop
  endfacet
  facet normal 7.571001e-01 4.772833e-03 -6.532815e-01
    outer loop
      vertex   -5.366391e+02 1.180686e+02 -2.874177e+02
      vertex   -5.271222e+02 1.134095e+02 -2.764224e+02
      vertex   -5.273004e+02 1.126770e+02 -2.766343e+02
    endloop
  endfacet
  facet normal 6.723966e-01 -2.374897e-01 -7.010574e-01
    outer loop
      vertex   -5.366391e+02 1.180686e+02 -2.874177e+02
      vertex   -5.273004e+02 1.126770e+02 -2.766343e+02
      vertex   -5.369647e+02 1.173601e+02 -2.874900e+02
    endloop
  endfacet
  facet normal 6.723966e-01 -2.374897e-01 -7.010574e-01
    outer loop
      vertex   -5.369647e+02 1.173601e+02 -2.874900e+02
      vertex   -5.273004e+02 1.126770e+02 -2.766343e+02
      vertex   -5.276260e+02 1.119684e+02 -2.767066e+02
    endloop
  endfacet
  facet normal 5.418704e-01 -4.635677e-01 -7.010574e-01
    outer loop
      vertex   -5.369647e+02 1.173601e+02 -2.874900e+02
      vertex   -5.276260e+02 1.119684e+02 -2.767066e+02
      vertex   -5.374155e+02 1.167238e+02 -2.874177e+02
    endloop
  endfacet
  facet normal 5.418704e-01 -4.635677e-01 -7.010574e-01
    outer loop
      vertex   -5.374155e+02 1.167238e+02 -2.874177e+02
      vertex   -5.276260e+02 1.119684e+02 -2.767066e+02
      vertex   -5.280768e+02 1.113321e+02 -2.766343e+02
    endloop
  endfacet
  facet normal 3.744166e-01 -6.580543e-01 -6.532815e-01
    outer loop
      vertex   -5.374155e+02 1.167238e+02 -2.874177e+02
      vertex   -5.280768e+02 1.113321e+02 -2.766343e+02
      vertex   -5.379608e+02 1.162031e+02 -2.872058e+02
    endloop
  endfacet
  facet normal 3.744166e-01 -6.580543e-01 -6.532815e-01
    outer loop
      vertex   -5.379608e+02 1.162031e+02 -2.872058e+02
      vertex   -5.280768e+02 1.113321e+02 -2.766343e+02
      vertex   -5.286222e+02 1.108114e+02 -2.764224e+02
    endloop
  endfacet
  facet normal 1.814470e-01 -8.076956e-01 -5.609855e-01
    outer loop
      vertex   -5.379608e+02 1.162031e+02 -2.872058e+02
      vertex   -5.286222e+02 1.108114e+02 -2.764224e+02
      vertex   -5.385634e+02 1.158336e+02 -2.868687e+02
    endloop
  endfacet
  facet normal 1.814470e-01 -8.076956e-01 -5.609855e-01
    outer loop
      vertex   -5.385634e+02 1.158336e+02 -2.868687e+02
      vertex   -5.286222e+02 1.108114e+02 -2.764224e+02
      vertex   -5.292248e+02 1.104419e+02 -2.760853e+02
    endloop
  endfacet
  facet normal -2.388795e-02 -9.022938e-01 -4.304593e-01
    outer loop
      vertex   -5.385634e+02 1.158336e+02 -2.868687e+02
      vertex   -5.292248e+02 1.104419e+02 -2.760853e+02
      vertex   -5.391823e+02 1.156404e+02 -2.864293e+02
    endloop
  endfacet
  facet normal -2.388795e-02 -9.022938e-01 -4.304593e-01
    outer loop
      vertex   -5.391823e+02 1.156404e+02 -2.864293e+02
      vertex   -5.292248e+02 1.104419e+02 -2.760853e+02
      vertex   -5.298436e+02 1.102487e+02 -2.756459e+02
    endloop
  endfacet
  facet normal -2.275950e-01 -9.354022e-01 -2.705981e-01
    outer loop
      vertex   -5.391823e+02 1.156404e+02 -2.864293e+02
      vertex   -5.298436e+02 1.102487e+02 -2.756459e+02
      vertex   -5.397752e+02 1.156367e+02 -2.859177e+02
    endloop
  endfacet
  facet normal -2.275950e-01 -9.354022e-01 -2.705981e-01
    outer loop
      vertex   -5.397752e+02 1.156367e+02 -2.859177e+02
      vertex   -5.298436e+02 1.102487e+02 -2.756459e+02
      vertex   -5.304365e+02 1.102450e+02 -2.751343e+02
    endloop
  endfacet
  facet normal -5.756531e-01 -8.124685e-01 9.229596e-02
    outer loop
      vertex   -5.220488e+02 1.054023e+02 -2.632529e+02
      vertex   -5.313875e+02 1.107940e+02 -2.740362e+02
      vertex   -5.216245e+02 1.050393e+02 -2.638019e+02
    endloop
  endfacet
  facet normal -5.756531e-01 -8.124685e-01 9.229596e-02
    outer loop
      vertex   -5.216245e+02 1.050393e+02 -2.638019e+02
      vertex   -5.313875e+02 1.107940e+02 -2.740362e+02
      vertex   -5.309631e+02 1.104310e+02 -2.745853e+02
    endloop
  endfacet
  facet normal -4.157918e-01 -9.047644e-01 -9.229596e-02
    outer loop
      vertex   -5.216245e+02 1.050393e+02 -2.638019e+02
      vertex   -5.309631e+02 1.104310e+02 -2.745853e+02
      vertex   -5.210979e+02 1.048533e+02 -2.643509e+02
    endloop
  endfacet
  facet normal -4.157918e-01 -9.047644e-01 -9.229596e-02
    outer loop
      vertex   -5.210979e+02 1.048533e+02 -2.643509e+02
      vertex   -5.309631e+02 1.104310e+02 -2.745853e+02
      vertex   -5.304365e+02 1.102450e+02 -2.751343e+02
    endloop
  endfacet
  facet normal -2.275950e-01 -9.354022e-01 -2.705981e-01
    outer loop
      vertex   -5.210979e+02 1.048533e+02 -2.643509e+02
      vertex   -5.304365e+02 1.102450e+02 -2.751343e+02
      vertex   -5.205049e+02 1.048570e+02 -2.648626e+02
    endloop
  endfacet
  facet normal -2.275950e-01 -9.354022e-01 -2.705981e-01
    outer loop
      vertex   -5.205049e+02 1.048570e+02 -2.648626e+02
      vertex   -5.304365e+02 1.102450e+02 -2.751343e+02
      vertex   -5.298436e+02 1.102487e+02 -2.756459e+02
    endloop
  endfacet
  facet normal -2.388795e-02 -9.022938e-01 -4.304593e-01
    outer loop
      vertex   -5.205049e+02 1.048570e+02 -2.648626e+02
      vertex   -5.298436e+02 1.102487e+02 -2.756459e+02
      vertex   -5.198861e+02 1.050502e+02 -2.653019e+02
    endloop
  endfacet
  facet normal -2.388795e-02 -9.022938e-01 -4.304593e-01
    outer loop
      vertex   -5.198861e+02 1.050502e+02 -2.653019e+02
      vertex   -5.298436e+02 1.102487e+02 -2.756459e+02
      vertex   -5.292248e+02 1.104419e+02 -2.760853e+02
    endloop
  endfacet
  facet normal 1.814470e-01 -8.076956e-01 -5.609855e-01
    outer loop
      vertex   -5.198861e+02 1.050502e+02 -2.653019e+02
      vertex   -5.292248e+02 1.104419e+02 -2.760853e+02
      vertex   -5.192835e+02 1.054198e+02 -2.656390e+02
    endloop
  endfacet
  facet normal 1.814470e-01 -8.076956e-01 -5.609855e-01
    outer loop
      vertex   -5.192835e+02 1.054198e+02 -2.656390e+02
      vertex   -5.292248e+02 1.104419e+02 -2.760853e+02
      vertex   -5.286222e+02 1.108114e+02 -2.764224e+02
    endloop
  endfacet
  facet normal 3.744166e-01 -6.580543e-01 -6.532815e-01
    outer loop
      vertex   -5.192835e+02 1.054198e+02 -2.656390e+02
      vertex   -5.286222e+02 1.108114e+02 -2.764224e+02
      vertex   -5.187382e+02 1.059404e+02 -2.658509e+02
    endloop
  endfacet
  facet normal 3.744166e-01 -6.580543e-01 -6.532815e-01
    outer loop
      vertex   -5.187382e+02 1.059404e+02 -2.658509e+02
      vertex   -5.286222e+02 1.108114e+02 -2.764224e+02
      vertex   -5.280768e+02 1.113321e+02 -2.766343e+02
    endloop
  endfacet
  facet normal 5.418704e-01 -4.635677e-01 -7.010574e-01
    outer loop
      vertex   -5.187382e+02 1.059404e+02 -2.658509e+02
      vertex   -5.280768e+02 1.113321e+02 -2.766343e+02
      vertex   -5.182873e+02 1.065767e+02 -2.659232e+02
    endloop
  endfacet
  facet normal 5.418704e-01 -4.635677e-01 -7.010574e-01
    outer loop
      vertex   -5.182873e+02 1.065767e+02 -2.659232e+02
      vertex   -5.280768e+02 1.113321e+02 -2.766343e+02
      vertex   -5.276260e+02 1.119684e+02 -2.767066e+02
    endloop
  endfacet
  facet normal 6.723966e-01 -2.374897e-01 -7.010574e-01
    outer loop
      vertex   -5.182873e+02 1.065767e+02 -2.659232e+02
      vertex   -5.276260e+02 1.119684e+02 -2.767066e+02
      vertex   -5.179617e+02 1.072853e+02 -2.658509e+02
    endloop
  endfacet
  facet normal 6.723966e-01 -2.374897e-01 -7.010574e-01
    outer loop
      vertex   -5.179617e+02 1.072853e+02 -2.658509e+02
      vertex   -5.276260e+02 1.119684e+02 -2.767066e+02
      vertex   -5.273004e+02 1.126770e+02 -2.766343e+02
    endloop
  endfacet
  facet normal 7.571001e-01 4.772833e-03 -6.532815e-01
    outer loop
      vertex   -5.179617e+02 1.072853e+02 -2.658509e+02
      vertex   -5.273004e+02 1.126770e+02 -2.766343e+02
      vertex   -5.177835e+02 1.080178e+02 -2.656390e+02
    endloop
  endfacet
  facet normal 7.571001e-01 4.772833e-03 -6.532815e-01
    outer loop
      vertex   -5.177835e+02 1.080178e+02 -2.656390e+02
      vertex   -5.273004e+02 1.126770e+02 -2.766343e+02
      vertex   -5.271222e+02 1.134095e+02 -2.764224e+02
    endloop
  endfacet
  facet normal 7.902084e-01 2.467101e-01 -5.609855e-01
    outer loop
      vertex   -5.177835e+02 1.080178e+02 -2.656390e+02
      vertex   -5.271222e+02 1.134095e+02 -2.764224e+02
      vertex   -5.177648e+02 1.087245e+02 -2.653019e+02
    endloop
  endfacet
  facet normal 7.902084e-01 2.467101e-01 -5.609855e-01
    outer loop
      vertex   -5.177648e+02 1.087245e+02 -2.653019e+02
      vertex   -5.271222e+02 1.134095e+02 -2.764224e+02
      vertex   -5.271034e+02 1.141162e+02 -2.760853e+02
    endloop
  endfacet
  facet normal 7.694654e-01 4.718345e-01 -4.304593e-01
    outer loop
      vertex   -5.177648e+02 1.087245e+02 -2.653019e+02
      vertex   -5.271034e+02 1.141162e+02 -2.760853e+02
      vertex   -5.179069e+02 1.093570e+02 -2.648626e+02
    endloop
  endfacet
  facet normal 7.694654e-01 4.718345e-01 -4.304593e-01
    outer loop
      vertex   -5.179069e+02 1.093570e+02 -2.648626e+02
      vertex   -5.271034e+02 1.141162e+02 -2.760853e+02
      vertex   -5.272455e+02 1.147487e+02 -2.756459e+02
    endloop
  endfacet
  facet normal 6.962846e-01 6.648041e-01 -2.705980e-01
    outer loop
      vertex   -5.179069e+02 1.093570e+02 -2.648626e+02
      vertex   -5.272455e+02 1.147487e+02 -2.756459e+02
      vertex   -5.182001e+02 1.098724e+02 -2.643509e+02
    endloop
  endfacet
  facet normal 6.962846e-01 6.648041e-01 -2.705980e-01
    outer loop
      vertex   -5.182001e+02 1.098724e+02 -2.643509e+02
      vertex   -5.272455e+02 1.147487e+02 -2.756459e+02
      vertex   -5.275388e+02 1.152641e+02 -2.751343e+02
    endloop
  endfacet
  facet normal 5.756531e-01 8.124685e-01 -9.229596e-02
    outer loop
      vertex   -5.182001e+02 1.098724e+02 -2.643509e+02
      vertex   -5.275388e+02 1.152641e+02 -2.751343e+02
      vertex   -5.186245e+02 1.102354e+02 -2.638019e+02
    endloop
  endfacet
  facet normal 5.756531e-01 8.124685e-01 -9.229596e-02
    outer loop
      vertex   -5.186245e+02 1.102354e+02 -2.638019e+02
      vertex   -5.275388e+02 1.152641e+02 -2.751343e+02
      vertex   -5.279631e+02 1.156271e+02 -2.745853e+02
    endloop
  endfacet
  facet normal 4.157918e-01 9.047644e-01 9.229596e-02
    outer loop
      vertex   -5.186245e+02 1.102354e+02 -2.638019e+02
      vertex   -5.279631e+02 1.156271e+02 -2.745853e+02
      vertex   -5.191511e+02 1.104214e+02 -2.632529e+02
    endloop
  endfacet
  facet normal 4.157918e-01 9.047644e-01 9.229596e-02
    outer loop
      vertex   -5.191511e+02 1.104214e+02 -2.632529e+02
      vertex   -5.279631e+02 1.156271e+02 -2.745853e+02
      vertex   -5.284897e+02 1.158131e+02 -2.740362e+02
    endloop
  endfacet
  facet normal 2.275950e-01 9.354022e-01 2.705981e-01
    outer loop
      vertex   -5.191511e+02 1.104214e+02 -2.632529e+02
      vertex   -5.284897e+02 1.158131e+02 -2.740362e+02
      vertex   -5.197440e+02 1.104177e+02 -2.627412e+02
    endloop
  endfacet
  facet normal 2.275950e-01 9.354022e-01 2.705981e-01
    outer loop
      vertex   -5.197440e+02 1.104177e+02 -2.627412e+02
      vertex   -5.284897e+02 1.158131e+02 -2.740362e+02
      vertex   -5.290827e+02 1.158094e+02 -2.735246e+02
    endloop
  endfacet
  facet normal 2.388795e-02 9.022938e-01 4.304593e-01
    outer loop
      vertex   -5.197440e+02 1.104177e+02 -2.627412e+02
      vertex   -5.290827e+02 1.158094e+02 -2.735246e+02
      vertex   -5.203628e+02 1.102245e+02 -2.623019e+02
    endloop
  endfacet
  facet normal 2.388795e-02 9.022938e-01 4.304593e-01
    outer loop
      vertex   -5.203628e+02 1.102245e+02 -2.623019e+02
      vertex   -5.290827e+02 1.158094e+02 -2.735246e+02
      vertex   -5.297015e+02 1.156162e+02 -2.730853e+02
    endloop
  endfacet
  facet normal -1.814470e-01 8.076956e-01 5.609855e-01
    outer loop
      vertex   -5.203628e+02 1.102245e+02 -2.623019e+02
      vertex   -5.297015e+02 1.156162e+02 -2.730853e+02
      vertex   -5.209655e+02 1.098550e+02 -2.619648e+02
    endloop
  endfacet
  facet normal -1.814470e-01 8.076956e-01 5.609855e-01
    outer loop
      vertex   -5.209655e+02 1.098550e+02 -2.619648e+02
      vertex   -5.297015e+02 1.156162e+02 -2.730853e+02
      vertex   -5.303041e+02 1.152466e+02 -2.727482e+02
    endloop
  endfacet
  facet normal -3.744166e-01 6.580543e-01 6.532815e-01
    outer loop
      vertex   -5.209655e+02 1.098550e+02 -2.619648e+02
      vertex   -5.303041e+02 1.152466e+02 -2.727482e+02
      vertex   -5.215108e+02 1.093343e+02 -2.617529e+02
    endloop
  endfacet
  facet normal -3.744166e-01 6.580543e-01 6.532815e-01
    outer loop
      vertex   -5.215108e+02 1.093343e+02 -2.617529e+02
      vertex   -5.303041e+02 1.152466e+02 -2.727482e+02
      vertex   -5.308494e+02 1.147260e+02 -2.725362e+02
    endloop
  endfacet
  facet normal -5.418704e-01 4.635677e-01 7.010574e-01
    outer loop
      vertex   -5.215108e+02 1.093343e+02 -2.617529e+02
      vertex   -5.308494e+02 1.147260e+02 -2.725362e+02
      vertex   -5.219616e+02 1.086980e+02 -2.616806e+02
    endloop
  endfacet
  facet normal -5.418704e-01 4.635677e-01 7.010574e-01
    outer loop
      vertex   -5.219616e+02 1.086980e+02 -2.616806e+02
      vertex   -5.308494e+02 1.147260e+02 -2.725362e+02
      vertex   -5.313003e+02 1.140897e+02 -2.724640e+02
    endloop
  endfacet
  facet normal -6.723966e-01 2.374897e-01 7.010574e-01
    outer loop
      vertex   -5.219616e+02 1.086980e+02 -2.616806e+02
      vertex   -5.313003e+02 1.140897e+02 -2.724640e+02
      vertex   -5.222872e+02 1.079894e+02 -2.617529e+02
    endloop
  endfacet
  facet normal -6.723966e-01 2.374897e-01 7.010574e-01
    outer loop
      vertex   -5.222872e+02 1.079894e+02 -2.617529e+02
      vertex   -5.313003e+02 1.140897e+02 -2.724640e+02
      vertex   -5.316259e+02 1.133811e+02 -2.725362e+02
    endloop
  endfacet
  facet normal -7.571001e-01 -4.772833e-03 6.532815e-01
    outer loop
      vertex   -5.222872e+02 1.079894e+02 -2.617529e+02
      vertex   -5.316259e+02 1.133811e+02 -2.725362e+02
      vertex   -5.224655e+02 1.072569e+02 -2.619648e+02
    endloop
  endfacet
  facet normal -7.571001e-01 -4.772833e-03 6.532815e-01
    outer loop
      vertex   -5.224655e+02 1.072569e+02 -2.619648e+02
      vertex   -5.316259e+02 1.133811e+02 -2.725362e+02
      vertex   -5.318041e+02 1.126486e+02 -2.727482e+02
    endloop
  endfacet
  facet normal -7.902084e-01 -2.467101e-01 5.609855e-01
    outer loop
      vertex   -5.224655e+02 1.072569e+02 -2.619648e+02
      vertex   -5.318041e+02 1.126486e+02 -2.727482e+02
      vertex   -5.224842e+02 1.065502e+02 -2.623019e+02
    endloop
  endfacet
  facet normal -7.902084e-01 -2.467101e-01 5.609855e-01
    outer loop
      vertex   -5.224842e+02 1.065502e+02 -2.623019e+02
      vertex   -5.318041e+02 1.126486e+02 -2.727482e+02
      vertex   -5.318228e+02 1.119419e+02 -2.730853e+02
    endloop
  endfacet
  facet normal -7.694654e-01 -4.718345e-01 4.304593e-01
    outer loop
      vertex   -5.224842e+02 1.065502e+02 -2.623019e+02
      vertex   -5.318228e+02 1.119419e+02 -2.730853e+02
      vertex   -5.223421e+02 1.059177e+02 -2.627412e+02
    endloop
  endfacet
  facet normal -7.694654e-01 -4.718345e-01 4.304593e-01
    outer loop
      vertex   -5.223421e+02 1.059177e+02 -2.627412e+02
      vertex   -5.318228e+02 1.119419e+02 -2.730853e+02
      vertex   -5.316807e+02 1.113094e+02 -2.735246e+02
    endloop
  endfacet
  facet normal -6.962846e-01 -6.648041e-01 2.705980e-01
    outer loop
      vertex   -5.223421e+02 1.059177e+02 -2.627412e+02
      vertex   -5.316807e+02 1.113094e+02 -2.735246e+02
      vertex   -5.220488e+02 1.054023e+02 -2.632529e+02
    endloop
  endfacet
  facet normal -6.962846e-01 -6.648041e-01 2.705980e-01
    outer loop
      vertex   -5.220488e+02 1.054023e+02 -2.632529e+02
      vertex   -5.316807e+02 1.113094e+02 -2.735246e+02
      vertex   -5.313875e+02 1.107940e+02 -2.740362e+02
    endloop
  endfacet
  facet normal 6.123724e-01 -3.535534e-01 7.071068e-01
    outer loop
      vertex   -5.210979e+02 1.048533e+02 -2.643509e+02
      vertex   -5.182001e+02 1.098724e+02 -2.643509e+02
      vertex   -5.216245e+02 1.050393e+02 -2.638019e+02
    endloop
  endfacet
  facet normal 6.123724e-01 -3.535534e-01 7.071068e-01
    outer loop
      vertex   -5.216245e+02 1.050393e+02 -2.638019e+02
      vertex   -5.182001e+02 1.098724e+02 -2.643509e+02
      vertex   -5.186245e+02 1.102354e+02 -2.638019e+02
    endloop
  endfacet
  facet normal 6.123724e-01 -3.535534e-01 7.071068e-01
    outer loop
      vertex   -5.216245e+02 1.050393e+02 -2.638019e+02
      vertex   -5.186245e+02 1.102354e+02 -2.638019e+02
      vertex   -5.220488e+02 1.054023e+02 -2.632529e+02
    endloop
  endfacet
  facet normal 6.123724e-01 -3.535534e-01 7.071068e-01
    outer loop
      vertex   -5.220488e+02 1.054023e+02 -2.632529e+02
      vertex   -5.186245e+02 1.102354e+02 -2.638019e+02
      vertex   -5.191511e+02 1.104214e+02 -2.632529e+02
    endloop
  endfacet
  facet normal 6.123724e-01 -3.535534e-01 7.071068e-01
    outer loop
      vertex   -5.220488e+02 1.054023e+02 -2.632529e+02
      vertex   -5.191511e+02 1.104214e+02 -2.632529e+02
      vertex   -5.223421e+02 1.059177e+02 -2.627412e+02
    endloop
  endfacet
  facet normal 6.123724e-01 -3.535534e-01 7.071068e-01
    outer loop
      vertex   -5.223421e+02 1.059177e+02 -2.627412e+02
      vertex   -5.191511e+02 1.104214e+02 -2.632529e+02
      vertex   -5.197440e+02 1.104177e+02 -2.627412e+02
    endloop
  endfacet
  facet normal 6.123724e-01 -3.535534e-01 7.071068e-01
    outer loop
      vertex   -5.223421e+02 1.059177e+02 -2.627412e+02
      vertex   -5.197440e+02 1.104177e+02 -2.627412e+02
      vertex   -5.224842e+02 1.065502e+02 -2.623019e+02
    endloop
  endfacet
  facet normal 6.123724e-01 -3.535534e-01 7.071068e-01
    outer loop
      vertex   -5.224842e+02 1.065502e+02 -2.623019e+02
      vertex   -5.197440e+02 1.104177e+02 -2.627412e+02
      vertex   -5.203628e+02 1.102245e+02 -2.623019e+02
    endloop
  endfacet
  facet normal 6.123724e-01 -3.535534e-01 7.071068e-01
    outer loop
      vertex   -5.224842e+02 1.065502e+02 -2.623019e+02
      vertex   -5.203628e+02 1.102245e+02 -2.623019e+02
      vertex   -5.224655e+02 1.072569e+02 -2.619648e+02
    endloop
  endfacet
  facet normal 6.123724e-01 -3.535534e-01 7.071068e-01
    outer loop
      vertex   -5.224655e+02 1.072569e+02 -2.619648e+02
      vertex   -5.203628e+02 1.102245e+02 -2.623019e+02
      vertex   -5.209655e+02 1.098550e+02 -2.619648e+02
    endloop
  endfacet
  facet normal 6.123724e-01 -3.535534e-01 7.071068e-01
    outer loop
      vertex   -5.224655e+02 1.072569e+02 -2.619648e+02
      vertex   -5.209655e+02 1.098550e+02 -2.619648e+02
      vertex   -5.222872e+02 1.079894e+02 -2.617529e+02
    endloop
  endfacet
  facet normal 6.123724e-01 -3.535534e-01 7.071068e-01
    outer loop
      vertex   -5.222872e+02 1.079894e+02 -2.617529e+02
      vertex   -5.209655e+02 1.098550e+02 -2.619648e+02
      vertex   -5.215108e+02 1.093343e+02 -2.617529e+02
    endloop
  endfacet
  facet normal 6.123724e-01 -3.535534e-01 7.071068e-01
    outer loop
      vertex   -5.222872e+02 1.079894e+02 -2.617529e+02
      vertex   -5.215108e+02 1.093343e+02 -2.617529e+02
      vertex   -5.219616e+02 1.086980e+02 -2.616806e+02
    endloop
  endfacet
  facet normal 6.123724e-01 -3.535534e-01 7.071068e-01
    outer loop
      vertex   -5.182001e+02 1.098724e+02 -2.643509e+02
      vertex   -5.210979e+02 1.048533e+02 -2.643509e+02
      vertex   -5.179069e+02 1.093570e+02 -2.648626e+02
    endloop
  endfacet
  facet normal 6.123724e-01 -3.535534e-01 7.071068e-01
    outer loop
      vertex   -5.179069e+02 1.093570e+02 -2.648626e+02
      vertex   -5.210979e+02 1.048533e+02 -2.643509e+02
      vertex   -5.205049e+02 1.048570e+02 -2.648626e+02
    endloop
  endfacet
  facet normal 6.123724e-01 -3.535534e-01 7.071068e-01
    outer loop
      vertex   -5.179069e+02 1.093570e+02 -2.648626e+02
      vertex   -5.205049e+02 1.048570e+02 -2.648626e+02
      vertex   -5.177648e+02 1.087245e+02 -2.653019e+02
    endloop
  endfacet
  facet normal 6.123724e-01 -3.535534e-01 7.071068e-01
    outer loop
      vertex   -5.177648e+02 1.087245e+02 -2.653019e+02
      vertex   -5.205049e+02 1.048570e+02 -2.648626e+02
      vertex   -5.198861e+02 1.050502e+02 -2.653019e+02
    endloop
  endfacet
  facet normal 6.123724e-01 -3.535534e-01 7.071068e-01
    outer loop
      vertex   -5.177648e+02 1.087245e+02 -2.653019e+02
      vertex   -5.198861e+02 1.050502e+02 -2.653019e+02
      vertex   -5.177835e+02 1.080178e+02 -2.656390e+02
    endloop
  endfacet
  facet normal 6.123724e-01 -3.535534e-01 7.071068e-01
    outer loop
      vertex   -5.177835e+02 1.080178e+02 -2.656390e+02
      vertex   -5.198861e+02 1.050502e+02 -2.653019e+02
      vertex   -5.192835e+02 1.054198e+02 -2.656390e+02
    endloop
  endfacet
  facet normal 6.123724e-01 -3.535534e-01 7.071068e-01
    outer loop
      vertex   -5.177835e+02 1.080178e+02 -2.656390e+02
      vertex   -5.192835e+02 1.054198e+02 -2.656390e+02
      vertex   -5.179617e+02 1.072853e+02 -2.658509e+02
    endloop
  endfacet
  facet normal 6.123724e-01 -3.535534e-01 7.071068e-01
    outer loop
      vertex   -5.179617e+02 1.072853e+02 -2.658509e+02
      vertex   -5.192835e+02 1.054198e+02 -2.656390e+02
      vertex   -5.187382e+02 1.059404e+02 -2.658509e+02
    endloop
  endfacet
  facet normal 6.123724e-01 -3.535534e-01 7.071068e-01
    outer loop
      vertex   -5.179617e+02 1.072853e+02 -2.658509e+02
      vertex   -5.187382e+02 1.059404e+02 -2.658509e+02
      vertex   -5.182873e+02 1.065767e+02 -2.659232e+02
    endloop
  endfacet
endsolid
