solid ASCII
  facet normal -0.000000e+00 -1.000000e+00 -1.184238e-14
    outer loop
      vertex   -4.381919e+02 4.472627e+01 -4.032667e+02
      vertex   -4.411919e+02 4.472627e+01 -4.032667e+02
      vertex   -4.381919e+02 4.472627e+01 -4.038667e+02
    endloop
  endfacet
  facet normal -0.000000e+00 -1.000000e+00 -1.184238e-14
    outer loop
      vertex   -4.381919e+02 4.472627e+01 -4.038667e+02
      vertex   -4.411919e+02 4.472627e+01 -4.032667e+02
      vertex   -4.411919e+02 4.472627e+01 -4.038667e+02
    endloop
  endfacet
  facet normal 1.000000e+00 0.000000e+00 0.000000e+00
    outer loop
      vertex   -4.381919e+02 7.391355e+01 -4.032667e+02
      vertex   -4.381919e+02 4.472627e+01 -4.032667e+02
      vertex   -4.381919e+02 7.391355e+01 -4.038667e+02
    endloop
  endfacet
  facet normal 1.000000e+00 0.000000e+00 0.000000e+00
    outer loop
      vertex   -4.381919e+02 7.391355e+01 -4.038667e+02
      vertex   -4.381919e+02 4.472627e+01 -4.032667e+02
      vertex   -4.381919e+02 4.472627e+01 -4.038667e+02
    endloop
  endfacet
  facet normal -0.000000e+00 1.000000e+00 2.368476e-14
    outer loop
      vertex   -4.411919e+02 7.391355e+01 -4.032667e+02
      vertex   -4.381919e+02 7.391355e+01 -4.032667e+02
      vertex   -4.411919e+02 7.391355e+01 -4.038667e+02
    endloop
  endfacet
  facet normal -0.000000e+00 1.000000e+00 2.368476e-14
    outer loop
      vertex   -4.411919e+02 7.391355e+01 -4.038667e+02
      vertex   -4.381919e+02 7.391355e+01 -4.032667e+02
      vertex   -4.381919e+02 7.391355e+01 -4.038667e+02
    endloop
  endfacet
  facet normal 1.000000e+00 0.000000e+00 0.000000e+00
    outer loop
      vertex   -4.411919e+02 7.691355e+01 -4.032667e+02
      vertex   -4.411919e+02 7.391355e+01 -4.032667e+02
      vertex   -4.411919e+02 7.691355e+01 -4.038667e+02
    endloop
  endfacet
  facet normal 1.000000e+00 0.000000e+00 0.000000e+00
    outer loop
      vertex   -4.411919e+02 7.691355e+01 -4.038667e+02
      vertex   -4.411919e+02 7.391355e+01 -4.032667e+02
      vertex   -4.411919e+02 7.391355e+01 -4.038667e+02
    endloop
  endfacet
  facet normal -0.000000e+00 -1.000000e+00 -0.000000e+00
    outer loop
      vertex   -3.886323e+02 7.691355e+01 -4.032667e+02
      vertex   -4.411919e+02 7.691355e+01 -4.032667e+02
      vertex   -3.886323e+02 7.691355e+01 -4.038667e+02
    endloop
  endfacet
  facet normal 0.000000e+00 -1.000000e+00 0.000000e+00
    outer loop
      vertex   -3.886323e+02 7.691355e+01 -4.038667e+02
      vertex   -4.411919e+02 7.691355e+01 -4.032667e+02
      vertex   -4.411919e+02 7.691355e+01 -4.038667e+02
    endloop
  endfacet
  facet normal -1.000000e+00 0.000000e+00 0.000000e+00
    outer loop
      vertex   -3.886323e+02 7.391355e+01 -4.032667e+02
      vertex   -3.886323e+02 7.691355e+01 -4.032667e+02
      vertex   -3.886323e+02 7.391355e+01 -4.038667e+02
    endloop
  endfacet
  facet normal -1.000000e+00 0.000000e+00 0.000000e+00
    outer loop
      vertex   -3.886323e+02 7.391355e+01 -4.038667e+02
      vertex   -3.886323e+02 7.691355e+01 -4.032667e+02
      vertex   -3.886323e+02 7.691355e+01 -4.038667e+02
    endloop
  endfacet
  facet normal -0.000000e+00 1.000000e+00 2.368476e-14
    outer loop
      vertex   -3.916323e+02 7.391355e+01 -4.032667e+02
      vertex   -3.886323e+02 7.391355e+01 -4.032667e+02
      vertex   -3.916323e+02 7.391355e+01 -4.038667e+02
    endloop
  endfacet
  facet normal -0.000000e+00 1.000000e+00 2.368476e-14
    outer loop
      vertex   -3.916323e+02 7.391355e+01 -4.038667e+02
      vertex   -3.886323e+02 7.391355e+01 -4.032667e+02
      vertex   -3.886323e+02 7.391355e+01 -4.038667e+02
    endloop
  endfacet
  facet normal -1.000000e+00 0.000000e+00 0.000000e+00
    outer loop
      vertex   -3.916323e+02 4.472627e+01 -4.032667e+02
      vertex   -3.916323e+02 7.391355e+01 -4.032667e+02
      vertex   -3.916323e+02 4.472627e+01 -4.038667e+02
    endloop
  endfacet
  facet normal -1.000000e+00 0.000000e+00 0.000000e+00
    outer loop
      vertex   -3.916323e+02 4.472627e+01 -4.038667e+02
      vertex   -3.916323e+02 7.391355e+01 -4.032667e+02
      vertex   -3.916323e+02 7.391355e+01 -4.038667e+02
    endloop
  endfacet
  facet normal -0.000000e+00 -1.000000e+00 -1.184238e-14
    outer loop
      vertex   -3.886323e+02 4.472627e+01 -4.032667e+02
      vertex   -3.916323e+02 4.472627e+01 -4.032667e+02
      vertex   -3.886323e+02 4.472627e+01 -4.038667e+02
    endloop
  endfacet
  facet normal -0.000000e+00 -1.000000e+00 -1.184238e-14
    outer loop
      vertex   -3.886323e+02 4.472627e+01 -4.038667e+02
      vertex   -3.916323e+02 4.472627e+01 -4.032667e+02
      vertex   -3.916323e+02 4.472627e+01 -4.038667e+02
    endloop
  endfacet
  facet normal -1.000000e+00 0.000000e+00 0.000000e+00
    outer loop
      vertex   -3.886323e+02 4.172627e+01 -4.032667e+02
      vertex   -3.886323e+02 4.472627e+01 -4.032667e+02
      vertex   -3.886323e+02 4.172627e+01 -4.038667e+02
    endloop
  endfacet
  facet normal -1.000000e+00 0.000000e+00 0.000000e+00
    outer loop
      vertex   -3.886323e+02 4.172627e+01 -4.038667e+02
      vertex   -3.886323e+02 4.472627e+01 -4.032667e+02
      vertex   -3.886323e+02 4.472627e+01 -4.038667e+02
    endloop
  endfacet
  facet normal -0.000000e+00 1.000000e+00 2.368476e-14
    outer loop
      vertex   -4.411919e+02 4.172627e+01 -4.032667e+02
      vertex   -3.886323e+02 4.172627e+01 -4.032667e+02
      vertex   -4.411919e+02 4.172627e+01 -4.038667e+02
    endloop
  endfacet
  facet normal -0.000000e+00 1.000000e+00 2.368476e-14
    outer loop
      vertex   -4.411919e+02 4.172627e+01 -4.038667e+02
      vertex   -3.886323e+02 4.172627e+01 -4.032667e+02
      vertex   -3.886323e+02 4.172627e+01 -4.038667e+02
    endloop
  endfacet
  facet normal 1.000000e+00 0.000000e+00 0.000000e+00
    outer loop
      vertex   -4.411919e+02 4.472627e+01 -4.032667e+02
      vertex   -4.411919e+02 4.172627e+01 -4.032667e+02
      vertex   -4.411919e+02 4.472627e+01 -4.038667e+02
    endloop
  endfacet
  facet normal 1.000000e+00 0.000000e+00 0.000000e+00
    outer loop
      vertex   -4.411919e+02 4.472627e+01 -4.038667e+02
      vertex   -4.411919e+02 4.172627e+01 -4.032667e+02
      vertex   -4.411919e+02 4.172627e+01 -4.038667e+02
    endloop
  endfacet
  facet normal -1.000000e+00 0.000000e+00 0.000000e+00
    outer loop
      vertex   -4.391919e+02 4.572627e+01 -4.032667e+02
      vertex   -4.391919e+02 7.291355e+01 -4.032667e+02
      vertex   -4.391919e+02 4.572627e+01 -4.038667e+02
    endloop
  endfacet
  facet normal -1.000000e+00 0.000000e+00 0.000000e+00
    outer loop
      vertex   -4.391919e+02 4.572627e+01 -4.038667e+02
      vertex   -4.391919e+02 7.291355e+01 -4.032667e+02
      vertex   -4.391919e+02 7.291355e+01 -4.038667e+02
    endloop
  endfacet
  facet normal -0.000000e+00 1.000000e+00 1.184238e-14
    outer loop
      vertex   -4.421919e+02 4.572627e+01 -4.032667e+02
      vertex   -4.391919e+02 4.572627e+01 -4.032667e+02
      vertex   -4.421919e+02 4.572627e+01 -4.038667e+02
    endloop
  endfacet
  facet normal -0.000000e+00 1.000000e+00 1.184238e-14
    outer loop
      vertex   -4.421919e+02 4.572627e+01 -4.038667e+02
      vertex   -4.391919e+02 4.572627e+01 -4.032667e+02
      vertex   -4.391919e+02 4.572627e+01 -4.038667e+02
    endloop
  endfacet
  facet normal -1.000000e+00 0.000000e+00 0.000000e+00
    outer loop
      vertex   -4.421919e+02 4.072627e+01 -4.032667e+02
      vertex   -4.421919e+02 4.572627e+01 -4.032667e+02
      vertex   -4.421919e+02 4.072627e+01 -4.038667e+02
    endloop
  endfacet
  facet normal -1.000000e+00 0.000000e+00 0.000000e+00
    outer loop
      vertex   -4.421919e+02 4.072627e+01 -4.038667e+02
      vertex   -4.421919e+02 4.572627e+01 -4.032667e+02
      vertex   -4.421919e+02 4.572627e+01 -4.038667e+02
    endloop
  endfacet
  facet normal -0.000000e+00 -1.000000e+00 -1.184238e-14
    outer loop
      vertex   -3.876323e+02 4.072627e+01 -4.032667e+02
      vertex   -4.421919e+02 4.072627e+01 -4.032667e+02
      vertex   -3.876323e+02 4.072627e+01 -4.038667e+02
    endloop
  endfacet
  facet normal -0.000000e+00 -1.000000e+00 -1.184238e-14
    outer loop
      vertex   -3.876323e+02 4.072627e+01 -4.038667e+02
      vertex   -4.421919e+02 4.072627e+01 -4.032667e+02
      vertex   -4.421919e+02 4.072627e+01 -4.038667e+02
    endloop
  endfacet
  facet normal 1.000000e+00 0.000000e+00 0.000000e+00
    outer loop
      vertex   -3.876323e+02 4.572627e+01 -4.032667e+02
      vertex   -3.876323e+02 4.072627e+01 -4.032667e+02
      vertex   -3.876323e+02 4.572627e+01 -4.038667e+02
    endloop
  endfacet
  facet normal 1.000000e+00 0.000000e+00 0.000000e+00
    outer loop
      vertex   -3.876323e+02 4.572627e+01 -4.038667e+02
      vertex   -3.876323e+02 4.072627e+01 -4.032667e+02
      vertex   -3.876323e+02 4.072627e+01 -4.038667e+02
    endloop
  endfacet
  facet normal -0.000000e+00 1.000000e+00 1.184238e-14
    outer loop
      vertex   -3.906323e+02 4.572627e+01 -4.032667e+02
      vertex   -3.876323e+02 4.572627e+01 -4.032667e+02
      vertex   -3.906323e+02 4.572627e+01 -4.038667e+02
    endloop
  endfacet
  facet normal -0.000000e+00 1.000000e+00 1.184238e-14
    outer loop
      vertex   -3.906323e+02 4.572627e+01 -4.038667e+02
      vertex   -3.876323e+02 4.572627e+01 -4.032667e+02
      vertex   -3.876323e+02 4.572627e+01 -4.038667e+02
    endloop
  endfacet
  facet normal 1.000000e+00 0.000000e+00 0.000000e+00
    outer loop
      vertex   -3.906323e+02 7.291355e+01 -4.032667e+02
      vertex   -3.906323e+02 4.572627e+01 -4.032667e+02
      vertex   -3.906323e+02 7.291355e+01 -4.038667e+02
    endloop
  endfacet
  facet normal 1.000000e+00 0.000000e+00 0.000000e+00
    outer loop
      vertex   -3.906323e+02 7.291355e+01 -4.038667e+02
      vertex   -3.906323e+02 4.572627e+01 -4.032667e+02
      vertex   -3.906323e+02 4.572627e+01 -4.038667e+02
    endloop
  endfacet
  facet normal -0.000000e+00 -1.000000e+00 -0.000000e+00
    outer loop
      vertex   -3.876323e+02 7.291355e+01 -4.032667e+02
      vertex   -3.906323e+02 7.291355e+01 -4.032667e+02
      vertex   -3.876323e+02 7.291355e+01 -4.038667e+02
    endloop
  endfacet
  facet normal 0.000000e+00 -1.000000e+00 0.000000e+00
    outer loop
      vertex   -3.876323e+02 7.291355e+01 -4.038667e+02
      vertex   -3.906323e+02 7.291355e+01 -4.032667e+02
      vertex   -3.906323e+02 7.291355e+01 -4.038667e+02
    endloop
  endfacet
  facet normal 1.000000e+00 0.000000e+00 0.000000e+00
    outer loop
      vertex   -3.876323e+02 7.791355e+01 -4.032667e+02
      vertex   -3.876323e+02 7.291355e+01 -4.032667e+02
      vertex   -3.876323e+02 7.791355e+01 -4.038667e+02
    endloop
  endfacet
  facet normal 1.000000e+00 0.000000e+00 0.000000e+00
    outer loop
      vertex   -3.876323e+02 7.791355e+01 -4.038667e+02
      vertex   -3.876323e+02 7.291355e+01 -4.032667e+02
      vertex   -3.876323e+02 7.291355e+01 -4.038667e+02
    endloop
  endfacet
  facet normal -0.000000e+00 1.000000e+00 0.000000e+00
    outer loop
      vertex   -4.421919e+02 7.791355e+01 -4.032667e+02
      vertex   -3.876323e+02 7.791355e+01 -4.032667e+02
      vertex   -4.421919e+02 7.791355e+01 -4.038667e+02
    endloop
  endfacet
  facet normal 0.000000e+00 1.000000e+00 0.000000e+00
    outer loop
      vertex   -4.421919e+02 7.791355e+01 -4.038667e+02
      vertex   -3.876323e+02 7.791355e+01 -4.032667e+02
      vertex   -3.876323e+02 7.791355e+01 -4.038667e+02
    endloop
  endfacet
  facet normal -1.000000e+00 0.000000e+00 0.000000e+00
    outer loop
      vertex   -4.421919e+02 7.291355e+01 -4.032667e+02
      vertex   -4.421919e+02 7.791355e+01 -4.032667e+02
      vertex   -4.421919e+02 7.291355e+01 -4.038667e+02
    endloop
  endfacet
  facet normal -1.000000e+00 0.000000e+00 0.000000e+00
    outer loop
      vertex   -4.421919e+02 7.291355e+01 -4.038667e+02
      vertex   -4.421919e+02 7.791355e+01 -4.032667e+02
      vertex   -4.421919e+02 7.791355e+01 -4.038667e+02
    endloop
  endfacet
  facet normal -0.000000e+00 -1.000000e+00 -0.000000e+00
    outer loop
      vertex   -4.391919e+02 7.291355e+01 -4.032667e+02
      vertex   -4.421919e+02 7.291355e+01 -4.032667e+02
      vertex   -4.391919e+02 7.291355e+01 -4.038667e+02
    endloop
  endfacet
  facet normal 0.000000e+00 -1.000000e+00 0.000000e+00
    outer loop
      vertex   -4.391919e+02 7.291355e+01 -4.038667e+02
      vertex   -4.421919e+02 7.291355e+01 -4.032667e+02
      vertex   -4.421919e+02 7.291355e+01 -4.038667e+02
    endloop
  endfacet
  facet normal 5.684342e-14 0.000000e+00 -1.000000e+00
    outer loop
      vertex   -4.411919e+02 4.172627e+01 -4.038667e+02
      vertex   -4.421919e+02 4.072627e+01 -4.038667e+02
      vertex   -4.411919e+02 4.472627e+01 -4.038667e+02
    endloop
  endfacet
  facet normal 1.136868e-14 1.136868e-14 -1.000000e+00
    outer loop
      vertex   -4.411919e+02 4.472627e+01 -4.038667e+02
      vertex   -4.421919e+02 4.072627e+01 -4.038667e+02
      vertex   -4.421919e+02 4.572627e+01 -4.038667e+02
    endloop
  endfacet
  facet normal 0.000000e+00 0.000000e+00 -1.000000e+00
    outer loop
      vertex   -4.411919e+02 4.472627e+01 -4.038667e+02
      vertex   -4.421919e+02 4.572627e+01 -4.038667e+02
      vertex   -4.391919e+02 4.572627e+01 -4.038667e+02
    endloop
  endfacet
  facet normal 0.000000e+00 5.684342e-14 -1.000000e+00
    outer loop
      vertex   -4.411919e+02 4.172627e+01 -4.038667e+02
      vertex   -3.886323e+02 4.172627e+01 -4.038667e+02
      vertex   -4.421919e+02 4.072627e+01 -4.038667e+02
    endloop
  endfacet
  facet normal 0.000000e+00 5.684342e-14 -1.000000e+00
    outer loop
      vertex   -4.421919e+02 4.072627e+01 -4.038667e+02
      vertex   -3.886323e+02 4.172627e+01 -4.038667e+02
      vertex   -3.876323e+02 4.072627e+01 -4.038667e+02
    endloop
  endfacet
  facet normal -5.684342e-14 0.000000e+00 -1.000000e+00
    outer loop
      vertex   -3.876323e+02 4.072627e+01 -4.038667e+02
      vertex   -3.886323e+02 4.172627e+01 -4.038667e+02
      vertex   -3.886323e+02 4.472627e+01 -4.038667e+02
    endloop
  endfacet
  facet normal -1.136868e-14 1.136868e-14 -1.000000e+00
    outer loop
      vertex   -3.876323e+02 4.072627e+01 -4.038667e+02
      vertex   -3.886323e+02 4.472627e+01 -4.038667e+02
      vertex   -3.876323e+02 4.572627e+01 -4.038667e+02
    endloop
  endfacet
  facet normal -0.000000e+00 0.000000e+00 -1.000000e+00
    outer loop
      vertex   -3.876323e+02 4.572627e+01 -4.038667e+02
      vertex   -3.886323e+02 4.472627e+01 -4.038667e+02
      vertex   -3.906323e+02 4.572627e+01 -4.038667e+02
    endloop
  endfacet
  facet normal 0.000000e+00 -0.000000e+00 -1.000000e+00
    outer loop
      vertex   -3.906323e+02 4.572627e+01 -4.038667e+02
      vertex   -3.886323e+02 4.472627e+01 -4.038667e+02
      vertex   -3.916323e+02 4.472627e+01 -4.038667e+02
    endloop
  endfacet
  facet normal -1.045405e-14 1.045405e-14 -1.000000e+00
    outer loop
      vertex   -3.906323e+02 4.572627e+01 -4.038667e+02
      vertex   -3.916323e+02 4.472627e+01 -4.038667e+02
      vertex   -3.906323e+02 7.291355e+01 -4.038667e+02
    endloop
  endfacet
  facet normal -4.515817e-14 1.168524e-14 -1.000000e+00
    outer loop
      vertex   -3.906323e+02 7.291355e+01 -4.038667e+02
      vertex   -3.916323e+02 4.472627e+01 -4.038667e+02
      vertex   -3.916323e+02 7.391355e+01 -4.038667e+02
    endloop
  endfacet
  facet normal 0.000000e+00 5.684342e-14 -1.000000e+00
    outer loop
      vertex   -3.906323e+02 7.291355e+01 -4.038667e+02
      vertex   -3.916323e+02 7.391355e+01 -4.038667e+02
      vertex   -3.886323e+02 7.391355e+01 -4.038667e+02
    endloop
  endfacet
  facet normal 0.000000e+00 5.684342e-14 -1.000000e+00
    outer loop
      vertex   -3.906323e+02 7.291355e+01 -4.038667e+02
      vertex   -3.886323e+02 7.391355e+01 -4.038667e+02
      vertex   -3.876323e+02 7.291355e+01 -4.038667e+02
    endloop
  endfacet
  facet normal -5.684342e-14 0.000000e+00 -1.000000e+00
    outer loop
      vertex   -3.876323e+02 7.291355e+01 -4.038667e+02
      vertex   -3.886323e+02 7.391355e+01 -4.038667e+02
      vertex   -3.886323e+02 7.691355e+01 -4.038667e+02
    endloop
  endfacet
  facet normal -1.136868e-14 1.136868e-14 -1.000000e+00
    outer loop
      vertex   -3.876323e+02 7.291355e+01 -4.038667e+02
      vertex   -3.886323e+02 7.691355e+01 -4.038667e+02
      vertex   -3.876323e+02 7.791355e+01 -4.038667e+02
    endloop
  endfacet
  facet normal 0.000000e+00 0.000000e+00 -1.000000e+00
    outer loop
      vertex   -3.876323e+02 7.791355e+01 -4.038667e+02
      vertex   -3.886323e+02 7.691355e+01 -4.038667e+02
      vertex   -4.411919e+02 7.691355e+01 -4.038667e+02
    endloop
  endfacet
  facet normal -0.000000e+00 0.000000e+00 -1.000000e+00
    outer loop
      vertex   -3.876323e+02 7.791355e+01 -4.038667e+02
      vertex   -4.411919e+02 7.691355e+01 -4.038667e+02
      vertex   -4.421919e+02 7.791355e+01 -4.038667e+02
    endloop
  endfacet
  facet normal 1.136868e-14 1.136868e-14 -1.000000e+00
    outer loop
      vertex   -4.421919e+02 7.791355e+01 -4.038667e+02
      vertex   -4.411919e+02 7.691355e+01 -4.038667e+02
      vertex   -4.421919e+02 7.291355e+01 -4.038667e+02
    endloop
  endfacet
  facet normal 5.684342e-14 0.000000e+00 -1.000000e+00
    outer loop
      vertex   -4.421919e+02 7.291355e+01 -4.038667e+02
      vertex   -4.411919e+02 7.691355e+01 -4.038667e+02
      vertex   -4.411919e+02 7.391355e+01 -4.038667e+02
    endloop
  endfacet
  facet normal 0.000000e+00 5.684342e-14 -1.000000e+00
    outer loop
      vertex   -4.421919e+02 7.291355e+01 -4.038667e+02
      vertex   -4.411919e+02 7.391355e+01 -4.038667e+02
      vertex   -4.391919e+02 7.291355e+01 -4.038667e+02
    endloop
  endfacet
  facet normal 0.000000e+00 5.684342e-14 -1.000000e+00
    outer loop
      vertex   -4.391919e+02 7.291355e+01 -4.038667e+02
      vertex   -4.411919e+02 7.391355e+01 -4.038667e+02
      vertex   -4.381919e+02 7.391355e+01 -4.038667e+02
    endloop
  endfacet
  facet normal 4.515817e-14 1.168524e-14 -1.000000e+00
    outer loop
      vertex   -4.391919e+02 7.291355e+01 -4.038667e+02
      vertex   -4.381919e+02 7.391355e+01 -4.038667e+02
      vertex   -4.381919e+02 4.472627e+01 -4.038667e+02
    endloop
  endfacet
  facet normal 1.045405e-14 1.045405e-14 -1.000000e+00
    outer loop
      vertex   -4.391919e+02 7.291355e+01 -4.038667e+02
      vertex   -4.381919e+02 4.472627e+01 -4.038667e+02
      vertex   -4.391919e+02 4.572627e+01 -4.038667e+02
    endloop
  endfacet
  facet normal 0.000000e+00 -0.000000e+00 -1.000000e+00
    outer loop
      vertex   -4.391919e+02 4.572627e+01 -4.038667e+02
      vertex   -4.381919e+02 4.472627e+01 -4.038667e+02
      vertex   -4.411919e+02 4.472627e+01 -4.038667e+02
    endloop
  endfacet
  facet normal 0.000000e+00 0.000000e+00 1.000000e+00
    outer loop
      vertex   -4.411919e+02 4.472627e+01 -4.032667e+02
      vertex   -4.421919e+02 4.572627e+01 -4.032667e+02
      vertex   -4.411919e+02 4.172627e+01 -4.032667e+02
    endloop
  endfacet
  facet normal -4.547474e-14 -1.136868e-14 1.000000e+00
    outer loop
      vertex   -4.411919e+02 4.172627e+01 -4.032667e+02
      vertex   -4.421919e+02 4.572627e+01 -4.032667e+02
      vertex   -4.421919e+02 4.072627e+01 -4.032667e+02
    endloop
  endfacet
  facet normal 0.000000e+00 -5.684342e-14 1.000000e+00
    outer loop
      vertex   -4.411919e+02 4.172627e+01 -4.032667e+02
      vertex   -4.421919e+02 4.072627e+01 -4.032667e+02
      vertex   -3.876323e+02 4.072627e+01 -4.032667e+02
    endloop
  endfacet
  facet normal -0.000000e+00 0.000000e+00 1.000000e+00
    outer loop
      vertex   -4.421919e+02 4.572627e+01 -4.032667e+02
      vertex   -4.411919e+02 4.472627e+01 -4.032667e+02
      vertex   -4.391919e+02 4.572627e+01 -4.032667e+02
    endloop
  endfacet
  facet normal 0.000000e+00 0.000000e+00 1.000000e+00
    outer loop
      vertex   -4.391919e+02 4.572627e+01 -4.032667e+02
      vertex   -4.411919e+02 4.472627e+01 -4.032667e+02
      vertex   -4.381919e+02 4.472627e+01 -4.032667e+02
    endloop
  endfacet
  facet normal -1.168524e-14 -1.168524e-14 1.000000e+00
    outer loop
      vertex   -4.391919e+02 4.572627e+01 -4.032667e+02
      vertex   -4.381919e+02 4.472627e+01 -4.032667e+02
      vertex   -4.381919e+02 7.391355e+01 -4.032667e+02
    endloop
  endfacet
  facet normal -4.638937e-14 -1.045405e-14 1.000000e+00
    outer loop
      vertex   -4.391919e+02 4.572627e+01 -4.032667e+02
      vertex   -4.381919e+02 7.391355e+01 -4.032667e+02
      vertex   -4.391919e+02 7.291355e+01 -4.032667e+02
    endloop
  endfacet
  facet normal 0.000000e+00 -5.684342e-14 1.000000e+00
    outer loop
      vertex   -4.391919e+02 7.291355e+01 -4.032667e+02
      vertex   -4.381919e+02 7.391355e+01 -4.032667e+02
      vertex   -4.411919e+02 7.391355e+01 -4.032667e+02
    endloop
  endfacet
  facet normal 0.000000e+00 -5.684342e-14 1.000000e+00
    outer loop
      vertex   -4.391919e+02 7.291355e+01 -4.032667e+02
      vertex   -4.411919e+02 7.391355e+01 -4.032667e+02
      vertex   -4.421919e+02 7.291355e+01 -4.032667e+02
    endloop
  endfacet
  facet normal -4.547474e-14 -1.136868e-14 1.000000e+00
    outer loop
      vertex   -4.421919e+02 7.291355e+01 -4.032667e+02
      vertex   -4.411919e+02 7.391355e+01 -4.032667e+02
      vertex   -4.421919e+02 7.791355e+01 -4.032667e+02
    endloop
  endfacet
  facet normal 0.000000e+00 0.000000e+00 1.000000e+00
    outer loop
      vertex   -4.421919e+02 7.791355e+01 -4.032667e+02
      vertex   -4.411919e+02 7.391355e+01 -4.032667e+02
      vertex   -4.411919e+02 7.691355e+01 -4.032667e+02
    endloop
  endfacet
  facet normal 0.000000e+00 0.000000e+00 1.000000e+00
    outer loop
      vertex   -4.421919e+02 7.791355e+01 -4.032667e+02
      vertex   -4.411919e+02 7.691355e+01 -4.032667e+02
      vertex   -3.886323e+02 7.691355e+01 -4.032667e+02
    endloop
  endfacet
  facet normal -0.000000e+00 0.000000e+00 1.000000e+00
    outer loop
      vertex   -4.421919e+02 7.791355e+01 -4.032667e+02
      vertex   -3.886323e+02 7.691355e+01 -4.032667e+02
      vertex   -3.876323e+02 7.791355e+01 -4.032667e+02
    endloop
  endfacet
  facet normal 0.000000e+00 0.000000e+00 1.000000e+00
    outer loop
      vertex   -3.876323e+02 7.791355e+01 -4.032667e+02
      vertex   -3.886323e+02 7.691355e+01 -4.032667e+02
      vertex   -3.886323e+02 7.391355e+01 -4.032667e+02
    endloop
  endfacet
  facet normal 4.547474e-14 -1.136868e-14 1.000000e+00
    outer loop
      vertex   -3.876323e+02 7.791355e+01 -4.032667e+02
      vertex   -3.886323e+02 7.391355e+01 -4.032667e+02
      vertex   -3.876323e+02 7.291355e+01 -4.032667e+02
    endloop
  endfacet
  facet normal 0.000000e+00 -5.684342e-14 1.000000e+00
    outer loop
      vertex   -3.876323e+02 7.291355e+01 -4.032667e+02
      vertex   -3.886323e+02 7.391355e+01 -4.032667e+02
      vertex   -3.906323e+02 7.291355e+01 -4.032667e+02
    endloop
  endfacet
  facet normal 0.000000e+00 -5.684342e-14 1.000000e+00
    outer loop
      vertex   -3.906323e+02 7.291355e+01 -4.032667e+02
      vertex   -3.886323e+02 7.391355e+01 -4.032667e+02
      vertex   -3.916323e+02 7.391355e+01 -4.032667e+02
    endloop
  endfacet
  facet normal 4.638937e-14 -1.045405e-14 1.000000e+00
    outer loop
      vertex   -3.906323e+02 7.291355e+01 -4.032667e+02
      vertex   -3.916323e+02 7.391355e+01 -4.032667e+02
      vertex   -3.906323e+02 4.572627e+01 -4.032667e+02
    endloop
  endfacet
  facet normal 1.168524e-14 -1.168524e-14 1.000000e+00
    outer loop
      vertex   -3.906323e+02 4.572627e+01 -4.032667e+02
      vertex   -3.916323e+02 7.391355e+01 -4.032667e+02
      vertex   -3.916323e+02 4.472627e+01 -4.032667e+02
    endloop
  endfacet
  facet normal 0.000000e+00 0.000000e+00 1.000000e+00
    outer loop
      vertex   -3.906323e+02 4.572627e+01 -4.032667e+02
      vertex   -3.916323e+02 4.472627e+01 -4.032667e+02
      vertex   -3.886323e+02 4.472627e+01 -4.032667e+02
    endloop
  endfacet
  facet normal -0.000000e+00 0.000000e+00 1.000000e+00
    outer loop
      vertex   -3.906323e+02 4.572627e+01 -4.032667e+02
      vertex   -3.886323e+02 4.472627e+01 -4.032667e+02
      vertex   -3.876323e+02 4.572627e+01 -4.032667e+02
    endloop
  endfacet
  facet normal 0.000000e+00 0.000000e+00 1.000000e+00
    outer loop
      vertex   -3.876323e+02 4.572627e+01 -4.032667e+02
      vertex   -3.886323e+02 4.472627e+01 -4.032667e+02
      vertex   -3.886323e+02 4.172627e+01 -4.032667e+02
    endloop
  endfacet
  facet normal 4.547474e-14 -1.136868e-14 1.000000e+00
    outer loop
      vertex   -3.876323e+02 4.572627e+01 -4.032667e+02
      vertex   -3.886323e+02 4.172627e+01 -4.032667e+02
      vertex   -3.876323e+02 4.072627e+01 -4.032667e+02
    endloop
  endfacet
  facet normal 0.000000e+00 -5.684342e-14 1.000000e+00
    outer loop
      vertex   -3.876323e+02 4.072627e+01 -4.032667e+02
      vertex   -3.886323e+02 4.172627e+01 -4.032667e+02
      vertex   -4.411919e+02 4.172627e+01 -4.032667e+02
    endloop
  endfacet
endsolid
