solid ASCII
  facet normal 9.099613e-01 0.000000e+00 -4.146932e-01
    outer loop
      vertex   -8.336614e+00 -8.100000e+00 -5.695448e+02
      vertex   -8.336614e+00 -8.000000e+00 -5.695448e+02
      vertex   -8.260065e+00 -8.100000e+00 -5.693769e+02
    endloop
  endfacet
  facet normal 9.099613e-01 0.000000e+00 -4.146932e-01
    outer loop
      vertex   -8.260065e+00 -8.100000e+00 -5.693769e+02
      vertex   -8.336614e+00 -8.000000e+00 -5.695448e+02
      vertex   -8.260065e+00 -8.000000e+00 -5.693769e+02
    endloop
  endfacet
  facet normal 9.862856e-01 0.000000e+00 -1.650476e-01
    outer loop
      vertex   -8.260065e+00 -8.100000e+00 -5.693769e+02
      vertex   -8.260065e+00 -8.000000e+00 -5.693769e+02
      vertex   -8.229598e+00 -8.100000e+00 -5.691948e+02
    endloop
  endfacet
  facet normal 9.862856e-01 1.751995e-14 -1.650476e-01
    outer loop
      vertex   -8.229598e+00 -8.100000e+00 -5.691948e+02
      vertex   -8.260065e+00 -8.000000e+00 -5.693769e+02
      vertex   -8.229598e+00 -8.000000e+00 -5.691948e+02
    endloop
  endfacet
  facet normal 9.953962e-01 1.768179e-14 9.584575e-02
    outer loop
      vertex   -8.229598e+00 -8.100000e+00 -5.691948e+02
      vertex   -8.229598e+00 -8.000000e+00 -5.691948e+02
      vertex   -8.247291e+00 -8.100000e+00 -5.690111e+02
    endloop
  endfacet
  facet normal 9.953962e-01 -0.000000e+00 9.584575e-02
    outer loop
      vertex   -8.247291e+00 -8.100000e+00 -5.690111e+02
      vertex   -8.229598e+00 -8.000000e+00 -5.691948e+02
      vertex   -8.247291e+00 -8.000000e+00 -5.690111e+02
    endloop
  endfacet
  facet normal 9.366722e-01 -0.000000e+00 3.502074e-01
    outer loop
      vertex   -8.247291e+00 -8.100000e+00 -5.690111e+02
      vertex   -8.247291e+00 -8.000000e+00 -5.690111e+02
      vertex   -8.311936e+00 -8.100000e+00 -5.688382e+02
    endloop
  endfacet
  facet normal 9.366722e-01 -0.000000e+00 3.502074e-01
    outer loop
      vertex   -8.311936e+00 -8.100000e+00 -5.688382e+02
      vertex   -8.247291e+00 -8.000000e+00 -5.690111e+02
      vertex   -8.311936e+00 -8.000000e+00 -5.688382e+02
    endloop
  endfacet
  facet normal 8.141155e-01 -0.000000e+00 5.807030e-01
    outer loop
      vertex   -8.311936e+00 -8.100000e+00 -5.688382e+02
      vertex   -8.311936e+00 -8.000000e+00 -5.688382e+02
      vertex   -8.419129e+00 -8.100000e+00 -5.686879e+02
    endloop
  endfacet
  facet normal 8.141155e-01 1.446160e-14 5.807030e-01
    outer loop
      vertex   -8.419129e+00 -8.100000e+00 -5.686879e+02
      vertex   -8.311936e+00 -8.000000e+00 -5.688382e+02
      vertex   -8.419129e+00 -8.000000e+00 -5.686879e+02
    endloop
  endfacet
  facet normal 6.360782e-01 1.129902e-14 7.716246e-01
    outer loop
      vertex   -8.419129e+00 -8.100000e+00 -5.686879e+02
      vertex   -8.419129e+00 -8.000000e+00 -5.686879e+02
      vertex   -8.561565e+00 -8.100000e+00 -5.685705e+02
    endloop
  endfacet
  facet normal 6.360782e-01 -0.000000e+00 7.716246e-01
    outer loop
      vertex   -8.561565e+00 -8.100000e+00 -5.685705e+02
      vertex   -8.419129e+00 -8.000000e+00 -5.686879e+02
      vertex   -8.561565e+00 -8.000000e+00 -5.685705e+02
    endloop
  endfacet
  facet normal 5.299193e-01 0.000000e+00 8.480481e-01
    outer loop
      vertex   -8.561565e+00 -8.000000e+00 -5.685705e+02
      vertex   -1.584272e+01 -8.000000e+00 -5.640207e+02
      vertex   -8.561565e+00 -8.100000e+00 -5.685705e+02
    endloop
  endfacet
  facet normal 5.299193e-01 0.000000e+00 8.480481e-01
    outer loop
      vertex   -8.561565e+00 -8.100000e+00 -5.685705e+02
      vertex   -1.584272e+01 -8.000000e+00 -5.640207e+02
      vertex   -1.584272e+01 -8.100000e+00 -5.640207e+02
    endloop
  endfacet
  facet normal 4.146932e-01 -0.000000e+00 9.099613e-01
    outer loop
      vertex   -1.584272e+01 -8.100000e+00 -5.640207e+02
      vertex   -1.584272e+01 -8.000000e+00 -5.640207e+02
      vertex   -1.601070e+01 -8.100000e+00 -5.639441e+02
    endloop
  endfacet
  facet normal 4.146932e-01 -0.000000e+00 9.099613e-01
    outer loop
      vertex   -1.601070e+01 -8.100000e+00 -5.639441e+02
      vertex   -1.584272e+01 -8.000000e+00 -5.640207e+02
      vertex   -1.601070e+01 -8.000000e+00 -5.639441e+02
    endloop
  endfacet
  facet normal 1.650476e-01 -0.000000e+00 9.862856e-01
    outer loop
      vertex   -1.601070e+01 -8.100000e+00 -5.639441e+02
      vertex   -1.601070e+01 -8.000000e+00 -5.639441e+02
      vertex   -1.619276e+01 -8.100000e+00 -5.639137e+02
    endloop
  endfacet
  facet normal 1.650476e-01 -0.000000e+00 9.862856e-01
    outer loop
      vertex   -1.619276e+01 -8.100000e+00 -5.639137e+02
      vertex   -1.601070e+01 -8.000000e+00 -5.639441e+02
      vertex   -1.619276e+01 -8.000000e+00 -5.639137e+02
    endloop
  endfacet
  facet normal -9.584575e-02 0.000000e+00 9.953962e-01
    outer loop
      vertex   -1.619276e+01 -8.100000e+00 -5.639137e+02
      vertex   -1.619276e+01 -8.000000e+00 -5.639137e+02
      vertex   -1.637650e+01 -8.100000e+00 -5.639314e+02
    endloop
  endfacet
  facet normal -9.584575e-02 0.000000e+00 9.953962e-01
    outer loop
      vertex   -1.637650e+01 -8.100000e+00 -5.639314e+02
      vertex   -1.619276e+01 -8.000000e+00 -5.639137e+02
      vertex   -1.637650e+01 -8.000000e+00 -5.639314e+02
    endloop
  endfacet
  facet normal -3.502074e-01 0.000000e+00 9.366722e-01
    outer loop
      vertex   -1.637650e+01 -8.100000e+00 -5.639314e+02
      vertex   -1.637650e+01 -8.000000e+00 -5.639314e+02
      vertex   -1.654940e+01 -8.100000e+00 -5.639960e+02
    endloop
  endfacet
  facet normal -3.502074e-01 0.000000e+00 9.366722e-01
    outer loop
      vertex   -1.654940e+01 -8.100000e+00 -5.639960e+02
      vertex   -1.637650e+01 -8.000000e+00 -5.639314e+02
      vertex   -1.654940e+01 -8.000000e+00 -5.639960e+02
    endloop
  endfacet
  facet normal -5.807030e-01 0.000000e+00 8.141155e-01
    outer loop
      vertex   -1.654940e+01 -8.100000e+00 -5.639960e+02
      vertex   -1.654940e+01 -8.000000e+00 -5.639960e+02
      vertex   -1.669968e+01 -8.100000e+00 -5.641032e+02
    endloop
  endfacet
  facet normal -5.807030e-01 0.000000e+00 8.141155e-01
    outer loop
      vertex   -1.669968e+01 -8.100000e+00 -5.641032e+02
      vertex   -1.654940e+01 -8.000000e+00 -5.639960e+02
      vertex   -1.669968e+01 -8.000000e+00 -5.641032e+02
    endloop
  endfacet
  facet normal -7.716246e-01 0.000000e+00 6.360782e-01
    outer loop
      vertex   -1.669968e+01 -8.100000e+00 -5.641032e+02
      vertex   -1.669968e+01 -8.000000e+00 -5.641032e+02
      vertex   -1.681709e+01 -8.100000e+00 -5.642456e+02
    endloop
  endfacet
  facet normal -7.716246e-01 0.000000e+00 6.360782e-01
    outer loop
      vertex   -1.681709e+01 -8.100000e+00 -5.642456e+02
      vertex   -1.669968e+01 -8.000000e+00 -5.641032e+02
      vertex   -1.681709e+01 -8.000000e+00 -5.642456e+02
    endloop
  endfacet
  facet normal -8.480481e-01 0.000000e+00 5.299193e-01
    outer loop
      vertex   -1.681709e+01 -8.000000e+00 -5.642456e+02
      vertex   -2.422843e+01 -8.000000e+00 -5.761063e+02
      vertex   -1.681709e+01 -8.100000e+00 -5.642456e+02
    endloop
  endfacet
  facet normal -8.480481e-01 0.000000e+00 5.299193e-01
    outer loop
      vertex   -1.681709e+01 -8.100000e+00 -5.642456e+02
      vertex   -2.422843e+01 -8.000000e+00 -5.761063e+02
      vertex   -2.422843e+01 -8.100000e+00 -5.761063e+02
    endloop
  endfacet
  facet normal -9.099613e-01 0.000000e+00 4.146932e-01
    outer loop
      vertex   -2.422843e+01 -8.100000e+00 -5.761063e+02
      vertex   -2.422843e+01 -8.000000e+00 -5.761063e+02
      vertex   -2.430498e+01 -8.100000e+00 -5.762742e+02
    endloop
  endfacet
  facet normal -9.099613e-01 0.000000e+00 4.146932e-01
    outer loop
      vertex   -2.430498e+01 -8.100000e+00 -5.762742e+02
      vertex   -2.422843e+01 -8.000000e+00 -5.761063e+02
      vertex   -2.430498e+01 -8.000000e+00 -5.762742e+02
    endloop
  endfacet
  facet normal -9.862856e-01 0.000000e+00 1.650476e-01
    outer loop
      vertex   -2.430498e+01 -8.100000e+00 -5.762742e+02
      vertex   -2.430498e+01 -8.000000e+00 -5.762742e+02
      vertex   -2.433545e+01 -8.100000e+00 -5.764563e+02
    endloop
  endfacet
  facet normal -9.862856e-01 0.000000e+00 1.650476e-01
    outer loop
      vertex   -2.433545e+01 -8.100000e+00 -5.764563e+02
      vertex   -2.430498e+01 -8.000000e+00 -5.762742e+02
      vertex   -2.433545e+01 -8.000000e+00 -5.764563e+02
    endloop
  endfacet
  facet normal -9.953962e-01 0.000000e+00 -9.584575e-02
    outer loop
      vertex   -2.433545e+01 -8.100000e+00 -5.764563e+02
      vertex   -2.433545e+01 -8.000000e+00 -5.764563e+02
      vertex   -2.431776e+01 -8.100000e+00 -5.766400e+02
    endloop
  endfacet
  facet normal -9.953962e-01 0.000000e+00 -9.584575e-02
    outer loop
      vertex   -2.431776e+01 -8.100000e+00 -5.766400e+02
      vertex   -2.433545e+01 -8.000000e+00 -5.764563e+02
      vertex   -2.431776e+01 -8.000000e+00 -5.766400e+02
    endloop
  endfacet
  facet normal -9.366722e-01 0.000000e+00 -3.502074e-01
    outer loop
      vertex   -2.431776e+01 -8.100000e+00 -5.766400e+02
      vertex   -2.431776e+01 -8.000000e+00 -5.766400e+02
      vertex   -2.425311e+01 -8.100000e+00 -5.768129e+02
    endloop
  endfacet
  facet normal -9.366722e-01 0.000000e+00 -3.502074e-01
    outer loop
      vertex   -2.425311e+01 -8.100000e+00 -5.768129e+02
      vertex   -2.431776e+01 -8.000000e+00 -5.766400e+02
      vertex   -2.425311e+01 -8.000000e+00 -5.768129e+02
    endloop
  endfacet
  facet normal -8.141155e-01 0.000000e+00 -5.807030e-01
    outer loop
      vertex   -2.425311e+01 -8.100000e+00 -5.768129e+02
      vertex   -2.425311e+01 -8.000000e+00 -5.768129e+02
      vertex   -2.414592e+01 -8.100000e+00 -5.769632e+02
    endloop
  endfacet
  facet normal -8.141155e-01 0.000000e+00 -5.807030e-01
    outer loop
      vertex   -2.414592e+01 -8.100000e+00 -5.769632e+02
      vertex   -2.425311e+01 -8.000000e+00 -5.768129e+02
      vertex   -2.414592e+01 -8.000000e+00 -5.769632e+02
    endloop
  endfacet
  facet normal -6.360782e-01 0.000000e+00 -7.716246e-01
    outer loop
      vertex   -2.414592e+01 -8.100000e+00 -5.769632e+02
      vertex   -2.414592e+01 -8.000000e+00 -5.769632e+02
      vertex   -2.400348e+01 -8.100000e+00 -5.770806e+02
    endloop
  endfacet
  facet normal -6.360782e-01 0.000000e+00 -7.716246e-01
    outer loop
      vertex   -2.400348e+01 -8.100000e+00 -5.770806e+02
      vertex   -2.414592e+01 -8.000000e+00 -5.769632e+02
      vertex   -2.400348e+01 -8.000000e+00 -5.770806e+02
    endloop
  endfacet
  facet normal -5.299193e-01 -0.000000e+00 -8.480481e-01
    outer loop
      vertex   -2.400348e+01 -8.000000e+00 -5.770806e+02
      vertex   -1.672232e+01 -8.000000e+00 -5.816304e+02
      vertex   -2.400348e+01 -8.100000e+00 -5.770806e+02
    endloop
  endfacet
  facet normal -5.299193e-01 0.000000e+00 -8.480481e-01
    outer loop
      vertex   -2.400348e+01 -8.100000e+00 -5.770806e+02
      vertex   -1.672232e+01 -8.000000e+00 -5.816304e+02
      vertex   -1.672232e+01 -8.100000e+00 -5.816304e+02
    endloop
  endfacet
  facet normal -4.146932e-01 0.000000e+00 -9.099613e-01
    outer loop
      vertex   -1.672232e+01 -8.100000e+00 -5.816304e+02
      vertex   -1.672232e+01 -8.000000e+00 -5.816304e+02
      vertex   -1.655435e+01 -8.100000e+00 -5.817070e+02
    endloop
  endfacet
  facet normal -4.146932e-01 0.000000e+00 -9.099613e-01
    outer loop
      vertex   -1.655435e+01 -8.100000e+00 -5.817070e+02
      vertex   -1.672232e+01 -8.000000e+00 -5.816304e+02
      vertex   -1.655435e+01 -8.000000e+00 -5.817070e+02
    endloop
  endfacet
  facet normal -1.650476e-01 0.000000e+00 -9.862856e-01
    outer loop
      vertex   -1.655435e+01 -8.100000e+00 -5.817070e+02
      vertex   -1.655435e+01 -8.000000e+00 -5.817070e+02
      vertex   -1.637229e+01 -8.100000e+00 -5.817374e+02
    endloop
  endfacet
  facet normal -1.650476e-01 0.000000e+00 -9.862856e-01
    outer loop
      vertex   -1.637229e+01 -8.100000e+00 -5.817374e+02
      vertex   -1.655435e+01 -8.000000e+00 -5.817070e+02
      vertex   -1.637229e+01 -8.000000e+00 -5.817374e+02
    endloop
  endfacet
  facet normal 9.584575e-02 0.000000e+00 -9.953962e-01
    outer loop
      vertex   -1.637229e+01 -8.100000e+00 -5.817374e+02
      vertex   -1.637229e+01 -8.000000e+00 -5.817374e+02
      vertex   -1.618855e+01 -8.100000e+00 -5.817197e+02
    endloop
  endfacet
  facet normal 9.584575e-02 0.000000e+00 -9.953962e-01
    outer loop
      vertex   -1.618855e+01 -8.100000e+00 -5.817197e+02
      vertex   -1.637229e+01 -8.000000e+00 -5.817374e+02
      vertex   -1.618855e+01 -8.000000e+00 -5.817197e+02
    endloop
  endfacet
  facet normal 3.502074e-01 0.000000e+00 -9.366722e-01
    outer loop
      vertex   -1.618855e+01 -8.100000e+00 -5.817197e+02
      vertex   -1.618855e+01 -8.000000e+00 -5.817197e+02
      vertex   -1.601565e+01 -8.100000e+00 -5.816551e+02
    endloop
  endfacet
  facet normal 3.502074e-01 0.000000e+00 -9.366722e-01
    outer loop
      vertex   -1.601565e+01 -8.100000e+00 -5.816551e+02
      vertex   -1.618855e+01 -8.000000e+00 -5.817197e+02
      vertex   -1.601565e+01 -8.000000e+00 -5.816551e+02
    endloop
  endfacet
  facet normal 5.807030e-01 0.000000e+00 -8.141155e-01
    outer loop
      vertex   -1.601565e+01 -8.100000e+00 -5.816551e+02
      vertex   -1.601565e+01 -8.000000e+00 -5.816551e+02
      vertex   -1.586537e+01 -8.100000e+00 -5.815479e+02
    endloop
  endfacet
  facet normal 5.807030e-01 1.031536e-14 -8.141155e-01
    outer loop
      vertex   -1.586537e+01 -8.100000e+00 -5.815479e+02
      vertex   -1.601565e+01 -8.000000e+00 -5.816551e+02
      vertex   -1.586537e+01 -8.000000e+00 -5.815479e+02
    endloop
  endfacet
  facet normal 7.716246e-01 1.370681e-14 -6.360782e-01
    outer loop
      vertex   -1.586537e+01 -8.100000e+00 -5.815479e+02
      vertex   -1.586537e+01 -8.000000e+00 -5.815479e+02
      vertex   -1.574795e+01 -8.100000e+00 -5.814055e+02
    endloop
  endfacet
  facet normal 7.716246e-01 1.370681e-14 -6.360782e-01
    outer loop
      vertex   -1.574795e+01 -8.100000e+00 -5.814055e+02
      vertex   -1.586537e+01 -8.000000e+00 -5.815479e+02
      vertex   -1.574795e+01 -8.000000e+00 -5.814055e+02
    endloop
  endfacet
  facet normal 8.480481e-01 1.506436e-14 -5.299193e-01
    outer loop
      vertex   -1.574795e+01 -8.000000e+00 -5.814055e+02
      vertex   -8.336614e+00 -8.000000e+00 -5.695448e+02
      vertex   -1.574795e+01 -8.100000e+00 -5.814055e+02
    endloop
  endfacet
  facet normal 8.480481e-01 0.000000e+00 -5.299193e-01
    outer loop
      vertex   -1.574795e+01 -8.100000e+00 -5.814055e+02
      vertex   -8.336614e+00 -8.000000e+00 -5.695448e+02
      vertex   -8.336614e+00 -8.100000e+00 -5.695448e+02
    endloop
  endfacet
  facet normal 1.175417e-14 -1.000000e+00 -1.932637e-14
    outer loop
      vertex   -8.336614e+00 -8.100000e+00 -5.695448e+02
      vertex   -1.672232e+01 -8.100000e+00 -5.816304e+02
      vertex   -1.574795e+01 -8.100000e+00 -5.814055e+02
    endloop
  endfacet
  facet normal 1.906417e-14 -1.000000e+00 -5.098943e-14
    outer loop
      vertex   -1.574795e+01 -8.100000e+00 -5.814055e+02
      vertex   -1.672232e+01 -8.100000e+00 -5.816304e+02
      vertex   -1.655435e+01 -8.100000e+00 -5.817070e+02
    endloop
  endfacet
  facet normal 0.000000e+00 -1.000000e+00 0.000000e+00
    outer loop
      vertex   -1.574795e+01 -8.100000e+00 -5.814055e+02
      vertex   -1.655435e+01 -8.100000e+00 -5.817070e+02
      vertex   -1.637229e+01 -8.100000e+00 -5.817374e+02
    endloop
  endfacet
  facet normal -0.000000e+00 -1.000000e+00 0.000000e+00
    outer loop
      vertex   -8.260065e+00 -8.100000e+00 -5.693769e+02
      vertex   -8.229598e+00 -8.100000e+00 -5.691948e+02
      vertex   -8.336614e+00 -8.100000e+00 -5.695448e+02
    endloop
  endfacet
  facet normal 9.619095e-14 -1.000000e+00 -2.940852e-14
    outer loop
      vertex   -8.336614e+00 -8.100000e+00 -5.695448e+02
      vertex   -8.229598e+00 -8.100000e+00 -5.691948e+02
      vertex   -8.247291e+00 -8.100000e+00 -5.690111e+02
    endloop
  endfacet
  facet normal -2.459536e-14 -1.000000e+00 -9.195828e-15
    outer loop
      vertex   -8.336614e+00 -8.100000e+00 -5.695448e+02
      vertex   -8.247291e+00 -8.100000e+00 -5.690111e+02
      vertex   -8.311936e+00 -8.100000e+00 -5.688382e+02
    endloop
  endfacet
  facet normal -1.343829e-14 -1.000000e+00 -9.585441e-15
    outer loop
      vertex   -8.311936e+00 -8.100000e+00 -5.688382e+02
      vertex   -8.419129e+00 -8.100000e+00 -5.686879e+02
      vertex   -8.336614e+00 -8.100000e+00 -5.695448e+02
    endloop
  endfacet
  facet normal 4.676191e-14 -1.000000e+00 -3.788821e-15
    outer loop
      vertex   -8.336614e+00 -8.100000e+00 -5.695448e+02
      vertex   -8.419129e+00 -8.100000e+00 -5.686879e+02
      vertex   -8.561565e+00 -8.100000e+00 -5.685705e+02
    endloop
  endfacet
  facet normal 3.691950e-15 -1.000000e+00 -1.373230e-14
    outer loop
      vertex   -8.336614e+00 -8.100000e+00 -5.695448e+02
      vertex   -8.561565e+00 -8.100000e+00 -5.685705e+02
      vertex   -1.672232e+01 -8.100000e+00 -5.816304e+02
    endloop
  endfacet
  facet normal 3.287430e-15 -1.000000e+00 -1.347953e-14
    outer loop
      vertex   -1.672232e+01 -8.100000e+00 -5.816304e+02
      vertex   -8.561565e+00 -8.100000e+00 -5.685705e+02
      vertex   -2.400348e+01 -8.100000e+00 -5.770806e+02
    endloop
  endfacet
  facet normal 3.744758e-15 -1.000000e+00 -1.430937e-14
    outer loop
      vertex   -2.400348e+01 -8.100000e+00 -5.770806e+02
      vertex   -8.561565e+00 -8.100000e+00 -5.685705e+02
      vertex   -1.584272e+01 -8.100000e+00 -5.640207e+02
    endloop
  endfacet
  facet normal 3.056168e-15 -1.000000e+00 -1.387909e-14
    outer loop
      vertex   -2.400348e+01 -8.100000e+00 -5.770806e+02
      vertex   -1.584272e+01 -8.100000e+00 -5.640207e+02
      vertex   -2.422843e+01 -8.100000e+00 -5.761063e+02
    endloop
  endfacet
  facet normal 3.232484e-15 -1.000000e+00 -1.400142e-14
    outer loop
      vertex   -2.422843e+01 -8.100000e+00 -5.761063e+02
      vertex   -1.584272e+01 -8.100000e+00 -5.640207e+02
      vertex   -1.681709e+01 -8.100000e+00 -5.642456e+02
    endloop
  endfacet
  facet normal 0.000000e+00 -1.000000e+00 0.000000e+00
    outer loop
      vertex   -1.681709e+01 -8.100000e+00 -5.642456e+02
      vertex   -1.584272e+01 -8.100000e+00 -5.640207e+02
      vertex   -1.601070e+01 -8.100000e+00 -5.639441e+02
    endloop
  endfacet
  facet normal 0.000000e+00 -1.000000e+00 0.000000e+00
    outer loop
      vertex   -1.681709e+01 -8.100000e+00 -5.642456e+02
      vertex   -1.601070e+01 -8.100000e+00 -5.639441e+02
      vertex   -1.619276e+01 -8.100000e+00 -5.639137e+02
    endloop
  endfacet
  facet normal 0.000000e+00 -1.000000e+00 0.000000e+00
    outer loop
      vertex   -1.619276e+01 -8.100000e+00 -5.639137e+02
      vertex   -1.637650e+01 -8.100000e+00 -5.639314e+02
      vertex   -1.681709e+01 -8.100000e+00 -5.642456e+02
    endloop
  endfacet
  facet normal 0.000000e+00 -1.000000e+00 0.000000e+00
    outer loop
      vertex   -1.681709e+01 -8.100000e+00 -5.642456e+02
      vertex   -1.637650e+01 -8.100000e+00 -5.639314e+02
      vertex   -1.654940e+01 -8.100000e+00 -5.639960e+02
    endloop
  endfacet
  facet normal 0.000000e+00 -1.000000e+00 0.000000e+00
    outer loop
      vertex   -1.681709e+01 -8.100000e+00 -5.642456e+02
      vertex   -1.654940e+01 -8.100000e+00 -5.639960e+02
      vertex   -1.669968e+01 -8.100000e+00 -5.641032e+02
    endloop
  endfacet
  facet normal 0.000000e+00 -1.000000e+00 -0.000000e+00
    outer loop
      vertex   -2.430498e+01 -8.100000e+00 -5.762742e+02
      vertex   -2.433545e+01 -8.100000e+00 -5.764563e+02
      vertex   -2.422843e+01 -8.100000e+00 -5.761063e+02
    endloop
  endfacet
  facet normal 9.619095e-14 -1.000000e+00 -2.940852e-14
    outer loop
      vertex   -2.422843e+01 -8.100000e+00 -5.761063e+02
      vertex   -2.433545e+01 -8.100000e+00 -5.764563e+02
      vertex   -2.431776e+01 -8.100000e+00 -5.766400e+02
    endloop
  endfacet
  facet normal -2.459536e-14 -1.000000e+00 -9.195828e-15
    outer loop
      vertex   -2.422843e+01 -8.100000e+00 -5.761063e+02
      vertex   -2.431776e+01 -8.100000e+00 -5.766400e+02
      vertex   -2.425311e+01 -8.100000e+00 -5.768129e+02
    endloop
  endfacet
  facet normal 4.975424e-14 -1.000000e+00 -1.179217e-14
    outer loop
      vertex   -2.425311e+01 -8.100000e+00 -5.768129e+02
      vertex   -2.414592e+01 -8.100000e+00 -5.769632e+02
      vertex   -2.422843e+01 -8.100000e+00 -5.761063e+02
    endloop
  endfacet
  facet normal -1.484853e-14 -1.000000e+00 -1.801271e-14
    outer loop
      vertex   -2.422843e+01 -8.100000e+00 -5.761063e+02
      vertex   -2.414592e+01 -8.100000e+00 -5.769632e+02
      vertex   -2.400348e+01 -8.100000e+00 -5.770806e+02
    endloop
  endfacet
  facet normal 0.000000e+00 -1.000000e+00 0.000000e+00
    outer loop
      vertex   -1.637229e+01 -8.100000e+00 -5.817374e+02
      vertex   -1.618855e+01 -8.100000e+00 -5.817197e+02
      vertex   -1.574795e+01 -8.100000e+00 -5.814055e+02
    endloop
  endfacet
  facet normal 0.000000e+00 -1.000000e+00 0.000000e+00
    outer loop
      vertex   -1.574795e+01 -8.100000e+00 -5.814055e+02
      vertex   -1.618855e+01 -8.100000e+00 -5.817197e+02
      vertex   -1.601565e+01 -8.100000e+00 -5.816551e+02
    endloop
  endfacet
  facet normal 0.000000e+00 -1.000000e+00 0.000000e+00
    outer loop
      vertex   -1.574795e+01 -8.100000e+00 -5.814055e+02
      vertex   -1.601565e+01 -8.100000e+00 -5.816551e+02
      vertex   -1.586537e+01 -8.100000e+00 -5.815479e+02
    endloop
  endfacet
  facet normal -3.041953e-15 1.000000e+00 1.388237e-14
    outer loop
      vertex   -1.574795e+01 -8.000000e+00 -5.814055e+02
      vertex   -8.561565e+00 -8.000000e+00 -5.685705e+02
      vertex   -8.336614e+00 -8.000000e+00 -5.695448e+02
    endloop
  endfacet
  facet normal -4.676191e-14 1.000000e+00 3.788821e-15
    outer loop
      vertex   -8.336614e+00 -8.000000e+00 -5.695448e+02
      vertex   -8.561565e+00 -8.000000e+00 -5.685705e+02
      vertex   -8.419129e+00 -8.000000e+00 -5.686879e+02
    endloop
  endfacet
  facet normal 1.343829e-14 1.000000e+00 9.585441e-15
    outer loop
      vertex   -8.336614e+00 -8.000000e+00 -5.695448e+02
      vertex   -8.419129e+00 -8.000000e+00 -5.686879e+02
      vertex   -8.311936e+00 -8.000000e+00 -5.688382e+02
    endloop
  endfacet
  facet normal 0.000000e+00 1.000000e+00 -0.000000e+00
    outer loop
      vertex   -1.586537e+01 -8.000000e+00 -5.815479e+02
      vertex   -1.601565e+01 -8.000000e+00 -5.816551e+02
      vertex   -1.574795e+01 -8.000000e+00 -5.814055e+02
    endloop
  endfacet
  facet normal 0.000000e+00 1.000000e+00 0.000000e+00
    outer loop
      vertex   -1.574795e+01 -8.000000e+00 -5.814055e+02
      vertex   -1.601565e+01 -8.000000e+00 -5.816551e+02
      vertex   -1.618855e+01 -8.000000e+00 -5.817197e+02
    endloop
  endfacet
  facet normal 0.000000e+00 1.000000e+00 0.000000e+00
    outer loop
      vertex   -1.574795e+01 -8.000000e+00 -5.814055e+02
      vertex   -1.618855e+01 -8.000000e+00 -5.817197e+02
      vertex   -1.637229e+01 -8.000000e+00 -5.817374e+02
    endloop
  endfacet
  facet normal 0.000000e+00 1.000000e+00 -0.000000e+00
    outer loop
      vertex   -1.637229e+01 -8.000000e+00 -5.817374e+02
      vertex   -1.655435e+01 -8.000000e+00 -5.817070e+02
      vertex   -1.574795e+01 -8.000000e+00 -5.814055e+02
    endloop
  endfacet
  facet normal -1.906417e-14 1.000000e+00 5.098943e-14
    outer loop
      vertex   -1.574795e+01 -8.000000e+00 -5.814055e+02
      vertex   -1.655435e+01 -8.000000e+00 -5.817070e+02
      vertex   -1.672232e+01 -8.000000e+00 -5.816304e+02
    endloop
  endfacet
  facet normal -1.160411e-14 1.000000e+00 1.867637e-14
    outer loop
      vertex   -1.574795e+01 -8.000000e+00 -5.814055e+02
      vertex   -1.672232e+01 -8.000000e+00 -5.816304e+02
      vertex   -8.561565e+00 -8.000000e+00 -5.685705e+02
    endloop
  endfacet
  facet normal -3.287430e-15 1.000000e+00 1.347953e-14
    outer loop
      vertex   -8.561565e+00 -8.000000e+00 -5.685705e+02
      vertex   -1.672232e+01 -8.000000e+00 -5.816304e+02
      vertex   -1.584272e+01 -8.000000e+00 -5.640207e+02
    endloop
  endfacet
  facet normal -3.287430e-15 1.000000e+00 1.347953e-14
    outer loop
      vertex   -1.584272e+01 -8.000000e+00 -5.640207e+02
      vertex   -1.672232e+01 -8.000000e+00 -5.816304e+02
      vertex   -2.400348e+01 -8.000000e+00 -5.770806e+02
    endloop
  endfacet
  facet normal -3.082420e-15 1.000000e+00 1.335143e-14
    outer loop
      vertex   -1.584272e+01 -8.000000e+00 -5.640207e+02
      vertex   -2.400348e+01 -8.000000e+00 -5.770806e+02
      vertex   -1.681709e+01 -8.000000e+00 -5.642456e+02
    endloop
  endfacet
  facet normal 5.479736e-15 1.000000e+00 8.557426e-15
    outer loop
      vertex   -1.681709e+01 -8.000000e+00 -5.642456e+02
      vertex   -2.400348e+01 -8.000000e+00 -5.770806e+02
      vertex   -2.422843e+01 -8.000000e+00 -5.761063e+02
    endloop
  endfacet
  facet normal 7.424267e-15 1.000000e+00 9.006356e-15
    outer loop
      vertex   -2.422843e+01 -8.000000e+00 -5.761063e+02
      vertex   -2.400348e+01 -8.000000e+00 -5.770806e+02
      vertex   -2.414592e+01 -8.000000e+00 -5.769632e+02
    endloop
  endfacet
  facet normal -6.319253e-14 1.000000e+00 2.206732e-15
    outer loop
      vertex   -2.422843e+01 -8.000000e+00 -5.761063e+02
      vertex   -2.414592e+01 -8.000000e+00 -5.769632e+02
      vertex   -2.425311e+01 -8.000000e+00 -5.768129e+02
    endloop
  endfacet
  facet normal 0.000000e+00 1.000000e+00 -0.000000e+00
    outer loop
      vertex   -2.425311e+01 -8.000000e+00 -5.768129e+02
      vertex   -2.431776e+01 -8.000000e+00 -5.766400e+02
      vertex   -2.422843e+01 -8.000000e+00 -5.761063e+02
    endloop
  endfacet
  facet normal 0.000000e+00 1.000000e+00 0.000000e+00
    outer loop
      vertex   -2.422843e+01 -8.000000e+00 -5.761063e+02
      vertex   -2.431776e+01 -8.000000e+00 -5.766400e+02
      vertex   -2.433545e+01 -8.000000e+00 -5.764563e+02
    endloop
  endfacet
  facet normal 0.000000e+00 1.000000e+00 0.000000e+00
    outer loop
      vertex   -2.422843e+01 -8.000000e+00 -5.761063e+02
      vertex   -2.433545e+01 -8.000000e+00 -5.764563e+02
      vertex   -2.430498e+01 -8.000000e+00 -5.762742e+02
    endloop
  endfacet
  facet normal -0.000000e+00 1.000000e+00 0.000000e+00
    outer loop
      vertex   -1.669968e+01 -8.000000e+00 -5.641032e+02
      vertex   -1.654940e+01 -8.000000e+00 -5.639960e+02
      vertex   -1.681709e+01 -8.000000e+00 -5.642456e+02
    endloop
  endfacet
  facet normal 6.859954e-14 1.000000e+00 -7.356400e-14
    outer loop
      vertex   -1.681709e+01 -8.000000e+00 -5.642456e+02
      vertex   -1.654940e+01 -8.000000e+00 -5.639960e+02
      vertex   -1.637650e+01 -8.000000e+00 -5.639314e+02
    endloop
  endfacet
  facet normal -2.516740e-15 1.000000e+00 2.613735e-14
    outer loop
      vertex   -1.681709e+01 -8.000000e+00 -5.642456e+02
      vertex   -1.637650e+01 -8.000000e+00 -5.639314e+02
      vertex   -1.619276e+01 -8.000000e+00 -5.639137e+02
    endloop
  endfacet
  facet normal -2.696080e-14 1.000000e+00 7.210994e-14
    outer loop
      vertex   -1.619276e+01 -8.000000e+00 -5.639137e+02
      vertex   -1.601070e+01 -8.000000e+00 -5.639441e+02
      vertex   -1.681709e+01 -8.000000e+00 -5.642456e+02
    endloop
  endfacet
  facet normal 0.000000e+00 1.000000e+00 0.000000e+00
    outer loop
      vertex   -1.681709e+01 -8.000000e+00 -5.642456e+02
      vertex   -1.601070e+01 -8.000000e+00 -5.639441e+02
      vertex   -1.584272e+01 -8.000000e+00 -5.640207e+02
    endloop
  endfacet
  facet normal 2.459536e-14 1.000000e+00 9.195828e-15
    outer loop
      vertex   -8.311936e+00 -8.000000e+00 -5.688382e+02
      vertex   -8.247291e+00 -8.000000e+00 -5.690111e+02
      vertex   -8.336614e+00 -8.000000e+00 -5.695448e+02
    endloop
  endfacet
  facet normal -9.619095e-14 1.000000e+00 2.940852e-14
    outer loop
      vertex   -8.336614e+00 -8.000000e+00 -5.695448e+02
      vertex   -8.247291e+00 -8.000000e+00 -5.690111e+02
      vertex   -8.229598e+00 -8.000000e+00 -5.691948e+02
    endloop
  endfacet
  facet normal 0.000000e+00 1.000000e+00 0.000000e+00
    outer loop
      vertex   -8.336614e+00 -8.000000e+00 -5.695448e+02
      vertex   -8.229598e+00 -8.000000e+00 -5.691948e+02
      vertex   -8.260065e+00 -8.000000e+00 -5.693769e+02
    endloop
  endfacet
endsolid
