solid ASCII
  facet normal 9.229596e-02 9.914449e-01 -9.229596e-02
    outer loop
      vertex   -1.694620e+02 3.223078e+02 -2.141153e+02
      vertex   -1.693913e+02 3.223078e+02 -2.140446e+02
      vertex   -1.693326e+02 3.222837e+02 -2.142447e+02
    endloop
  endfacet
  facet normal 9.229596e-02 9.914449e-01 -9.229596e-02
    outer loop
      vertex   -1.693326e+02 3.222837e+02 -2.142447e+02
      vertex   -1.693913e+02 3.223078e+02 -2.140446e+02
      vertex   -1.692619e+02 3.222837e+02 -2.141740e+02
    endloop
  endfacet
  facet normal 2.705981e-01 9.238795e-01 -2.705981e-01
    outer loop
      vertex   -1.693326e+02 3.222837e+02 -2.142447e+02
      vertex   -1.692619e+02 3.222837e+02 -2.141740e+02
      vertex   -1.692120e+02 3.222130e+02 -2.143653e+02
    endloop
  endfacet
  facet normal 2.705981e-01 9.238795e-01 -2.705981e-01
    outer loop
      vertex   -1.692120e+02 3.222130e+02 -2.143653e+02
      vertex   -1.692619e+02 3.222837e+02 -2.141740e+02
      vertex   -1.691413e+02 3.222130e+02 -2.142946e+02
    endloop
  endfacet
  facet normal 4.304593e-01 7.933533e-01 -4.304593e-01
    outer loop
      vertex   -1.692120e+02 3.222130e+02 -2.143653e+02
      vertex   -1.691413e+02 3.222130e+02 -2.142946e+02
      vertex   -1.691085e+02 3.221007e+02 -2.144689e+02
    endloop
  endfacet
  facet normal 4.304593e-01 7.933533e-01 -4.304593e-01
    outer loop
      vertex   -1.691085e+02 3.221007e+02 -2.144689e+02
      vertex   -1.691413e+02 3.222130e+02 -2.142946e+02
      vertex   -1.690378e+02 3.221007e+02 -2.143982e+02
    endloop
  endfacet
  facet normal 5.609855e-01 6.087614e-01 -5.609855e-01
    outer loop
      vertex   -1.691085e+02 3.221007e+02 -2.144689e+02
      vertex   -1.690378e+02 3.221007e+02 -2.143982e+02
      vertex   -1.690290e+02 3.219542e+02 -2.145483e+02
    endloop
  endfacet
  facet normal 5.609855e-01 6.087614e-01 -5.609855e-01
    outer loop
      vertex   -1.690290e+02 3.219542e+02 -2.145483e+02
      vertex   -1.690378e+02 3.221007e+02 -2.143982e+02
      vertex   -1.689583e+02 3.219542e+02 -2.144776e+02
    endloop
  endfacet
  facet normal 6.532815e-01 3.826834e-01 -6.532815e-01
    outer loop
      vertex   -1.690290e+02 3.219542e+02 -2.145483e+02
      vertex   -1.689583e+02 3.219542e+02 -2.144776e+02
      vertex   -1.689791e+02 3.217837e+02 -2.145983e+02
    endloop
  endfacet
  facet normal 6.532815e-01 3.826834e-01 -6.532815e-01
    outer loop
      vertex   -1.689791e+02 3.217837e+02 -2.145983e+02
      vertex   -1.689583e+02 3.219542e+02 -2.144776e+02
      vertex   -1.689084e+02 3.217837e+02 -2.145276e+02
    endloop
  endfacet
  facet normal 7.010574e-01 1.305262e-01 -7.010574e-01
    outer loop
      vertex   -1.689791e+02 3.217837e+02 -2.145983e+02
      vertex   -1.689084e+02 3.217837e+02 -2.145276e+02
      vertex   -1.689620e+02 3.216007e+02 -2.146153e+02
    endloop
  endfacet
  facet normal 7.010574e-01 1.305262e-01 -7.010574e-01
    outer loop
      vertex   -1.689620e+02 3.216007e+02 -2.146153e+02
      vertex   -1.689084e+02 3.217837e+02 -2.145276e+02
      vertex   -1.688913e+02 3.216007e+02 -2.145446e+02
    endloop
  endfacet
  facet normal 0.000000e+00 1.000000e+00 0.000000e+00
    outer loop
      vertex   -1.754624e+02 3.223078e+02 -2.079735e+02
      vertex   -1.693913e+02 3.223078e+02 -2.140446e+02
      vertex   -1.755331e+02 3.223078e+02 -2.080442e+02
    endloop
  endfacet
  facet normal 0.000000e+00 1.000000e+00 0.000000e+00
    outer loop
      vertex   -1.755331e+02 3.223078e+02 -2.080442e+02
      vertex   -1.693913e+02 3.223078e+02 -2.140446e+02
      vertex   -1.694620e+02 3.223078e+02 -2.141153e+02
    endloop
  endfacet
  facet normal -7.010574e-01 1.305262e-01 7.010574e-01
    outer loop
      vertex   -1.760331e+02 3.216007e+02 -2.075442e+02
      vertex   -1.759624e+02 3.216007e+02 -2.074735e+02
      vertex   -1.760161e+02 3.217837e+02 -2.075613e+02
    endloop
  endfacet
  facet normal -7.010574e-01 1.305262e-01 7.010574e-01
    outer loop
      vertex   -1.760161e+02 3.217837e+02 -2.075613e+02
      vertex   -1.759624e+02 3.216007e+02 -2.074735e+02
      vertex   -1.759453e+02 3.217837e+02 -2.074906e+02
    endloop
  endfacet
  facet normal -6.532815e-01 3.826834e-01 6.532815e-01
    outer loop
      vertex   -1.760161e+02 3.217837e+02 -2.075613e+02
      vertex   -1.759453e+02 3.217837e+02 -2.074906e+02
      vertex   -1.759661e+02 3.219542e+02 -2.076112e+02
    endloop
  endfacet
  facet normal -6.532815e-01 3.826834e-01 6.532815e-01
    outer loop
      vertex   -1.759661e+02 3.219542e+02 -2.076112e+02
      vertex   -1.759453e+02 3.217837e+02 -2.074906e+02
      vertex   -1.758954e+02 3.219542e+02 -2.075405e+02
    endloop
  endfacet
  facet normal -5.609855e-01 6.087614e-01 5.609855e-01
    outer loop
      vertex   -1.759661e+02 3.219542e+02 -2.076112e+02
      vertex   -1.758954e+02 3.219542e+02 -2.075405e+02
      vertex   -1.758867e+02 3.221007e+02 -2.076907e+02
    endloop
  endfacet
  facet normal -5.609855e-01 6.087614e-01 5.609855e-01
    outer loop
      vertex   -1.758867e+02 3.221007e+02 -2.076907e+02
      vertex   -1.758954e+02 3.219542e+02 -2.075405e+02
      vertex   -1.758159e+02 3.221007e+02 -2.076200e+02
    endloop
  endfacet
  facet normal -4.304593e-01 7.933533e-01 4.304593e-01
    outer loop
      vertex   -1.758867e+02 3.221007e+02 -2.076907e+02
      vertex   -1.758159e+02 3.221007e+02 -2.076200e+02
      vertex   -1.757831e+02 3.222130e+02 -2.077942e+02
    endloop
  endfacet
  facet normal -4.304593e-01 7.933533e-01 4.304593e-01
    outer loop
      vertex   -1.757831e+02 3.222130e+02 -2.077942e+02
      vertex   -1.758159e+02 3.221007e+02 -2.076200e+02
      vertex   -1.757124e+02 3.222130e+02 -2.077235e+02
    endloop
  endfacet
  facet normal -2.705981e-01 9.238795e-01 2.705981e-01
    outer loop
      vertex   -1.757831e+02 3.222130e+02 -2.077942e+02
      vertex   -1.757124e+02 3.222130e+02 -2.077235e+02
      vertex   -1.756625e+02 3.222837e+02 -2.079148e+02
    endloop
  endfacet
  facet normal -2.705981e-01 9.238795e-01 2.705981e-01
    outer loop
      vertex   -1.756625e+02 3.222837e+02 -2.079148e+02
      vertex   -1.757124e+02 3.222130e+02 -2.077235e+02
      vertex   -1.755918e+02 3.222837e+02 -2.078441e+02
    endloop
  endfacet
  facet normal -9.229596e-02 9.914449e-01 9.229596e-02
    outer loop
      vertex   -1.756625e+02 3.222837e+02 -2.079148e+02
      vertex   -1.755918e+02 3.222837e+02 -2.078441e+02
      vertex   -1.755331e+02 3.223078e+02 -2.080442e+02
    endloop
  endfacet
  facet normal -9.229596e-02 9.914449e-01 9.229596e-02
    outer loop
      vertex   -1.755331e+02 3.223078e+02 -2.080442e+02
      vertex   -1.755918e+02 3.222837e+02 -2.078441e+02
      vertex   -1.754624e+02 3.223078e+02 -2.079735e+02
    endloop
  endfacet
  facet normal -7.071068e-01 0.000000e+00 7.071068e-01
    outer loop
      vertex   -1.759624e+02 3.076149e+02 -2.074735e+02
      vertex   -1.759624e+02 3.216007e+02 -2.074735e+02
      vertex   -1.760331e+02 3.076149e+02 -2.075442e+02
    endloop
  endfacet
  facet normal -7.071068e-01 1.436972e-15 7.071068e-01
    outer loop
      vertex   -1.760331e+02 3.076149e+02 -2.075442e+02
      vertex   -1.759624e+02 3.216007e+02 -2.074735e+02
      vertex   -1.760331e+02 3.216007e+02 -2.075442e+02
    endloop
  endfacet
  facet normal -9.229596e-02 -9.914449e-01 9.229596e-02
    outer loop
      vertex   -1.755331e+02 3.069078e+02 -2.080442e+02
      vertex   -1.754624e+02 3.069078e+02 -2.079735e+02
      vertex   -1.756625e+02 3.069319e+02 -2.079148e+02
    endloop
  endfacet
  facet normal -9.229596e-02 -9.914449e-01 9.229596e-02
    outer loop
      vertex   -1.756625e+02 3.069319e+02 -2.079148e+02
      vertex   -1.754624e+02 3.069078e+02 -2.079735e+02
      vertex   -1.755918e+02 3.069319e+02 -2.078441e+02
    endloop
  endfacet
  facet normal -2.705981e-01 -9.238795e-01 2.705981e-01
    outer loop
      vertex   -1.756625e+02 3.069319e+02 -2.079148e+02
      vertex   -1.755918e+02 3.069319e+02 -2.078441e+02
      vertex   -1.757831e+02 3.070025e+02 -2.077942e+02
    endloop
  endfacet
  facet normal -2.705981e-01 -9.238795e-01 2.705981e-01
    outer loop
      vertex   -1.757831e+02 3.070025e+02 -2.077942e+02
      vertex   -1.755918e+02 3.069319e+02 -2.078441e+02
      vertex   -1.757124e+02 3.070025e+02 -2.077235e+02
    endloop
  endfacet
  facet normal -4.304593e-01 -7.933533e-01 4.304593e-01
    outer loop
      vertex   -1.757831e+02 3.070025e+02 -2.077942e+02
      vertex   -1.757124e+02 3.070025e+02 -2.077235e+02
      vertex   -1.758867e+02 3.071149e+02 -2.076907e+02
    endloop
  endfacet
  facet normal -4.304593e-01 -7.933533e-01 4.304593e-01
    outer loop
      vertex   -1.758867e+02 3.071149e+02 -2.076907e+02
      vertex   -1.757124e+02 3.070025e+02 -2.077235e+02
      vertex   -1.758159e+02 3.071149e+02 -2.076200e+02
    endloop
  endfacet
  facet normal -5.609855e-01 -6.087614e-01 5.609855e-01
    outer loop
      vertex   -1.758867e+02 3.071149e+02 -2.076907e+02
      vertex   -1.758159e+02 3.071149e+02 -2.076200e+02
      vertex   -1.759661e+02 3.072613e+02 -2.076112e+02
    endloop
  endfacet
  facet normal -5.609855e-01 -6.087614e-01 5.609855e-01
    outer loop
      vertex   -1.759661e+02 3.072613e+02 -2.076112e+02
      vertex   -1.758159e+02 3.071149e+02 -2.076200e+02
      vertex   -1.758954e+02 3.072613e+02 -2.075405e+02
    endloop
  endfacet
  facet normal -6.532815e-01 -3.826834e-01 6.532815e-01
    outer loop
      vertex   -1.759661e+02 3.072613e+02 -2.076112e+02
      vertex   -1.758954e+02 3.072613e+02 -2.075405e+02
      vertex   -1.760161e+02 3.074319e+02 -2.075613e+02
    endloop
  endfacet
  facet normal -6.532815e-01 -3.826834e-01 6.532815e-01
    outer loop
      vertex   -1.760161e+02 3.074319e+02 -2.075613e+02
      vertex   -1.758954e+02 3.072613e+02 -2.075405e+02
      vertex   -1.759453e+02 3.074319e+02 -2.074906e+02
    endloop
  endfacet
  facet normal -7.010574e-01 -1.305262e-01 7.010574e-01
    outer loop
      vertex   -1.760161e+02 3.074319e+02 -2.075613e+02
      vertex   -1.759453e+02 3.074319e+02 -2.074906e+02
      vertex   -1.760331e+02 3.076149e+02 -2.075442e+02
    endloop
  endfacet
  facet normal -7.010574e-01 -1.305262e-01 7.010574e-01
    outer loop
      vertex   -1.760331e+02 3.076149e+02 -2.075442e+02
      vertex   -1.759453e+02 3.074319e+02 -2.074906e+02
      vertex   -1.759624e+02 3.076149e+02 -2.074735e+02
    endloop
  endfacet
  facet normal -0.000000e+00 -1.000000e+00 0.000000e+00
    outer loop
      vertex   -1.693913e+02 3.069078e+02 -2.140446e+02
      vertex   -1.754624e+02 3.069078e+02 -2.079735e+02
      vertex   -1.694620e+02 3.069078e+02 -2.141153e+02
    endloop
  endfacet
  facet normal 0.000000e+00 -1.000000e+00 0.000000e+00
    outer loop
      vertex   -1.694620e+02 3.069078e+02 -2.141153e+02
      vertex   -1.754624e+02 3.069078e+02 -2.079735e+02
      vertex   -1.755331e+02 3.069078e+02 -2.080442e+02
    endloop
  endfacet
  facet normal 7.010574e-01 -1.305262e-01 -7.010574e-01
    outer loop
      vertex   -1.689620e+02 3.076149e+02 -2.146153e+02
      vertex   -1.688913e+02 3.076149e+02 -2.145446e+02
      vertex   -1.689791e+02 3.074319e+02 -2.145983e+02
    endloop
  endfacet
  facet normal 7.010574e-01 -1.305262e-01 -7.010574e-01
    outer loop
      vertex   -1.689791e+02 3.074319e+02 -2.145983e+02
      vertex   -1.688913e+02 3.076149e+02 -2.145446e+02
      vertex   -1.689084e+02 3.074319e+02 -2.145276e+02
    endloop
  endfacet
  facet normal 6.532815e-01 -3.826834e-01 -6.532815e-01
    outer loop
      vertex   -1.689791e+02 3.074319e+02 -2.145983e+02
      vertex   -1.689084e+02 3.074319e+02 -2.145276e+02
      vertex   -1.690290e+02 3.072613e+02 -2.145483e+02
    endloop
  endfacet
  facet normal 6.532815e-01 -3.826834e-01 -6.532815e-01
    outer loop
      vertex   -1.690290e+02 3.072613e+02 -2.145483e+02
      vertex   -1.689084e+02 3.074319e+02 -2.145276e+02
      vertex   -1.689583e+02 3.072613e+02 -2.144776e+02
    endloop
  endfacet
  facet normal 5.609855e-01 -6.087614e-01 -5.609855e-01
    outer loop
      vertex   -1.690290e+02 3.072613e+02 -2.145483e+02
      vertex   -1.689583e+02 3.072613e+02 -2.144776e+02
      vertex   -1.691085e+02 3.071149e+02 -2.144689e+02
    endloop
  endfacet
  facet normal 5.609855e-01 -6.087614e-01 -5.609855e-01
    outer loop
      vertex   -1.691085e+02 3.071149e+02 -2.144689e+02
      vertex   -1.689583e+02 3.072613e+02 -2.144776e+02
      vertex   -1.690378e+02 3.071149e+02 -2.143982e+02
    endloop
  endfacet
  facet normal 4.304593e-01 -7.933533e-01 -4.304593e-01
    outer loop
      vertex   -1.691085e+02 3.071149e+02 -2.144689e+02
      vertex   -1.690378e+02 3.071149e+02 -2.143982e+02
      vertex   -1.692120e+02 3.070025e+02 -2.143653e+02
    endloop
  endfacet
  facet normal 4.304593e-01 -7.933533e-01 -4.304593e-01
    outer loop
      vertex   -1.692120e+02 3.070025e+02 -2.143653e+02
      vertex   -1.690378e+02 3.071149e+02 -2.143982e+02
      vertex   -1.691413e+02 3.070025e+02 -2.142946e+02
    endloop
  endfacet
  facet normal 2.705981e-01 -9.238795e-01 -2.705981e-01
    outer loop
      vertex   -1.692120e+02 3.070025e+02 -2.143653e+02
      vertex   -1.691413e+02 3.070025e+02 -2.142946e+02
      vertex   -1.693326e+02 3.069319e+02 -2.142447e+02
    endloop
  endfacet
  facet normal 2.705981e-01 -9.238795e-01 -2.705981e-01
    outer loop
      vertex   -1.693326e+02 3.069319e+02 -2.142447e+02
      vertex   -1.691413e+02 3.070025e+02 -2.142946e+02
      vertex   -1.692619e+02 3.069319e+02 -2.141740e+02
    endloop
  endfacet
  facet normal 9.229596e-02 -9.914449e-01 -9.229596e-02
    outer loop
      vertex   -1.693326e+02 3.069319e+02 -2.142447e+02
      vertex   -1.692619e+02 3.069319e+02 -2.141740e+02
      vertex   -1.694620e+02 3.069078e+02 -2.141153e+02
    endloop
  endfacet
  facet normal 9.229596e-02 -9.914449e-01 -9.229596e-02
    outer loop
      vertex   -1.694620e+02 3.069078e+02 -2.141153e+02
      vertex   -1.692619e+02 3.069319e+02 -2.141740e+02
      vertex   -1.693913e+02 3.069078e+02 -2.140446e+02
    endloop
  endfacet
  facet normal 7.071068e-01 0.000000e+00 -7.071068e-01
    outer loop
      vertex   -1.688913e+02 3.216007e+02 -2.145446e+02
      vertex   -1.688913e+02 3.076149e+02 -2.145446e+02
      vertex   -1.689620e+02 3.216007e+02 -2.146153e+02
    endloop
  endfacet
  facet normal 7.071068e-01 -1.436972e-15 -7.071068e-01
    outer loop
      vertex   -1.689620e+02 3.216007e+02 -2.146153e+02
      vertex   -1.688913e+02 3.076149e+02 -2.145446e+02
      vertex   -1.689620e+02 3.076149e+02 -2.146153e+02
    endloop
  endfacet
  facet normal -7.071068e-01 -7.184860e-15 -7.071068e-01
    outer loop
      vertex   -1.689620e+02 3.076149e+02 -2.146153e+02
      vertex   -1.694620e+02 3.223078e+02 -2.141153e+02
      vertex   -1.689620e+02 3.216007e+02 -2.146153e+02
    endloop
  endfacet
  facet normal -7.071068e-01 0.000000e+00 -7.071068e-01
    outer loop
      vertex   -1.689620e+02 3.216007e+02 -2.146153e+02
      vertex   -1.694620e+02 3.223078e+02 -2.141153e+02
      vertex   -1.693326e+02 3.222837e+02 -2.142447e+02
    endloop
  endfacet
  facet normal -7.071068e-01 0.000000e+00 -7.071068e-01
    outer loop
      vertex   -1.689620e+02 3.216007e+02 -2.146153e+02
      vertex   -1.693326e+02 3.222837e+02 -2.142447e+02
      vertex   -1.692120e+02 3.222130e+02 -2.143653e+02
    endloop
  endfacet
  facet normal -7.071068e-01 0.000000e+00 -7.071068e-01
    outer loop
      vertex   -1.689791e+02 3.074319e+02 -2.145983e+02
      vertex   -1.690290e+02 3.072613e+02 -2.145483e+02
      vertex   -1.689620e+02 3.076149e+02 -2.146153e+02
    endloop
  endfacet
  facet normal -7.071068e-01 0.000000e+00 -7.071068e-01
    outer loop
      vertex   -1.689620e+02 3.076149e+02 -2.146153e+02
      vertex   -1.690290e+02 3.072613e+02 -2.145483e+02
      vertex   -1.691085e+02 3.071149e+02 -2.144689e+02
    endloop
  endfacet
  facet normal -7.071068e-01 0.000000e+00 -7.071068e-01
    outer loop
      vertex   -1.689620e+02 3.076149e+02 -2.146153e+02
      vertex   -1.691085e+02 3.071149e+02 -2.144689e+02
      vertex   -1.692120e+02 3.070025e+02 -2.143653e+02
    endloop
  endfacet
  facet normal -7.071068e-01 0.000000e+00 -7.071068e-01
    outer loop
      vertex   -1.692120e+02 3.070025e+02 -2.143653e+02
      vertex   -1.693326e+02 3.069319e+02 -2.142447e+02
      vertex   -1.689620e+02 3.076149e+02 -2.146153e+02
    endloop
  endfacet
  facet normal -7.071068e-01 9.361160e-14 -7.071068e-01
    outer loop
      vertex   -1.689620e+02 3.076149e+02 -2.146153e+02
      vertex   -1.693326e+02 3.069319e+02 -2.142447e+02
      vertex   -1.694620e+02 3.069078e+02 -2.141153e+02
    endloop
  endfacet
  facet normal -7.071068e-01 -7.830071e-15 -7.071068e-01
    outer loop
      vertex   -1.689620e+02 3.076149e+02 -2.146153e+02
      vertex   -1.694620e+02 3.069078e+02 -2.141153e+02
      vertex   -1.694620e+02 3.223078e+02 -2.141153e+02
    endloop
  endfacet
  facet normal -7.071068e-01 -7.830071e-15 -7.071068e-01
    outer loop
      vertex   -1.694620e+02 3.223078e+02 -2.141153e+02
      vertex   -1.694620e+02 3.069078e+02 -2.141153e+02
      vertex   -1.755331e+02 3.223078e+02 -2.080442e+02
    endloop
  endfacet
  facet normal -7.071068e-01 -7.830071e-15 -7.071068e-01
    outer loop
      vertex   -1.755331e+02 3.223078e+02 -2.080442e+02
      vertex   -1.694620e+02 3.069078e+02 -2.141153e+02
      vertex   -1.755331e+02 3.069078e+02 -2.080442e+02
    endloop
  endfacet
  facet normal -7.071068e-01 -7.830071e-15 -7.071068e-01
    outer loop
      vertex   -1.755331e+02 3.223078e+02 -2.080442e+02
      vertex   -1.755331e+02 3.069078e+02 -2.080442e+02
      vertex   -1.760331e+02 3.216007e+02 -2.075442e+02
    endloop
  endfacet
  facet normal -7.071068e-01 -7.184860e-15 -7.071068e-01
    outer loop
      vertex   -1.760331e+02 3.216007e+02 -2.075442e+02
      vertex   -1.755331e+02 3.069078e+02 -2.080442e+02
      vertex   -1.760331e+02 3.076149e+02 -2.075442e+02
    endloop
  endfacet
  facet normal -7.071068e-01 -3.260351e-14 -7.071068e-01
    outer loop
      vertex   -1.760331e+02 3.076149e+02 -2.075442e+02
      vertex   -1.755331e+02 3.069078e+02 -2.080442e+02
      vertex   -1.756625e+02 3.069319e+02 -2.079148e+02
    endloop
  endfacet
  facet normal -7.071068e-01 -4.313923e-14 -7.071068e-01
    outer loop
      vertex   -1.760331e+02 3.076149e+02 -2.075442e+02
      vertex   -1.756625e+02 3.069319e+02 -2.079148e+02
      vertex   -1.757831e+02 3.070025e+02 -2.077942e+02
    endloop
  endfacet
  facet normal -7.071068e-01 -5.896993e-14 -7.071068e-01
    outer loop
      vertex   -1.757831e+02 3.070025e+02 -2.077942e+02
      vertex   -1.758867e+02 3.071149e+02 -2.076907e+02
      vertex   -1.760331e+02 3.076149e+02 -2.075442e+02
    endloop
  endfacet
  facet normal -7.071068e-01 -8.728588e-14 -7.071068e-01
    outer loop
      vertex   -1.760331e+02 3.076149e+02 -2.075442e+02
      vertex   -1.758867e+02 3.071149e+02 -2.076907e+02
      vertex   -1.759661e+02 3.072613e+02 -2.076112e+02
    endloop
  endfacet
  facet normal -7.071068e-01 -1.609760e-13 -7.071068e-01
    outer loop
      vertex   -1.760331e+02 3.076149e+02 -2.075442e+02
      vertex   -1.759661e+02 3.072613e+02 -2.076112e+02
      vertex   -1.760161e+02 3.074319e+02 -2.075613e+02
    endloop
  endfacet
  facet normal -7.071068e-01 0.000000e+00 -7.071068e-01
    outer loop
      vertex   -1.760161e+02 3.217837e+02 -2.075613e+02
      vertex   -1.759661e+02 3.219542e+02 -2.076112e+02
      vertex   -1.760331e+02 3.216007e+02 -2.075442e+02
    endloop
  endfacet
  facet normal -7.071068e-01 -7.366633e-14 -7.071068e-01
    outer loop
      vertex   -1.760331e+02 3.216007e+02 -2.075442e+02
      vertex   -1.759661e+02 3.219542e+02 -2.076112e+02
      vertex   -1.758867e+02 3.221007e+02 -2.076907e+02
    endloop
  endfacet
  facet normal -7.071068e-01 1.422502e-13 -7.071068e-01
    outer loop
      vertex   -1.760331e+02 3.216007e+02 -2.075442e+02
      vertex   -1.758867e+02 3.221007e+02 -2.076907e+02
      vertex   -1.757831e+02 3.222130e+02 -2.077942e+02
    endloop
  endfacet
  facet normal -7.071068e-01 0.000000e+00 -7.071068e-01
    outer loop
      vertex   -1.757831e+02 3.222130e+02 -2.077942e+02
      vertex   -1.756625e+02 3.222837e+02 -2.079148e+02
      vertex   -1.760331e+02 3.216007e+02 -2.075442e+02
    endloop
  endfacet
  facet normal -7.071068e-01 0.000000e+00 -7.071068e-01
    outer loop
      vertex   -1.760331e+02 3.216007e+02 -2.075442e+02
      vertex   -1.756625e+02 3.222837e+02 -2.079148e+02
      vertex   -1.755331e+02 3.223078e+02 -2.080442e+02
    endloop
  endfacet
  facet normal -7.071068e-01 0.000000e+00 -7.071068e-01
    outer loop
      vertex   -1.692120e+02 3.222130e+02 -2.143653e+02
      vertex   -1.691085e+02 3.221007e+02 -2.144689e+02
      vertex   -1.689620e+02 3.216007e+02 -2.146153e+02
    endloop
  endfacet
  facet normal -7.071068e-01 -1.609522e-13 -7.071068e-01
    outer loop
      vertex   -1.689620e+02 3.216007e+02 -2.146153e+02
      vertex   -1.691085e+02 3.221007e+02 -2.144689e+02
      vertex   -1.690290e+02 3.219542e+02 -2.145483e+02
    endloop
  endfacet
  facet normal -7.071068e-01 5.492902e-14 -7.071068e-01
    outer loop
      vertex   -1.689620e+02 3.216007e+02 -2.146153e+02
      vertex   -1.690290e+02 3.219542e+02 -2.145483e+02
      vertex   -1.689791e+02 3.217837e+02 -2.145983e+02
    endloop
  endfacet
  facet normal 7.071068e-01 8.621832e-15 7.071068e-01
    outer loop
      vertex   -1.688913e+02 3.216007e+02 -2.145446e+02
      vertex   -1.693913e+02 3.069078e+02 -2.140446e+02
      vertex   -1.688913e+02 3.076149e+02 -2.145446e+02
    endloop
  endfacet
  facet normal 7.071068e-01 1.264621e-13 7.071068e-01
    outer loop
      vertex   -1.688913e+02 3.076149e+02 -2.145446e+02
      vertex   -1.693913e+02 3.069078e+02 -2.140446e+02
      vertex   -1.692619e+02 3.069319e+02 -2.141740e+02
    endloop
  endfacet
  facet normal 7.071068e-01 -8.942221e-14 7.071068e-01
    outer loop
      vertex   -1.688913e+02 3.076149e+02 -2.145446e+02
      vertex   -1.692619e+02 3.069319e+02 -2.141740e+02
      vertex   -1.691413e+02 3.070025e+02 -2.142946e+02
    endloop
  endfacet
  facet normal 7.071068e-01 5.491673e-14 7.071068e-01
    outer loop
      vertex   -1.689084e+02 3.217837e+02 -2.145276e+02
      vertex   -1.689583e+02 3.219542e+02 -2.144776e+02
      vertex   -1.688913e+02 3.216007e+02 -2.145446e+02
    endloop
  endfacet
  facet normal 7.071068e-01 -1.609522e-13 7.071068e-01
    outer loop
      vertex   -1.688913e+02 3.216007e+02 -2.145446e+02
      vertex   -1.689583e+02 3.219542e+02 -2.144776e+02
      vertex   -1.690378e+02 3.221007e+02 -2.143982e+02
    endloop
  endfacet
  facet normal 7.071068e-01 0.000000e+00 7.071068e-01
    outer loop
      vertex   -1.688913e+02 3.216007e+02 -2.145446e+02
      vertex   -1.690378e+02 3.221007e+02 -2.143982e+02
      vertex   -1.691413e+02 3.222130e+02 -2.142946e+02
    endloop
  endfacet
  facet normal 7.071068e-01 0.000000e+00 7.071068e-01
    outer loop
      vertex   -1.691413e+02 3.222130e+02 -2.142946e+02
      vertex   -1.692619e+02 3.222837e+02 -2.141740e+02
      vertex   -1.688913e+02 3.216007e+02 -2.145446e+02
    endloop
  endfacet
  facet normal 7.071068e-01 0.000000e+00 7.071068e-01
    outer loop
      vertex   -1.688913e+02 3.216007e+02 -2.145446e+02
      vertex   -1.692619e+02 3.222837e+02 -2.141740e+02
      vertex   -1.693913e+02 3.223078e+02 -2.140446e+02
    endloop
  endfacet
  facet normal 7.071068e-01 7.830071e-15 7.071068e-01
    outer loop
      vertex   -1.688913e+02 3.216007e+02 -2.145446e+02
      vertex   -1.693913e+02 3.223078e+02 -2.140446e+02
      vertex   -1.693913e+02 3.069078e+02 -2.140446e+02
    endloop
  endfacet
  facet normal 7.071068e-01 7.830071e-15 7.071068e-01
    outer loop
      vertex   -1.693913e+02 3.069078e+02 -2.140446e+02
      vertex   -1.693913e+02 3.223078e+02 -2.140446e+02
      vertex   -1.754624e+02 3.069078e+02 -2.079735e+02
    endloop
  endfacet
  facet normal 7.071068e-01 7.830071e-15 7.071068e-01
    outer loop
      vertex   -1.754624e+02 3.069078e+02 -2.079735e+02
      vertex   -1.693913e+02 3.223078e+02 -2.140446e+02
      vertex   -1.754624e+02 3.223078e+02 -2.079735e+02
    endloop
  endfacet
  facet normal 7.071068e-01 7.830071e-15 7.071068e-01
    outer loop
      vertex   -1.754624e+02 3.069078e+02 -2.079735e+02
      vertex   -1.754624e+02 3.223078e+02 -2.079735e+02
      vertex   -1.759624e+02 3.076149e+02 -2.074735e+02
    endloop
  endfacet
  facet normal 7.071068e-01 8.621832e-15 7.071068e-01
    outer loop
      vertex   -1.759624e+02 3.076149e+02 -2.074735e+02
      vertex   -1.754624e+02 3.223078e+02 -2.079735e+02
      vertex   -1.759624e+02 3.216007e+02 -2.074735e+02
    endloop
  endfacet
  facet normal 7.071068e-01 0.000000e+00 7.071068e-01
    outer loop
      vertex   -1.759624e+02 3.216007e+02 -2.074735e+02
      vertex   -1.754624e+02 3.223078e+02 -2.079735e+02
      vertex   -1.755918e+02 3.222837e+02 -2.078441e+02
    endloop
  endfacet
  facet normal 7.071068e-01 0.000000e+00 7.071068e-01
    outer loop
      vertex   -1.759624e+02 3.216007e+02 -2.074735e+02
      vertex   -1.755918e+02 3.222837e+02 -2.078441e+02
      vertex   -1.757124e+02 3.222130e+02 -2.077235e+02
    endloop
  endfacet
  facet normal 7.071068e-01 0.000000e+00 7.071068e-01
    outer loop
      vertex   -1.757124e+02 3.222130e+02 -2.077235e+02
      vertex   -1.758159e+02 3.221007e+02 -2.076200e+02
      vertex   -1.759624e+02 3.216007e+02 -2.074735e+02
    endloop
  endfacet
  facet normal 7.071068e-01 0.000000e+00 7.071068e-01
    outer loop
      vertex   -1.759624e+02 3.216007e+02 -2.074735e+02
      vertex   -1.758159e+02 3.221007e+02 -2.076200e+02
      vertex   -1.758954e+02 3.219542e+02 -2.075405e+02
    endloop
  endfacet
  facet normal 7.071068e-01 0.000000e+00 7.071068e-01
    outer loop
      vertex   -1.759624e+02 3.216007e+02 -2.074735e+02
      vertex   -1.758954e+02 3.219542e+02 -2.075405e+02
      vertex   -1.759453e+02 3.217837e+02 -2.074906e+02
    endloop
  endfacet
  facet normal 7.071068e-01 -2.158804e-13 7.071068e-01
    outer loop
      vertex   -1.759453e+02 3.074319e+02 -2.074906e+02
      vertex   -1.758954e+02 3.072613e+02 -2.075405e+02
      vertex   -1.759624e+02 3.076149e+02 -2.074735e+02
    endloop
  endfacet
  facet normal 7.071068e-01 7.366633e-14 7.071068e-01
    outer loop
      vertex   -1.759624e+02 3.076149e+02 -2.074735e+02
      vertex   -1.758954e+02 3.072613e+02 -2.075405e+02
      vertex   -1.758159e+02 3.071149e+02 -2.076200e+02
    endloop
  endfacet
  facet normal 7.071068e-01 -1.422502e-13 7.071068e-01
    outer loop
      vertex   -1.759624e+02 3.076149e+02 -2.074735e+02
      vertex   -1.758159e+02 3.071149e+02 -2.076200e+02
      vertex   -1.757124e+02 3.070025e+02 -2.077235e+02
    endloop
  endfacet
  facet normal 7.071068e-01 0.000000e+00 7.071068e-01
    outer loop
      vertex   -1.757124e+02 3.070025e+02 -2.077235e+02
      vertex   -1.755918e+02 3.069319e+02 -2.078441e+02
      vertex   -1.759624e+02 3.076149e+02 -2.074735e+02
    endloop
  endfacet
  facet normal 7.071068e-01 0.000000e+00 7.071068e-01
    outer loop
      vertex   -1.759624e+02 3.076149e+02 -2.074735e+02
      vertex   -1.755918e+02 3.069319e+02 -2.078441e+02
      vertex   -1.754624e+02 3.069078e+02 -2.079735e+02
    endloop
  endfacet
  facet normal 7.071068e-01 0.000000e+00 7.071068e-01
    outer loop
      vertex   -1.691413e+02 3.070025e+02 -2.142946e+02
      vertex   -1.690378e+02 3.071149e+02 -2.143982e+02
      vertex   -1.688913e+02 3.076149e+02 -2.145446e+02
    endloop
  endfacet
  facet normal 7.071068e-01 0.000000e+00 7.071068e-01
    outer loop
      vertex   -1.688913e+02 3.076149e+02 -2.145446e+02
      vertex   -1.690378e+02 3.071149e+02 -2.143982e+02
      vertex   -1.689583e+02 3.072613e+02 -2.144776e+02
    endloop
  endfacet
  facet normal 7.071068e-01 0.000000e+00 7.071068e-01
    outer loop
      vertex   -1.688913e+02 3.076149e+02 -2.145446e+02
      vertex   -1.689583e+02 3.072613e+02 -2.144776e+02
      vertex   -1.689084e+02 3.074319e+02 -2.145276e+02
    endloop
  endfacet
  facet normal -7.933533e-01 0.000000e+00 6.087614e-01
    outer loop
      vertex   -1.406020e+02 2.677078e+02 -1.954477e+02
      vertex   -1.406020e+02 2.678078e+02 -1.954477e+02
      vertex   -1.407144e+02 2.677078e+02 -1.955941e+02
    endloop
  endfacet
  facet normal -7.933533e-01 0.000000e+00 6.087614e-01
    outer loop
      vertex   -1.407144e+02 2.677078e+02 -1.955941e+02
      vertex   -1.406020e+02 2.678078e+02 -1.954477e+02
      vertex   -1.407144e+02 2.678078e+02 -1.955941e+02
    endloop
  endfacet
  facet normal -9.238795e-01 0.000000e+00 3.826834e-01
    outer loop
      vertex   -1.407144e+02 2.677078e+02 -1.955941e+02
      vertex   -1.407144e+02 2.678078e+02 -1.955941e+02
      vertex   -1.407850e+02 2.677078e+02 -1.957647e+02
    endloop
  endfacet
  facet normal -9.238795e-01 0.000000e+00 3.826834e-01
    outer loop
      vertex   -1.407850e+02 2.677078e+02 -1.957647e+02
      vertex   -1.407144e+02 2.678078e+02 -1.955941e+02
      vertex   -1.407850e+02 2.678078e+02 -1.957647e+02
    endloop
  endfacet
  facet normal -9.914449e-01 0.000000e+00 1.305262e-01
    outer loop
      vertex   -1.407850e+02 2.677078e+02 -1.957647e+02
      vertex   -1.407850e+02 2.678078e+02 -1.957647e+02
      vertex   -1.408091e+02 2.677078e+02 -1.959477e+02
    endloop
  endfacet
  facet normal -9.914449e-01 0.000000e+00 1.305262e-01
    outer loop
      vertex   -1.408091e+02 2.677078e+02 -1.959477e+02
      vertex   -1.407850e+02 2.678078e+02 -1.957647e+02
      vertex   -1.408091e+02 2.678078e+02 -1.959477e+02
    endloop
  endfacet
  facet normal -9.914449e-01 0.000000e+00 -1.305262e-01
    outer loop
      vertex   -1.408091e+02 2.677078e+02 -1.959477e+02
      vertex   -1.408091e+02 2.678078e+02 -1.959477e+02
      vertex   -1.407850e+02 2.677078e+02 -1.961307e+02
    endloop
  endfacet
  facet normal -9.914449e-01 0.000000e+00 -1.305262e-01
    outer loop
      vertex   -1.407850e+02 2.677078e+02 -1.961307e+02
      vertex   -1.408091e+02 2.678078e+02 -1.959477e+02
      vertex   -1.407850e+02 2.678078e+02 -1.961307e+02
    endloop
  endfacet
  facet normal -9.238795e-01 0.000000e+00 -3.826834e-01
    outer loop
      vertex   -1.407850e+02 2.677078e+02 -1.961307e+02
      vertex   -1.407850e+02 2.678078e+02 -1.961307e+02
      vertex   -1.407144e+02 2.677078e+02 -1.963012e+02
    endloop
  endfacet
  facet normal -9.238795e-01 -1.087652e-13 -3.826834e-01
    outer loop
      vertex   -1.407144e+02 2.677078e+02 -1.963012e+02
      vertex   -1.407850e+02 2.678078e+02 -1.961307e+02
      vertex   -1.407144e+02 2.678078e+02 -1.963012e+02
    endloop
  endfacet
  facet normal -7.933533e-01 -1.730204e-13 -6.087614e-01
    outer loop
      vertex   -1.407144e+02 2.677078e+02 -1.963012e+02
      vertex   -1.407144e+02 2.678078e+02 -1.963012e+02
      vertex   -1.406020e+02 2.677078e+02 -1.964477e+02
    endloop
  endfacet
  facet normal -7.933533e-01 0.000000e+00 -6.087614e-01
    outer loop
      vertex   -1.406020e+02 2.677078e+02 -1.964477e+02
      vertex   -1.407144e+02 2.678078e+02 -1.963012e+02
      vertex   -1.406020e+02 2.678078e+02 -1.964477e+02
    endloop
  endfacet
  facet normal -7.071068e-01 0.000000e+00 7.071068e-01
    outer loop
      vertex   -1.345310e+02 2.678078e+02 -1.893766e+02
      vertex   -1.406020e+02 2.678078e+02 -1.954477e+02
      vertex   -1.345310e+02 2.677078e+02 -1.893766e+02
    endloop
  endfacet
  facet normal -7.071068e-01 0.000000e+00 7.071068e-01
    outer loop
      vertex   -1.345310e+02 2.677078e+02 -1.893766e+02
      vertex   -1.406020e+02 2.678078e+02 -1.954477e+02
      vertex   -1.406020e+02 2.677078e+02 -1.954477e+02
    endloop
  endfacet
  facet normal 6.087614e-01 -0.000000e+00 7.933533e-01
    outer loop
      vertex   -1.335310e+02 2.677078e+02 -1.893766e+02
      vertex   -1.335310e+02 2.678078e+02 -1.893766e+02
      vertex   -1.336774e+02 2.677078e+02 -1.892643e+02
    endloop
  endfacet
  facet normal 6.087614e-01 -0.000000e+00 7.933533e-01
    outer loop
      vertex   -1.336774e+02 2.677078e+02 -1.892643e+02
      vertex   -1.335310e+02 2.678078e+02 -1.893766e+02
      vertex   -1.336774e+02 2.678078e+02 -1.892643e+02
    endloop
  endfacet
  facet normal 3.826834e-01 -0.000000e+00 9.238795e-01
    outer loop
      vertex   -1.336774e+02 2.677078e+02 -1.892643e+02
      vertex   -1.336774e+02 2.678078e+02 -1.892643e+02
      vertex   -1.338479e+02 2.677078e+02 -1.891936e+02
    endloop
  endfacet
  facet normal 3.826834e-01 -0.000000e+00 9.238795e-01
    outer loop
      vertex   -1.338479e+02 2.677078e+02 -1.891936e+02
      vertex   -1.336774e+02 2.678078e+02 -1.892643e+02
      vertex   -1.338479e+02 2.678078e+02 -1.891936e+02
    endloop
  endfacet
  facet normal 1.305262e-01 -0.000000e+00 9.914449e-01
    outer loop
      vertex   -1.338479e+02 2.677078e+02 -1.891936e+02
      vertex   -1.338479e+02 2.678078e+02 -1.891936e+02
      vertex   -1.340310e+02 2.677078e+02 -1.891695e+02
    endloop
  endfacet
  facet normal 1.305262e-01 -0.000000e+00 9.914449e-01
    outer loop
      vertex   -1.340310e+02 2.677078e+02 -1.891695e+02
      vertex   -1.338479e+02 2.678078e+02 -1.891936e+02
      vertex   -1.340310e+02 2.678078e+02 -1.891695e+02
    endloop
  endfacet
  facet normal -1.305262e-01 0.000000e+00 9.914449e-01
    outer loop
      vertex   -1.340310e+02 2.677078e+02 -1.891695e+02
      vertex   -1.340310e+02 2.678078e+02 -1.891695e+02
      vertex   -1.342140e+02 2.677078e+02 -1.891936e+02
    endloop
  endfacet
  facet normal -1.305262e-01 0.000000e+00 9.914449e-01
    outer loop
      vertex   -1.342140e+02 2.677078e+02 -1.891936e+02
      vertex   -1.340310e+02 2.678078e+02 -1.891695e+02
      vertex   -1.342140e+02 2.678078e+02 -1.891936e+02
    endloop
  endfacet
  facet normal -3.826834e-01 0.000000e+00 9.238795e-01
    outer loop
      vertex   -1.342140e+02 2.677078e+02 -1.891936e+02
      vertex   -1.342140e+02 2.678078e+02 -1.891936e+02
      vertex   -1.343845e+02 2.677078e+02 -1.892643e+02
    endloop
  endfacet
  facet normal -3.826834e-01 0.000000e+00 9.238795e-01
    outer loop
      vertex   -1.343845e+02 2.677078e+02 -1.892643e+02
      vertex   -1.342140e+02 2.678078e+02 -1.891936e+02
      vertex   -1.343845e+02 2.678078e+02 -1.892643e+02
    endloop
  endfacet
  facet normal -6.087614e-01 0.000000e+00 7.933533e-01
    outer loop
      vertex   -1.343845e+02 2.677078e+02 -1.892643e+02
      vertex   -1.343845e+02 2.678078e+02 -1.892643e+02
      vertex   -1.345310e+02 2.677078e+02 -1.893766e+02
    endloop
  endfacet
  facet normal -6.087614e-01 0.000000e+00 7.933533e-01
    outer loop
      vertex   -1.345310e+02 2.677078e+02 -1.893766e+02
      vertex   -1.343845e+02 2.678078e+02 -1.892643e+02
      vertex   -1.345310e+02 2.678078e+02 -1.893766e+02
    endloop
  endfacet
  facet normal 7.071068e-01 0.000000e+00 7.071068e-01
    outer loop
      vertex   -1.236415e+02 2.678078e+02 -1.992661e+02
      vertex   -1.335310e+02 2.678078e+02 -1.893766e+02
      vertex   -1.236415e+02 2.677078e+02 -1.992661e+02
    endloop
  endfacet
  facet normal 7.071068e-01 0.000000e+00 7.071068e-01
    outer loop
      vertex   -1.236415e+02 2.677078e+02 -1.992661e+02
      vertex   -1.335310e+02 2.678078e+02 -1.893766e+02
      vertex   -1.335310e+02 2.677078e+02 -1.893766e+02
    endloop
  endfacet
  facet normal 7.933533e-01 0.000000e+00 -6.087614e-01
    outer loop
      vertex   -1.236415e+02 2.677078e+02 -2.002661e+02
      vertex   -1.236415e+02 2.678078e+02 -2.002661e+02
      vertex   -1.235291e+02 2.677078e+02 -2.001196e+02
    endloop
  endfacet
  facet normal 7.933533e-01 0.000000e+00 -6.087614e-01
    outer loop
      vertex   -1.235291e+02 2.677078e+02 -2.001196e+02
      vertex   -1.236415e+02 2.678078e+02 -2.002661e+02
      vertex   -1.235291e+02 2.678078e+02 -2.001196e+02
    endloop
  endfacet
  facet normal 9.238795e-01 0.000000e+00 -3.826834e-01
    outer loop
      vertex   -1.235291e+02 2.677078e+02 -2.001196e+02
      vertex   -1.235291e+02 2.678078e+02 -2.001196e+02
      vertex   -1.234585e+02 2.677078e+02 -1.999491e+02
    endloop
  endfacet
  facet normal 9.238795e-01 0.000000e+00 -3.826834e-01
    outer loop
      vertex   -1.234585e+02 2.677078e+02 -1.999491e+02
      vertex   -1.235291e+02 2.678078e+02 -2.001196e+02
      vertex   -1.234585e+02 2.678078e+02 -1.999491e+02
    endloop
  endfacet
  facet normal 9.914449e-01 0.000000e+00 -1.305262e-01
    outer loop
      vertex   -1.234585e+02 2.677078e+02 -1.999491e+02
      vertex   -1.234585e+02 2.678078e+02 -1.999491e+02
      vertex   -1.234344e+02 2.677078e+02 -1.997661e+02
    endloop
  endfacet
  facet normal 9.914449e-01 0.000000e+00 -1.305262e-01
    outer loop
      vertex   -1.234344e+02 2.677078e+02 -1.997661e+02
      vertex   -1.234585e+02 2.678078e+02 -1.999491e+02
      vertex   -1.234344e+02 2.678078e+02 -1.997661e+02
    endloop
  endfacet
  facet normal 9.914449e-01 -0.000000e+00 1.305262e-01
    outer loop
      vertex   -1.234344e+02 2.677078e+02 -1.997661e+02
      vertex   -1.234344e+02 2.678078e+02 -1.997661e+02
      vertex   -1.234585e+02 2.677078e+02 -1.995831e+02
    endloop
  endfacet
  facet normal 9.914449e-01 -0.000000e+00 1.305262e-01
    outer loop
      vertex   -1.234585e+02 2.677078e+02 -1.995831e+02
      vertex   -1.234344e+02 2.678078e+02 -1.997661e+02
      vertex   -1.234585e+02 2.678078e+02 -1.995831e+02
    endloop
  endfacet
  facet normal 9.238795e-01 -0.000000e+00 3.826834e-01
    outer loop
      vertex   -1.234585e+02 2.677078e+02 -1.995831e+02
      vertex   -1.234585e+02 2.678078e+02 -1.995831e+02
      vertex   -1.235291e+02 2.677078e+02 -1.994125e+02
    endloop
  endfacet
  facet normal 9.238795e-01 -0.000000e+00 3.826834e-01
    outer loop
      vertex   -1.235291e+02 2.677078e+02 -1.994125e+02
      vertex   -1.234585e+02 2.678078e+02 -1.995831e+02
      vertex   -1.235291e+02 2.678078e+02 -1.994125e+02
    endloop
  endfacet
  facet normal 7.933533e-01 -0.000000e+00 6.087614e-01
    outer loop
      vertex   -1.235291e+02 2.677078e+02 -1.994125e+02
      vertex   -1.235291e+02 2.678078e+02 -1.994125e+02
      vertex   -1.236415e+02 2.677078e+02 -1.992661e+02
    endloop
  endfacet
  facet normal 7.933533e-01 -0.000000e+00 6.087614e-01
    outer loop
      vertex   -1.236415e+02 2.677078e+02 -1.992661e+02
      vertex   -1.235291e+02 2.678078e+02 -1.994125e+02
      vertex   -1.236415e+02 2.678078e+02 -1.992661e+02
    endloop
  endfacet
  facet normal 7.071068e-01 0.000000e+00 -7.071068e-01
    outer loop
      vertex   -1.297126e+02 2.678078e+02 -2.063371e+02
      vertex   -1.236415e+02 2.678078e+02 -2.002661e+02
      vertex   -1.297126e+02 2.677078e+02 -2.063371e+02
    endloop
  endfacet
  facet normal 7.071068e-01 0.000000e+00 -7.071068e-01
    outer loop
      vertex   -1.297126e+02 2.677078e+02 -2.063371e+02
      vertex   -1.236415e+02 2.678078e+02 -2.002661e+02
      vertex   -1.236415e+02 2.677078e+02 -2.002661e+02
    endloop
  endfacet
  facet normal -6.087614e-01 0.000000e+00 -7.933533e-01
    outer loop
      vertex   -1.307126e+02 2.677078e+02 -2.063371e+02
      vertex   -1.307126e+02 2.678078e+02 -2.063371e+02
      vertex   -1.305661e+02 2.677078e+02 -2.064495e+02
    endloop
  endfacet
  facet normal -6.087614e-01 0.000000e+00 -7.933533e-01
    outer loop
      vertex   -1.305661e+02 2.677078e+02 -2.064495e+02
      vertex   -1.307126e+02 2.678078e+02 -2.063371e+02
      vertex   -1.305661e+02 2.678078e+02 -2.064495e+02
    endloop
  endfacet
  facet normal -3.826834e-01 0.000000e+00 -9.238795e-01
    outer loop
      vertex   -1.305661e+02 2.677078e+02 -2.064495e+02
      vertex   -1.305661e+02 2.678078e+02 -2.064495e+02
      vertex   -1.303956e+02 2.677078e+02 -2.065202e+02
    endloop
  endfacet
  facet normal -3.826834e-01 0.000000e+00 -9.238795e-01
    outer loop
      vertex   -1.303956e+02 2.677078e+02 -2.065202e+02
      vertex   -1.305661e+02 2.678078e+02 -2.064495e+02
      vertex   -1.303956e+02 2.678078e+02 -2.065202e+02
    endloop
  endfacet
  facet normal -1.305262e-01 0.000000e+00 -9.914449e-01
    outer loop
      vertex   -1.303956e+02 2.677078e+02 -2.065202e+02
      vertex   -1.303956e+02 2.678078e+02 -2.065202e+02
      vertex   -1.302126e+02 2.677078e+02 -2.065442e+02
    endloop
  endfacet
  facet normal -1.305262e-01 0.000000e+00 -9.914449e-01
    outer loop
      vertex   -1.302126e+02 2.677078e+02 -2.065442e+02
      vertex   -1.303956e+02 2.678078e+02 -2.065202e+02
      vertex   -1.302126e+02 2.678078e+02 -2.065442e+02
    endloop
  endfacet
  facet normal 1.305262e-01 0.000000e+00 -9.914449e-01
    outer loop
      vertex   -1.302126e+02 2.677078e+02 -2.065442e+02
      vertex   -1.302126e+02 2.678078e+02 -2.065442e+02
      vertex   -1.300296e+02 2.677078e+02 -2.065202e+02
    endloop
  endfacet
  facet normal 1.305262e-01 0.000000e+00 -9.914449e-01
    outer loop
      vertex   -1.300296e+02 2.677078e+02 -2.065202e+02
      vertex   -1.302126e+02 2.678078e+02 -2.065442e+02
      vertex   -1.300296e+02 2.678078e+02 -2.065202e+02
    endloop
  endfacet
  facet normal 3.826834e-01 0.000000e+00 -9.238795e-01
    outer loop
      vertex   -1.300296e+02 2.677078e+02 -2.065202e+02
      vertex   -1.300296e+02 2.678078e+02 -2.065202e+02
      vertex   -1.298590e+02 2.677078e+02 -2.064495e+02
    endloop
  endfacet
  facet normal 3.826834e-01 0.000000e+00 -9.238795e-01
    outer loop
      vertex   -1.298590e+02 2.677078e+02 -2.064495e+02
      vertex   -1.300296e+02 2.678078e+02 -2.065202e+02
      vertex   -1.298590e+02 2.678078e+02 -2.064495e+02
    endloop
  endfacet
  facet normal 6.087614e-01 0.000000e+00 -7.933533e-01
    outer loop
      vertex   -1.298590e+02 2.677078e+02 -2.064495e+02
      vertex   -1.298590e+02 2.678078e+02 -2.064495e+02
      vertex   -1.297126e+02 2.677078e+02 -2.063371e+02
    endloop
  endfacet
  facet normal 6.087614e-01 0.000000e+00 -7.933533e-01
    outer loop
      vertex   -1.297126e+02 2.677078e+02 -2.063371e+02
      vertex   -1.298590e+02 2.678078e+02 -2.064495e+02
      vertex   -1.297126e+02 2.678078e+02 -2.063371e+02
    endloop
  endfacet
  facet normal -7.071068e-01 -0.000000e+00 -7.071068e-01
    outer loop
      vertex   -1.406020e+02 2.678078e+02 -1.964477e+02
      vertex   -1.307126e+02 2.678078e+02 -2.063371e+02
      vertex   -1.406020e+02 2.677078e+02 -1.964477e+02
    endloop
  endfacet
  facet normal -7.071068e-01 0.000000e+00 -7.071068e-01
    outer loop
      vertex   -1.406020e+02 2.677078e+02 -1.964477e+02
      vertex   -1.307126e+02 2.678078e+02 -2.063371e+02
      vertex   -1.307126e+02 2.677078e+02 -2.063371e+02
    endloop
  endfacet
  facet normal 0.000000e+00 -1.000000e+00 0.000000e+00
    outer loop
      vertex   -1.307126e+02 2.677078e+02 -2.063371e+02
      vertex   -1.406020e+02 2.677078e+02 -1.954477e+02
      vertex   -1.406020e+02 2.677078e+02 -1.964477e+02
    endloop
  endfacet
  facet normal 0.000000e+00 -1.000000e+00 0.000000e+00
    outer loop
      vertex   -1.406020e+02 2.677078e+02 -1.964477e+02
      vertex   -1.406020e+02 2.677078e+02 -1.954477e+02
      vertex   -1.407144e+02 2.677078e+02 -1.955941e+02
    endloop
  endfacet
  facet normal 0.000000e+00 -1.000000e+00 0.000000e+00
    outer loop
      vertex   -1.406020e+02 2.677078e+02 -1.964477e+02
      vertex   -1.407144e+02 2.677078e+02 -1.955941e+02
      vertex   -1.407850e+02 2.677078e+02 -1.957647e+02
    endloop
  endfacet
  facet normal 0.000000e+00 -1.000000e+00 0.000000e+00
    outer loop
      vertex   -1.305661e+02 2.677078e+02 -2.064495e+02
      vertex   -1.303956e+02 2.677078e+02 -2.065202e+02
      vertex   -1.307126e+02 2.677078e+02 -2.063371e+02
    endloop
  endfacet
  facet normal 0.000000e+00 -1.000000e+00 0.000000e+00
    outer loop
      vertex   -1.307126e+02 2.677078e+02 -2.063371e+02
      vertex   -1.303956e+02 2.677078e+02 -2.065202e+02
      vertex   -1.302126e+02 2.677078e+02 -2.065442e+02
    endloop
  endfacet
  facet normal 0.000000e+00 -1.000000e+00 0.000000e+00
    outer loop
      vertex   -1.307126e+02 2.677078e+02 -2.063371e+02
      vertex   -1.302126e+02 2.677078e+02 -2.065442e+02
      vertex   -1.300296e+02 2.677078e+02 -2.065202e+02
    endloop
  endfacet
  facet normal 0.000000e+00 -1.000000e+00 0.000000e+00
    outer loop
      vertex   -1.300296e+02 2.677078e+02 -2.065202e+02
      vertex   -1.298590e+02 2.677078e+02 -2.064495e+02
      vertex   -1.307126e+02 2.677078e+02 -2.063371e+02
    endloop
  endfacet
  facet normal 0.000000e+00 -1.000000e+00 0.000000e+00
    outer loop
      vertex   -1.307126e+02 2.677078e+02 -2.063371e+02
      vertex   -1.298590e+02 2.677078e+02 -2.064495e+02
      vertex   -1.297126e+02 2.677078e+02 -2.063371e+02
    endloop
  endfacet
  facet normal 0.000000e+00 -1.000000e+00 0.000000e+00
    outer loop
      vertex   -1.307126e+02 2.677078e+02 -2.063371e+02
      vertex   -1.297126e+02 2.677078e+02 -2.063371e+02
      vertex   -1.406020e+02 2.677078e+02 -1.954477e+02
    endloop
  endfacet
  facet normal 0.000000e+00 -1.000000e+00 0.000000e+00
    outer loop
      vertex   -1.406020e+02 2.677078e+02 -1.954477e+02
      vertex   -1.297126e+02 2.677078e+02 -2.063371e+02
      vertex   -1.345310e+02 2.677078e+02 -1.893766e+02
    endloop
  endfacet
  facet normal 0.000000e+00 -1.000000e+00 0.000000e+00
    outer loop
      vertex   -1.345310e+02 2.677078e+02 -1.893766e+02
      vertex   -1.297126e+02 2.677078e+02 -2.063371e+02
      vertex   -1.236415e+02 2.677078e+02 -2.002661e+02
    endloop
  endfacet
  facet normal 0.000000e+00 -1.000000e+00 0.000000e+00
    outer loop
      vertex   -1.345310e+02 2.677078e+02 -1.893766e+02
      vertex   -1.236415e+02 2.677078e+02 -2.002661e+02
      vertex   -1.335310e+02 2.677078e+02 -1.893766e+02
    endloop
  endfacet
  facet normal 0.000000e+00 -1.000000e+00 0.000000e+00
    outer loop
      vertex   -1.335310e+02 2.677078e+02 -1.893766e+02
      vertex   -1.236415e+02 2.677078e+02 -2.002661e+02
      vertex   -1.236415e+02 2.677078e+02 -1.992661e+02
    endloop
  endfacet
  facet normal 0.000000e+00 -1.000000e+00 -0.000000e+00
    outer loop
      vertex   -1.236415e+02 2.677078e+02 -1.992661e+02
      vertex   -1.236415e+02 2.677078e+02 -2.002661e+02
      vertex   -1.235291e+02 2.677078e+02 -2.001196e+02
    endloop
  endfacet
  facet normal 0.000000e+00 -1.000000e+00 0.000000e+00
    outer loop
      vertex   -1.236415e+02 2.677078e+02 -1.992661e+02
      vertex   -1.235291e+02 2.677078e+02 -2.001196e+02
      vertex   -1.234585e+02 2.677078e+02 -1.999491e+02
    endloop
  endfacet
  facet normal 0.000000e+00 -1.000000e+00 0.000000e+00
    outer loop
      vertex   -1.234585e+02 2.677078e+02 -1.999491e+02
      vertex   -1.234344e+02 2.677078e+02 -1.997661e+02
      vertex   -1.236415e+02 2.677078e+02 -1.992661e+02
    endloop
  endfacet
  facet normal 0.000000e+00 -1.000000e+00 0.000000e+00
    outer loop
      vertex   -1.236415e+02 2.677078e+02 -1.992661e+02
      vertex   -1.234344e+02 2.677078e+02 -1.997661e+02
      vertex   -1.234585e+02 2.677078e+02 -1.995831e+02
    endloop
  endfacet
  facet normal 0.000000e+00 -1.000000e+00 0.000000e+00
    outer loop
      vertex   -1.236415e+02 2.677078e+02 -1.992661e+02
      vertex   -1.234585e+02 2.677078e+02 -1.995831e+02
      vertex   -1.235291e+02 2.677078e+02 -1.994125e+02
    endloop
  endfacet
  facet normal -0.000000e+00 -1.000000e+00 -0.000000e+00
    outer loop
      vertex   -1.336774e+02 2.677078e+02 -1.892643e+02
      vertex   -1.338479e+02 2.677078e+02 -1.891936e+02
      vertex   -1.335310e+02 2.677078e+02 -1.893766e+02
    endloop
  endfacet
  facet normal 0.000000e+00 -1.000000e+00 0.000000e+00
    outer loop
      vertex   -1.335310e+02 2.677078e+02 -1.893766e+02
      vertex   -1.338479e+02 2.677078e+02 -1.891936e+02
      vertex   -1.340310e+02 2.677078e+02 -1.891695e+02
    endloop
  endfacet
  facet normal 0.000000e+00 -1.000000e+00 0.000000e+00
    outer loop
      vertex   -1.335310e+02 2.677078e+02 -1.893766e+02
      vertex   -1.340310e+02 2.677078e+02 -1.891695e+02
      vertex   -1.342140e+02 2.677078e+02 -1.891936e+02
    endloop
  endfacet
  facet normal 0.000000e+00 -1.000000e+00 -0.000000e+00
    outer loop
      vertex   -1.342140e+02 2.677078e+02 -1.891936e+02
      vertex   -1.343845e+02 2.677078e+02 -1.892643e+02
      vertex   -1.335310e+02 2.677078e+02 -1.893766e+02
    endloop
  endfacet
  facet normal -0.000000e+00 -1.000000e+00 0.000000e+00
    outer loop
      vertex   -1.335310e+02 2.677078e+02 -1.893766e+02
      vertex   -1.343845e+02 2.677078e+02 -1.892643e+02
      vertex   -1.345310e+02 2.677078e+02 -1.893766e+02
    endloop
  endfacet
  facet normal 0.000000e+00 -1.000000e+00 -0.000000e+00
    outer loop
      vertex   -1.407850e+02 2.677078e+02 -1.957647e+02
      vertex   -1.408091e+02 2.677078e+02 -1.959477e+02
      vertex   -1.406020e+02 2.677078e+02 -1.964477e+02
    endloop
  endfacet
  facet normal 0.000000e+00 -1.000000e+00 0.000000e+00
    outer loop
      vertex   -1.406020e+02 2.677078e+02 -1.964477e+02
      vertex   -1.408091e+02 2.677078e+02 -1.959477e+02
      vertex   -1.407850e+02 2.677078e+02 -1.961307e+02
    endloop
  endfacet
  facet normal 0.000000e+00 -1.000000e+00 0.000000e+00
    outer loop
      vertex   -1.406020e+02 2.677078e+02 -1.964477e+02
      vertex   -1.407850e+02 2.677078e+02 -1.961307e+02
      vertex   -1.407144e+02 2.677078e+02 -1.963012e+02
    endloop
  endfacet
  facet normal 0.000000e+00 1.000000e+00 0.000000e+00
    outer loop
      vertex   -1.406020e+02 2.678078e+02 -1.964477e+02
      vertex   -1.297126e+02 2.678078e+02 -2.063371e+02
      vertex   -1.307126e+02 2.678078e+02 -2.063371e+02
    endloop
  endfacet
  facet normal -0.000000e+00 1.000000e+00 0.000000e+00
    outer loop
      vertex   -1.307126e+02 2.678078e+02 -2.063371e+02
      vertex   -1.297126e+02 2.678078e+02 -2.063371e+02
      vertex   -1.298590e+02 2.678078e+02 -2.064495e+02
    endloop
  endfacet
  facet normal 0.000000e+00 1.000000e+00 0.000000e+00
    outer loop
      vertex   -1.307126e+02 2.678078e+02 -2.063371e+02
      vertex   -1.298590e+02 2.678078e+02 -2.064495e+02
      vertex   -1.300296e+02 2.678078e+02 -2.065202e+02
    endloop
  endfacet
  facet normal -0.000000e+00 1.000000e+00 -0.000000e+00
    outer loop
      vertex   -1.407144e+02 2.678078e+02 -1.963012e+02
      vertex   -1.407850e+02 2.678078e+02 -1.961307e+02
      vertex   -1.406020e+02 2.678078e+02 -1.964477e+02
    endloop
  endfacet
  facet normal 0.000000e+00 1.000000e+00 0.000000e+00
    outer loop
      vertex   -1.406020e+02 2.678078e+02 -1.964477e+02
      vertex   -1.407850e+02 2.678078e+02 -1.961307e+02
      vertex   -1.408091e+02 2.678078e+02 -1.959477e+02
    endloop
  endfacet
  facet normal 0.000000e+00 1.000000e+00 0.000000e+00
    outer loop
      vertex   -1.406020e+02 2.678078e+02 -1.964477e+02
      vertex   -1.408091e+02 2.678078e+02 -1.959477e+02
      vertex   -1.407850e+02 2.678078e+02 -1.957647e+02
    endloop
  endfacet
  facet normal -0.000000e+00 1.000000e+00 0.000000e+00
    outer loop
      vertex   -1.407850e+02 2.678078e+02 -1.957647e+02
      vertex   -1.407144e+02 2.678078e+02 -1.955941e+02
      vertex   -1.406020e+02 2.678078e+02 -1.964477e+02
    endloop
  endfacet
  facet normal 0.000000e+00 1.000000e+00 -0.000000e+00
    outer loop
      vertex   -1.406020e+02 2.678078e+02 -1.964477e+02
      vertex   -1.407144e+02 2.678078e+02 -1.955941e+02
      vertex   -1.406020e+02 2.678078e+02 -1.954477e+02
    endloop
  endfacet
  facet normal -0.000000e+00 1.000000e+00 0.000000e+00
    outer loop
      vertex   -1.406020e+02 2.678078e+02 -1.964477e+02
      vertex   -1.406020e+02 2.678078e+02 -1.954477e+02
      vertex   -1.297126e+02 2.678078e+02 -2.063371e+02
    endloop
  endfacet
  facet normal 0.000000e+00 1.000000e+00 -0.000000e+00
    outer loop
      vertex   -1.297126e+02 2.678078e+02 -2.063371e+02
      vertex   -1.406020e+02 2.678078e+02 -1.954477e+02
      vertex   -1.236415e+02 2.678078e+02 -2.002661e+02
    endloop
  endfacet
  facet normal 0.000000e+00 1.000000e+00 0.000000e+00
    outer loop
      vertex   -1.236415e+02 2.678078e+02 -2.002661e+02
      vertex   -1.406020e+02 2.678078e+02 -1.954477e+02
      vertex   -1.345310e+02 2.678078e+02 -1.893766e+02
    endloop
  endfacet
  facet normal 0.000000e+00 1.000000e+00 -0.000000e+00
    outer loop
      vertex   -1.236415e+02 2.678078e+02 -2.002661e+02
      vertex   -1.345310e+02 2.678078e+02 -1.893766e+02
      vertex   -1.236415e+02 2.678078e+02 -1.992661e+02
    endloop
  endfacet
  facet normal 0.000000e+00 1.000000e+00 0.000000e+00
    outer loop
      vertex   -1.236415e+02 2.678078e+02 -1.992661e+02
      vertex   -1.345310e+02 2.678078e+02 -1.893766e+02
      vertex   -1.335310e+02 2.678078e+02 -1.893766e+02
    endloop
  endfacet
  facet normal 0.000000e+00 1.000000e+00 0.000000e+00
    outer loop
      vertex   -1.335310e+02 2.678078e+02 -1.893766e+02
      vertex   -1.345310e+02 2.678078e+02 -1.893766e+02
      vertex   -1.343845e+02 2.678078e+02 -1.892643e+02
    endloop
  endfacet
  facet normal 0.000000e+00 1.000000e+00 0.000000e+00
    outer loop
      vertex   -1.335310e+02 2.678078e+02 -1.893766e+02
      vertex   -1.343845e+02 2.678078e+02 -1.892643e+02
      vertex   -1.342140e+02 2.678078e+02 -1.891936e+02
    endloop
  endfacet
  facet normal -0.000000e+00 1.000000e+00 0.000000e+00
    outer loop
      vertex   -1.342140e+02 2.678078e+02 -1.891936e+02
      vertex   -1.340310e+02 2.678078e+02 -1.891695e+02
      vertex   -1.335310e+02 2.678078e+02 -1.893766e+02
    endloop
  endfacet
  facet normal 0.000000e+00 1.000000e+00 0.000000e+00
    outer loop
      vertex   -1.335310e+02 2.678078e+02 -1.893766e+02
      vertex   -1.340310e+02 2.678078e+02 -1.891695e+02
      vertex   -1.338479e+02 2.678078e+02 -1.891936e+02
    endloop
  endfacet
  facet normal 0.000000e+00 1.000000e+00 0.000000e+00
    outer loop
      vertex   -1.335310e+02 2.678078e+02 -1.893766e+02
      vertex   -1.338479e+02 2.678078e+02 -1.891936e+02
      vertex   -1.336774e+02 2.678078e+02 -1.892643e+02
    endloop
  endfacet
  facet normal 0.000000e+00 1.000000e+00 0.000000e+00
    outer loop
      vertex   -1.235291e+02 2.678078e+02 -1.994125e+02
      vertex   -1.234585e+02 2.678078e+02 -1.995831e+02
      vertex   -1.236415e+02 2.678078e+02 -1.992661e+02
    endloop
  endfacet
  facet normal 0.000000e+00 1.000000e+00 0.000000e+00
    outer loop
      vertex   -1.236415e+02 2.678078e+02 -1.992661e+02
      vertex   -1.234585e+02 2.678078e+02 -1.995831e+02
      vertex   -1.234344e+02 2.678078e+02 -1.997661e+02
    endloop
  endfacet
  facet normal 0.000000e+00 1.000000e+00 0.000000e+00
    outer loop
      vertex   -1.236415e+02 2.678078e+02 -1.992661e+02
      vertex   -1.234344e+02 2.678078e+02 -1.997661e+02
      vertex   -1.234585e+02 2.678078e+02 -1.999491e+02
    endloop
  endfacet
  facet normal 0.000000e+00 1.000000e+00 0.000000e+00
    outer loop
      vertex   -1.234585e+02 2.678078e+02 -1.999491e+02
      vertex   -1.235291e+02 2.678078e+02 -2.001196e+02
      vertex   -1.236415e+02 2.678078e+02 -1.992661e+02
    endloop
  endfacet
  facet normal 0.000000e+00 1.000000e+00 0.000000e+00
    outer loop
      vertex   -1.236415e+02 2.678078e+02 -1.992661e+02
      vertex   -1.235291e+02 2.678078e+02 -2.001196e+02
      vertex   -1.236415e+02 2.678078e+02 -2.002661e+02
    endloop
  endfacet
  facet normal 0.000000e+00 1.000000e+00 0.000000e+00
    outer loop
      vertex   -1.300296e+02 2.678078e+02 -2.065202e+02
      vertex   -1.302126e+02 2.678078e+02 -2.065442e+02
      vertex   -1.307126e+02 2.678078e+02 -2.063371e+02
    endloop
  endfacet
  facet normal 0.000000e+00 1.000000e+00 0.000000e+00
    outer loop
      vertex   -1.307126e+02 2.678078e+02 -2.063371e+02
      vertex   -1.302126e+02 2.678078e+02 -2.065442e+02
      vertex   -1.303956e+02 2.678078e+02 -2.065202e+02
    endloop
  endfacet
  facet normal 0.000000e+00 1.000000e+00 0.000000e+00
    outer loop
      vertex   -1.307126e+02 2.678078e+02 -2.063371e+02
      vertex   -1.303956e+02 2.678078e+02 -2.065202e+02
      vertex   -1.305661e+02 2.678078e+02 -2.064495e+02
    endloop
  endfacet
endsolid
