solid ASCII
  facet normal 9.914449e-01 -1.305262e-01 0.000000e+00
    outer loop
      vertex   -5.449822e+01 1.003149e+02 -3.816167e+02
      vertex   -5.449822e+01 1.003149e+02 -3.815167e+02
      vertex   -5.452231e+01 1.001319e+02 -3.816167e+02
    endloop
  endfacet
  facet normal 9.914449e-01 -1.305262e-01 0.000000e+00
    outer loop
      vertex   -5.452231e+01 1.001319e+02 -3.816167e+02
      vertex   -5.449822e+01 1.003149e+02 -3.815167e+02
      vertex   -5.452231e+01 1.001319e+02 -3.815167e+02
    endloop
  endfacet
  facet normal 9.238795e-01 -3.826834e-01 0.000000e+00
    outer loop
      vertex   -5.452231e+01 1.001319e+02 -3.816167e+02
      vertex   -5.452231e+01 1.001319e+02 -3.815167e+02
      vertex   -5.459295e+01 9.996132e+01 -3.816167e+02
    endloop
  endfacet
  facet normal 9.238795e-01 -3.826834e-01 0.000000e+00
    outer loop
      vertex   -5.459295e+01 9.996132e+01 -3.816167e+02
      vertex   -5.452231e+01 1.001319e+02 -3.815167e+02
      vertex   -5.459295e+01 9.996132e+01 -3.815167e+02
    endloop
  endfacet
  facet normal 7.933533e-01 -6.087614e-01 0.000000e+00
    outer loop
      vertex   -5.459295e+01 9.996132e+01 -3.816167e+02
      vertex   -5.459295e+01 9.996132e+01 -3.815167e+02
      vertex   -5.470532e+01 9.981488e+01 -3.816167e+02
    endloop
  endfacet
  facet normal 7.933533e-01 -6.087614e-01 0.000000e+00
    outer loop
      vertex   -5.470532e+01 9.981488e+01 -3.816167e+02
      vertex   -5.459295e+01 9.996132e+01 -3.815167e+02
      vertex   -5.470532e+01 9.981488e+01 -3.815167e+02
    endloop
  endfacet
  facet normal 6.087614e-01 -7.933533e-01 0.000000e+00
    outer loop
      vertex   -5.470532e+01 9.981488e+01 -3.816167e+02
      vertex   -5.470532e+01 9.981488e+01 -3.815167e+02
      vertex   -5.485177e+01 9.970250e+01 -3.816167e+02
    endloop
  endfacet
  facet normal 6.087614e-01 -7.933533e-01 1.127423e-13
    outer loop
      vertex   -5.485177e+01 9.970250e+01 -3.816167e+02
      vertex   -5.470532e+01 9.981488e+01 -3.815167e+02
      vertex   -5.485177e+01 9.970250e+01 -3.815167e+02
    endloop
  endfacet
  facet normal 3.826834e-01 -9.238795e-01 1.312912e-13
    outer loop
      vertex   -5.485177e+01 9.970250e+01 -3.816167e+02
      vertex   -5.485177e+01 9.970250e+01 -3.815167e+02
      vertex   -5.502231e+01 9.963186e+01 -3.816167e+02
    endloop
  endfacet
  facet normal 3.826834e-01 -9.238795e-01 0.000000e+00
    outer loop
      vertex   -5.502231e+01 9.963186e+01 -3.816167e+02
      vertex   -5.485177e+01 9.970250e+01 -3.815167e+02
      vertex   -5.502231e+01 9.963186e+01 -3.815167e+02
    endloop
  endfacet
  facet normal 1.305262e-01 -9.914449e-01 0.000000e+00
    outer loop
      vertex   -5.502231e+01 9.963186e+01 -3.816167e+02
      vertex   -5.502231e+01 9.963186e+01 -3.815167e+02
      vertex   -5.520532e+01 9.960777e+01 -3.816167e+02
    endloop
  endfacet
  facet normal 1.305262e-01 -9.914449e-01 1.408928e-13
    outer loop
      vertex   -5.520532e+01 9.960777e+01 -3.816167e+02
      vertex   -5.502231e+01 9.963186e+01 -3.815167e+02
      vertex   -5.520532e+01 9.960777e+01 -3.815167e+02
    endloop
  endfacet
  facet normal 1.000000e+00 0.000000e+00 0.000000e+00
    outer loop
      vertex   -5.449822e+01 1.089007e+02 -3.815167e+02
      vertex   -5.449822e+01 1.003149e+02 -3.815167e+02
      vertex   -5.449822e+01 1.089007e+02 -3.816167e+02
    endloop
  endfacet
  facet normal 1.000000e+00 0.000000e+00 0.000000e+00
    outer loop
      vertex   -5.449822e+01 1.089007e+02 -3.816167e+02
      vertex   -5.449822e+01 1.003149e+02 -3.815167e+02
      vertex   -5.449822e+01 1.003149e+02 -3.816167e+02
    endloop
  endfacet
  facet normal 1.305262e-01 9.914449e-01 -1.408928e-13
    outer loop
      vertex   -5.520532e+01 1.096078e+02 -3.816167e+02
      vertex   -5.520532e+01 1.096078e+02 -3.815167e+02
      vertex   -5.502231e+01 1.095837e+02 -3.816167e+02
    endloop
  endfacet
  facet normal 1.305262e-01 9.914449e-01 -0.000000e+00
    outer loop
      vertex   -5.502231e+01 1.095837e+02 -3.816167e+02
      vertex   -5.520532e+01 1.096078e+02 -3.815167e+02
      vertex   -5.502231e+01 1.095837e+02 -3.815167e+02
    endloop
  endfacet
  facet normal 3.826834e-01 9.238795e-01 -0.000000e+00
    outer loop
      vertex   -5.502231e+01 1.095837e+02 -3.816167e+02
      vertex   -5.502231e+01 1.095837e+02 -3.815167e+02
      vertex   -5.485177e+01 1.095130e+02 -3.816167e+02
    endloop
  endfacet
  facet normal 3.826834e-01 9.238795e-01 -0.000000e+00
    outer loop
      vertex   -5.485177e+01 1.095130e+02 -3.816167e+02
      vertex   -5.502231e+01 1.095837e+02 -3.815167e+02
      vertex   -5.485177e+01 1.095130e+02 -3.815167e+02
    endloop
  endfacet
  facet normal 6.087614e-01 7.933533e-01 -0.000000e+00
    outer loop
      vertex   -5.485177e+01 1.095130e+02 -3.816167e+02
      vertex   -5.485177e+01 1.095130e+02 -3.815167e+02
      vertex   -5.470532e+01 1.094007e+02 -3.816167e+02
    endloop
  endfacet
  facet normal 6.087614e-01 7.933533e-01 -1.127423e-13
    outer loop
      vertex   -5.470532e+01 1.094007e+02 -3.816167e+02
      vertex   -5.485177e+01 1.095130e+02 -3.815167e+02
      vertex   -5.470532e+01 1.094007e+02 -3.815167e+02
    endloop
  endfacet
  facet normal 7.933533e-01 6.087614e-01 -8.651020e-14
    outer loop
      vertex   -5.470532e+01 1.094007e+02 -3.816167e+02
      vertex   -5.470532e+01 1.094007e+02 -3.815167e+02
      vertex   -5.459295e+01 1.092542e+02 -3.816167e+02
    endloop
  endfacet
  facet normal 7.933533e-01 6.087614e-01 -0.000000e+00
    outer loop
      vertex   -5.459295e+01 1.092542e+02 -3.816167e+02
      vertex   -5.470532e+01 1.094007e+02 -3.815167e+02
      vertex   -5.459295e+01 1.092542e+02 -3.815167e+02
    endloop
  endfacet
  facet normal 9.238795e-01 3.826834e-01 -0.000000e+00
    outer loop
      vertex   -5.459295e+01 1.092542e+02 -3.816167e+02
      vertex   -5.459295e+01 1.092542e+02 -3.815167e+02
      vertex   -5.452231e+01 1.090837e+02 -3.816167e+02
    endloop
  endfacet
  facet normal 9.238795e-01 3.826834e-01 -0.000000e+00
    outer loop
      vertex   -5.452231e+01 1.090837e+02 -3.816167e+02
      vertex   -5.459295e+01 1.092542e+02 -3.815167e+02
      vertex   -5.452231e+01 1.090837e+02 -3.815167e+02
    endloop
  endfacet
  facet normal 9.914449e-01 1.305262e-01 -0.000000e+00
    outer loop
      vertex   -5.452231e+01 1.090837e+02 -3.816167e+02
      vertex   -5.452231e+01 1.090837e+02 -3.815167e+02
      vertex   -5.449822e+01 1.089007e+02 -3.816167e+02
    endloop
  endfacet
  facet normal 9.914449e-01 1.305262e-01 -1.854889e-14
    outer loop
      vertex   -5.449822e+01 1.089007e+02 -3.816167e+02
      vertex   -5.452231e+01 1.090837e+02 -3.815167e+02
      vertex   -5.449822e+01 1.089007e+02 -3.815167e+02
    endloop
  endfacet
  facet normal -0.000000e+00 1.000000e+00 0.000000e+00
    outer loop
      vertex   -6.919111e+01 1.096078e+02 -3.815167e+02
      vertex   -5.520532e+01 1.096078e+02 -3.815167e+02
      vertex   -6.919111e+01 1.096078e+02 -3.816167e+02
    endloop
  endfacet
  facet normal 1.016093e-15 1.000000e+00 -1.421085e-13
    outer loop
      vertex   -6.919111e+01 1.096078e+02 -3.816167e+02
      vertex   -5.520532e+01 1.096078e+02 -3.815167e+02
      vertex   -5.520532e+01 1.096078e+02 -3.816167e+02
    endloop
  endfacet
  facet normal -9.914449e-01 1.305262e-01 -1.854889e-14
    outer loop
      vertex   -6.989822e+01 1.089007e+02 -3.816167e+02
      vertex   -6.989822e+01 1.089007e+02 -3.815167e+02
      vertex   -6.987412e+01 1.090837e+02 -3.816167e+02
    endloop
  endfacet
  facet normal -9.914449e-01 1.305262e-01 0.000000e+00
    outer loop
      vertex   -6.987412e+01 1.090837e+02 -3.816167e+02
      vertex   -6.989822e+01 1.089007e+02 -3.815167e+02
      vertex   -6.987412e+01 1.090837e+02 -3.815167e+02
    endloop
  endfacet
  facet normal -9.238795e-01 3.826834e-01 0.000000e+00
    outer loop
      vertex   -6.987412e+01 1.090837e+02 -3.816167e+02
      vertex   -6.987412e+01 1.090837e+02 -3.815167e+02
      vertex   -6.980348e+01 1.092542e+02 -3.816167e+02
    endloop
  endfacet
  facet normal -9.238795e-01 3.826834e-01 0.000000e+00
    outer loop
      vertex   -6.980348e+01 1.092542e+02 -3.816167e+02
      vertex   -6.987412e+01 1.090837e+02 -3.815167e+02
      vertex   -6.980348e+01 1.092542e+02 -3.815167e+02
    endloop
  endfacet
  facet normal -7.933533e-01 6.087614e-01 0.000000e+00
    outer loop
      vertex   -6.980348e+01 1.092542e+02 -3.816167e+02
      vertex   -6.980348e+01 1.092542e+02 -3.815167e+02
      vertex   -6.969111e+01 1.094007e+02 -3.816167e+02
    endloop
  endfacet
  facet normal -7.933533e-01 6.087614e-01 0.000000e+00
    outer loop
      vertex   -6.969111e+01 1.094007e+02 -3.816167e+02
      vertex   -6.980348e+01 1.092542e+02 -3.815167e+02
      vertex   -6.969111e+01 1.094007e+02 -3.815167e+02
    endloop
  endfacet
  facet normal -6.087614e-01 7.933533e-01 0.000000e+00
    outer loop
      vertex   -6.969111e+01 1.094007e+02 -3.816167e+02
      vertex   -6.969111e+01 1.094007e+02 -3.815167e+02
      vertex   -6.954466e+01 1.095130e+02 -3.816167e+02
    endloop
  endfacet
  facet normal -6.087614e-01 7.933533e-01 0.000000e+00
    outer loop
      vertex   -6.954466e+01 1.095130e+02 -3.816167e+02
      vertex   -6.969111e+01 1.094007e+02 -3.815167e+02
      vertex   -6.954466e+01 1.095130e+02 -3.815167e+02
    endloop
  endfacet
  facet normal -3.826834e-01 9.238795e-01 0.000000e+00
    outer loop
      vertex   -6.954466e+01 1.095130e+02 -3.816167e+02
      vertex   -6.954466e+01 1.095130e+02 -3.815167e+02
      vertex   -6.937412e+01 1.095837e+02 -3.816167e+02
    endloop
  endfacet
  facet normal -3.826834e-01 9.238795e-01 0.000000e+00
    outer loop
      vertex   -6.937412e+01 1.095837e+02 -3.816167e+02
      vertex   -6.954466e+01 1.095130e+02 -3.815167e+02
      vertex   -6.937412e+01 1.095837e+02 -3.815167e+02
    endloop
  endfacet
  facet normal -1.305262e-01 9.914449e-01 0.000000e+00
    outer loop
      vertex   -6.937412e+01 1.095837e+02 -3.816167e+02
      vertex   -6.937412e+01 1.095837e+02 -3.815167e+02
      vertex   -6.919111e+01 1.096078e+02 -3.816167e+02
    endloop
  endfacet
  facet normal -1.305262e-01 9.914449e-01 0.000000e+00
    outer loop
      vertex   -6.919111e+01 1.096078e+02 -3.816167e+02
      vertex   -6.937412e+01 1.095837e+02 -3.815167e+02
      vertex   -6.919111e+01 1.096078e+02 -3.815167e+02
    endloop
  endfacet
  facet normal -1.000000e+00 0.000000e+00 0.000000e+00
    outer loop
      vertex   -6.989822e+01 1.003149e+02 -3.815167e+02
      vertex   -6.989822e+01 1.089007e+02 -3.815167e+02
      vertex   -6.989822e+01 1.003149e+02 -3.816167e+02
    endloop
  endfacet
  facet normal -1.000000e+00 0.000000e+00 0.000000e+00
    outer loop
      vertex   -6.989822e+01 1.003149e+02 -3.816167e+02
      vertex   -6.989822e+01 1.089007e+02 -3.815167e+02
      vertex   -6.989822e+01 1.089007e+02 -3.816167e+02
    endloop
  endfacet
  facet normal -1.305262e-01 -9.914449e-01 1.408928e-13
    outer loop
      vertex   -6.919111e+01 9.960777e+01 -3.816167e+02
      vertex   -6.919111e+01 9.960777e+01 -3.815167e+02
      vertex   -6.937412e+01 9.963186e+01 -3.816167e+02
    endloop
  endfacet
  facet normal -1.305262e-01 -9.914449e-01 0.000000e+00
    outer loop
      vertex   -6.937412e+01 9.963186e+01 -3.816167e+02
      vertex   -6.919111e+01 9.960777e+01 -3.815167e+02
      vertex   -6.937412e+01 9.963186e+01 -3.815167e+02
    endloop
  endfacet
  facet normal -3.826834e-01 -9.238795e-01 0.000000e+00
    outer loop
      vertex   -6.937412e+01 9.963186e+01 -3.816167e+02
      vertex   -6.937412e+01 9.963186e+01 -3.815167e+02
      vertex   -6.954466e+01 9.970250e+01 -3.816167e+02
    endloop
  endfacet
  facet normal -3.826834e-01 -9.238795e-01 1.312912e-13
    outer loop
      vertex   -6.954466e+01 9.970250e+01 -3.816167e+02
      vertex   -6.937412e+01 9.963186e+01 -3.815167e+02
      vertex   -6.954466e+01 9.970250e+01 -3.815167e+02
    endloop
  endfacet
  facet normal -6.087614e-01 -7.933533e-01 1.127423e-13
    outer loop
      vertex   -6.954466e+01 9.970250e+01 -3.816167e+02
      vertex   -6.954466e+01 9.970250e+01 -3.815167e+02
      vertex   -6.969111e+01 9.981488e+01 -3.816167e+02
    endloop
  endfacet
  facet normal -6.087614e-01 -7.933533e-01 0.000000e+00
    outer loop
      vertex   -6.969111e+01 9.981488e+01 -3.816167e+02
      vertex   -6.954466e+01 9.970250e+01 -3.815167e+02
      vertex   -6.969111e+01 9.981488e+01 -3.815167e+02
    endloop
  endfacet
  facet normal -7.933533e-01 -6.087614e-01 0.000000e+00
    outer loop
      vertex   -6.969111e+01 9.981488e+01 -3.816167e+02
      vertex   -6.969111e+01 9.981488e+01 -3.815167e+02
      vertex   -6.980348e+01 9.996132e+01 -3.816167e+02
    endloop
  endfacet
  facet normal -7.933533e-01 -6.087614e-01 0.000000e+00
    outer loop
      vertex   -6.980348e+01 9.996132e+01 -3.816167e+02
      vertex   -6.969111e+01 9.981488e+01 -3.815167e+02
      vertex   -6.980348e+01 9.996132e+01 -3.815167e+02
    endloop
  endfacet
  facet normal -9.238795e-01 -3.826834e-01 0.000000e+00
    outer loop
      vertex   -6.980348e+01 9.996132e+01 -3.816167e+02
      vertex   -6.980348e+01 9.996132e+01 -3.815167e+02
      vertex   -6.987412e+01 1.001319e+02 -3.816167e+02
    endloop
  endfacet
  facet normal -9.238795e-01 -3.826834e-01 0.000000e+00
    outer loop
      vertex   -6.987412e+01 1.001319e+02 -3.816167e+02
      vertex   -6.980348e+01 9.996132e+01 -3.815167e+02
      vertex   -6.987412e+01 1.001319e+02 -3.815167e+02
    endloop
  endfacet
  facet normal -9.914449e-01 -1.305262e-01 0.000000e+00
    outer loop
      vertex   -6.987412e+01 1.001319e+02 -3.816167e+02
      vertex   -6.987412e+01 1.001319e+02 -3.815167e+02
      vertex   -6.989822e+01 1.003149e+02 -3.816167e+02
    endloop
  endfacet
  facet normal -9.914449e-01 -1.305262e-01 0.000000e+00
    outer loop
      vertex   -6.989822e+01 1.003149e+02 -3.816167e+02
      vertex   -6.987412e+01 1.001319e+02 -3.815167e+02
      vertex   -6.989822e+01 1.003149e+02 -3.815167e+02
    endloop
  endfacet
  facet normal 0.000000e+00 -1.000000e+00 1.421085e-13
    outer loop
      vertex   -5.520532e+01 9.960777e+01 -3.815167e+02
      vertex   -6.919111e+01 9.960777e+01 -3.815167e+02
      vertex   -5.520532e+01 9.960777e+01 -3.816167e+02
    endloop
  endfacet
  facet normal -5.775818e-28 -1.000000e+00 1.421085e-13
    outer loop
      vertex   -5.520532e+01 9.960777e+01 -3.816167e+02
      vertex   -6.919111e+01 9.960777e+01 -3.815167e+02
      vertex   -6.919111e+01 9.960777e+01 -3.816167e+02
    endloop
  endfacet
  facet normal 4.064371e-15 -8.445310e-14 -1.000000e+00
    outer loop
      vertex   -6.919111e+01 9.960777e+01 -3.816167e+02
      vertex   -5.449822e+01 1.003149e+02 -3.816167e+02
      vertex   -5.520532e+01 9.960777e+01 -3.816167e+02
    endloop
  endfacet
  facet normal -9.257669e-14 1.218795e-14 -1.000000e+00
    outer loop
      vertex   -5.520532e+01 9.960777e+01 -3.816167e+02
      vertex   -5.449822e+01 1.003149e+02 -3.816167e+02
      vertex   -5.452231e+01 1.001319e+02 -3.816167e+02
    endloop
  endfacet
  facet normal -1.220010e-13 5.053447e-14 -1.000000e+00
    outer loop
      vertex   -5.520532e+01 9.960777e+01 -3.816167e+02
      vertex   -5.452231e+01 1.001319e+02 -3.816167e+02
      vertex   -5.459295e+01 9.996132e+01 -3.816167e+02
    endloop
  endfacet
  facet normal 0.000000e+00 0.000000e+00 -1.000000e+00
    outer loop
      vertex   -6.937412e+01 9.963186e+01 -3.816167e+02
      vertex   -6.954466e+01 9.970250e+01 -3.816167e+02
      vertex   -6.919111e+01 9.960777e+01 -3.816167e+02
    endloop
  endfacet
  facet normal 0.000000e+00 0.000000e+00 -1.000000e+00
    outer loop
      vertex   -6.919111e+01 9.960777e+01 -3.816167e+02
      vertex   -6.954466e+01 9.970250e+01 -3.816167e+02
      vertex   -6.969111e+01 9.981488e+01 -3.816167e+02
    endloop
  endfacet
  facet normal 0.000000e+00 0.000000e+00 -1.000000e+00
    outer loop
      vertex   -6.919111e+01 9.960777e+01 -3.816167e+02
      vertex   -6.969111e+01 9.981488e+01 -3.816167e+02
      vertex   -6.980348e+01 9.996132e+01 -3.816167e+02
    endloop
  endfacet
  facet normal 0.000000e+00 0.000000e+00 -1.000000e+00
    outer loop
      vertex   -6.980348e+01 9.996132e+01 -3.816167e+02
      vertex   -6.987412e+01 1.001319e+02 -3.816167e+02
      vertex   -6.919111e+01 9.960777e+01 -3.816167e+02
    endloop
  endfacet
  facet normal 0.000000e+00 0.000000e+00 -1.000000e+00
    outer loop
      vertex   -6.919111e+01 9.960777e+01 -3.816167e+02
      vertex   -6.987412e+01 1.001319e+02 -3.816167e+02
      vertex   -6.989822e+01 1.003149e+02 -3.816167e+02
    endloop
  endfacet
  facet normal 0.000000e+00 0.000000e+00 -1.000000e+00
    outer loop
      vertex   -6.919111e+01 9.960777e+01 -3.816167e+02
      vertex   -6.989822e+01 1.003149e+02 -3.816167e+02
      vertex   -5.449822e+01 1.003149e+02 -3.816167e+02
    endloop
  endfacet
  facet normal -0.000000e+00 -3.310321e-14 -1.000000e+00
    outer loop
      vertex   -5.449822e+01 1.003149e+02 -3.816167e+02
      vertex   -6.989822e+01 1.003149e+02 -3.816167e+02
      vertex   -5.449822e+01 1.089007e+02 -3.816167e+02
    endloop
  endfacet
  facet normal -0.000000e+00 -3.310321e-14 -1.000000e+00
    outer loop
      vertex   -5.449822e+01 1.089007e+02 -3.816167e+02
      vertex   -6.989822e+01 1.003149e+02 -3.816167e+02
      vertex   -6.989822e+01 1.089007e+02 -3.816167e+02
    endloop
  endfacet
  facet normal 0.000000e+00 0.000000e+00 -1.000000e+00
    outer loop
      vertex   -5.449822e+01 1.089007e+02 -3.816167e+02
      vertex   -6.989822e+01 1.089007e+02 -3.816167e+02
      vertex   -5.520532e+01 1.096078e+02 -3.816167e+02
    endloop
  endfacet
  facet normal -0.000000e+00 0.000000e+00 -1.000000e+00
    outer loop
      vertex   -5.520532e+01 1.096078e+02 -3.816167e+02
      vertex   -6.989822e+01 1.089007e+02 -3.816167e+02
      vertex   -6.919111e+01 1.096078e+02 -3.816167e+02
    endloop
  endfacet
  facet normal 0.000000e+00 0.000000e+00 -1.000000e+00
    outer loop
      vertex   -6.919111e+01 1.096078e+02 -3.816167e+02
      vertex   -6.989822e+01 1.089007e+02 -3.816167e+02
      vertex   -6.987412e+01 1.090837e+02 -3.816167e+02
    endloop
  endfacet
  facet normal 0.000000e+00 0.000000e+00 -1.000000e+00
    outer loop
      vertex   -6.919111e+01 1.096078e+02 -3.816167e+02
      vertex   -6.987412e+01 1.090837e+02 -3.816167e+02
      vertex   -6.980348e+01 1.092542e+02 -3.816167e+02
    endloop
  endfacet
  facet normal 0.000000e+00 0.000000e+00 -1.000000e+00
    outer loop
      vertex   -6.980348e+01 1.092542e+02 -3.816167e+02
      vertex   -6.969111e+01 1.094007e+02 -3.816167e+02
      vertex   -6.919111e+01 1.096078e+02 -3.816167e+02
    endloop
  endfacet
  facet normal 0.000000e+00 0.000000e+00 -1.000000e+00
    outer loop
      vertex   -6.919111e+01 1.096078e+02 -3.816167e+02
      vertex   -6.969111e+01 1.094007e+02 -3.816167e+02
      vertex   -6.954466e+01 1.095130e+02 -3.816167e+02
    endloop
  endfacet
  facet normal 0.000000e+00 0.000000e+00 -1.000000e+00
    outer loop
      vertex   -6.919111e+01 1.096078e+02 -3.816167e+02
      vertex   -6.954466e+01 1.095130e+02 -3.816167e+02
      vertex   -6.937412e+01 1.095837e+02 -3.816167e+02
    endloop
  endfacet
  facet normal -0.000000e+00 -0.000000e+00 -1.000000e+00
    outer loop
      vertex   -5.502231e+01 1.095837e+02 -3.816167e+02
      vertex   -5.485177e+01 1.095130e+02 -3.816167e+02
      vertex   -5.520532e+01 1.096078e+02 -3.816167e+02
    endloop
  endfacet
  facet normal 0.000000e+00 0.000000e+00 -1.000000e+00
    outer loop
      vertex   -5.520532e+01 1.096078e+02 -3.816167e+02
      vertex   -5.485177e+01 1.095130e+02 -3.816167e+02
      vertex   -5.470532e+01 1.094007e+02 -3.816167e+02
    endloop
  endfacet
  facet normal 0.000000e+00 0.000000e+00 -1.000000e+00
    outer loop
      vertex   -5.520532e+01 1.096078e+02 -3.816167e+02
      vertex   -5.470532e+01 1.094007e+02 -3.816167e+02
      vertex   -5.459295e+01 1.092542e+02 -3.816167e+02
    endloop
  endfacet
  facet normal -0.000000e+00 -0.000000e+00 -1.000000e+00
    outer loop
      vertex   -5.459295e+01 1.092542e+02 -3.816167e+02
      vertex   -5.452231e+01 1.090837e+02 -3.816167e+02
      vertex   -5.520532e+01 1.096078e+02 -3.816167e+02
    endloop
  endfacet
  facet normal 0.000000e+00 0.000000e+00 -1.000000e+00
    outer loop
      vertex   -5.520532e+01 1.096078e+02 -3.816167e+02
      vertex   -5.452231e+01 1.090837e+02 -3.816167e+02
      vertex   -5.449822e+01 1.089007e+02 -3.816167e+02
    endloop
  endfacet
  facet normal -1.666565e-13 1.278800e-13 -1.000000e+00
    outer loop
      vertex   -5.459295e+01 9.996132e+01 -3.816167e+02
      vertex   -5.470532e+01 9.981488e+01 -3.816167e+02
      vertex   -5.520532e+01 9.960777e+01 -3.816167e+02
    endloop
  endfacet
  facet normal -2.470452e-13 3.219556e-13 -1.000000e+00
    outer loop
      vertex   -5.520532e+01 9.960777e+01 -3.816167e+02
      vertex   -5.470532e+01 9.981488e+01 -3.816167e+02
      vertex   -5.485177e+01 9.970250e+01 -3.816167e+02
    endloop
  endfacet
  facet normal 1.552991e-13 -1.179614e-12 -1.000000e+00
    outer loop
      vertex   -5.520532e+01 9.960777e+01 -3.816167e+02
      vertex   -5.485177e+01 9.970250e+01 -3.816167e+02
      vertex   -5.502231e+01 9.963186e+01 -3.816167e+02
    endloop
  endfacet
  facet normal 0.000000e+00 8.038873e-14 1.000000e+00
    outer loop
      vertex   -5.520532e+01 9.960777e+01 -3.815167e+02
      vertex   -6.989822e+01 1.003149e+02 -3.815167e+02
      vertex   -6.919111e+01 9.960777e+01 -3.815167e+02
    endloop
  endfacet
  facet normal 2.651122e-13 3.455009e-13 1.000000e+00
    outer loop
      vertex   -6.919111e+01 9.960777e+01 -3.815167e+02
      vertex   -6.989822e+01 1.003149e+02 -3.815167e+02
      vertex   -6.987412e+01 1.001319e+02 -3.815167e+02
    endloop
  endfacet
  facet normal 0.000000e+00 0.000000e+00 1.000000e+00
    outer loop
      vertex   -6.919111e+01 9.960777e+01 -3.815167e+02
      vertex   -6.987412e+01 1.001319e+02 -3.815167e+02
      vertex   -6.980348e+01 9.996132e+01 -3.815167e+02
    endloop
  endfacet
  facet normal 0.000000e+00 -0.000000e+00 1.000000e+00
    outer loop
      vertex   -5.502231e+01 9.963186e+01 -3.815167e+02
      vertex   -5.485177e+01 9.970250e+01 -3.815167e+02
      vertex   -5.520532e+01 9.960777e+01 -3.815167e+02
    endloop
  endfacet
  facet normal 0.000000e+00 0.000000e+00 1.000000e+00
    outer loop
      vertex   -5.520532e+01 9.960777e+01 -3.815167e+02
      vertex   -5.485177e+01 9.970250e+01 -3.815167e+02
      vertex   -5.470532e+01 9.981488e+01 -3.815167e+02
    endloop
  endfacet
  facet normal 0.000000e+00 0.000000e+00 1.000000e+00
    outer loop
      vertex   -5.520532e+01 9.960777e+01 -3.815167e+02
      vertex   -5.470532e+01 9.981488e+01 -3.815167e+02
      vertex   -5.459295e+01 9.996132e+01 -3.815167e+02
    endloop
  endfacet
  facet normal 0.000000e+00 -0.000000e+00 1.000000e+00
    outer loop
      vertex   -5.459295e+01 9.996132e+01 -3.815167e+02
      vertex   -5.452231e+01 1.001319e+02 -3.815167e+02
      vertex   -5.520532e+01 9.960777e+01 -3.815167e+02
    endloop
  endfacet
  facet normal 0.000000e+00 0.000000e+00 1.000000e+00
    outer loop
      vertex   -5.520532e+01 9.960777e+01 -3.815167e+02
      vertex   -5.452231e+01 1.001319e+02 -3.815167e+02
      vertex   -5.449822e+01 1.003149e+02 -3.815167e+02
    endloop
  endfacet
  facet normal -3.691131e-15 3.691131e-15 1.000000e+00
    outer loop
      vertex   -5.520532e+01 9.960777e+01 -3.815167e+02
      vertex   -5.449822e+01 1.003149e+02 -3.815167e+02
      vertex   -6.989822e+01 1.003149e+02 -3.815167e+02
    endloop
  endfacet
  facet normal -3.691131e-15 2.648257e-14 1.000000e+00
    outer loop
      vertex   -6.989822e+01 1.003149e+02 -3.815167e+02
      vertex   -5.449822e+01 1.003149e+02 -3.815167e+02
      vertex   -6.989822e+01 1.089007e+02 -3.815167e+02
    endloop
  endfacet
  facet normal -0.000000e+00 3.310321e-14 1.000000e+00
    outer loop
      vertex   -6.989822e+01 1.089007e+02 -3.815167e+02
      vertex   -5.449822e+01 1.003149e+02 -3.815167e+02
      vertex   -5.449822e+01 1.089007e+02 -3.815167e+02
    endloop
  endfacet
  facet normal -0.000000e+00 8.038873e-14 1.000000e+00
    outer loop
      vertex   -6.989822e+01 1.089007e+02 -3.815167e+02
      vertex   -5.449822e+01 1.089007e+02 -3.815167e+02
      vertex   -6.919111e+01 1.096078e+02 -3.815167e+02
    endloop
  endfacet
  facet normal -4.064371e-15 -4.064371e-15 1.000000e+00
    outer loop
      vertex   -6.919111e+01 1.096078e+02 -3.815167e+02
      vertex   -5.449822e+01 1.089007e+02 -3.815167e+02
      vertex   -5.520532e+01 1.096078e+02 -3.815167e+02
    endloop
  endfacet
  facet normal 0.000000e+00 0.000000e+00 1.000000e+00
    outer loop
      vertex   -5.520532e+01 1.096078e+02 -3.815167e+02
      vertex   -5.449822e+01 1.089007e+02 -3.815167e+02
      vertex   -5.452231e+01 1.090837e+02 -3.815167e+02
    endloop
  endfacet
  facet normal 0.000000e+00 0.000000e+00 1.000000e+00
    outer loop
      vertex   -5.520532e+01 1.096078e+02 -3.815167e+02
      vertex   -5.452231e+01 1.090837e+02 -3.815167e+02
      vertex   -5.459295e+01 1.092542e+02 -3.815167e+02
    endloop
  endfacet
  facet normal 0.000000e+00 0.000000e+00 1.000000e+00
    outer loop
      vertex   -5.459295e+01 1.092542e+02 -3.815167e+02
      vertex   -5.470532e+01 1.094007e+02 -3.815167e+02
      vertex   -5.520532e+01 1.096078e+02 -3.815167e+02
    endloop
  endfacet
  facet normal 0.000000e+00 0.000000e+00 1.000000e+00
    outer loop
      vertex   -5.520532e+01 1.096078e+02 -3.815167e+02
      vertex   -5.470532e+01 1.094007e+02 -3.815167e+02
      vertex   -5.485177e+01 1.095130e+02 -3.815167e+02
    endloop
  endfacet
  facet normal 0.000000e+00 0.000000e+00 1.000000e+00
    outer loop
      vertex   -5.520532e+01 1.096078e+02 -3.815167e+02
      vertex   -5.485177e+01 1.095130e+02 -3.815167e+02
      vertex   -5.502231e+01 1.095837e+02 -3.815167e+02
    endloop
  endfacet
  facet normal -1.552991e-13 1.179614e-12 1.000000e+00
    outer loop
      vertex   -6.937412e+01 1.095837e+02 -3.815167e+02
      vertex   -6.954466e+01 1.095130e+02 -3.815167e+02
      vertex   -6.919111e+01 1.096078e+02 -3.815167e+02
    endloop
  endfacet
  facet normal 2.470452e-13 -3.219556e-13 1.000000e+00
    outer loop
      vertex   -6.919111e+01 1.096078e+02 -3.815167e+02
      vertex   -6.954466e+01 1.095130e+02 -3.815167e+02
      vertex   -6.969111e+01 1.094007e+02 -3.815167e+02
    endloop
  endfacet
  facet normal 1.666565e-13 -1.278800e-13 1.000000e+00
    outer loop
      vertex   -6.919111e+01 1.096078e+02 -3.815167e+02
      vertex   -6.969111e+01 1.094007e+02 -3.815167e+02
      vertex   -6.980348e+01 1.092542e+02 -3.815167e+02
    endloop
  endfacet
  facet normal 1.220010e-13 -5.053447e-14 1.000000e+00
    outer loop
      vertex   -6.980348e+01 1.092542e+02 -3.815167e+02
      vertex   -6.987412e+01 1.090837e+02 -3.815167e+02
      vertex   -6.919111e+01 1.096078e+02 -3.815167e+02
    endloop
  endfacet
  facet normal 9.257669e-14 -1.218795e-14 1.000000e+00
    outer loop
      vertex   -6.919111e+01 1.096078e+02 -3.815167e+02
      vertex   -6.987412e+01 1.090837e+02 -3.815167e+02
      vertex   -6.989822e+01 1.089007e+02 -3.815167e+02
    endloop
  endfacet
  facet normal 0.000000e+00 0.000000e+00 1.000000e+00
    outer loop
      vertex   -6.980348e+01 9.996132e+01 -3.815167e+02
      vertex   -6.969111e+01 9.981488e+01 -3.815167e+02
      vertex   -6.919111e+01 9.960777e+01 -3.815167e+02
    endloop
  endfacet
  facet normal 0.000000e+00 0.000000e+00 1.000000e+00
    outer loop
      vertex   -6.919111e+01 9.960777e+01 -3.815167e+02
      vertex   -6.969111e+01 9.981488e+01 -3.815167e+02
      vertex   -6.954466e+01 9.970250e+01 -3.815167e+02
    endloop
  endfacet
  facet normal 0.000000e+00 0.000000e+00 1.000000e+00
    outer loop
      vertex   -6.919111e+01 9.960777e+01 -3.815167e+02
      vertex   -6.954466e+01 9.970250e+01 -3.815167e+02
      vertex   -6.937412e+01 9.963186e+01 -3.815167e+02
    endloop
  endfacet
  facet normal -1.305262e-01 -9.914449e-01 0.000000e+00
    outer loop
      vertex   3.363089e+02 7.770777e+01 -3.941667e+02
      vertex   3.363089e+02 7.770777e+01 -3.940667e+02
      vertex   3.361259e+02 7.773186e+01 -3.941667e+02
    endloop
  endfacet
  facet normal -1.305262e-01 -9.914449e-01 0.000000e+00
    outer loop
      vertex   3.361259e+02 7.773186e+01 -3.941667e+02
      vertex   3.363089e+02 7.770777e+01 -3.940667e+02
      vertex   3.361259e+02 7.773186e+01 -3.940667e+02
    endloop
  endfacet
  facet normal -3.826834e-01 -9.238795e-01 0.000000e+00
    outer loop
      vertex   3.361259e+02 7.773186e+01 -3.941667e+02
      vertex   3.361259e+02 7.773186e+01 -3.940667e+02
      vertex   3.359553e+02 7.780250e+01 -3.941667e+02
    endloop
  endfacet
  facet normal -3.826834e-01 -9.238795e-01 -2.175303e-13
    outer loop
      vertex   3.359553e+02 7.780250e+01 -3.941667e+02
      vertex   3.361259e+02 7.773186e+01 -3.940667e+02
      vertex   3.359553e+02 7.780250e+01 -3.940667e+02
    endloop
  endfacet
  facet normal -6.087614e-01 -7.933533e-01 -3.460408e-13
    outer loop
      vertex   3.359553e+02 7.780250e+01 -3.941667e+02
      vertex   3.359553e+02 7.780250e+01 -3.940667e+02
      vertex   3.358089e+02 7.791488e+01 -3.941667e+02
    endloop
  endfacet
  facet normal -6.087614e-01 -7.933533e-01 0.000000e+00
    outer loop
      vertex   3.358089e+02 7.791488e+01 -3.941667e+02
      vertex   3.359553e+02 7.780250e+01 -3.940667e+02
      vertex   3.358089e+02 7.791488e+01 -3.940667e+02
    endloop
  endfacet
  facet normal -7.933533e-01 -6.087614e-01 0.000000e+00
    outer loop
      vertex   3.358089e+02 7.791488e+01 -3.941667e+02
      vertex   3.358089e+02 7.791488e+01 -3.940667e+02
      vertex   3.356965e+02 7.806132e+01 -3.941667e+02
    endloop
  endfacet
  facet normal -7.933533e-01 -6.087614e-01 0.000000e+00
    outer loop
      vertex   3.356965e+02 7.806132e+01 -3.941667e+02
      vertex   3.358089e+02 7.791488e+01 -3.940667e+02
      vertex   3.356965e+02 7.806132e+01 -3.940667e+02
    endloop
  endfacet
  facet normal -9.238795e-01 -3.826834e-01 0.000000e+00
    outer loop
      vertex   3.356965e+02 7.806132e+01 -3.941667e+02
      vertex   3.356965e+02 7.806132e+01 -3.940667e+02
      vertex   3.356259e+02 7.823186e+01 -3.941667e+02
    endloop
  endfacet
  facet normal -9.238795e-01 -3.826834e-01 0.000000e+00
    outer loop
      vertex   3.356259e+02 7.823186e+01 -3.941667e+02
      vertex   3.356965e+02 7.806132e+01 -3.940667e+02
      vertex   3.356259e+02 7.823186e+01 -3.940667e+02
    endloop
  endfacet
  facet normal -9.914449e-01 -1.305262e-01 0.000000e+00
    outer loop
      vertex   3.356259e+02 7.823186e+01 -3.941667e+02
      vertex   3.356259e+02 7.823186e+01 -3.940667e+02
      vertex   3.356018e+02 7.841488e+01 -3.941667e+02
    endloop
  endfacet
  facet normal -9.914449e-01 -1.305262e-01 0.000000e+00
    outer loop
      vertex   3.356018e+02 7.841488e+01 -3.941667e+02
      vertex   3.356259e+02 7.823186e+01 -3.940667e+02
      vertex   3.356018e+02 7.841488e+01 -3.940667e+02
    endloop
  endfacet
  facet normal -4.799965e-14 -1.000000e+00 -0.000000e+00
    outer loop
      vertex   3.448947e+02 7.770777e+01 -3.940667e+02
      vertex   3.363089e+02 7.770777e+01 -3.940667e+02
      vertex   3.448947e+02 7.770777e+01 -3.941667e+02
    endloop
  endfacet
  facet normal -4.799965e-14 -1.000000e+00 0.000000e+00
    outer loop
      vertex   3.448947e+02 7.770777e+01 -3.941667e+02
      vertex   3.363089e+02 7.770777e+01 -3.940667e+02
      vertex   3.363089e+02 7.770777e+01 -3.941667e+02
    endloop
  endfacet
  facet normal 9.914449e-01 -1.305262e-01 0.000000e+00
    outer loop
      vertex   3.456018e+02 7.841488e+01 -3.941667e+02
      vertex   3.456018e+02 7.841488e+01 -3.940667e+02
      vertex   3.455777e+02 7.823186e+01 -3.941667e+02
    endloop
  endfacet
  facet normal 9.914449e-01 -1.305262e-01 0.000000e+00
    outer loop
      vertex   3.455777e+02 7.823186e+01 -3.941667e+02
      vertex   3.456018e+02 7.841488e+01 -3.940667e+02
      vertex   3.455777e+02 7.823186e+01 -3.940667e+02
    endloop
  endfacet
  facet normal 9.238795e-01 -3.826834e-01 0.000000e+00
    outer loop
      vertex   3.455777e+02 7.823186e+01 -3.941667e+02
      vertex   3.455777e+02 7.823186e+01 -3.940667e+02
      vertex   3.455070e+02 7.806132e+01 -3.941667e+02
    endloop
  endfacet
  facet normal 9.238795e-01 -3.826834e-01 0.000000e+00
    outer loop
      vertex   3.455070e+02 7.806132e+01 -3.941667e+02
      vertex   3.455777e+02 7.823186e+01 -3.940667e+02
      vertex   3.455070e+02 7.806132e+01 -3.940667e+02
    endloop
  endfacet
  facet normal 7.933533e-01 -6.087614e-01 0.000000e+00
    outer loop
      vertex   3.455070e+02 7.806132e+01 -3.941667e+02
      vertex   3.455070e+02 7.806132e+01 -3.940667e+02
      vertex   3.453947e+02 7.791488e+01 -3.941667e+02
    endloop
  endfacet
  facet normal 7.933533e-01 -6.087614e-01 0.000000e+00
    outer loop
      vertex   3.453947e+02 7.791488e+01 -3.941667e+02
      vertex   3.455070e+02 7.806132e+01 -3.940667e+02
      vertex   3.453947e+02 7.791488e+01 -3.940667e+02
    endloop
  endfacet
  facet normal 6.087614e-01 -7.933533e-01 0.000000e+00
    outer loop
      vertex   3.453947e+02 7.791488e+01 -3.941667e+02
      vertex   3.453947e+02 7.791488e+01 -3.940667e+02
      vertex   3.452482e+02 7.780250e+01 -3.941667e+02
    endloop
  endfacet
  facet normal 6.087614e-01 -7.933533e-01 0.000000e+00
    outer loop
      vertex   3.452482e+02 7.780250e+01 -3.941667e+02
      vertex   3.453947e+02 7.791488e+01 -3.940667e+02
      vertex   3.452482e+02 7.780250e+01 -3.940667e+02
    endloop
  endfacet
  facet normal 3.826834e-01 -9.238795e-01 0.000000e+00
    outer loop
      vertex   3.452482e+02 7.780250e+01 -3.941667e+02
      vertex   3.452482e+02 7.780250e+01 -3.940667e+02
      vertex   3.450777e+02 7.773186e+01 -3.941667e+02
    endloop
  endfacet
  facet normal 3.826834e-01 -9.238795e-01 0.000000e+00
    outer loop
      vertex   3.450777e+02 7.773186e+01 -3.941667e+02
      vertex   3.452482e+02 7.780250e+01 -3.940667e+02
      vertex   3.450777e+02 7.773186e+01 -3.940667e+02
    endloop
  endfacet
  facet normal 1.305262e-01 -9.914449e-01 0.000000e+00
    outer loop
      vertex   3.450777e+02 7.773186e+01 -3.941667e+02
      vertex   3.450777e+02 7.773186e+01 -3.940667e+02
      vertex   3.448947e+02 7.770777e+01 -3.941667e+02
    endloop
  endfacet
  facet normal 1.305262e-01 -9.914449e-01 0.000000e+00
    outer loop
      vertex   3.448947e+02 7.770777e+01 -3.941667e+02
      vertex   3.450777e+02 7.773186e+01 -3.940667e+02
      vertex   3.448947e+02 7.770777e+01 -3.940667e+02
    endloop
  endfacet
  facet normal 1.000000e+00 -4.877245e-14 0.000000e+00
    outer loop
      vertex   3.456018e+02 9.240066e+01 -3.940667e+02
      vertex   3.456018e+02 7.841488e+01 -3.940667e+02
      vertex   3.456018e+02 9.240066e+01 -3.941667e+02
    endloop
  endfacet
  facet normal 1.000000e+00 -4.877245e-14 0.000000e+00
    outer loop
      vertex   3.456018e+02 9.240066e+01 -3.941667e+02
      vertex   3.456018e+02 7.841488e+01 -3.940667e+02
      vertex   3.456018e+02 7.841488e+01 -3.941667e+02
    endloop
  endfacet
  facet normal 1.305262e-01 9.914449e-01 -0.000000e+00
    outer loop
      vertex   3.448947e+02 9.310777e+01 -3.941667e+02
      vertex   3.448947e+02 9.310777e+01 -3.940667e+02
      vertex   3.450777e+02 9.308367e+01 -3.941667e+02
    endloop
  endfacet
  facet normal 1.305262e-01 9.914449e-01 -0.000000e+00
    outer loop
      vertex   3.450777e+02 9.308367e+01 -3.941667e+02
      vertex   3.448947e+02 9.310777e+01 -3.940667e+02
      vertex   3.450777e+02 9.308367e+01 -3.940667e+02
    endloop
  endfacet
  facet normal 3.826834e-01 9.238795e-01 -0.000000e+00
    outer loop
      vertex   3.450777e+02 9.308367e+01 -3.941667e+02
      vertex   3.450777e+02 9.308367e+01 -3.940667e+02
      vertex   3.452482e+02 9.301303e+01 -3.941667e+02
    endloop
  endfacet
  facet normal 3.826834e-01 9.238795e-01 2.175303e-13
    outer loop
      vertex   3.452482e+02 9.301303e+01 -3.941667e+02
      vertex   3.450777e+02 9.308367e+01 -3.940667e+02
      vertex   3.452482e+02 9.301303e+01 -3.940667e+02
    endloop
  endfacet
  facet normal 6.087614e-01 7.933533e-01 3.460408e-13
    outer loop
      vertex   3.452482e+02 9.301303e+01 -3.941667e+02
      vertex   3.452482e+02 9.301303e+01 -3.940667e+02
      vertex   3.453947e+02 9.290066e+01 -3.941667e+02
    endloop
  endfacet
  facet normal 6.087614e-01 7.933533e-01 -0.000000e+00
    outer loop
      vertex   3.453947e+02 9.290066e+01 -3.941667e+02
      vertex   3.452482e+02 9.301303e+01 -3.940667e+02
      vertex   3.453947e+02 9.290066e+01 -3.940667e+02
    endloop
  endfacet
  facet normal 7.933533e-01 6.087614e-01 -0.000000e+00
    outer loop
      vertex   3.453947e+02 9.290066e+01 -3.941667e+02
      vertex   3.453947e+02 9.290066e+01 -3.940667e+02
      vertex   3.455070e+02 9.275421e+01 -3.941667e+02
    endloop
  endfacet
  facet normal 7.933533e-01 6.087614e-01 -0.000000e+00
    outer loop
      vertex   3.455070e+02 9.275421e+01 -3.941667e+02
      vertex   3.453947e+02 9.290066e+01 -3.940667e+02
      vertex   3.455070e+02 9.275421e+01 -3.940667e+02
    endloop
  endfacet
  facet normal 9.238795e-01 3.826834e-01 -0.000000e+00
    outer loop
      vertex   3.455070e+02 9.275421e+01 -3.941667e+02
      vertex   3.455070e+02 9.275421e+01 -3.940667e+02
      vertex   3.455777e+02 9.258367e+01 -3.941667e+02
    endloop
  endfacet
  facet normal 9.238795e-01 3.826834e-01 -0.000000e+00
    outer loop
      vertex   3.455777e+02 9.258367e+01 -3.941667e+02
      vertex   3.455070e+02 9.275421e+01 -3.940667e+02
      vertex   3.455777e+02 9.258367e+01 -3.940667e+02
    endloop
  endfacet
  facet normal 9.914449e-01 1.305262e-01 -0.000000e+00
    outer loop
      vertex   3.455777e+02 9.258367e+01 -3.941667e+02
      vertex   3.455777e+02 9.258367e+01 -3.940667e+02
      vertex   3.456018e+02 9.240066e+01 -3.941667e+02
    endloop
  endfacet
  facet normal 9.914449e-01 1.305262e-01 -0.000000e+00
    outer loop
      vertex   3.456018e+02 9.240066e+01 -3.941667e+02
      vertex   3.455777e+02 9.258367e+01 -3.940667e+02
      vertex   3.456018e+02 9.240066e+01 -3.940667e+02
    endloop
  endfacet
  facet normal 4.799965e-14 1.000000e+00 0.000000e+00
    outer loop
      vertex   3.363089e+02 9.310777e+01 -3.940667e+02
      vertex   3.448947e+02 9.310777e+01 -3.940667e+02
      vertex   3.363089e+02 9.310777e+01 -3.941667e+02
    endloop
  endfacet
  facet normal 4.799965e-14 1.000000e+00 0.000000e+00
    outer loop
      vertex   3.363089e+02 9.310777e+01 -3.941667e+02
      vertex   3.448947e+02 9.310777e+01 -3.940667e+02
      vertex   3.448947e+02 9.310777e+01 -3.941667e+02
    endloop
  endfacet
  facet normal -9.914449e-01 1.305262e-01 0.000000e+00
    outer loop
      vertex   3.356018e+02 9.240066e+01 -3.941667e+02
      vertex   3.356018e+02 9.240066e+01 -3.940667e+02
      vertex   3.356259e+02 9.258367e+01 -3.941667e+02
    endloop
  endfacet
  facet normal -9.914449e-01 1.305262e-01 0.000000e+00
    outer loop
      vertex   3.356259e+02 9.258367e+01 -3.941667e+02
      vertex   3.356018e+02 9.240066e+01 -3.940667e+02
      vertex   3.356259e+02 9.258367e+01 -3.940667e+02
    endloop
  endfacet
  facet normal -9.238795e-01 3.826834e-01 0.000000e+00
    outer loop
      vertex   3.356259e+02 9.258367e+01 -3.941667e+02
      vertex   3.356259e+02 9.258367e+01 -3.940667e+02
      vertex   3.356965e+02 9.275421e+01 -3.941667e+02
    endloop
  endfacet
  facet normal -9.238795e-01 3.826834e-01 0.000000e+00
    outer loop
      vertex   3.356965e+02 9.275421e+01 -3.941667e+02
      vertex   3.356259e+02 9.258367e+01 -3.940667e+02
      vertex   3.356965e+02 9.275421e+01 -3.940667e+02
    endloop
  endfacet
  facet normal -7.933533e-01 6.087614e-01 0.000000e+00
    outer loop
      vertex   3.356965e+02 9.275421e+01 -3.941667e+02
      vertex   3.356965e+02 9.275421e+01 -3.940667e+02
      vertex   3.358089e+02 9.290066e+01 -3.941667e+02
    endloop
  endfacet
  facet normal -7.933533e-01 6.087614e-01 0.000000e+00
    outer loop
      vertex   3.358089e+02 9.290066e+01 -3.941667e+02
      vertex   3.356965e+02 9.275421e+01 -3.940667e+02
      vertex   3.358089e+02 9.290066e+01 -3.940667e+02
    endloop
  endfacet
  facet normal -6.087614e-01 7.933533e-01 0.000000e+00
    outer loop
      vertex   3.358089e+02 9.290066e+01 -3.941667e+02
      vertex   3.358089e+02 9.290066e+01 -3.940667e+02
      vertex   3.359553e+02 9.301303e+01 -3.941667e+02
    endloop
  endfacet
  facet normal -6.087614e-01 7.933533e-01 0.000000e+00
    outer loop
      vertex   3.359553e+02 9.301303e+01 -3.941667e+02
      vertex   3.358089e+02 9.290066e+01 -3.940667e+02
      vertex   3.359553e+02 9.301303e+01 -3.940667e+02
    endloop
  endfacet
  facet normal -3.826834e-01 9.238795e-01 0.000000e+00
    outer loop
      vertex   3.359553e+02 9.301303e+01 -3.941667e+02
      vertex   3.359553e+02 9.301303e+01 -3.940667e+02
      vertex   3.361259e+02 9.308367e+01 -3.941667e+02
    endloop
  endfacet
  facet normal -3.826834e-01 9.238795e-01 0.000000e+00
    outer loop
      vertex   3.361259e+02 9.308367e+01 -3.941667e+02
      vertex   3.359553e+02 9.301303e+01 -3.940667e+02
      vertex   3.361259e+02 9.308367e+01 -3.940667e+02
    endloop
  endfacet
  facet normal -1.305262e-01 9.914449e-01 0.000000e+00
    outer loop
      vertex   3.361259e+02 9.308367e+01 -3.941667e+02
      vertex   3.361259e+02 9.308367e+01 -3.940667e+02
      vertex   3.363089e+02 9.310777e+01 -3.941667e+02
    endloop
  endfacet
  facet normal -1.305262e-01 9.914449e-01 0.000000e+00
    outer loop
      vertex   3.363089e+02 9.310777e+01 -3.941667e+02
      vertex   3.361259e+02 9.308367e+01 -3.940667e+02
      vertex   3.363089e+02 9.310777e+01 -3.940667e+02
    endloop
  endfacet
  facet normal -1.000000e+00 4.877245e-14 0.000000e+00
    outer loop
      vertex   3.356018e+02 7.841488e+01 -3.940667e+02
      vertex   3.356018e+02 9.240066e+01 -3.940667e+02
      vertex   3.356018e+02 7.841488e+01 -3.941667e+02
    endloop
  endfacet
  facet normal -1.000000e+00 4.877245e-14 0.000000e+00
    outer loop
      vertex   3.356018e+02 7.841488e+01 -3.941667e+02
      vertex   3.356018e+02 9.240066e+01 -3.940667e+02
      vertex   3.356018e+02 9.240066e+01 -3.941667e+02
    endloop
  endfacet
  facet normal 0.000000e+00 -0.000000e+00 -1.000000e+00
    outer loop
      vertex   3.356018e+02 9.240066e+01 -3.941667e+02
      vertex   3.363089e+02 7.770777e+01 -3.941667e+02
      vertex   3.356018e+02 7.841488e+01 -3.941667e+02
    endloop
  endfacet
  facet normal 0.000000e+00 0.000000e+00 -1.000000e+00
    outer loop
      vertex   3.356018e+02 7.841488e+01 -3.941667e+02
      vertex   3.363089e+02 7.770777e+01 -3.941667e+02
      vertex   3.361259e+02 7.773186e+01 -3.941667e+02
    endloop
  endfacet
  facet normal 0.000000e+00 0.000000e+00 -1.000000e+00
    outer loop
      vertex   3.356018e+02 7.841488e+01 -3.941667e+02
      vertex   3.361259e+02 7.773186e+01 -3.941667e+02
      vertex   3.359553e+02 7.780250e+01 -3.941667e+02
    endloop
  endfacet
  facet normal 0.000000e+00 -0.000000e+00 -1.000000e+00
    outer loop
      vertex   3.356259e+02 9.258367e+01 -3.941667e+02
      vertex   3.356965e+02 9.275421e+01 -3.941667e+02
      vertex   3.356018e+02 9.240066e+01 -3.941667e+02
    endloop
  endfacet
  facet normal 0.000000e+00 0.000000e+00 -1.000000e+00
    outer loop
      vertex   3.356018e+02 9.240066e+01 -3.941667e+02
      vertex   3.356965e+02 9.275421e+01 -3.941667e+02
      vertex   3.358089e+02 9.290066e+01 -3.941667e+02
    endloop
  endfacet
  facet normal 0.000000e+00 0.000000e+00 -1.000000e+00
    outer loop
      vertex   3.356018e+02 9.240066e+01 -3.941667e+02
      vertex   3.358089e+02 9.290066e+01 -3.941667e+02
      vertex   3.359553e+02 9.301303e+01 -3.941667e+02
    endloop
  endfacet
  facet normal 0.000000e+00 -0.000000e+00 -1.000000e+00
    outer loop
      vertex   3.359553e+02 9.301303e+01 -3.941667e+02
      vertex   3.361259e+02 9.308367e+01 -3.941667e+02
      vertex   3.356018e+02 9.240066e+01 -3.941667e+02
    endloop
  endfacet
  facet normal 0.000000e+00 0.000000e+00 -1.000000e+00
    outer loop
      vertex   3.356018e+02 9.240066e+01 -3.941667e+02
      vertex   3.361259e+02 9.308367e+01 -3.941667e+02
      vertex   3.363089e+02 9.310777e+01 -3.941667e+02
    endloop
  endfacet
  facet normal 0.000000e+00 0.000000e+00 -1.000000e+00
    outer loop
      vertex   3.356018e+02 9.240066e+01 -3.941667e+02
      vertex   3.363089e+02 9.310777e+01 -3.941667e+02
      vertex   3.363089e+02 7.770777e+01 -3.941667e+02
    endloop
  endfacet
  facet normal 1.986193e-14 -9.530687e-28 -1.000000e+00
    outer loop
      vertex   3.363089e+02 7.770777e+01 -3.941667e+02
      vertex   3.363089e+02 9.310777e+01 -3.941667e+02
      vertex   3.448947e+02 7.770777e+01 -3.941667e+02
    endloop
  endfacet
  facet normal 1.986193e-14 -9.530687e-28 -1.000000e+00
    outer loop
      vertex   3.448947e+02 7.770777e+01 -3.941667e+02
      vertex   3.363089e+02 9.310777e+01 -3.941667e+02
      vertex   3.448947e+02 9.310777e+01 -3.941667e+02
    endloop
  endfacet
  facet normal 0.000000e+00 0.000000e+00 -1.000000e+00
    outer loop
      vertex   3.448947e+02 7.770777e+01 -3.941667e+02
      vertex   3.448947e+02 9.310777e+01 -3.941667e+02
      vertex   3.456018e+02 7.841488e+01 -3.941667e+02
    endloop
  endfacet
  facet normal 0.000000e+00 0.000000e+00 -1.000000e+00
    outer loop
      vertex   3.456018e+02 7.841488e+01 -3.941667e+02
      vertex   3.448947e+02 9.310777e+01 -3.941667e+02
      vertex   3.456018e+02 9.240066e+01 -3.941667e+02
    endloop
  endfacet
  facet normal 0.000000e+00 0.000000e+00 -1.000000e+00
    outer loop
      vertex   3.456018e+02 9.240066e+01 -3.941667e+02
      vertex   3.448947e+02 9.310777e+01 -3.941667e+02
      vertex   3.450777e+02 9.308367e+01 -3.941667e+02
    endloop
  endfacet
  facet normal 0.000000e+00 0.000000e+00 -1.000000e+00
    outer loop
      vertex   3.456018e+02 9.240066e+01 -3.941667e+02
      vertex   3.450777e+02 9.308367e+01 -3.941667e+02
      vertex   3.452482e+02 9.301303e+01 -3.941667e+02
    endloop
  endfacet
  facet normal 0.000000e+00 0.000000e+00 -1.000000e+00
    outer loop
      vertex   3.452482e+02 9.301303e+01 -3.941667e+02
      vertex   3.453947e+02 9.290066e+01 -3.941667e+02
      vertex   3.456018e+02 9.240066e+01 -3.941667e+02
    endloop
  endfacet
  facet normal 0.000000e+00 0.000000e+00 -1.000000e+00
    outer loop
      vertex   3.456018e+02 9.240066e+01 -3.941667e+02
      vertex   3.453947e+02 9.290066e+01 -3.941667e+02
      vertex   3.455070e+02 9.275421e+01 -3.941667e+02
    endloop
  endfacet
  facet normal 0.000000e+00 0.000000e+00 -1.000000e+00
    outer loop
      vertex   3.456018e+02 9.240066e+01 -3.941667e+02
      vertex   3.455070e+02 9.275421e+01 -3.941667e+02
      vertex   3.455777e+02 9.258367e+01 -3.941667e+02
    endloop
  endfacet
  facet normal -0.000000e+00 0.000000e+00 -1.000000e+00
    outer loop
      vertex   3.455777e+02 7.823186e+01 -3.941667e+02
      vertex   3.455070e+02 7.806132e+01 -3.941667e+02
      vertex   3.456018e+02 7.841488e+01 -3.941667e+02
    endloop
  endfacet
  facet normal 0.000000e+00 0.000000e+00 -1.000000e+00
    outer loop
      vertex   3.456018e+02 7.841488e+01 -3.941667e+02
      vertex   3.455070e+02 7.806132e+01 -3.941667e+02
      vertex   3.453947e+02 7.791488e+01 -3.941667e+02
    endloop
  endfacet
  facet normal 0.000000e+00 0.000000e+00 -1.000000e+00
    outer loop
      vertex   3.456018e+02 7.841488e+01 -3.941667e+02
      vertex   3.453947e+02 7.791488e+01 -3.941667e+02
      vertex   3.452482e+02 7.780250e+01 -3.941667e+02
    endloop
  endfacet
  facet normal -0.000000e+00 0.000000e+00 -1.000000e+00
    outer loop
      vertex   3.452482e+02 7.780250e+01 -3.941667e+02
      vertex   3.450777e+02 7.773186e+01 -3.941667e+02
      vertex   3.456018e+02 7.841488e+01 -3.941667e+02
    endloop
  endfacet
  facet normal 0.000000e+00 0.000000e+00 -1.000000e+00
    outer loop
      vertex   3.456018e+02 7.841488e+01 -3.941667e+02
      vertex   3.450777e+02 7.773186e+01 -3.941667e+02
      vertex   3.448947e+02 7.770777e+01 -3.941667e+02
    endloop
  endfacet
  facet normal 0.000000e+00 0.000000e+00 -1.000000e+00
    outer loop
      vertex   3.359553e+02 7.780250e+01 -3.941667e+02
      vertex   3.358089e+02 7.791488e+01 -3.941667e+02
      vertex   3.356018e+02 7.841488e+01 -3.941667e+02
    endloop
  endfacet
  facet normal 0.000000e+00 0.000000e+00 -1.000000e+00
    outer loop
      vertex   3.356018e+02 7.841488e+01 -3.941667e+02
      vertex   3.358089e+02 7.791488e+01 -3.941667e+02
      vertex   3.356965e+02 7.806132e+01 -3.941667e+02
    endloop
  endfacet
  facet normal 0.000000e+00 0.000000e+00 -1.000000e+00
    outer loop
      vertex   3.356018e+02 7.841488e+01 -3.941667e+02
      vertex   3.356965e+02 7.806132e+01 -3.941667e+02
      vertex   3.356259e+02 7.823186e+01 -3.941667e+02
    endloop
  endfacet
  facet normal -8.038873e-14 3.920755e-27 1.000000e+00
    outer loop
      vertex   3.356018e+02 7.841488e+01 -3.940667e+02
      vertex   3.363089e+02 9.310777e+01 -3.940667e+02
      vertex   3.356018e+02 9.240066e+01 -3.940667e+02
    endloop
  endfacet
  facet normal -3.455009e-13 2.651122e-13 1.000000e+00
    outer loop
      vertex   3.356018e+02 9.240066e+01 -3.940667e+02
      vertex   3.363089e+02 9.310777e+01 -3.940667e+02
      vertex   3.361259e+02 9.308367e+01 -3.940667e+02
    endloop
  endfacet
  facet normal 0.000000e+00 0.000000e+00 1.000000e+00
    outer loop
      vertex   3.356018e+02 9.240066e+01 -3.940667e+02
      vertex   3.361259e+02 9.308367e+01 -3.940667e+02
      vertex   3.359553e+02 9.301303e+01 -3.940667e+02
    endloop
  endfacet
  facet normal -0.000000e+00 -0.000000e+00 1.000000e+00
    outer loop
      vertex   3.356259e+02 7.823186e+01 -3.940667e+02
      vertex   3.356965e+02 7.806132e+01 -3.940667e+02
      vertex   3.356018e+02 7.841488e+01 -3.940667e+02
    endloop
  endfacet
  facet normal 0.000000e+00 0.000000e+00 1.000000e+00
    outer loop
      vertex   3.356018e+02 7.841488e+01 -3.940667e+02
      vertex   3.356965e+02 7.806132e+01 -3.940667e+02
      vertex   3.358089e+02 7.791488e+01 -3.940667e+02
    endloop
  endfacet
  facet normal 0.000000e+00 0.000000e+00 1.000000e+00
    outer loop
      vertex   3.356018e+02 7.841488e+01 -3.940667e+02
      vertex   3.358089e+02 7.791488e+01 -3.940667e+02
      vertex   3.359553e+02 7.780250e+01 -3.940667e+02
    endloop
  endfacet
  facet normal -0.000000e+00 -0.000000e+00 1.000000e+00
    outer loop
      vertex   3.359553e+02 7.780250e+01 -3.940667e+02
      vertex   3.361259e+02 7.773186e+01 -3.940667e+02
      vertex   3.356018e+02 7.841488e+01 -3.940667e+02
    endloop
  endfacet
  facet normal -3.455009e-13 -2.651122e-13 1.000000e+00
    outer loop
      vertex   3.356018e+02 7.841488e+01 -3.940667e+02
      vertex   3.361259e+02 7.773186e+01 -3.940667e+02
      vertex   3.363089e+02 7.770777e+01 -3.940667e+02
    endloop
  endfacet
  facet normal -8.038873e-14 3.857430e-27 1.000000e+00
    outer loop
      vertex   3.356018e+02 7.841488e+01 -3.940667e+02
      vertex   3.363089e+02 7.770777e+01 -3.940667e+02
      vertex   3.363089e+02 9.310777e+01 -3.940667e+02
    endloop
  endfacet
  facet normal -1.324128e-14 6.353791e-28 1.000000e+00
    outer loop
      vertex   3.363089e+02 9.310777e+01 -3.940667e+02
      vertex   3.363089e+02 7.770777e+01 -3.940667e+02
      vertex   3.448947e+02 9.310777e+01 -3.940667e+02
    endloop
  endfacet
  facet normal -1.324128e-14 6.353791e-28 1.000000e+00
    outer loop
      vertex   3.448947e+02 9.310777e+01 -3.940667e+02
      vertex   3.363089e+02 7.770777e+01 -3.940667e+02
      vertex   3.448947e+02 7.770777e+01 -3.940667e+02
    endloop
  endfacet
  facet normal 0.000000e+00 0.000000e+00 1.000000e+00
    outer loop
      vertex   3.448947e+02 9.310777e+01 -3.940667e+02
      vertex   3.448947e+02 7.770777e+01 -3.940667e+02
      vertex   3.456018e+02 9.240066e+01 -3.940667e+02
    endloop
  endfacet
  facet normal 0.000000e+00 0.000000e+00 1.000000e+00
    outer loop
      vertex   3.456018e+02 9.240066e+01 -3.940667e+02
      vertex   3.448947e+02 7.770777e+01 -3.940667e+02
      vertex   3.456018e+02 7.841488e+01 -3.940667e+02
    endloop
  endfacet
  facet normal 0.000000e+00 0.000000e+00 1.000000e+00
    outer loop
      vertex   3.456018e+02 7.841488e+01 -3.940667e+02
      vertex   3.448947e+02 7.770777e+01 -3.940667e+02
      vertex   3.450777e+02 7.773186e+01 -3.940667e+02
    endloop
  endfacet
  facet normal 0.000000e+00 0.000000e+00 1.000000e+00
    outer loop
      vertex   3.456018e+02 7.841488e+01 -3.940667e+02
      vertex   3.450777e+02 7.773186e+01 -3.940667e+02
      vertex   3.452482e+02 7.780250e+01 -3.940667e+02
    endloop
  endfacet
  facet normal 0.000000e+00 0.000000e+00 1.000000e+00
    outer loop
      vertex   3.452482e+02 7.780250e+01 -3.940667e+02
      vertex   3.453947e+02 7.791488e+01 -3.940667e+02
      vertex   3.456018e+02 7.841488e+01 -3.940667e+02
    endloop
  endfacet
  facet normal 0.000000e+00 0.000000e+00 1.000000e+00
    outer loop
      vertex   3.456018e+02 7.841488e+01 -3.940667e+02
      vertex   3.453947e+02 7.791488e+01 -3.940667e+02
      vertex   3.455070e+02 7.806132e+01 -3.940667e+02
    endloop
  endfacet
  facet normal 0.000000e+00 0.000000e+00 1.000000e+00
    outer loop
      vertex   3.456018e+02 7.841488e+01 -3.940667e+02
      vertex   3.455070e+02 7.806132e+01 -3.940667e+02
      vertex   3.455777e+02 7.823186e+01 -3.940667e+02
    endloop
  endfacet
  facet normal 0.000000e+00 0.000000e+00 1.000000e+00
    outer loop
      vertex   3.455777e+02 9.258367e+01 -3.940667e+02
      vertex   3.455070e+02 9.275421e+01 -3.940667e+02
      vertex   3.456018e+02 9.240066e+01 -3.940667e+02
    endloop
  endfacet
  facet normal 0.000000e+00 0.000000e+00 1.000000e+00
    outer loop
      vertex   3.456018e+02 9.240066e+01 -3.940667e+02
      vertex   3.455070e+02 9.275421e+01 -3.940667e+02
      vertex   3.453947e+02 9.290066e+01 -3.940667e+02
    endloop
  endfacet
  facet normal 0.000000e+00 0.000000e+00 1.000000e+00
    outer loop
      vertex   3.456018e+02 9.240066e+01 -3.940667e+02
      vertex   3.453947e+02 9.290066e+01 -3.940667e+02
      vertex   3.452482e+02 9.301303e+01 -3.940667e+02
    endloop
  endfacet
  facet normal 0.000000e+00 0.000000e+00 1.000000e+00
    outer loop
      vertex   3.452482e+02 9.301303e+01 -3.940667e+02
      vertex   3.450777e+02 9.308367e+01 -3.940667e+02
      vertex   3.456018e+02 9.240066e+01 -3.940667e+02
    endloop
  endfacet
  facet normal 0.000000e+00 0.000000e+00 1.000000e+00
    outer loop
      vertex   3.456018e+02 9.240066e+01 -3.940667e+02
      vertex   3.450777e+02 9.308367e+01 -3.940667e+02
      vertex   3.448947e+02 9.310777e+01 -3.940667e+02
    endloop
  endfacet
  facet normal 0.000000e+00 0.000000e+00 1.000000e+00
    outer loop
      vertex   3.359553e+02 9.301303e+01 -3.940667e+02
      vertex   3.358089e+02 9.290066e+01 -3.940667e+02
      vertex   3.356018e+02 9.240066e+01 -3.940667e+02
    endloop
  endfacet
  facet normal 0.000000e+00 0.000000e+00 1.000000e+00
    outer loop
      vertex   3.356018e+02 9.240066e+01 -3.940667e+02
      vertex   3.358089e+02 9.290066e+01 -3.940667e+02
      vertex   3.356965e+02 9.275421e+01 -3.940667e+02
    endloop
  endfacet
  facet normal 0.000000e+00 0.000000e+00 1.000000e+00
    outer loop
      vertex   3.356018e+02 9.240066e+01 -3.940667e+02
      vertex   3.356965e+02 9.275421e+01 -3.940667e+02
      vertex   3.356259e+02 9.258367e+01 -3.940667e+02
    endloop
  endfacet
  facet normal 1.854889e-14 1.305262e-01 -9.914449e-01
    outer loop
      vertex   4.070018e+02 7.049621e+01 -3.848667e+02
      vertex   4.069018e+02 7.049621e+01 -3.848667e+02
      vertex   4.070018e+02 7.067923e+01 -3.848426e+02
    endloop
  endfacet
  facet normal 1.854889e-14 1.305262e-01 -9.914449e-01
    outer loop
      vertex   4.070018e+02 7.067923e+01 -3.848426e+02
      vertex   4.069018e+02 7.049621e+01 -3.848667e+02
      vertex   4.069018e+02 7.067923e+01 -3.848426e+02
    endloop
  endfacet
  facet normal 5.438259e-14 3.826834e-01 -9.238795e-01
    outer loop
      vertex   4.070018e+02 7.067923e+01 -3.848426e+02
      vertex   4.069018e+02 7.067923e+01 -3.848426e+02
      vertex   4.070018e+02 7.084977e+01 -3.847719e+02
    endloop
  endfacet
  facet normal 5.438259e-14 3.826834e-01 -9.238795e-01
    outer loop
      vertex   4.070018e+02 7.084977e+01 -3.847719e+02
      vertex   4.069018e+02 7.067923e+01 -3.848426e+02
      vertex   4.069018e+02 7.084977e+01 -3.847719e+02
    endloop
  endfacet
  facet normal 8.651020e-14 6.087614e-01 -7.933533e-01
    outer loop
      vertex   4.070018e+02 7.084977e+01 -3.847719e+02
      vertex   4.069018e+02 7.084977e+01 -3.847719e+02
      vertex   4.070018e+02 7.099621e+01 -3.846596e+02
    endloop
  endfacet
  facet normal 8.651020e-14 6.087614e-01 -7.933533e-01
    outer loop
      vertex   4.070018e+02 7.099621e+01 -3.846596e+02
      vertex   4.069018e+02 7.084977e+01 -3.847719e+02
      vertex   4.069018e+02 7.099621e+01 -3.846596e+02
    endloop
  endfacet
  facet normal 1.127423e-13 7.933533e-01 -6.087614e-01
    outer loop
      vertex   4.070018e+02 7.099621e+01 -3.846596e+02
      vertex   4.069018e+02 7.099621e+01 -3.846596e+02
      vertex   4.070018e+02 7.110859e+01 -3.845131e+02
    endloop
  endfacet
  facet normal 1.127423e-13 7.933533e-01 -6.087614e-01
    outer loop
      vertex   4.070018e+02 7.110859e+01 -3.845131e+02
      vertex   4.069018e+02 7.099621e+01 -3.846596e+02
      vertex   4.069018e+02 7.110859e+01 -3.845131e+02
    endloop
  endfacet
  facet normal 1.312912e-13 9.238795e-01 -3.826834e-01
    outer loop
      vertex   4.070018e+02 7.110859e+01 -3.845131e+02
      vertex   4.069018e+02 7.110859e+01 -3.845131e+02
      vertex   4.070018e+02 7.117923e+01 -3.843426e+02
    endloop
  endfacet
  facet normal 1.312912e-13 9.238795e-01 -3.826834e-01
    outer loop
      vertex   4.070018e+02 7.117923e+01 -3.843426e+02
      vertex   4.069018e+02 7.110859e+01 -3.845131e+02
      vertex   4.069018e+02 7.117923e+01 -3.843426e+02
    endloop
  endfacet
  facet normal 1.408928e-13 9.914449e-01 -1.305262e-01
    outer loop
      vertex   4.070018e+02 7.117923e+01 -3.843426e+02
      vertex   4.069018e+02 7.117923e+01 -3.843426e+02
      vertex   4.070018e+02 7.120332e+01 -3.841596e+02
    endloop
  endfacet
  facet normal 1.408928e-13 9.914449e-01 -1.305262e-01
    outer loop
      vertex   4.070018e+02 7.120332e+01 -3.841596e+02
      vertex   4.069018e+02 7.117923e+01 -3.843426e+02
      vertex   4.069018e+02 7.120332e+01 -3.841596e+02
    endloop
  endfacet
  facet normal 0.000000e+00 -1.390335e-13 -1.000000e+00
    outer loop
      vertex   4.069018e+02 6.191043e+01 -3.848667e+02
      vertex   4.069018e+02 7.049621e+01 -3.848667e+02
      vertex   4.070018e+02 6.191043e+01 -3.848667e+02
    endloop
  endfacet
  facet normal -2.069870e-26 -1.390335e-13 -1.000000e+00
    outer loop
      vertex   4.070018e+02 6.191043e+01 -3.848667e+02
      vertex   4.069018e+02 7.049621e+01 -3.848667e+02
      vertex   4.070018e+02 7.049621e+01 -3.848667e+02
    endloop
  endfacet
  facet normal -7.044639e-14 -9.914449e-01 -1.305262e-01
    outer loop
      vertex   4.070018e+02 6.120332e+01 -3.841596e+02
      vertex   4.069018e+02 6.120332e+01 -3.841596e+02
      vertex   4.070018e+02 6.122742e+01 -3.843426e+02
    endloop
  endfacet
  facet normal -7.044639e-14 -9.914449e-01 -1.305262e-01
    outer loop
      vertex   4.070018e+02 6.122742e+01 -3.843426e+02
      vertex   4.069018e+02 6.120332e+01 -3.841596e+02
      vertex   4.069018e+02 6.122742e+01 -3.843426e+02
    endloop
  endfacet
  facet normal -6.564559e-14 -9.238795e-01 -3.826834e-01
    outer loop
      vertex   4.070018e+02 6.122742e+01 -3.843426e+02
      vertex   4.069018e+02 6.122742e+01 -3.843426e+02
      vertex   4.070018e+02 6.129806e+01 -3.845131e+02
    endloop
  endfacet
  facet normal -0.000000e+00 -9.238795e-01 -3.826834e-01
    outer loop
      vertex   4.070018e+02 6.129806e+01 -3.845131e+02
      vertex   4.069018e+02 6.122742e+01 -3.843426e+02
      vertex   4.069018e+02 6.129806e+01 -3.845131e+02
    endloop
  endfacet
  facet normal -0.000000e+00 -7.933533e-01 -6.087614e-01
    outer loop
      vertex   4.070018e+02 6.129806e+01 -3.845131e+02
      vertex   4.069018e+02 6.129806e+01 -3.845131e+02
      vertex   4.070018e+02 6.141043e+01 -3.846596e+02
    endloop
  endfacet
  facet normal -0.000000e+00 -7.933533e-01 -6.087614e-01
    outer loop
      vertex   4.070018e+02 6.141043e+01 -3.846596e+02
      vertex   4.069018e+02 6.129806e+01 -3.845131e+02
      vertex   4.069018e+02 6.141043e+01 -3.846596e+02
    endloop
  endfacet
  facet normal -0.000000e+00 -6.087614e-01 -7.933533e-01
    outer loop
      vertex   4.070018e+02 6.141043e+01 -3.846596e+02
      vertex   4.069018e+02 6.141043e+01 -3.846596e+02
      vertex   4.070018e+02 6.155687e+01 -3.847719e+02
    endloop
  endfacet
  facet normal -0.000000e+00 -6.087614e-01 -7.933533e-01
    outer loop
      vertex   4.070018e+02 6.155687e+01 -3.847719e+02
      vertex   4.069018e+02 6.141043e+01 -3.846596e+02
      vertex   4.069018e+02 6.155687e+01 -3.847719e+02
    endloop
  endfacet
  facet normal -0.000000e+00 -3.826834e-01 -9.238795e-01
    outer loop
      vertex   4.070018e+02 6.155687e+01 -3.847719e+02
      vertex   4.069018e+02 6.155687e+01 -3.847719e+02
      vertex   4.070018e+02 6.172742e+01 -3.848426e+02
    endloop
  endfacet
  facet normal -5.438259e-14 -3.826834e-01 -9.238795e-01
    outer loop
      vertex   4.070018e+02 6.172742e+01 -3.848426e+02
      vertex   4.069018e+02 6.155687e+01 -3.847719e+02
      vertex   4.069018e+02 6.172742e+01 -3.848426e+02
    endloop
  endfacet
  facet normal -1.854889e-14 -1.305262e-01 -9.914449e-01
    outer loop
      vertex   4.070018e+02 6.172742e+01 -3.848426e+02
      vertex   4.069018e+02 6.172742e+01 -3.848426e+02
      vertex   4.070018e+02 6.191043e+01 -3.848667e+02
    endloop
  endfacet
  facet normal -0.000000e+00 -1.305262e-01 -9.914449e-01
    outer loop
      vertex   4.070018e+02 6.191043e+01 -3.848667e+02
      vertex   4.069018e+02 6.172742e+01 -3.848426e+02
      vertex   4.069018e+02 6.191043e+01 -3.848667e+02
    endloop
  endfacet
  facet normal -7.105427e-14 -1.000000e+00 1.397127e-13
    outer loop
      vertex   4.069018e+02 6.120332e+01 -3.701738e+02
      vertex   4.069018e+02 6.120332e+01 -3.841596e+02
      vertex   4.070018e+02 6.120332e+01 -3.701738e+02
    endloop
  endfacet
  facet normal -7.105427e-14 -1.000000e+00 1.397127e-13
    outer loop
      vertex   4.070018e+02 6.120332e+01 -3.701738e+02
      vertex   4.069018e+02 6.120332e+01 -3.841596e+02
      vertex   4.070018e+02 6.120332e+01 -3.841596e+02
    endloop
  endfacet
  facet normal 0.000000e+00 -1.305262e-01 9.914449e-01
    outer loop
      vertex   4.070018e+02 6.191043e+01 -3.694667e+02
      vertex   4.069018e+02 6.191043e+01 -3.694667e+02
      vertex   4.070018e+02 6.172742e+01 -3.694908e+02
    endloop
  endfacet
  facet normal -9.274444e-15 -1.305262e-01 9.914449e-01
    outer loop
      vertex   4.070018e+02 6.172742e+01 -3.694908e+02
      vertex   4.069018e+02 6.191043e+01 -3.694667e+02
      vertex   4.069018e+02 6.172742e+01 -3.694908e+02
    endloop
  endfacet
  facet normal -2.719129e-14 -3.826834e-01 9.238795e-01
    outer loop
      vertex   4.070018e+02 6.172742e+01 -3.694908e+02
      vertex   4.069018e+02 6.172742e+01 -3.694908e+02
      vertex   4.070018e+02 6.155687e+01 -3.695614e+02
    endloop
  endfacet
  facet normal -2.719129e-14 -3.826834e-01 9.238795e-01
    outer loop
      vertex   4.070018e+02 6.155687e+01 -3.695614e+02
      vertex   4.069018e+02 6.172742e+01 -3.694908e+02
      vertex   4.069018e+02 6.155687e+01 -3.695614e+02
    endloop
  endfacet
  facet normal -4.325510e-14 -6.087614e-01 7.933533e-01
    outer loop
      vertex   4.070018e+02 6.155687e+01 -3.695614e+02
      vertex   4.069018e+02 6.155687e+01 -3.695614e+02
      vertex   4.070018e+02 6.141043e+01 -3.696738e+02
    endloop
  endfacet
  facet normal -8.651020e-14 -6.087614e-01 7.933533e-01
    outer loop
      vertex   4.070018e+02 6.141043e+01 -3.696738e+02
      vertex   4.069018e+02 6.155687e+01 -3.695614e+02
      vertex   4.069018e+02 6.141043e+01 -3.696738e+02
    endloop
  endfacet
  facet normal -1.127423e-13 -7.933533e-01 6.087614e-01
    outer loop
      vertex   4.070018e+02 6.141043e+01 -3.696738e+02
      vertex   4.069018e+02 6.141043e+01 -3.696738e+02
      vertex   4.070018e+02 6.129806e+01 -3.698202e+02
    endloop
  endfacet
  facet normal -5.637115e-14 -7.933533e-01 6.087614e-01
    outer loop
      vertex   4.070018e+02 6.129806e+01 -3.698202e+02
      vertex   4.069018e+02 6.141043e+01 -3.696738e+02
      vertex   4.069018e+02 6.129806e+01 -3.698202e+02
    endloop
  endfacet
  facet normal -6.564559e-14 -9.238795e-01 3.826834e-01
    outer loop
      vertex   4.070018e+02 6.129806e+01 -3.698202e+02
      vertex   4.069018e+02 6.129806e+01 -3.698202e+02
      vertex   4.070018e+02 6.122742e+01 -3.699908e+02
    endloop
  endfacet
  facet normal -6.564559e-14 -9.238795e-01 3.826834e-01
    outer loop
      vertex   4.070018e+02 6.122742e+01 -3.699908e+02
      vertex   4.069018e+02 6.129806e+01 -3.698202e+02
      vertex   4.069018e+02 6.122742e+01 -3.699908e+02
    endloop
  endfacet
  facet normal -7.044639e-14 -9.914449e-01 1.305262e-01
    outer loop
      vertex   4.070018e+02 6.122742e+01 -3.699908e+02
      vertex   4.069018e+02 6.122742e+01 -3.699908e+02
      vertex   4.070018e+02 6.120332e+01 -3.701738e+02
    endloop
  endfacet
  facet normal -7.044639e-14 -9.914449e-01 1.305262e-01
    outer loop
      vertex   4.070018e+02 6.120332e+01 -3.701738e+02
      vertex   4.069018e+02 6.122742e+01 -3.699908e+02
      vertex   4.069018e+02 6.120332e+01 -3.701738e+02
    endloop
  endfacet
  facet normal -0.000000e+00 1.390335e-13 1.000000e+00
    outer loop
      vertex   4.069018e+02 7.049621e+01 -3.694667e+02
      vertex   4.069018e+02 6.191043e+01 -3.694667e+02
      vertex   4.070018e+02 7.049621e+01 -3.694667e+02
    endloop
  endfacet
  facet normal 0.000000e+00 1.390335e-13 1.000000e+00
    outer loop
      vertex   4.070018e+02 7.049621e+01 -3.694667e+02
      vertex   4.069018e+02 6.191043e+01 -3.694667e+02
      vertex   4.070018e+02 6.191043e+01 -3.694667e+02
    endloop
  endfacet
  facet normal 1.408928e-13 9.914449e-01 1.305262e-01
    outer loop
      vertex   4.070018e+02 7.120332e+01 -3.701738e+02
      vertex   4.069018e+02 7.120332e+01 -3.701738e+02
      vertex   4.070018e+02 7.117923e+01 -3.699908e+02
    endloop
  endfacet
  facet normal 1.408928e-13 9.914449e-01 1.305262e-01
    outer loop
      vertex   4.070018e+02 7.117923e+01 -3.699908e+02
      vertex   4.069018e+02 7.120332e+01 -3.701738e+02
      vertex   4.069018e+02 7.117923e+01 -3.699908e+02
    endloop
  endfacet
  facet normal 1.312912e-13 9.238795e-01 3.826834e-01
    outer loop
      vertex   4.070018e+02 7.117923e+01 -3.699908e+02
      vertex   4.069018e+02 7.117923e+01 -3.699908e+02
      vertex   4.070018e+02 7.110859e+01 -3.698202e+02
    endloop
  endfacet
  facet normal 0.000000e+00 9.238795e-01 3.826834e-01
    outer loop
      vertex   4.070018e+02 7.110859e+01 -3.698202e+02
      vertex   4.069018e+02 7.117923e+01 -3.699908e+02
      vertex   4.069018e+02 7.110859e+01 -3.698202e+02
    endloop
  endfacet
  facet normal 0.000000e+00 7.933533e-01 6.087614e-01
    outer loop
      vertex   4.070018e+02 7.110859e+01 -3.698202e+02
      vertex   4.069018e+02 7.110859e+01 -3.698202e+02
      vertex   4.070018e+02 7.099621e+01 -3.696738e+02
    endloop
  endfacet
  facet normal 0.000000e+00 7.933533e-01 6.087614e-01
    outer loop
      vertex   4.070018e+02 7.099621e+01 -3.696738e+02
      vertex   4.069018e+02 7.110859e+01 -3.698202e+02
      vertex   4.069018e+02 7.099621e+01 -3.696738e+02
    endloop
  endfacet
  facet normal 0.000000e+00 6.087614e-01 7.933533e-01
    outer loop
      vertex   4.070018e+02 7.099621e+01 -3.696738e+02
      vertex   4.069018e+02 7.099621e+01 -3.696738e+02
      vertex   4.070018e+02 7.084977e+01 -3.695614e+02
    endloop
  endfacet
  facet normal 0.000000e+00 6.087614e-01 7.933533e-01
    outer loop
      vertex   4.070018e+02 7.084977e+01 -3.695614e+02
      vertex   4.069018e+02 7.099621e+01 -3.696738e+02
      vertex   4.069018e+02 7.084977e+01 -3.695614e+02
    endloop
  endfacet
  facet normal 0.000000e+00 3.826834e-01 9.238795e-01
    outer loop
      vertex   4.070018e+02 7.084977e+01 -3.695614e+02
      vertex   4.069018e+02 7.084977e+01 -3.695614e+02
      vertex   4.070018e+02 7.067923e+01 -3.694908e+02
    endloop
  endfacet
  facet normal 5.438259e-14 3.826834e-01 9.238795e-01
    outer loop
      vertex   4.070018e+02 7.067923e+01 -3.694908e+02
      vertex   4.069018e+02 7.084977e+01 -3.695614e+02
      vertex   4.069018e+02 7.067923e+01 -3.694908e+02
    endloop
  endfacet
  facet normal 1.854889e-14 1.305262e-01 9.914449e-01
    outer loop
      vertex   4.070018e+02 7.067923e+01 -3.694908e+02
      vertex   4.069018e+02 7.067923e+01 -3.694908e+02
      vertex   4.070018e+02 7.049621e+01 -3.694667e+02
    endloop
  endfacet
  facet normal 0.000000e+00 1.305262e-01 9.914449e-01
    outer loop
      vertex   4.070018e+02 7.049621e+01 -3.694667e+02
      vertex   4.069018e+02 7.067923e+01 -3.694908e+02
      vertex   4.069018e+02 7.049621e+01 -3.694667e+02
    endloop
  endfacet
  facet normal 1.421085e-13 1.000000e+00 -1.402208e-13
    outer loop
      vertex   4.069018e+02 7.120332e+01 -3.841596e+02
      vertex   4.069018e+02 7.120332e+01 -3.701738e+02
      vertex   4.070018e+02 7.120332e+01 -3.841596e+02
    endloop
  endfacet
  facet normal 1.421085e-13 1.000000e+00 -1.402208e-13
    outer loop
      vertex   4.070018e+02 7.120332e+01 -3.841596e+02
      vertex   4.069018e+02 7.120332e+01 -3.701738e+02
      vertex   4.070018e+02 7.120332e+01 -3.701738e+02
    endloop
  endfacet
  facet normal 1.000000e+00 -8.038873e-14 1.127217e-26
    outer loop
      vertex   4.070018e+02 7.120332e+01 -3.701738e+02
      vertex   4.070018e+02 7.049621e+01 -3.848667e+02
      vertex   4.070018e+02 7.120332e+01 -3.841596e+02
    endloop
  endfacet
  facet normal 1.000000e+00 -3.455009e-13 2.651122e-13
    outer loop
      vertex   4.070018e+02 7.120332e+01 -3.841596e+02
      vertex   4.070018e+02 7.049621e+01 -3.848667e+02
      vertex   4.070018e+02 7.067923e+01 -3.848426e+02
    endloop
  endfacet
  facet normal 1.000000e+00 0.000000e+00 0.000000e+00
    outer loop
      vertex   4.070018e+02 7.120332e+01 -3.841596e+02
      vertex   4.070018e+02 7.067923e+01 -3.848426e+02
      vertex   4.070018e+02 7.084977e+01 -3.847719e+02
    endloop
  endfacet
  facet normal 1.000000e+00 0.000000e+00 0.000000e+00
    outer loop
      vertex   4.070018e+02 7.117923e+01 -3.699908e+02
      vertex   4.070018e+02 7.110859e+01 -3.698202e+02
      vertex   4.070018e+02 7.120332e+01 -3.701738e+02
    endloop
  endfacet
  facet normal 1.000000e+00 0.000000e+00 0.000000e+00
    outer loop
      vertex   4.070018e+02 7.120332e+01 -3.701738e+02
      vertex   4.070018e+02 7.110859e+01 -3.698202e+02
      vertex   4.070018e+02 7.099621e+01 -3.696738e+02
    endloop
  endfacet
  facet normal 1.000000e+00 0.000000e+00 0.000000e+00
    outer loop
      vertex   4.070018e+02 7.120332e+01 -3.701738e+02
      vertex   4.070018e+02 7.099621e+01 -3.696738e+02
      vertex   4.070018e+02 7.084977e+01 -3.695614e+02
    endloop
  endfacet
  facet normal 1.000000e+00 -4.380776e-13 -2.529242e-13
    outer loop
      vertex   4.070018e+02 7.084977e+01 -3.695614e+02
      vertex   4.070018e+02 7.067923e+01 -3.694908e+02
      vertex   4.070018e+02 7.120332e+01 -3.701738e+02
    endloop
  endfacet
  facet normal 1.000000e+00 1.218795e-14 9.257669e-14
    outer loop
      vertex   4.070018e+02 7.120332e+01 -3.701738e+02
      vertex   4.070018e+02 7.067923e+01 -3.694908e+02
      vertex   4.070018e+02 7.049621e+01 -3.694667e+02
    endloop
  endfacet
  facet normal 1.000000e+00 -8.038873e-14 1.127556e-26
    outer loop
      vertex   4.070018e+02 7.120332e+01 -3.701738e+02
      vertex   4.070018e+02 7.049621e+01 -3.694667e+02
      vertex   4.070018e+02 7.049621e+01 -3.848667e+02
    endloop
  endfacet
  facet normal 1.000000e+00 -5.958578e-14 8.357679e-27
    outer loop
      vertex   4.070018e+02 7.049621e+01 -3.848667e+02
      vertex   4.070018e+02 7.049621e+01 -3.694667e+02
      vertex   4.070018e+02 6.191043e+01 -3.848667e+02
    endloop
  endfacet
  facet normal 1.000000e+00 -5.958578e-14 8.330187e-27
    outer loop
      vertex   4.070018e+02 6.191043e+01 -3.848667e+02
      vertex   4.070018e+02 7.049621e+01 -3.694667e+02
      vertex   4.070018e+02 6.191043e+01 -3.694667e+02
    endloop
  endfacet
  facet normal 1.000000e+00 -8.038873e-14 1.123847e-26
    outer loop
      vertex   4.070018e+02 6.191043e+01 -3.848667e+02
      vertex   4.070018e+02 6.191043e+01 -3.694667e+02
      vertex   4.070018e+02 6.120332e+01 -3.841596e+02
    endloop
  endfacet
  facet normal 1.000000e+00 -8.038873e-14 1.123133e-26
    outer loop
      vertex   4.070018e+02 6.120332e+01 -3.841596e+02
      vertex   4.070018e+02 6.191043e+01 -3.694667e+02
      vertex   4.070018e+02 6.120332e+01 -3.701738e+02
    endloop
  endfacet
  facet normal 1.000000e+00 1.218795e-14 -9.257669e-14
    outer loop
      vertex   4.070018e+02 6.120332e+01 -3.701738e+02
      vertex   4.070018e+02 6.191043e+01 -3.694667e+02
      vertex   4.070018e+02 6.172742e+01 -3.694908e+02
    endloop
  endfacet
  facet normal 1.000000e+00 -4.380776e-13 2.529242e-13
    outer loop
      vertex   4.070018e+02 6.120332e+01 -3.701738e+02
      vertex   4.070018e+02 6.172742e+01 -3.694908e+02
      vertex   4.070018e+02 6.155687e+01 -3.695614e+02
    endloop
  endfacet
  facet normal 1.000000e+00 0.000000e+00 0.000000e+00
    outer loop
      vertex   4.070018e+02 6.155687e+01 -3.695614e+02
      vertex   4.070018e+02 6.141043e+01 -3.696738e+02
      vertex   4.070018e+02 6.120332e+01 -3.701738e+02
    endloop
  endfacet
  facet normal 1.000000e+00 0.000000e+00 0.000000e+00
    outer loop
      vertex   4.070018e+02 6.120332e+01 -3.701738e+02
      vertex   4.070018e+02 6.141043e+01 -3.696738e+02
      vertex   4.070018e+02 6.129806e+01 -3.698202e+02
    endloop
  endfacet
  facet normal 1.000000e+00 0.000000e+00 0.000000e+00
    outer loop
      vertex   4.070018e+02 6.120332e+01 -3.701738e+02
      vertex   4.070018e+02 6.129806e+01 -3.698202e+02
      vertex   4.070018e+02 6.122742e+01 -3.699908e+02
    endloop
  endfacet
  facet normal 1.000000e+00 -0.000000e+00 -0.000000e+00
    outer loop
      vertex   4.070018e+02 6.122742e+01 -3.843426e+02
      vertex   4.070018e+02 6.129806e+01 -3.845131e+02
      vertex   4.070018e+02 6.120332e+01 -3.841596e+02
    endloop
  endfacet
  facet normal 1.000000e+00 0.000000e+00 0.000000e+00
    outer loop
      vertex   4.070018e+02 6.120332e+01 -3.841596e+02
      vertex   4.070018e+02 6.129806e+01 -3.845131e+02
      vertex   4.070018e+02 6.141043e+01 -3.846596e+02
    endloop
  endfacet
  facet normal 1.000000e+00 -5.690008e-13 -2.356878e-13
    outer loop
      vertex   4.070018e+02 6.120332e+01 -3.841596e+02
      vertex   4.070018e+02 6.141043e+01 -3.846596e+02
      vertex   4.070018e+02 6.155687e+01 -3.847719e+02
    endloop
  endfacet
  facet normal 1.000000e+00 5.053447e-14 1.220010e-13
    outer loop
      vertex   4.070018e+02 6.155687e+01 -3.847719e+02
      vertex   4.070018e+02 6.172742e+01 -3.848426e+02
      vertex   4.070018e+02 6.120332e+01 -3.841596e+02
    endloop
  endfacet
  facet normal 1.000000e+00 1.218795e-14 9.257669e-14
    outer loop
      vertex   4.070018e+02 6.120332e+01 -3.841596e+02
      vertex   4.070018e+02 6.172742e+01 -3.848426e+02
      vertex   4.070018e+02 6.191043e+01 -3.848667e+02
    endloop
  endfacet
  facet normal 1.000000e+00 0.000000e+00 0.000000e+00
    outer loop
      vertex   4.070018e+02 7.084977e+01 -3.847719e+02
      vertex   4.070018e+02 7.099621e+01 -3.846596e+02
      vertex   4.070018e+02 7.120332e+01 -3.841596e+02
    endloop
  endfacet
  facet normal 1.000000e+00 0.000000e+00 0.000000e+00
    outer loop
      vertex   4.070018e+02 7.120332e+01 -3.841596e+02
      vertex   4.070018e+02 7.099621e+01 -3.846596e+02
      vertex   4.070018e+02 7.110859e+01 -3.845131e+02
    endloop
  endfacet
  facet normal 1.000000e+00 0.000000e+00 0.000000e+00
    outer loop
      vertex   4.070018e+02 7.120332e+01 -3.841596e+02
      vertex   4.070018e+02 7.110859e+01 -3.845131e+02
      vertex   4.070018e+02 7.117923e+01 -3.843426e+02
    endloop
  endfacet
  facet normal -1.000000e+00 7.632436e-14 -4.064371e-15
    outer loop
      vertex   4.069018e+02 7.120332e+01 -3.841596e+02
      vertex   4.069018e+02 7.049621e+01 -3.694667e+02
      vertex   4.069018e+02 7.120332e+01 -3.701738e+02
    endloop
  endfacet
  facet normal -1.000000e+00 3.455009e-13 2.651122e-13
    outer loop
      vertex   4.069018e+02 7.120332e+01 -3.701738e+02
      vertex   4.069018e+02 7.049621e+01 -3.694667e+02
      vertex   4.069018e+02 7.067923e+01 -3.694908e+02
    endloop
  endfacet
  facet normal -1.000000e+00 0.000000e+00 0.000000e+00
    outer loop
      vertex   4.069018e+02 7.120332e+01 -3.701738e+02
      vertex   4.069018e+02 7.067923e+01 -3.694908e+02
      vertex   4.069018e+02 7.084977e+01 -3.695614e+02
    endloop
  endfacet
  facet normal -1.000000e+00 1.179614e-12 -1.552991e-13
    outer loop
      vertex   4.069018e+02 7.117923e+01 -3.843426e+02
      vertex   4.069018e+02 7.110859e+01 -3.845131e+02
      vertex   4.069018e+02 7.120332e+01 -3.841596e+02
    endloop
  endfacet
  facet normal -1.000000e+00 -3.219556e-13 2.470452e-13
    outer loop
      vertex   4.069018e+02 7.120332e+01 -3.841596e+02
      vertex   4.069018e+02 7.110859e+01 -3.845131e+02
      vertex   4.069018e+02 7.099621e+01 -3.846596e+02
    endloop
  endfacet
  facet normal -1.000000e+00 -1.278800e-13 1.666565e-13
    outer loop
      vertex   4.069018e+02 7.120332e+01 -3.841596e+02
      vertex   4.069018e+02 7.099621e+01 -3.846596e+02
      vertex   4.069018e+02 7.084977e+01 -3.847719e+02
    endloop
  endfacet
  facet normal -1.000000e+00 -5.053447e-14 1.220010e-13
    outer loop
      vertex   4.069018e+02 7.084977e+01 -3.847719e+02
      vertex   4.069018e+02 7.067923e+01 -3.848426e+02
      vertex   4.069018e+02 7.120332e+01 -3.841596e+02
    endloop
  endfacet
  facet normal -1.000000e+00 -1.218795e-14 9.257669e-14
    outer loop
      vertex   4.069018e+02 7.120332e+01 -3.841596e+02
      vertex   4.069018e+02 7.067923e+01 -3.848426e+02
      vertex   4.069018e+02 7.049621e+01 -3.848667e+02
    endloop
  endfacet
  facet normal -1.000000e+00 8.407986e-14 -3.691131e-15
    outer loop
      vertex   4.069018e+02 7.120332e+01 -3.841596e+02
      vertex   4.069018e+02 7.049621e+01 -3.848667e+02
      vertex   4.069018e+02 7.049621e+01 -3.694667e+02
    endloop
  endfacet
  facet normal -1.000000e+00 5.958578e-14 -3.691131e-15
    outer loop
      vertex   4.069018e+02 7.049621e+01 -3.694667e+02
      vertex   4.069018e+02 7.049621e+01 -3.848667e+02
      vertex   4.069018e+02 6.191043e+01 -3.694667e+02
    endloop
  endfacet
  facet normal -1.000000e+00 6.620642e-14 -9.255763e-27
    outer loop
      vertex   4.069018e+02 6.191043e+01 -3.694667e+02
      vertex   4.069018e+02 7.049621e+01 -3.848667e+02
      vertex   4.069018e+02 6.191043e+01 -3.848667e+02
    endloop
  endfacet
  facet normal -1.000000e+00 8.038873e-14 -1.123847e-26
    outer loop
      vertex   4.069018e+02 6.191043e+01 -3.694667e+02
      vertex   4.069018e+02 6.191043e+01 -3.848667e+02
      vertex   4.069018e+02 6.120332e+01 -3.701738e+02
    endloop
  endfacet
  facet normal -1.000000e+00 8.038873e-14 -1.123133e-26
    outer loop
      vertex   4.069018e+02 6.120332e+01 -3.701738e+02
      vertex   4.069018e+02 6.191043e+01 -3.848667e+02
      vertex   4.069018e+02 6.120332e+01 -3.841596e+02
    endloop
  endfacet
  facet normal -1.000000e+00 -1.218795e-14 -9.257669e-14
    outer loop
      vertex   4.069018e+02 6.120332e+01 -3.841596e+02
      vertex   4.069018e+02 6.191043e+01 -3.848667e+02
      vertex   4.069018e+02 6.172742e+01 -3.848426e+02
    endloop
  endfacet
  facet normal -1.000000e+00 -5.053447e-14 -1.220010e-13
    outer loop
      vertex   4.069018e+02 6.120332e+01 -3.841596e+02
      vertex   4.069018e+02 6.172742e+01 -3.848426e+02
      vertex   4.069018e+02 6.155687e+01 -3.847719e+02
    endloop
  endfacet
  facet normal -1.000000e+00 -1.278800e-13 -1.666565e-13
    outer loop
      vertex   4.069018e+02 6.155687e+01 -3.847719e+02
      vertex   4.069018e+02 6.141043e+01 -3.846596e+02
      vertex   4.069018e+02 6.120332e+01 -3.841596e+02
    endloop
  endfacet
  facet normal -1.000000e+00 -3.219556e-13 -2.470452e-13
    outer loop
      vertex   4.069018e+02 6.120332e+01 -3.841596e+02
      vertex   4.069018e+02 6.141043e+01 -3.846596e+02
      vertex   4.069018e+02 6.129806e+01 -3.845131e+02
    endloop
  endfacet
  facet normal -1.000000e+00 1.179614e-12 1.552991e-13
    outer loop
      vertex   4.069018e+02 6.120332e+01 -3.841596e+02
      vertex   4.069018e+02 6.129806e+01 -3.845131e+02
      vertex   4.069018e+02 6.122742e+01 -3.843426e+02
    endloop
  endfacet
  facet normal -1.000000e+00 0.000000e+00 -0.000000e+00
    outer loop
      vertex   4.069018e+02 6.122742e+01 -3.699908e+02
      vertex   4.069018e+02 6.129806e+01 -3.698202e+02
      vertex   4.069018e+02 6.120332e+01 -3.701738e+02
    endloop
  endfacet
  facet normal -1.000000e+00 7.772695e-13 -2.082687e-13
    outer loop
      vertex   4.069018e+02 6.120332e+01 -3.701738e+02
      vertex   4.069018e+02 6.129806e+01 -3.698202e+02
      vertex   4.069018e+02 6.141043e+01 -3.696738e+02
    endloop
  endfacet
  facet normal -1.000000e+00 -1.278800e-13 1.666565e-13
    outer loop
      vertex   4.069018e+02 6.120332e+01 -3.701738e+02
      vertex   4.069018e+02 6.141043e+01 -3.696738e+02
      vertex   4.069018e+02 6.155687e+01 -3.695614e+02
    endloop
  endfacet
  facet normal -1.000000e+00 -5.053447e-14 1.220010e-13
    outer loop
      vertex   4.069018e+02 6.155687e+01 -3.695614e+02
      vertex   4.069018e+02 6.172742e+01 -3.694908e+02
      vertex   4.069018e+02 6.120332e+01 -3.701738e+02
    endloop
  endfacet
  facet normal -1.000000e+00 -1.218795e-14 9.257669e-14
    outer loop
      vertex   4.069018e+02 6.120332e+01 -3.701738e+02
      vertex   4.069018e+02 6.172742e+01 -3.694908e+02
      vertex   4.069018e+02 6.191043e+01 -3.694667e+02
    endloop
  endfacet
  facet normal -1.000000e+00 0.000000e+00 0.000000e+00
    outer loop
      vertex   4.069018e+02 7.084977e+01 -3.695614e+02
      vertex   4.069018e+02 7.099621e+01 -3.696738e+02
      vertex   4.069018e+02 7.120332e+01 -3.701738e+02
    endloop
  endfacet
  facet normal -1.000000e+00 0.000000e+00 0.000000e+00
    outer loop
      vertex   4.069018e+02 7.120332e+01 -3.701738e+02
      vertex   4.069018e+02 7.099621e+01 -3.696738e+02
      vertex   4.069018e+02 7.110859e+01 -3.698202e+02
    endloop
  endfacet
  facet normal -1.000000e+00 0.000000e+00 0.000000e+00
    outer loop
      vertex   4.069018e+02 7.120332e+01 -3.701738e+02
      vertex   4.069018e+02 7.110859e+01 -3.698202e+02
      vertex   4.069018e+02 7.117923e+01 -3.699908e+02
    endloop
  endfacet
endsolid
