solid ASCII
  facet normal -9.914449e-01 1.305262e-01 0.000000e+00
    outer loop
      vertex   3.229473e+02 8.499366e+01 -3.517667e+02
      vertex   3.229473e+02 8.499366e+01 -3.511667e+02
      vertex   3.230018e+02 8.540777e+01 -3.517667e+02
    endloop
  endfacet
  facet normal -9.914449e-01 1.305262e-01 0.000000e+00
    outer loop
      vertex   3.230018e+02 8.540777e+01 -3.517667e+02
      vertex   3.229473e+02 8.499366e+01 -3.511667e+02
      vertex   3.230018e+02 8.540777e+01 -3.511667e+02
    endloop
  endfacet
  facet normal -9.914449e-01 -1.305262e-01 0.000000e+00
    outer loop
      vertex   3.230018e+02 8.540777e+01 -3.517667e+02
      vertex   3.230018e+02 8.540777e+01 -3.511667e+02
      vertex   3.229473e+02 8.582188e+01 -3.517667e+02
    endloop
  endfacet
  facet normal -9.914449e-01 -1.305262e-01 0.000000e+00
    outer loop
      vertex   3.229473e+02 8.582188e+01 -3.517667e+02
      vertex   3.230018e+02 8.540777e+01 -3.511667e+02
      vertex   3.229473e+02 8.582188e+01 -3.511667e+02
    endloop
  endfacet
  facet normal -9.238795e-01 -3.826834e-01 0.000000e+00
    outer loop
      vertex   3.229473e+02 8.582188e+01 -3.517667e+02
      vertex   3.229473e+02 8.582188e+01 -3.511667e+02
      vertex   3.227874e+02 8.620777e+01 -3.517667e+02
    endloop
  endfacet
  facet normal -9.238795e-01 -3.826834e-01 0.000000e+00
    outer loop
      vertex   3.227874e+02 8.620777e+01 -3.517667e+02
      vertex   3.229473e+02 8.582188e+01 -3.511667e+02
      vertex   3.227874e+02 8.620777e+01 -3.511667e+02
    endloop
  endfacet
  facet normal -7.933533e-01 -6.087614e-01 0.000000e+00
    outer loop
      vertex   3.227874e+02 8.620777e+01 -3.517667e+02
      vertex   3.227874e+02 8.620777e+01 -3.511667e+02
      vertex   3.225332e+02 8.653914e+01 -3.517667e+02
    endloop
  endfacet
  facet normal -7.933533e-01 -6.087614e-01 0.000000e+00
    outer loop
      vertex   3.225332e+02 8.653914e+01 -3.517667e+02
      vertex   3.227874e+02 8.620777e+01 -3.511667e+02
      vertex   3.225332e+02 8.653914e+01 -3.511667e+02
    endloop
  endfacet
  facet normal -6.087614e-01 -7.933533e-01 0.000000e+00
    outer loop
      vertex   3.225332e+02 8.653914e+01 -3.517667e+02
      vertex   3.225332e+02 8.653914e+01 -3.511667e+02
      vertex   3.222018e+02 8.679341e+01 -3.517667e+02
    endloop
  endfacet
  facet normal -6.087614e-01 -7.933533e-01 0.000000e+00
    outer loop
      vertex   3.222018e+02 8.679341e+01 -3.517667e+02
      vertex   3.225332e+02 8.653914e+01 -3.511667e+02
      vertex   3.222018e+02 8.679341e+01 -3.511667e+02
    endloop
  endfacet
  facet normal -3.826834e-01 -9.238795e-01 0.000000e+00
    outer loop
      vertex   3.222018e+02 8.679341e+01 -3.517667e+02
      vertex   3.222018e+02 8.679341e+01 -3.511667e+02
      vertex   3.218159e+02 8.695325e+01 -3.517667e+02
    endloop
  endfacet
  facet normal -3.826834e-01 -9.238795e-01 0.000000e+00
    outer loop
      vertex   3.218159e+02 8.695325e+01 -3.517667e+02
      vertex   3.222018e+02 8.679341e+01 -3.511667e+02
      vertex   3.218159e+02 8.695325e+01 -3.511667e+02
    endloop
  endfacet
  facet normal -1.305262e-01 -9.914449e-01 0.000000e+00
    outer loop
      vertex   3.218159e+02 8.695325e+01 -3.517667e+02
      vertex   3.218159e+02 8.695325e+01 -3.511667e+02
      vertex   3.214018e+02 8.700777e+01 -3.517667e+02
    endloop
  endfacet
  facet normal -1.305262e-01 -9.914449e-01 0.000000e+00
    outer loop
      vertex   3.214018e+02 8.700777e+01 -3.517667e+02
      vertex   3.218159e+02 8.695325e+01 -3.511667e+02
      vertex   3.214018e+02 8.700777e+01 -3.511667e+02
    endloop
  endfacet
  facet normal 1.305262e-01 -9.914449e-01 0.000000e+00
    outer loop
      vertex   3.214018e+02 8.700777e+01 -3.517667e+02
      vertex   3.214018e+02 8.700777e+01 -3.511667e+02
      vertex   3.209877e+02 8.695325e+01 -3.517667e+02
    endloop
  endfacet
  facet normal 1.305262e-01 -9.914449e-01 0.000000e+00
    outer loop
      vertex   3.209877e+02 8.695325e+01 -3.517667e+02
      vertex   3.214018e+02 8.700777e+01 -3.511667e+02
      vertex   3.209877e+02 8.695325e+01 -3.511667e+02
    endloop
  endfacet
  facet normal 3.826834e-01 -9.238795e-01 0.000000e+00
    outer loop
      vertex   3.209877e+02 8.695325e+01 -3.517667e+02
      vertex   3.209877e+02 8.695325e+01 -3.511667e+02
      vertex   3.206018e+02 8.679341e+01 -3.517667e+02
    endloop
  endfacet
  facet normal 3.826834e-01 -9.238795e-01 0.000000e+00
    outer loop
      vertex   3.206018e+02 8.679341e+01 -3.517667e+02
      vertex   3.209877e+02 8.695325e+01 -3.511667e+02
      vertex   3.206018e+02 8.679341e+01 -3.511667e+02
    endloop
  endfacet
  facet normal 6.087614e-01 -7.933533e-01 0.000000e+00
    outer loop
      vertex   3.206018e+02 8.679341e+01 -3.517667e+02
      vertex   3.206018e+02 8.679341e+01 -3.511667e+02
      vertex   3.202704e+02 8.653914e+01 -3.517667e+02
    endloop
  endfacet
  facet normal 6.087614e-01 -7.933533e-01 0.000000e+00
    outer loop
      vertex   3.202704e+02 8.653914e+01 -3.517667e+02
      vertex   3.206018e+02 8.679341e+01 -3.511667e+02
      vertex   3.202704e+02 8.653914e+01 -3.511667e+02
    endloop
  endfacet
  facet normal 7.933533e-01 -6.087614e-01 0.000000e+00
    outer loop
      vertex   3.202704e+02 8.653914e+01 -3.517667e+02
      vertex   3.202704e+02 8.653914e+01 -3.511667e+02
      vertex   3.200161e+02 8.620777e+01 -3.517667e+02
    endloop
  endfacet
  facet normal 7.933533e-01 -6.087614e-01 0.000000e+00
    outer loop
      vertex   3.200161e+02 8.620777e+01 -3.517667e+02
      vertex   3.202704e+02 8.653914e+01 -3.511667e+02
      vertex   3.200161e+02 8.620777e+01 -3.511667e+02
    endloop
  endfacet
  facet normal 9.238795e-01 -3.826834e-01 0.000000e+00
    outer loop
      vertex   3.200161e+02 8.620777e+01 -3.517667e+02
      vertex   3.200161e+02 8.620777e+01 -3.511667e+02
      vertex   3.198563e+02 8.582188e+01 -3.517667e+02
    endloop
  endfacet
  facet normal 9.238795e-01 -3.826834e-01 0.000000e+00
    outer loop
      vertex   3.198563e+02 8.582188e+01 -3.517667e+02
      vertex   3.200161e+02 8.620777e+01 -3.511667e+02
      vertex   3.198563e+02 8.582188e+01 -3.511667e+02
    endloop
  endfacet
  facet normal 9.914449e-01 -1.305262e-01 0.000000e+00
    outer loop
      vertex   3.198563e+02 8.582188e+01 -3.517667e+02
      vertex   3.198563e+02 8.582188e+01 -3.511667e+02
      vertex   3.198018e+02 8.540777e+01 -3.517667e+02
    endloop
  endfacet
  facet normal 9.914449e-01 -1.305262e-01 0.000000e+00
    outer loop
      vertex   3.198018e+02 8.540777e+01 -3.517667e+02
      vertex   3.198563e+02 8.582188e+01 -3.511667e+02
      vertex   3.198018e+02 8.540777e+01 -3.511667e+02
    endloop
  endfacet
  facet normal 9.914449e-01 1.305262e-01 -0.000000e+00
    outer loop
      vertex   3.198018e+02 8.540777e+01 -3.517667e+02
      vertex   3.198018e+02 8.540777e+01 -3.511667e+02
      vertex   3.198563e+02 8.499366e+01 -3.517667e+02
    endloop
  endfacet
  facet normal 9.914449e-01 1.305262e-01 -0.000000e+00
    outer loop
      vertex   3.198563e+02 8.499366e+01 -3.517667e+02
      vertex   3.198018e+02 8.540777e+01 -3.511667e+02
      vertex   3.198563e+02 8.499366e+01 -3.511667e+02
    endloop
  endfacet
  facet normal 9.238795e-01 3.826834e-01 -0.000000e+00
    outer loop
      vertex   3.198563e+02 8.499366e+01 -3.517667e+02
      vertex   3.198563e+02 8.499366e+01 -3.511667e+02
      vertex   3.200161e+02 8.460777e+01 -3.517667e+02
    endloop
  endfacet
  facet normal 9.238795e-01 3.826834e-01 -0.000000e+00
    outer loop
      vertex   3.200161e+02 8.460777e+01 -3.517667e+02
      vertex   3.198563e+02 8.499366e+01 -3.511667e+02
      vertex   3.200161e+02 8.460777e+01 -3.511667e+02
    endloop
  endfacet
  facet normal 7.933533e-01 6.087614e-01 -0.000000e+00
    outer loop
      vertex   3.200161e+02 8.460777e+01 -3.517667e+02
      vertex   3.200161e+02 8.460777e+01 -3.511667e+02
      vertex   3.202704e+02 8.427640e+01 -3.517667e+02
    endloop
  endfacet
  facet normal 7.933533e-01 6.087614e-01 -0.000000e+00
    outer loop
      vertex   3.202704e+02 8.427640e+01 -3.517667e+02
      vertex   3.200161e+02 8.460777e+01 -3.511667e+02
      vertex   3.202704e+02 8.427640e+01 -3.511667e+02
    endloop
  endfacet
  facet normal 6.087614e-01 7.933533e-01 -0.000000e+00
    outer loop
      vertex   3.202704e+02 8.427640e+01 -3.517667e+02
      vertex   3.202704e+02 8.427640e+01 -3.511667e+02
      vertex   3.206018e+02 8.402213e+01 -3.517667e+02
    endloop
  endfacet
  facet normal 6.087614e-01 7.933533e-01 -0.000000e+00
    outer loop
      vertex   3.206018e+02 8.402213e+01 -3.517667e+02
      vertex   3.202704e+02 8.427640e+01 -3.511667e+02
      vertex   3.206018e+02 8.402213e+01 -3.511667e+02
    endloop
  endfacet
  facet normal 3.826834e-01 9.238795e-01 -0.000000e+00
    outer loop
      vertex   3.206018e+02 8.402213e+01 -3.517667e+02
      vertex   3.206018e+02 8.402213e+01 -3.511667e+02
      vertex   3.209877e+02 8.386229e+01 -3.517667e+02
    endloop
  endfacet
  facet normal 3.826834e-01 9.238795e-01 -0.000000e+00
    outer loop
      vertex   3.209877e+02 8.386229e+01 -3.517667e+02
      vertex   3.206018e+02 8.402213e+01 -3.511667e+02
      vertex   3.209877e+02 8.386229e+01 -3.511667e+02
    endloop
  endfacet
  facet normal 1.305262e-01 9.914449e-01 -0.000000e+00
    outer loop
      vertex   3.209877e+02 8.386229e+01 -3.517667e+02
      vertex   3.209877e+02 8.386229e+01 -3.511667e+02
      vertex   3.214018e+02 8.380777e+01 -3.517667e+02
    endloop
  endfacet
  facet normal 1.305262e-01 9.914449e-01 -0.000000e+00
    outer loop
      vertex   3.214018e+02 8.380777e+01 -3.517667e+02
      vertex   3.209877e+02 8.386229e+01 -3.511667e+02
      vertex   3.214018e+02 8.380777e+01 -3.511667e+02
    endloop
  endfacet
  facet normal -1.305262e-01 9.914449e-01 0.000000e+00
    outer loop
      vertex   3.214018e+02 8.380777e+01 -3.517667e+02
      vertex   3.214018e+02 8.380777e+01 -3.511667e+02
      vertex   3.218159e+02 8.386229e+01 -3.517667e+02
    endloop
  endfacet
  facet normal -1.305262e-01 9.914449e-01 0.000000e+00
    outer loop
      vertex   3.218159e+02 8.386229e+01 -3.517667e+02
      vertex   3.214018e+02 8.380777e+01 -3.511667e+02
      vertex   3.218159e+02 8.386229e+01 -3.511667e+02
    endloop
  endfacet
  facet normal -3.826834e-01 9.238795e-01 0.000000e+00
    outer loop
      vertex   3.218159e+02 8.386229e+01 -3.517667e+02
      vertex   3.218159e+02 8.386229e+01 -3.511667e+02
      vertex   3.222018e+02 8.402213e+01 -3.517667e+02
    endloop
  endfacet
  facet normal -3.826834e-01 9.238795e-01 0.000000e+00
    outer loop
      vertex   3.222018e+02 8.402213e+01 -3.517667e+02
      vertex   3.218159e+02 8.386229e+01 -3.511667e+02
      vertex   3.222018e+02 8.402213e+01 -3.511667e+02
    endloop
  endfacet
  facet normal -6.087614e-01 7.933533e-01 0.000000e+00
    outer loop
      vertex   3.222018e+02 8.402213e+01 -3.517667e+02
      vertex   3.222018e+02 8.402213e+01 -3.511667e+02
      vertex   3.225332e+02 8.427640e+01 -3.517667e+02
    endloop
  endfacet
  facet normal -6.087614e-01 7.933533e-01 0.000000e+00
    outer loop
      vertex   3.225332e+02 8.427640e+01 -3.517667e+02
      vertex   3.222018e+02 8.402213e+01 -3.511667e+02
      vertex   3.225332e+02 8.427640e+01 -3.511667e+02
    endloop
  endfacet
  facet normal -7.933533e-01 6.087614e-01 0.000000e+00
    outer loop
      vertex   3.225332e+02 8.427640e+01 -3.517667e+02
      vertex   3.225332e+02 8.427640e+01 -3.511667e+02
      vertex   3.227874e+02 8.460777e+01 -3.517667e+02
    endloop
  endfacet
  facet normal -7.933533e-01 6.087614e-01 0.000000e+00
    outer loop
      vertex   3.227874e+02 8.460777e+01 -3.517667e+02
      vertex   3.225332e+02 8.427640e+01 -3.511667e+02
      vertex   3.227874e+02 8.460777e+01 -3.511667e+02
    endloop
  endfacet
  facet normal -9.238795e-01 3.826834e-01 0.000000e+00
    outer loop
      vertex   3.227874e+02 8.460777e+01 -3.517667e+02
      vertex   3.227874e+02 8.460777e+01 -3.511667e+02
      vertex   3.229473e+02 8.499366e+01 -3.517667e+02
    endloop
  endfacet
  facet normal -9.238795e-01 3.826834e-01 0.000000e+00
    outer loop
      vertex   3.229473e+02 8.499366e+01 -3.517667e+02
      vertex   3.227874e+02 8.460777e+01 -3.511667e+02
      vertex   3.229473e+02 8.499366e+01 -3.511667e+02
    endloop
  endfacet
  facet normal 9.914449e-01 -1.305262e-01 0.000000e+00
    outer loop
      vertex   3.247825e+02 8.450190e+01 -3.511667e+02
      vertex   3.247825e+02 8.450190e+01 -3.517667e+02
      vertex   3.249018e+02 8.540777e+01 -3.511667e+02
    endloop
  endfacet
  facet normal 9.914449e-01 -1.305262e-01 0.000000e+00
    outer loop
      vertex   3.249018e+02 8.540777e+01 -3.511667e+02
      vertex   3.247825e+02 8.450190e+01 -3.517667e+02
      vertex   3.249018e+02 8.540777e+01 -3.517667e+02
    endloop
  endfacet
  facet normal 9.914449e-01 1.305262e-01 0.000000e+00
    outer loop
      vertex   3.249018e+02 8.540777e+01 -3.511667e+02
      vertex   3.249018e+02 8.540777e+01 -3.517667e+02
      vertex   3.247825e+02 8.631363e+01 -3.511667e+02
    endloop
  endfacet
  facet normal 9.914449e-01 1.305262e-01 0.000000e+00
    outer loop
      vertex   3.247825e+02 8.631363e+01 -3.511667e+02
      vertex   3.249018e+02 8.540777e+01 -3.517667e+02
      vertex   3.247825e+02 8.631363e+01 -3.517667e+02
    endloop
  endfacet
  facet normal 9.238795e-01 3.826834e-01 0.000000e+00
    outer loop
      vertex   3.247825e+02 8.631363e+01 -3.511667e+02
      vertex   3.247825e+02 8.631363e+01 -3.517667e+02
      vertex   3.244329e+02 8.715777e+01 -3.511667e+02
    endloop
  endfacet
  facet normal 9.238795e-01 3.826834e-01 0.000000e+00
    outer loop
      vertex   3.244329e+02 8.715777e+01 -3.511667e+02
      vertex   3.247825e+02 8.631363e+01 -3.517667e+02
      vertex   3.244329e+02 8.715777e+01 -3.517667e+02
    endloop
  endfacet
  facet normal 7.933533e-01 6.087614e-01 0.000000e+00
    outer loop
      vertex   3.244329e+02 8.715777e+01 -3.511667e+02
      vertex   3.244329e+02 8.715777e+01 -3.517667e+02
      vertex   3.238767e+02 8.788264e+01 -3.511667e+02
    endloop
  endfacet
  facet normal 7.933533e-01 6.087614e-01 0.000000e+00
    outer loop
      vertex   3.238767e+02 8.788264e+01 -3.511667e+02
      vertex   3.244329e+02 8.715777e+01 -3.517667e+02
      vertex   3.238767e+02 8.788264e+01 -3.517667e+02
    endloop
  endfacet
  facet normal 6.087614e-01 7.933533e-01 0.000000e+00
    outer loop
      vertex   3.238767e+02 8.788264e+01 -3.511667e+02
      vertex   3.238767e+02 8.788264e+01 -3.517667e+02
      vertex   3.231518e+02 8.843886e+01 -3.511667e+02
    endloop
  endfacet
  facet normal 6.087614e-01 7.933533e-01 0.000000e+00
    outer loop
      vertex   3.231518e+02 8.843886e+01 -3.511667e+02
      vertex   3.238767e+02 8.788264e+01 -3.517667e+02
      vertex   3.231518e+02 8.843886e+01 -3.517667e+02
    endloop
  endfacet
  facet normal 3.826834e-01 9.238795e-01 0.000000e+00
    outer loop
      vertex   3.231518e+02 8.843886e+01 -3.511667e+02
      vertex   3.231518e+02 8.843886e+01 -3.517667e+02
      vertex   3.223077e+02 8.878851e+01 -3.511667e+02
    endloop
  endfacet
  facet normal 3.826834e-01 9.238795e-01 0.000000e+00
    outer loop
      vertex   3.223077e+02 8.878851e+01 -3.511667e+02
      vertex   3.231518e+02 8.843886e+01 -3.517667e+02
      vertex   3.223077e+02 8.878851e+01 -3.517667e+02
    endloop
  endfacet
  facet normal 1.305262e-01 9.914449e-01 0.000000e+00
    outer loop
      vertex   3.223077e+02 8.878851e+01 -3.511667e+02
      vertex   3.223077e+02 8.878851e+01 -3.517667e+02
      vertex   3.214018e+02 8.890777e+01 -3.511667e+02
    endloop
  endfacet
  facet normal 1.305262e-01 9.914449e-01 0.000000e+00
    outer loop
      vertex   3.214018e+02 8.890777e+01 -3.511667e+02
      vertex   3.223077e+02 8.878851e+01 -3.517667e+02
      vertex   3.214018e+02 8.890777e+01 -3.517667e+02
    endloop
  endfacet
  facet normal -1.305262e-01 9.914449e-01 0.000000e+00
    outer loop
      vertex   3.214018e+02 8.890777e+01 -3.511667e+02
      vertex   3.214018e+02 8.890777e+01 -3.517667e+02
      vertex   3.204959e+02 8.878851e+01 -3.511667e+02
    endloop
  endfacet
  facet normal -1.305262e-01 9.914449e-01 0.000000e+00
    outer loop
      vertex   3.204959e+02 8.878851e+01 -3.511667e+02
      vertex   3.214018e+02 8.890777e+01 -3.517667e+02
      vertex   3.204959e+02 8.878851e+01 -3.517667e+02
    endloop
  endfacet
  facet normal -3.826834e-01 9.238795e-01 0.000000e+00
    outer loop
      vertex   3.204959e+02 8.878851e+01 -3.511667e+02
      vertex   3.204959e+02 8.878851e+01 -3.517667e+02
      vertex   3.196518e+02 8.843886e+01 -3.511667e+02
    endloop
  endfacet
  facet normal -3.826834e-01 9.238795e-01 0.000000e+00
    outer loop
      vertex   3.196518e+02 8.843886e+01 -3.511667e+02
      vertex   3.204959e+02 8.878851e+01 -3.517667e+02
      vertex   3.196518e+02 8.843886e+01 -3.517667e+02
    endloop
  endfacet
  facet normal -6.087614e-01 7.933533e-01 0.000000e+00
    outer loop
      vertex   3.196518e+02 8.843886e+01 -3.511667e+02
      vertex   3.196518e+02 8.843886e+01 -3.517667e+02
      vertex   3.189269e+02 8.788264e+01 -3.511667e+02
    endloop
  endfacet
  facet normal -6.087614e-01 7.933533e-01 0.000000e+00
    outer loop
      vertex   3.189269e+02 8.788264e+01 -3.511667e+02
      vertex   3.196518e+02 8.843886e+01 -3.517667e+02
      vertex   3.189269e+02 8.788264e+01 -3.517667e+02
    endloop
  endfacet
  facet normal -7.933533e-01 6.087614e-01 0.000000e+00
    outer loop
      vertex   3.189269e+02 8.788264e+01 -3.511667e+02
      vertex   3.189269e+02 8.788264e+01 -3.517667e+02
      vertex   3.183707e+02 8.715777e+01 -3.511667e+02
    endloop
  endfacet
  facet normal -7.933533e-01 6.087614e-01 0.000000e+00
    outer loop
      vertex   3.183707e+02 8.715777e+01 -3.511667e+02
      vertex   3.189269e+02 8.788264e+01 -3.517667e+02
      vertex   3.183707e+02 8.715777e+01 -3.517667e+02
    endloop
  endfacet
  facet normal -9.238795e-01 3.826834e-01 0.000000e+00
    outer loop
      vertex   3.183707e+02 8.715777e+01 -3.511667e+02
      vertex   3.183707e+02 8.715777e+01 -3.517667e+02
      vertex   3.180210e+02 8.631363e+01 -3.511667e+02
    endloop
  endfacet
  facet normal -9.238795e-01 3.826834e-01 0.000000e+00
    outer loop
      vertex   3.180210e+02 8.631363e+01 -3.511667e+02
      vertex   3.183707e+02 8.715777e+01 -3.517667e+02
      vertex   3.180210e+02 8.631363e+01 -3.517667e+02
    endloop
  endfacet
  facet normal -9.914449e-01 1.305262e-01 0.000000e+00
    outer loop
      vertex   3.180210e+02 8.631363e+01 -3.511667e+02
      vertex   3.180210e+02 8.631363e+01 -3.517667e+02
      vertex   3.179018e+02 8.540777e+01 -3.511667e+02
    endloop
  endfacet
  facet normal -9.914449e-01 1.305262e-01 0.000000e+00
    outer loop
      vertex   3.179018e+02 8.540777e+01 -3.511667e+02
      vertex   3.180210e+02 8.631363e+01 -3.517667e+02
      vertex   3.179018e+02 8.540777e+01 -3.517667e+02
    endloop
  endfacet
  facet normal -9.914449e-01 -1.305262e-01 -0.000000e+00
    outer loop
      vertex   3.179018e+02 8.540777e+01 -3.511667e+02
      vertex   3.179018e+02 8.540777e+01 -3.517667e+02
      vertex   3.180210e+02 8.450190e+01 -3.511667e+02
    endloop
  endfacet
  facet normal -9.914449e-01 -1.305262e-01 -0.000000e+00
    outer loop
      vertex   3.180210e+02 8.450190e+01 -3.511667e+02
      vertex   3.179018e+02 8.540777e+01 -3.517667e+02
      vertex   3.180210e+02 8.450190e+01 -3.517667e+02
    endloop
  endfacet
  facet normal -9.238795e-01 -3.826834e-01 -0.000000e+00
    outer loop
      vertex   3.180210e+02 8.450190e+01 -3.511667e+02
      vertex   3.180210e+02 8.450190e+01 -3.517667e+02
      vertex   3.183707e+02 8.365777e+01 -3.511667e+02
    endloop
  endfacet
  facet normal -9.238795e-01 -3.826834e-01 -0.000000e+00
    outer loop
      vertex   3.183707e+02 8.365777e+01 -3.511667e+02
      vertex   3.180210e+02 8.450190e+01 -3.517667e+02
      vertex   3.183707e+02 8.365777e+01 -3.517667e+02
    endloop
  endfacet
  facet normal -7.933533e-01 -6.087614e-01 -0.000000e+00
    outer loop
      vertex   3.183707e+02 8.365777e+01 -3.511667e+02
      vertex   3.183707e+02 8.365777e+01 -3.517667e+02
      vertex   3.189269e+02 8.293289e+01 -3.511667e+02
    endloop
  endfacet
  facet normal -7.933533e-01 -6.087614e-01 -0.000000e+00
    outer loop
      vertex   3.189269e+02 8.293289e+01 -3.511667e+02
      vertex   3.183707e+02 8.365777e+01 -3.517667e+02
      vertex   3.189269e+02 8.293289e+01 -3.517667e+02
    endloop
  endfacet
  facet normal -6.087614e-01 -7.933533e-01 -0.000000e+00
    outer loop
      vertex   3.189269e+02 8.293289e+01 -3.511667e+02
      vertex   3.189269e+02 8.293289e+01 -3.517667e+02
      vertex   3.196518e+02 8.237668e+01 -3.511667e+02
    endloop
  endfacet
  facet normal -6.087614e-01 -7.933533e-01 -0.000000e+00
    outer loop
      vertex   3.196518e+02 8.237668e+01 -3.511667e+02
      vertex   3.189269e+02 8.293289e+01 -3.517667e+02
      vertex   3.196518e+02 8.237668e+01 -3.517667e+02
    endloop
  endfacet
  facet normal -3.826834e-01 -9.238795e-01 -0.000000e+00
    outer loop
      vertex   3.196518e+02 8.237668e+01 -3.511667e+02
      vertex   3.196518e+02 8.237668e+01 -3.517667e+02
      vertex   3.204959e+02 8.202703e+01 -3.511667e+02
    endloop
  endfacet
  facet normal -3.826834e-01 -9.238795e-01 -0.000000e+00
    outer loop
      vertex   3.204959e+02 8.202703e+01 -3.511667e+02
      vertex   3.196518e+02 8.237668e+01 -3.517667e+02
      vertex   3.204959e+02 8.202703e+01 -3.517667e+02
    endloop
  endfacet
  facet normal -1.305262e-01 -9.914449e-01 -0.000000e+00
    outer loop
      vertex   3.204959e+02 8.202703e+01 -3.511667e+02
      vertex   3.204959e+02 8.202703e+01 -3.517667e+02
      vertex   3.214018e+02 8.190777e+01 -3.511667e+02
    endloop
  endfacet
  facet normal -1.305262e-01 -9.914449e-01 -0.000000e+00
    outer loop
      vertex   3.214018e+02 8.190777e+01 -3.511667e+02
      vertex   3.204959e+02 8.202703e+01 -3.517667e+02
      vertex   3.214018e+02 8.190777e+01 -3.517667e+02
    endloop
  endfacet
  facet normal 1.305262e-01 -9.914449e-01 0.000000e+00
    outer loop
      vertex   3.214018e+02 8.190777e+01 -3.511667e+02
      vertex   3.214018e+02 8.190777e+01 -3.517667e+02
      vertex   3.223077e+02 8.202703e+01 -3.511667e+02
    endloop
  endfacet
  facet normal 1.305262e-01 -9.914449e-01 0.000000e+00
    outer loop
      vertex   3.223077e+02 8.202703e+01 -3.511667e+02
      vertex   3.214018e+02 8.190777e+01 -3.517667e+02
      vertex   3.223077e+02 8.202703e+01 -3.517667e+02
    endloop
  endfacet
  facet normal 3.826834e-01 -9.238795e-01 0.000000e+00
    outer loop
      vertex   3.223077e+02 8.202703e+01 -3.511667e+02
      vertex   3.223077e+02 8.202703e+01 -3.517667e+02
      vertex   3.231518e+02 8.237668e+01 -3.511667e+02
    endloop
  endfacet
  facet normal 3.826834e-01 -9.238795e-01 0.000000e+00
    outer loop
      vertex   3.231518e+02 8.237668e+01 -3.511667e+02
      vertex   3.223077e+02 8.202703e+01 -3.517667e+02
      vertex   3.231518e+02 8.237668e+01 -3.517667e+02
    endloop
  endfacet
  facet normal 6.087614e-01 -7.933533e-01 0.000000e+00
    outer loop
      vertex   3.231518e+02 8.237668e+01 -3.511667e+02
      vertex   3.231518e+02 8.237668e+01 -3.517667e+02
      vertex   3.238767e+02 8.293289e+01 -3.511667e+02
    endloop
  endfacet
  facet normal 6.087614e-01 -7.933533e-01 0.000000e+00
    outer loop
      vertex   3.238767e+02 8.293289e+01 -3.511667e+02
      vertex   3.231518e+02 8.237668e+01 -3.517667e+02
      vertex   3.238767e+02 8.293289e+01 -3.517667e+02
    endloop
  endfacet
  facet normal 7.933533e-01 -6.087614e-01 0.000000e+00
    outer loop
      vertex   3.238767e+02 8.293289e+01 -3.511667e+02
      vertex   3.238767e+02 8.293289e+01 -3.517667e+02
      vertex   3.244329e+02 8.365777e+01 -3.511667e+02
    endloop
  endfacet
  facet normal 7.933533e-01 -6.087614e-01 0.000000e+00
    outer loop
      vertex   3.244329e+02 8.365777e+01 -3.511667e+02
      vertex   3.238767e+02 8.293289e+01 -3.517667e+02
      vertex   3.244329e+02 8.365777e+01 -3.517667e+02
    endloop
  endfacet
  facet normal 9.238795e-01 -3.826834e-01 0.000000e+00
    outer loop
      vertex   3.244329e+02 8.365777e+01 -3.511667e+02
      vertex   3.244329e+02 8.365777e+01 -3.517667e+02
      vertex   3.247825e+02 8.450190e+01 -3.511667e+02
    endloop
  endfacet
  facet normal 9.238795e-01 -3.826834e-01 0.000000e+00
    outer loop
      vertex   3.247825e+02 8.450190e+01 -3.511667e+02
      vertex   3.244329e+02 8.365777e+01 -3.517667e+02
      vertex   3.247825e+02 8.450190e+01 -3.517667e+02
    endloop
  endfacet
  facet normal 0.000000e+00 0.000000e+00 1.000000e+00
    outer loop
      vertex   3.247825e+02 8.631363e+01 -3.511667e+02
      vertex   3.229473e+02 8.582188e+01 -3.511667e+02
      vertex   3.249018e+02 8.540777e+01 -3.511667e+02
    endloop
  endfacet
  facet normal 0.000000e+00 0.000000e+00 1.000000e+00
    outer loop
      vertex   3.249018e+02 8.540777e+01 -3.511667e+02
      vertex   3.229473e+02 8.582188e+01 -3.511667e+02
      vertex   3.230018e+02 8.540777e+01 -3.511667e+02
    endloop
  endfacet
  facet normal 0.000000e+00 0.000000e+00 1.000000e+00
    outer loop
      vertex   3.249018e+02 8.540777e+01 -3.511667e+02
      vertex   3.230018e+02 8.540777e+01 -3.511667e+02
      vertex   3.247825e+02 8.450190e+01 -3.511667e+02
    endloop
  endfacet
  facet normal 0.000000e+00 0.000000e+00 1.000000e+00
    outer loop
      vertex   3.247825e+02 8.450190e+01 -3.511667e+02
      vertex   3.230018e+02 8.540777e+01 -3.511667e+02
      vertex   3.229473e+02 8.499366e+01 -3.511667e+02
    endloop
  endfacet
  facet normal 0.000000e+00 0.000000e+00 1.000000e+00
    outer loop
      vertex   3.247825e+02 8.450190e+01 -3.511667e+02
      vertex   3.229473e+02 8.499366e+01 -3.511667e+02
      vertex   3.227874e+02 8.460777e+01 -3.511667e+02
    endloop
  endfacet
  facet normal 0.000000e+00 -0.000000e+00 1.000000e+00
    outer loop
      vertex   3.229473e+02 8.582188e+01 -3.511667e+02
      vertex   3.247825e+02 8.631363e+01 -3.511667e+02
      vertex   3.227874e+02 8.620777e+01 -3.511667e+02
    endloop
  endfacet
  facet normal 0.000000e+00 0.000000e+00 1.000000e+00
    outer loop
      vertex   3.227874e+02 8.620777e+01 -3.511667e+02
      vertex   3.247825e+02 8.631363e+01 -3.511667e+02
      vertex   3.244329e+02 8.715777e+01 -3.511667e+02
    endloop
  endfacet
  facet normal 0.000000e+00 -0.000000e+00 1.000000e+00
    outer loop
      vertex   3.227874e+02 8.620777e+01 -3.511667e+02
      vertex   3.244329e+02 8.715777e+01 -3.511667e+02
      vertex   3.225332e+02 8.653914e+01 -3.511667e+02
    endloop
  endfacet
  facet normal 0.000000e+00 0.000000e+00 1.000000e+00
    outer loop
      vertex   3.225332e+02 8.653914e+01 -3.511667e+02
      vertex   3.244329e+02 8.715777e+01 -3.511667e+02
      vertex   3.238767e+02 8.788264e+01 -3.511667e+02
    endloop
  endfacet
  facet normal 0.000000e+00 -0.000000e+00 1.000000e+00
    outer loop
      vertex   3.225332e+02 8.653914e+01 -3.511667e+02
      vertex   3.238767e+02 8.788264e+01 -3.511667e+02
      vertex   3.222018e+02 8.679341e+01 -3.511667e+02
    endloop
  endfacet
  facet normal 0.000000e+00 0.000000e+00 1.000000e+00
    outer loop
      vertex   3.222018e+02 8.679341e+01 -3.511667e+02
      vertex   3.238767e+02 8.788264e+01 -3.511667e+02
      vertex   3.231518e+02 8.843886e+01 -3.511667e+02
    endloop
  endfacet
  facet normal 0.000000e+00 -0.000000e+00 1.000000e+00
    outer loop
      vertex   3.222018e+02 8.679341e+01 -3.511667e+02
      vertex   3.231518e+02 8.843886e+01 -3.511667e+02
      vertex   3.218159e+02 8.695325e+01 -3.511667e+02
    endloop
  endfacet
  facet normal 0.000000e+00 0.000000e+00 1.000000e+00
    outer loop
      vertex   3.218159e+02 8.695325e+01 -3.511667e+02
      vertex   3.231518e+02 8.843886e+01 -3.511667e+02
      vertex   3.223077e+02 8.878851e+01 -3.511667e+02
    endloop
  endfacet
  facet normal 0.000000e+00 -0.000000e+00 1.000000e+00
    outer loop
      vertex   3.218159e+02 8.695325e+01 -3.511667e+02
      vertex   3.223077e+02 8.878851e+01 -3.511667e+02
      vertex   3.214018e+02 8.700777e+01 -3.511667e+02
    endloop
  endfacet
  facet normal 0.000000e+00 0.000000e+00 1.000000e+00
    outer loop
      vertex   3.214018e+02 8.700777e+01 -3.511667e+02
      vertex   3.223077e+02 8.878851e+01 -3.511667e+02
      vertex   3.214018e+02 8.890777e+01 -3.511667e+02
    endloop
  endfacet
  facet normal 0.000000e+00 -0.000000e+00 1.000000e+00
    outer loop
      vertex   3.214018e+02 8.700777e+01 -3.511667e+02
      vertex   3.214018e+02 8.890777e+01 -3.511667e+02
      vertex   3.204959e+02 8.878851e+01 -3.511667e+02
    endloop
  endfacet
  facet normal 0.000000e+00 0.000000e+00 1.000000e+00
    outer loop
      vertex   3.214018e+02 8.700777e+01 -3.511667e+02
      vertex   3.204959e+02 8.878851e+01 -3.511667e+02
      vertex   3.209877e+02 8.695325e+01 -3.511667e+02
    endloop
  endfacet
  facet normal 0.000000e+00 0.000000e+00 1.000000e+00
    outer loop
      vertex   3.209877e+02 8.695325e+01 -3.511667e+02
      vertex   3.204959e+02 8.878851e+01 -3.511667e+02
      vertex   3.196518e+02 8.843886e+01 -3.511667e+02
    endloop
  endfacet
  facet normal 0.000000e+00 0.000000e+00 1.000000e+00
    outer loop
      vertex   3.209877e+02 8.695325e+01 -3.511667e+02
      vertex   3.196518e+02 8.843886e+01 -3.511667e+02
      vertex   3.206018e+02 8.679341e+01 -3.511667e+02
    endloop
  endfacet
  facet normal 0.000000e+00 0.000000e+00 1.000000e+00
    outer loop
      vertex   3.206018e+02 8.679341e+01 -3.511667e+02
      vertex   3.196518e+02 8.843886e+01 -3.511667e+02
      vertex   3.189269e+02 8.788264e+01 -3.511667e+02
    endloop
  endfacet
  facet normal 0.000000e+00 0.000000e+00 1.000000e+00
    outer loop
      vertex   3.206018e+02 8.679341e+01 -3.511667e+02
      vertex   3.189269e+02 8.788264e+01 -3.511667e+02
      vertex   3.202704e+02 8.653914e+01 -3.511667e+02
    endloop
  endfacet
  facet normal 0.000000e+00 0.000000e+00 1.000000e+00
    outer loop
      vertex   3.202704e+02 8.653914e+01 -3.511667e+02
      vertex   3.189269e+02 8.788264e+01 -3.511667e+02
      vertex   3.183707e+02 8.715777e+01 -3.511667e+02
    endloop
  endfacet
  facet normal 0.000000e+00 0.000000e+00 1.000000e+00
    outer loop
      vertex   3.202704e+02 8.653914e+01 -3.511667e+02
      vertex   3.183707e+02 8.715777e+01 -3.511667e+02
      vertex   3.200161e+02 8.620777e+01 -3.511667e+02
    endloop
  endfacet
  facet normal 0.000000e+00 0.000000e+00 1.000000e+00
    outer loop
      vertex   3.200161e+02 8.620777e+01 -3.511667e+02
      vertex   3.183707e+02 8.715777e+01 -3.511667e+02
      vertex   3.180210e+02 8.631363e+01 -3.511667e+02
    endloop
  endfacet
  facet normal 0.000000e+00 0.000000e+00 1.000000e+00
    outer loop
      vertex   3.200161e+02 8.620777e+01 -3.511667e+02
      vertex   3.180210e+02 8.631363e+01 -3.511667e+02
      vertex   3.198563e+02 8.582188e+01 -3.511667e+02
    endloop
  endfacet
  facet normal 0.000000e+00 0.000000e+00 1.000000e+00
    outer loop
      vertex   3.198563e+02 8.582188e+01 -3.511667e+02
      vertex   3.180210e+02 8.631363e+01 -3.511667e+02
      vertex   3.179018e+02 8.540777e+01 -3.511667e+02
    endloop
  endfacet
  facet normal 0.000000e+00 0.000000e+00 1.000000e+00
    outer loop
      vertex   3.198563e+02 8.582188e+01 -3.511667e+02
      vertex   3.179018e+02 8.540777e+01 -3.511667e+02
      vertex   3.198018e+02 8.540777e+01 -3.511667e+02
    endloop
  endfacet
  facet normal 0.000000e+00 0.000000e+00 1.000000e+00
    outer loop
      vertex   3.198018e+02 8.540777e+01 -3.511667e+02
      vertex   3.179018e+02 8.540777e+01 -3.511667e+02
      vertex   3.198563e+02 8.499366e+01 -3.511667e+02
    endloop
  endfacet
  facet normal 0.000000e+00 0.000000e+00 1.000000e+00
    outer loop
      vertex   3.198563e+02 8.499366e+01 -3.511667e+02
      vertex   3.179018e+02 8.540777e+01 -3.511667e+02
      vertex   3.180210e+02 8.450190e+01 -3.511667e+02
    endloop
  endfacet
  facet normal 0.000000e+00 0.000000e+00 1.000000e+00
    outer loop
      vertex   3.198563e+02 8.499366e+01 -3.511667e+02
      vertex   3.180210e+02 8.450190e+01 -3.511667e+02
      vertex   3.200161e+02 8.460777e+01 -3.511667e+02
    endloop
  endfacet
  facet normal 0.000000e+00 0.000000e+00 1.000000e+00
    outer loop
      vertex   3.200161e+02 8.460777e+01 -3.511667e+02
      vertex   3.180210e+02 8.450190e+01 -3.511667e+02
      vertex   3.183707e+02 8.365777e+01 -3.511667e+02
    endloop
  endfacet
  facet normal 0.000000e+00 0.000000e+00 1.000000e+00
    outer loop
      vertex   3.200161e+02 8.460777e+01 -3.511667e+02
      vertex   3.183707e+02 8.365777e+01 -3.511667e+02
      vertex   3.202704e+02 8.427640e+01 -3.511667e+02
    endloop
  endfacet
  facet normal 0.000000e+00 0.000000e+00 1.000000e+00
    outer loop
      vertex   3.202704e+02 8.427640e+01 -3.511667e+02
      vertex   3.183707e+02 8.365777e+01 -3.511667e+02
      vertex   3.189269e+02 8.293289e+01 -3.511667e+02
    endloop
  endfacet
  facet normal 0.000000e+00 0.000000e+00 1.000000e+00
    outer loop
      vertex   3.202704e+02 8.427640e+01 -3.511667e+02
      vertex   3.189269e+02 8.293289e+01 -3.511667e+02
      vertex   3.206018e+02 8.402213e+01 -3.511667e+02
    endloop
  endfacet
  facet normal 0.000000e+00 0.000000e+00 1.000000e+00
    outer loop
      vertex   3.206018e+02 8.402213e+01 -3.511667e+02
      vertex   3.189269e+02 8.293289e+01 -3.511667e+02
      vertex   3.196518e+02 8.237668e+01 -3.511667e+02
    endloop
  endfacet
  facet normal 0.000000e+00 0.000000e+00 1.000000e+00
    outer loop
      vertex   3.206018e+02 8.402213e+01 -3.511667e+02
      vertex   3.196518e+02 8.237668e+01 -3.511667e+02
      vertex   3.209877e+02 8.386229e+01 -3.511667e+02
    endloop
  endfacet
  facet normal 0.000000e+00 0.000000e+00 1.000000e+00
    outer loop
      vertex   3.209877e+02 8.386229e+01 -3.511667e+02
      vertex   3.196518e+02 8.237668e+01 -3.511667e+02
      vertex   3.204959e+02 8.202703e+01 -3.511667e+02
    endloop
  endfacet
  facet normal 0.000000e+00 0.000000e+00 1.000000e+00
    outer loop
      vertex   3.209877e+02 8.386229e+01 -3.511667e+02
      vertex   3.204959e+02 8.202703e+01 -3.511667e+02
      vertex   3.214018e+02 8.380777e+01 -3.511667e+02
    endloop
  endfacet
  facet normal 0.000000e+00 0.000000e+00 1.000000e+00
    outer loop
      vertex   3.214018e+02 8.380777e+01 -3.511667e+02
      vertex   3.204959e+02 8.202703e+01 -3.511667e+02
      vertex   3.214018e+02 8.190777e+01 -3.511667e+02
    endloop
  endfacet
  facet normal 0.000000e+00 0.000000e+00 1.000000e+00
    outer loop
      vertex   3.214018e+02 8.380777e+01 -3.511667e+02
      vertex   3.214018e+02 8.190777e+01 -3.511667e+02
      vertex   3.223077e+02 8.202703e+01 -3.511667e+02
    endloop
  endfacet
  facet normal -0.000000e+00 0.000000e+00 1.000000e+00
    outer loop
      vertex   3.214018e+02 8.380777e+01 -3.511667e+02
      vertex   3.223077e+02 8.202703e+01 -3.511667e+02
      vertex   3.218159e+02 8.386229e+01 -3.511667e+02
    endloop
  endfacet
  facet normal 0.000000e+00 0.000000e+00 1.000000e+00
    outer loop
      vertex   3.218159e+02 8.386229e+01 -3.511667e+02
      vertex   3.223077e+02 8.202703e+01 -3.511667e+02
      vertex   3.231518e+02 8.237668e+01 -3.511667e+02
    endloop
  endfacet
  facet normal -0.000000e+00 0.000000e+00 1.000000e+00
    outer loop
      vertex   3.218159e+02 8.386229e+01 -3.511667e+02
      vertex   3.231518e+02 8.237668e+01 -3.511667e+02
      vertex   3.222018e+02 8.402213e+01 -3.511667e+02
    endloop
  endfacet
  facet normal 0.000000e+00 0.000000e+00 1.000000e+00
    outer loop
      vertex   3.222018e+02 8.402213e+01 -3.511667e+02
      vertex   3.231518e+02 8.237668e+01 -3.511667e+02
      vertex   3.238767e+02 8.293289e+01 -3.511667e+02
    endloop
  endfacet
  facet normal -0.000000e+00 0.000000e+00 1.000000e+00
    outer loop
      vertex   3.222018e+02 8.402213e+01 -3.511667e+02
      vertex   3.238767e+02 8.293289e+01 -3.511667e+02
      vertex   3.225332e+02 8.427640e+01 -3.511667e+02
    endloop
  endfacet
  facet normal 0.000000e+00 0.000000e+00 1.000000e+00
    outer loop
      vertex   3.225332e+02 8.427640e+01 -3.511667e+02
      vertex   3.238767e+02 8.293289e+01 -3.511667e+02
      vertex   3.244329e+02 8.365777e+01 -3.511667e+02
    endloop
  endfacet
  facet normal -0.000000e+00 0.000000e+00 1.000000e+00
    outer loop
      vertex   3.225332e+02 8.427640e+01 -3.511667e+02
      vertex   3.244329e+02 8.365777e+01 -3.511667e+02
      vertex   3.227874e+02 8.460777e+01 -3.511667e+02
    endloop
  endfacet
  facet normal 0.000000e+00 0.000000e+00 1.000000e+00
    outer loop
      vertex   3.227874e+02 8.460777e+01 -3.511667e+02
      vertex   3.244329e+02 8.365777e+01 -3.511667e+02
      vertex   3.247825e+02 8.450190e+01 -3.511667e+02
    endloop
  endfacet
  facet normal 0.000000e+00 0.000000e+00 -1.000000e+00
    outer loop
      vertex   3.247825e+02 8.450190e+01 -3.517667e+02
      vertex   3.229473e+02 8.499366e+01 -3.517667e+02
      vertex   3.249018e+02 8.540777e+01 -3.517667e+02
    endloop
  endfacet
  facet normal -0.000000e+00 0.000000e+00 -1.000000e+00
    outer loop
      vertex   3.249018e+02 8.540777e+01 -3.517667e+02
      vertex   3.229473e+02 8.499366e+01 -3.517667e+02
      vertex   3.230018e+02 8.540777e+01 -3.517667e+02
    endloop
  endfacet
  facet normal 0.000000e+00 0.000000e+00 -1.000000e+00
    outer loop
      vertex   3.249018e+02 8.540777e+01 -3.517667e+02
      vertex   3.230018e+02 8.540777e+01 -3.517667e+02
      vertex   3.229473e+02 8.582188e+01 -3.517667e+02
    endloop
  endfacet
  facet normal 0.000000e+00 -0.000000e+00 -1.000000e+00
    outer loop
      vertex   3.229473e+02 8.499366e+01 -3.517667e+02
      vertex   3.247825e+02 8.450190e+01 -3.517667e+02
      vertex   3.227874e+02 8.460777e+01 -3.517667e+02
    endloop
  endfacet
  facet normal 0.000000e+00 0.000000e+00 -1.000000e+00
    outer loop
      vertex   3.227874e+02 8.460777e+01 -3.517667e+02
      vertex   3.247825e+02 8.450190e+01 -3.517667e+02
      vertex   3.244329e+02 8.365777e+01 -3.517667e+02
    endloop
  endfacet
  facet normal 0.000000e+00 -0.000000e+00 -1.000000e+00
    outer loop
      vertex   3.227874e+02 8.460777e+01 -3.517667e+02
      vertex   3.244329e+02 8.365777e+01 -3.517667e+02
      vertex   3.225332e+02 8.427640e+01 -3.517667e+02
    endloop
  endfacet
  facet normal 0.000000e+00 0.000000e+00 -1.000000e+00
    outer loop
      vertex   3.225332e+02 8.427640e+01 -3.517667e+02
      vertex   3.244329e+02 8.365777e+01 -3.517667e+02
      vertex   3.238767e+02 8.293289e+01 -3.517667e+02
    endloop
  endfacet
  facet normal 0.000000e+00 -0.000000e+00 -1.000000e+00
    outer loop
      vertex   3.225332e+02 8.427640e+01 -3.517667e+02
      vertex   3.238767e+02 8.293289e+01 -3.517667e+02
      vertex   3.222018e+02 8.402213e+01 -3.517667e+02
    endloop
  endfacet
  facet normal 0.000000e+00 0.000000e+00 -1.000000e+00
    outer loop
      vertex   3.222018e+02 8.402213e+01 -3.517667e+02
      vertex   3.238767e+02 8.293289e+01 -3.517667e+02
      vertex   3.231518e+02 8.237668e+01 -3.517667e+02
    endloop
  endfacet
  facet normal 0.000000e+00 -0.000000e+00 -1.000000e+00
    outer loop
      vertex   3.222018e+02 8.402213e+01 -3.517667e+02
      vertex   3.231518e+02 8.237668e+01 -3.517667e+02
      vertex   3.218159e+02 8.386229e+01 -3.517667e+02
    endloop
  endfacet
  facet normal 0.000000e+00 0.000000e+00 -1.000000e+00
    outer loop
      vertex   3.218159e+02 8.386229e+01 -3.517667e+02
      vertex   3.231518e+02 8.237668e+01 -3.517667e+02
      vertex   3.223077e+02 8.202703e+01 -3.517667e+02
    endloop
  endfacet
  facet normal 0.000000e+00 -0.000000e+00 -1.000000e+00
    outer loop
      vertex   3.218159e+02 8.386229e+01 -3.517667e+02
      vertex   3.223077e+02 8.202703e+01 -3.517667e+02
      vertex   3.214018e+02 8.380777e+01 -3.517667e+02
    endloop
  endfacet
  facet normal 0.000000e+00 0.000000e+00 -1.000000e+00
    outer loop
      vertex   3.214018e+02 8.380777e+01 -3.517667e+02
      vertex   3.223077e+02 8.202703e+01 -3.517667e+02
      vertex   3.214018e+02 8.190777e+01 -3.517667e+02
    endloop
  endfacet
  facet normal 0.000000e+00 -0.000000e+00 -1.000000e+00
    outer loop
      vertex   3.214018e+02 8.380777e+01 -3.517667e+02
      vertex   3.214018e+02 8.190777e+01 -3.517667e+02
      vertex   3.204959e+02 8.202703e+01 -3.517667e+02
    endloop
  endfacet
  facet normal -0.000000e+00 0.000000e+00 -1.000000e+00
    outer loop
      vertex   3.214018e+02 8.380777e+01 -3.517667e+02
      vertex   3.204959e+02 8.202703e+01 -3.517667e+02
      vertex   3.209877e+02 8.386229e+01 -3.517667e+02
    endloop
  endfacet
  facet normal 0.000000e+00 0.000000e+00 -1.000000e+00
    outer loop
      vertex   3.209877e+02 8.386229e+01 -3.517667e+02
      vertex   3.204959e+02 8.202703e+01 -3.517667e+02
      vertex   3.196518e+02 8.237668e+01 -3.517667e+02
    endloop
  endfacet
  facet normal -0.000000e+00 0.000000e+00 -1.000000e+00
    outer loop
      vertex   3.209877e+02 8.386229e+01 -3.517667e+02
      vertex   3.196518e+02 8.237668e+01 -3.517667e+02
      vertex   3.206018e+02 8.402213e+01 -3.517667e+02
    endloop
  endfacet
  facet normal 0.000000e+00 0.000000e+00 -1.000000e+00
    outer loop
      vertex   3.206018e+02 8.402213e+01 -3.517667e+02
      vertex   3.196518e+02 8.237668e+01 -3.517667e+02
      vertex   3.189269e+02 8.293289e+01 -3.517667e+02
    endloop
  endfacet
  facet normal -0.000000e+00 0.000000e+00 -1.000000e+00
    outer loop
      vertex   3.206018e+02 8.402213e+01 -3.517667e+02
      vertex   3.189269e+02 8.293289e+01 -3.517667e+02
      vertex   3.202704e+02 8.427640e+01 -3.517667e+02
    endloop
  endfacet
  facet normal 0.000000e+00 0.000000e+00 -1.000000e+00
    outer loop
      vertex   3.202704e+02 8.427640e+01 -3.517667e+02
      vertex   3.189269e+02 8.293289e+01 -3.517667e+02
      vertex   3.183707e+02 8.365777e+01 -3.517667e+02
    endloop
  endfacet
  facet normal -0.000000e+00 0.000000e+00 -1.000000e+00
    outer loop
      vertex   3.202704e+02 8.427640e+01 -3.517667e+02
      vertex   3.183707e+02 8.365777e+01 -3.517667e+02
      vertex   3.200161e+02 8.460777e+01 -3.517667e+02
    endloop
  endfacet
  facet normal 0.000000e+00 0.000000e+00 -1.000000e+00
    outer loop
      vertex   3.200161e+02 8.460777e+01 -3.517667e+02
      vertex   3.183707e+02 8.365777e+01 -3.517667e+02
      vertex   3.180210e+02 8.450190e+01 -3.517667e+02
    endloop
  endfacet
  facet normal -0.000000e+00 0.000000e+00 -1.000000e+00
    outer loop
      vertex   3.200161e+02 8.460777e+01 -3.517667e+02
      vertex   3.180210e+02 8.450190e+01 -3.517667e+02
      vertex   3.198563e+02 8.499366e+01 -3.517667e+02
    endloop
  endfacet
  facet normal -0.000000e+00 0.000000e+00 -1.000000e+00
    outer loop
      vertex   3.198563e+02 8.499366e+01 -3.517667e+02
      vertex   3.180210e+02 8.450190e+01 -3.517667e+02
      vertex   3.198018e+02 8.540777e+01 -3.517667e+02
    endloop
  endfacet
  facet normal -0.000000e+00 0.000000e+00 -1.000000e+00
    outer loop
      vertex   3.198018e+02 8.540777e+01 -3.517667e+02
      vertex   3.180210e+02 8.450190e+01 -3.517667e+02
      vertex   3.179018e+02 8.540777e+01 -3.517667e+02
    endloop
  endfacet
  facet normal 0.000000e+00 0.000000e+00 -1.000000e+00
    outer loop
      vertex   3.198018e+02 8.540777e+01 -3.517667e+02
      vertex   3.179018e+02 8.540777e+01 -3.517667e+02
      vertex   3.198563e+02 8.582188e+01 -3.517667e+02
    endloop
  endfacet
  facet normal -0.000000e+00 0.000000e+00 -1.000000e+00
    outer loop
      vertex   3.198563e+02 8.582188e+01 -3.517667e+02
      vertex   3.179018e+02 8.540777e+01 -3.517667e+02
      vertex   3.180210e+02 8.631363e+01 -3.517667e+02
    endloop
  endfacet
  facet normal 0.000000e+00 0.000000e+00 -1.000000e+00
    outer loop
      vertex   3.198563e+02 8.582188e+01 -3.517667e+02
      vertex   3.180210e+02 8.631363e+01 -3.517667e+02
      vertex   3.200161e+02 8.620777e+01 -3.517667e+02
    endloop
  endfacet
  facet normal 0.000000e+00 0.000000e+00 -1.000000e+00
    outer loop
      vertex   3.200161e+02 8.620777e+01 -3.517667e+02
      vertex   3.180210e+02 8.631363e+01 -3.517667e+02
      vertex   3.183707e+02 8.715777e+01 -3.517667e+02
    endloop
  endfacet
  facet normal 0.000000e+00 0.000000e+00 -1.000000e+00
    outer loop
      vertex   3.200161e+02 8.620777e+01 -3.517667e+02
      vertex   3.183707e+02 8.715777e+01 -3.517667e+02
      vertex   3.202704e+02 8.653914e+01 -3.517667e+02
    endloop
  endfacet
  facet normal 0.000000e+00 0.000000e+00 -1.000000e+00
    outer loop
      vertex   3.202704e+02 8.653914e+01 -3.517667e+02
      vertex   3.183707e+02 8.715777e+01 -3.517667e+02
      vertex   3.189269e+02 8.788264e+01 -3.517667e+02
    endloop
  endfacet
  facet normal 0.000000e+00 0.000000e+00 -1.000000e+00
    outer loop
      vertex   3.202704e+02 8.653914e+01 -3.517667e+02
      vertex   3.189269e+02 8.788264e+01 -3.517667e+02
      vertex   3.206018e+02 8.679341e+01 -3.517667e+02
    endloop
  endfacet
  facet normal 0.000000e+00 0.000000e+00 -1.000000e+00
    outer loop
      vertex   3.206018e+02 8.679341e+01 -3.517667e+02
      vertex   3.189269e+02 8.788264e+01 -3.517667e+02
      vertex   3.196518e+02 8.843886e+01 -3.517667e+02
    endloop
  endfacet
  facet normal 0.000000e+00 0.000000e+00 -1.000000e+00
    outer loop
      vertex   3.206018e+02 8.679341e+01 -3.517667e+02
      vertex   3.196518e+02 8.843886e+01 -3.517667e+02
      vertex   3.209877e+02 8.695325e+01 -3.517667e+02
    endloop
  endfacet
  facet normal 0.000000e+00 0.000000e+00 -1.000000e+00
    outer loop
      vertex   3.209877e+02 8.695325e+01 -3.517667e+02
      vertex   3.196518e+02 8.843886e+01 -3.517667e+02
      vertex   3.204959e+02 8.878851e+01 -3.517667e+02
    endloop
  endfacet
  facet normal 0.000000e+00 0.000000e+00 -1.000000e+00
    outer loop
      vertex   3.209877e+02 8.695325e+01 -3.517667e+02
      vertex   3.204959e+02 8.878851e+01 -3.517667e+02
      vertex   3.214018e+02 8.700777e+01 -3.517667e+02
    endloop
  endfacet
  facet normal 0.000000e+00 0.000000e+00 -1.000000e+00
    outer loop
      vertex   3.214018e+02 8.700777e+01 -3.517667e+02
      vertex   3.204959e+02 8.878851e+01 -3.517667e+02
      vertex   3.214018e+02 8.890777e+01 -3.517667e+02
    endloop
  endfacet
  facet normal 0.000000e+00 0.000000e+00 -1.000000e+00
    outer loop
      vertex   3.214018e+02 8.700777e+01 -3.517667e+02
      vertex   3.214018e+02 8.890777e+01 -3.517667e+02
      vertex   3.223077e+02 8.878851e+01 -3.517667e+02
    endloop
  endfacet
  facet normal 0.000000e+00 0.000000e+00 -1.000000e+00
    outer loop
      vertex   3.214018e+02 8.700777e+01 -3.517667e+02
      vertex   3.223077e+02 8.878851e+01 -3.517667e+02
      vertex   3.218159e+02 8.695325e+01 -3.517667e+02
    endloop
  endfacet
  facet normal 0.000000e+00 0.000000e+00 -1.000000e+00
    outer loop
      vertex   3.218159e+02 8.695325e+01 -3.517667e+02
      vertex   3.223077e+02 8.878851e+01 -3.517667e+02
      vertex   3.231518e+02 8.843886e+01 -3.517667e+02
    endloop
  endfacet
  facet normal 0.000000e+00 0.000000e+00 -1.000000e+00
    outer loop
      vertex   3.218159e+02 8.695325e+01 -3.517667e+02
      vertex   3.231518e+02 8.843886e+01 -3.517667e+02
      vertex   3.222018e+02 8.679341e+01 -3.517667e+02
    endloop
  endfacet
  facet normal 0.000000e+00 0.000000e+00 -1.000000e+00
    outer loop
      vertex   3.222018e+02 8.679341e+01 -3.517667e+02
      vertex   3.231518e+02 8.843886e+01 -3.517667e+02
      vertex   3.238767e+02 8.788264e+01 -3.517667e+02
    endloop
  endfacet
  facet normal 0.000000e+00 0.000000e+00 -1.000000e+00
    outer loop
      vertex   3.222018e+02 8.679341e+01 -3.517667e+02
      vertex   3.238767e+02 8.788264e+01 -3.517667e+02
      vertex   3.225332e+02 8.653914e+01 -3.517667e+02
    endloop
  endfacet
  facet normal 0.000000e+00 0.000000e+00 -1.000000e+00
    outer loop
      vertex   3.225332e+02 8.653914e+01 -3.517667e+02
      vertex   3.238767e+02 8.788264e+01 -3.517667e+02
      vertex   3.244329e+02 8.715777e+01 -3.517667e+02
    endloop
  endfacet
  facet normal 0.000000e+00 0.000000e+00 -1.000000e+00
    outer loop
      vertex   3.225332e+02 8.653914e+01 -3.517667e+02
      vertex   3.244329e+02 8.715777e+01 -3.517667e+02
      vertex   3.227874e+02 8.620777e+01 -3.517667e+02
    endloop
  endfacet
  facet normal 0.000000e+00 0.000000e+00 -1.000000e+00
    outer loop
      vertex   3.227874e+02 8.620777e+01 -3.517667e+02
      vertex   3.244329e+02 8.715777e+01 -3.517667e+02
      vertex   3.247825e+02 8.631363e+01 -3.517667e+02
    endloop
  endfacet
  facet normal 0.000000e+00 0.000000e+00 -1.000000e+00
    outer loop
      vertex   3.227874e+02 8.620777e+01 -3.517667e+02
      vertex   3.247825e+02 8.631363e+01 -3.517667e+02
      vertex   3.229473e+02 8.582188e+01 -3.517667e+02
    endloop
  endfacet
  facet normal 0.000000e+00 0.000000e+00 -1.000000e+00
    outer loop
      vertex   3.229473e+02 8.582188e+01 -3.517667e+02
      vertex   3.247825e+02 8.631363e+01 -3.517667e+02
      vertex   3.249018e+02 8.540777e+01 -3.517667e+02
    endloop
  endfacet
endsolid
