solid ASCII
  facet normal 7.040626e-01 9.269160e-02 -7.040626e-01
    outer loop
      vertex   -2.623097e+02 7.561492e+01 -4.291667e+02
      vertex   -2.632756e+02 7.535610e+01 -4.301667e+02
      vertex   -2.623608e+02 7.600315e+01 -4.291667e+02
    endloop
  endfacet
  facet normal 7.040626e-01 9.269160e-02 -7.040626e-01
    outer loop
      vertex   -2.623608e+02 7.600315e+01 -4.291667e+02
      vertex   -2.632756e+02 7.535610e+01 -4.301667e+02
      vertex   -2.633608e+02 7.600315e+01 -4.301667e+02
    endloop
  endfacet
  facet normal 7.040626e-01 -9.269160e-02 -7.040626e-01
    outer loop
      vertex   -2.623608e+02 7.600315e+01 -4.291667e+02
      vertex   -2.633608e+02 7.600315e+01 -4.301667e+02
      vertex   -2.623097e+02 7.639138e+01 -4.291667e+02
    endloop
  endfacet
  facet normal 7.040626e-01 -9.269160e-02 -7.040626e-01
    outer loop
      vertex   -2.623097e+02 7.639138e+01 -4.291667e+02
      vertex   -2.633608e+02 7.600315e+01 -4.301667e+02
      vertex   -2.632756e+02 7.665020e+01 -4.301667e+02
    endloop
  endfacet
  facet normal 6.560819e-01 -2.717580e-01 -7.040626e-01
    outer loop
      vertex   -2.623097e+02 7.639138e+01 -4.291667e+02
      vertex   -2.632756e+02 7.665020e+01 -4.301667e+02
      vertex   -2.621599e+02 7.675315e+01 -4.291667e+02
    endloop
  endfacet
  facet normal 6.560819e-01 -2.717580e-01 -7.040626e-01
    outer loop
      vertex   -2.621599e+02 7.675315e+01 -4.291667e+02
      vertex   -2.632756e+02 7.665020e+01 -4.301667e+02
      vertex   -2.630259e+02 7.725315e+01 -4.301667e+02
    endloop
  endfacet
  facet normal 5.633903e-01 -4.323046e-01 -7.040626e-01
    outer loop
      vertex   -2.621599e+02 7.675315e+01 -4.291667e+02
      vertex   -2.630259e+02 7.725315e+01 -4.301667e+02
      vertex   -2.619215e+02 7.706381e+01 -4.291667e+02
    endloop
  endfacet
  facet normal 5.633903e-01 -4.323046e-01 -7.040626e-01
    outer loop
      vertex   -2.619215e+02 7.706381e+01 -4.291667e+02
      vertex   -2.630259e+02 7.725315e+01 -4.301667e+02
      vertex   -2.626286e+02 7.777092e+01 -4.301667e+02
    endloop
  endfacet
  facet normal 4.323046e-01 -5.633903e-01 -7.040626e-01
    outer loop
      vertex   -2.619215e+02 7.706381e+01 -4.291667e+02
      vertex   -2.626286e+02 7.777092e+01 -4.301667e+02
      vertex   -2.616108e+02 7.730219e+01 -4.291667e+02
    endloop
  endfacet
  facet normal 4.323046e-01 -5.633903e-01 -7.040626e-01
    outer loop
      vertex   -2.616108e+02 7.730219e+01 -4.291667e+02
      vertex   -2.626286e+02 7.777092e+01 -4.301667e+02
      vertex   -2.621108e+02 7.816821e+01 -4.301667e+02
    endloop
  endfacet
  facet normal 2.717580e-01 -6.560819e-01 -7.040626e-01
    outer loop
      vertex   -2.616108e+02 7.730219e+01 -4.291667e+02
      vertex   -2.621108e+02 7.816821e+01 -4.301667e+02
      vertex   -2.612491e+02 7.745204e+01 -4.291667e+02
    endloop
  endfacet
  facet normal 2.717580e-01 -6.560819e-01 -7.040626e-01
    outer loop
      vertex   -2.612491e+02 7.745204e+01 -4.291667e+02
      vertex   -2.621108e+02 7.816821e+01 -4.301667e+02
      vertex   -2.615079e+02 7.841797e+01 -4.301667e+02
    endloop
  endfacet
  facet normal 9.269160e-02 -7.040626e-01 -7.040626e-01
    outer loop
      vertex   -2.612491e+02 7.745204e+01 -4.291667e+02
      vertex   -2.615079e+02 7.841797e+01 -4.301667e+02
      vertex   -2.608608e+02 7.750315e+01 -4.291667e+02
    endloop
  endfacet
  facet normal 9.269160e-02 -7.040626e-01 -7.040626e-01
    outer loop
      vertex   -2.608608e+02 7.750315e+01 -4.291667e+02
      vertex   -2.615079e+02 7.841797e+01 -4.301667e+02
      vertex   -2.608608e+02 7.850315e+01 -4.301667e+02
    endloop
  endfacet
  facet normal -9.269160e-02 -7.040626e-01 -7.040626e-01
    outer loop
      vertex   -2.608608e+02 7.750315e+01 -4.291667e+02
      vertex   -2.608608e+02 7.850315e+01 -4.301667e+02
      vertex   -2.604726e+02 7.745204e+01 -4.291667e+02
    endloop
  endfacet
  facet normal -9.269160e-02 -7.040626e-01 -7.040626e-01
    outer loop
      vertex   -2.604726e+02 7.745204e+01 -4.291667e+02
      vertex   -2.608608e+02 7.850315e+01 -4.301667e+02
      vertex   -2.602138e+02 7.841797e+01 -4.301667e+02
    endloop
  endfacet
  facet normal -2.717580e-01 -6.560819e-01 -7.040626e-01
    outer loop
      vertex   -2.604726e+02 7.745204e+01 -4.291667e+02
      vertex   -2.602138e+02 7.841797e+01 -4.301667e+02
      vertex   -2.601108e+02 7.730219e+01 -4.291667e+02
    endloop
  endfacet
  facet normal -2.717580e-01 -6.560819e-01 -7.040626e-01
    outer loop
      vertex   -2.601108e+02 7.730219e+01 -4.291667e+02
      vertex   -2.602138e+02 7.841797e+01 -4.301667e+02
      vertex   -2.596108e+02 7.816821e+01 -4.301667e+02
    endloop
  endfacet
  facet normal -4.323046e-01 -5.633903e-01 -7.040626e-01
    outer loop
      vertex   -2.601108e+02 7.730219e+01 -4.291667e+02
      vertex   -2.596108e+02 7.816821e+01 -4.301667e+02
      vertex   -2.598002e+02 7.706381e+01 -4.291667e+02
    endloop
  endfacet
  facet normal -4.323046e-01 -5.633903e-01 -7.040626e-01
    outer loop
      vertex   -2.598002e+02 7.706381e+01 -4.291667e+02
      vertex   -2.596108e+02 7.816821e+01 -4.301667e+02
      vertex   -2.590931e+02 7.777092e+01 -4.301667e+02
    endloop
  endfacet
  facet normal -5.633903e-01 -4.323046e-01 -7.040626e-01
    outer loop
      vertex   -2.598002e+02 7.706381e+01 -4.291667e+02
      vertex   -2.590931e+02 7.777092e+01 -4.301667e+02
      vertex   -2.595618e+02 7.675315e+01 -4.291667e+02
    endloop
  endfacet
  facet normal -5.633903e-01 -4.323046e-01 -7.040626e-01
    outer loop
      vertex   -2.595618e+02 7.675315e+01 -4.291667e+02
      vertex   -2.590931e+02 7.777092e+01 -4.301667e+02
      vertex   -2.586958e+02 7.725315e+01 -4.301667e+02
    endloop
  endfacet
  facet normal -6.560819e-01 -2.717580e-01 -7.040626e-01
    outer loop
      vertex   -2.595618e+02 7.675315e+01 -4.291667e+02
      vertex   -2.586958e+02 7.725315e+01 -4.301667e+02
      vertex   -2.594119e+02 7.639138e+01 -4.291667e+02
    endloop
  endfacet
  facet normal -6.560819e-01 -2.717580e-01 -7.040626e-01
    outer loop
      vertex   -2.594119e+02 7.639138e+01 -4.291667e+02
      vertex   -2.586958e+02 7.725315e+01 -4.301667e+02
      vertex   -2.584460e+02 7.665020e+01 -4.301667e+02
    endloop
  endfacet
  facet normal -7.040626e-01 -9.269160e-02 -7.040626e-01
    outer loop
      vertex   -2.594119e+02 7.639138e+01 -4.291667e+02
      vertex   -2.584460e+02 7.665020e+01 -4.301667e+02
      vertex   -2.593608e+02 7.600315e+01 -4.291667e+02
    endloop
  endfacet
  facet normal -7.040626e-01 -9.269160e-02 -7.040626e-01
    outer loop
      vertex   -2.593608e+02 7.600315e+01 -4.291667e+02
      vertex   -2.584460e+02 7.665020e+01 -4.301667e+02
      vertex   -2.583608e+02 7.600315e+01 -4.301667e+02
    endloop
  endfacet
  facet normal -7.040626e-01 9.269160e-02 -7.040626e-01
    outer loop
      vertex   -2.593608e+02 7.600315e+01 -4.291667e+02
      vertex   -2.583608e+02 7.600315e+01 -4.301667e+02
      vertex   -2.594119e+02 7.561492e+01 -4.291667e+02
    endloop
  endfacet
  facet normal -7.040626e-01 9.269160e-02 -7.040626e-01
    outer loop
      vertex   -2.594119e+02 7.561492e+01 -4.291667e+02
      vertex   -2.583608e+02 7.600315e+01 -4.301667e+02
      vertex   -2.584460e+02 7.535610e+01 -4.301667e+02
    endloop
  endfacet
  facet normal -6.560819e-01 2.717580e-01 -7.040626e-01
    outer loop
      vertex   -2.594119e+02 7.561492e+01 -4.291667e+02
      vertex   -2.584460e+02 7.535610e+01 -4.301667e+02
      vertex   -2.595618e+02 7.525315e+01 -4.291667e+02
    endloop
  endfacet
  facet normal -6.560819e-01 2.717580e-01 -7.040626e-01
    outer loop
      vertex   -2.595618e+02 7.525315e+01 -4.291667e+02
      vertex   -2.584460e+02 7.535610e+01 -4.301667e+02
      vertex   -2.586958e+02 7.475315e+01 -4.301667e+02
    endloop
  endfacet
  facet normal -5.633903e-01 4.323046e-01 -7.040626e-01
    outer loop
      vertex   -2.595618e+02 7.525315e+01 -4.291667e+02
      vertex   -2.586958e+02 7.475315e+01 -4.301667e+02
      vertex   -2.598002e+02 7.494249e+01 -4.291667e+02
    endloop
  endfacet
  facet normal -5.633903e-01 4.323046e-01 -7.040626e-01
    outer loop
      vertex   -2.598002e+02 7.494249e+01 -4.291667e+02
      vertex   -2.586958e+02 7.475315e+01 -4.301667e+02
      vertex   -2.590931e+02 7.423538e+01 -4.301667e+02
    endloop
  endfacet
  facet normal -4.323046e-01 5.633903e-01 -7.040626e-01
    outer loop
      vertex   -2.598002e+02 7.494249e+01 -4.291667e+02
      vertex   -2.590931e+02 7.423538e+01 -4.301667e+02
      vertex   -2.601108e+02 7.470411e+01 -4.291667e+02
    endloop
  endfacet
  facet normal -4.323046e-01 5.633903e-01 -7.040626e-01
    outer loop
      vertex   -2.601108e+02 7.470411e+01 -4.291667e+02
      vertex   -2.590931e+02 7.423538e+01 -4.301667e+02
      vertex   -2.596108e+02 7.383809e+01 -4.301667e+02
    endloop
  endfacet
  facet normal -2.717580e-01 6.560819e-01 -7.040626e-01
    outer loop
      vertex   -2.601108e+02 7.470411e+01 -4.291667e+02
      vertex   -2.596108e+02 7.383809e+01 -4.301667e+02
      vertex   -2.604726e+02 7.455426e+01 -4.291667e+02
    endloop
  endfacet
  facet normal -2.717580e-01 6.560819e-01 -7.040626e-01
    outer loop
      vertex   -2.604726e+02 7.455426e+01 -4.291667e+02
      vertex   -2.596108e+02 7.383809e+01 -4.301667e+02
      vertex   -2.602138e+02 7.358834e+01 -4.301667e+02
    endloop
  endfacet
  facet normal -9.269160e-02 7.040626e-01 -7.040626e-01
    outer loop
      vertex   -2.604726e+02 7.455426e+01 -4.291667e+02
      vertex   -2.602138e+02 7.358834e+01 -4.301667e+02
      vertex   -2.608608e+02 7.450315e+01 -4.291667e+02
    endloop
  endfacet
  facet normal -9.269160e-02 7.040626e-01 -7.040626e-01
    outer loop
      vertex   -2.608608e+02 7.450315e+01 -4.291667e+02
      vertex   -2.602138e+02 7.358834e+01 -4.301667e+02
      vertex   -2.608608e+02 7.350315e+01 -4.301667e+02
    endloop
  endfacet
  facet normal 9.269160e-02 7.040626e-01 -7.040626e-01
    outer loop
      vertex   -2.608608e+02 7.450315e+01 -4.291667e+02
      vertex   -2.608608e+02 7.350315e+01 -4.301667e+02
      vertex   -2.612491e+02 7.455426e+01 -4.291667e+02
    endloop
  endfacet
  facet normal 9.269160e-02 7.040626e-01 -7.040626e-01
    outer loop
      vertex   -2.612491e+02 7.455426e+01 -4.291667e+02
      vertex   -2.608608e+02 7.350315e+01 -4.301667e+02
      vertex   -2.615079e+02 7.358834e+01 -4.301667e+02
    endloop
  endfacet
  facet normal 2.717580e-01 6.560819e-01 -7.040626e-01
    outer loop
      vertex   -2.612491e+02 7.455426e+01 -4.291667e+02
      vertex   -2.615079e+02 7.358834e+01 -4.301667e+02
      vertex   -2.616108e+02 7.470411e+01 -4.291667e+02
    endloop
  endfacet
  facet normal 2.717580e-01 6.560819e-01 -7.040626e-01
    outer loop
      vertex   -2.616108e+02 7.470411e+01 -4.291667e+02
      vertex   -2.615079e+02 7.358834e+01 -4.301667e+02
      vertex   -2.621108e+02 7.383809e+01 -4.301667e+02
    endloop
  endfacet
  facet normal 4.323046e-01 5.633903e-01 -7.040626e-01
    outer loop
      vertex   -2.616108e+02 7.470411e+01 -4.291667e+02
      vertex   -2.621108e+02 7.383809e+01 -4.301667e+02
      vertex   -2.619215e+02 7.494249e+01 -4.291667e+02
    endloop
  endfacet
  facet normal 4.323046e-01 5.633903e-01 -7.040626e-01
    outer loop
      vertex   -2.619215e+02 7.494249e+01 -4.291667e+02
      vertex   -2.621108e+02 7.383809e+01 -4.301667e+02
      vertex   -2.626286e+02 7.423538e+01 -4.301667e+02
    endloop
  endfacet
  facet normal 5.633903e-01 4.323046e-01 -7.040626e-01
    outer loop
      vertex   -2.619215e+02 7.494249e+01 -4.291667e+02
      vertex   -2.626286e+02 7.423538e+01 -4.301667e+02
      vertex   -2.621599e+02 7.525315e+01 -4.291667e+02
    endloop
  endfacet
  facet normal 5.633903e-01 4.323046e-01 -7.040626e-01
    outer loop
      vertex   -2.621599e+02 7.525315e+01 -4.291667e+02
      vertex   -2.626286e+02 7.423538e+01 -4.301667e+02
      vertex   -2.630259e+02 7.475315e+01 -4.301667e+02
    endloop
  endfacet
  facet normal 6.560819e-01 2.717580e-01 -7.040626e-01
    outer loop
      vertex   -2.621599e+02 7.525315e+01 -4.291667e+02
      vertex   -2.630259e+02 7.475315e+01 -4.301667e+02
      vertex   -2.623097e+02 7.561492e+01 -4.291667e+02
    endloop
  endfacet
  facet normal 6.560819e-01 2.717580e-01 -7.040626e-01
    outer loop
      vertex   -2.623097e+02 7.561492e+01 -4.291667e+02
      vertex   -2.630259e+02 7.475315e+01 -4.301667e+02
      vertex   -2.632756e+02 7.535610e+01 -4.301667e+02
    endloop
  endfacet
  facet normal 9.914449e-01 1.305262e-01 4.328074e-15
    outer loop
      vertex   -2.623097e+02 7.561492e+01 -4.261667e+02
      vertex   -2.623097e+02 7.561492e+01 -4.291667e+02
      vertex   -2.623608e+02 7.600315e+01 -4.261667e+02
    endloop
  endfacet
  facet normal 9.914449e-01 1.305262e-01 4.328074e-15
    outer loop
      vertex   -2.623608e+02 7.600315e+01 -4.261667e+02
      vertex   -2.623097e+02 7.561492e+01 -4.291667e+02
      vertex   -2.623608e+02 7.600315e+01 -4.291667e+02
    endloop
  endfacet
  facet normal 9.914449e-01 -1.305262e-01 -4.328074e-15
    outer loop
      vertex   -2.623608e+02 7.600315e+01 -4.261667e+02
      vertex   -2.623608e+02 7.600315e+01 -4.291667e+02
      vertex   -2.623097e+02 7.639138e+01 -4.261667e+02
    endloop
  endfacet
  facet normal 9.914449e-01 -1.305262e-01 -4.328074e-15
    outer loop
      vertex   -2.623097e+02 7.639138e+01 -4.261667e+02
      vertex   -2.623608e+02 7.600315e+01 -4.291667e+02
      vertex   -2.623097e+02 7.639138e+01 -4.291667e+02
    endloop
  endfacet
  facet normal 9.238795e-01 -3.826834e-01 -1.268927e-14
    outer loop
      vertex   -2.623097e+02 7.639138e+01 -4.261667e+02
      vertex   -2.623097e+02 7.639138e+01 -4.291667e+02
      vertex   -2.621599e+02 7.675315e+01 -4.261667e+02
    endloop
  endfacet
  facet normal 9.238795e-01 -3.826834e-01 -1.268927e-14
    outer loop
      vertex   -2.621599e+02 7.675315e+01 -4.261667e+02
      vertex   -2.623097e+02 7.639138e+01 -4.291667e+02
      vertex   -2.621599e+02 7.675315e+01 -4.291667e+02
    endloop
  endfacet
  facet normal 7.933533e-01 -6.087614e-01 -2.018571e-14
    outer loop
      vertex   -2.621599e+02 7.675315e+01 -4.261667e+02
      vertex   -2.621599e+02 7.675315e+01 -4.291667e+02
      vertex   -2.619215e+02 7.706381e+01 -4.261667e+02
    endloop
  endfacet
  facet normal 7.933533e-01 -6.087614e-01 -2.018571e-14
    outer loop
      vertex   -2.619215e+02 7.706381e+01 -4.261667e+02
      vertex   -2.621599e+02 7.675315e+01 -4.291667e+02
      vertex   -2.619215e+02 7.706381e+01 -4.291667e+02
    endloop
  endfacet
  facet normal 6.087614e-01 -7.933533e-01 -2.630653e-14
    outer loop
      vertex   -2.619215e+02 7.706381e+01 -4.261667e+02
      vertex   -2.619215e+02 7.706381e+01 -4.291667e+02
      vertex   -2.616108e+02 7.730219e+01 -4.261667e+02
    endloop
  endfacet
  facet normal 6.087614e-01 -7.933533e-01 -3.006461e-14
    outer loop
      vertex   -2.616108e+02 7.730219e+01 -4.261667e+02
      vertex   -2.619215e+02 7.706381e+01 -4.291667e+02
      vertex   -2.616108e+02 7.730219e+01 -4.291667e+02
    endloop
  endfacet
  facet normal 3.826834e-01 -9.238795e-01 -3.501098e-14
    outer loop
      vertex   -2.616108e+02 7.730219e+01 -4.261667e+02
      vertex   -2.616108e+02 7.730219e+01 -4.291667e+02
      vertex   -2.612491e+02 7.745204e+01 -4.261667e+02
    endloop
  endfacet
  facet normal 3.826834e-01 -9.238795e-01 -3.063461e-14
    outer loop
      vertex   -2.612491e+02 7.745204e+01 -4.261667e+02
      vertex   -2.616108e+02 7.730219e+01 -4.291667e+02
      vertex   -2.612491e+02 7.745204e+01 -4.291667e+02
    endloop
  endfacet
  facet normal 1.305262e-01 -9.914449e-01 -3.287498e-14
    outer loop
      vertex   -2.612491e+02 7.745204e+01 -4.261667e+02
      vertex   -2.612491e+02 7.745204e+01 -4.291667e+02
      vertex   -2.608608e+02 7.750315e+01 -4.261667e+02
    endloop
  endfacet
  facet normal 1.305262e-01 -9.914449e-01 -3.757141e-14
    outer loop
      vertex   -2.608608e+02 7.750315e+01 -4.261667e+02
      vertex   -2.612491e+02 7.745204e+01 -4.291667e+02
      vertex   -2.608608e+02 7.750315e+01 -4.291667e+02
    endloop
  endfacet
  facet normal -1.305262e-01 -9.914449e-01 -3.757141e-14
    outer loop
      vertex   -2.608608e+02 7.750315e+01 -4.261667e+02
      vertex   -2.608608e+02 7.750315e+01 -4.291667e+02
      vertex   -2.604726e+02 7.745204e+01 -4.261667e+02
    endloop
  endfacet
  facet normal -1.305262e-01 -9.914449e-01 -3.287498e-14
    outer loop
      vertex   -2.604726e+02 7.745204e+01 -4.261667e+02
      vertex   -2.608608e+02 7.750315e+01 -4.291667e+02
      vertex   -2.604726e+02 7.745204e+01 -4.291667e+02
    endloop
  endfacet
  facet normal -3.826834e-01 -9.238795e-01 -3.063461e-14
    outer loop
      vertex   -2.604726e+02 7.745204e+01 -4.261667e+02
      vertex   -2.604726e+02 7.745204e+01 -4.291667e+02
      vertex   -2.601108e+02 7.730219e+01 -4.261667e+02
    endloop
  endfacet
  facet normal -3.826834e-01 -9.238795e-01 -3.501098e-14
    outer loop
      vertex   -2.601108e+02 7.730219e+01 -4.261667e+02
      vertex   -2.604726e+02 7.745204e+01 -4.291667e+02
      vertex   -2.601108e+02 7.730219e+01 -4.291667e+02
    endloop
  endfacet
  facet normal -6.087614e-01 -7.933533e-01 -3.006461e-14
    outer loop
      vertex   -2.601108e+02 7.730219e+01 -4.261667e+02
      vertex   -2.601108e+02 7.730219e+01 -4.291667e+02
      vertex   -2.598002e+02 7.706381e+01 -4.261667e+02
    endloop
  endfacet
  facet normal -6.087614e-01 -7.933533e-01 -2.630653e-14
    outer loop
      vertex   -2.598002e+02 7.706381e+01 -4.261667e+02
      vertex   -2.601108e+02 7.730219e+01 -4.291667e+02
      vertex   -2.598002e+02 7.706381e+01 -4.291667e+02
    endloop
  endfacet
  facet normal -7.933533e-01 -6.087614e-01 -2.018571e-14
    outer loop
      vertex   -2.598002e+02 7.706381e+01 -4.261667e+02
      vertex   -2.598002e+02 7.706381e+01 -4.291667e+02
      vertex   -2.595618e+02 7.675315e+01 -4.261667e+02
    endloop
  endfacet
  facet normal -7.933533e-01 -6.087614e-01 -2.018571e-14
    outer loop
      vertex   -2.595618e+02 7.675315e+01 -4.261667e+02
      vertex   -2.598002e+02 7.706381e+01 -4.291667e+02
      vertex   -2.595618e+02 7.675315e+01 -4.291667e+02
    endloop
  endfacet
  facet normal -9.238795e-01 -3.826834e-01 -1.268927e-14
    outer loop
      vertex   -2.595618e+02 7.675315e+01 -4.261667e+02
      vertex   -2.595618e+02 7.675315e+01 -4.291667e+02
      vertex   -2.594119e+02 7.639138e+01 -4.261667e+02
    endloop
  endfacet
  facet normal -9.238795e-01 -3.826834e-01 -1.268927e-14
    outer loop
      vertex   -2.594119e+02 7.639138e+01 -4.261667e+02
      vertex   -2.595618e+02 7.675315e+01 -4.291667e+02
      vertex   -2.594119e+02 7.639138e+01 -4.291667e+02
    endloop
  endfacet
  facet normal -9.914449e-01 -1.305262e-01 -4.328074e-15
    outer loop
      vertex   -2.594119e+02 7.639138e+01 -4.261667e+02
      vertex   -2.594119e+02 7.639138e+01 -4.291667e+02
      vertex   -2.593608e+02 7.600315e+01 -4.261667e+02
    endloop
  endfacet
  facet normal -9.914449e-01 -1.305262e-01 -4.328074e-15
    outer loop
      vertex   -2.593608e+02 7.600315e+01 -4.261667e+02
      vertex   -2.594119e+02 7.639138e+01 -4.291667e+02
      vertex   -2.593608e+02 7.600315e+01 -4.291667e+02
    endloop
  endfacet
  facet normal -9.914449e-01 1.305262e-01 4.328074e-15
    outer loop
      vertex   -2.593608e+02 7.600315e+01 -4.261667e+02
      vertex   -2.593608e+02 7.600315e+01 -4.291667e+02
      vertex   -2.594119e+02 7.561492e+01 -4.261667e+02
    endloop
  endfacet
  facet normal -9.914449e-01 1.305262e-01 4.328074e-15
    outer loop
      vertex   -2.594119e+02 7.561492e+01 -4.261667e+02
      vertex   -2.593608e+02 7.600315e+01 -4.291667e+02
      vertex   -2.594119e+02 7.561492e+01 -4.291667e+02
    endloop
  endfacet
  facet normal -9.238795e-01 3.826834e-01 1.268927e-14
    outer loop
      vertex   -2.594119e+02 7.561492e+01 -4.261667e+02
      vertex   -2.594119e+02 7.561492e+01 -4.291667e+02
      vertex   -2.595618e+02 7.525315e+01 -4.261667e+02
    endloop
  endfacet
  facet normal -9.238795e-01 3.826834e-01 1.450202e-14
    outer loop
      vertex   -2.595618e+02 7.525315e+01 -4.261667e+02
      vertex   -2.594119e+02 7.561492e+01 -4.291667e+02
      vertex   -2.595618e+02 7.525315e+01 -4.291667e+02
    endloop
  endfacet
  facet normal -7.933533e-01 6.087614e-01 2.306939e-14
    outer loop
      vertex   -2.595618e+02 7.525315e+01 -4.261667e+02
      vertex   -2.595618e+02 7.525315e+01 -4.291667e+02
      vertex   -2.598002e+02 7.494249e+01 -4.261667e+02
    endloop
  endfacet
  facet normal -7.933533e-01 6.087614e-01 2.306939e-14
    outer loop
      vertex   -2.598002e+02 7.494249e+01 -4.261667e+02
      vertex   -2.595618e+02 7.525315e+01 -4.291667e+02
      vertex   -2.598002e+02 7.494249e+01 -4.291667e+02
    endloop
  endfacet
  facet normal -6.087614e-01 7.933533e-01 3.006461e-14
    outer loop
      vertex   -2.598002e+02 7.494249e+01 -4.261667e+02
      vertex   -2.598002e+02 7.494249e+01 -4.291667e+02
      vertex   -2.601108e+02 7.470411e+01 -4.261667e+02
    endloop
  endfacet
  facet normal -6.087614e-01 7.933533e-01 2.630653e-14
    outer loop
      vertex   -2.601108e+02 7.470411e+01 -4.261667e+02
      vertex   -2.598002e+02 7.494249e+01 -4.291667e+02
      vertex   -2.601108e+02 7.470411e+01 -4.291667e+02
    endloop
  endfacet
  facet normal -3.826834e-01 9.238795e-01 3.063461e-14
    outer loop
      vertex   -2.601108e+02 7.470411e+01 -4.261667e+02
      vertex   -2.601108e+02 7.470411e+01 -4.291667e+02
      vertex   -2.604726e+02 7.455426e+01 -4.261667e+02
    endloop
  endfacet
  facet normal -3.826834e-01 9.238795e-01 3.501098e-14
    outer loop
      vertex   -2.604726e+02 7.455426e+01 -4.261667e+02
      vertex   -2.601108e+02 7.470411e+01 -4.291667e+02
      vertex   -2.604726e+02 7.455426e+01 -4.291667e+02
    endloop
  endfacet
  facet normal -1.305262e-01 9.914449e-01 3.757141e-14
    outer loop
      vertex   -2.604726e+02 7.455426e+01 -4.261667e+02
      vertex   -2.604726e+02 7.455426e+01 -4.291667e+02
      vertex   -2.608608e+02 7.450315e+01 -4.261667e+02
    endloop
  endfacet
  facet normal -1.305262e-01 9.914449e-01 3.287498e-14
    outer loop
      vertex   -2.608608e+02 7.450315e+01 -4.261667e+02
      vertex   -2.604726e+02 7.455426e+01 -4.291667e+02
      vertex   -2.608608e+02 7.450315e+01 -4.291667e+02
    endloop
  endfacet
  facet normal 1.305262e-01 9.914449e-01 3.287498e-14
    outer loop
      vertex   -2.608608e+02 7.450315e+01 -4.261667e+02
      vertex   -2.608608e+02 7.450315e+01 -4.291667e+02
      vertex   -2.612491e+02 7.455426e+01 -4.261667e+02
    endloop
  endfacet
  facet normal 1.305262e-01 9.914449e-01 3.757141e-14
    outer loop
      vertex   -2.612491e+02 7.455426e+01 -4.261667e+02
      vertex   -2.608608e+02 7.450315e+01 -4.291667e+02
      vertex   -2.612491e+02 7.455426e+01 -4.291667e+02
    endloop
  endfacet
  facet normal 3.826834e-01 9.238795e-01 3.501098e-14
    outer loop
      vertex   -2.612491e+02 7.455426e+01 -4.261667e+02
      vertex   -2.612491e+02 7.455426e+01 -4.291667e+02
      vertex   -2.616108e+02 7.470411e+01 -4.261667e+02
    endloop
  endfacet
  facet normal 3.826834e-01 9.238795e-01 3.063461e-14
    outer loop
      vertex   -2.616108e+02 7.470411e+01 -4.261667e+02
      vertex   -2.612491e+02 7.455426e+01 -4.291667e+02
      vertex   -2.616108e+02 7.470411e+01 -4.291667e+02
    endloop
  endfacet
  facet normal 6.087614e-01 7.933533e-01 2.630653e-14
    outer loop
      vertex   -2.616108e+02 7.470411e+01 -4.261667e+02
      vertex   -2.616108e+02 7.470411e+01 -4.291667e+02
      vertex   -2.619215e+02 7.494249e+01 -4.261667e+02
    endloop
  endfacet
  facet normal 6.087614e-01 7.933533e-01 3.006461e-14
    outer loop
      vertex   -2.619215e+02 7.494249e+01 -4.261667e+02
      vertex   -2.616108e+02 7.470411e+01 -4.291667e+02
      vertex   -2.619215e+02 7.494249e+01 -4.291667e+02
    endloop
  endfacet
  facet normal 7.933533e-01 6.087614e-01 2.306939e-14
    outer loop
      vertex   -2.619215e+02 7.494249e+01 -4.261667e+02
      vertex   -2.619215e+02 7.494249e+01 -4.291667e+02
      vertex   -2.621599e+02 7.525315e+01 -4.261667e+02
    endloop
  endfacet
  facet normal 7.933533e-01 6.087614e-01 2.306939e-14
    outer loop
      vertex   -2.621599e+02 7.525315e+01 -4.261667e+02
      vertex   -2.619215e+02 7.494249e+01 -4.291667e+02
      vertex   -2.621599e+02 7.525315e+01 -4.291667e+02
    endloop
  endfacet
  facet normal 9.238795e-01 3.826834e-01 1.450202e-14
    outer loop
      vertex   -2.621599e+02 7.525315e+01 -4.261667e+02
      vertex   -2.621599e+02 7.525315e+01 -4.291667e+02
      vertex   -2.623097e+02 7.561492e+01 -4.261667e+02
    endloop
  endfacet
  facet normal 9.238795e-01 3.826834e-01 1.268927e-14
    outer loop
      vertex   -2.623097e+02 7.561492e+01 -4.261667e+02
      vertex   -2.621599e+02 7.525315e+01 -4.291667e+02
      vertex   -2.623097e+02 7.561492e+01 -4.291667e+02
    endloop
  endfacet
  facet normal 0.000000e+00 0.000000e+00 -1.000000e+00
    outer loop
      vertex   -2.684608e+02 7.232887e+01 -4.301667e+02
      vertex   -2.608608e+02 7.350315e+01 -4.301667e+02
      vertex   -2.532608e+02 7.232887e+01 -4.301667e+02
    endloop
  endfacet
  facet normal 0.000000e+00 0.000000e+00 -1.000000e+00
    outer loop
      vertex   -2.532608e+02 7.232887e+01 -4.301667e+02
      vertex   -2.608608e+02 7.350315e+01 -4.301667e+02
      vertex   -2.602138e+02 7.358834e+01 -4.301667e+02
    endloop
  endfacet
  facet normal 0.000000e+00 0.000000e+00 -1.000000e+00
    outer loop
      vertex   -2.532608e+02 7.232887e+01 -4.301667e+02
      vertex   -2.602138e+02 7.358834e+01 -4.301667e+02
      vertex   -2.596108e+02 7.383809e+01 -4.301667e+02
    endloop
  endfacet
  facet normal 0.000000e+00 0.000000e+00 -1.000000e+00
    outer loop
      vertex   -2.684608e+02 8.432887e+01 -4.301667e+02
      vertex   -2.632756e+02 7.665020e+01 -4.301667e+02
      vertex   -2.684608e+02 7.232887e+01 -4.301667e+02
    endloop
  endfacet
  facet normal 0.000000e+00 0.000000e+00 -1.000000e+00
    outer loop
      vertex   -2.684608e+02 7.232887e+01 -4.301667e+02
      vertex   -2.632756e+02 7.665020e+01 -4.301667e+02
      vertex   -2.633608e+02 7.600315e+01 -4.301667e+02
    endloop
  endfacet
  facet normal 0.000000e+00 0.000000e+00 -1.000000e+00
    outer loop
      vertex   -2.684608e+02 7.232887e+01 -4.301667e+02
      vertex   -2.633608e+02 7.600315e+01 -4.301667e+02
      vertex   -2.632756e+02 7.535610e+01 -4.301667e+02
    endloop
  endfacet
  facet normal -0.000000e+00 0.000000e+00 -1.000000e+00
    outer loop
      vertex   -2.532608e+02 8.432887e+01 -4.301667e+02
      vertex   -2.608608e+02 7.850315e+01 -4.301667e+02
      vertex   -2.684608e+02 8.432887e+01 -4.301667e+02
    endloop
  endfacet
  facet normal 0.000000e+00 0.000000e+00 -1.000000e+00
    outer loop
      vertex   -2.684608e+02 8.432887e+01 -4.301667e+02
      vertex   -2.608608e+02 7.850315e+01 -4.301667e+02
      vertex   -2.615079e+02 7.841797e+01 -4.301667e+02
    endloop
  endfacet
  facet normal 0.000000e+00 0.000000e+00 -1.000000e+00
    outer loop
      vertex   -2.684608e+02 8.432887e+01 -4.301667e+02
      vertex   -2.615079e+02 7.841797e+01 -4.301667e+02
      vertex   -2.621108e+02 7.816821e+01 -4.301667e+02
    endloop
  endfacet
  facet normal 0.000000e+00 0.000000e+00 -1.000000e+00
    outer loop
      vertex   -2.532608e+02 7.232887e+01 -4.301667e+02
      vertex   -2.584460e+02 7.665020e+01 -4.301667e+02
      vertex   -2.532608e+02 8.432887e+01 -4.301667e+02
    endloop
  endfacet
  facet normal 0.000000e+00 0.000000e+00 -1.000000e+00
    outer loop
      vertex   -2.532608e+02 8.432887e+01 -4.301667e+02
      vertex   -2.584460e+02 7.665020e+01 -4.301667e+02
      vertex   -2.586958e+02 7.725315e+01 -4.301667e+02
    endloop
  endfacet
  facet normal 0.000000e+00 0.000000e+00 -1.000000e+00
    outer loop
      vertex   -2.532608e+02 8.432887e+01 -4.301667e+02
      vertex   -2.586958e+02 7.725315e+01 -4.301667e+02
      vertex   -2.590931e+02 7.777092e+01 -4.301667e+02
    endloop
  endfacet
  facet normal 0.000000e+00 -0.000000e+00 -1.000000e+00
    outer loop
      vertex   -2.632756e+02 7.535610e+01 -4.301667e+02
      vertex   -2.630259e+02 7.475315e+01 -4.301667e+02
      vertex   -2.684608e+02 7.232887e+01 -4.301667e+02
    endloop
  endfacet
  facet normal 0.000000e+00 0.000000e+00 -1.000000e+00
    outer loop
      vertex   -2.684608e+02 7.232887e+01 -4.301667e+02
      vertex   -2.630259e+02 7.475315e+01 -4.301667e+02
      vertex   -2.626286e+02 7.423538e+01 -4.301667e+02
    endloop
  endfacet
  facet normal 0.000000e+00 0.000000e+00 -1.000000e+00
    outer loop
      vertex   -2.684608e+02 7.232887e+01 -4.301667e+02
      vertex   -2.626286e+02 7.423538e+01 -4.301667e+02
      vertex   -2.621108e+02 7.383809e+01 -4.301667e+02
    endloop
  endfacet
  facet normal 0.000000e+00 -0.000000e+00 -1.000000e+00
    outer loop
      vertex   -2.621108e+02 7.383809e+01 -4.301667e+02
      vertex   -2.615079e+02 7.358834e+01 -4.301667e+02
      vertex   -2.684608e+02 7.232887e+01 -4.301667e+02
    endloop
  endfacet
  facet normal 0.000000e+00 0.000000e+00 -1.000000e+00
    outer loop
      vertex   -2.684608e+02 7.232887e+01 -4.301667e+02
      vertex   -2.615079e+02 7.358834e+01 -4.301667e+02
      vertex   -2.608608e+02 7.350315e+01 -4.301667e+02
    endloop
  endfacet
  facet normal 0.000000e+00 0.000000e+00 -1.000000e+00
    outer loop
      vertex   -2.596108e+02 7.383809e+01 -4.301667e+02
      vertex   -2.590931e+02 7.423538e+01 -4.301667e+02
      vertex   -2.532608e+02 7.232887e+01 -4.301667e+02
    endloop
  endfacet
  facet normal 0.000000e+00 0.000000e+00 -1.000000e+00
    outer loop
      vertex   -2.532608e+02 7.232887e+01 -4.301667e+02
      vertex   -2.590931e+02 7.423538e+01 -4.301667e+02
      vertex   -2.586958e+02 7.475315e+01 -4.301667e+02
    endloop
  endfacet
  facet normal 0.000000e+00 0.000000e+00 -1.000000e+00
    outer loop
      vertex   -2.532608e+02 7.232887e+01 -4.301667e+02
      vertex   -2.586958e+02 7.475315e+01 -4.301667e+02
      vertex   -2.584460e+02 7.535610e+01 -4.301667e+02
    endloop
  endfacet
  facet normal 0.000000e+00 0.000000e+00 -1.000000e+00
    outer loop
      vertex   -2.584460e+02 7.535610e+01 -4.301667e+02
      vertex   -2.583608e+02 7.600315e+01 -4.301667e+02
      vertex   -2.532608e+02 7.232887e+01 -4.301667e+02
    endloop
  endfacet
  facet normal 0.000000e+00 0.000000e+00 -1.000000e+00
    outer loop
      vertex   -2.532608e+02 7.232887e+01 -4.301667e+02
      vertex   -2.583608e+02 7.600315e+01 -4.301667e+02
      vertex   -2.584460e+02 7.665020e+01 -4.301667e+02
    endloop
  endfacet
  facet normal 0.000000e+00 0.000000e+00 -1.000000e+00
    outer loop
      vertex   -2.590931e+02 7.777092e+01 -4.301667e+02
      vertex   -2.596108e+02 7.816821e+01 -4.301667e+02
      vertex   -2.532608e+02 8.432887e+01 -4.301667e+02
    endloop
  endfacet
  facet normal 0.000000e+00 0.000000e+00 -1.000000e+00
    outer loop
      vertex   -2.532608e+02 8.432887e+01 -4.301667e+02
      vertex   -2.596108e+02 7.816821e+01 -4.301667e+02
      vertex   -2.602138e+02 7.841797e+01 -4.301667e+02
    endloop
  endfacet
  facet normal 0.000000e+00 0.000000e+00 -1.000000e+00
    outer loop
      vertex   -2.532608e+02 8.432887e+01 -4.301667e+02
      vertex   -2.602138e+02 7.841797e+01 -4.301667e+02
      vertex   -2.608608e+02 7.850315e+01 -4.301667e+02
    endloop
  endfacet
  facet normal -0.000000e+00 0.000000e+00 -1.000000e+00
    outer loop
      vertex   -2.621108e+02 7.816821e+01 -4.301667e+02
      vertex   -2.626286e+02 7.777092e+01 -4.301667e+02
      vertex   -2.684608e+02 8.432887e+01 -4.301667e+02
    endloop
  endfacet
  facet normal 0.000000e+00 0.000000e+00 -1.000000e+00
    outer loop
      vertex   -2.684608e+02 8.432887e+01 -4.301667e+02
      vertex   -2.626286e+02 7.777092e+01 -4.301667e+02
      vertex   -2.630259e+02 7.725315e+01 -4.301667e+02
    endloop
  endfacet
  facet normal 0.000000e+00 0.000000e+00 -1.000000e+00
    outer loop
      vertex   -2.684608e+02 8.432887e+01 -4.301667e+02
      vertex   -2.630259e+02 7.725315e+01 -4.301667e+02
      vertex   -2.632756e+02 7.665020e+01 -4.301667e+02
    endloop
  endfacet
  facet normal -7.040626e-01 7.040626e-01 -9.269160e-02
    outer loop
      vertex   -2.589290e+02 6.632887e+01 -4.356490e+02
      vertex   -2.579630e+02 6.732887e+01 -4.353902e+02
      vertex   -2.588608e+02 6.632887e+01 -4.361667e+02
    endloop
  endfacet
  facet normal -7.040626e-01 7.040626e-01 -9.269160e-02
    outer loop
      vertex   -2.588608e+02 6.632887e+01 -4.361667e+02
      vertex   -2.579630e+02 6.732887e+01 -4.353902e+02
      vertex   -2.578608e+02 6.732887e+01 -4.361667e+02
    endloop
  endfacet
  facet normal -7.040626e-01 7.040626e-01 9.269160e-02
    outer loop
      vertex   -2.588608e+02 6.632887e+01 -4.361667e+02
      vertex   -2.578608e+02 6.732887e+01 -4.361667e+02
      vertex   -2.589290e+02 6.632887e+01 -4.366843e+02
    endloop
  endfacet
  facet normal -7.040626e-01 7.040626e-01 9.269160e-02
    outer loop
      vertex   -2.589290e+02 6.632887e+01 -4.366843e+02
      vertex   -2.578608e+02 6.732887e+01 -4.361667e+02
      vertex   -2.579630e+02 6.732887e+01 -4.369431e+02
    endloop
  endfacet
  facet normal -6.560819e-01 7.040626e-01 2.717580e-01
    outer loop
      vertex   -2.589290e+02 6.632887e+01 -4.366843e+02
      vertex   -2.579630e+02 6.732887e+01 -4.369431e+02
      vertex   -2.591288e+02 6.632887e+01 -4.371667e+02
    endloop
  endfacet
  facet normal -6.560819e-01 7.040626e-01 2.717580e-01
    outer loop
      vertex   -2.591288e+02 6.632887e+01 -4.371667e+02
      vertex   -2.579630e+02 6.732887e+01 -4.369431e+02
      vertex   -2.582627e+02 6.732887e+01 -4.376667e+02
    endloop
  endfacet
  facet normal -5.633903e-01 7.040626e-01 4.323046e-01
    outer loop
      vertex   -2.591288e+02 6.632887e+01 -4.371667e+02
      vertex   -2.582627e+02 6.732887e+01 -4.376667e+02
      vertex   -2.594466e+02 6.632887e+01 -4.375809e+02
    endloop
  endfacet
  facet normal -5.633903e-01 7.040626e-01 4.323046e-01
    outer loop
      vertex   -2.594466e+02 6.632887e+01 -4.375809e+02
      vertex   -2.582627e+02 6.732887e+01 -4.376667e+02
      vertex   -2.587395e+02 6.732887e+01 -4.382880e+02
    endloop
  endfacet
  facet normal -4.323046e-01 7.040626e-01 5.633903e-01
    outer loop
      vertex   -2.594466e+02 6.632887e+01 -4.375809e+02
      vertex   -2.587395e+02 6.732887e+01 -4.382880e+02
      vertex   -2.598608e+02 6.632887e+01 -4.378987e+02
    endloop
  endfacet
  facet normal -4.323046e-01 7.040626e-01 5.633903e-01
    outer loop
      vertex   -2.598608e+02 6.632887e+01 -4.378987e+02
      vertex   -2.587395e+02 6.732887e+01 -4.382880e+02
      vertex   -2.593608e+02 6.732887e+01 -4.387647e+02
    endloop
  endfacet
  facet normal -2.717580e-01 7.040626e-01 6.560819e-01
    outer loop
      vertex   -2.598608e+02 6.632887e+01 -4.378987e+02
      vertex   -2.593608e+02 6.732887e+01 -4.387647e+02
      vertex   -2.603432e+02 6.632887e+01 -4.380985e+02
    endloop
  endfacet
  facet normal -2.717580e-01 7.040626e-01 6.560819e-01
    outer loop
      vertex   -2.603432e+02 6.632887e+01 -4.380985e+02
      vertex   -2.593608e+02 6.732887e+01 -4.387647e+02
      vertex   -2.600844e+02 6.732887e+01 -4.390644e+02
    endloop
  endfacet
  facet normal -9.269160e-02 7.040626e-01 7.040626e-01
    outer loop
      vertex   -2.603432e+02 6.632887e+01 -4.380985e+02
      vertex   -2.600844e+02 6.732887e+01 -4.390644e+02
      vertex   -2.608608e+02 6.632887e+01 -4.381667e+02
    endloop
  endfacet
  facet normal -9.269160e-02 7.040626e-01 7.040626e-01
    outer loop
      vertex   -2.608608e+02 6.632887e+01 -4.381667e+02
      vertex   -2.600844e+02 6.732887e+01 -4.390644e+02
      vertex   -2.608608e+02 6.732887e+01 -4.391667e+02
    endloop
  endfacet
  facet normal 9.269160e-02 7.040626e-01 7.040626e-01
    outer loop
      vertex   -2.608608e+02 6.632887e+01 -4.381667e+02
      vertex   -2.608608e+02 6.732887e+01 -4.391667e+02
      vertex   -2.613785e+02 6.632887e+01 -4.380985e+02
    endloop
  endfacet
  facet normal 9.269160e-02 7.040626e-01 7.040626e-01
    outer loop
      vertex   -2.613785e+02 6.632887e+01 -4.380985e+02
      vertex   -2.608608e+02 6.732887e+01 -4.391667e+02
      vertex   -2.616373e+02 6.732887e+01 -4.390644e+02
    endloop
  endfacet
  facet normal 2.717580e-01 7.040626e-01 6.560819e-01
    outer loop
      vertex   -2.613785e+02 6.632887e+01 -4.380985e+02
      vertex   -2.616373e+02 6.732887e+01 -4.390644e+02
      vertex   -2.618608e+02 6.632887e+01 -4.378987e+02
    endloop
  endfacet
  facet normal 2.717580e-01 7.040626e-01 6.560819e-01
    outer loop
      vertex   -2.618608e+02 6.632887e+01 -4.378987e+02
      vertex   -2.616373e+02 6.732887e+01 -4.390644e+02
      vertex   -2.623608e+02 6.732887e+01 -4.387647e+02
    endloop
  endfacet
  facet normal 4.323046e-01 7.040626e-01 5.633903e-01
    outer loop
      vertex   -2.618608e+02 6.632887e+01 -4.378987e+02
      vertex   -2.623608e+02 6.732887e+01 -4.387647e+02
      vertex   -2.622750e+02 6.632887e+01 -4.375809e+02
    endloop
  endfacet
  facet normal 4.323046e-01 7.040626e-01 5.633903e-01
    outer loop
      vertex   -2.622750e+02 6.632887e+01 -4.375809e+02
      vertex   -2.623608e+02 6.732887e+01 -4.387647e+02
      vertex   -2.629821e+02 6.732887e+01 -4.382880e+02
    endloop
  endfacet
  facet normal 5.633903e-01 7.040626e-01 4.323046e-01
    outer loop
      vertex   -2.622750e+02 6.632887e+01 -4.375809e+02
      vertex   -2.629821e+02 6.732887e+01 -4.382880e+02
      vertex   -2.625929e+02 6.632887e+01 -4.371667e+02
    endloop
  endfacet
  facet normal 5.633903e-01 7.040626e-01 4.323046e-01
    outer loop
      vertex   -2.625929e+02 6.632887e+01 -4.371667e+02
      vertex   -2.629821e+02 6.732887e+01 -4.382880e+02
      vertex   -2.634589e+02 6.732887e+01 -4.376667e+02
    endloop
  endfacet
  facet normal 6.560819e-01 7.040626e-01 2.717580e-01
    outer loop
      vertex   -2.625929e+02 6.632887e+01 -4.371667e+02
      vertex   -2.634589e+02 6.732887e+01 -4.376667e+02
      vertex   -2.627927e+02 6.632887e+01 -4.366843e+02
    endloop
  endfacet
  facet normal 6.560819e-01 7.040626e-01 2.717580e-01
    outer loop
      vertex   -2.627927e+02 6.632887e+01 -4.366843e+02
      vertex   -2.634589e+02 6.732887e+01 -4.376667e+02
      vertex   -2.637586e+02 6.732887e+01 -4.369431e+02
    endloop
  endfacet
  facet normal 7.040626e-01 7.040626e-01 9.269160e-02
    outer loop
      vertex   -2.627927e+02 6.632887e+01 -4.366843e+02
      vertex   -2.637586e+02 6.732887e+01 -4.369431e+02
      vertex   -2.628608e+02 6.632887e+01 -4.361667e+02
    endloop
  endfacet
  facet normal 7.040626e-01 7.040626e-01 9.269160e-02
    outer loop
      vertex   -2.628608e+02 6.632887e+01 -4.361667e+02
      vertex   -2.637586e+02 6.732887e+01 -4.369431e+02
      vertex   -2.638608e+02 6.732887e+01 -4.361667e+02
    endloop
  endfacet
  facet normal 7.040626e-01 7.040626e-01 -9.269160e-02
    outer loop
      vertex   -2.628608e+02 6.632887e+01 -4.361667e+02
      vertex   -2.638608e+02 6.732887e+01 -4.361667e+02
      vertex   -2.627927e+02 6.632887e+01 -4.356490e+02
    endloop
  endfacet
  facet normal 7.040626e-01 7.040626e-01 -9.269160e-02
    outer loop
      vertex   -2.627927e+02 6.632887e+01 -4.356490e+02
      vertex   -2.638608e+02 6.732887e+01 -4.361667e+02
      vertex   -2.637586e+02 6.732887e+01 -4.353902e+02
    endloop
  endfacet
  facet normal 6.560819e-01 7.040626e-01 -2.717580e-01
    outer loop
      vertex   -2.627927e+02 6.632887e+01 -4.356490e+02
      vertex   -2.637586e+02 6.732887e+01 -4.353902e+02
      vertex   -2.625929e+02 6.632887e+01 -4.351667e+02
    endloop
  endfacet
  facet normal 6.560819e-01 7.040626e-01 -2.717580e-01
    outer loop
      vertex   -2.625929e+02 6.632887e+01 -4.351667e+02
      vertex   -2.637586e+02 6.732887e+01 -4.353902e+02
      vertex   -2.634589e+02 6.732887e+01 -4.346667e+02
    endloop
  endfacet
  facet normal 5.633903e-01 7.040626e-01 -4.323046e-01
    outer loop
      vertex   -2.625929e+02 6.632887e+01 -4.351667e+02
      vertex   -2.634589e+02 6.732887e+01 -4.346667e+02
      vertex   -2.622750e+02 6.632887e+01 -4.347525e+02
    endloop
  endfacet
  facet normal 5.633903e-01 7.040626e-01 -4.323046e-01
    outer loop
      vertex   -2.622750e+02 6.632887e+01 -4.347525e+02
      vertex   -2.634589e+02 6.732887e+01 -4.346667e+02
      vertex   -2.629821e+02 6.732887e+01 -4.340453e+02
    endloop
  endfacet
  facet normal 4.323046e-01 7.040626e-01 -5.633903e-01
    outer loop
      vertex   -2.622750e+02 6.632887e+01 -4.347525e+02
      vertex   -2.629821e+02 6.732887e+01 -4.340453e+02
      vertex   -2.618608e+02 6.632887e+01 -4.344346e+02
    endloop
  endfacet
  facet normal 4.323046e-01 7.040626e-01 -5.633903e-01
    outer loop
      vertex   -2.618608e+02 6.632887e+01 -4.344346e+02
      vertex   -2.629821e+02 6.732887e+01 -4.340453e+02
      vertex   -2.623608e+02 6.732887e+01 -4.335686e+02
    endloop
  endfacet
  facet normal 2.717580e-01 7.040626e-01 -6.560819e-01
    outer loop
      vertex   -2.618608e+02 6.632887e+01 -4.344346e+02
      vertex   -2.623608e+02 6.732887e+01 -4.335686e+02
      vertex   -2.613785e+02 6.632887e+01 -4.342348e+02
    endloop
  endfacet
  facet normal 2.717580e-01 7.040626e-01 -6.560819e-01
    outer loop
      vertex   -2.613785e+02 6.632887e+01 -4.342348e+02
      vertex   -2.623608e+02 6.732887e+01 -4.335686e+02
      vertex   -2.616373e+02 6.732887e+01 -4.332689e+02
    endloop
  endfacet
  facet normal 9.269160e-02 7.040626e-01 -7.040626e-01
    outer loop
      vertex   -2.613785e+02 6.632887e+01 -4.342348e+02
      vertex   -2.616373e+02 6.732887e+01 -4.332689e+02
      vertex   -2.608608e+02 6.632887e+01 -4.341667e+02
    endloop
  endfacet
  facet normal 9.269160e-02 7.040626e-01 -7.040626e-01
    outer loop
      vertex   -2.608608e+02 6.632887e+01 -4.341667e+02
      vertex   -2.616373e+02 6.732887e+01 -4.332689e+02
      vertex   -2.608608e+02 6.732887e+01 -4.331667e+02
    endloop
  endfacet
  facet normal -9.269160e-02 7.040626e-01 -7.040626e-01
    outer loop
      vertex   -2.608608e+02 6.632887e+01 -4.341667e+02
      vertex   -2.608608e+02 6.732887e+01 -4.331667e+02
      vertex   -2.603432e+02 6.632887e+01 -4.342348e+02
    endloop
  endfacet
  facet normal -9.269160e-02 7.040626e-01 -7.040626e-01
    outer loop
      vertex   -2.603432e+02 6.632887e+01 -4.342348e+02
      vertex   -2.608608e+02 6.732887e+01 -4.331667e+02
      vertex   -2.600844e+02 6.732887e+01 -4.332689e+02
    endloop
  endfacet
  facet normal -2.717580e-01 7.040626e-01 -6.560819e-01
    outer loop
      vertex   -2.603432e+02 6.632887e+01 -4.342348e+02
      vertex   -2.600844e+02 6.732887e+01 -4.332689e+02
      vertex   -2.598608e+02 6.632887e+01 -4.344346e+02
    endloop
  endfacet
  facet normal -2.717580e-01 7.040626e-01 -6.560819e-01
    outer loop
      vertex   -2.598608e+02 6.632887e+01 -4.344346e+02
      vertex   -2.600844e+02 6.732887e+01 -4.332689e+02
      vertex   -2.593608e+02 6.732887e+01 -4.335686e+02
    endloop
  endfacet
  facet normal -4.323046e-01 7.040626e-01 -5.633903e-01
    outer loop
      vertex   -2.598608e+02 6.632887e+01 -4.344346e+02
      vertex   -2.593608e+02 6.732887e+01 -4.335686e+02
      vertex   -2.594466e+02 6.632887e+01 -4.347525e+02
    endloop
  endfacet
  facet normal -4.323046e-01 7.040626e-01 -5.633903e-01
    outer loop
      vertex   -2.594466e+02 6.632887e+01 -4.347525e+02
      vertex   -2.593608e+02 6.732887e+01 -4.335686e+02
      vertex   -2.587395e+02 6.732887e+01 -4.340453e+02
    endloop
  endfacet
  facet normal -5.633903e-01 7.040626e-01 -4.323046e-01
    outer loop
      vertex   -2.594466e+02 6.632887e+01 -4.347525e+02
      vertex   -2.587395e+02 6.732887e+01 -4.340453e+02
      vertex   -2.591288e+02 6.632887e+01 -4.351667e+02
    endloop
  endfacet
  facet normal -5.633903e-01 7.040626e-01 -4.323046e-01
    outer loop
      vertex   -2.591288e+02 6.632887e+01 -4.351667e+02
      vertex   -2.587395e+02 6.732887e+01 -4.340453e+02
      vertex   -2.582627e+02 6.732887e+01 -4.346667e+02
    endloop
  endfacet
  facet normal -6.560819e-01 7.040626e-01 -2.717580e-01
    outer loop
      vertex   -2.591288e+02 6.632887e+01 -4.351667e+02
      vertex   -2.582627e+02 6.732887e+01 -4.346667e+02
      vertex   -2.589290e+02 6.632887e+01 -4.356490e+02
    endloop
  endfacet
  facet normal -6.560819e-01 7.040626e-01 -2.717580e-01
    outer loop
      vertex   -2.589290e+02 6.632887e+01 -4.356490e+02
      vertex   -2.582627e+02 6.732887e+01 -4.346667e+02
      vertex   -2.579630e+02 6.732887e+01 -4.353902e+02
    endloop
  endfacet
  facet normal 0.000000e+00 1.000000e+00 -4.170565e-13
    outer loop
      vertex   -2.608608e+02 6.732887e+01 -4.331667e+02
      vertex   -2.616373e+02 6.732887e+01 -4.332689e+02
      vertex   -2.684608e+02 6.732887e+01 -4.331667e+02
    endloop
  endfacet
  facet normal 6.029784e-15 1.000000e+00 -1.455719e-14
    outer loop
      vertex   -2.684608e+02 6.732887e+01 -4.331667e+02
      vertex   -2.616373e+02 6.732887e+01 -4.332689e+02
      vertex   -2.623608e+02 6.732887e+01 -4.335686e+02
    endloop
  endfacet
  facet normal 8.244949e-15 1.000000e+00 1.906238e-14
    outer loop
      vertex   -2.684608e+02 6.732887e+01 -4.331667e+02
      vertex   -2.623608e+02 6.732887e+01 -4.335686e+02
      vertex   -2.629821e+02 6.732887e+01 -4.340453e+02
    endloop
  endfacet
  facet normal 7.885514e-15 1.000000e+00 1.682126e-14
    outer loop
      vertex   -2.629821e+02 6.732887e+01 -4.340453e+02
      vertex   -2.634589e+02 6.732887e+01 -4.346667e+02
      vertex   -2.684608e+02 6.732887e+01 -4.331667e+02
    endloop
  endfacet
  facet normal 2.527163e-15 1.000000e+00 -1.046785e-15
    outer loop
      vertex   -2.684608e+02 6.732887e+01 -4.331667e+02
      vertex   -2.634589e+02 6.732887e+01 -4.346667e+02
      vertex   -2.637586e+02 6.732887e+01 -4.353902e+02
    endloop
  endfacet
  facet normal 1.099239e-14 1.000000e+00 1.685500e-14
    outer loop
      vertex   -2.684608e+02 6.732887e+01 -4.331667e+02
      vertex   -2.637586e+02 6.732887e+01 -4.353902e+02
      vertex   -2.638608e+02 6.732887e+01 -4.361667e+02
    endloop
  endfacet
  facet normal 1.305731e-14 1.000000e+00 2.002120e-14
    outer loop
      vertex   -2.638608e+02 6.732887e+01 -4.361667e+02
      vertex   -2.637586e+02 6.732887e+01 -4.369431e+02
      vertex   -2.684608e+02 6.732887e+01 -4.331667e+02
    endloop
  endfacet
  facet normal -4.528688e-15 1.000000e+00 -1.875844e-15
    outer loop
      vertex   -2.684608e+02 6.732887e+01 -4.331667e+02
      vertex   -2.637586e+02 6.732887e+01 -4.369431e+02
      vertex   -2.634589e+02 6.732887e+01 -4.376667e+02
    endloop
  endfacet
  facet normal 1.092722e-14 1.000000e+00 1.530400e-14
    outer loop
      vertex   -2.684608e+02 6.732887e+01 -4.331667e+02
      vertex   -2.634589e+02 6.732887e+01 -4.376667e+02
      vertex   -2.684608e+02 6.732887e+01 -4.461667e+02
    endloop
  endfacet
  facet normal -8.391995e-16 1.000000e+00 2.222809e-14
    outer loop
      vertex   -2.684608e+02 6.732887e+01 -4.461667e+02
      vertex   -2.634589e+02 6.732887e+01 -4.376667e+02
      vertex   -2.629821e+02 6.732887e+01 -4.382880e+02
    endloop
  endfacet
  facet normal -4.084288e-15 1.000000e+00 2.448466e-14
    outer loop
      vertex   -2.684608e+02 6.732887e+01 -4.461667e+02
      vertex   -2.629821e+02 6.732887e+01 -4.382880e+02
      vertex   -2.623608e+02 6.732887e+01 -4.387647e+02
    endloop
  endfacet
  facet normal 6.521508e-15 1.000000e+00 1.574431e-14
    outer loop
      vertex   -2.623608e+02 6.732887e+01 -4.387647e+02
      vertex   -2.616373e+02 6.732887e+01 -4.390644e+02
      vertex   -2.684608e+02 6.732887e+01 -4.461667e+02
    endloop
  endfacet
  facet normal 2.572300e-15 1.000000e+00 1.953856e-14
    outer loop
      vertex   -2.684608e+02 6.732887e+01 -4.461667e+02
      vertex   -2.616373e+02 6.732887e+01 -4.390644e+02
      vertex   -2.608608e+02 6.732887e+01 -4.391667e+02
    endloop
  endfacet
  facet normal -0.000000e+00 1.000000e+00 2.233134e-14
    outer loop
      vertex   -2.684608e+02 6.732887e+01 -4.461667e+02
      vertex   -2.608608e+02 6.732887e+01 -4.391667e+02
      vertex   -2.532608e+02 6.732887e+01 -4.461667e+02
    endloop
  endfacet
  facet normal -2.572300e-15 1.000000e+00 1.953856e-14
    outer loop
      vertex   -2.532608e+02 6.732887e+01 -4.461667e+02
      vertex   -2.608608e+02 6.732887e+01 -4.391667e+02
      vertex   -2.600844e+02 6.732887e+01 -4.390644e+02
    endloop
  endfacet
  facet normal -6.521508e-15 1.000000e+00 1.574431e-14
    outer loop
      vertex   -2.532608e+02 6.732887e+01 -4.461667e+02
      vertex   -2.600844e+02 6.732887e+01 -4.390644e+02
      vertex   -2.593608e+02 6.732887e+01 -4.387647e+02
    endloop
  endfacet
  facet normal 4.084288e-15 1.000000e+00 2.448466e-14
    outer loop
      vertex   -2.593608e+02 6.732887e+01 -4.387647e+02
      vertex   -2.587395e+02 6.732887e+01 -4.382880e+02
      vertex   -2.532608e+02 6.732887e+01 -4.461667e+02
    endloop
  endfacet
  facet normal 8.391995e-16 1.000000e+00 2.222809e-14
    outer loop
      vertex   -2.532608e+02 6.732887e+01 -4.461667e+02
      vertex   -2.587395e+02 6.732887e+01 -4.382880e+02
      vertex   -2.582627e+02 6.732887e+01 -4.376667e+02
    endloop
  endfacet
  facet normal -1.092722e-14 1.000000e+00 1.530400e-14
    outer loop
      vertex   -2.532608e+02 6.732887e+01 -4.461667e+02
      vertex   -2.582627e+02 6.732887e+01 -4.376667e+02
      vertex   -2.532608e+02 6.732887e+01 -4.331667e+02
    endloop
  endfacet
  facet normal 4.528688e-15 1.000000e+00 -1.875844e-15
    outer loop
      vertex   -2.532608e+02 6.732887e+01 -4.331667e+02
      vertex   -2.582627e+02 6.732887e+01 -4.376667e+02
      vertex   -2.579630e+02 6.732887e+01 -4.369431e+02
    endloop
  endfacet
  facet normal -1.305731e-14 1.000000e+00 2.002120e-14
    outer loop
      vertex   -2.532608e+02 6.732887e+01 -4.331667e+02
      vertex   -2.579630e+02 6.732887e+01 -4.369431e+02
      vertex   -2.578608e+02 6.732887e+01 -4.361667e+02
    endloop
  endfacet
  facet normal -1.099239e-14 1.000000e+00 1.685500e-14
    outer loop
      vertex   -2.578608e+02 6.732887e+01 -4.361667e+02
      vertex   -2.579630e+02 6.732887e+01 -4.353902e+02
      vertex   -2.532608e+02 6.732887e+01 -4.331667e+02
    endloop
  endfacet
  facet normal -2.527163e-15 1.000000e+00 -1.046785e-15
    outer loop
      vertex   -2.532608e+02 6.732887e+01 -4.331667e+02
      vertex   -2.579630e+02 6.732887e+01 -4.353902e+02
      vertex   -2.582627e+02 6.732887e+01 -4.346667e+02
    endloop
  endfacet
  facet normal -7.885514e-15 1.000000e+00 1.682126e-14
    outer loop
      vertex   -2.532608e+02 6.732887e+01 -4.331667e+02
      vertex   -2.582627e+02 6.732887e+01 -4.346667e+02
      vertex   -2.587395e+02 6.732887e+01 -4.340453e+02
    endloop
  endfacet
  facet normal -8.244949e-15 1.000000e+00 1.906238e-14
    outer loop
      vertex   -2.587395e+02 6.732887e+01 -4.340453e+02
      vertex   -2.593608e+02 6.732887e+01 -4.335686e+02
      vertex   -2.532608e+02 6.732887e+01 -4.331667e+02
    endloop
  endfacet
  facet normal -6.029784e-15 1.000000e+00 -1.455719e-14
    outer loop
      vertex   -2.532608e+02 6.732887e+01 -4.331667e+02
      vertex   -2.593608e+02 6.732887e+01 -4.335686e+02
      vertex   -2.600844e+02 6.732887e+01 -4.332689e+02
    endloop
  endfacet
  facet normal 0.000000e+00 1.000000e+00 -4.170565e-13
    outer loop
      vertex   -2.532608e+02 6.732887e+01 -4.331667e+02
      vertex   -2.600844e+02 6.732887e+01 -4.332689e+02
      vertex   -2.608608e+02 6.732887e+01 -4.331667e+02
    endloop
  endfacet
  facet normal -9.914449e-01 0.000000e+00 -1.305262e-01
    outer loop
      vertex   -2.589290e+02 6.432887e+01 -4.356490e+02
      vertex   -2.589290e+02 6.632887e+01 -4.356490e+02
      vertex   -2.588608e+02 6.432887e+01 -4.361667e+02
    endloop
  endfacet
  facet normal -9.914449e-01 0.000000e+00 -1.305262e-01
    outer loop
      vertex   -2.588608e+02 6.432887e+01 -4.361667e+02
      vertex   -2.589290e+02 6.632887e+01 -4.356490e+02
      vertex   -2.588608e+02 6.632887e+01 -4.361667e+02
    endloop
  endfacet
  facet normal -9.914449e-01 0.000000e+00 1.305262e-01
    outer loop
      vertex   -2.588608e+02 6.432887e+01 -4.361667e+02
      vertex   -2.588608e+02 6.632887e+01 -4.361667e+02
      vertex   -2.589290e+02 6.432887e+01 -4.366843e+02
    endloop
  endfacet
  facet normal -9.914449e-01 0.000000e+00 1.305262e-01
    outer loop
      vertex   -2.589290e+02 6.432887e+01 -4.366843e+02
      vertex   -2.588608e+02 6.632887e+01 -4.361667e+02
      vertex   -2.589290e+02 6.632887e+01 -4.366843e+02
    endloop
  endfacet
  facet normal -9.238795e-01 0.000000e+00 3.826834e-01
    outer loop
      vertex   -2.589290e+02 6.432887e+01 -4.366843e+02
      vertex   -2.589290e+02 6.632887e+01 -4.366843e+02
      vertex   -2.591288e+02 6.432887e+01 -4.371667e+02
    endloop
  endfacet
  facet normal -9.238795e-01 0.000000e+00 3.826834e-01
    outer loop
      vertex   -2.591288e+02 6.432887e+01 -4.371667e+02
      vertex   -2.589290e+02 6.632887e+01 -4.366843e+02
      vertex   -2.591288e+02 6.632887e+01 -4.371667e+02
    endloop
  endfacet
  facet normal -7.933533e-01 0.000000e+00 6.087614e-01
    outer loop
      vertex   -2.591288e+02 6.432887e+01 -4.371667e+02
      vertex   -2.591288e+02 6.632887e+01 -4.371667e+02
      vertex   -2.594466e+02 6.432887e+01 -4.375809e+02
    endloop
  endfacet
  facet normal -7.933533e-01 0.000000e+00 6.087614e-01
    outer loop
      vertex   -2.594466e+02 6.432887e+01 -4.375809e+02
      vertex   -2.591288e+02 6.632887e+01 -4.371667e+02
      vertex   -2.594466e+02 6.632887e+01 -4.375809e+02
    endloop
  endfacet
  facet normal -6.087614e-01 0.000000e+00 7.933533e-01
    outer loop
      vertex   -2.594466e+02 6.432887e+01 -4.375809e+02
      vertex   -2.594466e+02 6.632887e+01 -4.375809e+02
      vertex   -2.598608e+02 6.432887e+01 -4.378987e+02
    endloop
  endfacet
  facet normal -6.087614e-01 0.000000e+00 7.933533e-01
    outer loop
      vertex   -2.598608e+02 6.432887e+01 -4.378987e+02
      vertex   -2.594466e+02 6.632887e+01 -4.375809e+02
      vertex   -2.598608e+02 6.632887e+01 -4.378987e+02
    endloop
  endfacet
  facet normal -3.826834e-01 0.000000e+00 9.238795e-01
    outer loop
      vertex   -2.598608e+02 6.432887e+01 -4.378987e+02
      vertex   -2.598608e+02 6.632887e+01 -4.378987e+02
      vertex   -2.603432e+02 6.432887e+01 -4.380985e+02
    endloop
  endfacet
  facet normal -3.826834e-01 0.000000e+00 9.238795e-01
    outer loop
      vertex   -2.603432e+02 6.432887e+01 -4.380985e+02
      vertex   -2.598608e+02 6.632887e+01 -4.378987e+02
      vertex   -2.603432e+02 6.632887e+01 -4.380985e+02
    endloop
  endfacet
  facet normal -1.305262e-01 0.000000e+00 9.914449e-01
    outer loop
      vertex   -2.603432e+02 6.432887e+01 -4.380985e+02
      vertex   -2.603432e+02 6.632887e+01 -4.380985e+02
      vertex   -2.608608e+02 6.432887e+01 -4.381667e+02
    endloop
  endfacet
  facet normal -1.305262e-01 0.000000e+00 9.914449e-01
    outer loop
      vertex   -2.608608e+02 6.432887e+01 -4.381667e+02
      vertex   -2.603432e+02 6.632887e+01 -4.380985e+02
      vertex   -2.608608e+02 6.632887e+01 -4.381667e+02
    endloop
  endfacet
  facet normal 1.305262e-01 -0.000000e+00 9.914449e-01
    outer loop
      vertex   -2.608608e+02 6.432887e+01 -4.381667e+02
      vertex   -2.608608e+02 6.632887e+01 -4.381667e+02
      vertex   -2.613785e+02 6.432887e+01 -4.380985e+02
    endloop
  endfacet
  facet normal 1.305262e-01 -0.000000e+00 9.914449e-01
    outer loop
      vertex   -2.613785e+02 6.432887e+01 -4.380985e+02
      vertex   -2.608608e+02 6.632887e+01 -4.381667e+02
      vertex   -2.613785e+02 6.632887e+01 -4.380985e+02
    endloop
  endfacet
  facet normal 3.826834e-01 -0.000000e+00 9.238795e-01
    outer loop
      vertex   -2.613785e+02 6.432887e+01 -4.380985e+02
      vertex   -2.613785e+02 6.632887e+01 -4.380985e+02
      vertex   -2.618608e+02 6.432887e+01 -4.378987e+02
    endloop
  endfacet
  facet normal 3.826834e-01 -0.000000e+00 9.238795e-01
    outer loop
      vertex   -2.618608e+02 6.432887e+01 -4.378987e+02
      vertex   -2.613785e+02 6.632887e+01 -4.380985e+02
      vertex   -2.618608e+02 6.632887e+01 -4.378987e+02
    endloop
  endfacet
  facet normal 6.087614e-01 -0.000000e+00 7.933533e-01
    outer loop
      vertex   -2.618608e+02 6.432887e+01 -4.378987e+02
      vertex   -2.618608e+02 6.632887e+01 -4.378987e+02
      vertex   -2.622750e+02 6.432887e+01 -4.375809e+02
    endloop
  endfacet
  facet normal 6.087614e-01 -0.000000e+00 7.933533e-01
    outer loop
      vertex   -2.622750e+02 6.432887e+01 -4.375809e+02
      vertex   -2.618608e+02 6.632887e+01 -4.378987e+02
      vertex   -2.622750e+02 6.632887e+01 -4.375809e+02
    endloop
  endfacet
  facet normal 7.933533e-01 -0.000000e+00 6.087614e-01
    outer loop
      vertex   -2.622750e+02 6.432887e+01 -4.375809e+02
      vertex   -2.622750e+02 6.632887e+01 -4.375809e+02
      vertex   -2.625929e+02 6.432887e+01 -4.371667e+02
    endloop
  endfacet
  facet normal 7.933533e-01 -0.000000e+00 6.087614e-01
    outer loop
      vertex   -2.625929e+02 6.432887e+01 -4.371667e+02
      vertex   -2.622750e+02 6.632887e+01 -4.375809e+02
      vertex   -2.625929e+02 6.632887e+01 -4.371667e+02
    endloop
  endfacet
  facet normal 9.238795e-01 -0.000000e+00 3.826834e-01
    outer loop
      vertex   -2.625929e+02 6.432887e+01 -4.371667e+02
      vertex   -2.625929e+02 6.632887e+01 -4.371667e+02
      vertex   -2.627927e+02 6.432887e+01 -4.366843e+02
    endloop
  endfacet
  facet normal 9.238795e-01 -0.000000e+00 3.826834e-01
    outer loop
      vertex   -2.627927e+02 6.432887e+01 -4.366843e+02
      vertex   -2.625929e+02 6.632887e+01 -4.371667e+02
      vertex   -2.627927e+02 6.632887e+01 -4.366843e+02
    endloop
  endfacet
  facet normal 9.914449e-01 -0.000000e+00 1.305262e-01
    outer loop
      vertex   -2.627927e+02 6.432887e+01 -4.366843e+02
      vertex   -2.627927e+02 6.632887e+01 -4.366843e+02
      vertex   -2.628608e+02 6.432887e+01 -4.361667e+02
    endloop
  endfacet
  facet normal 9.914449e-01 -0.000000e+00 1.305262e-01
    outer loop
      vertex   -2.628608e+02 6.432887e+01 -4.361667e+02
      vertex   -2.627927e+02 6.632887e+01 -4.366843e+02
      vertex   -2.628608e+02 6.632887e+01 -4.361667e+02
    endloop
  endfacet
  facet normal 9.914449e-01 0.000000e+00 -1.305262e-01
    outer loop
      vertex   -2.628608e+02 6.432887e+01 -4.361667e+02
      vertex   -2.628608e+02 6.632887e+01 -4.361667e+02
      vertex   -2.627927e+02 6.432887e+01 -4.356490e+02
    endloop
  endfacet
  facet normal 9.914449e-01 0.000000e+00 -1.305262e-01
    outer loop
      vertex   -2.627927e+02 6.432887e+01 -4.356490e+02
      vertex   -2.628608e+02 6.632887e+01 -4.361667e+02
      vertex   -2.627927e+02 6.632887e+01 -4.356490e+02
    endloop
  endfacet
  facet normal 9.238795e-01 0.000000e+00 -3.826834e-01
    outer loop
      vertex   -2.627927e+02 6.432887e+01 -4.356490e+02
      vertex   -2.627927e+02 6.632887e+01 -4.356490e+02
      vertex   -2.625929e+02 6.432887e+01 -4.351667e+02
    endloop
  endfacet
  facet normal 9.238795e-01 0.000000e+00 -3.826834e-01
    outer loop
      vertex   -2.625929e+02 6.432887e+01 -4.351667e+02
      vertex   -2.627927e+02 6.632887e+01 -4.356490e+02
      vertex   -2.625929e+02 6.632887e+01 -4.351667e+02
    endloop
  endfacet
  facet normal 7.933533e-01 0.000000e+00 -6.087614e-01
    outer loop
      vertex   -2.625929e+02 6.432887e+01 -4.351667e+02
      vertex   -2.625929e+02 6.632887e+01 -4.351667e+02
      vertex   -2.622750e+02 6.432887e+01 -4.347525e+02
    endloop
  endfacet
  facet normal 7.933533e-01 0.000000e+00 -6.087614e-01
    outer loop
      vertex   -2.622750e+02 6.432887e+01 -4.347525e+02
      vertex   -2.625929e+02 6.632887e+01 -4.351667e+02
      vertex   -2.622750e+02 6.632887e+01 -4.347525e+02
    endloop
  endfacet
  facet normal 6.087614e-01 0.000000e+00 -7.933533e-01
    outer loop
      vertex   -2.622750e+02 6.432887e+01 -4.347525e+02
      vertex   -2.622750e+02 6.632887e+01 -4.347525e+02
      vertex   -2.618608e+02 6.432887e+01 -4.344346e+02
    endloop
  endfacet
  facet normal 6.087614e-01 0.000000e+00 -7.933533e-01
    outer loop
      vertex   -2.618608e+02 6.432887e+01 -4.344346e+02
      vertex   -2.622750e+02 6.632887e+01 -4.347525e+02
      vertex   -2.618608e+02 6.632887e+01 -4.344346e+02
    endloop
  endfacet
  facet normal 3.826834e-01 0.000000e+00 -9.238795e-01
    outer loop
      vertex   -2.618608e+02 6.432887e+01 -4.344346e+02
      vertex   -2.618608e+02 6.632887e+01 -4.344346e+02
      vertex   -2.613785e+02 6.432887e+01 -4.342348e+02
    endloop
  endfacet
  facet normal 3.826834e-01 0.000000e+00 -9.238795e-01
    outer loop
      vertex   -2.613785e+02 6.432887e+01 -4.342348e+02
      vertex   -2.618608e+02 6.632887e+01 -4.344346e+02
      vertex   -2.613785e+02 6.632887e+01 -4.342348e+02
    endloop
  endfacet
  facet normal 1.305262e-01 0.000000e+00 -9.914449e-01
    outer loop
      vertex   -2.613785e+02 6.432887e+01 -4.342348e+02
      vertex   -2.613785e+02 6.632887e+01 -4.342348e+02
      vertex   -2.608608e+02 6.432887e+01 -4.341667e+02
    endloop
  endfacet
  facet normal 1.305262e-01 0.000000e+00 -9.914449e-01
    outer loop
      vertex   -2.608608e+02 6.432887e+01 -4.341667e+02
      vertex   -2.613785e+02 6.632887e+01 -4.342348e+02
      vertex   -2.608608e+02 6.632887e+01 -4.341667e+02
    endloop
  endfacet
  facet normal -1.305262e-01 0.000000e+00 -9.914449e-01
    outer loop
      vertex   -2.608608e+02 6.432887e+01 -4.341667e+02
      vertex   -2.608608e+02 6.632887e+01 -4.341667e+02
      vertex   -2.603432e+02 6.432887e+01 -4.342348e+02
    endloop
  endfacet
  facet normal -1.305262e-01 0.000000e+00 -9.914449e-01
    outer loop
      vertex   -2.603432e+02 6.432887e+01 -4.342348e+02
      vertex   -2.608608e+02 6.632887e+01 -4.341667e+02
      vertex   -2.603432e+02 6.632887e+01 -4.342348e+02
    endloop
  endfacet
  facet normal -3.826834e-01 0.000000e+00 -9.238795e-01
    outer loop
      vertex   -2.603432e+02 6.432887e+01 -4.342348e+02
      vertex   -2.603432e+02 6.632887e+01 -4.342348e+02
      vertex   -2.598608e+02 6.432887e+01 -4.344346e+02
    endloop
  endfacet
  facet normal -3.826834e-01 0.000000e+00 -9.238795e-01
    outer loop
      vertex   -2.598608e+02 6.432887e+01 -4.344346e+02
      vertex   -2.603432e+02 6.632887e+01 -4.342348e+02
      vertex   -2.598608e+02 6.632887e+01 -4.344346e+02
    endloop
  endfacet
  facet normal -6.087614e-01 0.000000e+00 -7.933533e-01
    outer loop
      vertex   -2.598608e+02 6.432887e+01 -4.344346e+02
      vertex   -2.598608e+02 6.632887e+01 -4.344346e+02
      vertex   -2.594466e+02 6.432887e+01 -4.347525e+02
    endloop
  endfacet
  facet normal -6.087614e-01 0.000000e+00 -7.933533e-01
    outer loop
      vertex   -2.594466e+02 6.432887e+01 -4.347525e+02
      vertex   -2.598608e+02 6.632887e+01 -4.344346e+02
      vertex   -2.594466e+02 6.632887e+01 -4.347525e+02
    endloop
  endfacet
  facet normal -7.933533e-01 0.000000e+00 -6.087614e-01
    outer loop
      vertex   -2.594466e+02 6.432887e+01 -4.347525e+02
      vertex   -2.594466e+02 6.632887e+01 -4.347525e+02
      vertex   -2.591288e+02 6.432887e+01 -4.351667e+02
    endloop
  endfacet
  facet normal -7.933533e-01 0.000000e+00 -6.087614e-01
    outer loop
      vertex   -2.591288e+02 6.432887e+01 -4.351667e+02
      vertex   -2.594466e+02 6.632887e+01 -4.347525e+02
      vertex   -2.591288e+02 6.632887e+01 -4.351667e+02
    endloop
  endfacet
  facet normal -9.238795e-01 0.000000e+00 -3.826834e-01
    outer loop
      vertex   -2.591288e+02 6.432887e+01 -4.351667e+02
      vertex   -2.591288e+02 6.632887e+01 -4.351667e+02
      vertex   -2.589290e+02 6.432887e+01 -4.356490e+02
    endloop
  endfacet
  facet normal -9.238795e-01 0.000000e+00 -3.826834e-01
    outer loop
      vertex   -2.589290e+02 6.432887e+01 -4.356490e+02
      vertex   -2.591288e+02 6.632887e+01 -4.351667e+02
      vertex   -2.589290e+02 6.632887e+01 -4.356490e+02
    endloop
  endfacet
  facet normal 0.000000e+00 5.144958e-01 -8.574929e-01
    outer loop
      vertex   -2.684608e+02 6.732887e+01 -4.331667e+02
      vertex   -2.684608e+02 7.232887e+01 -4.301667e+02
      vertex   -2.608608e+02 6.732887e+01 -4.331667e+02
    endloop
  endfacet
  facet normal 0.000000e+00 5.144958e-01 -8.574929e-01
    outer loop
      vertex   -2.608608e+02 6.732887e+01 -4.331667e+02
      vertex   -2.684608e+02 7.232887e+01 -4.301667e+02
      vertex   -2.532608e+02 7.232887e+01 -4.301667e+02
    endloop
  endfacet
  facet normal 0.000000e+00 5.144958e-01 -8.574929e-01
    outer loop
      vertex   -2.608608e+02 6.732887e+01 -4.331667e+02
      vertex   -2.532608e+02 7.232887e+01 -4.301667e+02
      vertex   -2.532608e+02 6.732887e+01 -4.331667e+02
    endloop
  endfacet
  facet normal 0.000000e+00 0.000000e+00 -1.000000e+00
    outer loop
      vertex   -2.532608e+02 6.432887e+01 -4.461667e+02
      vertex   -2.684608e+02 6.432887e+01 -4.461667e+02
      vertex   -2.532608e+02 6.732887e+01 -4.461667e+02
    endloop
  endfacet
  facet normal -0.000000e+00 0.000000e+00 -1.000000e+00
    outer loop
      vertex   -2.532608e+02 6.732887e+01 -4.461667e+02
      vertex   -2.684608e+02 6.432887e+01 -4.461667e+02
      vertex   -2.684608e+02 6.732887e+01 -4.461667e+02
    endloop
  endfacet
  facet normal 0.000000e+00 -1.000000e+00 -8.881784e-15
    outer loop
      vertex   -2.684608e+02 6.432887e+01 -4.261667e+02
      vertex   -2.608608e+02 6.432887e+01 -4.341667e+02
      vertex   -2.532608e+02 6.432887e+01 -4.261667e+02
    endloop
  endfacet
  facet normal -1.039321e-15 -1.000000e+00 -7.894429e-15
    outer loop
      vertex   -2.532608e+02 6.432887e+01 -4.261667e+02
      vertex   -2.608608e+02 6.432887e+01 -4.341667e+02
      vertex   -2.603432e+02 6.432887e+01 -4.342348e+02
    endloop
  endfacet
  facet normal -2.675176e-15 -1.000000e+00 -6.458447e-15
    outer loop
      vertex   -2.532608e+02 6.432887e+01 -4.261667e+02
      vertex   -2.603432e+02 6.432887e+01 -4.342348e+02
      vertex   -2.598608e+02 6.432887e+01 -4.344346e+02
    endloop
  endfacet
  facet normal -1.015061e-14 -1.000000e+00 -1.563194e-14
    outer loop
      vertex   -2.684608e+02 6.432887e+01 -4.461667e+02
      vertex   -2.628608e+02 6.432887e+01 -4.361667e+02
      vertex   -2.684608e+02 6.432887e+01 -4.261667e+02
    endloop
  endfacet
  facet normal -2.530991e-14 -1.000000e+00 -2.412115e-14
    outer loop
      vertex   -2.684608e+02 6.432887e+01 -4.261667e+02
      vertex   -2.628608e+02 6.432887e+01 -4.361667e+02
      vertex   -2.627927e+02 6.432887e+01 -4.356490e+02
    endloop
  endfacet
  facet normal 8.885606e-15 -1.000000e+00 -3.680538e-15
    outer loop
      vertex   -2.684608e+02 6.432887e+01 -4.261667e+02
      vertex   -2.627927e+02 6.432887e+01 -4.356490e+02
      vertex   -2.625929e+02 6.432887e+01 -4.351667e+02
    endloop
  endfacet
  facet normal -0.000000e+00 -1.000000e+00 -2.309264e-14
    outer loop
      vertex   -2.532608e+02 6.432887e+01 -4.461667e+02
      vertex   -2.608608e+02 6.432887e+01 -4.381667e+02
      vertex   -2.684608e+02 6.432887e+01 -4.461667e+02
    endloop
  endfacet
  facet normal -2.702235e-15 -1.000000e+00 -2.052552e-14
    outer loop
      vertex   -2.684608e+02 6.432887e+01 -4.461667e+02
      vertex   -2.608608e+02 6.432887e+01 -4.381667e+02
      vertex   -2.613785e+02 6.432887e+01 -4.380985e+02
    endloop
  endfacet
  facet normal -6.955458e-15 -1.000000e+00 -1.679196e-14
    outer loop
      vertex   -2.684608e+02 6.432887e+01 -4.461667e+02
      vertex   -2.613785e+02 6.432887e+01 -4.380985e+02
      vertex   -2.618608e+02 6.432887e+01 -4.378987e+02
    endloop
  endfacet
  facet normal 1.015061e-14 -1.000000e+00 -1.563194e-14
    outer loop
      vertex   -2.532608e+02 6.432887e+01 -4.261667e+02
      vertex   -2.588608e+02 6.432887e+01 -4.361667e+02
      vertex   -2.532608e+02 6.432887e+01 -4.461667e+02
    endloop
  endfacet
  facet normal -8.872926e-15 -1.000000e+00 -2.628512e-14
    outer loop
      vertex   -2.532608e+02 6.432887e+01 -4.461667e+02
      vertex   -2.588608e+02 6.432887e+01 -4.361667e+02
      vertex   -2.589290e+02 6.432887e+01 -4.366843e+02
    endloop
  endfacet
  facet normal 2.073308e-14 -1.000000e+00 -8.587923e-15
    outer loop
      vertex   -2.532608e+02 6.432887e+01 -4.461667e+02
      vertex   -2.589290e+02 6.432887e+01 -4.366843e+02
      vertex   -2.591288e+02 6.432887e+01 -4.371667e+02
    endloop
  endfacet
  facet normal 1.557489e-14 -1.000000e+00 -1.195103e-14
    outer loop
      vertex   -2.591288e+02 6.432887e+01 -4.371667e+02
      vertex   -2.594466e+02 6.432887e+01 -4.375809e+02
      vertex   -2.532608e+02 6.432887e+01 -4.461667e+02
    endloop
  endfacet
  facet normal -1.064334e-14 -1.000000e+00 -3.084044e-14
    outer loop
      vertex   -2.532608e+02 6.432887e+01 -4.461667e+02
      vertex   -2.594466e+02 6.432887e+01 -4.375809e+02
      vertex   -2.598608e+02 6.432887e+01 -4.378987e+02
    endloop
  endfacet
  facet normal 6.955458e-15 -1.000000e+00 -1.679196e-14
    outer loop
      vertex   -2.532608e+02 6.432887e+01 -4.461667e+02
      vertex   -2.598608e+02 6.432887e+01 -4.378987e+02
      vertex   -2.603432e+02 6.432887e+01 -4.380985e+02
    endloop
  endfacet
  facet normal 2.702235e-15 -1.000000e+00 -2.052552e-14
    outer loop
      vertex   -2.603432e+02 6.432887e+01 -4.380985e+02
      vertex   -2.608608e+02 6.432887e+01 -4.381667e+02
      vertex   -2.532608e+02 6.432887e+01 -4.461667e+02
    endloop
  endfacet
  facet normal 1.064334e-14 -1.000000e+00 -3.084044e-14
    outer loop
      vertex   -2.618608e+02 6.432887e+01 -4.378987e+02
      vertex   -2.622750e+02 6.432887e+01 -4.375809e+02
      vertex   -2.684608e+02 6.432887e+01 -4.461667e+02
    endloop
  endfacet
  facet normal -1.557489e-14 -1.000000e+00 -1.195103e-14
    outer loop
      vertex   -2.684608e+02 6.432887e+01 -4.461667e+02
      vertex   -2.622750e+02 6.432887e+01 -4.375809e+02
      vertex   -2.625929e+02 6.432887e+01 -4.371667e+02
    endloop
  endfacet
  facet normal -2.073308e-14 -1.000000e+00 -8.587923e-15
    outer loop
      vertex   -2.684608e+02 6.432887e+01 -4.461667e+02
      vertex   -2.625929e+02 6.432887e+01 -4.371667e+02
      vertex   -2.627927e+02 6.432887e+01 -4.366843e+02
    endloop
  endfacet
  facet normal 8.872926e-15 -1.000000e+00 -2.628512e-14
    outer loop
      vertex   -2.627927e+02 6.432887e+01 -4.366843e+02
      vertex   -2.628608e+02 6.432887e+01 -4.361667e+02
      vertex   -2.684608e+02 6.432887e+01 -4.461667e+02
    endloop
  endfacet
  facet normal 6.674953e-15 -1.000000e+00 -5.121872e-15
    outer loop
      vertex   -2.625929e+02 6.432887e+01 -4.351667e+02
      vertex   -2.622750e+02 6.432887e+01 -4.347525e+02
      vertex   -2.684608e+02 6.432887e+01 -4.261667e+02
    endloop
  endfacet
  facet normal -1.718647e-14 -1.000000e+00 -2.231327e-14
    outer loop
      vertex   -2.684608e+02 6.432887e+01 -4.261667e+02
      vertex   -2.622750e+02 6.432887e+01 -4.347525e+02
      vertex   -2.618608e+02 6.432887e+01 -4.344346e+02
    endloop
  endfacet
  facet normal 2.675176e-15 -1.000000e+00 -6.458447e-15
    outer loop
      vertex   -2.684608e+02 6.432887e+01 -4.261667e+02
      vertex   -2.618608e+02 6.432887e+01 -4.344346e+02
      vertex   -2.613785e+02 6.432887e+01 -4.342348e+02
    endloop
  endfacet
  facet normal 1.039321e-15 -1.000000e+00 -7.894429e-15
    outer loop
      vertex   -2.613785e+02 6.432887e+01 -4.342348e+02
      vertex   -2.608608e+02 6.432887e+01 -4.341667e+02
      vertex   -2.684608e+02 6.432887e+01 -4.261667e+02
    endloop
  endfacet
  facet normal 1.718647e-14 -1.000000e+00 -2.231327e-14
    outer loop
      vertex   -2.598608e+02 6.432887e+01 -4.344346e+02
      vertex   -2.594466e+02 6.432887e+01 -4.347525e+02
      vertex   -2.532608e+02 6.432887e+01 -4.261667e+02
    endloop
  endfacet
  facet normal -6.674953e-15 -1.000000e+00 -5.121872e-15
    outer loop
      vertex   -2.532608e+02 6.432887e+01 -4.261667e+02
      vertex   -2.594466e+02 6.432887e+01 -4.347525e+02
      vertex   -2.591288e+02 6.432887e+01 -4.351667e+02
    endloop
  endfacet
  facet normal -8.885606e-15 -1.000000e+00 -3.680538e-15
    outer loop
      vertex   -2.532608e+02 6.432887e+01 -4.261667e+02
      vertex   -2.591288e+02 6.432887e+01 -4.351667e+02
      vertex   -2.589290e+02 6.432887e+01 -4.356490e+02
    endloop
  endfacet
  facet normal 2.530991e-14 -1.000000e+00 -2.412115e-14
    outer loop
      vertex   -2.589290e+02 6.432887e+01 -4.356490e+02
      vertex   -2.588608e+02 6.432887e+01 -4.361667e+02
      vertex   -2.532608e+02 6.432887e+01 -4.261667e+02
    endloop
  endfacet
  facet normal -1.000000e+00 -0.000000e+00 0.000000e+00
    outer loop
      vertex   -2.684608e+02 8.432887e+01 -4.261667e+02
      vertex   -2.684608e+02 7.232887e+01 -4.301667e+02
      vertex   -2.684608e+02 6.432887e+01 -4.261667e+02
    endloop
  endfacet
  facet normal -1.000000e+00 0.000000e+00 0.000000e+00
    outer loop
      vertex   -2.684608e+02 6.432887e+01 -4.261667e+02
      vertex   -2.684608e+02 7.232887e+01 -4.301667e+02
      vertex   -2.684608e+02 6.732887e+01 -4.331667e+02
    endloop
  endfacet
  facet normal -1.000000e+00 0.000000e+00 0.000000e+00
    outer loop
      vertex   -2.684608e+02 6.432887e+01 -4.261667e+02
      vertex   -2.684608e+02 6.732887e+01 -4.331667e+02
      vertex   -2.684608e+02 6.432887e+01 -4.461667e+02
    endloop
  endfacet
  facet normal -1.000000e+00 0.000000e+00 0.000000e+00
    outer loop
      vertex   -2.684608e+02 6.432887e+01 -4.461667e+02
      vertex   -2.684608e+02 6.732887e+01 -4.331667e+02
      vertex   -2.684608e+02 6.732887e+01 -4.461667e+02
    endloop
  endfacet
  facet normal -1.000000e+00 0.000000e+00 -0.000000e+00
    outer loop
      vertex   -2.684608e+02 8.432887e+01 -4.261667e+02
      vertex   -2.684608e+02 8.432887e+01 -4.301667e+02
      vertex   -2.684608e+02 7.232887e+01 -4.301667e+02
    endloop
  endfacet
  facet normal -0.000000e+00 1.000000e+00 2.842171e-14
    outer loop
      vertex   -2.684608e+02 8.432887e+01 -4.261667e+02
      vertex   -2.532608e+02 8.432887e+01 -4.261667e+02
      vertex   -2.684608e+02 8.432887e+01 -4.301667e+02
    endloop
  endfacet
  facet normal -0.000000e+00 1.000000e+00 2.842171e-14
    outer loop
      vertex   -2.684608e+02 8.432887e+01 -4.301667e+02
      vertex   -2.532608e+02 8.432887e+01 -4.261667e+02
      vertex   -2.532608e+02 8.432887e+01 -4.301667e+02
    endloop
  endfacet
  facet normal 1.000000e+00 0.000000e+00 0.000000e+00
    outer loop
      vertex   -2.532608e+02 8.432887e+01 -4.301667e+02
      vertex   -2.532608e+02 8.432887e+01 -4.261667e+02
      vertex   -2.532608e+02 7.232887e+01 -4.301667e+02
    endloop
  endfacet
  facet normal 1.000000e+00 0.000000e+00 -0.000000e+00
    outer loop
      vertex   -2.532608e+02 7.232887e+01 -4.301667e+02
      vertex   -2.532608e+02 8.432887e+01 -4.261667e+02
      vertex   -2.532608e+02 6.432887e+01 -4.261667e+02
    endloop
  endfacet
  facet normal 1.000000e+00 0.000000e+00 0.000000e+00
    outer loop
      vertex   -2.532608e+02 7.232887e+01 -4.301667e+02
      vertex   -2.532608e+02 6.432887e+01 -4.261667e+02
      vertex   -2.532608e+02 6.732887e+01 -4.331667e+02
    endloop
  endfacet
  facet normal 1.000000e+00 0.000000e+00 0.000000e+00
    outer loop
      vertex   -2.532608e+02 6.732887e+01 -4.331667e+02
      vertex   -2.532608e+02 6.432887e+01 -4.261667e+02
      vertex   -2.532608e+02 6.432887e+01 -4.461667e+02
    endloop
  endfacet
  facet normal 1.000000e+00 0.000000e+00 0.000000e+00
    outer loop
      vertex   -2.532608e+02 6.732887e+01 -4.331667e+02
      vertex   -2.532608e+02 6.432887e+01 -4.461667e+02
      vertex   -2.532608e+02 6.732887e+01 -4.461667e+02
    endloop
  endfacet
  facet normal 0.000000e+00 0.000000e+00 1.000000e+00
    outer loop
      vertex   -2.532608e+02 8.432887e+01 -4.261667e+02
      vertex   -2.593608e+02 7.600315e+01 -4.261667e+02
      vertex   -2.532608e+02 6.432887e+01 -4.261667e+02
    endloop
  endfacet
  facet normal 0.000000e+00 0.000000e+00 1.000000e+00
    outer loop
      vertex   -2.532608e+02 6.432887e+01 -4.261667e+02
      vertex   -2.593608e+02 7.600315e+01 -4.261667e+02
      vertex   -2.594119e+02 7.561492e+01 -4.261667e+02
    endloop
  endfacet
  facet normal 0.000000e+00 0.000000e+00 1.000000e+00
    outer loop
      vertex   -2.532608e+02 6.432887e+01 -4.261667e+02
      vertex   -2.594119e+02 7.561492e+01 -4.261667e+02
      vertex   -2.595618e+02 7.525315e+01 -4.261667e+02
    endloop
  endfacet
  facet normal -0.000000e+00 0.000000e+00 1.000000e+00
    outer loop
      vertex   -2.684608e+02 8.432887e+01 -4.261667e+02
      vertex   -2.608608e+02 7.750315e+01 -4.261667e+02
      vertex   -2.532608e+02 8.432887e+01 -4.261667e+02
    endloop
  endfacet
  facet normal 0.000000e+00 0.000000e+00 1.000000e+00
    outer loop
      vertex   -2.532608e+02 8.432887e+01 -4.261667e+02
      vertex   -2.608608e+02 7.750315e+01 -4.261667e+02
      vertex   -2.604726e+02 7.745204e+01 -4.261667e+02
    endloop
  endfacet
  facet normal 0.000000e+00 0.000000e+00 1.000000e+00
    outer loop
      vertex   -2.532608e+02 8.432887e+01 -4.261667e+02
      vertex   -2.604726e+02 7.745204e+01 -4.261667e+02
      vertex   -2.601108e+02 7.730219e+01 -4.261667e+02
    endloop
  endfacet
  facet normal 0.000000e+00 0.000000e+00 1.000000e+00
    outer loop
      vertex   -2.684608e+02 6.432887e+01 -4.261667e+02
      vertex   -2.623608e+02 7.600315e+01 -4.261667e+02
      vertex   -2.684608e+02 8.432887e+01 -4.261667e+02
    endloop
  endfacet
  facet normal 0.000000e+00 0.000000e+00 1.000000e+00
    outer loop
      vertex   -2.684608e+02 8.432887e+01 -4.261667e+02
      vertex   -2.623608e+02 7.600315e+01 -4.261667e+02
      vertex   -2.623097e+02 7.639138e+01 -4.261667e+02
    endloop
  endfacet
  facet normal 0.000000e+00 0.000000e+00 1.000000e+00
    outer loop
      vertex   -2.684608e+02 8.432887e+01 -4.261667e+02
      vertex   -2.623097e+02 7.639138e+01 -4.261667e+02
      vertex   -2.621599e+02 7.675315e+01 -4.261667e+02
    endloop
  endfacet
  facet normal 0.000000e+00 0.000000e+00 1.000000e+00
    outer loop
      vertex   -2.532608e+02 6.432887e+01 -4.261667e+02
      vertex   -2.608608e+02 7.450315e+01 -4.261667e+02
      vertex   -2.684608e+02 6.432887e+01 -4.261667e+02
    endloop
  endfacet
  facet normal 0.000000e+00 0.000000e+00 1.000000e+00
    outer loop
      vertex   -2.684608e+02 6.432887e+01 -4.261667e+02
      vertex   -2.608608e+02 7.450315e+01 -4.261667e+02
      vertex   -2.612491e+02 7.455426e+01 -4.261667e+02
    endloop
  endfacet
  facet normal 0.000000e+00 0.000000e+00 1.000000e+00
    outer loop
      vertex   -2.684608e+02 6.432887e+01 -4.261667e+02
      vertex   -2.612491e+02 7.455426e+01 -4.261667e+02
      vertex   -2.616108e+02 7.470411e+01 -4.261667e+02
    endloop
  endfacet
  facet normal 0.000000e+00 -0.000000e+00 1.000000e+00
    outer loop
      vertex   -2.621599e+02 7.675315e+01 -4.261667e+02
      vertex   -2.619215e+02 7.706381e+01 -4.261667e+02
      vertex   -2.684608e+02 8.432887e+01 -4.261667e+02
    endloop
  endfacet
  facet normal 0.000000e+00 0.000000e+00 1.000000e+00
    outer loop
      vertex   -2.684608e+02 8.432887e+01 -4.261667e+02
      vertex   -2.619215e+02 7.706381e+01 -4.261667e+02
      vertex   -2.616108e+02 7.730219e+01 -4.261667e+02
    endloop
  endfacet
  facet normal 0.000000e+00 0.000000e+00 1.000000e+00
    outer loop
      vertex   -2.684608e+02 8.432887e+01 -4.261667e+02
      vertex   -2.616108e+02 7.730219e+01 -4.261667e+02
      vertex   -2.612491e+02 7.745204e+01 -4.261667e+02
    endloop
  endfacet
  facet normal 0.000000e+00 -0.000000e+00 1.000000e+00
    outer loop
      vertex   -2.612491e+02 7.745204e+01 -4.261667e+02
      vertex   -2.608608e+02 7.750315e+01 -4.261667e+02
      vertex   -2.684608e+02 8.432887e+01 -4.261667e+02
    endloop
  endfacet
  facet normal -0.000000e+00 0.000000e+00 1.000000e+00
    outer loop
      vertex   -2.601108e+02 7.730219e+01 -4.261667e+02
      vertex   -2.598002e+02 7.706381e+01 -4.261667e+02
      vertex   -2.532608e+02 8.432887e+01 -4.261667e+02
    endloop
  endfacet
  facet normal 0.000000e+00 0.000000e+00 1.000000e+00
    outer loop
      vertex   -2.532608e+02 8.432887e+01 -4.261667e+02
      vertex   -2.598002e+02 7.706381e+01 -4.261667e+02
      vertex   -2.595618e+02 7.675315e+01 -4.261667e+02
    endloop
  endfacet
  facet normal 0.000000e+00 0.000000e+00 1.000000e+00
    outer loop
      vertex   -2.532608e+02 8.432887e+01 -4.261667e+02
      vertex   -2.595618e+02 7.675315e+01 -4.261667e+02
      vertex   -2.594119e+02 7.639138e+01 -4.261667e+02
    endloop
  endfacet
  facet normal -0.000000e+00 0.000000e+00 1.000000e+00
    outer loop
      vertex   -2.594119e+02 7.639138e+01 -4.261667e+02
      vertex   -2.593608e+02 7.600315e+01 -4.261667e+02
      vertex   -2.532608e+02 8.432887e+01 -4.261667e+02
    endloop
  endfacet
  facet normal 0.000000e+00 0.000000e+00 1.000000e+00
    outer loop
      vertex   -2.595618e+02 7.525315e+01 -4.261667e+02
      vertex   -2.598002e+02 7.494249e+01 -4.261667e+02
      vertex   -2.532608e+02 6.432887e+01 -4.261667e+02
    endloop
  endfacet
  facet normal 0.000000e+00 0.000000e+00 1.000000e+00
    outer loop
      vertex   -2.532608e+02 6.432887e+01 -4.261667e+02
      vertex   -2.598002e+02 7.494249e+01 -4.261667e+02
      vertex   -2.601108e+02 7.470411e+01 -4.261667e+02
    endloop
  endfacet
  facet normal 0.000000e+00 0.000000e+00 1.000000e+00
    outer loop
      vertex   -2.532608e+02 6.432887e+01 -4.261667e+02
      vertex   -2.601108e+02 7.470411e+01 -4.261667e+02
      vertex   -2.604726e+02 7.455426e+01 -4.261667e+02
    endloop
  endfacet
  facet normal 0.000000e+00 0.000000e+00 1.000000e+00
    outer loop
      vertex   -2.604726e+02 7.455426e+01 -4.261667e+02
      vertex   -2.608608e+02 7.450315e+01 -4.261667e+02
      vertex   -2.532608e+02 6.432887e+01 -4.261667e+02
    endloop
  endfacet
  facet normal 0.000000e+00 0.000000e+00 1.000000e+00
    outer loop
      vertex   -2.616108e+02 7.470411e+01 -4.261667e+02
      vertex   -2.619215e+02 7.494249e+01 -4.261667e+02
      vertex   -2.684608e+02 6.432887e+01 -4.261667e+02
    endloop
  endfacet
  facet normal 0.000000e+00 0.000000e+00 1.000000e+00
    outer loop
      vertex   -2.684608e+02 6.432887e+01 -4.261667e+02
      vertex   -2.619215e+02 7.494249e+01 -4.261667e+02
      vertex   -2.621599e+02 7.525315e+01 -4.261667e+02
    endloop
  endfacet
  facet normal 0.000000e+00 0.000000e+00 1.000000e+00
    outer loop
      vertex   -2.684608e+02 6.432887e+01 -4.261667e+02
      vertex   -2.621599e+02 7.525315e+01 -4.261667e+02
      vertex   -2.623097e+02 7.561492e+01 -4.261667e+02
    endloop
  endfacet
  facet normal 0.000000e+00 0.000000e+00 1.000000e+00
    outer loop
      vertex   -2.623097e+02 7.561492e+01 -4.261667e+02
      vertex   -2.623608e+02 7.600315e+01 -4.261667e+02
      vertex   -2.684608e+02 6.432887e+01 -4.261667e+02
    endloop
  endfacet
endsolid
