solid ASCII
  facet normal 0.000000e+00 -1.000000e+00 0.000000e+00
    outer loop
      vertex   -1.202982e+02 3.807235e+02 -2.105368e+02
      vertex   -1.202982e+02 3.807235e+02 -2.150368e+02
      vertex   -1.172982e+02 3.807235e+02 -2.105368e+02
    endloop
  endfacet
  facet normal 0.000000e+00 -1.000000e+00 -0.000000e+00
    outer loop
      vertex   -1.172982e+02 3.807235e+02 -2.105368e+02
      vertex   -1.202982e+02 3.807235e+02 -2.150368e+02
      vertex   -1.172982e+02 3.807235e+02 -2.150368e+02
    endloop
  endfacet
  facet normal 0.000000e+00 -0.000000e+00 1.000000e+00
    outer loop
      vertex   -1.172982e+02 3.807235e+02 -2.105368e+02
      vertex   -1.172982e+02 3.815235e+02 -2.105368e+02
      vertex   -1.202982e+02 3.807235e+02 -2.105368e+02
    endloop
  endfacet
  facet normal 0.000000e+00 0.000000e+00 1.000000e+00
    outer loop
      vertex   -1.202982e+02 3.807235e+02 -2.105368e+02
      vertex   -1.172982e+02 3.815235e+02 -2.105368e+02
      vertex   -1.202982e+02 3.815235e+02 -2.105368e+02
    endloop
  endfacet
  facet normal 0.000000e+00 1.000000e+00 0.000000e+00
    outer loop
      vertex   -1.172982e+02 3.815235e+02 -2.105368e+02
      vertex   -1.172982e+02 3.815235e+02 -2.140368e+02
      vertex   -1.202982e+02 3.815235e+02 -2.105368e+02
    endloop
  endfacet
  facet normal 0.000000e+00 1.000000e+00 0.000000e+00
    outer loop
      vertex   -1.202982e+02 3.815235e+02 -2.105368e+02
      vertex   -1.172982e+02 3.815235e+02 -2.140368e+02
      vertex   -1.202982e+02 3.815235e+02 -2.140368e+02
    endloop
  endfacet
  facet normal 0.000000e+00 -0.000000e+00 1.000000e+00
    outer loop
      vertex   -1.172982e+02 3.815235e+02 -2.140368e+02
      vertex   -1.172982e+02 3.850235e+02 -2.140368e+02
      vertex   -1.202982e+02 3.815235e+02 -2.140368e+02
    endloop
  endfacet
  facet normal 0.000000e+00 0.000000e+00 1.000000e+00
    outer loop
      vertex   -1.202982e+02 3.815235e+02 -2.140368e+02
      vertex   -1.172982e+02 3.850235e+02 -2.140368e+02
      vertex   -1.202982e+02 3.850235e+02 -2.140368e+02
    endloop
  endfacet
  facet normal -0.000000e+00 -0.000000e+00 -1.000000e+00
    outer loop
      vertex   -1.172982e+02 3.850235e+02 -2.150368e+02
      vertex   -1.172982e+02 3.807235e+02 -2.150368e+02
      vertex   -1.202982e+02 3.850235e+02 -2.150368e+02
    endloop
  endfacet
  facet normal 0.000000e+00 0.000000e+00 -1.000000e+00
    outer loop
      vertex   -1.202982e+02 3.850235e+02 -2.150368e+02
      vertex   -1.172982e+02 3.807235e+02 -2.150368e+02
      vertex   -1.202982e+02 3.807235e+02 -2.150368e+02
    endloop
  endfacet
  facet normal 0.000000e+00 1.000000e+00 0.000000e+00
    outer loop
      vertex   -1.172982e+02 3.850235e+02 -2.140368e+02
      vertex   -1.172982e+02 3.850235e+02 -2.150368e+02
      vertex   -1.202982e+02 3.850235e+02 -2.140368e+02
    endloop
  endfacet
  facet normal 0.000000e+00 1.000000e+00 0.000000e+00
    outer loop
      vertex   -1.202982e+02 3.850235e+02 -2.140368e+02
      vertex   -1.172982e+02 3.850235e+02 -2.150368e+02
      vertex   -1.202982e+02 3.850235e+02 -2.150368e+02
    endloop
  endfacet
  facet normal -1.000000e+00 -0.000000e+00 -0.000000e+00
    outer loop
      vertex   -1.202982e+02 3.850235e+02 -2.140368e+02
      vertex   -1.202982e+02 3.850235e+02 -2.150368e+02
      vertex   -1.202982e+02 3.815235e+02 -2.140368e+02
    endloop
  endfacet
  facet normal -1.000000e+00 0.000000e+00 -0.000000e+00
    outer loop
      vertex   -1.202982e+02 3.815235e+02 -2.140368e+02
      vertex   -1.202982e+02 3.850235e+02 -2.150368e+02
      vertex   -1.202982e+02 3.807235e+02 -2.150368e+02
    endloop
  endfacet
  facet normal -1.000000e+00 -0.000000e+00 0.000000e+00
    outer loop
      vertex   -1.202982e+02 3.815235e+02 -2.140368e+02
      vertex   -1.202982e+02 3.807235e+02 -2.150368e+02
      vertex   -1.202982e+02 3.807235e+02 -2.105368e+02
    endloop
  endfacet
  facet normal -1.000000e+00 0.000000e+00 0.000000e+00
    outer loop
      vertex   -1.202982e+02 3.807235e+02 -2.105368e+02
      vertex   -1.202982e+02 3.815235e+02 -2.105368e+02
      vertex   -1.202982e+02 3.815235e+02 -2.140368e+02
    endloop
  endfacet
  facet normal 1.000000e+00 0.000000e+00 0.000000e+00
    outer loop
      vertex   -1.172982e+02 3.850235e+02 -2.140368e+02
      vertex   -1.172982e+02 3.815235e+02 -2.140368e+02
      vertex   -1.172982e+02 3.850235e+02 -2.150368e+02
    endloop
  endfacet
  facet normal 1.000000e+00 0.000000e+00 0.000000e+00
    outer loop
      vertex   -1.172982e+02 3.850235e+02 -2.150368e+02
      vertex   -1.172982e+02 3.815235e+02 -2.140368e+02
      vertex   -1.172982e+02 3.807235e+02 -2.150368e+02
    endloop
  endfacet
  facet normal 1.000000e+00 0.000000e+00 0.000000e+00
    outer loop
      vertex   -1.172982e+02 3.807235e+02 -2.150368e+02
      vertex   -1.172982e+02 3.815235e+02 -2.140368e+02
      vertex   -1.172982e+02 3.807235e+02 -2.105368e+02
    endloop
  endfacet
  facet normal 1.000000e+00 -0.000000e+00 0.000000e+00
    outer loop
      vertex   -1.172982e+02 3.807235e+02 -2.105368e+02
      vertex   -1.172982e+02 3.815235e+02 -2.140368e+02
      vertex   -1.172982e+02 3.815235e+02 -2.105368e+02
    endloop
  endfacet
endsolid
