solid ASCII
  facet normal 0.000000e+00 -1.000000e+00 7.527822e-15
    outer loop
      vertex   -3.431982e+02 1.098078e+02 -3.327500e+02
      vertex   -3.070864e+02 1.098078e+02 -3.403011e+02
      vertex   -2.951982e+02 1.098078e+02 -3.327500e+02
    endloop
  endfacet
  facet normal -1.250181e-15 -1.000000e+00 9.496067e-15
    outer loop
      vertex   -2.951982e+02 1.098078e+02 -3.327500e+02
      vertex   -3.070864e+02 1.098078e+02 -3.403011e+02
      vertex   -3.066982e+02 1.098078e+02 -3.402500e+02
    endloop
  endfacet
  facet normal 8.302169e-16 -1.000000e+00 6.306123e-15
    outer loop
      vertex   -2.951982e+02 1.098078e+02 -3.327500e+02
      vertex   -3.066982e+02 1.098078e+02 -3.402500e+02
      vertex   -3.063100e+02 1.098078e+02 -3.403011e+02
    endloop
  endfacet
  facet normal -5.044853e-14 -1.000000e+00 -5.605393e-14
    outer loop
      vertex   -3.431982e+02 1.098078e+02 -3.507500e+02
      vertex   -3.331982e+02 1.098078e+02 -3.417500e+02
      vertex   -3.431982e+02 1.098078e+02 -3.327500e+02
    endloop
  endfacet
  facet normal -5.890799e-14 -1.000000e+00 -6.545332e-14
    outer loop
      vertex   -3.431982e+02 1.098078e+02 -3.327500e+02
      vertex   -3.331982e+02 1.098078e+02 -3.417500e+02
      vertex   -3.331471e+02 1.098078e+02 -3.413618e+02
    endloop
  endfacet
  facet normal -2.087035e-15 -1.000000e+00 8.644782e-16
    outer loop
      vertex   -3.431982e+02 1.098078e+02 -3.327500e+02
      vertex   -3.331471e+02 1.098078e+02 -3.413618e+02
      vertex   -3.329973e+02 1.098078e+02 -3.410000e+02
    endloop
  endfacet
  facet normal -0.000000e+00 -1.000000e+00 -1.279730e-13
    outer loop
      vertex   -2.951982e+02 1.098078e+02 -3.507500e+02
      vertex   -3.313100e+02 1.098078e+02 -3.431989e+02
      vertex   -3.431982e+02 1.098078e+02 -3.507500e+02
    endloop
  endfacet
  facet normal 2.125307e-14 -1.000000e+00 -1.614331e-13
    outer loop
      vertex   -3.431982e+02 1.098078e+02 -3.507500e+02
      vertex   -3.313100e+02 1.098078e+02 -3.431989e+02
      vertex   -3.316982e+02 1.098078e+02 -3.432500e+02
    endloop
  endfacet
  facet normal -1.411369e-14 -1.000000e+00 -1.072041e-13
    outer loop
      vertex   -3.431982e+02 1.098078e+02 -3.507500e+02
      vertex   -3.316982e+02 1.098078e+02 -3.432500e+02
      vertex   -3.320864e+02 1.098078e+02 -3.431989e+02
    endloop
  endfacet
  facet normal 5.044853e-14 -1.000000e+00 -5.605393e-14
    outer loop
      vertex   -2.951982e+02 1.098078e+02 -3.327500e+02
      vertex   -3.051982e+02 1.098078e+02 -3.417500e+02
      vertex   -2.951982e+02 1.098078e+02 -3.507500e+02
    endloop
  endfacet
  facet normal 6.075452e-14 -1.000000e+00 -4.460283e-14
    outer loop
      vertex   -2.951982e+02 1.098078e+02 -3.507500e+02
      vertex   -3.051982e+02 1.098078e+02 -3.417500e+02
      vertex   -3.052493e+02 1.098078e+02 -3.421382e+02
    endloop
  endfacet
  facet normal 7.304622e-14 -1.000000e+00 -3.025674e-14
    outer loop
      vertex   -2.951982e+02 1.098078e+02 -3.507500e+02
      vertex   -3.052493e+02 1.098078e+02 -3.421382e+02
      vertex   -3.053992e+02 1.098078e+02 -3.425000e+02
    endloop
  endfacet
  facet normal -2.454782e-14 -1.000000e+00 -2.690784e-14
    outer loop
      vertex   -3.329973e+02 1.098078e+02 -3.410000e+02
      vertex   -3.327589e+02 1.098078e+02 -3.406893e+02
      vertex   -3.431982e+02 1.098078e+02 -3.327500e+02
    endloop
  endfacet
  facet normal -2.482116e-14 -1.000000e+00 -2.726725e-14
    outer loop
      vertex   -3.431982e+02 1.098078e+02 -3.327500e+02
      vertex   -3.327589e+02 1.098078e+02 -3.406893e+02
      vertex   -3.324482e+02 1.098078e+02 -3.404510e+02
    endloop
  endfacet
  facet normal -1.937287e-15 -1.000000e+00 4.677024e-15
    outer loop
      vertex   -3.431982e+02 1.098078e+02 -3.327500e+02
      vertex   -3.324482e+02 1.098078e+02 -3.404510e+02
      vertex   -3.320864e+02 1.098078e+02 -3.403011e+02
    endloop
  endfacet
  facet normal -8.302169e-16 -1.000000e+00 6.306123e-15
    outer loop
      vertex   -3.320864e+02 1.098078e+02 -3.403011e+02
      vertex   -3.316982e+02 1.098078e+02 -3.402500e+02
      vertex   -3.431982e+02 1.098078e+02 -3.327500e+02
    endloop
  endfacet
  facet normal 1.250181e-15 -1.000000e+00 9.496067e-15
    outer loop
      vertex   -3.431982e+02 1.098078e+02 -3.327500e+02
      vertex   -3.316982e+02 1.098078e+02 -3.402500e+02
      vertex   -3.313100e+02 1.098078e+02 -3.403011e+02
    endloop
  endfacet
  facet normal 0.000000e+00 -1.000000e+00 7.527822e-15
    outer loop
      vertex   -3.431982e+02 1.098078e+02 -3.327500e+02
      vertex   -3.313100e+02 1.098078e+02 -3.403011e+02
      vertex   -3.070864e+02 1.098078e+02 -3.403011e+02
    endloop
  endfacet
  facet normal -0.000000e+00 -1.000000e+00 0.000000e+00
    outer loop
      vertex   -3.070864e+02 1.098078e+02 -3.403011e+02
      vertex   -3.313100e+02 1.098078e+02 -3.403011e+02
      vertex   -3.074482e+02 1.098078e+02 -3.404510e+02
    endloop
  endfacet
  facet normal 0.000000e+00 -1.000000e+00 0.000000e+00
    outer loop
      vertex   -3.074482e+02 1.098078e+02 -3.404510e+02
      vertex   -3.313100e+02 1.098078e+02 -3.403011e+02
      vertex   -3.309482e+02 1.098078e+02 -3.404510e+02
    endloop
  endfacet
  facet normal -0.000000e+00 -1.000000e+00 -5.961481e-14
    outer loop
      vertex   -3.074482e+02 1.098078e+02 -3.404510e+02
      vertex   -3.309482e+02 1.098078e+02 -3.404510e+02
      vertex   -3.077589e+02 1.098078e+02 -3.406893e+02
    endloop
  endfacet
  facet normal -0.000000e+00 -1.000000e+00 -5.961481e-14
    outer loop
      vertex   -3.077589e+02 1.098078e+02 -3.406893e+02
      vertex   -3.309482e+02 1.098078e+02 -3.404510e+02
      vertex   -3.306376e+02 1.098078e+02 -3.406893e+02
    endloop
  endfacet
  facet normal -0.000000e+00 -1.000000e+00 -4.574405e-14
    outer loop
      vertex   -3.077589e+02 1.098078e+02 -3.406893e+02
      vertex   -3.306376e+02 1.098078e+02 -3.406893e+02
      vertex   -3.079973e+02 1.098078e+02 -3.410000e+02
    endloop
  endfacet
  facet normal -0.000000e+00 -1.000000e+00 -4.574405e-14
    outer loop
      vertex   -3.079973e+02 1.098078e+02 -3.410000e+02
      vertex   -3.306376e+02 1.098078e+02 -3.406893e+02
      vertex   -3.303992e+02 1.098078e+02 -3.410000e+02
    endloop
  endfacet
  facet normal -0.000000e+00 -1.000000e+00 0.000000e+00
    outer loop
      vertex   -3.079973e+02 1.098078e+02 -3.410000e+02
      vertex   -3.303992e+02 1.098078e+02 -3.410000e+02
      vertex   -3.081471e+02 1.098078e+02 -3.413618e+02
    endloop
  endfacet
  facet normal 0.000000e+00 -1.000000e+00 0.000000e+00
    outer loop
      vertex   -3.081471e+02 1.098078e+02 -3.413618e+02
      vertex   -3.303992e+02 1.098078e+02 -3.410000e+02
      vertex   -3.302493e+02 1.098078e+02 -3.413618e+02
    endloop
  endfacet
  facet normal -0.000000e+00 -1.000000e+00 -7.320870e-14
    outer loop
      vertex   -3.081471e+02 1.098078e+02 -3.413618e+02
      vertex   -3.302493e+02 1.098078e+02 -3.413618e+02
      vertex   -3.081982e+02 1.098078e+02 -3.417500e+02
    endloop
  endfacet
  facet normal -0.000000e+00 -1.000000e+00 -7.320870e-14
    outer loop
      vertex   -3.081982e+02 1.098078e+02 -3.417500e+02
      vertex   -3.302493e+02 1.098078e+02 -3.413618e+02
      vertex   -3.301982e+02 1.098078e+02 -3.417500e+02
    endloop
  endfacet
  facet normal -0.000000e+00 -1.000000e+00 -3.660435e-14
    outer loop
      vertex   -3.081982e+02 1.098078e+02 -3.417500e+02
      vertex   -3.301982e+02 1.098078e+02 -3.417500e+02
      vertex   -3.081471e+02 1.098078e+02 -3.421382e+02
    endloop
  endfacet
  facet normal -0.000000e+00 -1.000000e+00 -3.660435e-14
    outer loop
      vertex   -3.081471e+02 1.098078e+02 -3.421382e+02
      vertex   -3.301982e+02 1.098078e+02 -3.417500e+02
      vertex   -3.302493e+02 1.098078e+02 -3.421382e+02
    endloop
  endfacet
  facet normal -0.000000e+00 -1.000000e+00 -0.000000e+00
    outer loop
      vertex   -3.081471e+02 1.098078e+02 -3.421382e+02
      vertex   -3.302493e+02 1.098078e+02 -3.421382e+02
      vertex   -3.079973e+02 1.098078e+02 -3.425000e+02
    endloop
  endfacet
  facet normal 0.000000e+00 -1.000000e+00 0.000000e+00
    outer loop
      vertex   -3.079973e+02 1.098078e+02 -3.425000e+02
      vertex   -3.302493e+02 1.098078e+02 -3.421382e+02
      vertex   -3.303992e+02 1.098078e+02 -3.425000e+02
    endloop
  endfacet
  facet normal -0.000000e+00 -1.000000e+00 -4.574405e-14
    outer loop
      vertex   -3.079973e+02 1.098078e+02 -3.425000e+02
      vertex   -3.303992e+02 1.098078e+02 -3.425000e+02
      vertex   -3.077589e+02 1.098078e+02 -3.428107e+02
    endloop
  endfacet
  facet normal -0.000000e+00 -1.000000e+00 -4.574405e-14
    outer loop
      vertex   -3.077589e+02 1.098078e+02 -3.428107e+02
      vertex   -3.303992e+02 1.098078e+02 -3.425000e+02
      vertex   -3.306376e+02 1.098078e+02 -3.428107e+02
    endloop
  endfacet
  facet normal -0.000000e+00 -1.000000e+00 -5.961481e-14
    outer loop
      vertex   -3.077589e+02 1.098078e+02 -3.428107e+02
      vertex   -3.306376e+02 1.098078e+02 -3.428107e+02
      vertex   -3.074482e+02 1.098078e+02 -3.430490e+02
    endloop
  endfacet
  facet normal -0.000000e+00 -1.000000e+00 -5.961481e-14
    outer loop
      vertex   -3.074482e+02 1.098078e+02 -3.430490e+02
      vertex   -3.306376e+02 1.098078e+02 -3.428107e+02
      vertex   -3.309482e+02 1.098078e+02 -3.430490e+02
    endloop
  endfacet
  facet normal -0.000000e+00 -1.000000e+00 -0.000000e+00
    outer loop
      vertex   -3.074482e+02 1.098078e+02 -3.430490e+02
      vertex   -3.309482e+02 1.098078e+02 -3.430490e+02
      vertex   -3.070864e+02 1.098078e+02 -3.431989e+02
    endloop
  endfacet
  facet normal 0.000000e+00 -1.000000e+00 0.000000e+00
    outer loop
      vertex   -3.070864e+02 1.098078e+02 -3.431989e+02
      vertex   -3.309482e+02 1.098078e+02 -3.430490e+02
      vertex   -3.313100e+02 1.098078e+02 -3.431989e+02
    endloop
  endfacet
  facet normal -0.000000e+00 -1.000000e+00 -1.279730e-13
    outer loop
      vertex   -3.070864e+02 1.098078e+02 -3.431989e+02
      vertex   -3.313100e+02 1.098078e+02 -3.431989e+02
      vertex   -2.951982e+02 1.098078e+02 -3.507500e+02
    endloop
  endfacet
  facet normal -3.293388e-14 -1.000000e+00 -7.950941e-14
    outer loop
      vertex   -3.320864e+02 1.098078e+02 -3.431989e+02
      vertex   -3.324482e+02 1.098078e+02 -3.430490e+02
      vertex   -3.431982e+02 1.098078e+02 -3.507500e+02
    endloop
  endfacet
  facet normal -2.440318e-14 -1.000000e+00 -9.141766e-14
    outer loop
      vertex   -3.431982e+02 1.098078e+02 -3.507500e+02
      vertex   -3.324482e+02 1.098078e+02 -3.430490e+02
      vertex   -3.327589e+02 1.098078e+02 -3.428107e+02
    endloop
  endfacet
  facet normal -3.734536e-14 -1.000000e+00 -7.440015e-14
    outer loop
      vertex   -3.431982e+02 1.098078e+02 -3.507500e+02
      vertex   -3.327589e+02 1.098078e+02 -3.428107e+02
      vertex   -3.329973e+02 1.098078e+02 -3.425000e+02
    endloop
  endfacet
  facet normal -7.304622e-14 -1.000000e+00 -3.025674e-14
    outer loop
      vertex   -3.329973e+02 1.098078e+02 -3.425000e+02
      vertex   -3.331471e+02 1.098078e+02 -3.421382e+02
      vertex   -3.431982e+02 1.098078e+02 -3.507500e+02
    endloop
  endfacet
  facet normal -6.075452e-14 -1.000000e+00 -4.460283e-14
    outer loop
      vertex   -3.431982e+02 1.098078e+02 -3.507500e+02
      vertex   -3.331471e+02 1.098078e+02 -3.421382e+02
      vertex   -3.331982e+02 1.098078e+02 -3.417500e+02
    endloop
  endfacet
  facet normal 1.937287e-15 -1.000000e+00 4.677024e-15
    outer loop
      vertex   -3.063100e+02 1.098078e+02 -3.403011e+02
      vertex   -3.059482e+02 1.098078e+02 -3.404510e+02
      vertex   -2.951982e+02 1.098078e+02 -3.327500e+02
    endloop
  endfacet
  facet normal 2.482116e-14 -1.000000e+00 -2.726725e-14
    outer loop
      vertex   -2.951982e+02 1.098078e+02 -3.327500e+02
      vertex   -3.059482e+02 1.098078e+02 -3.404510e+02
      vertex   -3.056376e+02 1.098078e+02 -3.406893e+02
    endloop
  endfacet
  facet normal 2.454782e-14 -1.000000e+00 -2.690784e-14
    outer loop
      vertex   -2.951982e+02 1.098078e+02 -3.327500e+02
      vertex   -3.056376e+02 1.098078e+02 -3.406893e+02
      vertex   -3.053992e+02 1.098078e+02 -3.410000e+02
    endloop
  endfacet
  facet normal 2.087035e-15 -1.000000e+00 8.644782e-16
    outer loop
      vertex   -3.053992e+02 1.098078e+02 -3.410000e+02
      vertex   -3.052493e+02 1.098078e+02 -3.413618e+02
      vertex   -2.951982e+02 1.098078e+02 -3.327500e+02
    endloop
  endfacet
  facet normal 5.890799e-14 -1.000000e+00 -6.545332e-14
    outer loop
      vertex   -2.951982e+02 1.098078e+02 -3.327500e+02
      vertex   -3.052493e+02 1.098078e+02 -3.413618e+02
      vertex   -3.051982e+02 1.098078e+02 -3.417500e+02
    endloop
  endfacet
  facet normal 3.734536e-14 -1.000000e+00 -7.440015e-14
    outer loop
      vertex   -3.053992e+02 1.098078e+02 -3.425000e+02
      vertex   -3.056376e+02 1.098078e+02 -3.428107e+02
      vertex   -2.951982e+02 1.098078e+02 -3.507500e+02
    endloop
  endfacet
  facet normal 2.440318e-14 -1.000000e+00 -9.141766e-14
    outer loop
      vertex   -2.951982e+02 1.098078e+02 -3.507500e+02
      vertex   -3.056376e+02 1.098078e+02 -3.428107e+02
      vertex   -3.059482e+02 1.098078e+02 -3.430490e+02
    endloop
  endfacet
  facet normal 3.293388e-14 -1.000000e+00 -7.950941e-14
    outer loop
      vertex   -2.951982e+02 1.098078e+02 -3.507500e+02
      vertex   -3.059482e+02 1.098078e+02 -3.430490e+02
      vertex   -3.063100e+02 1.098078e+02 -3.431989e+02
    endloop
  endfacet
  facet normal 1.411369e-14 -1.000000e+00 -1.072041e-13
    outer loop
      vertex   -3.063100e+02 1.098078e+02 -3.431989e+02
      vertex   -3.066982e+02 1.098078e+02 -3.432500e+02
      vertex   -2.951982e+02 1.098078e+02 -3.507500e+02
    endloop
  endfacet
  facet normal -2.125307e-14 -1.000000e+00 -1.614331e-13
    outer loop
      vertex   -2.951982e+02 1.098078e+02 -3.507500e+02
      vertex   -3.066982e+02 1.098078e+02 -3.432500e+02
      vertex   -3.070864e+02 1.098078e+02 -3.431989e+02
    endloop
  endfacet
  facet normal 9.914449e-01 0.000000e+00 -1.305262e-01
    outer loop
      vertex   -3.331471e+02 1.148078e+02 -3.413618e+02
      vertex   -3.331471e+02 1.098078e+02 -3.413618e+02
      vertex   -3.331982e+02 1.148078e+02 -3.417500e+02
    endloop
  endfacet
  facet normal 9.914449e-01 0.000000e+00 -1.305262e-01
    outer loop
      vertex   -3.331982e+02 1.148078e+02 -3.417500e+02
      vertex   -3.331471e+02 1.098078e+02 -3.413618e+02
      vertex   -3.331982e+02 1.098078e+02 -3.417500e+02
    endloop
  endfacet
  facet normal 9.914449e-01 0.000000e+00 1.305262e-01
    outer loop
      vertex   -3.331982e+02 1.148078e+02 -3.417500e+02
      vertex   -3.331982e+02 1.098078e+02 -3.417500e+02
      vertex   -3.331471e+02 1.148078e+02 -3.421382e+02
    endloop
  endfacet
  facet normal 9.914449e-01 0.000000e+00 1.305262e-01
    outer loop
      vertex   -3.331471e+02 1.148078e+02 -3.421382e+02
      vertex   -3.331982e+02 1.098078e+02 -3.417500e+02
      vertex   -3.331471e+02 1.098078e+02 -3.421382e+02
    endloop
  endfacet
  facet normal 9.238795e-01 0.000000e+00 3.826834e-01
    outer loop
      vertex   -3.331471e+02 1.148078e+02 -3.421382e+02
      vertex   -3.331471e+02 1.098078e+02 -3.421382e+02
      vertex   -3.329973e+02 1.148078e+02 -3.425000e+02
    endloop
  endfacet
  facet normal 9.238795e-01 0.000000e+00 3.826834e-01
    outer loop
      vertex   -3.329973e+02 1.148078e+02 -3.425000e+02
      vertex   -3.331471e+02 1.098078e+02 -3.421382e+02
      vertex   -3.329973e+02 1.098078e+02 -3.425000e+02
    endloop
  endfacet
  facet normal 7.933533e-01 0.000000e+00 6.087614e-01
    outer loop
      vertex   -3.329973e+02 1.148078e+02 -3.425000e+02
      vertex   -3.329973e+02 1.098078e+02 -3.425000e+02
      vertex   -3.327589e+02 1.148078e+02 -3.428107e+02
    endloop
  endfacet
  facet normal 7.933533e-01 0.000000e+00 6.087614e-01
    outer loop
      vertex   -3.327589e+02 1.148078e+02 -3.428107e+02
      vertex   -3.329973e+02 1.098078e+02 -3.425000e+02
      vertex   -3.327589e+02 1.098078e+02 -3.428107e+02
    endloop
  endfacet
  facet normal 6.087614e-01 0.000000e+00 7.933533e-01
    outer loop
      vertex   -3.327589e+02 1.148078e+02 -3.428107e+02
      vertex   -3.327589e+02 1.098078e+02 -3.428107e+02
      vertex   -3.324482e+02 1.148078e+02 -3.430490e+02
    endloop
  endfacet
  facet normal 6.087614e-01 0.000000e+00 7.933533e-01
    outer loop
      vertex   -3.324482e+02 1.148078e+02 -3.430490e+02
      vertex   -3.327589e+02 1.098078e+02 -3.428107e+02
      vertex   -3.324482e+02 1.098078e+02 -3.430490e+02
    endloop
  endfacet
  facet normal 3.826834e-01 0.000000e+00 9.238795e-01
    outer loop
      vertex   -3.324482e+02 1.148078e+02 -3.430490e+02
      vertex   -3.324482e+02 1.098078e+02 -3.430490e+02
      vertex   -3.320864e+02 1.148078e+02 -3.431989e+02
    endloop
  endfacet
  facet normal 3.826834e-01 0.000000e+00 9.238795e-01
    outer loop
      vertex   -3.320864e+02 1.148078e+02 -3.431989e+02
      vertex   -3.324482e+02 1.098078e+02 -3.430490e+02
      vertex   -3.320864e+02 1.098078e+02 -3.431989e+02
    endloop
  endfacet
  facet normal 1.305262e-01 0.000000e+00 9.914449e-01
    outer loop
      vertex   -3.320864e+02 1.148078e+02 -3.431989e+02
      vertex   -3.320864e+02 1.098078e+02 -3.431989e+02
      vertex   -3.316982e+02 1.148078e+02 -3.432500e+02
    endloop
  endfacet
  facet normal 1.305262e-01 0.000000e+00 9.914449e-01
    outer loop
      vertex   -3.316982e+02 1.148078e+02 -3.432500e+02
      vertex   -3.320864e+02 1.098078e+02 -3.431989e+02
      vertex   -3.316982e+02 1.098078e+02 -3.432500e+02
    endloop
  endfacet
  facet normal -1.305262e-01 0.000000e+00 9.914449e-01
    outer loop
      vertex   -3.316982e+02 1.148078e+02 -3.432500e+02
      vertex   -3.316982e+02 1.098078e+02 -3.432500e+02
      vertex   -3.313100e+02 1.148078e+02 -3.431989e+02
    endloop
  endfacet
  facet normal -1.305262e-01 0.000000e+00 9.914449e-01
    outer loop
      vertex   -3.313100e+02 1.148078e+02 -3.431989e+02
      vertex   -3.316982e+02 1.098078e+02 -3.432500e+02
      vertex   -3.313100e+02 1.098078e+02 -3.431989e+02
    endloop
  endfacet
  facet normal -3.826834e-01 0.000000e+00 9.238795e-01
    outer loop
      vertex   -3.313100e+02 1.148078e+02 -3.431989e+02
      vertex   -3.313100e+02 1.098078e+02 -3.431989e+02
      vertex   -3.309482e+02 1.148078e+02 -3.430490e+02
    endloop
  endfacet
  facet normal -3.826834e-01 0.000000e+00 9.238795e-01
    outer loop
      vertex   -3.309482e+02 1.148078e+02 -3.430490e+02
      vertex   -3.313100e+02 1.098078e+02 -3.431989e+02
      vertex   -3.309482e+02 1.098078e+02 -3.430490e+02
    endloop
  endfacet
  facet normal -6.087614e-01 0.000000e+00 7.933533e-01
    outer loop
      vertex   -3.309482e+02 1.148078e+02 -3.430490e+02
      vertex   -3.309482e+02 1.098078e+02 -3.430490e+02
      vertex   -3.306376e+02 1.148078e+02 -3.428107e+02
    endloop
  endfacet
  facet normal -6.087614e-01 0.000000e+00 7.933533e-01
    outer loop
      vertex   -3.306376e+02 1.148078e+02 -3.428107e+02
      vertex   -3.309482e+02 1.098078e+02 -3.430490e+02
      vertex   -3.306376e+02 1.098078e+02 -3.428107e+02
    endloop
  endfacet
  facet normal -7.933533e-01 0.000000e+00 6.087614e-01
    outer loop
      vertex   -3.306376e+02 1.148078e+02 -3.428107e+02
      vertex   -3.306376e+02 1.098078e+02 -3.428107e+02
      vertex   -3.303992e+02 1.148078e+02 -3.425000e+02
    endloop
  endfacet
  facet normal -7.933533e-01 0.000000e+00 6.087614e-01
    outer loop
      vertex   -3.303992e+02 1.148078e+02 -3.425000e+02
      vertex   -3.306376e+02 1.098078e+02 -3.428107e+02
      vertex   -3.303992e+02 1.098078e+02 -3.425000e+02
    endloop
  endfacet
  facet normal -9.238795e-01 0.000000e+00 3.826834e-01
    outer loop
      vertex   -3.303992e+02 1.148078e+02 -3.425000e+02
      vertex   -3.303992e+02 1.098078e+02 -3.425000e+02
      vertex   -3.302493e+02 1.148078e+02 -3.421382e+02
    endloop
  endfacet
  facet normal -9.238795e-01 0.000000e+00 3.826834e-01
    outer loop
      vertex   -3.302493e+02 1.148078e+02 -3.421382e+02
      vertex   -3.303992e+02 1.098078e+02 -3.425000e+02
      vertex   -3.302493e+02 1.098078e+02 -3.421382e+02
    endloop
  endfacet
  facet normal -9.914449e-01 0.000000e+00 1.305262e-01
    outer loop
      vertex   -3.302493e+02 1.148078e+02 -3.421382e+02
      vertex   -3.302493e+02 1.098078e+02 -3.421382e+02
      vertex   -3.301982e+02 1.148078e+02 -3.417500e+02
    endloop
  endfacet
  facet normal -9.914449e-01 0.000000e+00 1.305262e-01
    outer loop
      vertex   -3.301982e+02 1.148078e+02 -3.417500e+02
      vertex   -3.302493e+02 1.098078e+02 -3.421382e+02
      vertex   -3.301982e+02 1.098078e+02 -3.417500e+02
    endloop
  endfacet
  facet normal -9.914449e-01 -0.000000e+00 -1.305262e-01
    outer loop
      vertex   -3.301982e+02 1.148078e+02 -3.417500e+02
      vertex   -3.301982e+02 1.098078e+02 -3.417500e+02
      vertex   -3.302493e+02 1.148078e+02 -3.413618e+02
    endloop
  endfacet
  facet normal -9.914449e-01 -0.000000e+00 -1.305262e-01
    outer loop
      vertex   -3.302493e+02 1.148078e+02 -3.413618e+02
      vertex   -3.301982e+02 1.098078e+02 -3.417500e+02
      vertex   -3.302493e+02 1.098078e+02 -3.413618e+02
    endloop
  endfacet
  facet normal -9.238795e-01 -0.000000e+00 -3.826834e-01
    outer loop
      vertex   -3.302493e+02 1.148078e+02 -3.413618e+02
      vertex   -3.302493e+02 1.098078e+02 -3.413618e+02
      vertex   -3.303992e+02 1.148078e+02 -3.410000e+02
    endloop
  endfacet
  facet normal -9.238795e-01 -0.000000e+00 -3.826834e-01
    outer loop
      vertex   -3.303992e+02 1.148078e+02 -3.410000e+02
      vertex   -3.302493e+02 1.098078e+02 -3.413618e+02
      vertex   -3.303992e+02 1.098078e+02 -3.410000e+02
    endloop
  endfacet
  facet normal -7.933533e-01 -0.000000e+00 -6.087614e-01
    outer loop
      vertex   -3.303992e+02 1.148078e+02 -3.410000e+02
      vertex   -3.303992e+02 1.098078e+02 -3.410000e+02
      vertex   -3.306376e+02 1.148078e+02 -3.406893e+02
    endloop
  endfacet
  facet normal -7.933533e-01 -0.000000e+00 -6.087614e-01
    outer loop
      vertex   -3.306376e+02 1.148078e+02 -3.406893e+02
      vertex   -3.303992e+02 1.098078e+02 -3.410000e+02
      vertex   -3.306376e+02 1.098078e+02 -3.406893e+02
    endloop
  endfacet
  facet normal -6.087614e-01 -0.000000e+00 -7.933533e-01
    outer loop
      vertex   -3.306376e+02 1.148078e+02 -3.406893e+02
      vertex   -3.306376e+02 1.098078e+02 -3.406893e+02
      vertex   -3.309482e+02 1.148078e+02 -3.404510e+02
    endloop
  endfacet
  facet normal -6.087614e-01 -0.000000e+00 -7.933533e-01
    outer loop
      vertex   -3.309482e+02 1.148078e+02 -3.404510e+02
      vertex   -3.306376e+02 1.098078e+02 -3.406893e+02
      vertex   -3.309482e+02 1.098078e+02 -3.404510e+02
    endloop
  endfacet
  facet normal -3.826834e-01 -0.000000e+00 -9.238795e-01
    outer loop
      vertex   -3.309482e+02 1.148078e+02 -3.404510e+02
      vertex   -3.309482e+02 1.098078e+02 -3.404510e+02
      vertex   -3.313100e+02 1.148078e+02 -3.403011e+02
    endloop
  endfacet
  facet normal -3.826834e-01 -0.000000e+00 -9.238795e-01
    outer loop
      vertex   -3.313100e+02 1.148078e+02 -3.403011e+02
      vertex   -3.309482e+02 1.098078e+02 -3.404510e+02
      vertex   -3.313100e+02 1.098078e+02 -3.403011e+02
    endloop
  endfacet
  facet normal -1.305262e-01 -0.000000e+00 -9.914449e-01
    outer loop
      vertex   -3.313100e+02 1.148078e+02 -3.403011e+02
      vertex   -3.313100e+02 1.098078e+02 -3.403011e+02
      vertex   -3.316982e+02 1.148078e+02 -3.402500e+02
    endloop
  endfacet
  facet normal -1.305262e-01 -0.000000e+00 -9.914449e-01
    outer loop
      vertex   -3.316982e+02 1.148078e+02 -3.402500e+02
      vertex   -3.313100e+02 1.098078e+02 -3.403011e+02
      vertex   -3.316982e+02 1.098078e+02 -3.402500e+02
    endloop
  endfacet
  facet normal 1.305262e-01 0.000000e+00 -9.914449e-01
    outer loop
      vertex   -3.316982e+02 1.148078e+02 -3.402500e+02
      vertex   -3.316982e+02 1.098078e+02 -3.402500e+02
      vertex   -3.320864e+02 1.148078e+02 -3.403011e+02
    endloop
  endfacet
  facet normal 1.305262e-01 0.000000e+00 -9.914449e-01
    outer loop
      vertex   -3.320864e+02 1.148078e+02 -3.403011e+02
      vertex   -3.316982e+02 1.098078e+02 -3.402500e+02
      vertex   -3.320864e+02 1.098078e+02 -3.403011e+02
    endloop
  endfacet
  facet normal 3.826834e-01 0.000000e+00 -9.238795e-01
    outer loop
      vertex   -3.320864e+02 1.148078e+02 -3.403011e+02
      vertex   -3.320864e+02 1.098078e+02 -3.403011e+02
      vertex   -3.324482e+02 1.148078e+02 -3.404510e+02
    endloop
  endfacet
  facet normal 3.826834e-01 0.000000e+00 -9.238795e-01
    outer loop
      vertex   -3.324482e+02 1.148078e+02 -3.404510e+02
      vertex   -3.320864e+02 1.098078e+02 -3.403011e+02
      vertex   -3.324482e+02 1.098078e+02 -3.404510e+02
    endloop
  endfacet
  facet normal 6.087614e-01 0.000000e+00 -7.933533e-01
    outer loop
      vertex   -3.324482e+02 1.148078e+02 -3.404510e+02
      vertex   -3.324482e+02 1.098078e+02 -3.404510e+02
      vertex   -3.327589e+02 1.148078e+02 -3.406893e+02
    endloop
  endfacet
  facet normal 6.087614e-01 0.000000e+00 -7.933533e-01
    outer loop
      vertex   -3.327589e+02 1.148078e+02 -3.406893e+02
      vertex   -3.324482e+02 1.098078e+02 -3.404510e+02
      vertex   -3.327589e+02 1.098078e+02 -3.406893e+02
    endloop
  endfacet
  facet normal 7.933533e-01 0.000000e+00 -6.087614e-01
    outer loop
      vertex   -3.327589e+02 1.148078e+02 -3.406893e+02
      vertex   -3.327589e+02 1.098078e+02 -3.406893e+02
      vertex   -3.329973e+02 1.148078e+02 -3.410000e+02
    endloop
  endfacet
  facet normal 7.933533e-01 0.000000e+00 -6.087614e-01
    outer loop
      vertex   -3.329973e+02 1.148078e+02 -3.410000e+02
      vertex   -3.327589e+02 1.098078e+02 -3.406893e+02
      vertex   -3.329973e+02 1.098078e+02 -3.410000e+02
    endloop
  endfacet
  facet normal 9.238795e-01 0.000000e+00 -3.826834e-01
    outer loop
      vertex   -3.329973e+02 1.148078e+02 -3.410000e+02
      vertex   -3.329973e+02 1.098078e+02 -3.410000e+02
      vertex   -3.331471e+02 1.148078e+02 -3.413618e+02
    endloop
  endfacet
  facet normal 9.238795e-01 0.000000e+00 -3.826834e-01
    outer loop
      vertex   -3.331471e+02 1.148078e+02 -3.413618e+02
      vertex   -3.329973e+02 1.098078e+02 -3.410000e+02
      vertex   -3.331471e+02 1.098078e+02 -3.413618e+02
    endloop
  endfacet
  facet normal 9.914449e-01 0.000000e+00 -1.305262e-01
    outer loop
      vertex   -3.081471e+02 1.148078e+02 -3.413618e+02
      vertex   -3.081471e+02 1.098078e+02 -3.413618e+02
      vertex   -3.081982e+02 1.148078e+02 -3.417500e+02
    endloop
  endfacet
  facet normal 9.914449e-01 0.000000e+00 -1.305262e-01
    outer loop
      vertex   -3.081982e+02 1.148078e+02 -3.417500e+02
      vertex   -3.081471e+02 1.098078e+02 -3.413618e+02
      vertex   -3.081982e+02 1.098078e+02 -3.417500e+02
    endloop
  endfacet
  facet normal 9.914449e-01 0.000000e+00 1.305262e-01
    outer loop
      vertex   -3.081982e+02 1.148078e+02 -3.417500e+02
      vertex   -3.081982e+02 1.098078e+02 -3.417500e+02
      vertex   -3.081471e+02 1.148078e+02 -3.421382e+02
    endloop
  endfacet
  facet normal 9.914449e-01 0.000000e+00 1.305262e-01
    outer loop
      vertex   -3.081471e+02 1.148078e+02 -3.421382e+02
      vertex   -3.081982e+02 1.098078e+02 -3.417500e+02
      vertex   -3.081471e+02 1.098078e+02 -3.421382e+02
    endloop
  endfacet
  facet normal 9.238795e-01 0.000000e+00 3.826834e-01
    outer loop
      vertex   -3.081471e+02 1.148078e+02 -3.421382e+02
      vertex   -3.081471e+02 1.098078e+02 -3.421382e+02
      vertex   -3.079973e+02 1.148078e+02 -3.425000e+02
    endloop
  endfacet
  facet normal 9.238795e-01 0.000000e+00 3.826834e-01
    outer loop
      vertex   -3.079973e+02 1.148078e+02 -3.425000e+02
      vertex   -3.081471e+02 1.098078e+02 -3.421382e+02
      vertex   -3.079973e+02 1.098078e+02 -3.425000e+02
    endloop
  endfacet
  facet normal 7.933533e-01 0.000000e+00 6.087614e-01
    outer loop
      vertex   -3.079973e+02 1.148078e+02 -3.425000e+02
      vertex   -3.079973e+02 1.098078e+02 -3.425000e+02
      vertex   -3.077589e+02 1.148078e+02 -3.428107e+02
    endloop
  endfacet
  facet normal 7.933533e-01 0.000000e+00 6.087614e-01
    outer loop
      vertex   -3.077589e+02 1.148078e+02 -3.428107e+02
      vertex   -3.079973e+02 1.098078e+02 -3.425000e+02
      vertex   -3.077589e+02 1.098078e+02 -3.428107e+02
    endloop
  endfacet
  facet normal 6.087614e-01 0.000000e+00 7.933533e-01
    outer loop
      vertex   -3.077589e+02 1.148078e+02 -3.428107e+02
      vertex   -3.077589e+02 1.098078e+02 -3.428107e+02
      vertex   -3.074482e+02 1.148078e+02 -3.430490e+02
    endloop
  endfacet
  facet normal 6.087614e-01 0.000000e+00 7.933533e-01
    outer loop
      vertex   -3.074482e+02 1.148078e+02 -3.430490e+02
      vertex   -3.077589e+02 1.098078e+02 -3.428107e+02
      vertex   -3.074482e+02 1.098078e+02 -3.430490e+02
    endloop
  endfacet
  facet normal 3.826834e-01 0.000000e+00 9.238795e-01
    outer loop
      vertex   -3.074482e+02 1.148078e+02 -3.430490e+02
      vertex   -3.074482e+02 1.098078e+02 -3.430490e+02
      vertex   -3.070864e+02 1.148078e+02 -3.431989e+02
    endloop
  endfacet
  facet normal 3.826834e-01 0.000000e+00 9.238795e-01
    outer loop
      vertex   -3.070864e+02 1.148078e+02 -3.431989e+02
      vertex   -3.074482e+02 1.098078e+02 -3.430490e+02
      vertex   -3.070864e+02 1.098078e+02 -3.431989e+02
    endloop
  endfacet
  facet normal 1.305262e-01 0.000000e+00 9.914449e-01
    outer loop
      vertex   -3.070864e+02 1.148078e+02 -3.431989e+02
      vertex   -3.070864e+02 1.098078e+02 -3.431989e+02
      vertex   -3.066982e+02 1.148078e+02 -3.432500e+02
    endloop
  endfacet
  facet normal 1.305262e-01 0.000000e+00 9.914449e-01
    outer loop
      vertex   -3.066982e+02 1.148078e+02 -3.432500e+02
      vertex   -3.070864e+02 1.098078e+02 -3.431989e+02
      vertex   -3.066982e+02 1.098078e+02 -3.432500e+02
    endloop
  endfacet
  facet normal -1.305262e-01 0.000000e+00 9.914449e-01
    outer loop
      vertex   -3.066982e+02 1.148078e+02 -3.432500e+02
      vertex   -3.066982e+02 1.098078e+02 -3.432500e+02
      vertex   -3.063100e+02 1.148078e+02 -3.431989e+02
    endloop
  endfacet
  facet normal -1.305262e-01 0.000000e+00 9.914449e-01
    outer loop
      vertex   -3.063100e+02 1.148078e+02 -3.431989e+02
      vertex   -3.066982e+02 1.098078e+02 -3.432500e+02
      vertex   -3.063100e+02 1.098078e+02 -3.431989e+02
    endloop
  endfacet
  facet normal -3.826834e-01 0.000000e+00 9.238795e-01
    outer loop
      vertex   -3.063100e+02 1.148078e+02 -3.431989e+02
      vertex   -3.063100e+02 1.098078e+02 -3.431989e+02
      vertex   -3.059482e+02 1.148078e+02 -3.430490e+02
    endloop
  endfacet
  facet normal -3.826834e-01 0.000000e+00 9.238795e-01
    outer loop
      vertex   -3.059482e+02 1.148078e+02 -3.430490e+02
      vertex   -3.063100e+02 1.098078e+02 -3.431989e+02
      vertex   -3.059482e+02 1.098078e+02 -3.430490e+02
    endloop
  endfacet
  facet normal -6.087614e-01 0.000000e+00 7.933533e-01
    outer loop
      vertex   -3.059482e+02 1.148078e+02 -3.430490e+02
      vertex   -3.059482e+02 1.098078e+02 -3.430490e+02
      vertex   -3.056376e+02 1.148078e+02 -3.428107e+02
    endloop
  endfacet
  facet normal -6.087614e-01 0.000000e+00 7.933533e-01
    outer loop
      vertex   -3.056376e+02 1.148078e+02 -3.428107e+02
      vertex   -3.059482e+02 1.098078e+02 -3.430490e+02
      vertex   -3.056376e+02 1.098078e+02 -3.428107e+02
    endloop
  endfacet
  facet normal -7.933533e-01 0.000000e+00 6.087614e-01
    outer loop
      vertex   -3.056376e+02 1.148078e+02 -3.428107e+02
      vertex   -3.056376e+02 1.098078e+02 -3.428107e+02
      vertex   -3.053992e+02 1.148078e+02 -3.425000e+02
    endloop
  endfacet
  facet normal -7.933533e-01 0.000000e+00 6.087614e-01
    outer loop
      vertex   -3.053992e+02 1.148078e+02 -3.425000e+02
      vertex   -3.056376e+02 1.098078e+02 -3.428107e+02
      vertex   -3.053992e+02 1.098078e+02 -3.425000e+02
    endloop
  endfacet
  facet normal -9.238795e-01 0.000000e+00 3.826834e-01
    outer loop
      vertex   -3.053992e+02 1.148078e+02 -3.425000e+02
      vertex   -3.053992e+02 1.098078e+02 -3.425000e+02
      vertex   -3.052493e+02 1.148078e+02 -3.421382e+02
    endloop
  endfacet
  facet normal -9.238795e-01 0.000000e+00 3.826834e-01
    outer loop
      vertex   -3.052493e+02 1.148078e+02 -3.421382e+02
      vertex   -3.053992e+02 1.098078e+02 -3.425000e+02
      vertex   -3.052493e+02 1.098078e+02 -3.421382e+02
    endloop
  endfacet
  facet normal -9.914449e-01 0.000000e+00 1.305262e-01
    outer loop
      vertex   -3.052493e+02 1.148078e+02 -3.421382e+02
      vertex   -3.052493e+02 1.098078e+02 -3.421382e+02
      vertex   -3.051982e+02 1.148078e+02 -3.417500e+02
    endloop
  endfacet
  facet normal -9.914449e-01 0.000000e+00 1.305262e-01
    outer loop
      vertex   -3.051982e+02 1.148078e+02 -3.417500e+02
      vertex   -3.052493e+02 1.098078e+02 -3.421382e+02
      vertex   -3.051982e+02 1.098078e+02 -3.417500e+02
    endloop
  endfacet
  facet normal -9.914449e-01 -0.000000e+00 -1.305262e-01
    outer loop
      vertex   -3.051982e+02 1.148078e+02 -3.417500e+02
      vertex   -3.051982e+02 1.098078e+02 -3.417500e+02
      vertex   -3.052493e+02 1.148078e+02 -3.413618e+02
    endloop
  endfacet
  facet normal -9.914449e-01 -0.000000e+00 -1.305262e-01
    outer loop
      vertex   -3.052493e+02 1.148078e+02 -3.413618e+02
      vertex   -3.051982e+02 1.098078e+02 -3.417500e+02
      vertex   -3.052493e+02 1.098078e+02 -3.413618e+02
    endloop
  endfacet
  facet normal -9.238795e-01 -0.000000e+00 -3.826834e-01
    outer loop
      vertex   -3.052493e+02 1.148078e+02 -3.413618e+02
      vertex   -3.052493e+02 1.098078e+02 -3.413618e+02
      vertex   -3.053992e+02 1.148078e+02 -3.410000e+02
    endloop
  endfacet
  facet normal -9.238795e-01 -0.000000e+00 -3.826834e-01
    outer loop
      vertex   -3.053992e+02 1.148078e+02 -3.410000e+02
      vertex   -3.052493e+02 1.098078e+02 -3.413618e+02
      vertex   -3.053992e+02 1.098078e+02 -3.410000e+02
    endloop
  endfacet
  facet normal -7.933533e-01 -0.000000e+00 -6.087614e-01
    outer loop
      vertex   -3.053992e+02 1.148078e+02 -3.410000e+02
      vertex   -3.053992e+02 1.098078e+02 -3.410000e+02
      vertex   -3.056376e+02 1.148078e+02 -3.406893e+02
    endloop
  endfacet
  facet normal -7.933533e-01 -0.000000e+00 -6.087614e-01
    outer loop
      vertex   -3.056376e+02 1.148078e+02 -3.406893e+02
      vertex   -3.053992e+02 1.098078e+02 -3.410000e+02
      vertex   -3.056376e+02 1.098078e+02 -3.406893e+02
    endloop
  endfacet
  facet normal -6.087614e-01 -0.000000e+00 -7.933533e-01
    outer loop
      vertex   -3.056376e+02 1.148078e+02 -3.406893e+02
      vertex   -3.056376e+02 1.098078e+02 -3.406893e+02
      vertex   -3.059482e+02 1.148078e+02 -3.404510e+02
    endloop
  endfacet
  facet normal -6.087614e-01 -0.000000e+00 -7.933533e-01
    outer loop
      vertex   -3.059482e+02 1.148078e+02 -3.404510e+02
      vertex   -3.056376e+02 1.098078e+02 -3.406893e+02
      vertex   -3.059482e+02 1.098078e+02 -3.404510e+02
    endloop
  endfacet
  facet normal -3.826834e-01 -0.000000e+00 -9.238795e-01
    outer loop
      vertex   -3.059482e+02 1.148078e+02 -3.404510e+02
      vertex   -3.059482e+02 1.098078e+02 -3.404510e+02
      vertex   -3.063100e+02 1.148078e+02 -3.403011e+02
    endloop
  endfacet
  facet normal -3.826834e-01 -0.000000e+00 -9.238795e-01
    outer loop
      vertex   -3.063100e+02 1.148078e+02 -3.403011e+02
      vertex   -3.059482e+02 1.098078e+02 -3.404510e+02
      vertex   -3.063100e+02 1.098078e+02 -3.403011e+02
    endloop
  endfacet
  facet normal -1.305262e-01 -0.000000e+00 -9.914449e-01
    outer loop
      vertex   -3.063100e+02 1.148078e+02 -3.403011e+02
      vertex   -3.063100e+02 1.098078e+02 -3.403011e+02
      vertex   -3.066982e+02 1.148078e+02 -3.402500e+02
    endloop
  endfacet
  facet normal -1.305262e-01 -0.000000e+00 -9.914449e-01
    outer loop
      vertex   -3.066982e+02 1.148078e+02 -3.402500e+02
      vertex   -3.063100e+02 1.098078e+02 -3.403011e+02
      vertex   -3.066982e+02 1.098078e+02 -3.402500e+02
    endloop
  endfacet
  facet normal 1.305262e-01 0.000000e+00 -9.914449e-01
    outer loop
      vertex   -3.066982e+02 1.148078e+02 -3.402500e+02
      vertex   -3.066982e+02 1.098078e+02 -3.402500e+02
      vertex   -3.070864e+02 1.148078e+02 -3.403011e+02
    endloop
  endfacet
  facet normal 1.305262e-01 0.000000e+00 -9.914449e-01
    outer loop
      vertex   -3.070864e+02 1.148078e+02 -3.403011e+02
      vertex   -3.066982e+02 1.098078e+02 -3.402500e+02
      vertex   -3.070864e+02 1.098078e+02 -3.403011e+02
    endloop
  endfacet
  facet normal 3.826834e-01 0.000000e+00 -9.238795e-01
    outer loop
      vertex   -3.070864e+02 1.148078e+02 -3.403011e+02
      vertex   -3.070864e+02 1.098078e+02 -3.403011e+02
      vertex   -3.074482e+02 1.148078e+02 -3.404510e+02
    endloop
  endfacet
  facet normal 3.826834e-01 0.000000e+00 -9.238795e-01
    outer loop
      vertex   -3.074482e+02 1.148078e+02 -3.404510e+02
      vertex   -3.070864e+02 1.098078e+02 -3.403011e+02
      vertex   -3.074482e+02 1.098078e+02 -3.404510e+02
    endloop
  endfacet
  facet normal 6.087614e-01 0.000000e+00 -7.933533e-01
    outer loop
      vertex   -3.074482e+02 1.148078e+02 -3.404510e+02
      vertex   -3.074482e+02 1.098078e+02 -3.404510e+02
      vertex   -3.077589e+02 1.148078e+02 -3.406893e+02
    endloop
  endfacet
  facet normal 6.087614e-01 0.000000e+00 -7.933533e-01
    outer loop
      vertex   -3.077589e+02 1.148078e+02 -3.406893e+02
      vertex   -3.074482e+02 1.098078e+02 -3.404510e+02
      vertex   -3.077589e+02 1.098078e+02 -3.406893e+02
    endloop
  endfacet
  facet normal 7.933533e-01 0.000000e+00 -6.087614e-01
    outer loop
      vertex   -3.077589e+02 1.148078e+02 -3.406893e+02
      vertex   -3.077589e+02 1.098078e+02 -3.406893e+02
      vertex   -3.079973e+02 1.148078e+02 -3.410000e+02
    endloop
  endfacet
  facet normal 7.933533e-01 0.000000e+00 -6.087614e-01
    outer loop
      vertex   -3.079973e+02 1.148078e+02 -3.410000e+02
      vertex   -3.077589e+02 1.098078e+02 -3.406893e+02
      vertex   -3.079973e+02 1.098078e+02 -3.410000e+02
    endloop
  endfacet
  facet normal 9.238795e-01 0.000000e+00 -3.826834e-01
    outer loop
      vertex   -3.079973e+02 1.148078e+02 -3.410000e+02
      vertex   -3.079973e+02 1.098078e+02 -3.410000e+02
      vertex   -3.081471e+02 1.148078e+02 -3.413618e+02
    endloop
  endfacet
  facet normal 9.238795e-01 0.000000e+00 -3.826834e-01
    outer loop
      vertex   -3.081471e+02 1.148078e+02 -3.413618e+02
      vertex   -3.079973e+02 1.098078e+02 -3.410000e+02
      vertex   -3.081471e+02 1.098078e+02 -3.413618e+02
    endloop
  endfacet
  facet normal 0.000000e+00 0.000000e+00 1.000000e+00
    outer loop
      vertex   -2.951982e+02 1.148078e+02 -3.327500e+02
      vertex   -3.431982e+02 1.148078e+02 -3.327500e+02
      vertex   -2.951982e+02 1.098078e+02 -3.327500e+02
    endloop
  endfacet
  facet normal 0.000000e+00 0.000000e+00 1.000000e+00
    outer loop
      vertex   -2.951982e+02 1.098078e+02 -3.327500e+02
      vertex   -3.431982e+02 1.148078e+02 -3.327500e+02
      vertex   -3.431982e+02 1.098078e+02 -3.327500e+02
    endloop
  endfacet
  facet normal 1.000000e+00 0.000000e+00 0.000000e+00
    outer loop
      vertex   -2.951982e+02 1.148078e+02 -3.507500e+02
      vertex   -2.951982e+02 1.148078e+02 -3.327500e+02
      vertex   -2.951982e+02 1.098078e+02 -3.507500e+02
    endloop
  endfacet
  facet normal 1.000000e+00 0.000000e+00 -0.000000e+00
    outer loop
      vertex   -2.951982e+02 1.098078e+02 -3.507500e+02
      vertex   -2.951982e+02 1.148078e+02 -3.327500e+02
      vertex   -2.951982e+02 1.098078e+02 -3.327500e+02
    endloop
  endfacet
  facet normal 0.000000e+00 1.818989e-13 -1.000000e+00
    outer loop
      vertex   -3.431982e+02 1.148078e+02 -3.507500e+02
      vertex   -2.951982e+02 1.148078e+02 -3.507500e+02
      vertex   -3.431982e+02 1.098078e+02 -3.507500e+02
    endloop
  endfacet
  facet normal 0.000000e+00 1.818989e-13 -1.000000e+00
    outer loop
      vertex   -3.431982e+02 1.098078e+02 -3.507500e+02
      vertex   -2.951982e+02 1.148078e+02 -3.507500e+02
      vertex   -2.951982e+02 1.098078e+02 -3.507500e+02
    endloop
  endfacet
  facet normal -1.000000e+00 -0.000000e+00 -0.000000e+00
    outer loop
      vertex   -3.431982e+02 1.148078e+02 -3.327500e+02
      vertex   -3.431982e+02 1.148078e+02 -3.507500e+02
      vertex   -3.431982e+02 1.098078e+02 -3.327500e+02
    endloop
  endfacet
  facet normal -1.000000e+00 0.000000e+00 0.000000e+00
    outer loop
      vertex   -3.431982e+02 1.098078e+02 -3.327500e+02
      vertex   -3.431982e+02 1.148078e+02 -3.507500e+02
      vertex   -3.431982e+02 1.098078e+02 -3.507500e+02
    endloop
  endfacet
  facet normal -5.044853e-14 1.000000e+00 5.605393e-14
    outer loop
      vertex   -2.951982e+02 1.148078e+02 -3.507500e+02
      vertex   -3.051982e+02 1.148078e+02 -3.417500e+02
      vertex   -2.951982e+02 1.148078e+02 -3.327500e+02
    endloop
  endfacet
  facet normal -5.890799e-14 1.000000e+00 6.545332e-14
    outer loop
      vertex   -2.951982e+02 1.148078e+02 -3.327500e+02
      vertex   -3.051982e+02 1.148078e+02 -3.417500e+02
      vertex   -3.052493e+02 1.148078e+02 -3.413618e+02
    endloop
  endfacet
  facet normal -2.087035e-15 1.000000e+00 -8.644782e-16
    outer loop
      vertex   -2.951982e+02 1.148078e+02 -3.327500e+02
      vertex   -3.052493e+02 1.148078e+02 -3.413618e+02
      vertex   -3.053992e+02 1.148078e+02 -3.410000e+02
    endloop
  endfacet
  facet normal -0.000000e+00 1.000000e+00 1.279730e-13
    outer loop
      vertex   -3.431982e+02 1.148078e+02 -3.507500e+02
      vertex   -3.070864e+02 1.148078e+02 -3.431989e+02
      vertex   -2.951982e+02 1.148078e+02 -3.507500e+02
    endloop
  endfacet
  facet normal 2.125307e-14 1.000000e+00 1.614331e-13
    outer loop
      vertex   -2.951982e+02 1.148078e+02 -3.507500e+02
      vertex   -3.070864e+02 1.148078e+02 -3.431989e+02
      vertex   -3.066982e+02 1.148078e+02 -3.432500e+02
    endloop
  endfacet
  facet normal -1.411369e-14 1.000000e+00 1.072041e-13
    outer loop
      vertex   -2.951982e+02 1.148078e+02 -3.507500e+02
      vertex   -3.066982e+02 1.148078e+02 -3.432500e+02
      vertex   -3.063100e+02 1.148078e+02 -3.431989e+02
    endloop
  endfacet
  facet normal 5.044853e-14 1.000000e+00 5.605393e-14
    outer loop
      vertex   -3.431982e+02 1.148078e+02 -3.327500e+02
      vertex   -3.331982e+02 1.148078e+02 -3.417500e+02
      vertex   -3.431982e+02 1.148078e+02 -3.507500e+02
    endloop
  endfacet
  facet normal 6.075452e-14 1.000000e+00 4.460283e-14
    outer loop
      vertex   -3.431982e+02 1.148078e+02 -3.507500e+02
      vertex   -3.331982e+02 1.148078e+02 -3.417500e+02
      vertex   -3.331471e+02 1.148078e+02 -3.421382e+02
    endloop
  endfacet
  facet normal 7.304622e-14 1.000000e+00 3.025674e-14
    outer loop
      vertex   -3.431982e+02 1.148078e+02 -3.507500e+02
      vertex   -3.331471e+02 1.148078e+02 -3.421382e+02
      vertex   -3.329973e+02 1.148078e+02 -3.425000e+02
    endloop
  endfacet
  facet normal 0.000000e+00 1.000000e+00 -7.527822e-15
    outer loop
      vertex   -2.951982e+02 1.148078e+02 -3.327500e+02
      vertex   -3.070864e+02 1.148078e+02 -3.403011e+02
      vertex   -3.431982e+02 1.148078e+02 -3.327500e+02
    endloop
  endfacet
  facet normal 0.000000e+00 1.000000e+00 -7.527822e-15
    outer loop
      vertex   -3.431982e+02 1.148078e+02 -3.327500e+02
      vertex   -3.070864e+02 1.148078e+02 -3.403011e+02
      vertex   -3.313100e+02 1.148078e+02 -3.403011e+02
    endloop
  endfacet
  facet normal -1.250181e-15 1.000000e+00 -9.496067e-15
    outer loop
      vertex   -3.431982e+02 1.148078e+02 -3.327500e+02
      vertex   -3.313100e+02 1.148078e+02 -3.403011e+02
      vertex   -3.316982e+02 1.148078e+02 -3.402500e+02
    endloop
  endfacet
  facet normal 3.734536e-14 1.000000e+00 7.440015e-14
    outer loop
      vertex   -3.329973e+02 1.148078e+02 -3.425000e+02
      vertex   -3.327589e+02 1.148078e+02 -3.428107e+02
      vertex   -3.431982e+02 1.148078e+02 -3.507500e+02
    endloop
  endfacet
  facet normal 4.717333e-14 1.000000e+00 6.147748e-14
    outer loop
      vertex   -3.431982e+02 1.148078e+02 -3.507500e+02
      vertex   -3.327589e+02 1.148078e+02 -3.428107e+02
      vertex   -3.324482e+02 1.148078e+02 -3.430490e+02
    endloop
  endfacet
  facet normal 8.528460e-15 1.000000e+00 1.154230e-13
    outer loop
      vertex   -3.431982e+02 1.148078e+02 -3.507500e+02
      vertex   -3.324482e+02 1.148078e+02 -3.430490e+02
      vertex   -3.320864e+02 1.148078e+02 -3.431989e+02
    endloop
  endfacet
  facet normal 1.411369e-14 1.000000e+00 1.072041e-13
    outer loop
      vertex   -3.320864e+02 1.148078e+02 -3.431989e+02
      vertex   -3.316982e+02 1.148078e+02 -3.432500e+02
      vertex   -3.431982e+02 1.148078e+02 -3.507500e+02
    endloop
  endfacet
  facet normal -2.125307e-14 1.000000e+00 1.614331e-13
    outer loop
      vertex   -3.431982e+02 1.148078e+02 -3.507500e+02
      vertex   -3.316982e+02 1.148078e+02 -3.432500e+02
      vertex   -3.313100e+02 1.148078e+02 -3.431989e+02
    endloop
  endfacet
  facet normal 0.000000e+00 1.000000e+00 1.279730e-13
    outer loop
      vertex   -3.431982e+02 1.148078e+02 -3.507500e+02
      vertex   -3.313100e+02 1.148078e+02 -3.431989e+02
      vertex   -3.070864e+02 1.148078e+02 -3.431989e+02
    endloop
  endfacet
  facet normal 0.000000e+00 1.000000e+00 9.483346e-14
    outer loop
      vertex   -3.070864e+02 1.148078e+02 -3.431989e+02
      vertex   -3.313100e+02 1.148078e+02 -3.431989e+02
      vertex   -3.309482e+02 1.148078e+02 -3.430490e+02
    endloop
  endfacet
  facet normal 0.000000e+00 1.000000e+00 9.483346e-14
    outer loop
      vertex   -3.070864e+02 1.148078e+02 -3.431989e+02
      vertex   -3.309482e+02 1.148078e+02 -3.430490e+02
      vertex   -3.074482e+02 1.148078e+02 -3.430490e+02
    endloop
  endfacet
  facet normal 0.000000e+00 1.000000e+00 0.000000e+00
    outer loop
      vertex   -3.074482e+02 1.148078e+02 -3.430490e+02
      vertex   -3.309482e+02 1.148078e+02 -3.430490e+02
      vertex   -3.077589e+02 1.148078e+02 -3.428107e+02
    endloop
  endfacet
  facet normal 0.000000e+00 1.000000e+00 0.000000e+00
    outer loop
      vertex   -3.077589e+02 1.148078e+02 -3.428107e+02
      vertex   -3.309482e+02 1.148078e+02 -3.430490e+02
      vertex   -3.306376e+02 1.148078e+02 -3.428107e+02
    endloop
  endfacet
  facet normal 0.000000e+00 1.000000e+00 4.574405e-14
    outer loop
      vertex   -3.077589e+02 1.148078e+02 -3.428107e+02
      vertex   -3.306376e+02 1.148078e+02 -3.428107e+02
      vertex   -3.079973e+02 1.148078e+02 -3.425000e+02
    endloop
  endfacet
  facet normal 0.000000e+00 1.000000e+00 4.574405e-14
    outer loop
      vertex   -3.079973e+02 1.148078e+02 -3.425000e+02
      vertex   -3.306376e+02 1.148078e+02 -3.428107e+02
      vertex   -3.303992e+02 1.148078e+02 -3.425000e+02
    endloop
  endfacet
  facet normal 0.000000e+00 1.000000e+00 0.000000e+00
    outer loop
      vertex   -3.079973e+02 1.148078e+02 -3.425000e+02
      vertex   -3.303992e+02 1.148078e+02 -3.425000e+02
      vertex   -3.081471e+02 1.148078e+02 -3.421382e+02
    endloop
  endfacet
  facet normal 0.000000e+00 1.000000e+00 0.000000e+00
    outer loop
      vertex   -3.081471e+02 1.148078e+02 -3.421382e+02
      vertex   -3.303992e+02 1.148078e+02 -3.425000e+02
      vertex   -3.302493e+02 1.148078e+02 -3.421382e+02
    endloop
  endfacet
  facet normal 0.000000e+00 1.000000e+00 3.660435e-14
    outer loop
      vertex   -3.081471e+02 1.148078e+02 -3.421382e+02
      vertex   -3.302493e+02 1.148078e+02 -3.421382e+02
      vertex   -3.081982e+02 1.148078e+02 -3.417500e+02
    endloop
  endfacet
  facet normal 0.000000e+00 1.000000e+00 3.660435e-14
    outer loop
      vertex   -3.081982e+02 1.148078e+02 -3.417500e+02
      vertex   -3.302493e+02 1.148078e+02 -3.421382e+02
      vertex   -3.301982e+02 1.148078e+02 -3.417500e+02
    endloop
  endfacet
  facet normal 0.000000e+00 1.000000e+00 7.320870e-14
    outer loop
      vertex   -3.081982e+02 1.148078e+02 -3.417500e+02
      vertex   -3.301982e+02 1.148078e+02 -3.417500e+02
      vertex   -3.302493e+02 1.148078e+02 -3.413618e+02
    endloop
  endfacet
  facet normal 0.000000e+00 1.000000e+00 7.320870e-14
    outer loop
      vertex   -3.081982e+02 1.148078e+02 -3.417500e+02
      vertex   -3.302493e+02 1.148078e+02 -3.413618e+02
      vertex   -3.081471e+02 1.148078e+02 -3.413618e+02
    endloop
  endfacet
  facet normal 0.000000e+00 1.000000e+00 0.000000e+00
    outer loop
      vertex   -3.081471e+02 1.148078e+02 -3.413618e+02
      vertex   -3.302493e+02 1.148078e+02 -3.413618e+02
      vertex   -3.303992e+02 1.148078e+02 -3.410000e+02
    endloop
  endfacet
  facet normal 0.000000e+00 1.000000e+00 -0.000000e+00
    outer loop
      vertex   -3.081471e+02 1.148078e+02 -3.413618e+02
      vertex   -3.303992e+02 1.148078e+02 -3.410000e+02
      vertex   -3.079973e+02 1.148078e+02 -3.410000e+02
    endloop
  endfacet
  facet normal 0.000000e+00 1.000000e+00 4.574405e-14
    outer loop
      vertex   -3.079973e+02 1.148078e+02 -3.410000e+02
      vertex   -3.303992e+02 1.148078e+02 -3.410000e+02
      vertex   -3.306376e+02 1.148078e+02 -3.406893e+02
    endloop
  endfacet
  facet normal 0.000000e+00 1.000000e+00 4.574405e-14
    outer loop
      vertex   -3.079973e+02 1.148078e+02 -3.410000e+02
      vertex   -3.306376e+02 1.148078e+02 -3.406893e+02
      vertex   -3.077589e+02 1.148078e+02 -3.406893e+02
    endloop
  endfacet
  facet normal 0.000000e+00 1.000000e+00 0.000000e+00
    outer loop
      vertex   -3.077589e+02 1.148078e+02 -3.406893e+02
      vertex   -3.306376e+02 1.148078e+02 -3.406893e+02
      vertex   -3.309482e+02 1.148078e+02 -3.404510e+02
    endloop
  endfacet
  facet normal 0.000000e+00 1.000000e+00 -0.000000e+00
    outer loop
      vertex   -3.077589e+02 1.148078e+02 -3.406893e+02
      vertex   -3.309482e+02 1.148078e+02 -3.404510e+02
      vertex   -3.074482e+02 1.148078e+02 -3.404510e+02
    endloop
  endfacet
  facet normal 0.000000e+00 1.000000e+00 9.483346e-14
    outer loop
      vertex   -3.074482e+02 1.148078e+02 -3.404510e+02
      vertex   -3.309482e+02 1.148078e+02 -3.404510e+02
      vertex   -3.070864e+02 1.148078e+02 -3.403011e+02
    endloop
  endfacet
  facet normal 0.000000e+00 1.000000e+00 9.483346e-14
    outer loop
      vertex   -3.070864e+02 1.148078e+02 -3.403011e+02
      vertex   -3.309482e+02 1.148078e+02 -3.404510e+02
      vertex   -3.313100e+02 1.148078e+02 -3.403011e+02
    endloop
  endfacet
  facet normal 8.302169e-16 1.000000e+00 -6.306123e-15
    outer loop
      vertex   -3.316982e+02 1.148078e+02 -3.402500e+02
      vertex   -3.320864e+02 1.148078e+02 -3.403011e+02
      vertex   -3.431982e+02 1.148078e+02 -3.327500e+02
    endloop
  endfacet
  facet normal 2.634270e-14 1.000000e+00 3.123655e-14
    outer loop
      vertex   -3.431982e+02 1.148078e+02 -3.327500e+02
      vertex   -3.320864e+02 1.148078e+02 -3.403011e+02
      vertex   -3.324482e+02 1.148078e+02 -3.404510e+02
    endloop
  endfacet
  facet normal 2.051014e-15 1.000000e+00 -2.672934e-15
    outer loop
      vertex   -3.431982e+02 1.148078e+02 -3.327500e+02
      vertex   -3.324482e+02 1.148078e+02 -3.404510e+02
      vertex   -3.327589e+02 1.148078e+02 -3.406893e+02
    endloop
  endfacet
  facet normal 2.454782e-14 1.000000e+00 2.690784e-14
    outer loop
      vertex   -3.327589e+02 1.148078e+02 -3.406893e+02
      vertex   -3.329973e+02 1.148078e+02 -3.410000e+02
      vertex   -3.431982e+02 1.148078e+02 -3.327500e+02
    endloop
  endfacet
  facet normal 2.087035e-15 1.000000e+00 -8.644782e-16
    outer loop
      vertex   -3.431982e+02 1.148078e+02 -3.327500e+02
      vertex   -3.329973e+02 1.148078e+02 -3.410000e+02
      vertex   -3.331471e+02 1.148078e+02 -3.413618e+02
    endloop
  endfacet
  facet normal 5.890799e-14 1.000000e+00 6.545332e-14
    outer loop
      vertex   -3.431982e+02 1.148078e+02 -3.327500e+02
      vertex   -3.331471e+02 1.148078e+02 -3.413618e+02
      vertex   -3.331982e+02 1.148078e+02 -3.417500e+02
    endloop
  endfacet
  facet normal -8.528460e-15 1.000000e+00 1.154230e-13
    outer loop
      vertex   -3.063100e+02 1.148078e+02 -3.431989e+02
      vertex   -3.059482e+02 1.148078e+02 -3.430490e+02
      vertex   -2.951982e+02 1.148078e+02 -3.507500e+02
    endloop
  endfacet
  facet normal -4.717333e-14 1.000000e+00 6.147748e-14
    outer loop
      vertex   -2.951982e+02 1.148078e+02 -3.507500e+02
      vertex   -3.059482e+02 1.148078e+02 -3.430490e+02
      vertex   -3.056376e+02 1.148078e+02 -3.428107e+02
    endloop
  endfacet
  facet normal -3.734536e-14 1.000000e+00 7.440015e-14
    outer loop
      vertex   -2.951982e+02 1.148078e+02 -3.507500e+02
      vertex   -3.056376e+02 1.148078e+02 -3.428107e+02
      vertex   -3.053992e+02 1.148078e+02 -3.425000e+02
    endloop
  endfacet
  facet normal -7.304622e-14 1.000000e+00 3.025674e-14
    outer loop
      vertex   -3.053992e+02 1.148078e+02 -3.425000e+02
      vertex   -3.052493e+02 1.148078e+02 -3.421382e+02
      vertex   -2.951982e+02 1.148078e+02 -3.507500e+02
    endloop
  endfacet
  facet normal -6.075452e-14 1.000000e+00 4.460283e-14
    outer loop
      vertex   -2.951982e+02 1.148078e+02 -3.507500e+02
      vertex   -3.052493e+02 1.148078e+02 -3.421382e+02
      vertex   -3.051982e+02 1.148078e+02 -3.417500e+02
    endloop
  endfacet
  facet normal -2.454782e-14 1.000000e+00 2.690784e-14
    outer loop
      vertex   -3.053992e+02 1.148078e+02 -3.410000e+02
      vertex   -3.056376e+02 1.148078e+02 -3.406893e+02
      vertex   -2.951982e+02 1.148078e+02 -3.327500e+02
    endloop
  endfacet
  facet normal -2.051014e-15 1.000000e+00 -2.672934e-15
    outer loop
      vertex   -2.951982e+02 1.148078e+02 -3.327500e+02
      vertex   -3.056376e+02 1.148078e+02 -3.406893e+02
      vertex   -3.059482e+02 1.148078e+02 -3.404510e+02
    endloop
  endfacet
  facet normal -2.634270e-14 1.000000e+00 3.123655e-14
    outer loop
      vertex   -2.951982e+02 1.148078e+02 -3.327500e+02
      vertex   -3.059482e+02 1.148078e+02 -3.404510e+02
      vertex   -3.063100e+02 1.148078e+02 -3.403011e+02
    endloop
  endfacet
  facet normal -8.302169e-16 1.000000e+00 -6.306123e-15
    outer loop
      vertex   -3.063100e+02 1.148078e+02 -3.403011e+02
      vertex   -3.066982e+02 1.148078e+02 -3.402500e+02
      vertex   -2.951982e+02 1.148078e+02 -3.327500e+02
    endloop
  endfacet
  facet normal 1.250181e-15 1.000000e+00 -9.496067e-15
    outer loop
      vertex   -2.951982e+02 1.148078e+02 -3.327500e+02
      vertex   -3.066982e+02 1.148078e+02 -3.402500e+02
      vertex   -3.070864e+02 1.148078e+02 -3.403011e+02
    endloop
  endfacet
endsolid
