solid ASCII
  facet normal 0.000000e+00 -1.000000e+00 0.000000e+00
    outer loop
      vertex   -5.061982e+02 1.281655e+01 -3.403281e+02
      vertex   -5.061982e+02 1.281655e+01 -3.377808e+02
      vertex   -5.141982e+02 1.281655e+01 -3.403281e+02
    endloop
  endfacet
  facet normal 0.000000e+00 -1.000000e+00 0.000000e+00
    outer loop
      vertex   -5.141982e+02 1.281655e+01 -3.403281e+02
      vertex   -5.061982e+02 1.281655e+01 -3.377808e+02
      vertex   -5.141982e+02 1.281655e+01 -3.377808e+02
    endloop
  endfacet
  facet normal 0.000000e+00 -0.000000e+00 1.000000e+00
    outer loop
      vertex   -5.061982e+02 1.281655e+01 -3.377808e+02
      vertex   -5.061982e+02 1.481807e+01 -3.377808e+02
      vertex   -5.141982e+02 1.281655e+01 -3.377808e+02
    endloop
  endfacet
  facet normal 0.000000e+00 0.000000e+00 1.000000e+00
    outer loop
      vertex   -5.141982e+02 1.281655e+01 -3.377808e+02
      vertex   -5.061982e+02 1.481807e+01 -3.377808e+02
      vertex   -5.141982e+02 1.481807e+01 -3.377808e+02
    endloop
  endfacet
  facet normal 0.000000e+00 1.000000e+00 0.000000e+00
    outer loop
      vertex   -5.061982e+02 1.481807e+01 -3.377808e+02
      vertex   -5.061982e+02 1.481807e+01 -3.450587e+02
      vertex   -5.141982e+02 1.481807e+01 -3.377808e+02
    endloop
  endfacet
  facet normal 0.000000e+00 1.000000e+00 0.000000e+00
    outer loop
      vertex   -5.141982e+02 1.481807e+01 -3.377808e+02
      vertex   -5.061982e+02 1.481807e+01 -3.450587e+02
      vertex   -5.141982e+02 1.481807e+01 -3.450587e+02
    endloop
  endfacet
  facet normal -0.000000e+00 -0.000000e+00 -1.000000e+00
    outer loop
      vertex   -5.061982e+02 1.481807e+01 -3.450587e+02
      vertex   -5.061982e+02 1.281655e+01 -3.450587e+02
      vertex   -5.141982e+02 1.481807e+01 -3.450587e+02
    endloop
  endfacet
  facet normal 0.000000e+00 0.000000e+00 -1.000000e+00
    outer loop
      vertex   -5.141982e+02 1.481807e+01 -3.450587e+02
      vertex   -5.061982e+02 1.281655e+01 -3.450587e+02
      vertex   -5.141982e+02 1.281655e+01 -3.450587e+02
    endloop
  endfacet
  facet normal 0.000000e+00 -1.000000e+00 0.000000e+00
    outer loop
      vertex   -5.061982e+02 1.281655e+01 -3.450587e+02
      vertex   -5.061982e+02 1.281655e+01 -3.423294e+02
      vertex   -5.141982e+02 1.281655e+01 -3.450587e+02
    endloop
  endfacet
  facet normal 0.000000e+00 -1.000000e+00 0.000000e+00
    outer loop
      vertex   -5.141982e+02 1.281655e+01 -3.450587e+02
      vertex   -5.061982e+02 1.281655e+01 -3.423294e+02
      vertex   -5.141982e+02 1.281655e+01 -3.423294e+02
    endloop
  endfacet
  facet normal -0.000000e+00 -0.000000e+00 -1.000000e+00
    outer loop
      vertex   -5.061982e+02 1.281655e+01 -3.423294e+02
      vertex   -5.061982e+02 3.901152e+00 -3.423294e+02
      vertex   -5.141982e+02 1.281655e+01 -3.423294e+02
    endloop
  endfacet
  facet normal 0.000000e+00 0.000000e+00 -1.000000e+00
    outer loop
      vertex   -5.141982e+02 1.281655e+01 -3.423294e+02
      vertex   -5.061982e+02 3.901152e+00 -3.423294e+02
      vertex   -5.141982e+02 3.901152e+00 -3.423294e+02
    endloop
  endfacet
  facet normal 0.000000e+00 -1.000000e+00 0.000000e+00
    outer loop
      vertex   -5.061982e+02 3.901152e+00 -3.423294e+02
      vertex   -5.061982e+02 3.901152e+00 -3.403281e+02
      vertex   -5.141982e+02 3.901152e+00 -3.423294e+02
    endloop
  endfacet
  facet normal 0.000000e+00 -1.000000e+00 0.000000e+00
    outer loop
      vertex   -5.141982e+02 3.901152e+00 -3.423294e+02
      vertex   -5.061982e+02 3.901152e+00 -3.403281e+02
      vertex   -5.141982e+02 3.901152e+00 -3.403281e+02
    endloop
  endfacet
  facet normal 0.000000e+00 -0.000000e+00 1.000000e+00
    outer loop
      vertex   -5.061982e+02 3.901152e+00 -3.403281e+02
      vertex   -5.061982e+02 1.281655e+01 -3.403281e+02
      vertex   -5.141982e+02 3.901152e+00 -3.403281e+02
    endloop
  endfacet
  facet normal 0.000000e+00 0.000000e+00 1.000000e+00
    outer loop
      vertex   -5.141982e+02 3.901152e+00 -3.403281e+02
      vertex   -5.061982e+02 1.281655e+01 -3.403281e+02
      vertex   -5.141982e+02 1.281655e+01 -3.403281e+02
    endloop
  endfacet
  facet normal -1.000000e+00 0.000000e+00 0.000000e+00
    outer loop
      vertex   -5.141982e+02 1.281655e+01 -3.450587e+02
      vertex   -5.141982e+02 1.281655e+01 -3.423294e+02
      vertex   -5.141982e+02 1.481807e+01 -3.450587e+02
    endloop
  endfacet
  facet normal -1.000000e+00 0.000000e+00 0.000000e+00
    outer loop
      vertex   -5.141982e+02 1.481807e+01 -3.450587e+02
      vertex   -5.141982e+02 1.281655e+01 -3.423294e+02
      vertex   -5.141982e+02 1.481807e+01 -3.377808e+02
    endloop
  endfacet
  facet normal -1.000000e+00 0.000000e+00 0.000000e+00
    outer loop
      vertex   -5.141982e+02 1.481807e+01 -3.377808e+02
      vertex   -5.141982e+02 1.281655e+01 -3.423294e+02
      vertex   -5.141982e+02 1.281655e+01 -3.403281e+02
    endloop
  endfacet
  facet normal -1.000000e+00 -0.000000e+00 0.000000e+00
    outer loop
      vertex   -5.141982e+02 1.481807e+01 -3.377808e+02
      vertex   -5.141982e+02 1.281655e+01 -3.403281e+02
      vertex   -5.141982e+02 1.281655e+01 -3.377808e+02
    endloop
  endfacet
  facet normal -1.000000e+00 0.000000e+00 0.000000e+00
    outer loop
      vertex   -5.141982e+02 3.901152e+00 -3.423294e+02
      vertex   -5.141982e+02 3.901152e+00 -3.403281e+02
      vertex   -5.141982e+02 1.281655e+01 -3.423294e+02
    endloop
  endfacet
  facet normal -1.000000e+00 0.000000e+00 0.000000e+00
    outer loop
      vertex   -5.141982e+02 1.281655e+01 -3.423294e+02
      vertex   -5.141982e+02 3.901152e+00 -3.403281e+02
      vertex   -5.141982e+02 1.281655e+01 -3.403281e+02
    endloop
  endfacet
  facet normal 1.000000e+00 0.000000e+00 0.000000e+00
    outer loop
      vertex   -5.061982e+02 1.281655e+01 -3.450587e+02
      vertex   -5.061982e+02 1.481807e+01 -3.450587e+02
      vertex   -5.061982e+02 1.281655e+01 -3.423294e+02
    endloop
  endfacet
  facet normal 1.000000e+00 -0.000000e+00 0.000000e+00
    outer loop
      vertex   -5.061982e+02 1.281655e+01 -3.423294e+02
      vertex   -5.061982e+02 1.481807e+01 -3.450587e+02
      vertex   -5.061982e+02 1.481807e+01 -3.377808e+02
    endloop
  endfacet
  facet normal 1.000000e+00 0.000000e+00 0.000000e+00
    outer loop
      vertex   -5.061982e+02 1.281655e+01 -3.423294e+02
      vertex   -5.061982e+02 1.481807e+01 -3.377808e+02
      vertex   -5.061982e+02 1.281655e+01 -3.403281e+02
    endloop
  endfacet
  facet normal 1.000000e+00 0.000000e+00 0.000000e+00
    outer loop
      vertex   -5.061982e+02 1.281655e+01 -3.403281e+02
      vertex   -5.061982e+02 1.481807e+01 -3.377808e+02
      vertex   -5.061982e+02 1.281655e+01 -3.377808e+02
    endloop
  endfacet
  facet normal 1.000000e+00 -0.000000e+00 0.000000e+00
    outer loop
      vertex   -5.061982e+02 3.901152e+00 -3.403281e+02
      vertex   -5.061982e+02 3.901152e+00 -3.423294e+02
      vertex   -5.061982e+02 1.281655e+01 -3.403281e+02
    endloop
  endfacet
  facet normal 1.000000e+00 0.000000e+00 0.000000e+00
    outer loop
      vertex   -5.061982e+02 1.281655e+01 -3.403281e+02
      vertex   -5.061982e+02 3.901152e+00 -3.423294e+02
      vertex   -5.061982e+02 1.281655e+01 -3.423294e+02
    endloop
  endfacet
endsolid
