solid ASCII
  facet normal 7.660444e-01 -1.585624e-01 -6.229237e-01
    outer loop
      vertex   -1.336692e+02 9.661127e+01 -4.458578e+02
      vertex   -1.328429e+02 9.765501e+01 -4.451072e+02
      vertex   -1.336692e+02 6.910645e+01 -4.388565e+02
    endloop
  endfacet
  facet normal 7.660444e-01 -1.585624e-01 -6.229237e-01
    outer loop
      vertex   -1.336692e+02 6.910645e+01 -4.388565e+02
      vertex   -1.328429e+02 9.765501e+01 -4.451072e+02
      vertex   -1.328429e+02 6.854857e+01 -4.376983e+02
    endloop
  endfacet
  facet normal 2.530621e-15 5.838091e-01 -8.118909e-01
    outer loop
      vertex   -1.875535e+02 9.765501e+01 -4.451072e+02
      vertex   -1.328429e+02 9.765501e+01 -4.451072e+02
      vertex   -1.867272e+02 9.661127e+01 -4.458578e+02
    endloop
  endfacet
  facet normal 0.000000e+00 5.838091e-01 -8.118909e-01
    outer loop
      vertex   -1.867272e+02 9.661127e+01 -4.458578e+02
      vertex   -1.328429e+02 9.765501e+01 -4.451072e+02
      vertex   -1.336692e+02 9.661127e+01 -4.458578e+02
    endloop
  endfacet
  facet normal -7.660444e-01 -1.585624e-01 -6.229237e-01
    outer loop
      vertex   -1.875535e+02 6.854857e+01 -4.376983e+02
      vertex   -1.875535e+02 9.765501e+01 -4.451072e+02
      vertex   -1.867272e+02 6.910645e+01 -4.388565e+02
    endloop
  endfacet
  facet normal -7.660444e-01 -1.585624e-01 -6.229237e-01
    outer loop
      vertex   -1.867272e+02 6.910645e+01 -4.388565e+02
      vertex   -1.875535e+02 9.765501e+01 -4.451072e+02
      vertex   -1.867272e+02 9.661127e+01 -4.458578e+02
    endloop
  endfacet
  facet normal 2.340136e-16 -9.009339e-01 -4.339564e-01
    outer loop
      vertex   -1.328429e+02 6.854857e+01 -4.376983e+02
      vertex   -1.875535e+02 6.854857e+01 -4.376983e+02
      vertex   -1.336692e+02 6.910645e+01 -4.388565e+02
    endloop
  endfacet
  facet normal -0.000000e+00 -9.009339e-01 -4.339564e-01
    outer loop
      vertex   -1.336692e+02 6.910645e+01 -4.388565e+02
      vertex   -1.875535e+02 6.854857e+01 -4.376983e+02
      vertex   -1.867272e+02 6.910645e+01 -4.388565e+02
    endloop
  endfacet
  facet normal 2.367682e-16 -9.115390e-01 4.112136e-01
    outer loop
      vertex   -1.875535e+02 6.854857e+01 -4.376983e+02
      vertex   -1.328429e+02 6.854857e+01 -4.376983e+02
      vertex   -1.871982e+02 6.939003e+01 -4.358331e+02
    endloop
  endfacet
  facet normal 0.000000e+00 -9.115390e-01 4.112136e-01
    outer loop
      vertex   -1.871982e+02 6.939003e+01 -4.358331e+02
      vertex   -1.328429e+02 6.854857e+01 -4.376983e+02
      vertex   -1.331982e+02 6.939003e+01 -4.358331e+02
    endloop
  endfacet
  facet normal 9.848078e-01 4.283541e-02 1.682820e-01
    outer loop
      vertex   -1.328429e+02 6.854857e+01 -4.376983e+02
      vertex   -1.328429e+02 9.765501e+01 -4.451072e+02
      vertex   -1.331982e+02 6.939003e+01 -4.358331e+02
    endloop
  endfacet
  facet normal 9.848078e-01 4.283541e-02 1.682820e-01
    outer loop
      vertex   -1.331982e+02 6.939003e+01 -4.358331e+02
      vertex   -1.328429e+02 9.765501e+01 -4.451072e+02
      vertex   -1.331982e+02 9.780777e+01 -4.430667e+02
    endloop
  endfacet
  facet normal 5.258285e-15 -2.466793e-01 -9.690972e-01
    outer loop
      vertex   -1.591982e+02 7.155728e+01 -4.394804e+02
      vertex   -1.611982e+02 7.155728e+01 -4.394804e+02
      vertex   -1.591982e+02 8.188976e+01 -4.421105e+02
    endloop
  endfacet
  facet normal 5.258285e-15 -2.466793e-01 -9.690972e-01
    outer loop
      vertex   -1.591982e+02 8.188976e+01 -4.421105e+02
      vertex   -1.611982e+02 7.155728e+01 -4.394804e+02
      vertex   -1.611982e+02 8.188976e+01 -4.421105e+02
    endloop
  endfacet
  facet normal 5.258285e-15 -2.466793e-01 -9.690972e-01
    outer loop
      vertex   -1.591982e+02 8.188976e+01 -4.421105e+02
      vertex   -1.611982e+02 8.188976e+01 -4.421105e+02
      vertex   -1.591982e+02 8.382796e+01 -4.426038e+02
    endloop
  endfacet
  facet normal 5.258285e-15 -2.466793e-01 -9.690972e-01
    outer loop
      vertex   -1.591982e+02 8.382796e+01 -4.426038e+02
      vertex   -1.611982e+02 8.188976e+01 -4.421105e+02
      vertex   -1.611982e+02 8.382796e+01 -4.426038e+02
    endloop
  endfacet
  facet normal 5.258285e-15 -2.466793e-01 -9.690972e-01
    outer loop
      vertex   -1.591982e+02 8.382796e+01 -4.426038e+02
      vertex   -1.611982e+02 8.382796e+01 -4.426038e+02
      vertex   -1.591982e+02 9.416044e+01 -4.452339e+02
    endloop
  endfacet
  facet normal 5.258285e-15 -2.466793e-01 -9.690972e-01
    outer loop
      vertex   -1.591982e+02 9.416044e+01 -4.452339e+02
      vertex   -1.611982e+02 8.382796e+01 -4.426038e+02
      vertex   -1.611982e+02 9.416044e+01 -4.452339e+02
    endloop
  endfacet
  facet normal 5.258285e-15 -2.466793e-01 -9.690972e-01
    outer loop
      vertex   -1.591982e+02 9.416044e+01 -4.452339e+02
      vertex   -1.611982e+02 9.416044e+01 -4.452339e+02
      vertex   -1.336692e+02 9.661127e+01 -4.458578e+02
    endloop
  endfacet
  facet normal -0.000000e+00 -2.466793e-01 -9.690972e-01
    outer loop
      vertex   -1.336692e+02 9.661127e+01 -4.458578e+02
      vertex   -1.611982e+02 9.416044e+01 -4.452339e+02
      vertex   -1.867272e+02 9.661127e+01 -4.458578e+02
    endloop
  endfacet
  facet normal 0.000000e+00 -2.466793e-01 -9.690972e-01
    outer loop
      vertex   -1.867272e+02 9.661127e+01 -4.458578e+02
      vertex   -1.611982e+02 9.416044e+01 -4.452339e+02
      vertex   -1.841982e+02 9.416044e+01 -4.452339e+02
    endloop
  endfacet
  facet normal -2.305767e-15 -2.466793e-01 -9.690972e-01
    outer loop
      vertex   -1.867272e+02 9.661127e+01 -4.458578e+02
      vertex   -1.841982e+02 9.416044e+01 -4.452339e+02
      vertex   -1.841982e+02 8.382796e+01 -4.426038e+02
    endloop
  endfacet
  facet normal -4.572422e-16 -2.466793e-01 -9.690972e-01
    outer loop
      vertex   -1.361982e+02 7.155728e+01 -4.394804e+02
      vertex   -1.336692e+02 6.910645e+01 -4.388565e+02
      vertex   -1.591982e+02 7.155728e+01 -4.394804e+02
    endloop
  endfacet
  facet normal 0.000000e+00 -2.466793e-01 -9.690972e-01
    outer loop
      vertex   -1.591982e+02 7.155728e+01 -4.394804e+02
      vertex   -1.336692e+02 6.910645e+01 -4.388565e+02
      vertex   -1.867272e+02 6.910645e+01 -4.388565e+02
    endloop
  endfacet
  facet normal 5.258285e-15 -2.466793e-01 -9.690972e-01
    outer loop
      vertex   -1.591982e+02 7.155728e+01 -4.394804e+02
      vertex   -1.867272e+02 6.910645e+01 -4.388565e+02
      vertex   -1.611982e+02 7.155728e+01 -4.394804e+02
    endloop
  endfacet
  facet normal 2.395078e-15 -2.466793e-01 -9.690972e-01
    outer loop
      vertex   -1.611982e+02 7.155728e+01 -4.394804e+02
      vertex   -1.867272e+02 6.910645e+01 -4.388565e+02
      vertex   -1.841982e+02 7.155728e+01 -4.394804e+02
    endloop
  endfacet
  facet normal -4.983750e-14 -2.466793e-01 -9.690972e-01
    outer loop
      vertex   -1.841982e+02 7.155728e+01 -4.394804e+02
      vertex   -1.867272e+02 6.910645e+01 -4.388565e+02
      vertex   -1.841982e+02 8.188976e+01 -4.421105e+02
    endloop
  endfacet
  facet normal -4.325982e-14 -2.466793e-01 -9.690972e-01
    outer loop
      vertex   -1.841982e+02 8.188976e+01 -4.421105e+02
      vertex   -1.867272e+02 6.910645e+01 -4.388565e+02
      vertex   -1.867272e+02 9.661127e+01 -4.458578e+02
    endloop
  endfacet
  facet normal 2.825405e-13 -2.466793e-01 -9.690972e-01
    outer loop
      vertex   -1.841982e+02 8.188976e+01 -4.421105e+02
      vertex   -1.867272e+02 9.661127e+01 -4.458578e+02
      vertex   -1.841982e+02 8.382796e+01 -4.426038e+02
    endloop
  endfacet
  facet normal 3.419123e-14 -2.466793e-01 -9.690972e-01
    outer loop
      vertex   -1.361982e+02 7.155728e+01 -4.394804e+02
      vertex   -1.361982e+02 8.188976e+01 -4.421105e+02
      vertex   -1.336692e+02 6.910645e+01 -4.388565e+02
    endloop
  endfacet
  facet normal -4.355680e-15 -2.466793e-01 -9.690972e-01
    outer loop
      vertex   -1.336692e+02 6.910645e+01 -4.388565e+02
      vertex   -1.361982e+02 8.188976e+01 -4.421105e+02
      vertex   -1.336692e+02 9.661127e+01 -4.458578e+02
    endloop
  endfacet
  facet normal 0.000000e+00 -2.466793e-01 -9.690972e-01
    outer loop
      vertex   -1.336692e+02 9.661127e+01 -4.458578e+02
      vertex   -1.361982e+02 8.188976e+01 -4.421105e+02
      vertex   -1.361982e+02 8.382796e+01 -4.426038e+02
    endloop
  endfacet
  facet normal -1.844613e-15 -2.466793e-01 -9.690972e-01
    outer loop
      vertex   -1.336692e+02 9.661127e+01 -4.458578e+02
      vertex   -1.361982e+02 8.382796e+01 -4.426038e+02
      vertex   -1.361982e+02 9.416044e+01 -4.452339e+02
    endloop
  endfacet
  facet normal -0.000000e+00 -2.466793e-01 -9.690972e-01
    outer loop
      vertex   -1.361982e+02 8.188976e+01 -4.421105e+02
      vertex   -1.591982e+02 8.188976e+01 -4.421105e+02
      vertex   -1.361982e+02 8.382796e+01 -4.426038e+02
    endloop
  endfacet
  facet normal -0.000000e+00 -2.466793e-01 -9.690972e-01
    outer loop
      vertex   -1.361982e+02 8.382796e+01 -4.426038e+02
      vertex   -1.591982e+02 8.188976e+01 -4.421105e+02
      vertex   -1.591982e+02 8.382796e+01 -4.426038e+02
    endloop
  endfacet
  facet normal -0.000000e+00 -2.466793e-01 -9.690972e-01
    outer loop
      vertex   -1.361982e+02 9.416044e+01 -4.452339e+02
      vertex   -1.591982e+02 9.416044e+01 -4.452339e+02
      vertex   -1.336692e+02 9.661127e+01 -4.458578e+02
    endloop
  endfacet
  facet normal 4.790156e-15 -2.466793e-01 -9.690972e-01
    outer loop
      vertex   -1.611982e+02 8.188976e+01 -4.421105e+02
      vertex   -1.841982e+02 8.188976e+01 -4.421105e+02
      vertex   -1.611982e+02 8.382796e+01 -4.426038e+02
    endloop
  endfacet
  facet normal -0.000000e+00 -2.466793e-01 -9.690972e-01
    outer loop
      vertex   -1.611982e+02 8.382796e+01 -4.426038e+02
      vertex   -1.841982e+02 8.188976e+01 -4.421105e+02
      vertex   -1.841982e+02 8.382796e+01 -4.426038e+02
    endloop
  endfacet
  facet normal -1.000000e+00 0.000000e+00 0.000000e+00
    outer loop
      vertex   -1.611982e+02 9.416044e+01 -4.452339e+02
      vertex   -1.611982e+02 8.382796e+01 -4.426038e+02
      vertex   -1.611982e+02 9.440712e+01 -4.442648e+02
    endloop
  endfacet
  facet normal -1.000000e+00 0.000000e+00 0.000000e+00
    outer loop
      vertex   -1.611982e+02 9.440712e+01 -4.442648e+02
      vertex   -1.611982e+02 8.382796e+01 -4.426038e+02
      vertex   -1.611982e+02 8.407464e+01 -4.416347e+02
    endloop
  endfacet
  facet normal 0.000000e+00 9.690972e-01 -2.466793e-01
    outer loop
      vertex   -1.611982e+02 8.382796e+01 -4.426038e+02
      vertex   -1.841982e+02 8.382796e+01 -4.426038e+02
      vertex   -1.611982e+02 8.407464e+01 -4.416347e+02
    endloop
  endfacet
  facet normal 0.000000e+00 9.690972e-01 -2.466793e-01
    outer loop
      vertex   -1.611982e+02 8.407464e+01 -4.416347e+02
      vertex   -1.841982e+02 8.382796e+01 -4.426038e+02
      vertex   -1.841982e+02 8.407464e+01 -4.416347e+02
    endloop
  endfacet
  facet normal 1.000000e+00 -0.000000e+00 0.000000e+00
    outer loop
      vertex   -1.841982e+02 8.382796e+01 -4.426038e+02
      vertex   -1.841982e+02 9.416044e+01 -4.452339e+02
      vertex   -1.841982e+02 8.407464e+01 -4.416347e+02
    endloop
  endfacet
  facet normal 1.000000e+00 0.000000e+00 0.000000e+00
    outer loop
      vertex   -1.841982e+02 8.407464e+01 -4.416347e+02
      vertex   -1.841982e+02 9.416044e+01 -4.452339e+02
      vertex   -1.841982e+02 9.440712e+01 -4.442648e+02
    endloop
  endfacet
  facet normal 0.000000e+00 -9.690972e-01 2.466793e-01
    outer loop
      vertex   -1.841982e+02 9.416044e+01 -4.452339e+02
      vertex   -1.611982e+02 9.416044e+01 -4.452339e+02
      vertex   -1.841982e+02 9.440712e+01 -4.442648e+02
    endloop
  endfacet
  facet normal 0.000000e+00 -9.690972e-01 2.466793e-01
    outer loop
      vertex   -1.841982e+02 9.440712e+01 -4.442648e+02
      vertex   -1.611982e+02 9.416044e+01 -4.452339e+02
      vertex   -1.611982e+02 9.440712e+01 -4.442648e+02
    endloop
  endfacet
  facet normal 0.000000e+00 -2.466793e-01 -9.690972e-01
    outer loop
      vertex   -1.841982e+02 9.440712e+01 -4.442648e+02
      vertex   -1.611982e+02 9.440712e+01 -4.442648e+02
      vertex   -1.841982e+02 8.407464e+01 -4.416347e+02
    endloop
  endfacet
  facet normal 0.000000e+00 -2.466793e-01 -9.690972e-01
    outer loop
      vertex   -1.841982e+02 8.407464e+01 -4.416347e+02
      vertex   -1.611982e+02 9.440712e+01 -4.442648e+02
      vertex   -1.611982e+02 8.407464e+01 -4.416347e+02
    endloop
  endfacet
  facet normal 6.096562e-16 9.690972e-01 -2.466793e-01
    outer loop
      vertex   -1.611982e+02 7.155728e+01 -4.394804e+02
      vertex   -1.841982e+02 7.155728e+01 -4.394804e+02
      vertex   -1.611982e+02 7.180396e+01 -4.385113e+02
    endloop
  endfacet
  facet normal 6.096562e-16 9.690972e-01 -2.466793e-01
    outer loop
      vertex   -1.611982e+02 7.180396e+01 -4.385113e+02
      vertex   -1.841982e+02 7.155728e+01 -4.394804e+02
      vertex   -1.841982e+02 7.180396e+01 -4.385113e+02
    endloop
  endfacet
  facet normal 1.000000e+00 -0.000000e+00 0.000000e+00
    outer loop
      vertex   -1.841982e+02 7.155728e+01 -4.394804e+02
      vertex   -1.841982e+02 8.188976e+01 -4.421105e+02
      vertex   -1.841982e+02 7.180396e+01 -4.385113e+02
    endloop
  endfacet
  facet normal 1.000000e+00 0.000000e+00 0.000000e+00
    outer loop
      vertex   -1.841982e+02 7.180396e+01 -4.385113e+02
      vertex   -1.841982e+02 8.188976e+01 -4.421105e+02
      vertex   -1.841982e+02 8.213644e+01 -4.411414e+02
    endloop
  endfacet
  facet normal -1.219312e-15 -9.690972e-01 2.466793e-01
    outer loop
      vertex   -1.841982e+02 8.188976e+01 -4.421105e+02
      vertex   -1.611982e+02 8.188976e+01 -4.421105e+02
      vertex   -1.841982e+02 8.213644e+01 -4.411414e+02
    endloop
  endfacet
  facet normal -1.219312e-15 -9.690972e-01 2.466793e-01
    outer loop
      vertex   -1.841982e+02 8.213644e+01 -4.411414e+02
      vertex   -1.611982e+02 8.188976e+01 -4.421105e+02
      vertex   -1.611982e+02 8.213644e+01 -4.411414e+02
    endloop
  endfacet
  facet normal -1.000000e+00 0.000000e+00 0.000000e+00
    outer loop
      vertex   -1.611982e+02 8.188976e+01 -4.421105e+02
      vertex   -1.611982e+02 7.155728e+01 -4.394804e+02
      vertex   -1.611982e+02 8.213644e+01 -4.411414e+02
    endloop
  endfacet
  facet normal -1.000000e+00 0.000000e+00 0.000000e+00
    outer loop
      vertex   -1.611982e+02 8.213644e+01 -4.411414e+02
      vertex   -1.611982e+02 7.155728e+01 -4.394804e+02
      vertex   -1.611982e+02 7.180396e+01 -4.385113e+02
    endloop
  endfacet
  facet normal 2.395078e-15 -2.466793e-01 -9.690972e-01
    outer loop
      vertex   -1.611982e+02 7.180396e+01 -4.385113e+02
      vertex   -1.841982e+02 7.180396e+01 -4.385113e+02
      vertex   -1.611982e+02 8.213644e+01 -4.411414e+02
    endloop
  endfacet
  facet normal 4.790156e-15 -2.466793e-01 -9.690972e-01
    outer loop
      vertex   -1.611982e+02 8.213644e+01 -4.411414e+02
      vertex   -1.841982e+02 7.180396e+01 -4.385113e+02
      vertex   -1.841982e+02 8.213644e+01 -4.411414e+02
    endloop
  endfacet
  facet normal 1.000000e+00 -0.000000e+00 0.000000e+00
    outer loop
      vertex   -1.591982e+02 8.382796e+01 -4.426038e+02
      vertex   -1.591982e+02 9.416044e+01 -4.452339e+02
      vertex   -1.591982e+02 8.407464e+01 -4.416347e+02
    endloop
  endfacet
  facet normal 1.000000e+00 0.000000e+00 0.000000e+00
    outer loop
      vertex   -1.591982e+02 8.407464e+01 -4.416347e+02
      vertex   -1.591982e+02 9.416044e+01 -4.452339e+02
      vertex   -1.591982e+02 9.440712e+01 -4.442648e+02
    endloop
  endfacet
  facet normal 0.000000e+00 -9.690972e-01 2.466793e-01
    outer loop
      vertex   -1.591982e+02 9.416044e+01 -4.452339e+02
      vertex   -1.361982e+02 9.416044e+01 -4.452339e+02
      vertex   -1.591982e+02 9.440712e+01 -4.442648e+02
    endloop
  endfacet
  facet normal 0.000000e+00 -9.690972e-01 2.466793e-01
    outer loop
      vertex   -1.591982e+02 9.440712e+01 -4.442648e+02
      vertex   -1.361982e+02 9.416044e+01 -4.452339e+02
      vertex   -1.361982e+02 9.440712e+01 -4.442648e+02
    endloop
  endfacet
  facet normal -1.000000e+00 0.000000e+00 0.000000e+00
    outer loop
      vertex   -1.361982e+02 9.416044e+01 -4.452339e+02
      vertex   -1.361982e+02 8.382796e+01 -4.426038e+02
      vertex   -1.361982e+02 9.440712e+01 -4.442648e+02
    endloop
  endfacet
  facet normal -1.000000e+00 0.000000e+00 0.000000e+00
    outer loop
      vertex   -1.361982e+02 9.440712e+01 -4.442648e+02
      vertex   -1.361982e+02 8.382796e+01 -4.426038e+02
      vertex   -1.361982e+02 8.407464e+01 -4.416347e+02
    endloop
  endfacet
  facet normal 0.000000e+00 9.690972e-01 -2.466793e-01
    outer loop
      vertex   -1.361982e+02 8.382796e+01 -4.426038e+02
      vertex   -1.591982e+02 8.382796e+01 -4.426038e+02
      vertex   -1.361982e+02 8.407464e+01 -4.416347e+02
    endloop
  endfacet
  facet normal 0.000000e+00 9.690972e-01 -2.466793e-01
    outer loop
      vertex   -1.361982e+02 8.407464e+01 -4.416347e+02
      vertex   -1.591982e+02 8.382796e+01 -4.426038e+02
      vertex   -1.591982e+02 8.407464e+01 -4.416347e+02
    endloop
  endfacet
  facet normal -0.000000e+00 -2.466793e-01 -9.690972e-01
    outer loop
      vertex   -1.361982e+02 8.407464e+01 -4.416347e+02
      vertex   -1.591982e+02 8.407464e+01 -4.416347e+02
      vertex   -1.361982e+02 9.440712e+01 -4.442648e+02
    endloop
  endfacet
  facet normal -0.000000e+00 -2.466793e-01 -9.690972e-01
    outer loop
      vertex   -1.361982e+02 9.440712e+01 -4.442648e+02
      vertex   -1.591982e+02 8.407464e+01 -4.416347e+02
      vertex   -1.591982e+02 9.440712e+01 -4.442648e+02
    endloop
  endfacet
  facet normal 1.000000e+00 -0.000000e+00 0.000000e+00
    outer loop
      vertex   -1.591982e+02 7.155728e+01 -4.394804e+02
      vertex   -1.591982e+02 8.188976e+01 -4.421105e+02
      vertex   -1.591982e+02 7.180396e+01 -4.385113e+02
    endloop
  endfacet
  facet normal 1.000000e+00 0.000000e+00 0.000000e+00
    outer loop
      vertex   -1.591982e+02 7.180396e+01 -4.385113e+02
      vertex   -1.591982e+02 8.188976e+01 -4.421105e+02
      vertex   -1.591982e+02 8.213644e+01 -4.411414e+02
    endloop
  endfacet
  facet normal 0.000000e+00 -9.690972e-01 2.466793e-01
    outer loop
      vertex   -1.591982e+02 8.188976e+01 -4.421105e+02
      vertex   -1.361982e+02 8.188976e+01 -4.421105e+02
      vertex   -1.591982e+02 8.213644e+01 -4.411414e+02
    endloop
  endfacet
  facet normal 0.000000e+00 -9.690972e-01 2.466793e-01
    outer loop
      vertex   -1.591982e+02 8.213644e+01 -4.411414e+02
      vertex   -1.361982e+02 8.188976e+01 -4.421105e+02
      vertex   -1.361982e+02 8.213644e+01 -4.411414e+02
    endloop
  endfacet
  facet normal -1.000000e+00 0.000000e+00 0.000000e+00
    outer loop
      vertex   -1.361982e+02 8.188976e+01 -4.421105e+02
      vertex   -1.361982e+02 7.155728e+01 -4.394804e+02
      vertex   -1.361982e+02 8.213644e+01 -4.411414e+02
    endloop
  endfacet
  facet normal -1.000000e+00 0.000000e+00 0.000000e+00
    outer loop
      vertex   -1.361982e+02 8.213644e+01 -4.411414e+02
      vertex   -1.361982e+02 7.155728e+01 -4.394804e+02
      vertex   -1.361982e+02 7.180396e+01 -4.385113e+02
    endloop
  endfacet
  facet normal 1.796309e-15 9.690972e-01 -2.466793e-01
    outer loop
      vertex   -1.361982e+02 7.155728e+01 -4.394804e+02
      vertex   -1.591982e+02 7.155728e+01 -4.394804e+02
      vertex   -1.361982e+02 7.180396e+01 -4.385113e+02
    endloop
  endfacet
  facet normal 1.796309e-15 9.690972e-01 -2.466793e-01
    outer loop
      vertex   -1.361982e+02 7.180396e+01 -4.385113e+02
      vertex   -1.591982e+02 7.155728e+01 -4.394804e+02
      vertex   -1.591982e+02 7.180396e+01 -4.385113e+02
    endloop
  endfacet
  facet normal -4.572422e-16 -2.466793e-01 -9.690972e-01
    outer loop
      vertex   -1.361982e+02 7.180396e+01 -4.385113e+02
      vertex   -1.591982e+02 7.180396e+01 -4.385113e+02
      vertex   -1.361982e+02 8.213644e+01 -4.411414e+02
    endloop
  endfacet
  facet normal -0.000000e+00 -2.466793e-01 -9.690972e-01
    outer loop
      vertex   -1.361982e+02 8.213644e+01 -4.411414e+02
      vertex   -1.591982e+02 7.180396e+01 -4.385113e+02
      vertex   -1.591982e+02 8.213644e+01 -4.411414e+02
    endloop
  endfacet
  facet normal 2.326792e-16 9.972098e-01 -7.464971e-02
    outer loop
      vertex   -1.328429e+02 9.765501e+01 -4.451072e+02
      vertex   -1.875535e+02 9.765501e+01 -4.451072e+02
      vertex   -1.331982e+02 9.780777e+01 -4.430667e+02
    endloop
  endfacet
  facet normal 0.000000e+00 9.972098e-01 -7.464971e-02
    outer loop
      vertex   -1.331982e+02 9.780777e+01 -4.430667e+02
      vertex   -1.875535e+02 9.765501e+01 -4.451072e+02
      vertex   -1.871982e+02 9.780777e+01 -4.430667e+02
    endloop
  endfacet
  facet normal -9.848078e-01 4.283541e-02 1.682820e-01
    outer loop
      vertex   -1.875535e+02 9.765501e+01 -4.451072e+02
      vertex   -1.875535e+02 6.854857e+01 -4.376983e+02
      vertex   -1.871982e+02 9.780777e+01 -4.430667e+02
    endloop
  endfacet
  facet normal -9.848078e-01 4.283541e-02 1.682820e-01
    outer loop
      vertex   -1.871982e+02 9.780777e+01 -4.430667e+02
      vertex   -1.875535e+02 6.854857e+01 -4.376983e+02
      vertex   -1.871982e+02 6.939003e+01 -4.358331e+02
    endloop
  endfacet
  facet normal -0.000000e+00 2.466793e-01 9.690972e-01
    outer loop
      vertex   -1.871982e+02 6.939003e+01 -4.358331e+02
      vertex   -1.331982e+02 6.939003e+01 -4.358331e+02
      vertex   -1.871982e+02 9.780777e+01 -4.430667e+02
    endloop
  endfacet
  facet normal -0.000000e+00 2.466793e-01 9.690972e-01
    outer loop
      vertex   -1.871982e+02 9.780777e+01 -4.430667e+02
      vertex   -1.331982e+02 6.939003e+01 -4.358331e+02
      vertex   -1.331982e+02 9.780777e+01 -4.430667e+02
    endloop
  endfacet
endsolid
