solid ASCII
  facet normal 0.000000e+00 -1.000000e+00 0.000000e+00
    outer loop
      vertex   -2.951982e+02 1.098078e+02 -2.502500e+02
      vertex   -3.313100e+02 1.098078e+02 -2.426989e+02
      vertex   -3.431982e+02 1.098078e+02 -2.502500e+02
    endloop
  endfacet
  facet normal 0.000000e+00 -1.000000e+00 0.000000e+00
    outer loop
      vertex   -3.431982e+02 1.098078e+02 -2.502500e+02
      vertex   -3.313100e+02 1.098078e+02 -2.426989e+02
      vertex   -3.316982e+02 1.098078e+02 -2.427500e+02
    endloop
  endfacet
  facet normal 0.000000e+00 -1.000000e+00 0.000000e+00
    outer loop
      vertex   -3.431982e+02 1.098078e+02 -2.502500e+02
      vertex   -3.316982e+02 1.098078e+02 -2.427500e+02
      vertex   -3.320864e+02 1.098078e+02 -2.426989e+02
    endloop
  endfacet
  facet normal 0.000000e+00 -1.000000e+00 -0.000000e+00
    outer loop
      vertex   -2.951982e+02 1.098078e+02 -2.322500e+02
      vertex   -3.051982e+02 1.098078e+02 -2.412500e+02
      vertex   -2.951982e+02 1.098078e+02 -2.502500e+02
    endloop
  endfacet
  facet normal 0.000000e+00 -1.000000e+00 0.000000e+00
    outer loop
      vertex   -2.951982e+02 1.098078e+02 -2.502500e+02
      vertex   -3.051982e+02 1.098078e+02 -2.412500e+02
      vertex   -3.052493e+02 1.098078e+02 -2.416382e+02
    endloop
  endfacet
  facet normal 0.000000e+00 -1.000000e+00 0.000000e+00
    outer loop
      vertex   -2.951982e+02 1.098078e+02 -2.502500e+02
      vertex   -3.052493e+02 1.098078e+02 -2.416382e+02
      vertex   -3.053992e+02 1.098078e+02 -2.420000e+02
    endloop
  endfacet
  facet normal 0.000000e+00 -1.000000e+00 0.000000e+00
    outer loop
      vertex   -3.431982e+02 1.098078e+02 -2.322500e+02
      vertex   -3.070864e+02 1.098078e+02 -2.398011e+02
      vertex   -2.951982e+02 1.098078e+02 -2.322500e+02
    endloop
  endfacet
  facet normal 0.000000e+00 -1.000000e+00 0.000000e+00
    outer loop
      vertex   -2.951982e+02 1.098078e+02 -2.322500e+02
      vertex   -3.070864e+02 1.098078e+02 -2.398011e+02
      vertex   -3.066982e+02 1.098078e+02 -2.397500e+02
    endloop
  endfacet
  facet normal 0.000000e+00 -1.000000e+00 0.000000e+00
    outer loop
      vertex   -2.951982e+02 1.098078e+02 -2.322500e+02
      vertex   -3.066982e+02 1.098078e+02 -2.397500e+02
      vertex   -3.063100e+02 1.098078e+02 -2.398011e+02
    endloop
  endfacet
  facet normal 0.000000e+00 -1.000000e+00 0.000000e+00
    outer loop
      vertex   -3.431982e+02 1.098078e+02 -2.502500e+02
      vertex   -3.331982e+02 1.098078e+02 -2.412500e+02
      vertex   -3.431982e+02 1.098078e+02 -2.322500e+02
    endloop
  endfacet
  facet normal 0.000000e+00 -1.000000e+00 0.000000e+00
    outer loop
      vertex   -3.431982e+02 1.098078e+02 -2.322500e+02
      vertex   -3.331982e+02 1.098078e+02 -2.412500e+02
      vertex   -3.331471e+02 1.098078e+02 -2.408618e+02
    endloop
  endfacet
  facet normal 0.000000e+00 -1.000000e+00 0.000000e+00
    outer loop
      vertex   -3.431982e+02 1.098078e+02 -2.322500e+02
      vertex   -3.331471e+02 1.098078e+02 -2.408618e+02
      vertex   -3.329973e+02 1.098078e+02 -2.405000e+02
    endloop
  endfacet
  facet normal 0.000000e+00 -1.000000e+00 0.000000e+00
    outer loop
      vertex   -3.329973e+02 1.098078e+02 -2.405000e+02
      vertex   -3.327589e+02 1.098078e+02 -2.401893e+02
      vertex   -3.431982e+02 1.098078e+02 -2.322500e+02
    endloop
  endfacet
  facet normal 0.000000e+00 -1.000000e+00 0.000000e+00
    outer loop
      vertex   -3.431982e+02 1.098078e+02 -2.322500e+02
      vertex   -3.327589e+02 1.098078e+02 -2.401893e+02
      vertex   -3.324482e+02 1.098078e+02 -2.399510e+02
    endloop
  endfacet
  facet normal 0.000000e+00 -1.000000e+00 0.000000e+00
    outer loop
      vertex   -3.431982e+02 1.098078e+02 -2.322500e+02
      vertex   -3.324482e+02 1.098078e+02 -2.399510e+02
      vertex   -3.320864e+02 1.098078e+02 -2.398011e+02
    endloop
  endfacet
  facet normal 0.000000e+00 -1.000000e+00 0.000000e+00
    outer loop
      vertex   -3.320864e+02 1.098078e+02 -2.398011e+02
      vertex   -3.316982e+02 1.098078e+02 -2.397500e+02
      vertex   -3.431982e+02 1.098078e+02 -2.322500e+02
    endloop
  endfacet
  facet normal 0.000000e+00 -1.000000e+00 0.000000e+00
    outer loop
      vertex   -3.431982e+02 1.098078e+02 -2.322500e+02
      vertex   -3.316982e+02 1.098078e+02 -2.397500e+02
      vertex   -3.313100e+02 1.098078e+02 -2.398011e+02
    endloop
  endfacet
  facet normal 0.000000e+00 -1.000000e+00 0.000000e+00
    outer loop
      vertex   -3.431982e+02 1.098078e+02 -2.322500e+02
      vertex   -3.313100e+02 1.098078e+02 -2.398011e+02
      vertex   -3.070864e+02 1.098078e+02 -2.398011e+02
    endloop
  endfacet
  facet normal -0.000000e+00 -1.000000e+00 0.000000e+00
    outer loop
      vertex   -3.070864e+02 1.098078e+02 -2.398011e+02
      vertex   -3.313100e+02 1.098078e+02 -2.398011e+02
      vertex   -3.074482e+02 1.098078e+02 -2.399510e+02
    endloop
  endfacet
  facet normal 0.000000e+00 -1.000000e+00 0.000000e+00
    outer loop
      vertex   -3.074482e+02 1.098078e+02 -2.399510e+02
      vertex   -3.313100e+02 1.098078e+02 -2.398011e+02
      vertex   -3.309482e+02 1.098078e+02 -2.399510e+02
    endloop
  endfacet
  facet normal -0.000000e+00 -1.000000e+00 0.000000e+00
    outer loop
      vertex   -3.074482e+02 1.098078e+02 -2.399510e+02
      vertex   -3.309482e+02 1.098078e+02 -2.399510e+02
      vertex   -3.077589e+02 1.098078e+02 -2.401893e+02
    endloop
  endfacet
  facet normal 0.000000e+00 -1.000000e+00 0.000000e+00
    outer loop
      vertex   -3.077589e+02 1.098078e+02 -2.401893e+02
      vertex   -3.309482e+02 1.098078e+02 -2.399510e+02
      vertex   -3.306376e+02 1.098078e+02 -2.401893e+02
    endloop
  endfacet
  facet normal -0.000000e+00 -1.000000e+00 0.000000e+00
    outer loop
      vertex   -3.077589e+02 1.098078e+02 -2.401893e+02
      vertex   -3.306376e+02 1.098078e+02 -2.401893e+02
      vertex   -3.079973e+02 1.098078e+02 -2.405000e+02
    endloop
  endfacet
  facet normal 0.000000e+00 -1.000000e+00 0.000000e+00
    outer loop
      vertex   -3.079973e+02 1.098078e+02 -2.405000e+02
      vertex   -3.306376e+02 1.098078e+02 -2.401893e+02
      vertex   -3.303992e+02 1.098078e+02 -2.405000e+02
    endloop
  endfacet
  facet normal -0.000000e+00 -1.000000e+00 0.000000e+00
    outer loop
      vertex   -3.079973e+02 1.098078e+02 -2.405000e+02
      vertex   -3.303992e+02 1.098078e+02 -2.405000e+02
      vertex   -3.081471e+02 1.098078e+02 -2.408618e+02
    endloop
  endfacet
  facet normal 0.000000e+00 -1.000000e+00 0.000000e+00
    outer loop
      vertex   -3.081471e+02 1.098078e+02 -2.408618e+02
      vertex   -3.303992e+02 1.098078e+02 -2.405000e+02
      vertex   -3.302493e+02 1.098078e+02 -2.408618e+02
    endloop
  endfacet
  facet normal -0.000000e+00 -1.000000e+00 0.000000e+00
    outer loop
      vertex   -3.081471e+02 1.098078e+02 -2.408618e+02
      vertex   -3.302493e+02 1.098078e+02 -2.408618e+02
      vertex   -3.081982e+02 1.098078e+02 -2.412500e+02
    endloop
  endfacet
  facet normal 0.000000e+00 -1.000000e+00 0.000000e+00
    outer loop
      vertex   -3.081982e+02 1.098078e+02 -2.412500e+02
      vertex   -3.302493e+02 1.098078e+02 -2.408618e+02
      vertex   -3.301982e+02 1.098078e+02 -2.412500e+02
    endloop
  endfacet
  facet normal -0.000000e+00 -1.000000e+00 -0.000000e+00
    outer loop
      vertex   -3.081982e+02 1.098078e+02 -2.412500e+02
      vertex   -3.301982e+02 1.098078e+02 -2.412500e+02
      vertex   -3.081471e+02 1.098078e+02 -2.416382e+02
    endloop
  endfacet
  facet normal 0.000000e+00 -1.000000e+00 0.000000e+00
    outer loop
      vertex   -3.081471e+02 1.098078e+02 -2.416382e+02
      vertex   -3.301982e+02 1.098078e+02 -2.412500e+02
      vertex   -3.302493e+02 1.098078e+02 -2.416382e+02
    endloop
  endfacet
  facet normal -0.000000e+00 -1.000000e+00 -0.000000e+00
    outer loop
      vertex   -3.081471e+02 1.098078e+02 -2.416382e+02
      vertex   -3.302493e+02 1.098078e+02 -2.416382e+02
      vertex   -3.079973e+02 1.098078e+02 -2.420000e+02
    endloop
  endfacet
  facet normal 0.000000e+00 -1.000000e+00 0.000000e+00
    outer loop
      vertex   -3.079973e+02 1.098078e+02 -2.420000e+02
      vertex   -3.302493e+02 1.098078e+02 -2.416382e+02
      vertex   -3.303992e+02 1.098078e+02 -2.420000e+02
    endloop
  endfacet
  facet normal -0.000000e+00 -1.000000e+00 -0.000000e+00
    outer loop
      vertex   -3.079973e+02 1.098078e+02 -2.420000e+02
      vertex   -3.303992e+02 1.098078e+02 -2.420000e+02
      vertex   -3.077589e+02 1.098078e+02 -2.423107e+02
    endloop
  endfacet
  facet normal 0.000000e+00 -1.000000e+00 0.000000e+00
    outer loop
      vertex   -3.077589e+02 1.098078e+02 -2.423107e+02
      vertex   -3.303992e+02 1.098078e+02 -2.420000e+02
      vertex   -3.306376e+02 1.098078e+02 -2.423107e+02
    endloop
  endfacet
  facet normal -0.000000e+00 -1.000000e+00 -0.000000e+00
    outer loop
      vertex   -3.077589e+02 1.098078e+02 -2.423107e+02
      vertex   -3.306376e+02 1.098078e+02 -2.423107e+02
      vertex   -3.074482e+02 1.098078e+02 -2.425490e+02
    endloop
  endfacet
  facet normal 0.000000e+00 -1.000000e+00 0.000000e+00
    outer loop
      vertex   -3.074482e+02 1.098078e+02 -2.425490e+02
      vertex   -3.306376e+02 1.098078e+02 -2.423107e+02
      vertex   -3.309482e+02 1.098078e+02 -2.425490e+02
    endloop
  endfacet
  facet normal -0.000000e+00 -1.000000e+00 -0.000000e+00
    outer loop
      vertex   -3.074482e+02 1.098078e+02 -2.425490e+02
      vertex   -3.309482e+02 1.098078e+02 -2.425490e+02
      vertex   -3.070864e+02 1.098078e+02 -2.426989e+02
    endloop
  endfacet
  facet normal 0.000000e+00 -1.000000e+00 0.000000e+00
    outer loop
      vertex   -3.070864e+02 1.098078e+02 -2.426989e+02
      vertex   -3.309482e+02 1.098078e+02 -2.425490e+02
      vertex   -3.313100e+02 1.098078e+02 -2.426989e+02
    endloop
  endfacet
  facet normal -0.000000e+00 -1.000000e+00 -0.000000e+00
    outer loop
      vertex   -3.070864e+02 1.098078e+02 -2.426989e+02
      vertex   -3.313100e+02 1.098078e+02 -2.426989e+02
      vertex   -2.951982e+02 1.098078e+02 -2.502500e+02
    endloop
  endfacet
  facet normal -0.000000e+00 -1.000000e+00 0.000000e+00
    outer loop
      vertex   -3.320864e+02 1.098078e+02 -2.426989e+02
      vertex   -3.324482e+02 1.098078e+02 -2.425490e+02
      vertex   -3.431982e+02 1.098078e+02 -2.502500e+02
    endloop
  endfacet
  facet normal 0.000000e+00 -1.000000e+00 0.000000e+00
    outer loop
      vertex   -3.431982e+02 1.098078e+02 -2.502500e+02
      vertex   -3.324482e+02 1.098078e+02 -2.425490e+02
      vertex   -3.327589e+02 1.098078e+02 -2.423107e+02
    endloop
  endfacet
  facet normal 0.000000e+00 -1.000000e+00 0.000000e+00
    outer loop
      vertex   -3.431982e+02 1.098078e+02 -2.502500e+02
      vertex   -3.327589e+02 1.098078e+02 -2.423107e+02
      vertex   -3.329973e+02 1.098078e+02 -2.420000e+02
    endloop
  endfacet
  facet normal -0.000000e+00 -1.000000e+00 0.000000e+00
    outer loop
      vertex   -3.329973e+02 1.098078e+02 -2.420000e+02
      vertex   -3.331471e+02 1.098078e+02 -2.416382e+02
      vertex   -3.431982e+02 1.098078e+02 -2.502500e+02
    endloop
  endfacet
  facet normal 0.000000e+00 -1.000000e+00 0.000000e+00
    outer loop
      vertex   -3.431982e+02 1.098078e+02 -2.502500e+02
      vertex   -3.331471e+02 1.098078e+02 -2.416382e+02
      vertex   -3.331982e+02 1.098078e+02 -2.412500e+02
    endloop
  endfacet
  facet normal 0.000000e+00 -1.000000e+00 0.000000e+00
    outer loop
      vertex   -3.063100e+02 1.098078e+02 -2.398011e+02
      vertex   -3.059482e+02 1.098078e+02 -2.399510e+02
      vertex   -2.951982e+02 1.098078e+02 -2.322500e+02
    endloop
  endfacet
  facet normal 0.000000e+00 -1.000000e+00 0.000000e+00
    outer loop
      vertex   -2.951982e+02 1.098078e+02 -2.322500e+02
      vertex   -3.059482e+02 1.098078e+02 -2.399510e+02
      vertex   -3.056376e+02 1.098078e+02 -2.401893e+02
    endloop
  endfacet
  facet normal 0.000000e+00 -1.000000e+00 0.000000e+00
    outer loop
      vertex   -2.951982e+02 1.098078e+02 -2.322500e+02
      vertex   -3.056376e+02 1.098078e+02 -2.401893e+02
      vertex   -3.053992e+02 1.098078e+02 -2.405000e+02
    endloop
  endfacet
  facet normal 0.000000e+00 -1.000000e+00 0.000000e+00
    outer loop
      vertex   -3.053992e+02 1.098078e+02 -2.405000e+02
      vertex   -3.052493e+02 1.098078e+02 -2.408618e+02
      vertex   -2.951982e+02 1.098078e+02 -2.322500e+02
    endloop
  endfacet
  facet normal 0.000000e+00 -1.000000e+00 0.000000e+00
    outer loop
      vertex   -2.951982e+02 1.098078e+02 -2.322500e+02
      vertex   -3.052493e+02 1.098078e+02 -2.408618e+02
      vertex   -3.051982e+02 1.098078e+02 -2.412500e+02
    endloop
  endfacet
  facet normal 0.000000e+00 -1.000000e+00 -0.000000e+00
    outer loop
      vertex   -3.053992e+02 1.098078e+02 -2.420000e+02
      vertex   -3.056376e+02 1.098078e+02 -2.423107e+02
      vertex   -2.951982e+02 1.098078e+02 -2.502500e+02
    endloop
  endfacet
  facet normal 0.000000e+00 -1.000000e+00 0.000000e+00
    outer loop
      vertex   -2.951982e+02 1.098078e+02 -2.502500e+02
      vertex   -3.056376e+02 1.098078e+02 -2.423107e+02
      vertex   -3.059482e+02 1.098078e+02 -2.425490e+02
    endloop
  endfacet
  facet normal 0.000000e+00 -1.000000e+00 0.000000e+00
    outer loop
      vertex   -2.951982e+02 1.098078e+02 -2.502500e+02
      vertex   -3.059482e+02 1.098078e+02 -2.425490e+02
      vertex   -3.063100e+02 1.098078e+02 -2.426989e+02
    endloop
  endfacet
  facet normal 0.000000e+00 -1.000000e+00 -0.000000e+00
    outer loop
      vertex   -3.063100e+02 1.098078e+02 -2.426989e+02
      vertex   -3.066982e+02 1.098078e+02 -2.427500e+02
      vertex   -2.951982e+02 1.098078e+02 -2.502500e+02
    endloop
  endfacet
  facet normal 0.000000e+00 -1.000000e+00 0.000000e+00
    outer loop
      vertex   -2.951982e+02 1.098078e+02 -2.502500e+02
      vertex   -3.066982e+02 1.098078e+02 -2.427500e+02
      vertex   -3.070864e+02 1.098078e+02 -2.426989e+02
    endloop
  endfacet
  facet normal 9.914449e-01 0.000000e+00 -1.305262e-01
    outer loop
      vertex   -3.331471e+02 1.148078e+02 -2.408618e+02
      vertex   -3.331471e+02 1.098078e+02 -2.408618e+02
      vertex   -3.331982e+02 1.148078e+02 -2.412500e+02
    endloop
  endfacet
  facet normal 9.914449e-01 0.000000e+00 -1.305262e-01
    outer loop
      vertex   -3.331982e+02 1.148078e+02 -2.412500e+02
      vertex   -3.331471e+02 1.098078e+02 -2.408618e+02
      vertex   -3.331982e+02 1.098078e+02 -2.412500e+02
    endloop
  endfacet
  facet normal 9.914449e-01 0.000000e+00 1.305262e-01
    outer loop
      vertex   -3.331982e+02 1.148078e+02 -2.412500e+02
      vertex   -3.331982e+02 1.098078e+02 -2.412500e+02
      vertex   -3.331471e+02 1.148078e+02 -2.416382e+02
    endloop
  endfacet
  facet normal 9.914449e-01 0.000000e+00 1.305262e-01
    outer loop
      vertex   -3.331471e+02 1.148078e+02 -2.416382e+02
      vertex   -3.331982e+02 1.098078e+02 -2.412500e+02
      vertex   -3.331471e+02 1.098078e+02 -2.416382e+02
    endloop
  endfacet
  facet normal 9.238795e-01 0.000000e+00 3.826834e-01
    outer loop
      vertex   -3.331471e+02 1.148078e+02 -2.416382e+02
      vertex   -3.331471e+02 1.098078e+02 -2.416382e+02
      vertex   -3.329973e+02 1.148078e+02 -2.420000e+02
    endloop
  endfacet
  facet normal 9.238795e-01 0.000000e+00 3.826834e-01
    outer loop
      vertex   -3.329973e+02 1.148078e+02 -2.420000e+02
      vertex   -3.331471e+02 1.098078e+02 -2.416382e+02
      vertex   -3.329973e+02 1.098078e+02 -2.420000e+02
    endloop
  endfacet
  facet normal 7.933533e-01 0.000000e+00 6.087614e-01
    outer loop
      vertex   -3.329973e+02 1.148078e+02 -2.420000e+02
      vertex   -3.329973e+02 1.098078e+02 -2.420000e+02
      vertex   -3.327589e+02 1.148078e+02 -2.423107e+02
    endloop
  endfacet
  facet normal 7.933533e-01 0.000000e+00 6.087614e-01
    outer loop
      vertex   -3.327589e+02 1.148078e+02 -2.423107e+02
      vertex   -3.329973e+02 1.098078e+02 -2.420000e+02
      vertex   -3.327589e+02 1.098078e+02 -2.423107e+02
    endloop
  endfacet
  facet normal 6.087614e-01 0.000000e+00 7.933533e-01
    outer loop
      vertex   -3.327589e+02 1.148078e+02 -2.423107e+02
      vertex   -3.327589e+02 1.098078e+02 -2.423107e+02
      vertex   -3.324482e+02 1.148078e+02 -2.425490e+02
    endloop
  endfacet
  facet normal 6.087614e-01 0.000000e+00 7.933533e-01
    outer loop
      vertex   -3.324482e+02 1.148078e+02 -2.425490e+02
      vertex   -3.327589e+02 1.098078e+02 -2.423107e+02
      vertex   -3.324482e+02 1.098078e+02 -2.425490e+02
    endloop
  endfacet
  facet normal 3.826834e-01 0.000000e+00 9.238795e-01
    outer loop
      vertex   -3.324482e+02 1.148078e+02 -2.425490e+02
      vertex   -3.324482e+02 1.098078e+02 -2.425490e+02
      vertex   -3.320864e+02 1.148078e+02 -2.426989e+02
    endloop
  endfacet
  facet normal 3.826834e-01 0.000000e+00 9.238795e-01
    outer loop
      vertex   -3.320864e+02 1.148078e+02 -2.426989e+02
      vertex   -3.324482e+02 1.098078e+02 -2.425490e+02
      vertex   -3.320864e+02 1.098078e+02 -2.426989e+02
    endloop
  endfacet
  facet normal 1.305262e-01 0.000000e+00 9.914449e-01
    outer loop
      vertex   -3.320864e+02 1.148078e+02 -2.426989e+02
      vertex   -3.320864e+02 1.098078e+02 -2.426989e+02
      vertex   -3.316982e+02 1.148078e+02 -2.427500e+02
    endloop
  endfacet
  facet normal 1.305262e-01 0.000000e+00 9.914449e-01
    outer loop
      vertex   -3.316982e+02 1.148078e+02 -2.427500e+02
      vertex   -3.320864e+02 1.098078e+02 -2.426989e+02
      vertex   -3.316982e+02 1.098078e+02 -2.427500e+02
    endloop
  endfacet
  facet normal -1.305262e-01 0.000000e+00 9.914449e-01
    outer loop
      vertex   -3.316982e+02 1.148078e+02 -2.427500e+02
      vertex   -3.316982e+02 1.098078e+02 -2.427500e+02
      vertex   -3.313100e+02 1.148078e+02 -2.426989e+02
    endloop
  endfacet
  facet normal -1.305262e-01 0.000000e+00 9.914449e-01
    outer loop
      vertex   -3.313100e+02 1.148078e+02 -2.426989e+02
      vertex   -3.316982e+02 1.098078e+02 -2.427500e+02
      vertex   -3.313100e+02 1.098078e+02 -2.426989e+02
    endloop
  endfacet
  facet normal -3.826834e-01 0.000000e+00 9.238795e-01
    outer loop
      vertex   -3.313100e+02 1.148078e+02 -2.426989e+02
      vertex   -3.313100e+02 1.098078e+02 -2.426989e+02
      vertex   -3.309482e+02 1.148078e+02 -2.425490e+02
    endloop
  endfacet
  facet normal -3.826834e-01 0.000000e+00 9.238795e-01
    outer loop
      vertex   -3.309482e+02 1.148078e+02 -2.425490e+02
      vertex   -3.313100e+02 1.098078e+02 -2.426989e+02
      vertex   -3.309482e+02 1.098078e+02 -2.425490e+02
    endloop
  endfacet
  facet normal -6.087614e-01 0.000000e+00 7.933533e-01
    outer loop
      vertex   -3.309482e+02 1.148078e+02 -2.425490e+02
      vertex   -3.309482e+02 1.098078e+02 -2.425490e+02
      vertex   -3.306376e+02 1.148078e+02 -2.423107e+02
    endloop
  endfacet
  facet normal -6.087614e-01 0.000000e+00 7.933533e-01
    outer loop
      vertex   -3.306376e+02 1.148078e+02 -2.423107e+02
      vertex   -3.309482e+02 1.098078e+02 -2.425490e+02
      vertex   -3.306376e+02 1.098078e+02 -2.423107e+02
    endloop
  endfacet
  facet normal -7.933533e-01 0.000000e+00 6.087614e-01
    outer loop
      vertex   -3.306376e+02 1.148078e+02 -2.423107e+02
      vertex   -3.306376e+02 1.098078e+02 -2.423107e+02
      vertex   -3.303992e+02 1.148078e+02 -2.420000e+02
    endloop
  endfacet
  facet normal -7.933533e-01 0.000000e+00 6.087614e-01
    outer loop
      vertex   -3.303992e+02 1.148078e+02 -2.420000e+02
      vertex   -3.306376e+02 1.098078e+02 -2.423107e+02
      vertex   -3.303992e+02 1.098078e+02 -2.420000e+02
    endloop
  endfacet
  facet normal -9.238795e-01 0.000000e+00 3.826834e-01
    outer loop
      vertex   -3.303992e+02 1.148078e+02 -2.420000e+02
      vertex   -3.303992e+02 1.098078e+02 -2.420000e+02
      vertex   -3.302493e+02 1.148078e+02 -2.416382e+02
    endloop
  endfacet
  facet normal -9.238795e-01 0.000000e+00 3.826834e-01
    outer loop
      vertex   -3.302493e+02 1.148078e+02 -2.416382e+02
      vertex   -3.303992e+02 1.098078e+02 -2.420000e+02
      vertex   -3.302493e+02 1.098078e+02 -2.416382e+02
    endloop
  endfacet
  facet normal -9.914449e-01 0.000000e+00 1.305262e-01
    outer loop
      vertex   -3.302493e+02 1.148078e+02 -2.416382e+02
      vertex   -3.302493e+02 1.098078e+02 -2.416382e+02
      vertex   -3.301982e+02 1.148078e+02 -2.412500e+02
    endloop
  endfacet
  facet normal -9.914449e-01 0.000000e+00 1.305262e-01
    outer loop
      vertex   -3.301982e+02 1.148078e+02 -2.412500e+02
      vertex   -3.302493e+02 1.098078e+02 -2.416382e+02
      vertex   -3.301982e+02 1.098078e+02 -2.412500e+02
    endloop
  endfacet
  facet normal -9.914449e-01 -0.000000e+00 -1.305262e-01
    outer loop
      vertex   -3.301982e+02 1.148078e+02 -2.412500e+02
      vertex   -3.301982e+02 1.098078e+02 -2.412500e+02
      vertex   -3.302493e+02 1.148078e+02 -2.408618e+02
    endloop
  endfacet
  facet normal -9.914449e-01 -0.000000e+00 -1.305262e-01
    outer loop
      vertex   -3.302493e+02 1.148078e+02 -2.408618e+02
      vertex   -3.301982e+02 1.098078e+02 -2.412500e+02
      vertex   -3.302493e+02 1.098078e+02 -2.408618e+02
    endloop
  endfacet
  facet normal -9.238795e-01 -0.000000e+00 -3.826834e-01
    outer loop
      vertex   -3.302493e+02 1.148078e+02 -2.408618e+02
      vertex   -3.302493e+02 1.098078e+02 -2.408618e+02
      vertex   -3.303992e+02 1.148078e+02 -2.405000e+02
    endloop
  endfacet
  facet normal -9.238795e-01 -0.000000e+00 -3.826834e-01
    outer loop
      vertex   -3.303992e+02 1.148078e+02 -2.405000e+02
      vertex   -3.302493e+02 1.098078e+02 -2.408618e+02
      vertex   -3.303992e+02 1.098078e+02 -2.405000e+02
    endloop
  endfacet
  facet normal -7.933533e-01 -0.000000e+00 -6.087614e-01
    outer loop
      vertex   -3.303992e+02 1.148078e+02 -2.405000e+02
      vertex   -3.303992e+02 1.098078e+02 -2.405000e+02
      vertex   -3.306376e+02 1.148078e+02 -2.401893e+02
    endloop
  endfacet
  facet normal -7.933533e-01 -0.000000e+00 -6.087614e-01
    outer loop
      vertex   -3.306376e+02 1.148078e+02 -2.401893e+02
      vertex   -3.303992e+02 1.098078e+02 -2.405000e+02
      vertex   -3.306376e+02 1.098078e+02 -2.401893e+02
    endloop
  endfacet
  facet normal -6.087614e-01 -0.000000e+00 -7.933533e-01
    outer loop
      vertex   -3.306376e+02 1.148078e+02 -2.401893e+02
      vertex   -3.306376e+02 1.098078e+02 -2.401893e+02
      vertex   -3.309482e+02 1.148078e+02 -2.399510e+02
    endloop
  endfacet
  facet normal -6.087614e-01 -0.000000e+00 -7.933533e-01
    outer loop
      vertex   -3.309482e+02 1.148078e+02 -2.399510e+02
      vertex   -3.306376e+02 1.098078e+02 -2.401893e+02
      vertex   -3.309482e+02 1.098078e+02 -2.399510e+02
    endloop
  endfacet
  facet normal -3.826834e-01 -0.000000e+00 -9.238795e-01
    outer loop
      vertex   -3.309482e+02 1.148078e+02 -2.399510e+02
      vertex   -3.309482e+02 1.098078e+02 -2.399510e+02
      vertex   -3.313100e+02 1.148078e+02 -2.398011e+02
    endloop
  endfacet
  facet normal -3.826834e-01 -0.000000e+00 -9.238795e-01
    outer loop
      vertex   -3.313100e+02 1.148078e+02 -2.398011e+02
      vertex   -3.309482e+02 1.098078e+02 -2.399510e+02
      vertex   -3.313100e+02 1.098078e+02 -2.398011e+02
    endloop
  endfacet
  facet normal -1.305262e-01 -0.000000e+00 -9.914449e-01
    outer loop
      vertex   -3.313100e+02 1.148078e+02 -2.398011e+02
      vertex   -3.313100e+02 1.098078e+02 -2.398011e+02
      vertex   -3.316982e+02 1.148078e+02 -2.397500e+02
    endloop
  endfacet
  facet normal -1.305262e-01 -0.000000e+00 -9.914449e-01
    outer loop
      vertex   -3.316982e+02 1.148078e+02 -2.397500e+02
      vertex   -3.313100e+02 1.098078e+02 -2.398011e+02
      vertex   -3.316982e+02 1.098078e+02 -2.397500e+02
    endloop
  endfacet
  facet normal 1.305262e-01 0.000000e+00 -9.914449e-01
    outer loop
      vertex   -3.316982e+02 1.148078e+02 -2.397500e+02
      vertex   -3.316982e+02 1.098078e+02 -2.397500e+02
      vertex   -3.320864e+02 1.148078e+02 -2.398011e+02
    endloop
  endfacet
  facet normal 1.305262e-01 0.000000e+00 -9.914449e-01
    outer loop
      vertex   -3.320864e+02 1.148078e+02 -2.398011e+02
      vertex   -3.316982e+02 1.098078e+02 -2.397500e+02
      vertex   -3.320864e+02 1.098078e+02 -2.398011e+02
    endloop
  endfacet
  facet normal 3.826834e-01 0.000000e+00 -9.238795e-01
    outer loop
      vertex   -3.320864e+02 1.148078e+02 -2.398011e+02
      vertex   -3.320864e+02 1.098078e+02 -2.398011e+02
      vertex   -3.324482e+02 1.148078e+02 -2.399510e+02
    endloop
  endfacet
  facet normal 3.826834e-01 0.000000e+00 -9.238795e-01
    outer loop
      vertex   -3.324482e+02 1.148078e+02 -2.399510e+02
      vertex   -3.320864e+02 1.098078e+02 -2.398011e+02
      vertex   -3.324482e+02 1.098078e+02 -2.399510e+02
    endloop
  endfacet
  facet normal 6.087614e-01 0.000000e+00 -7.933533e-01
    outer loop
      vertex   -3.324482e+02 1.148078e+02 -2.399510e+02
      vertex   -3.324482e+02 1.098078e+02 -2.399510e+02
      vertex   -3.327589e+02 1.148078e+02 -2.401893e+02
    endloop
  endfacet
  facet normal 6.087614e-01 0.000000e+00 -7.933533e-01
    outer loop
      vertex   -3.327589e+02 1.148078e+02 -2.401893e+02
      vertex   -3.324482e+02 1.098078e+02 -2.399510e+02
      vertex   -3.327589e+02 1.098078e+02 -2.401893e+02
    endloop
  endfacet
  facet normal 7.933533e-01 0.000000e+00 -6.087614e-01
    outer loop
      vertex   -3.327589e+02 1.148078e+02 -2.401893e+02
      vertex   -3.327589e+02 1.098078e+02 -2.401893e+02
      vertex   -3.329973e+02 1.148078e+02 -2.405000e+02
    endloop
  endfacet
  facet normal 7.933533e-01 0.000000e+00 -6.087614e-01
    outer loop
      vertex   -3.329973e+02 1.148078e+02 -2.405000e+02
      vertex   -3.327589e+02 1.098078e+02 -2.401893e+02
      vertex   -3.329973e+02 1.098078e+02 -2.405000e+02
    endloop
  endfacet
  facet normal 9.238795e-01 0.000000e+00 -3.826834e-01
    outer loop
      vertex   -3.329973e+02 1.148078e+02 -2.405000e+02
      vertex   -3.329973e+02 1.098078e+02 -2.405000e+02
      vertex   -3.331471e+02 1.148078e+02 -2.408618e+02
    endloop
  endfacet
  facet normal 9.238795e-01 0.000000e+00 -3.826834e-01
    outer loop
      vertex   -3.331471e+02 1.148078e+02 -2.408618e+02
      vertex   -3.329973e+02 1.098078e+02 -2.405000e+02
      vertex   -3.331471e+02 1.098078e+02 -2.408618e+02
    endloop
  endfacet
  facet normal 9.914449e-01 0.000000e+00 -1.305262e-01
    outer loop
      vertex   -3.081471e+02 1.148078e+02 -2.408618e+02
      vertex   -3.081471e+02 1.098078e+02 -2.408618e+02
      vertex   -3.081982e+02 1.148078e+02 -2.412500e+02
    endloop
  endfacet
  facet normal 9.914449e-01 0.000000e+00 -1.305262e-01
    outer loop
      vertex   -3.081982e+02 1.148078e+02 -2.412500e+02
      vertex   -3.081471e+02 1.098078e+02 -2.408618e+02
      vertex   -3.081982e+02 1.098078e+02 -2.412500e+02
    endloop
  endfacet
  facet normal 9.914449e-01 0.000000e+00 1.305262e-01
    outer loop
      vertex   -3.081982e+02 1.148078e+02 -2.412500e+02
      vertex   -3.081982e+02 1.098078e+02 -2.412500e+02
      vertex   -3.081471e+02 1.148078e+02 -2.416382e+02
    endloop
  endfacet
  facet normal 9.914449e-01 0.000000e+00 1.305262e-01
    outer loop
      vertex   -3.081471e+02 1.148078e+02 -2.416382e+02
      vertex   -3.081982e+02 1.098078e+02 -2.412500e+02
      vertex   -3.081471e+02 1.098078e+02 -2.416382e+02
    endloop
  endfacet
  facet normal 9.238795e-01 0.000000e+00 3.826834e-01
    outer loop
      vertex   -3.081471e+02 1.148078e+02 -2.416382e+02
      vertex   -3.081471e+02 1.098078e+02 -2.416382e+02
      vertex   -3.079973e+02 1.148078e+02 -2.420000e+02
    endloop
  endfacet
  facet normal 9.238795e-01 0.000000e+00 3.826834e-01
    outer loop
      vertex   -3.079973e+02 1.148078e+02 -2.420000e+02
      vertex   -3.081471e+02 1.098078e+02 -2.416382e+02
      vertex   -3.079973e+02 1.098078e+02 -2.420000e+02
    endloop
  endfacet
  facet normal 7.933533e-01 0.000000e+00 6.087614e-01
    outer loop
      vertex   -3.079973e+02 1.148078e+02 -2.420000e+02
      vertex   -3.079973e+02 1.098078e+02 -2.420000e+02
      vertex   -3.077589e+02 1.148078e+02 -2.423107e+02
    endloop
  endfacet
  facet normal 7.933533e-01 0.000000e+00 6.087614e-01
    outer loop
      vertex   -3.077589e+02 1.148078e+02 -2.423107e+02
      vertex   -3.079973e+02 1.098078e+02 -2.420000e+02
      vertex   -3.077589e+02 1.098078e+02 -2.423107e+02
    endloop
  endfacet
  facet normal 6.087614e-01 0.000000e+00 7.933533e-01
    outer loop
      vertex   -3.077589e+02 1.148078e+02 -2.423107e+02
      vertex   -3.077589e+02 1.098078e+02 -2.423107e+02
      vertex   -3.074482e+02 1.148078e+02 -2.425490e+02
    endloop
  endfacet
  facet normal 6.087614e-01 0.000000e+00 7.933533e-01
    outer loop
      vertex   -3.074482e+02 1.148078e+02 -2.425490e+02
      vertex   -3.077589e+02 1.098078e+02 -2.423107e+02
      vertex   -3.074482e+02 1.098078e+02 -2.425490e+02
    endloop
  endfacet
  facet normal 3.826834e-01 0.000000e+00 9.238795e-01
    outer loop
      vertex   -3.074482e+02 1.148078e+02 -2.425490e+02
      vertex   -3.074482e+02 1.098078e+02 -2.425490e+02
      vertex   -3.070864e+02 1.148078e+02 -2.426989e+02
    endloop
  endfacet
  facet normal 3.826834e-01 0.000000e+00 9.238795e-01
    outer loop
      vertex   -3.070864e+02 1.148078e+02 -2.426989e+02
      vertex   -3.074482e+02 1.098078e+02 -2.425490e+02
      vertex   -3.070864e+02 1.098078e+02 -2.426989e+02
    endloop
  endfacet
  facet normal 1.305262e-01 0.000000e+00 9.914449e-01
    outer loop
      vertex   -3.070864e+02 1.148078e+02 -2.426989e+02
      vertex   -3.070864e+02 1.098078e+02 -2.426989e+02
      vertex   -3.066982e+02 1.148078e+02 -2.427500e+02
    endloop
  endfacet
  facet normal 1.305262e-01 0.000000e+00 9.914449e-01
    outer loop
      vertex   -3.066982e+02 1.148078e+02 -2.427500e+02
      vertex   -3.070864e+02 1.098078e+02 -2.426989e+02
      vertex   -3.066982e+02 1.098078e+02 -2.427500e+02
    endloop
  endfacet
  facet normal -1.305262e-01 0.000000e+00 9.914449e-01
    outer loop
      vertex   -3.066982e+02 1.148078e+02 -2.427500e+02
      vertex   -3.066982e+02 1.098078e+02 -2.427500e+02
      vertex   -3.063100e+02 1.148078e+02 -2.426989e+02
    endloop
  endfacet
  facet normal -1.305262e-01 0.000000e+00 9.914449e-01
    outer loop
      vertex   -3.063100e+02 1.148078e+02 -2.426989e+02
      vertex   -3.066982e+02 1.098078e+02 -2.427500e+02
      vertex   -3.063100e+02 1.098078e+02 -2.426989e+02
    endloop
  endfacet
  facet normal -3.826834e-01 0.000000e+00 9.238795e-01
    outer loop
      vertex   -3.063100e+02 1.148078e+02 -2.426989e+02
      vertex   -3.063100e+02 1.098078e+02 -2.426989e+02
      vertex   -3.059482e+02 1.148078e+02 -2.425490e+02
    endloop
  endfacet
  facet normal -3.826834e-01 0.000000e+00 9.238795e-01
    outer loop
      vertex   -3.059482e+02 1.148078e+02 -2.425490e+02
      vertex   -3.063100e+02 1.098078e+02 -2.426989e+02
      vertex   -3.059482e+02 1.098078e+02 -2.425490e+02
    endloop
  endfacet
  facet normal -6.087614e-01 0.000000e+00 7.933533e-01
    outer loop
      vertex   -3.059482e+02 1.148078e+02 -2.425490e+02
      vertex   -3.059482e+02 1.098078e+02 -2.425490e+02
      vertex   -3.056376e+02 1.148078e+02 -2.423107e+02
    endloop
  endfacet
  facet normal -6.087614e-01 0.000000e+00 7.933533e-01
    outer loop
      vertex   -3.056376e+02 1.148078e+02 -2.423107e+02
      vertex   -3.059482e+02 1.098078e+02 -2.425490e+02
      vertex   -3.056376e+02 1.098078e+02 -2.423107e+02
    endloop
  endfacet
  facet normal -7.933533e-01 0.000000e+00 6.087614e-01
    outer loop
      vertex   -3.056376e+02 1.148078e+02 -2.423107e+02
      vertex   -3.056376e+02 1.098078e+02 -2.423107e+02
      vertex   -3.053992e+02 1.148078e+02 -2.420000e+02
    endloop
  endfacet
  facet normal -7.933533e-01 0.000000e+00 6.087614e-01
    outer loop
      vertex   -3.053992e+02 1.148078e+02 -2.420000e+02
      vertex   -3.056376e+02 1.098078e+02 -2.423107e+02
      vertex   -3.053992e+02 1.098078e+02 -2.420000e+02
    endloop
  endfacet
  facet normal -9.238795e-01 0.000000e+00 3.826834e-01
    outer loop
      vertex   -3.053992e+02 1.148078e+02 -2.420000e+02
      vertex   -3.053992e+02 1.098078e+02 -2.420000e+02
      vertex   -3.052493e+02 1.148078e+02 -2.416382e+02
    endloop
  endfacet
  facet normal -9.238795e-01 0.000000e+00 3.826834e-01
    outer loop
      vertex   -3.052493e+02 1.148078e+02 -2.416382e+02
      vertex   -3.053992e+02 1.098078e+02 -2.420000e+02
      vertex   -3.052493e+02 1.098078e+02 -2.416382e+02
    endloop
  endfacet
  facet normal -9.914449e-01 0.000000e+00 1.305262e-01
    outer loop
      vertex   -3.052493e+02 1.148078e+02 -2.416382e+02
      vertex   -3.052493e+02 1.098078e+02 -2.416382e+02
      vertex   -3.051982e+02 1.148078e+02 -2.412500e+02
    endloop
  endfacet
  facet normal -9.914449e-01 0.000000e+00 1.305262e-01
    outer loop
      vertex   -3.051982e+02 1.148078e+02 -2.412500e+02
      vertex   -3.052493e+02 1.098078e+02 -2.416382e+02
      vertex   -3.051982e+02 1.098078e+02 -2.412500e+02
    endloop
  endfacet
  facet normal -9.914449e-01 -0.000000e+00 -1.305262e-01
    outer loop
      vertex   -3.051982e+02 1.148078e+02 -2.412500e+02
      vertex   -3.051982e+02 1.098078e+02 -2.412500e+02
      vertex   -3.052493e+02 1.148078e+02 -2.408618e+02
    endloop
  endfacet
  facet normal -9.914449e-01 -0.000000e+00 -1.305262e-01
    outer loop
      vertex   -3.052493e+02 1.148078e+02 -2.408618e+02
      vertex   -3.051982e+02 1.098078e+02 -2.412500e+02
      vertex   -3.052493e+02 1.098078e+02 -2.408618e+02
    endloop
  endfacet
  facet normal -9.238795e-01 -0.000000e+00 -3.826834e-01
    outer loop
      vertex   -3.052493e+02 1.148078e+02 -2.408618e+02
      vertex   -3.052493e+02 1.098078e+02 -2.408618e+02
      vertex   -3.053992e+02 1.148078e+02 -2.405000e+02
    endloop
  endfacet
  facet normal -9.238795e-01 -0.000000e+00 -3.826834e-01
    outer loop
      vertex   -3.053992e+02 1.148078e+02 -2.405000e+02
      vertex   -3.052493e+02 1.098078e+02 -2.408618e+02
      vertex   -3.053992e+02 1.098078e+02 -2.405000e+02
    endloop
  endfacet
  facet normal -7.933533e-01 -0.000000e+00 -6.087614e-01
    outer loop
      vertex   -3.053992e+02 1.148078e+02 -2.405000e+02
      vertex   -3.053992e+02 1.098078e+02 -2.405000e+02
      vertex   -3.056376e+02 1.148078e+02 -2.401893e+02
    endloop
  endfacet
  facet normal -7.933533e-01 -0.000000e+00 -6.087614e-01
    outer loop
      vertex   -3.056376e+02 1.148078e+02 -2.401893e+02
      vertex   -3.053992e+02 1.098078e+02 -2.405000e+02
      vertex   -3.056376e+02 1.098078e+02 -2.401893e+02
    endloop
  endfacet
  facet normal -6.087614e-01 -0.000000e+00 -7.933533e-01
    outer loop
      vertex   -3.056376e+02 1.148078e+02 -2.401893e+02
      vertex   -3.056376e+02 1.098078e+02 -2.401893e+02
      vertex   -3.059482e+02 1.148078e+02 -2.399510e+02
    endloop
  endfacet
  facet normal -6.087614e-01 -0.000000e+00 -7.933533e-01
    outer loop
      vertex   -3.059482e+02 1.148078e+02 -2.399510e+02
      vertex   -3.056376e+02 1.098078e+02 -2.401893e+02
      vertex   -3.059482e+02 1.098078e+02 -2.399510e+02
    endloop
  endfacet
  facet normal -3.826834e-01 -0.000000e+00 -9.238795e-01
    outer loop
      vertex   -3.059482e+02 1.148078e+02 -2.399510e+02
      vertex   -3.059482e+02 1.098078e+02 -2.399510e+02
      vertex   -3.063100e+02 1.148078e+02 -2.398011e+02
    endloop
  endfacet
  facet normal -3.826834e-01 -0.000000e+00 -9.238795e-01
    outer loop
      vertex   -3.063100e+02 1.148078e+02 -2.398011e+02
      vertex   -3.059482e+02 1.098078e+02 -2.399510e+02
      vertex   -3.063100e+02 1.098078e+02 -2.398011e+02
    endloop
  endfacet
  facet normal -1.305262e-01 -0.000000e+00 -9.914449e-01
    outer loop
      vertex   -3.063100e+02 1.148078e+02 -2.398011e+02
      vertex   -3.063100e+02 1.098078e+02 -2.398011e+02
      vertex   -3.066982e+02 1.148078e+02 -2.397500e+02
    endloop
  endfacet
  facet normal -1.305262e-01 -0.000000e+00 -9.914449e-01
    outer loop
      vertex   -3.066982e+02 1.148078e+02 -2.397500e+02
      vertex   -3.063100e+02 1.098078e+02 -2.398011e+02
      vertex   -3.066982e+02 1.098078e+02 -2.397500e+02
    endloop
  endfacet
  facet normal 1.305262e-01 0.000000e+00 -9.914449e-01
    outer loop
      vertex   -3.066982e+02 1.148078e+02 -2.397500e+02
      vertex   -3.066982e+02 1.098078e+02 -2.397500e+02
      vertex   -3.070864e+02 1.148078e+02 -2.398011e+02
    endloop
  endfacet
  facet normal 1.305262e-01 0.000000e+00 -9.914449e-01
    outer loop
      vertex   -3.070864e+02 1.148078e+02 -2.398011e+02
      vertex   -3.066982e+02 1.098078e+02 -2.397500e+02
      vertex   -3.070864e+02 1.098078e+02 -2.398011e+02
    endloop
  endfacet
  facet normal 3.826834e-01 0.000000e+00 -9.238795e-01
    outer loop
      vertex   -3.070864e+02 1.148078e+02 -2.398011e+02
      vertex   -3.070864e+02 1.098078e+02 -2.398011e+02
      vertex   -3.074482e+02 1.148078e+02 -2.399510e+02
    endloop
  endfacet
  facet normal 3.826834e-01 0.000000e+00 -9.238795e-01
    outer loop
      vertex   -3.074482e+02 1.148078e+02 -2.399510e+02
      vertex   -3.070864e+02 1.098078e+02 -2.398011e+02
      vertex   -3.074482e+02 1.098078e+02 -2.399510e+02
    endloop
  endfacet
  facet normal 6.087614e-01 0.000000e+00 -7.933533e-01
    outer loop
      vertex   -3.074482e+02 1.148078e+02 -2.399510e+02
      vertex   -3.074482e+02 1.098078e+02 -2.399510e+02
      vertex   -3.077589e+02 1.148078e+02 -2.401893e+02
    endloop
  endfacet
  facet normal 6.087614e-01 0.000000e+00 -7.933533e-01
    outer loop
      vertex   -3.077589e+02 1.148078e+02 -2.401893e+02
      vertex   -3.074482e+02 1.098078e+02 -2.399510e+02
      vertex   -3.077589e+02 1.098078e+02 -2.401893e+02
    endloop
  endfacet
  facet normal 7.933533e-01 0.000000e+00 -6.087614e-01
    outer loop
      vertex   -3.077589e+02 1.148078e+02 -2.401893e+02
      vertex   -3.077589e+02 1.098078e+02 -2.401893e+02
      vertex   -3.079973e+02 1.148078e+02 -2.405000e+02
    endloop
  endfacet
  facet normal 7.933533e-01 0.000000e+00 -6.087614e-01
    outer loop
      vertex   -3.079973e+02 1.148078e+02 -2.405000e+02
      vertex   -3.077589e+02 1.098078e+02 -2.401893e+02
      vertex   -3.079973e+02 1.098078e+02 -2.405000e+02
    endloop
  endfacet
  facet normal 9.238795e-01 0.000000e+00 -3.826834e-01
    outer loop
      vertex   -3.079973e+02 1.148078e+02 -2.405000e+02
      vertex   -3.079973e+02 1.098078e+02 -2.405000e+02
      vertex   -3.081471e+02 1.148078e+02 -2.408618e+02
    endloop
  endfacet
  facet normal 9.238795e-01 0.000000e+00 -3.826834e-01
    outer loop
      vertex   -3.081471e+02 1.148078e+02 -2.408618e+02
      vertex   -3.079973e+02 1.098078e+02 -2.405000e+02
      vertex   -3.081471e+02 1.098078e+02 -2.408618e+02
    endloop
  endfacet
  facet normal 0.000000e+00 0.000000e+00 -1.000000e+00
    outer loop
      vertex   -3.431982e+02 1.148078e+02 -2.502500e+02
      vertex   -2.951982e+02 1.148078e+02 -2.502500e+02
      vertex   -3.431982e+02 1.098078e+02 -2.502500e+02
    endloop
  endfacet
  facet normal 0.000000e+00 0.000000e+00 -1.000000e+00
    outer loop
      vertex   -3.431982e+02 1.098078e+02 -2.502500e+02
      vertex   -2.951982e+02 1.148078e+02 -2.502500e+02
      vertex   -2.951982e+02 1.098078e+02 -2.502500e+02
    endloop
  endfacet
  facet normal 1.000000e+00 0.000000e+00 -0.000000e+00
    outer loop
      vertex   -2.951982e+02 1.148078e+02 -2.502500e+02
      vertex   -2.951982e+02 1.148078e+02 -2.322500e+02
      vertex   -2.951982e+02 1.098078e+02 -2.502500e+02
    endloop
  endfacet
  facet normal 1.000000e+00 0.000000e+00 0.000000e+00
    outer loop
      vertex   -2.951982e+02 1.098078e+02 -2.502500e+02
      vertex   -2.951982e+02 1.148078e+02 -2.322500e+02
      vertex   -2.951982e+02 1.098078e+02 -2.322500e+02
    endloop
  endfacet
  facet normal 0.000000e+00 0.000000e+00 1.000000e+00
    outer loop
      vertex   -2.951982e+02 1.148078e+02 -2.322500e+02
      vertex   -3.431982e+02 1.148078e+02 -2.322500e+02
      vertex   -2.951982e+02 1.098078e+02 -2.322500e+02
    endloop
  endfacet
  facet normal 0.000000e+00 0.000000e+00 1.000000e+00
    outer loop
      vertex   -2.951982e+02 1.098078e+02 -2.322500e+02
      vertex   -3.431982e+02 1.148078e+02 -2.322500e+02
      vertex   -3.431982e+02 1.098078e+02 -2.322500e+02
    endloop
  endfacet
  facet normal -1.000000e+00 -0.000000e+00 -0.000000e+00
    outer loop
      vertex   -3.431982e+02 1.148078e+02 -2.322500e+02
      vertex   -3.431982e+02 1.148078e+02 -2.502500e+02
      vertex   -3.431982e+02 1.098078e+02 -2.322500e+02
    endloop
  endfacet
  facet normal -1.000000e+00 0.000000e+00 0.000000e+00
    outer loop
      vertex   -3.431982e+02 1.098078e+02 -2.322500e+02
      vertex   -3.431982e+02 1.148078e+02 -2.502500e+02
      vertex   -3.431982e+02 1.098078e+02 -2.502500e+02
    endloop
  endfacet
  facet normal 0.000000e+00 1.000000e+00 -0.000000e+00
    outer loop
      vertex   -2.951982e+02 1.148078e+02 -2.502500e+02
      vertex   -3.051982e+02 1.148078e+02 -2.412500e+02
      vertex   -2.951982e+02 1.148078e+02 -2.322500e+02
    endloop
  endfacet
  facet normal 0.000000e+00 1.000000e+00 0.000000e+00
    outer loop
      vertex   -2.951982e+02 1.148078e+02 -2.322500e+02
      vertex   -3.051982e+02 1.148078e+02 -2.412500e+02
      vertex   -3.052493e+02 1.148078e+02 -2.408618e+02
    endloop
  endfacet
  facet normal 0.000000e+00 1.000000e+00 0.000000e+00
    outer loop
      vertex   -2.951982e+02 1.148078e+02 -2.322500e+02
      vertex   -3.052493e+02 1.148078e+02 -2.408618e+02
      vertex   -3.053992e+02 1.148078e+02 -2.405000e+02
    endloop
  endfacet
  facet normal 0.000000e+00 1.000000e+00 0.000000e+00
    outer loop
      vertex   -3.431982e+02 1.148078e+02 -2.502500e+02
      vertex   -3.070864e+02 1.148078e+02 -2.426989e+02
      vertex   -2.951982e+02 1.148078e+02 -2.502500e+02
    endloop
  endfacet
  facet normal 0.000000e+00 1.000000e+00 0.000000e+00
    outer loop
      vertex   -2.951982e+02 1.148078e+02 -2.502500e+02
      vertex   -3.070864e+02 1.148078e+02 -2.426989e+02
      vertex   -3.066982e+02 1.148078e+02 -2.427500e+02
    endloop
  endfacet
  facet normal 0.000000e+00 1.000000e+00 0.000000e+00
    outer loop
      vertex   -2.951982e+02 1.148078e+02 -2.502500e+02
      vertex   -3.066982e+02 1.148078e+02 -2.427500e+02
      vertex   -3.063100e+02 1.148078e+02 -2.426989e+02
    endloop
  endfacet
  facet normal 0.000000e+00 1.000000e+00 0.000000e+00
    outer loop
      vertex   -3.431982e+02 1.148078e+02 -2.322500e+02
      vertex   -3.331982e+02 1.148078e+02 -2.412500e+02
      vertex   -3.431982e+02 1.148078e+02 -2.502500e+02
    endloop
  endfacet
  facet normal 0.000000e+00 1.000000e+00 0.000000e+00
    outer loop
      vertex   -3.431982e+02 1.148078e+02 -2.502500e+02
      vertex   -3.331982e+02 1.148078e+02 -2.412500e+02
      vertex   -3.331471e+02 1.148078e+02 -2.416382e+02
    endloop
  endfacet
  facet normal 0.000000e+00 1.000000e+00 0.000000e+00
    outer loop
      vertex   -3.431982e+02 1.148078e+02 -2.502500e+02
      vertex   -3.331471e+02 1.148078e+02 -2.416382e+02
      vertex   -3.329973e+02 1.148078e+02 -2.420000e+02
    endloop
  endfacet
  facet normal 0.000000e+00 1.000000e+00 0.000000e+00
    outer loop
      vertex   -2.951982e+02 1.148078e+02 -2.322500e+02
      vertex   -3.070864e+02 1.148078e+02 -2.398011e+02
      vertex   -3.431982e+02 1.148078e+02 -2.322500e+02
    endloop
  endfacet
  facet normal 0.000000e+00 1.000000e+00 0.000000e+00
    outer loop
      vertex   -3.431982e+02 1.148078e+02 -2.322500e+02
      vertex   -3.070864e+02 1.148078e+02 -2.398011e+02
      vertex   -3.313100e+02 1.148078e+02 -2.398011e+02
    endloop
  endfacet
  facet normal 0.000000e+00 1.000000e+00 0.000000e+00
    outer loop
      vertex   -3.431982e+02 1.148078e+02 -2.322500e+02
      vertex   -3.313100e+02 1.148078e+02 -2.398011e+02
      vertex   -3.316982e+02 1.148078e+02 -2.397500e+02
    endloop
  endfacet
  facet normal 0.000000e+00 1.000000e+00 0.000000e+00
    outer loop
      vertex   -3.329973e+02 1.148078e+02 -2.420000e+02
      vertex   -3.327589e+02 1.148078e+02 -2.423107e+02
      vertex   -3.431982e+02 1.148078e+02 -2.502500e+02
    endloop
  endfacet
  facet normal 0.000000e+00 1.000000e+00 0.000000e+00
    outer loop
      vertex   -3.431982e+02 1.148078e+02 -2.502500e+02
      vertex   -3.327589e+02 1.148078e+02 -2.423107e+02
      vertex   -3.324482e+02 1.148078e+02 -2.425490e+02
    endloop
  endfacet
  facet normal 0.000000e+00 1.000000e+00 0.000000e+00
    outer loop
      vertex   -3.431982e+02 1.148078e+02 -2.502500e+02
      vertex   -3.324482e+02 1.148078e+02 -2.425490e+02
      vertex   -3.320864e+02 1.148078e+02 -2.426989e+02
    endloop
  endfacet
  facet normal 0.000000e+00 1.000000e+00 0.000000e+00
    outer loop
      vertex   -3.320864e+02 1.148078e+02 -2.426989e+02
      vertex   -3.316982e+02 1.148078e+02 -2.427500e+02
      vertex   -3.431982e+02 1.148078e+02 -2.502500e+02
    endloop
  endfacet
  facet normal 0.000000e+00 1.000000e+00 0.000000e+00
    outer loop
      vertex   -3.431982e+02 1.148078e+02 -2.502500e+02
      vertex   -3.316982e+02 1.148078e+02 -2.427500e+02
      vertex   -3.313100e+02 1.148078e+02 -2.426989e+02
    endloop
  endfacet
  facet normal 0.000000e+00 1.000000e+00 0.000000e+00
    outer loop
      vertex   -3.431982e+02 1.148078e+02 -2.502500e+02
      vertex   -3.313100e+02 1.148078e+02 -2.426989e+02
      vertex   -3.070864e+02 1.148078e+02 -2.426989e+02
    endloop
  endfacet
  facet normal 0.000000e+00 1.000000e+00 0.000000e+00
    outer loop
      vertex   -3.070864e+02 1.148078e+02 -2.426989e+02
      vertex   -3.313100e+02 1.148078e+02 -2.426989e+02
      vertex   -3.309482e+02 1.148078e+02 -2.425490e+02
    endloop
  endfacet
  facet normal 0.000000e+00 1.000000e+00 0.000000e+00
    outer loop
      vertex   -3.070864e+02 1.148078e+02 -2.426989e+02
      vertex   -3.309482e+02 1.148078e+02 -2.425490e+02
      vertex   -3.074482e+02 1.148078e+02 -2.425490e+02
    endloop
  endfacet
  facet normal 0.000000e+00 1.000000e+00 0.000000e+00
    outer loop
      vertex   -3.074482e+02 1.148078e+02 -2.425490e+02
      vertex   -3.309482e+02 1.148078e+02 -2.425490e+02
      vertex   -3.077589e+02 1.148078e+02 -2.423107e+02
    endloop
  endfacet
  facet normal 0.000000e+00 1.000000e+00 0.000000e+00
    outer loop
      vertex   -3.077589e+02 1.148078e+02 -2.423107e+02
      vertex   -3.309482e+02 1.148078e+02 -2.425490e+02
      vertex   -3.306376e+02 1.148078e+02 -2.423107e+02
    endloop
  endfacet
  facet normal 0.000000e+00 1.000000e+00 0.000000e+00
    outer loop
      vertex   -3.077589e+02 1.148078e+02 -2.423107e+02
      vertex   -3.306376e+02 1.148078e+02 -2.423107e+02
      vertex   -3.079973e+02 1.148078e+02 -2.420000e+02
    endloop
  endfacet
  facet normal 0.000000e+00 1.000000e+00 0.000000e+00
    outer loop
      vertex   -3.079973e+02 1.148078e+02 -2.420000e+02
      vertex   -3.306376e+02 1.148078e+02 -2.423107e+02
      vertex   -3.303992e+02 1.148078e+02 -2.420000e+02
    endloop
  endfacet
  facet normal 0.000000e+00 1.000000e+00 0.000000e+00
    outer loop
      vertex   -3.079973e+02 1.148078e+02 -2.420000e+02
      vertex   -3.303992e+02 1.148078e+02 -2.420000e+02
      vertex   -3.081471e+02 1.148078e+02 -2.416382e+02
    endloop
  endfacet
  facet normal 0.000000e+00 1.000000e+00 0.000000e+00
    outer loop
      vertex   -3.081471e+02 1.148078e+02 -2.416382e+02
      vertex   -3.303992e+02 1.148078e+02 -2.420000e+02
      vertex   -3.302493e+02 1.148078e+02 -2.416382e+02
    endloop
  endfacet
  facet normal 0.000000e+00 1.000000e+00 0.000000e+00
    outer loop
      vertex   -3.081471e+02 1.148078e+02 -2.416382e+02
      vertex   -3.302493e+02 1.148078e+02 -2.416382e+02
      vertex   -3.081982e+02 1.148078e+02 -2.412500e+02
    endloop
  endfacet
  facet normal 0.000000e+00 1.000000e+00 0.000000e+00
    outer loop
      vertex   -3.081982e+02 1.148078e+02 -2.412500e+02
      vertex   -3.302493e+02 1.148078e+02 -2.416382e+02
      vertex   -3.301982e+02 1.148078e+02 -2.412500e+02
    endloop
  endfacet
  facet normal 0.000000e+00 1.000000e+00 0.000000e+00
    outer loop
      vertex   -3.081982e+02 1.148078e+02 -2.412500e+02
      vertex   -3.301982e+02 1.148078e+02 -2.412500e+02
      vertex   -3.302493e+02 1.148078e+02 -2.408618e+02
    endloop
  endfacet
  facet normal 0.000000e+00 1.000000e+00 -0.000000e+00
    outer loop
      vertex   -3.081982e+02 1.148078e+02 -2.412500e+02
      vertex   -3.302493e+02 1.148078e+02 -2.408618e+02
      vertex   -3.081471e+02 1.148078e+02 -2.408618e+02
    endloop
  endfacet
  facet normal 0.000000e+00 1.000000e+00 0.000000e+00
    outer loop
      vertex   -3.081471e+02 1.148078e+02 -2.408618e+02
      vertex   -3.302493e+02 1.148078e+02 -2.408618e+02
      vertex   -3.303992e+02 1.148078e+02 -2.405000e+02
    endloop
  endfacet
  facet normal 0.000000e+00 1.000000e+00 -0.000000e+00
    outer loop
      vertex   -3.081471e+02 1.148078e+02 -2.408618e+02
      vertex   -3.303992e+02 1.148078e+02 -2.405000e+02
      vertex   -3.079973e+02 1.148078e+02 -2.405000e+02
    endloop
  endfacet
  facet normal 0.000000e+00 1.000000e+00 0.000000e+00
    outer loop
      vertex   -3.079973e+02 1.148078e+02 -2.405000e+02
      vertex   -3.303992e+02 1.148078e+02 -2.405000e+02
      vertex   -3.306376e+02 1.148078e+02 -2.401893e+02
    endloop
  endfacet
  facet normal 0.000000e+00 1.000000e+00 -0.000000e+00
    outer loop
      vertex   -3.079973e+02 1.148078e+02 -2.405000e+02
      vertex   -3.306376e+02 1.148078e+02 -2.401893e+02
      vertex   -3.077589e+02 1.148078e+02 -2.401893e+02
    endloop
  endfacet
  facet normal 0.000000e+00 1.000000e+00 0.000000e+00
    outer loop
      vertex   -3.077589e+02 1.148078e+02 -2.401893e+02
      vertex   -3.306376e+02 1.148078e+02 -2.401893e+02
      vertex   -3.309482e+02 1.148078e+02 -2.399510e+02
    endloop
  endfacet
  facet normal 0.000000e+00 1.000000e+00 -0.000000e+00
    outer loop
      vertex   -3.077589e+02 1.148078e+02 -2.401893e+02
      vertex   -3.309482e+02 1.148078e+02 -2.399510e+02
      vertex   -3.074482e+02 1.148078e+02 -2.399510e+02
    endloop
  endfacet
  facet normal 0.000000e+00 1.000000e+00 -0.000000e+00
    outer loop
      vertex   -3.074482e+02 1.148078e+02 -2.399510e+02
      vertex   -3.309482e+02 1.148078e+02 -2.399510e+02
      vertex   -3.070864e+02 1.148078e+02 -2.398011e+02
    endloop
  endfacet
  facet normal 0.000000e+00 1.000000e+00 0.000000e+00
    outer loop
      vertex   -3.070864e+02 1.148078e+02 -2.398011e+02
      vertex   -3.309482e+02 1.148078e+02 -2.399510e+02
      vertex   -3.313100e+02 1.148078e+02 -2.398011e+02
    endloop
  endfacet
  facet normal 0.000000e+00 1.000000e+00 0.000000e+00
    outer loop
      vertex   -3.316982e+02 1.148078e+02 -2.397500e+02
      vertex   -3.320864e+02 1.148078e+02 -2.398011e+02
      vertex   -3.431982e+02 1.148078e+02 -2.322500e+02
    endloop
  endfacet
  facet normal 0.000000e+00 1.000000e+00 0.000000e+00
    outer loop
      vertex   -3.431982e+02 1.148078e+02 -2.322500e+02
      vertex   -3.320864e+02 1.148078e+02 -2.398011e+02
      vertex   -3.324482e+02 1.148078e+02 -2.399510e+02
    endloop
  endfacet
  facet normal 0.000000e+00 1.000000e+00 0.000000e+00
    outer loop
      vertex   -3.431982e+02 1.148078e+02 -2.322500e+02
      vertex   -3.324482e+02 1.148078e+02 -2.399510e+02
      vertex   -3.327589e+02 1.148078e+02 -2.401893e+02
    endloop
  endfacet
  facet normal 0.000000e+00 1.000000e+00 0.000000e+00
    outer loop
      vertex   -3.327589e+02 1.148078e+02 -2.401893e+02
      vertex   -3.329973e+02 1.148078e+02 -2.405000e+02
      vertex   -3.431982e+02 1.148078e+02 -2.322500e+02
    endloop
  endfacet
  facet normal 0.000000e+00 1.000000e+00 0.000000e+00
    outer loop
      vertex   -3.431982e+02 1.148078e+02 -2.322500e+02
      vertex   -3.329973e+02 1.148078e+02 -2.405000e+02
      vertex   -3.331471e+02 1.148078e+02 -2.408618e+02
    endloop
  endfacet
  facet normal 0.000000e+00 1.000000e+00 0.000000e+00
    outer loop
      vertex   -3.431982e+02 1.148078e+02 -2.322500e+02
      vertex   -3.331471e+02 1.148078e+02 -2.408618e+02
      vertex   -3.331982e+02 1.148078e+02 -2.412500e+02
    endloop
  endfacet
  facet normal -0.000000e+00 1.000000e+00 0.000000e+00
    outer loop
      vertex   -3.063100e+02 1.148078e+02 -2.426989e+02
      vertex   -3.059482e+02 1.148078e+02 -2.425490e+02
      vertex   -2.951982e+02 1.148078e+02 -2.502500e+02
    endloop
  endfacet
  facet normal 0.000000e+00 1.000000e+00 0.000000e+00
    outer loop
      vertex   -2.951982e+02 1.148078e+02 -2.502500e+02
      vertex   -3.059482e+02 1.148078e+02 -2.425490e+02
      vertex   -3.056376e+02 1.148078e+02 -2.423107e+02
    endloop
  endfacet
  facet normal 0.000000e+00 1.000000e+00 0.000000e+00
    outer loop
      vertex   -2.951982e+02 1.148078e+02 -2.502500e+02
      vertex   -3.056376e+02 1.148078e+02 -2.423107e+02
      vertex   -3.053992e+02 1.148078e+02 -2.420000e+02
    endloop
  endfacet
  facet normal -0.000000e+00 1.000000e+00 0.000000e+00
    outer loop
      vertex   -3.053992e+02 1.148078e+02 -2.420000e+02
      vertex   -3.052493e+02 1.148078e+02 -2.416382e+02
      vertex   -2.951982e+02 1.148078e+02 -2.502500e+02
    endloop
  endfacet
  facet normal 0.000000e+00 1.000000e+00 0.000000e+00
    outer loop
      vertex   -2.951982e+02 1.148078e+02 -2.502500e+02
      vertex   -3.052493e+02 1.148078e+02 -2.416382e+02
      vertex   -3.051982e+02 1.148078e+02 -2.412500e+02
    endloop
  endfacet
  facet normal 0.000000e+00 1.000000e+00 -0.000000e+00
    outer loop
      vertex   -3.053992e+02 1.148078e+02 -2.405000e+02
      vertex   -3.056376e+02 1.148078e+02 -2.401893e+02
      vertex   -2.951982e+02 1.148078e+02 -2.322500e+02
    endloop
  endfacet
  facet normal 0.000000e+00 1.000000e+00 0.000000e+00
    outer loop
      vertex   -2.951982e+02 1.148078e+02 -2.322500e+02
      vertex   -3.056376e+02 1.148078e+02 -2.401893e+02
      vertex   -3.059482e+02 1.148078e+02 -2.399510e+02
    endloop
  endfacet
  facet normal 0.000000e+00 1.000000e+00 0.000000e+00
    outer loop
      vertex   -2.951982e+02 1.148078e+02 -2.322500e+02
      vertex   -3.059482e+02 1.148078e+02 -2.399510e+02
      vertex   -3.063100e+02 1.148078e+02 -2.398011e+02
    endloop
  endfacet
  facet normal 0.000000e+00 1.000000e+00 -0.000000e+00
    outer loop
      vertex   -3.063100e+02 1.148078e+02 -2.398011e+02
      vertex   -3.066982e+02 1.148078e+02 -2.397500e+02
      vertex   -2.951982e+02 1.148078e+02 -2.322500e+02
    endloop
  endfacet
  facet normal 0.000000e+00 1.000000e+00 0.000000e+00
    outer loop
      vertex   -2.951982e+02 1.148078e+02 -2.322500e+02
      vertex   -3.066982e+02 1.148078e+02 -2.397500e+02
      vertex   -3.070864e+02 1.148078e+02 -2.398011e+02
    endloop
  endfacet
endsolid
