solid ASCII
  facet normal 0.000000e+00 1.000000e+00 0.000000e+00
    outer loop
      vertex   -1.202982e+02 3.617072e+02 -2.150368e+02
      vertex   -1.202982e+02 3.617072e+02 -2.105368e+02
      vertex   -1.172982e+02 3.617072e+02 -2.150368e+02
    endloop
  endfacet
  facet normal 0.000000e+00 1.000000e+00 -0.000000e+00
    outer loop
      vertex   -1.172982e+02 3.617072e+02 -2.150368e+02
      vertex   -1.202982e+02 3.617072e+02 -2.105368e+02
      vertex   -1.172982e+02 3.617072e+02 -2.105368e+02
    endloop
  endfacet
  facet normal 0.000000e+00 -0.000000e+00 1.000000e+00
    outer loop
      vertex   -1.172982e+02 3.609072e+02 -2.105368e+02
      vertex   -1.172982e+02 3.617072e+02 -2.105368e+02
      vertex   -1.202982e+02 3.609072e+02 -2.105368e+02
    endloop
  endfacet
  facet normal 0.000000e+00 0.000000e+00 1.000000e+00
    outer loop
      vertex   -1.202982e+02 3.609072e+02 -2.105368e+02
      vertex   -1.172982e+02 3.617072e+02 -2.105368e+02
      vertex   -1.202982e+02 3.617072e+02 -2.105368e+02
    endloop
  endfacet
  facet normal 0.000000e+00 -1.000000e+00 0.000000e+00
    outer loop
      vertex   -1.172982e+02 3.609072e+02 -2.140368e+02
      vertex   -1.172982e+02 3.609072e+02 -2.105368e+02
      vertex   -1.202982e+02 3.609072e+02 -2.140368e+02
    endloop
  endfacet
  facet normal 0.000000e+00 -1.000000e+00 0.000000e+00
    outer loop
      vertex   -1.202982e+02 3.609072e+02 -2.140368e+02
      vertex   -1.172982e+02 3.609072e+02 -2.105368e+02
      vertex   -1.202982e+02 3.609072e+02 -2.105368e+02
    endloop
  endfacet
  facet normal -0.000000e+00 0.000000e+00 1.000000e+00
    outer loop
      vertex   -1.202982e+02 3.609072e+02 -2.140368e+02
      vertex   -1.202982e+02 3.574072e+02 -2.140368e+02
      vertex   -1.172982e+02 3.609072e+02 -2.140368e+02
    endloop
  endfacet
  facet normal 0.000000e+00 0.000000e+00 1.000000e+00
    outer loop
      vertex   -1.172982e+02 3.609072e+02 -2.140368e+02
      vertex   -1.202982e+02 3.574072e+02 -2.140368e+02
      vertex   -1.172982e+02 3.574072e+02 -2.140368e+02
    endloop
  endfacet
  facet normal -0.000000e+00 -0.000000e+00 -1.000000e+00
    outer loop
      vertex   -1.172982e+02 3.617072e+02 -2.150368e+02
      vertex   -1.172982e+02 3.574072e+02 -2.150368e+02
      vertex   -1.202982e+02 3.617072e+02 -2.150368e+02
    endloop
  endfacet
  facet normal 0.000000e+00 0.000000e+00 -1.000000e+00
    outer loop
      vertex   -1.202982e+02 3.617072e+02 -2.150368e+02
      vertex   -1.172982e+02 3.574072e+02 -2.150368e+02
      vertex   -1.202982e+02 3.574072e+02 -2.150368e+02
    endloop
  endfacet
  facet normal -1.000000e+00 0.000000e+00 0.000000e+00
    outer loop
      vertex   -1.202982e+02 3.574072e+02 -2.140368e+02
      vertex   -1.202982e+02 3.609072e+02 -2.140368e+02
      vertex   -1.202982e+02 3.574072e+02 -2.150368e+02
    endloop
  endfacet
  facet normal -1.000000e+00 0.000000e+00 0.000000e+00
    outer loop
      vertex   -1.202982e+02 3.574072e+02 -2.150368e+02
      vertex   -1.202982e+02 3.609072e+02 -2.140368e+02
      vertex   -1.202982e+02 3.617072e+02 -2.150368e+02
    endloop
  endfacet
  facet normal -1.000000e+00 0.000000e+00 0.000000e+00
    outer loop
      vertex   -1.202982e+02 3.617072e+02 -2.150368e+02
      vertex   -1.202982e+02 3.609072e+02 -2.140368e+02
      vertex   -1.202982e+02 3.617072e+02 -2.105368e+02
    endloop
  endfacet
  facet normal -1.000000e+00 -0.000000e+00 0.000000e+00
    outer loop
      vertex   -1.202982e+02 3.617072e+02 -2.105368e+02
      vertex   -1.202982e+02 3.609072e+02 -2.140368e+02
      vertex   -1.202982e+02 3.609072e+02 -2.105368e+02
    endloop
  endfacet
  facet normal 0.000000e+00 1.000000e+00 -0.000000e+00
    outer loop
      vertex   -1.172982e+02 3.574072e+02 -2.140368e+02
      vertex   -1.202982e+02 3.574072e+02 -2.140368e+02
      vertex   -1.172982e+02 3.574072e+02 -2.057368e+02
    endloop
  endfacet
  facet normal 0.000000e+00 1.000000e+00 0.000000e+00
    outer loop
      vertex   -1.172982e+02 3.574072e+02 -2.057368e+02
      vertex   -1.202982e+02 3.574072e+02 -2.140368e+02
      vertex   -1.212982e+02 3.574072e+02 -2.057368e+02
    endloop
  endfacet
  facet normal 0.000000e+00 1.000000e+00 0.000000e+00
    outer loop
      vertex   -1.212982e+02 3.574072e+02 -2.057368e+02
      vertex   -1.202982e+02 3.574072e+02 -2.140368e+02
      vertex   -1.202982e+02 3.574072e+02 -2.150368e+02
    endloop
  endfacet
  facet normal 0.000000e+00 1.000000e+00 0.000000e+00
    outer loop
      vertex   -1.212982e+02 3.574072e+02 -2.057368e+02
      vertex   -1.202982e+02 3.574072e+02 -2.150368e+02
      vertex   -1.272982e+02 3.574072e+02 -2.017368e+02
    endloop
  endfacet
  facet normal 0.000000e+00 1.000000e+00 0.000000e+00
    outer loop
      vertex   -1.272982e+02 3.574072e+02 -2.017368e+02
      vertex   -1.202982e+02 3.574072e+02 -2.150368e+02
      vertex   -1.272982e+02 3.574072e+02 -2.417368e+02
    endloop
  endfacet
  facet normal 0.000000e+00 1.000000e+00 0.000000e+00
    outer loop
      vertex   -1.272982e+02 3.574072e+02 -2.417368e+02
      vertex   -1.202982e+02 3.574072e+02 -2.150368e+02
      vertex   -1.212982e+02 3.574072e+02 -2.388957e+02
    endloop
  endfacet
  facet normal 0.000000e+00 1.000000e+00 0.000000e+00
    outer loop
      vertex   -1.272982e+02 3.574072e+02 -2.417368e+02
      vertex   -1.212982e+02 3.574072e+02 -2.388957e+02
      vertex   -1.212982e+02 3.574072e+02 -2.417368e+02
    endloop
  endfacet
  facet normal 0.000000e+00 1.000000e+00 0.000000e+00
    outer loop
      vertex   -1.172982e+02 3.574072e+02 -2.150368e+02
      vertex   -1.172982e+02 3.574072e+02 -2.388957e+02
      vertex   -1.202982e+02 3.574072e+02 -2.150368e+02
    endloop
  endfacet
  facet normal 0.000000e+00 1.000000e+00 0.000000e+00
    outer loop
      vertex   -1.202982e+02 3.574072e+02 -2.150368e+02
      vertex   -1.172982e+02 3.574072e+02 -2.388957e+02
      vertex   -1.212982e+02 3.574072e+02 -2.388957e+02
    endloop
  endfacet
  facet normal -0.000000e+00 1.000000e+00 0.000000e+00
    outer loop
      vertex   -1.272982e+02 3.574072e+02 -2.017368e+02
      vertex   -1.212982e+02 3.574072e+02 -2.017368e+02
      vertex   -1.212982e+02 3.574072e+02 -2.057368e+02
    endloop
  endfacet
  facet normal 0.000000e+00 -1.000000e+00 0.000000e+00
    outer loop
      vertex   -1.172982e+02 3.506078e+02 -2.500333e+02
      vertex   -1.172982e+02 3.506078e+02 -2.011368e+02
      vertex   -1.272982e+02 3.506078e+02 -2.500333e+02
    endloop
  endfacet
  facet normal 0.000000e+00 -1.000000e+00 0.000000e+00
    outer loop
      vertex   -1.272982e+02 3.506078e+02 -2.500333e+02
      vertex   -1.172982e+02 3.506078e+02 -2.011368e+02
      vertex   -1.272982e+02 3.506078e+02 -2.011368e+02
    endloop
  endfacet
  facet normal -0.000000e+00 0.000000e+00 1.000000e+00
    outer loop
      vertex   -1.212982e+02 3.588245e+02 -2.388957e+02
      vertex   -1.212982e+02 3.574072e+02 -2.388957e+02
      vertex   -1.172982e+02 3.588245e+02 -2.388957e+02
    endloop
  endfacet
  facet normal 0.000000e+00 0.000000e+00 1.000000e+00
    outer loop
      vertex   -1.172982e+02 3.588245e+02 -2.388957e+02
      vertex   -1.212982e+02 3.574072e+02 -2.388957e+02
      vertex   -1.172982e+02 3.574072e+02 -2.388957e+02
    endloop
  endfacet
  facet normal -1.000000e+00 -0.000000e+00 -0.000000e+00
    outer loop
      vertex   -1.212982e+02 3.588245e+02 -2.388957e+02
      vertex   -1.212982e+02 3.594254e+02 -2.401131e+02
      vertex   -1.212982e+02 3.574072e+02 -2.388957e+02
    endloop
  endfacet
  facet normal -1.000000e+00 0.000000e+00 0.000000e+00
    outer loop
      vertex   -1.212982e+02 3.574072e+02 -2.388957e+02
      vertex   -1.212982e+02 3.594254e+02 -2.401131e+02
      vertex   -1.212982e+02 3.574072e+02 -2.417368e+02
    endloop
  endfacet
  facet normal -1.000000e+00 0.000000e+00 0.000000e+00
    outer loop
      vertex   -1.212982e+02 3.574072e+02 -2.417368e+02
      vertex   -1.212982e+02 3.594254e+02 -2.401131e+02
      vertex   -1.212982e+02 3.601456e+02 -2.412641e+02
    endloop
  endfacet
  facet normal -1.000000e+00 0.000000e+00 -0.000000e+00
    outer loop
      vertex   -1.212982e+02 3.574072e+02 -2.417368e+02
      vertex   -1.212982e+02 3.601456e+02 -2.412641e+02
      vertex   -1.212982e+02 3.574070e+02 -2.423368e+02
    endloop
  endfacet
  facet normal -1.000000e+00 0.000000e+00 0.000000e+00
    outer loop
      vertex   -1.212982e+02 3.574070e+02 -2.423368e+02
      vertex   -1.212982e+02 3.601456e+02 -2.412641e+02
      vertex   -1.212982e+02 3.609777e+02 -2.423368e+02
    endloop
  endfacet
  facet normal -0.000000e+00 0.000000e+00 1.000000e+00
    outer loop
      vertex   -1.212982e+02 3.850235e+02 -2.388957e+02
      vertex   -1.212982e+02 3.836062e+02 -2.388957e+02
      vertex   -1.172982e+02 3.850235e+02 -2.388957e+02
    endloop
  endfacet
  facet normal 0.000000e+00 0.000000e+00 1.000000e+00
    outer loop
      vertex   -1.172982e+02 3.850235e+02 -2.388957e+02
      vertex   -1.212982e+02 3.836062e+02 -2.388957e+02
      vertex   -1.172982e+02 3.836062e+02 -2.388957e+02
    endloop
  endfacet
  facet normal -1.000000e+00 0.000000e+00 -0.000000e+00
    outer loop
      vertex   -1.212982e+02 3.836062e+02 -2.388957e+02
      vertex   -1.212982e+02 3.850235e+02 -2.388957e+02
      vertex   -1.212982e+02 3.830053e+02 -2.401131e+02
    endloop
  endfacet
  facet normal -1.000000e+00 0.000000e+00 0.000000e+00
    outer loop
      vertex   -1.212982e+02 3.830053e+02 -2.401131e+02
      vertex   -1.212982e+02 3.850235e+02 -2.388957e+02
      vertex   -1.212982e+02 3.850235e+02 -2.417368e+02
    endloop
  endfacet
  facet normal -1.000000e+00 0.000000e+00 -0.000000e+00
    outer loop
      vertex   -1.212982e+02 3.830053e+02 -2.401131e+02
      vertex   -1.212982e+02 3.850235e+02 -2.417368e+02
      vertex   -1.212982e+02 3.822851e+02 -2.412641e+02
    endloop
  endfacet
  facet normal -1.000000e+00 0.000000e+00 0.000000e+00
    outer loop
      vertex   -1.212982e+02 3.822851e+02 -2.412641e+02
      vertex   -1.212982e+02 3.850235e+02 -2.417368e+02
      vertex   -1.212982e+02 3.850207e+02 -2.423368e+02
    endloop
  endfacet
  facet normal -1.000000e+00 0.000000e+00 -0.000000e+00
    outer loop
      vertex   -1.212982e+02 3.822851e+02 -2.412641e+02
      vertex   -1.212982e+02 3.850207e+02 -2.423368e+02
      vertex   -1.212982e+02 3.814530e+02 -2.423368e+02
    endloop
  endfacet
  facet normal 0.000000e+00 -0.000000e+00 1.000000e+00
    outer loop
      vertex   -1.212982e+02 3.814530e+02 -2.423368e+02
      vertex   -1.212982e+02 3.850207e+02 -2.423368e+02
      vertex   -1.272982e+02 3.814530e+02 -2.423368e+02
    endloop
  endfacet
  facet normal 0.000000e+00 0.000000e+00 1.000000e+00
    outer loop
      vertex   -1.272982e+02 3.814530e+02 -2.423368e+02
      vertex   -1.212982e+02 3.850207e+02 -2.423368e+02
      vertex   -1.272982e+02 3.850207e+02 -2.423368e+02
    endloop
  endfacet
  facet normal 0.000000e+00 -9.999893e-01 4.617615e-03
    outer loop
      vertex   -1.212982e+02 3.850207e+02 -2.423368e+02
      vertex   -1.212982e+02 3.850235e+02 -2.417368e+02
      vertex   -1.272982e+02 3.850207e+02 -2.423368e+02
    endloop
  endfacet
  facet normal 0.000000e+00 -9.999893e-01 4.617615e-03
    outer loop
      vertex   -1.272982e+02 3.850207e+02 -2.423368e+02
      vertex   -1.212982e+02 3.850235e+02 -2.417368e+02
      vertex   -1.272982e+02 3.850235e+02 -2.417368e+02
    endloop
  endfacet
  facet normal -0.000000e+00 -0.000000e+00 -1.000000e+00
    outer loop
      vertex   -1.172982e+02 3.850235e+02 -2.057368e+02
      vertex   -1.172982e+02 3.574072e+02 -2.057368e+02
      vertex   -1.212982e+02 3.850235e+02 -2.057368e+02
    endloop
  endfacet
  facet normal 0.000000e+00 0.000000e+00 -1.000000e+00
    outer loop
      vertex   -1.212982e+02 3.850235e+02 -2.057368e+02
      vertex   -1.172982e+02 3.574072e+02 -2.057368e+02
      vertex   -1.212982e+02 3.574072e+02 -2.057368e+02
    endloop
  endfacet
  facet normal -1.000000e+00 0.000000e+00 0.000000e+00
    outer loop
      vertex   -1.212982e+02 3.574072e+02 -2.057368e+02
      vertex   -1.212982e+02 3.574072e+02 -2.017368e+02
      vertex   -1.212982e+02 3.850235e+02 -2.057368e+02
    endloop
  endfacet
  facet normal -1.000000e+00 0.000000e+00 0.000000e+00
    outer loop
      vertex   -1.212982e+02 3.850235e+02 -2.057368e+02
      vertex   -1.212982e+02 3.574072e+02 -2.017368e+02
      vertex   -1.212982e+02 3.850235e+02 -2.017368e+02
    endloop
  endfacet
  facet normal 0.000000e+00 -1.000000e+00 0.000000e+00
    outer loop
      vertex   -1.172982e+02 3.850235e+02 -2.388957e+02
      vertex   -1.172982e+02 3.850235e+02 -2.057368e+02
      vertex   -1.212982e+02 3.850235e+02 -2.388957e+02
    endloop
  endfacet
  facet normal 0.000000e+00 -1.000000e+00 0.000000e+00
    outer loop
      vertex   -1.212982e+02 3.850235e+02 -2.388957e+02
      vertex   -1.172982e+02 3.850235e+02 -2.057368e+02
      vertex   -1.212982e+02 3.850235e+02 -2.057368e+02
    endloop
  endfacet
  facet normal -0.000000e+00 -1.000000e+00 0.000000e+00
    outer loop
      vertex   -1.212982e+02 3.850235e+02 -2.388957e+02
      vertex   -1.212982e+02 3.850235e+02 -2.057368e+02
      vertex   -1.272982e+02 3.850235e+02 -2.417368e+02
    endloop
  endfacet
  facet normal 0.000000e+00 -1.000000e+00 0.000000e+00
    outer loop
      vertex   -1.272982e+02 3.850235e+02 -2.417368e+02
      vertex   -1.212982e+02 3.850235e+02 -2.057368e+02
      vertex   -1.272982e+02 3.850235e+02 -2.017368e+02
    endloop
  endfacet
  facet normal 0.000000e+00 -1.000000e+00 0.000000e+00
    outer loop
      vertex   -1.272982e+02 3.850235e+02 -2.017368e+02
      vertex   -1.212982e+02 3.850235e+02 -2.057368e+02
      vertex   -1.212982e+02 3.850235e+02 -2.017368e+02
    endloop
  endfacet
  facet normal 0.000000e+00 -1.000000e+00 0.000000e+00
    outer loop
      vertex   -1.272982e+02 3.850235e+02 -2.417368e+02
      vertex   -1.212982e+02 3.850235e+02 -2.417368e+02
      vertex   -1.212982e+02 3.850235e+02 -2.388957e+02
    endloop
  endfacet
  facet normal -0.000000e+00 -0.000000e+00 -1.000000e+00
    outer loop
      vertex   -1.212982e+02 3.850235e+02 -2.017368e+02
      vertex   -1.212982e+02 3.574072e+02 -2.017368e+02
      vertex   -1.272982e+02 3.850235e+02 -2.017368e+02
    endloop
  endfacet
  facet normal 0.000000e+00 0.000000e+00 -1.000000e+00
    outer loop
      vertex   -1.272982e+02 3.850235e+02 -2.017368e+02
      vertex   -1.212982e+02 3.574072e+02 -2.017368e+02
      vertex   -1.272982e+02 3.574072e+02 -2.017368e+02
    endloop
  endfacet
  facet normal -0.000000e+00 8.967184e-01 4.426016e-01
    outer loop
      vertex   -1.212982e+02 3.588245e+02 -2.388957e+02
      vertex   -1.172982e+02 3.588245e+02 -2.388957e+02
      vertex   -1.212982e+02 3.594254e+02 -2.401131e+02
    endloop
  endfacet
  facet normal -4.847973e-03 8.902946e-01 4.553593e-01
    outer loop
      vertex   -1.212982e+02 3.594254e+02 -2.401131e+02
      vertex   -1.172982e+02 3.588245e+02 -2.388957e+02
      vertex   -1.172982e+02 3.596181e+02 -2.404472e+02
    endloop
  endfacet
  facet normal 3.472150e-03 8.477234e-01 5.304272e-01
    outer loop
      vertex   -1.212982e+02 3.594254e+02 -2.401131e+02
      vertex   -1.172982e+02 3.596181e+02 -2.404472e+02
      vertex   -1.212982e+02 3.601456e+02 -2.412641e+02
    endloop
  endfacet
  facet normal -6.943467e-03 8.242075e-01 5.662453e-01
    outer loop
      vertex   -1.212982e+02 3.601456e+02 -2.412641e+02
      vertex   -1.172982e+02 3.596181e+02 -2.404472e+02
      vertex   -1.172982e+02 3.606049e+02 -2.418836e+02
    endloop
  endfacet
  facet normal 4.190745e-03 7.901578e-01 6.128892e-01
    outer loop
      vertex   -1.212982e+02 3.601456e+02 -2.412641e+02
      vertex   -1.172982e+02 3.606049e+02 -2.418836e+02
      vertex   -1.212982e+02 3.609777e+02 -2.423368e+02
    endloop
  endfacet
  facet normal -6.284979e-03 7.444003e-01 6.677041e-01
    outer loop
      vertex   -1.212982e+02 3.609777e+02 -2.423368e+02
      vertex   -1.172982e+02 3.606049e+02 -2.418836e+02
      vertex   -1.172982e+02 3.617685e+02 -2.431809e+02
    endloop
  endfacet
  facet normal 0.000000e+00 7.297258e-01 6.837399e-01
    outer loop
      vertex   -1.212982e+02 3.609777e+02 -2.423368e+02
      vertex   -1.172982e+02 3.617685e+02 -2.431809e+02
      vertex   -1.272982e+02 3.609777e+02 -2.423368e+02
    endloop
  endfacet
  facet normal 2.701842e-03 7.135523e-01 7.005968e-01
    outer loop
      vertex   -1.272982e+02 3.609777e+02 -2.423368e+02
      vertex   -1.172982e+02 3.617685e+02 -2.431809e+02
      vertex   -1.272982e+02 3.622292e+02 -2.436116e+02
    endloop
  endfacet
  facet normal -2.599496e-03 6.521955e-01 7.580463e-01
    outer loop
      vertex   -1.272982e+02 3.622292e+02 -2.436116e+02
      vertex   -1.172982e+02 3.617685e+02 -2.431809e+02
      vertex   -1.172982e+02 3.630896e+02 -2.443174e+02
    endloop
  endfacet
  facet normal 2.780184e-03 6.147979e-01 7.886798e-01
    outer loop
      vertex   -1.272982e+02 3.622292e+02 -2.436116e+02
      vertex   -1.172982e+02 3.630896e+02 -2.443174e+02
      vertex   -1.272982e+02 3.636382e+02 -2.447099e+02
    endloop
  endfacet
  facet normal -2.670717e-03 5.491105e-01 8.357455e-01
    outer loop
      vertex   -1.272982e+02 3.636382e+02 -2.447099e+02
      vertex   -1.172982e+02 3.630896e+02 -2.443174e+02
      vertex   -1.172982e+02 3.645460e+02 -2.452744e+02
    endloop
  endfacet
  facet normal 2.844283e-03 5.052777e-01 8.629521e-01
    outer loop
      vertex   -1.272982e+02 3.636382e+02 -2.447099e+02
      vertex   -1.172982e+02 3.645460e+02 -2.452744e+02
      vertex   -1.272982e+02 3.651798e+02 -2.456125e+02
    endloop
  endfacet
  facet normal -2.727694e-03 4.368752e-01 8.995180e-01
    outer loop
      vertex   -1.272982e+02 3.651798e+02 -2.456125e+02
      vertex   -1.172982e+02 3.645460e+02 -2.452744e+02
      vertex   -1.172982e+02 3.661136e+02 -2.460357e+02
    endloop
  endfacet
  facet normal 2.894138e-03 3.869096e-01 9.221131e-01
    outer loop
      vertex   -1.272982e+02 3.651798e+02 -2.456125e+02
      vertex   -1.172982e+02 3.661136e+02 -2.460357e+02
      vertex   -1.272982e+02 3.668271e+02 -2.463037e+02
    endloop
  endfacet
  facet normal -2.770428e-03 3.173599e-01 9.483011e-01
    outer loop
      vertex   -1.272982e+02 3.668271e+02 -2.463037e+02
      vertex   -1.172982e+02 3.661136e+02 -2.460357e+02
      vertex   -1.172982e+02 3.677662e+02 -2.465888e+02
    endloop
  endfacet
  facet normal 2.929750e-03 2.617663e-01 9.651268e-01
    outer loop
      vertex   -1.272982e+02 3.668271e+02 -2.463037e+02
      vertex   -1.172982e+02 3.677662e+02 -2.465888e+02
      vertex   -1.272982e+02 3.685513e+02 -2.467714e+02
    endloop
  endfacet
  facet normal -2.798917e-03 1.925563e-01 9.812819e-01
    outer loop
      vertex   -1.272982e+02 3.685513e+02 -2.467714e+02
      vertex   -1.172982e+02 3.677662e+02 -2.465888e+02
      vertex   -1.172982e+02 3.694763e+02 -2.469244e+02
    endloop
  endfacet
  facet normal 2.951117e-03 1.320392e-01 9.912401e-01
    outer loop
      vertex   -1.272982e+02 3.685513e+02 -2.467714e+02
      vertex   -1.172982e+02 3.694763e+02 -2.469244e+02
      vertex   -1.272982e+02 3.703221e+02 -2.470073e+02
    endloop
  endfacet
  facet normal -2.813161e-03 6.454394e-02 9.979109e-01
    outer loop
      vertex   -1.272982e+02 3.703221e+02 -2.470073e+02
      vertex   -1.172982e+02 3.694763e+02 -2.469244e+02
      vertex   -1.172982e+02 3.712153e+02 -2.470368e+02
    endloop
  endfacet
  facet normal 2.958239e-03 -0.000000e+00 9.999956e-01
    outer loop
      vertex   -1.272982e+02 3.703221e+02 -2.470073e+02
      vertex   -1.172982e+02 3.712153e+02 -2.470368e+02
      vertex   -1.272982e+02 3.721086e+02 -2.470073e+02
    endloop
  endfacet
  facet normal -2.813161e-03 -6.454394e-02 9.979109e-01
    outer loop
      vertex   -1.272982e+02 3.721086e+02 -2.470073e+02
      vertex   -1.172982e+02 3.712153e+02 -2.470368e+02
      vertex   -1.172982e+02 3.729544e+02 -2.469244e+02
    endloop
  endfacet
  facet normal 2.951117e-03 -1.320392e-01 9.912401e-01
    outer loop
      vertex   -1.272982e+02 3.721086e+02 -2.470073e+02
      vertex   -1.172982e+02 3.729544e+02 -2.469244e+02
      vertex   -1.272982e+02 3.738794e+02 -2.467714e+02
    endloop
  endfacet
  facet normal -2.798917e-03 -1.925563e-01 9.812819e-01
    outer loop
      vertex   -1.272982e+02 3.738794e+02 -2.467714e+02
      vertex   -1.172982e+02 3.729544e+02 -2.469244e+02
      vertex   -1.172982e+02 3.746645e+02 -2.465888e+02
    endloop
  endfacet
  facet normal 2.929750e-03 -2.617663e-01 9.651268e-01
    outer loop
      vertex   -1.272982e+02 3.738794e+02 -2.467714e+02
      vertex   -1.172982e+02 3.746645e+02 -2.465888e+02
      vertex   -1.272982e+02 3.756035e+02 -2.463037e+02
    endloop
  endfacet
  facet normal -2.770428e-03 -3.173599e-01 9.483011e-01
    outer loop
      vertex   -1.272982e+02 3.756035e+02 -2.463037e+02
      vertex   -1.172982e+02 3.746645e+02 -2.465888e+02
      vertex   -1.172982e+02 3.763171e+02 -2.460357e+02
    endloop
  endfacet
  facet normal 2.894138e-03 -3.869096e-01 9.221131e-01
    outer loop
      vertex   -1.272982e+02 3.756035e+02 -2.463037e+02
      vertex   -1.172982e+02 3.763171e+02 -2.460357e+02
      vertex   -1.272982e+02 3.772509e+02 -2.456125e+02
    endloop
  endfacet
  facet normal -2.727694e-03 -4.368752e-01 8.995180e-01
    outer loop
      vertex   -1.272982e+02 3.772509e+02 -2.456125e+02
      vertex   -1.172982e+02 3.763171e+02 -2.460357e+02
      vertex   -1.172982e+02 3.778847e+02 -2.452744e+02
    endloop
  endfacet
  facet normal 2.844283e-03 -5.052777e-01 8.629521e-01
    outer loop
      vertex   -1.272982e+02 3.772509e+02 -2.456125e+02
      vertex   -1.172982e+02 3.778847e+02 -2.452744e+02
      vertex   -1.272982e+02 3.787925e+02 -2.447099e+02
    endloop
  endfacet
  facet normal -2.670717e-03 -5.491105e-01 8.357455e-01
    outer loop
      vertex   -1.272982e+02 3.787925e+02 -2.447099e+02
      vertex   -1.172982e+02 3.778847e+02 -2.452744e+02
      vertex   -1.172982e+02 3.793411e+02 -2.443174e+02
    endloop
  endfacet
  facet normal 2.780184e-03 -6.147979e-01 7.886798e-01
    outer loop
      vertex   -1.272982e+02 3.787925e+02 -2.447099e+02
      vertex   -1.172982e+02 3.793411e+02 -2.443174e+02
      vertex   -1.272982e+02 3.802014e+02 -2.436116e+02
    endloop
  endfacet
  facet normal -2.599496e-03 -6.521955e-01 7.580463e-01
    outer loop
      vertex   -1.272982e+02 3.802014e+02 -2.436116e+02
      vertex   -1.172982e+02 3.793411e+02 -2.443174e+02
      vertex   -1.172982e+02 3.806622e+02 -2.431809e+02
    endloop
  endfacet
  facet normal 2.701842e-03 -7.135523e-01 7.005968e-01
    outer loop
      vertex   -1.272982e+02 3.802014e+02 -2.436116e+02
      vertex   -1.172982e+02 3.806622e+02 -2.431809e+02
      vertex   -1.272982e+02 3.814530e+02 -2.423368e+02
    endloop
  endfacet
  facet normal 0.000000e+00 -7.297258e-01 6.837399e-01
    outer loop
      vertex   -1.272982e+02 3.814530e+02 -2.423368e+02
      vertex   -1.172982e+02 3.806622e+02 -2.431809e+02
      vertex   -1.212982e+02 3.814530e+02 -2.423368e+02
    endloop
  endfacet
  facet normal -6.284979e-03 -7.444003e-01 6.677041e-01
    outer loop
      vertex   -1.212982e+02 3.814530e+02 -2.423368e+02
      vertex   -1.172982e+02 3.806622e+02 -2.431809e+02
      vertex   -1.172982e+02 3.818258e+02 -2.418836e+02
    endloop
  endfacet
  facet normal 4.190745e-03 -7.901578e-01 6.128892e-01
    outer loop
      vertex   -1.212982e+02 3.814530e+02 -2.423368e+02
      vertex   -1.172982e+02 3.818258e+02 -2.418836e+02
      vertex   -1.212982e+02 3.822851e+02 -2.412641e+02
    endloop
  endfacet
  facet normal -6.943467e-03 -8.242075e-01 5.662453e-01
    outer loop
      vertex   -1.212982e+02 3.822851e+02 -2.412641e+02
      vertex   -1.172982e+02 3.818258e+02 -2.418836e+02
      vertex   -1.172982e+02 3.828126e+02 -2.404472e+02
    endloop
  endfacet
  facet normal 3.472150e-03 -8.477234e-01 5.304272e-01
    outer loop
      vertex   -1.212982e+02 3.822851e+02 -2.412641e+02
      vertex   -1.172982e+02 3.828126e+02 -2.404472e+02
      vertex   -1.212982e+02 3.830053e+02 -2.401131e+02
    endloop
  endfacet
  facet normal -4.847973e-03 -8.902946e-01 4.553593e-01
    outer loop
      vertex   -1.212982e+02 3.830053e+02 -2.401131e+02
      vertex   -1.172982e+02 3.828126e+02 -2.404472e+02
      vertex   -1.172982e+02 3.836062e+02 -2.388957e+02
    endloop
  endfacet
  facet normal 0.000000e+00 -8.967184e-01 4.426016e-01
    outer loop
      vertex   -1.212982e+02 3.830053e+02 -2.401131e+02
      vertex   -1.172982e+02 3.836062e+02 -2.388957e+02
      vertex   -1.212982e+02 3.836062e+02 -2.388957e+02
    endloop
  endfacet
  facet normal 0.000000e+00 -0.000000e+00 1.000000e+00
    outer loop
      vertex   -1.212982e+02 3.574070e+02 -2.423368e+02
      vertex   -1.212982e+02 3.609777e+02 -2.423368e+02
      vertex   -1.272982e+02 3.574070e+02 -2.423368e+02
    endloop
  endfacet
  facet normal 0.000000e+00 0.000000e+00 1.000000e+00
    outer loop
      vertex   -1.272982e+02 3.574070e+02 -2.423368e+02
      vertex   -1.212982e+02 3.609777e+02 -2.423368e+02
      vertex   -1.272982e+02 3.609777e+02 -2.423368e+02
    endloop
  endfacet
  facet normal 0.000000e+00 1.000000e+00 -3.112216e-04
    outer loop
      vertex   -1.212982e+02 3.574072e+02 -2.417368e+02
      vertex   -1.212982e+02 3.574070e+02 -2.423368e+02
      vertex   -1.272982e+02 3.574072e+02 -2.417368e+02
    endloop
  endfacet
  facet normal 0.000000e+00 1.000000e+00 -3.112216e-04
    outer loop
      vertex   -1.272982e+02 3.574072e+02 -2.417368e+02
      vertex   -1.212982e+02 3.574070e+02 -2.423368e+02
      vertex   -1.272982e+02 3.574070e+02 -2.423368e+02
    endloop
  endfacet
  facet normal 0.000000e+00 -0.000000e+00 1.000000e+00
    outer loop
      vertex   -1.172982e+02 3.506078e+02 -2.011368e+02
      vertex   -1.172982e+02 3.856235e+02 -2.011368e+02
      vertex   -1.272982e+02 3.506078e+02 -2.011368e+02
    endloop
  endfacet
  facet normal 0.000000e+00 0.000000e+00 1.000000e+00
    outer loop
      vertex   -1.272982e+02 3.506078e+02 -2.011368e+02
      vertex   -1.172982e+02 3.856235e+02 -2.011368e+02
      vertex   -1.272982e+02 3.856235e+02 -2.011368e+02
    endloop
  endfacet
  facet normal -0.000000e+00 -0.000000e+00 -1.000000e+00
    outer loop
      vertex   -1.172982e+02 3.856235e+02 -2.500333e+02
      vertex   -1.172982e+02 3.506078e+02 -2.500333e+02
      vertex   -1.272982e+02 3.856235e+02 -2.500333e+02
    endloop
  endfacet
  facet normal 0.000000e+00 0.000000e+00 -1.000000e+00
    outer loop
      vertex   -1.272982e+02 3.856235e+02 -2.500333e+02
      vertex   -1.172982e+02 3.506078e+02 -2.500333e+02
      vertex   -1.272982e+02 3.506078e+02 -2.500333e+02
    endloop
  endfacet
  facet normal 0.000000e+00 1.000000e+00 0.000000e+00
    outer loop
      vertex   -1.172982e+02 3.856235e+02 -2.011368e+02
      vertex   -1.172982e+02 3.856235e+02 -2.500333e+02
      vertex   -1.272982e+02 3.856235e+02 -2.011368e+02
    endloop
  endfacet
  facet normal 0.000000e+00 1.000000e+00 0.000000e+00
    outer loop
      vertex   -1.272982e+02 3.856235e+02 -2.011368e+02
      vertex   -1.172982e+02 3.856235e+02 -2.500333e+02
      vertex   -1.272982e+02 3.856235e+02 -2.500333e+02
    endloop
  endfacet
  facet normal -1.000000e+00 0.000000e+00 0.000000e+00
    outer loop
      vertex   -1.272982e+02 3.856235e+02 -2.500333e+02
      vertex   -1.272982e+02 3.850235e+02 -2.417368e+02
      vertex   -1.272982e+02 3.856235e+02 -2.011368e+02
    endloop
  endfacet
  facet normal -1.000000e+00 0.000000e+00 0.000000e+00
    outer loop
      vertex   -1.272982e+02 3.856235e+02 -2.011368e+02
      vertex   -1.272982e+02 3.850235e+02 -2.417368e+02
      vertex   -1.272982e+02 3.850235e+02 -2.017368e+02
    endloop
  endfacet
  facet normal -1.000000e+00 0.000000e+00 0.000000e+00
    outer loop
      vertex   -1.272982e+02 3.856235e+02 -2.011368e+02
      vertex   -1.272982e+02 3.850235e+02 -2.017368e+02
      vertex   -1.272982e+02 3.574072e+02 -2.017368e+02
    endloop
  endfacet
  facet normal -1.000000e+00 0.000000e+00 0.000000e+00
    outer loop
      vertex   -1.272982e+02 3.506078e+02 -2.500333e+02
      vertex   -1.272982e+02 3.703221e+02 -2.470073e+02
      vertex   -1.272982e+02 3.856235e+02 -2.500333e+02
    endloop
  endfacet
  facet normal -1.000000e+00 0.000000e+00 0.000000e+00
    outer loop
      vertex   -1.272982e+02 3.856235e+02 -2.500333e+02
      vertex   -1.272982e+02 3.703221e+02 -2.470073e+02
      vertex   -1.272982e+02 3.721086e+02 -2.470073e+02
    endloop
  endfacet
  facet normal -1.000000e+00 0.000000e+00 0.000000e+00
    outer loop
      vertex   -1.272982e+02 3.856235e+02 -2.500333e+02
      vertex   -1.272982e+02 3.721086e+02 -2.470073e+02
      vertex   -1.272982e+02 3.738794e+02 -2.467714e+02
    endloop
  endfacet
  facet normal -1.000000e+00 0.000000e+00 0.000000e+00
    outer loop
      vertex   -1.272982e+02 3.506078e+02 -2.011368e+02
      vertex   -1.272982e+02 3.574072e+02 -2.417368e+02
      vertex   -1.272982e+02 3.506078e+02 -2.500333e+02
    endloop
  endfacet
  facet normal -1.000000e+00 0.000000e+00 0.000000e+00
    outer loop
      vertex   -1.272982e+02 3.506078e+02 -2.500333e+02
      vertex   -1.272982e+02 3.574072e+02 -2.417368e+02
      vertex   -1.272982e+02 3.574070e+02 -2.423368e+02
    endloop
  endfacet
  facet normal -1.000000e+00 0.000000e+00 0.000000e+00
    outer loop
      vertex   -1.272982e+02 3.506078e+02 -2.500333e+02
      vertex   -1.272982e+02 3.574070e+02 -2.423368e+02
      vertex   -1.272982e+02 3.622292e+02 -2.436116e+02
    endloop
  endfacet
  facet normal -1.000000e+00 0.000000e+00 0.000000e+00
    outer loop
      vertex   -1.272982e+02 3.622292e+02 -2.436116e+02
      vertex   -1.272982e+02 3.574070e+02 -2.423368e+02
      vertex   -1.272982e+02 3.609777e+02 -2.423368e+02
    endloop
  endfacet
  facet normal -1.000000e+00 0.000000e+00 0.000000e+00
    outer loop
      vertex   -1.272982e+02 3.574072e+02 -2.417368e+02
      vertex   -1.272982e+02 3.506078e+02 -2.011368e+02
      vertex   -1.272982e+02 3.574072e+02 -2.017368e+02
    endloop
  endfacet
  facet normal -1.000000e+00 0.000000e+00 0.000000e+00
    outer loop
      vertex   -1.272982e+02 3.574072e+02 -2.017368e+02
      vertex   -1.272982e+02 3.506078e+02 -2.011368e+02
      vertex   -1.272982e+02 3.856235e+02 -2.011368e+02
    endloop
  endfacet
  facet normal -1.000000e+00 0.000000e+00 0.000000e+00
    outer loop
      vertex   -1.272982e+02 3.814530e+02 -2.423368e+02
      vertex   -1.272982e+02 3.850207e+02 -2.423368e+02
      vertex   -1.272982e+02 3.856235e+02 -2.500333e+02
    endloop
  endfacet
  facet normal -1.000000e+00 0.000000e+00 0.000000e+00
    outer loop
      vertex   -1.272982e+02 3.856235e+02 -2.500333e+02
      vertex   -1.272982e+02 3.850207e+02 -2.423368e+02
      vertex   -1.272982e+02 3.850235e+02 -2.417368e+02
    endloop
  endfacet
  facet normal -1.000000e+00 0.000000e+00 -0.000000e+00
    outer loop
      vertex   -1.272982e+02 3.622292e+02 -2.436116e+02
      vertex   -1.272982e+02 3.636382e+02 -2.447099e+02
      vertex   -1.272982e+02 3.506078e+02 -2.500333e+02
    endloop
  endfacet
  facet normal -1.000000e+00 0.000000e+00 0.000000e+00
    outer loop
      vertex   -1.272982e+02 3.506078e+02 -2.500333e+02
      vertex   -1.272982e+02 3.636382e+02 -2.447099e+02
      vertex   -1.272982e+02 3.651798e+02 -2.456125e+02
    endloop
  endfacet
  facet normal -1.000000e+00 0.000000e+00 0.000000e+00
    outer loop
      vertex   -1.272982e+02 3.506078e+02 -2.500333e+02
      vertex   -1.272982e+02 3.651798e+02 -2.456125e+02
      vertex   -1.272982e+02 3.668271e+02 -2.463037e+02
    endloop
  endfacet
  facet normal -1.000000e+00 0.000000e+00 -0.000000e+00
    outer loop
      vertex   -1.272982e+02 3.668271e+02 -2.463037e+02
      vertex   -1.272982e+02 3.685513e+02 -2.467714e+02
      vertex   -1.272982e+02 3.506078e+02 -2.500333e+02
    endloop
  endfacet
  facet normal -1.000000e+00 0.000000e+00 0.000000e+00
    outer loop
      vertex   -1.272982e+02 3.506078e+02 -2.500333e+02
      vertex   -1.272982e+02 3.685513e+02 -2.467714e+02
      vertex   -1.272982e+02 3.703221e+02 -2.470073e+02
    endloop
  endfacet
  facet normal -1.000000e+00 0.000000e+00 0.000000e+00
    outer loop
      vertex   -1.272982e+02 3.738794e+02 -2.467714e+02
      vertex   -1.272982e+02 3.756035e+02 -2.463037e+02
      vertex   -1.272982e+02 3.856235e+02 -2.500333e+02
    endloop
  endfacet
  facet normal -1.000000e+00 0.000000e+00 0.000000e+00
    outer loop
      vertex   -1.272982e+02 3.856235e+02 -2.500333e+02
      vertex   -1.272982e+02 3.756035e+02 -2.463037e+02
      vertex   -1.272982e+02 3.772509e+02 -2.456125e+02
    endloop
  endfacet
  facet normal -1.000000e+00 0.000000e+00 0.000000e+00
    outer loop
      vertex   -1.272982e+02 3.856235e+02 -2.500333e+02
      vertex   -1.272982e+02 3.772509e+02 -2.456125e+02
      vertex   -1.272982e+02 3.787925e+02 -2.447099e+02
    endloop
  endfacet
  facet normal -1.000000e+00 0.000000e+00 0.000000e+00
    outer loop
      vertex   -1.272982e+02 3.787925e+02 -2.447099e+02
      vertex   -1.272982e+02 3.802014e+02 -2.436116e+02
      vertex   -1.272982e+02 3.856235e+02 -2.500333e+02
    endloop
  endfacet
  facet normal -1.000000e+00 0.000000e+00 0.000000e+00
    outer loop
      vertex   -1.272982e+02 3.856235e+02 -2.500333e+02
      vertex   -1.272982e+02 3.802014e+02 -2.436116e+02
      vertex   -1.272982e+02 3.814530e+02 -2.423368e+02
    endloop
  endfacet
  facet normal 1.000000e+00 0.000000e+00 0.000000e+00
    outer loop
      vertex   -1.172982e+02 3.856235e+02 -2.011368e+02
      vertex   -1.172982e+02 3.850235e+02 -2.388957e+02
      vertex   -1.172982e+02 3.856235e+02 -2.500333e+02
    endloop
  endfacet
  facet normal 1.000000e+00 0.000000e+00 0.000000e+00
    outer loop
      vertex   -1.172982e+02 3.856235e+02 -2.500333e+02
      vertex   -1.172982e+02 3.850235e+02 -2.388957e+02
      vertex   -1.172982e+02 3.828126e+02 -2.404472e+02
    endloop
  endfacet
  facet normal 1.000000e+00 0.000000e+00 0.000000e+00
    outer loop
      vertex   -1.172982e+02 3.856235e+02 -2.500333e+02
      vertex   -1.172982e+02 3.828126e+02 -2.404472e+02
      vertex   -1.172982e+02 3.818258e+02 -2.418836e+02
    endloop
  endfacet
  facet normal 1.000000e+00 -0.000000e+00 0.000000e+00
    outer loop
      vertex   -1.172982e+02 3.506078e+02 -2.011368e+02
      vertex   -1.172982e+02 3.574072e+02 -2.057368e+02
      vertex   -1.172982e+02 3.856235e+02 -2.011368e+02
    endloop
  endfacet
  facet normal 1.000000e+00 0.000000e+00 0.000000e+00
    outer loop
      vertex   -1.172982e+02 3.856235e+02 -2.011368e+02
      vertex   -1.172982e+02 3.574072e+02 -2.057368e+02
      vertex   -1.172982e+02 3.850235e+02 -2.057368e+02
    endloop
  endfacet
  facet normal 1.000000e+00 0.000000e+00 0.000000e+00
    outer loop
      vertex   -1.172982e+02 3.856235e+02 -2.011368e+02
      vertex   -1.172982e+02 3.850235e+02 -2.057368e+02
      vertex   -1.172982e+02 3.850235e+02 -2.388957e+02
    endloop
  endfacet
  facet normal 1.000000e+00 0.000000e+00 0.000000e+00
    outer loop
      vertex   -1.172982e+02 3.506078e+02 -2.500333e+02
      vertex   -1.172982e+02 3.574072e+02 -2.150368e+02
      vertex   -1.172982e+02 3.506078e+02 -2.011368e+02
    endloop
  endfacet
  facet normal 1.000000e+00 0.000000e+00 0.000000e+00
    outer loop
      vertex   -1.172982e+02 3.506078e+02 -2.011368e+02
      vertex   -1.172982e+02 3.574072e+02 -2.150368e+02
      vertex   -1.172982e+02 3.574072e+02 -2.140368e+02
    endloop
  endfacet
  facet normal 1.000000e+00 0.000000e+00 0.000000e+00
    outer loop
      vertex   -1.172982e+02 3.506078e+02 -2.011368e+02
      vertex   -1.172982e+02 3.574072e+02 -2.140368e+02
      vertex   -1.172982e+02 3.574072e+02 -2.057368e+02
    endloop
  endfacet
  facet normal 1.000000e+00 0.000000e+00 0.000000e+00
    outer loop
      vertex   -1.172982e+02 3.856235e+02 -2.500333e+02
      vertex   -1.172982e+02 3.712153e+02 -2.470368e+02
      vertex   -1.172982e+02 3.506078e+02 -2.500333e+02
    endloop
  endfacet
  facet normal 1.000000e+00 0.000000e+00 0.000000e+00
    outer loop
      vertex   -1.172982e+02 3.506078e+02 -2.500333e+02
      vertex   -1.172982e+02 3.712153e+02 -2.470368e+02
      vertex   -1.172982e+02 3.694763e+02 -2.469244e+02
    endloop
  endfacet
  facet normal 1.000000e+00 0.000000e+00 0.000000e+00
    outer loop
      vertex   -1.172982e+02 3.506078e+02 -2.500333e+02
      vertex   -1.172982e+02 3.694763e+02 -2.469244e+02
      vertex   -1.172982e+02 3.677662e+02 -2.465888e+02
    endloop
  endfacet
  facet normal 1.000000e+00 -0.000000e+00 0.000000e+00
    outer loop
      vertex   -1.172982e+02 3.836062e+02 -2.388957e+02
      vertex   -1.172982e+02 3.828126e+02 -2.404472e+02
      vertex   -1.172982e+02 3.850235e+02 -2.388957e+02
    endloop
  endfacet
  facet normal 1.000000e+00 0.000000e+00 0.000000e+00
    outer loop
      vertex   -1.172982e+02 3.818258e+02 -2.418836e+02
      vertex   -1.172982e+02 3.806622e+02 -2.431809e+02
      vertex   -1.172982e+02 3.856235e+02 -2.500333e+02
    endloop
  endfacet
  facet normal 1.000000e+00 0.000000e+00 0.000000e+00
    outer loop
      vertex   -1.172982e+02 3.856235e+02 -2.500333e+02
      vertex   -1.172982e+02 3.806622e+02 -2.431809e+02
      vertex   -1.172982e+02 3.793411e+02 -2.443174e+02
    endloop
  endfacet
  facet normal 1.000000e+00 0.000000e+00 0.000000e+00
    outer loop
      vertex   -1.172982e+02 3.856235e+02 -2.500333e+02
      vertex   -1.172982e+02 3.793411e+02 -2.443174e+02
      vertex   -1.172982e+02 3.778847e+02 -2.452744e+02
    endloop
  endfacet
  facet normal 1.000000e+00 0.000000e+00 0.000000e+00
    outer loop
      vertex   -1.172982e+02 3.778847e+02 -2.452744e+02
      vertex   -1.172982e+02 3.763171e+02 -2.460357e+02
      vertex   -1.172982e+02 3.856235e+02 -2.500333e+02
    endloop
  endfacet
  facet normal 1.000000e+00 0.000000e+00 0.000000e+00
    outer loop
      vertex   -1.172982e+02 3.856235e+02 -2.500333e+02
      vertex   -1.172982e+02 3.763171e+02 -2.460357e+02
      vertex   -1.172982e+02 3.746645e+02 -2.465888e+02
    endloop
  endfacet
  facet normal 1.000000e+00 0.000000e+00 0.000000e+00
    outer loop
      vertex   -1.172982e+02 3.856235e+02 -2.500333e+02
      vertex   -1.172982e+02 3.746645e+02 -2.465888e+02
      vertex   -1.172982e+02 3.729544e+02 -2.469244e+02
    endloop
  endfacet
  facet normal 1.000000e+00 0.000000e+00 0.000000e+00
    outer loop
      vertex   -1.172982e+02 3.729544e+02 -2.469244e+02
      vertex   -1.172982e+02 3.712153e+02 -2.470368e+02
      vertex   -1.172982e+02 3.856235e+02 -2.500333e+02
    endloop
  endfacet
  facet normal 1.000000e+00 0.000000e+00 0.000000e+00
    outer loop
      vertex   -1.172982e+02 3.677662e+02 -2.465888e+02
      vertex   -1.172982e+02 3.661136e+02 -2.460357e+02
      vertex   -1.172982e+02 3.506078e+02 -2.500333e+02
    endloop
  endfacet
  facet normal 1.000000e+00 0.000000e+00 0.000000e+00
    outer loop
      vertex   -1.172982e+02 3.506078e+02 -2.500333e+02
      vertex   -1.172982e+02 3.661136e+02 -2.460357e+02
      vertex   -1.172982e+02 3.645460e+02 -2.452744e+02
    endloop
  endfacet
  facet normal 1.000000e+00 0.000000e+00 0.000000e+00
    outer loop
      vertex   -1.172982e+02 3.506078e+02 -2.500333e+02
      vertex   -1.172982e+02 3.645460e+02 -2.452744e+02
      vertex   -1.172982e+02 3.630896e+02 -2.443174e+02
    endloop
  endfacet
  facet normal 1.000000e+00 0.000000e+00 0.000000e+00
    outer loop
      vertex   -1.172982e+02 3.630896e+02 -2.443174e+02
      vertex   -1.172982e+02 3.617685e+02 -2.431809e+02
      vertex   -1.172982e+02 3.506078e+02 -2.500333e+02
    endloop
  endfacet
  facet normal 1.000000e+00 0.000000e+00 0.000000e+00
    outer loop
      vertex   -1.172982e+02 3.506078e+02 -2.500333e+02
      vertex   -1.172982e+02 3.617685e+02 -2.431809e+02
      vertex   -1.172982e+02 3.606049e+02 -2.418836e+02
    endloop
  endfacet
  facet normal 1.000000e+00 0.000000e+00 0.000000e+00
    outer loop
      vertex   -1.172982e+02 3.506078e+02 -2.500333e+02
      vertex   -1.172982e+02 3.606049e+02 -2.418836e+02
      vertex   -1.172982e+02 3.596181e+02 -2.404472e+02
    endloop
  endfacet
  facet normal 1.000000e+00 0.000000e+00 0.000000e+00
    outer loop
      vertex   -1.172982e+02 3.588245e+02 -2.388957e+02
      vertex   -1.172982e+02 3.574072e+02 -2.388957e+02
      vertex   -1.172982e+02 3.596181e+02 -2.404472e+02
    endloop
  endfacet
  facet normal 1.000000e+00 0.000000e+00 0.000000e+00
    outer loop
      vertex   -1.172982e+02 3.596181e+02 -2.404472e+02
      vertex   -1.172982e+02 3.574072e+02 -2.388957e+02
      vertex   -1.172982e+02 3.506078e+02 -2.500333e+02
    endloop
  endfacet
  facet normal 1.000000e+00 0.000000e+00 -0.000000e+00
    outer loop
      vertex   -1.172982e+02 3.574072e+02 -2.388957e+02
      vertex   -1.172982e+02 3.574072e+02 -2.150368e+02
      vertex   -1.172982e+02 3.506078e+02 -2.500333e+02
    endloop
  endfacet
  facet normal 1.000000e+00 -0.000000e+00 0.000000e+00
    outer loop
      vertex   -1.172982e+02 3.574072e+02 -2.140368e+02
      vertex   -1.172982e+02 3.574072e+02 -2.150368e+02
      vertex   -1.172982e+02 3.609072e+02 -2.140368e+02
    endloop
  endfacet
  facet normal 1.000000e+00 0.000000e+00 0.000000e+00
    outer loop
      vertex   -1.172982e+02 3.609072e+02 -2.140368e+02
      vertex   -1.172982e+02 3.574072e+02 -2.150368e+02
      vertex   -1.172982e+02 3.617072e+02 -2.150368e+02
    endloop
  endfacet
  facet normal 1.000000e+00 -0.000000e+00 0.000000e+00
    outer loop
      vertex   -1.172982e+02 3.609072e+02 -2.140368e+02
      vertex   -1.172982e+02 3.617072e+02 -2.150368e+02
      vertex   -1.172982e+02 3.617072e+02 -2.105368e+02
    endloop
  endfacet
  facet normal 1.000000e+00 0.000000e+00 0.000000e+00
    outer loop
      vertex   -1.172982e+02 3.617072e+02 -2.105368e+02
      vertex   -1.172982e+02 3.609072e+02 -2.105368e+02
      vertex   -1.172982e+02 3.609072e+02 -2.140368e+02
    endloop
  endfacet
endsolid
