solid ASCII
  facet normal 7.071068e-01 0.000000e+00 7.071068e-01
    outer loop
      vertex   -1.037668e+02 3.854078e+02 -1.750173e+02
      vertex   -1.143734e+02 3.854078e+02 -1.644107e+02
      vertex   -1.037668e+02 3.814078e+02 -1.750173e+02
    endloop
  endfacet
  facet normal 7.071068e-01 0.000000e+00 7.071068e-01
    outer loop
      vertex   -1.037668e+02 3.814078e+02 -1.750173e+02
      vertex   -1.143734e+02 3.854078e+02 -1.644107e+02
      vertex   -1.143734e+02 3.814078e+02 -1.644107e+02
    endloop
  endfacet
  facet normal -7.071068e-01 0.000000e+00 7.071068e-01
    outer loop
      vertex   -1.157876e+02 3.874078e+02 -1.658249e+02
      vertex   -1.157876e+02 3.814078e+02 -1.658249e+02
      vertex   -1.143734e+02 3.854078e+02 -1.644107e+02
    endloop
  endfacet
  facet normal -7.071068e-01 0.000000e+00 7.071068e-01
    outer loop
      vertex   -1.143734e+02 3.854078e+02 -1.644107e+02
      vertex   -1.157876e+02 3.814078e+02 -1.658249e+02
      vertex   -1.143734e+02 3.814078e+02 -1.644107e+02
    endloop
  endfacet
  facet normal 7.071068e-01 0.000000e+00 -7.071068e-01
    outer loop
      vertex   -1.051810e+02 3.874078e+02 -1.764315e+02
      vertex   -1.037668e+02 3.854078e+02 -1.750173e+02
      vertex   -1.051810e+02 3.814078e+02 -1.764315e+02
    endloop
  endfacet
  facet normal 7.071068e-01 0.000000e+00 -7.071068e-01
    outer loop
      vertex   -1.051810e+02 3.814078e+02 -1.764315e+02
      vertex   -1.037668e+02 3.854078e+02 -1.750173e+02
      vertex   -1.037668e+02 3.814078e+02 -1.750173e+02
    endloop
  endfacet
  facet normal -7.071068e-01 -0.000000e+00 -7.071068e-01
    outer loop
      vertex   -1.157876e+02 3.874078e+02 -1.658249e+02
      vertex   -1.051810e+02 3.874078e+02 -1.764315e+02
      vertex   -1.157876e+02 3.814078e+02 -1.658249e+02
    endloop
  endfacet
  facet normal -7.071068e-01 0.000000e+00 -7.071068e-01
    outer loop
      vertex   -1.157876e+02 3.814078e+02 -1.658249e+02
      vertex   -1.051810e+02 3.874078e+02 -1.764315e+02
      vertex   -1.051810e+02 3.814078e+02 -1.764315e+02
    endloop
  endfacet
  facet normal 0.000000e+00 -1.000000e+00 0.000000e+00
    outer loop
      vertex   -1.051810e+02 3.814078e+02 -1.764315e+02
      vertex   -1.037668e+02 3.814078e+02 -1.750173e+02
      vertex   -1.157876e+02 3.814078e+02 -1.658249e+02
    endloop
  endfacet
  facet normal 0.000000e+00 -1.000000e+00 0.000000e+00
    outer loop
      vertex   -1.157876e+02 3.814078e+02 -1.658249e+02
      vertex   -1.037668e+02 3.814078e+02 -1.750173e+02
      vertex   -1.143734e+02 3.814078e+02 -1.644107e+02
    endloop
  endfacet
  facet normal -7.071068e-01 -0.000000e+00 -7.071068e-01
    outer loop
      vertex   -1.808414e+02 3.854078e+02 -2.308788e+02
      vertex   -1.702348e+02 3.854078e+02 -2.414854e+02
      vertex   -1.808414e+02 3.814078e+02 -2.308788e+02
    endloop
  endfacet
  facet normal -7.071068e-01 0.000000e+00 -7.071068e-01
    outer loop
      vertex   -1.808414e+02 3.814078e+02 -2.308788e+02
      vertex   -1.702348e+02 3.854078e+02 -2.414854e+02
      vertex   -1.702348e+02 3.814078e+02 -2.414854e+02
    endloop
  endfacet
  facet normal 7.071068e-01 0.000000e+00 -7.071068e-01
    outer loop
      vertex   -1.688206e+02 3.874078e+02 -2.400712e+02
      vertex   -1.688206e+02 3.814078e+02 -2.400712e+02
      vertex   -1.702348e+02 3.854078e+02 -2.414854e+02
    endloop
  endfacet
  facet normal 7.071068e-01 0.000000e+00 -7.071068e-01
    outer loop
      vertex   -1.702348e+02 3.854078e+02 -2.414854e+02
      vertex   -1.688206e+02 3.814078e+02 -2.400712e+02
      vertex   -1.702348e+02 3.814078e+02 -2.414854e+02
    endloop
  endfacet
  facet normal 7.071068e-01 0.000000e+00 7.071068e-01
    outer loop
      vertex   -1.688206e+02 3.874078e+02 -2.400712e+02
      vertex   -1.794272e+02 3.874078e+02 -2.294646e+02
      vertex   -1.688206e+02 3.814078e+02 -2.400712e+02
    endloop
  endfacet
  facet normal 7.071068e-01 0.000000e+00 7.071068e-01
    outer loop
      vertex   -1.688206e+02 3.814078e+02 -2.400712e+02
      vertex   -1.794272e+02 3.874078e+02 -2.294646e+02
      vertex   -1.794272e+02 3.814078e+02 -2.294646e+02
    endloop
  endfacet
  facet normal -7.071068e-01 0.000000e+00 7.071068e-01
    outer loop
      vertex   -1.794272e+02 3.874078e+02 -2.294646e+02
      vertex   -1.808414e+02 3.854078e+02 -2.308788e+02
      vertex   -1.794272e+02 3.814078e+02 -2.294646e+02
    endloop
  endfacet
  facet normal -7.071068e-01 0.000000e+00 7.071068e-01
    outer loop
      vertex   -1.794272e+02 3.814078e+02 -2.294646e+02
      vertex   -1.808414e+02 3.854078e+02 -2.308788e+02
      vertex   -1.808414e+02 3.814078e+02 -2.308788e+02
    endloop
  endfacet
  facet normal 0.000000e+00 -1.000000e+00 -0.000000e+00
    outer loop
      vertex   -1.794272e+02 3.814078e+02 -2.294646e+02
      vertex   -1.808414e+02 3.814078e+02 -2.308788e+02
      vertex   -1.688206e+02 3.814078e+02 -2.400712e+02
    endloop
  endfacet
  facet normal -0.000000e+00 -1.000000e+00 0.000000e+00
    outer loop
      vertex   -1.688206e+02 3.814078e+02 -2.400712e+02
      vertex   -1.808414e+02 3.814078e+02 -2.308788e+02
      vertex   -1.702348e+02 3.814078e+02 -2.414854e+02
    endloop
  endfacet
  facet normal 5.000000e-01 -7.071068e-01 5.000000e-01
    outer loop
      vertex   -1.688206e+02 3.874078e+02 -2.400712e+02
      vertex   -1.702348e+02 3.854078e+02 -2.414854e+02
      vertex   -1.514965e+02 3.874078e+02 -2.573953e+02
    endloop
  endfacet
  facet normal 5.000000e-01 -7.071068e-01 5.000000e-01
    outer loop
      vertex   -1.514965e+02 3.874078e+02 -2.573953e+02
      vertex   -1.702348e+02 3.854078e+02 -2.414854e+02
      vertex   -1.534320e+02 3.846705e+02 -2.593308e+02
    endloop
  endfacet
  facet normal 5.000000e-01 -7.071068e-01 5.000000e-01
    outer loop
      vertex   -1.534320e+02 3.846705e+02 -2.593308e+02
      vertex   -1.702348e+02 3.854078e+02 -2.414854e+02
      vertex   -1.808414e+02 3.854078e+02 -2.308788e+02
    endloop
  endfacet
  facet normal 5.000000e-01 -7.071068e-01 5.000000e-01
    outer loop
      vertex   -1.534320e+02 3.846705e+02 -2.593308e+02
      vertex   -1.808414e+02 3.854078e+02 -2.308788e+02
      vertex   -1.986869e+02 3.846705e+02 -2.140760e+02
    endloop
  endfacet
  facet normal 5.000000e-01 -7.071068e-01 5.000000e-01
    outer loop
      vertex   -1.986869e+02 3.846705e+02 -2.140760e+02
      vertex   -1.808414e+02 3.854078e+02 -2.308788e+02
      vertex   -1.967513e+02 3.874078e+02 -2.121404e+02
    endloop
  endfacet
  facet normal 5.000000e-01 -7.071068e-01 5.000000e-01
    outer loop
      vertex   -1.967513e+02 3.874078e+02 -2.121404e+02
      vertex   -1.808414e+02 3.854078e+02 -2.308788e+02
      vertex   -1.794272e+02 3.874078e+02 -2.294646e+02
    endloop
  endfacet
  facet normal -7.071068e-01 -0.000000e+00 -7.071068e-01
    outer loop
      vertex   -1.516823e+02 3.874078e+02 -2.533384e+02
      vertex   -1.495610e+02 3.874078e+02 -2.554597e+02
      vertex   -1.516823e+02 3.844078e+02 -2.533384e+02
    endloop
  endfacet
  facet normal -7.071068e-01 0.000000e+00 -7.071068e-01
    outer loop
      vertex   -1.516823e+02 3.844078e+02 -2.533384e+02
      vertex   -1.495610e+02 3.874078e+02 -2.554597e+02
      vertex   -1.495610e+02 3.844078e+02 -2.554597e+02
    endloop
  endfacet
  facet normal -7.071068e-01 0.000000e+00 7.071068e-01
    outer loop
      vertex   -9.191374e+01 3.874078e+02 -1.935699e+02
      vertex   -1.516823e+02 3.874078e+02 -2.533384e+02
      vertex   -9.191374e+01 3.844078e+02 -1.935699e+02
    endloop
  endfacet
  facet normal -7.071068e-01 0.000000e+00 7.071068e-01
    outer loop
      vertex   -9.191374e+01 3.844078e+02 -1.935699e+02
      vertex   -1.516823e+02 3.874078e+02 -2.533384e+02
      vertex   -1.516823e+02 3.844078e+02 -2.533384e+02
    endloop
  endfacet
  facet normal 7.071068e-01 0.000000e+00 7.071068e-01
    outer loop
      vertex   -8.979242e+01 3.874078e+02 -1.956912e+02
      vertex   -9.191374e+01 3.874078e+02 -1.935699e+02
      vertex   -8.979242e+01 3.844078e+02 -1.956912e+02
    endloop
  endfacet
  facet normal 7.071068e-01 0.000000e+00 7.071068e-01
    outer loop
      vertex   -8.979242e+01 3.844078e+02 -1.956912e+02
      vertex   -9.191374e+01 3.874078e+02 -1.935699e+02
      vertex   -9.191374e+01 3.844078e+02 -1.935699e+02
    endloop
  endfacet
  facet normal 0.000000e+00 -1.000000e+00 0.000000e+00
    outer loop
      vertex   -1.495610e+02 3.844078e+02 -2.554597e+02
      vertex   -8.979242e+01 3.844078e+02 -1.956912e+02
      vertex   -1.516823e+02 3.844078e+02 -2.533384e+02
    endloop
  endfacet
  facet normal 0.000000e+00 -1.000000e+00 0.000000e+00
    outer loop
      vertex   -1.516823e+02 3.844078e+02 -2.533384e+02
      vertex   -8.979242e+01 3.844078e+02 -1.956912e+02
      vertex   -9.191374e+01 3.844078e+02 -1.935699e+02
    endloop
  endfacet
  facet normal 7.071068e-01 0.000000e+00 7.071068e-01
    outer loop
      vertex   -1.329259e+02 3.874078e+02 -1.525577e+02
      vertex   -1.350472e+02 3.874078e+02 -1.504364e+02
      vertex   -1.329259e+02 3.844078e+02 -1.525577e+02
    endloop
  endfacet
  facet normal 7.071068e-01 0.000000e+00 7.071068e-01
    outer loop
      vertex   -1.329259e+02 3.844078e+02 -1.525577e+02
      vertex   -1.350472e+02 3.874078e+02 -1.504364e+02
      vertex   -1.350472e+02 3.844078e+02 -1.504364e+02
    endloop
  endfacet
  facet normal 7.071068e-01 0.000000e+00 -7.071068e-01
    outer loop
      vertex   -1.926945e+02 3.874078e+02 -2.123262e+02
      vertex   -1.329259e+02 3.874078e+02 -1.525577e+02
      vertex   -1.926945e+02 3.844078e+02 -2.123262e+02
    endloop
  endfacet
  facet normal 7.071068e-01 0.000000e+00 -7.071068e-01
    outer loop
      vertex   -1.926945e+02 3.844078e+02 -2.123262e+02
      vertex   -1.329259e+02 3.874078e+02 -1.525577e+02
      vertex   -1.329259e+02 3.844078e+02 -1.525577e+02
    endloop
  endfacet
  facet normal -7.071068e-01 -0.000000e+00 -7.071068e-01
    outer loop
      vertex   -1.948158e+02 3.874078e+02 -2.102049e+02
      vertex   -1.926945e+02 3.874078e+02 -2.123262e+02
      vertex   -1.948158e+02 3.844078e+02 -2.102049e+02
    endloop
  endfacet
  facet normal -7.071068e-01 0.000000e+00 -7.071068e-01
    outer loop
      vertex   -1.948158e+02 3.844078e+02 -2.102049e+02
      vertex   -1.926945e+02 3.874078e+02 -2.123262e+02
      vertex   -1.926945e+02 3.844078e+02 -2.123262e+02
    endloop
  endfacet
  facet normal 0.000000e+00 -1.000000e+00 -0.000000e+00
    outer loop
      vertex   -1.350472e+02 3.844078e+02 -1.504364e+02
      vertex   -1.948158e+02 3.844078e+02 -2.102049e+02
      vertex   -1.329259e+02 3.844078e+02 -1.525577e+02
    endloop
  endfacet
  facet normal 0.000000e+00 -1.000000e+00 0.000000e+00
    outer loop
      vertex   -1.329259e+02 3.844078e+02 -1.525577e+02
      vertex   -1.948158e+02 3.844078e+02 -2.102049e+02
      vertex   -1.926945e+02 3.844078e+02 -2.123262e+02
    endloop
  endfacet
  facet normal 0.000000e+00 1.000000e+00 0.000000e+00
    outer loop
      vertex   -8.979242e+01 3.924078e+02 -1.956912e+02
      vertex   -1.495610e+02 3.924078e+02 -2.554597e+02
      vertex   -1.350472e+02 3.924078e+02 -1.504364e+02
    endloop
  endfacet
  facet normal 0.000000e+00 1.000000e+00 0.000000e+00
    outer loop
      vertex   -1.350472e+02 3.924078e+02 -1.504364e+02
      vertex   -1.495610e+02 3.924078e+02 -2.554597e+02
      vertex   -1.948158e+02 3.924078e+02 -2.102049e+02
    endloop
  endfacet
  facet normal -5.000000e-01 7.071068e-01 -5.000000e-01
    outer loop
      vertex   -1.495610e+02 3.924078e+02 -2.554597e+02
      vertex   -1.550320e+02 3.846705e+02 -2.609308e+02
      vertex   -1.948158e+02 3.924078e+02 -2.102049e+02
    endloop
  endfacet
  facet normal -5.000000e-01 7.071068e-01 -5.000000e-01
    outer loop
      vertex   -1.948158e+02 3.924078e+02 -2.102049e+02
      vertex   -1.550320e+02 3.846705e+02 -2.609308e+02
      vertex   -2.002869e+02 3.846705e+02 -2.156760e+02
    endloop
  endfacet
  facet normal 5.000000e-01 7.071068e-01 5.000000e-01
    outer loop
      vertex   -8.432135e+01 3.846705e+02 -1.902201e+02
      vertex   -8.979242e+01 3.924078e+02 -1.956912e+02
      vertex   -1.295762e+02 3.846705e+02 -1.449653e+02
    endloop
  endfacet
  facet normal 5.000000e-01 7.071068e-01 5.000000e-01
    outer loop
      vertex   -1.295762e+02 3.846705e+02 -1.449653e+02
      vertex   -8.979242e+01 3.924078e+02 -1.956912e+02
      vertex   -1.350472e+02 3.924078e+02 -1.504364e+02
    endloop
  endfacet
  facet normal -7.071068e-01 0.000000e+00 7.071068e-01
    outer loop
      vertex   -1.986869e+02 3.846705e+02 -2.140760e+02
      vertex   -1.967513e+02 3.874078e+02 -2.121404e+02
      vertex   -2.002869e+02 3.846705e+02 -2.156760e+02
    endloop
  endfacet
  facet normal -7.071068e-01 -1.136387e-14 7.071068e-01
    outer loop
      vertex   -2.002869e+02 3.846705e+02 -2.156760e+02
      vertex   -1.967513e+02 3.874078e+02 -2.121404e+02
      vertex   -1.948158e+02 3.924078e+02 -2.102049e+02
    endloop
  endfacet
  facet normal -7.071068e-01 0.000000e+00 7.071068e-01
    outer loop
      vertex   -1.948158e+02 3.924078e+02 -2.102049e+02
      vertex   -1.967513e+02 3.874078e+02 -2.121404e+02
      vertex   -1.948158e+02 3.874078e+02 -2.102049e+02
    endloop
  endfacet
  facet normal -7.071068e-01 0.000000e+00 7.071068e-01
    outer loop
      vertex   -1.948158e+02 3.924078e+02 -2.102049e+02
      vertex   -1.948158e+02 3.874078e+02 -2.102049e+02
      vertex   -1.350472e+02 3.874078e+02 -1.504364e+02
    endloop
  endfacet
  facet normal -7.071068e-01 0.000000e+00 7.071068e-01
    outer loop
      vertex   -1.350472e+02 3.874078e+02 -1.504364e+02
      vertex   -1.948158e+02 3.874078e+02 -2.102049e+02
      vertex   -1.350472e+02 3.844078e+02 -1.504364e+02
    endloop
  endfacet
  facet normal -7.071068e-01 0.000000e+00 7.071068e-01
    outer loop
      vertex   -1.350472e+02 3.844078e+02 -1.504364e+02
      vertex   -1.948158e+02 3.874078e+02 -2.102049e+02
      vertex   -1.948158e+02 3.844078e+02 -2.102049e+02
    endloop
  endfacet
  facet normal -7.071068e-01 0.000000e+00 7.071068e-01
    outer loop
      vertex   -1.948158e+02 3.924078e+02 -2.102049e+02
      vertex   -1.350472e+02 3.874078e+02 -1.504364e+02
      vertex   -1.350472e+02 3.924078e+02 -1.504364e+02
    endloop
  endfacet
  facet normal -7.071068e-01 0.000000e+00 7.071068e-01
    outer loop
      vertex   -1.350472e+02 3.924078e+02 -1.504364e+02
      vertex   -1.350472e+02 3.874078e+02 -1.504364e+02
      vertex   -1.331117e+02 3.874078e+02 -1.485008e+02
    endloop
  endfacet
  facet normal -7.071068e-01 -1.826336e-14 7.071068e-01
    outer loop
      vertex   -1.350472e+02 3.924078e+02 -1.504364e+02
      vertex   -1.331117e+02 3.874078e+02 -1.485008e+02
      vertex   -1.295762e+02 3.846705e+02 -1.449653e+02
    endloop
  endfacet
  facet normal -7.071068e-01 2.939702e-14 7.071068e-01
    outer loop
      vertex   -1.295762e+02 3.846705e+02 -1.449653e+02
      vertex   -1.331117e+02 3.874078e+02 -1.485008e+02
      vertex   -1.311762e+02 3.846705e+02 -1.465653e+02
    endloop
  endfacet
  facet normal -5.000000e-01 -7.071068e-01 -5.000000e-01
    outer loop
      vertex   -1.051810e+02 3.874078e+02 -1.764315e+02
      vertex   -8.785688e+01 3.874078e+02 -1.937557e+02
      vertex   -1.037668e+02 3.854078e+02 -1.750173e+02
    endloop
  endfacet
  facet normal -5.000000e-01 -7.071068e-01 -5.000000e-01
    outer loop
      vertex   -1.037668e+02 3.854078e+02 -1.750173e+02
      vertex   -8.785688e+01 3.874078e+02 -1.937557e+02
      vertex   -8.592135e+01 3.846705e+02 -1.918201e+02
    endloop
  endfacet
  facet normal -5.000000e-01 -7.071068e-01 -5.000000e-01
    outer loop
      vertex   -1.037668e+02 3.854078e+02 -1.750173e+02
      vertex   -8.592135e+01 3.846705e+02 -1.918201e+02
      vertex   -1.143734e+02 3.854078e+02 -1.644107e+02
    endloop
  endfacet
  facet normal -5.000000e-01 -7.071068e-01 -5.000000e-01
    outer loop
      vertex   -1.143734e+02 3.854078e+02 -1.644107e+02
      vertex   -8.592135e+01 3.846705e+02 -1.918201e+02
      vertex   -1.311762e+02 3.846705e+02 -1.465653e+02
    endloop
  endfacet
  facet normal -5.000000e-01 -7.071068e-01 -5.000000e-01
    outer loop
      vertex   -1.143734e+02 3.854078e+02 -1.644107e+02
      vertex   -1.311762e+02 3.846705e+02 -1.465653e+02
      vertex   -1.331117e+02 3.874078e+02 -1.485008e+02
    endloop
  endfacet
  facet normal -5.000000e-01 -7.071068e-01 -5.000000e-01
    outer loop
      vertex   -1.331117e+02 3.874078e+02 -1.485008e+02
      vertex   -1.157876e+02 3.874078e+02 -1.658249e+02
      vertex   -1.143734e+02 3.854078e+02 -1.644107e+02
    endloop
  endfacet
  facet normal 0.000000e+00 -1.000000e+00 0.000000e+00
    outer loop
      vertex   -8.979242e+01 3.874078e+02 -1.956912e+02
      vertex   -8.785688e+01 3.874078e+02 -1.937557e+02
      vertex   -9.191374e+01 3.874078e+02 -1.935699e+02
    endloop
  endfacet
  facet normal 0.000000e+00 -1.000000e+00 0.000000e+00
    outer loop
      vertex   -9.191374e+01 3.874078e+02 -1.935699e+02
      vertex   -8.785688e+01 3.874078e+02 -1.937557e+02
      vertex   -1.051810e+02 3.874078e+02 -1.764315e+02
    endloop
  endfacet
  facet normal -0.000000e+00 -1.000000e+00 0.000000e+00
    outer loop
      vertex   -9.191374e+01 3.874078e+02 -1.935699e+02
      vertex   -1.051810e+02 3.874078e+02 -1.764315e+02
      vertex   -1.688206e+02 3.874078e+02 -2.400712e+02
    endloop
  endfacet
  facet normal 0.000000e+00 -1.000000e+00 0.000000e+00
    outer loop
      vertex   -1.688206e+02 3.874078e+02 -2.400712e+02
      vertex   -1.051810e+02 3.874078e+02 -1.764315e+02
      vertex   -1.794272e+02 3.874078e+02 -2.294646e+02
    endloop
  endfacet
  facet normal 0.000000e+00 -1.000000e+00 0.000000e+00
    outer loop
      vertex   -1.794272e+02 3.874078e+02 -2.294646e+02
      vertex   -1.051810e+02 3.874078e+02 -1.764315e+02
      vertex   -1.157876e+02 3.874078e+02 -1.658249e+02
    endloop
  endfacet
  facet normal 0.000000e+00 -1.000000e+00 0.000000e+00
    outer loop
      vertex   -1.794272e+02 3.874078e+02 -2.294646e+02
      vertex   -1.157876e+02 3.874078e+02 -1.658249e+02
      vertex   -1.926945e+02 3.874078e+02 -2.123262e+02
    endloop
  endfacet
  facet normal 0.000000e+00 -1.000000e+00 0.000000e+00
    outer loop
      vertex   -1.926945e+02 3.874078e+02 -2.123262e+02
      vertex   -1.157876e+02 3.874078e+02 -1.658249e+02
      vertex   -1.329259e+02 3.874078e+02 -1.525577e+02
    endloop
  endfacet
  facet normal 0.000000e+00 -1.000000e+00 0.000000e+00
    outer loop
      vertex   -1.329259e+02 3.874078e+02 -1.525577e+02
      vertex   -1.157876e+02 3.874078e+02 -1.658249e+02
      vertex   -1.331117e+02 3.874078e+02 -1.485008e+02
    endloop
  endfacet
  facet normal 0.000000e+00 -1.000000e+00 0.000000e+00
    outer loop
      vertex   -1.329259e+02 3.874078e+02 -1.525577e+02
      vertex   -1.331117e+02 3.874078e+02 -1.485008e+02
      vertex   -1.350472e+02 3.874078e+02 -1.504364e+02
    endloop
  endfacet
  facet normal 0.000000e+00 -1.000000e+00 -0.000000e+00
    outer loop
      vertex   -1.948158e+02 3.874078e+02 -2.102049e+02
      vertex   -1.967513e+02 3.874078e+02 -2.121404e+02
      vertex   -1.926945e+02 3.874078e+02 -2.123262e+02
    endloop
  endfacet
  facet normal -0.000000e+00 -1.000000e+00 -0.000000e+00
    outer loop
      vertex   -1.926945e+02 3.874078e+02 -2.123262e+02
      vertex   -1.967513e+02 3.874078e+02 -2.121404e+02
      vertex   -1.794272e+02 3.874078e+02 -2.294646e+02
    endloop
  endfacet
  facet normal 0.000000e+00 -1.000000e+00 0.000000e+00
    outer loop
      vertex   -9.191374e+01 3.874078e+02 -1.935699e+02
      vertex   -1.688206e+02 3.874078e+02 -2.400712e+02
      vertex   -1.516823e+02 3.874078e+02 -2.533384e+02
    endloop
  endfacet
  facet normal -0.000000e+00 -1.000000e+00 -0.000000e+00
    outer loop
      vertex   -1.516823e+02 3.874078e+02 -2.533384e+02
      vertex   -1.688206e+02 3.874078e+02 -2.400712e+02
      vertex   -1.514965e+02 3.874078e+02 -2.573953e+02
    endloop
  endfacet
  facet normal 0.000000e+00 -1.000000e+00 0.000000e+00
    outer loop
      vertex   -1.516823e+02 3.874078e+02 -2.533384e+02
      vertex   -1.514965e+02 3.874078e+02 -2.573953e+02
      vertex   -1.495610e+02 3.874078e+02 -2.554597e+02
    endloop
  endfacet
  facet normal 7.071068e-01 1.469851e-14 -7.071068e-01
    outer loop
      vertex   -1.534320e+02 3.846705e+02 -2.593308e+02
      vertex   -1.550320e+02 3.846705e+02 -2.609308e+02
      vertex   -1.514965e+02 3.874078e+02 -2.573953e+02
    endloop
  endfacet
  facet normal 7.071068e-01 -6.290712e-15 -7.071068e-01
    outer loop
      vertex   -1.514965e+02 3.874078e+02 -2.573953e+02
      vertex   -1.550320e+02 3.846705e+02 -2.609308e+02
      vertex   -1.495610e+02 3.924078e+02 -2.554597e+02
    endloop
  endfacet
  facet normal 7.071068e-01 0.000000e+00 -7.071068e-01
    outer loop
      vertex   -1.514965e+02 3.874078e+02 -2.573953e+02
      vertex   -1.495610e+02 3.924078e+02 -2.554597e+02
      vertex   -1.495610e+02 3.874078e+02 -2.554597e+02
    endloop
  endfacet
  facet normal 7.071068e-01 0.000000e+00 -7.071068e-01
    outer loop
      vertex   -1.495610e+02 3.874078e+02 -2.554597e+02
      vertex   -1.495610e+02 3.924078e+02 -2.554597e+02
      vertex   -8.979242e+01 3.924078e+02 -1.956912e+02
    endloop
  endfacet
  facet normal 7.071068e-01 0.000000e+00 -7.071068e-01
    outer loop
      vertex   -1.495610e+02 3.874078e+02 -2.554597e+02
      vertex   -8.979242e+01 3.924078e+02 -1.956912e+02
      vertex   -8.979242e+01 3.874078e+02 -1.956912e+02
    endloop
  endfacet
  facet normal 7.071068e-01 0.000000e+00 -7.071068e-01
    outer loop
      vertex   -8.979242e+01 3.874078e+02 -1.956912e+02
      vertex   -8.979242e+01 3.924078e+02 -1.956912e+02
      vertex   -8.785688e+01 3.874078e+02 -1.937557e+02
    endloop
  endfacet
  facet normal 7.071068e-01 -8.370706e-15 -7.071068e-01
    outer loop
      vertex   -8.785688e+01 3.874078e+02 -1.937557e+02
      vertex   -8.979242e+01 3.924078e+02 -1.956912e+02
      vertex   -8.432135e+01 3.846705e+02 -1.902201e+02
    endloop
  endfacet
  facet normal 7.071068e-01 8.890806e-15 -7.071068e-01
    outer loop
      vertex   -8.785688e+01 3.874078e+02 -1.937557e+02
      vertex   -8.432135e+01 3.846705e+02 -1.902201e+02
      vertex   -8.592135e+01 3.846705e+02 -1.918201e+02
    endloop
  endfacet
  facet normal 7.071068e-01 0.000000e+00 -7.071068e-01
    outer loop
      vertex   -8.979242e+01 3.844078e+02 -1.956912e+02
      vertex   -1.495610e+02 3.844078e+02 -2.554597e+02
      vertex   -8.979242e+01 3.874078e+02 -1.956912e+02
    endloop
  endfacet
  facet normal 7.071068e-01 0.000000e+00 -7.071068e-01
    outer loop
      vertex   -8.979242e+01 3.874078e+02 -1.956912e+02
      vertex   -1.495610e+02 3.844078e+02 -2.554597e+02
      vertex   -1.495610e+02 3.874078e+02 -2.554597e+02
    endloop
  endfacet
  facet normal 0.000000e+00 -1.000000e+00 0.000000e+00
    outer loop
      vertex   -1.550320e+02 3.846705e+02 -2.609308e+02
      vertex   -1.534320e+02 3.846705e+02 -2.593308e+02
      vertex   -2.002869e+02 3.846705e+02 -2.156760e+02
    endloop
  endfacet
  facet normal 0.000000e+00 -1.000000e+00 0.000000e+00
    outer loop
      vertex   -2.002869e+02 3.846705e+02 -2.156760e+02
      vertex   -1.534320e+02 3.846705e+02 -2.593308e+02
      vertex   -1.986869e+02 3.846705e+02 -2.140760e+02
    endloop
  endfacet
  facet normal 0.000000e+00 -1.000000e+00 0.000000e+00
    outer loop
      vertex   -8.592135e+01 3.846705e+02 -1.918201e+02
      vertex   -8.432135e+01 3.846705e+02 -1.902201e+02
      vertex   -1.311762e+02 3.846705e+02 -1.465653e+02
    endloop
  endfacet
  facet normal 0.000000e+00 -1.000000e+00 0.000000e+00
    outer loop
      vertex   -1.311762e+02 3.846705e+02 -1.465653e+02
      vertex   -8.432135e+01 3.846705e+02 -1.902201e+02
      vertex   -1.295762e+02 3.846705e+02 -1.449653e+02
    endloop
  endfacet
endsolid
