solid ASCII
  facet normal 7.042393e-01 8.996731e-02 7.042393e-01
    outer loop
      vertex   -1.472539e+02 3.679078e+02 -2.602237e+02
      vertex   -1.486681e+02 3.679078e+02 -2.588095e+02
      vertex   -1.471383e+02 3.660993e+02 -2.601082e+02
    endloop
  endfacet
  facet normal 7.042393e-01 8.996731e-02 7.042393e-01
    outer loop
      vertex   -1.471383e+02 3.660993e+02 -2.601082e+02
      vertex   -1.486681e+02 3.679078e+02 -2.588095e+02
      vertex   -1.485525e+02 3.660993e+02 -2.586940e+02
    endloop
  endfacet
  facet normal 6.893312e-01 2.228115e-01 6.893312e-01
    outer loop
      vertex   -1.471383e+02 3.660993e+02 -2.601082e+02
      vertex   -1.485525e+02 3.660993e+02 -2.586940e+02
      vertex   -1.468522e+02 3.643291e+02 -2.598221e+02
    endloop
  endfacet
  facet normal 6.893312e-01 2.228115e-01 6.893312e-01
    outer loop
      vertex   -1.468522e+02 3.643291e+02 -2.598221e+02
      vertex   -1.485525e+02 3.660993e+02 -2.586940e+02
      vertex   -1.482665e+02 3.643291e+02 -2.584079e+02
    endloop
  endfacet
  facet normal 6.619517e-01 3.516246e-01 6.619517e-01
    outer loop
      vertex   -1.468522e+02 3.643291e+02 -2.598221e+02
      vertex   -1.482665e+02 3.643291e+02 -2.584079e+02
      vertex   -1.464008e+02 3.626292e+02 -2.593706e+02
    endloop
  endfacet
  facet normal 6.619517e-01 3.516246e-01 6.619517e-01
    outer loop
      vertex   -1.464008e+02 3.626292e+02 -2.593706e+02
      vertex   -1.482665e+02 3.643291e+02 -2.584079e+02
      vertex   -1.478150e+02 3.626292e+02 -2.579564e+02
    endloop
  endfacet
  facet normal 6.225961e-01 4.740761e-01 6.225961e-01
    outer loop
      vertex   -1.464008e+02 3.626292e+02 -2.593706e+02
      vertex   -1.478150e+02 3.626292e+02 -2.579564e+02
      vertex   -1.457920e+02 3.610304e+02 -2.587619e+02
    endloop
  endfacet
  facet normal 6.225961e-01 4.740761e-01 6.225961e-01
    outer loop
      vertex   -1.457920e+02 3.610304e+02 -2.587619e+02
      vertex   -1.478150e+02 3.626292e+02 -2.579564e+02
      vertex   -1.472063e+02 3.610304e+02 -2.573477e+02
    endloop
  endfacet
  facet normal 5.719765e-01 5.879505e-01 5.719765e-01
    outer loop
      vertex   -1.457920e+02 3.610304e+02 -2.587619e+02
      vertex   -1.472063e+02 3.610304e+02 -2.573477e+02
      vertex   -1.450371e+02 3.595616e+02 -2.580070e+02
    endloop
  endfacet
  facet normal 5.719765e-01 5.879505e-01 5.719765e-01
    outer loop
      vertex   -1.450371e+02 3.595616e+02 -2.580070e+02
      vertex   -1.472063e+02 3.610304e+02 -2.573477e+02
      vertex   -1.464513e+02 3.595616e+02 -2.565928e+02
    endloop
  endfacet
  facet normal 5.110086e-01 6.911877e-01 5.110086e-01
    outer loop
      vertex   -1.450371e+02 3.595616e+02 -2.580070e+02
      vertex   -1.464513e+02 3.595616e+02 -2.565928e+02
      vertex   -1.441496e+02 3.582493e+02 -2.571195e+02
    endloop
  endfacet
  facet normal 5.110086e-01 6.911877e-01 5.110086e-01
    outer loop
      vertex   -1.441496e+02 3.582493e+02 -2.571195e+02
      vertex   -1.464513e+02 3.595616e+02 -2.565928e+02
      vertex   -1.455639e+02 3.582493e+02 -2.557053e+02
    endloop
  endfacet
  facet normal 4.407955e-01 7.819199e-01 4.407955e-01
    outer loop
      vertex   -1.441496e+02 3.582493e+02 -2.571195e+02
      vertex   -1.455639e+02 3.582493e+02 -2.557053e+02
      vertex   -1.431457e+02 3.571173e+02 -2.561155e+02
    endloop
  endfacet
  facet normal 4.407955e-01 7.819199e-01 4.407955e-01
    outer loop
      vertex   -1.431457e+02 3.571173e+02 -2.561155e+02
      vertex   -1.455639e+02 3.582493e+02 -2.557053e+02
      vertex   -1.445599e+02 3.571173e+02 -2.547013e+02
    endloop
  endfacet
  facet normal 3.626075e-01 8.585055e-01 3.626075e-01
    outer loop
      vertex   -1.431457e+02 3.571173e+02 -2.561155e+02
      vertex   -1.445599e+02 3.571173e+02 -2.547013e+02
      vertex   -1.420433e+02 3.561862e+02 -2.550132e+02
    endloop
  endfacet
  facet normal 3.626075e-01 8.585055e-01 3.626075e-01
    outer loop
      vertex   -1.420433e+02 3.561862e+02 -2.550132e+02
      vertex   -1.445599e+02 3.571173e+02 -2.547013e+02
      vertex   -1.434576e+02 3.561862e+02 -2.535990e+02
    endloop
  endfacet
  facet normal 2.778591e-01 9.195589e-01 2.778591e-01
    outer loop
      vertex   -1.420433e+02 3.561862e+02 -2.550132e+02
      vertex   -1.434576e+02 3.561862e+02 -2.535990e+02
      vertex   -1.408626e+02 3.554726e+02 -2.538325e+02
    endloop
  endfacet
  facet normal 2.778591e-01 9.195589e-01 2.778591e-01
    outer loop
      vertex   -1.408626e+02 3.554726e+02 -2.538325e+02
      vertex   -1.434576e+02 3.561862e+02 -2.535990e+02
      vertex   -1.422769e+02 3.554726e+02 -2.524183e+02
    endloop
  endfacet
  facet normal 1.880837e-01 9.639756e-01 1.880837e-01
    outer loop
      vertex   -1.408626e+02 3.554726e+02 -2.538325e+02
      vertex   -1.422769e+02 3.554726e+02 -2.524183e+02
      vertex   -1.396249e+02 3.549896e+02 -2.525947e+02
    endloop
  endfacet
  facet normal 1.880837e-01 9.639756e-01 1.880837e-01
    outer loop
      vertex   -1.396249e+02 3.549896e+02 -2.525947e+02
      vertex   -1.422769e+02 3.554726e+02 -2.524183e+02
      vertex   -1.410391e+02 3.549896e+02 -2.511805e+02
    endloop
  endfacet
  facet normal 9.490549e-02 9.909520e-01 9.490549e-02
    outer loop
      vertex   -1.396249e+02 3.549896e+02 -2.525947e+02
      vertex   -1.410391e+02 3.549896e+02 -2.511805e+02
      vertex   -1.383525e+02 3.547459e+02 -2.513224e+02
    endloop
  endfacet
  facet normal 9.490549e-02 9.909520e-01 9.490549e-02
    outer loop
      vertex   -1.383525e+02 3.547459e+02 -2.513224e+02
      vertex   -1.410391e+02 3.549896e+02 -2.511805e+02
      vertex   -1.397667e+02 3.547459e+02 -2.499082e+02
    endloop
  endfacet
  facet normal 1.023320e-05 1.000000e+00 1.023320e-05
    outer loop
      vertex   -1.383525e+02 3.547459e+02 -2.513224e+02
      vertex   -1.397667e+02 3.547459e+02 -2.499082e+02
      vertex   -1.370685e+02 3.547459e+02 -2.500384e+02
    endloop
  endfacet
  facet normal 1.023320e-05 1.000000e+00 1.023320e-05
    outer loop
      vertex   -1.370685e+02 3.547459e+02 -2.500384e+02
      vertex   -1.397667e+02 3.547459e+02 -2.499082e+02
      vertex   -1.384827e+02 3.547459e+02 -2.486242e+02
    endloop
  endfacet
  facet normal -9.488521e-02 9.909559e-01 -9.488521e-02
    outer loop
      vertex   -1.370685e+02 3.547459e+02 -2.500384e+02
      vertex   -1.384827e+02 3.547459e+02 -2.486242e+02
      vertex   -1.357961e+02 3.549896e+02 -2.487660e+02
    endloop
  endfacet
  facet normal -9.488521e-02 9.909559e-01 -9.488521e-02
    outer loop
      vertex   -1.357961e+02 3.549896e+02 -2.487660e+02
      vertex   -1.384827e+02 3.547459e+02 -2.486242e+02
      vertex   -1.372104e+02 3.549896e+02 -2.473518e+02
    endloop
  endfacet
  facet normal -1.880640e-01 9.639833e-01 -1.880640e-01
    outer loop
      vertex   -1.357961e+02 3.549896e+02 -2.487660e+02
      vertex   -1.372104e+02 3.549896e+02 -2.473518e+02
      vertex   -1.345584e+02 3.554725e+02 -2.475282e+02
    endloop
  endfacet
  facet normal -1.880640e-01 9.639833e-01 -1.880640e-01
    outer loop
      vertex   -1.345584e+02 3.554725e+02 -2.475282e+02
      vertex   -1.372104e+02 3.549896e+02 -2.473518e+02
      vertex   -1.359726e+02 3.554725e+02 -2.461140e+02
    endloop
  endfacet
  facet normal -2.778403e-01 9.195703e-01 -2.778403e-01
    outer loop
      vertex   -1.345584e+02 3.554725e+02 -2.475282e+02
      vertex   -1.359726e+02 3.554725e+02 -2.461140e+02
      vertex   -1.333777e+02 3.561860e+02 -2.463475e+02
    endloop
  endfacet
  facet normal -2.778403e-01 9.195703e-01 -2.778403e-01
    outer loop
      vertex   -1.333777e+02 3.561860e+02 -2.463475e+02
      vertex   -1.359726e+02 3.554725e+02 -2.461140e+02
      vertex   -1.347919e+02 3.561860e+02 -2.449333e+02
    endloop
  endfacet
  facet normal -3.625899e-01 8.585203e-01 -3.625899e-01
    outer loop
      vertex   -1.333777e+02 3.561860e+02 -2.463475e+02
      vertex   -1.347919e+02 3.561860e+02 -2.449333e+02
      vertex   -1.322753e+02 3.571171e+02 -2.452452e+02
    endloop
  endfacet
  facet normal -3.625899e-01 8.585203e-01 -3.625899e-01
    outer loop
      vertex   -1.322753e+02 3.571171e+02 -2.452452e+02
      vertex   -1.347919e+02 3.561860e+02 -2.449333e+02
      vertex   -1.336896e+02 3.571171e+02 -2.438310e+02
    endloop
  endfacet
  facet normal -4.407795e-01 7.819379e-01 -4.407795e-01
    outer loop
      vertex   -1.322753e+02 3.571171e+02 -2.452452e+02
      vertex   -1.336896e+02 3.571171e+02 -2.438310e+02
      vertex   -1.312713e+02 3.582490e+02 -2.442412e+02
    endloop
  endfacet
  facet normal -4.407795e-01 7.819379e-01 -4.407795e-01
    outer loop
      vertex   -1.312713e+02 3.582490e+02 -2.442412e+02
      vertex   -1.336896e+02 3.571171e+02 -2.438310e+02
      vertex   -1.326855e+02 3.582490e+02 -2.428270e+02
    endloop
  endfacet
  facet normal -5.109944e-01 6.912086e-01 -5.109944e-01
    outer loop
      vertex   -1.312713e+02 3.582490e+02 -2.442412e+02
      vertex   -1.326855e+02 3.582490e+02 -2.428270e+02
      vertex   -1.303838e+02 3.595613e+02 -2.433537e+02
    endloop
  endfacet
  facet normal -5.109944e-01 6.912086e-01 -5.109944e-01
    outer loop
      vertex   -1.303838e+02 3.595613e+02 -2.433537e+02
      vertex   -1.326855e+02 3.582490e+02 -2.428270e+02
      vertex   -1.317980e+02 3.595613e+02 -2.419395e+02
    endloop
  endfacet
  facet normal -5.719644e-01 5.879739e-01 -5.719644e-01
    outer loop
      vertex   -1.303838e+02 3.595613e+02 -2.433537e+02
      vertex   -1.317980e+02 3.595613e+02 -2.419395e+02
      vertex   -1.296289e+02 3.610301e+02 -2.425987e+02
    endloop
  endfacet
  facet normal -5.719644e-01 5.879739e-01 -5.719644e-01
    outer loop
      vertex   -1.296289e+02 3.610301e+02 -2.425987e+02
      vertex   -1.317980e+02 3.595613e+02 -2.419395e+02
      vertex   -1.310431e+02 3.610301e+02 -2.411845e+02
    endloop
  endfacet
  facet normal -6.225864e-01 4.741016e-01 -6.225864e-01
    outer loop
      vertex   -1.296289e+02 3.610301e+02 -2.425987e+02
      vertex   -1.310431e+02 3.610301e+02 -2.411845e+02
      vertex   -1.290201e+02 3.626289e+02 -2.419900e+02
    endloop
  endfacet
  facet normal -6.225864e-01 4.741016e-01 -6.225864e-01
    outer loop
      vertex   -1.290201e+02 3.626289e+02 -2.419900e+02
      vertex   -1.310431e+02 3.610301e+02 -2.411845e+02
      vertex   -1.304343e+02 3.626289e+02 -2.405758e+02
    endloop
  endfacet
  facet normal -6.619445e-01 3.516517e-01 -6.619445e-01
    outer loop
      vertex   -1.290201e+02 3.626289e+02 -2.419900e+02
      vertex   -1.304343e+02 3.626289e+02 -2.405758e+02
      vertex   -1.285686e+02 3.643287e+02 -2.415385e+02
    endloop
  endfacet
  facet normal -6.619445e-01 3.516517e-01 -6.619445e-01
    outer loop
      vertex   -1.285686e+02 3.643287e+02 -2.415385e+02
      vertex   -1.304343e+02 3.626289e+02 -2.405758e+02
      vertex   -1.299828e+02 3.643287e+02 -2.401242e+02
    endloop
  endfacet
  facet normal -6.893266e-01 2.228397e-01 -6.893266e-01
    outer loop
      vertex   -1.285686e+02 3.643287e+02 -2.415385e+02
      vertex   -1.299828e+02 3.643287e+02 -2.401242e+02
      vertex   -1.282825e+02 3.660989e+02 -2.412523e+02
    endloop
  endfacet
  facet normal -6.893266e-01 2.228397e-01 -6.893266e-01
    outer loop
      vertex   -1.282825e+02 3.660989e+02 -2.412523e+02
      vertex   -1.299828e+02 3.643287e+02 -2.401242e+02
      vertex   -1.296967e+02 3.660989e+02 -2.398381e+02
    endloop
  endfacet
  facet normal -7.042374e-01 8.999614e-02 -7.042374e-01
    outer loop
      vertex   -1.282825e+02 3.660989e+02 -2.412523e+02
      vertex   -1.296967e+02 3.660989e+02 -2.398381e+02
      vertex   -1.281669e+02 3.679074e+02 -2.411368e+02
    endloop
  endfacet
  facet normal -7.042374e-01 8.999614e-02 -7.042374e-01
    outer loop
      vertex   -1.281669e+02 3.679074e+02 -2.411368e+02
      vertex   -1.296967e+02 3.660989e+02 -2.398381e+02
      vertex   -1.295811e+02 3.679074e+02 -2.397226e+02
    endloop
  endfacet
  facet normal -7.071068e-01 0.000000e+00 -7.071068e-01
    outer loop
      vertex   -1.486681e+02 3.629149e+02 -2.588095e+02
      vertex   -1.486681e+02 3.679078e+02 -2.588095e+02
      vertex   -1.472539e+02 3.629149e+02 -2.602237e+02
    endloop
  endfacet
  facet normal -7.071068e-01 0.000000e+00 -7.071068e-01
    outer loop
      vertex   -1.472539e+02 3.629149e+02 -2.602237e+02
      vertex   -1.486681e+02 3.679078e+02 -2.588095e+02
      vertex   -1.472539e+02 3.679078e+02 -2.602237e+02
    endloop
  endfacet
  facet normal 6.405969e-01 -4.234044e-01 6.405969e-01
    outer loop
      vertex   -1.281669e+02 3.629149e+02 -2.411368e+02
      vertex   -1.295811e+02 3.629149e+02 -2.397226e+02
      vertex   -1.287134e+02 3.612614e+02 -2.416832e+02
    endloop
  endfacet
  facet normal 6.405969e-01 -4.234044e-01 6.405969e-01
    outer loop
      vertex   -1.287134e+02 3.612614e+02 -2.416832e+02
      vertex   -1.295811e+02 3.629149e+02 -2.397226e+02
      vertex   -1.301276e+02 3.612614e+02 -2.402690e+02
    endloop
  endfacet
  facet normal 5.979118e-01 -5.338568e-01 5.979118e-01
    outer loop
      vertex   -1.287134e+02 3.612614e+02 -2.416832e+02
      vertex   -1.301276e+02 3.612614e+02 -2.402690e+02
      vertex   -1.294023e+02 3.597181e+02 -2.423722e+02
    endloop
  endfacet
  facet normal 5.979118e-01 -5.338568e-01 5.979118e-01
    outer loop
      vertex   -1.294023e+02 3.597181e+02 -2.423722e+02
      vertex   -1.301276e+02 3.612614e+02 -2.402690e+02
      vertex   -1.308166e+02 3.597181e+02 -2.409580e+02
    endloop
  endfacet
  facet normal 5.457535e-01 -6.358508e-01 5.457535e-01
    outer loop
      vertex   -1.294023e+02 3.597181e+02 -2.423722e+02
      vertex   -1.308166e+02 3.597181e+02 -2.409580e+02
      vertex   -1.302230e+02 3.583094e+02 -2.431928e+02
    endloop
  endfacet
  facet normal 5.457535e-01 -6.358508e-01 5.457535e-01
    outer loop
      vertex   -1.302230e+02 3.583094e+02 -2.431928e+02
      vertex   -1.308166e+02 3.597181e+02 -2.409580e+02
      vertex   -1.316372e+02 3.583094e+02 -2.417786e+02
    endloop
  endfacet
  facet normal 4.849484e-01 -7.277706e-01 4.849484e-01
    outer loop
      vertex   -1.302230e+02 3.583094e+02 -2.431928e+02
      vertex   -1.316372e+02 3.583094e+02 -2.417786e+02
      vertex   -1.311622e+02 3.570577e+02 -2.441320e+02
    endloop
  endfacet
  facet normal 4.849484e-01 -7.277706e-01 4.849484e-01
    outer loop
      vertex   -1.311622e+02 3.570577e+02 -2.441320e+02
      vertex   -1.316372e+02 3.583094e+02 -2.417786e+02
      vertex   -1.325764e+02 3.570577e+02 -2.427178e+02
    endloop
  endfacet
  facet normal 4.164599e-01 -8.081598e-01 4.164599e-01
    outer loop
      vertex   -1.311622e+02 3.570577e+02 -2.441320e+02
      vertex   -1.325764e+02 3.570577e+02 -2.427178e+02
      vertex   -1.322052e+02 3.559828e+02 -2.451750e+02
    endloop
  endfacet
  facet normal 4.164599e-01 -8.081598e-01 4.164599e-01
    outer loop
      vertex   -1.322052e+02 3.559828e+02 -2.451750e+02
      vertex   -1.325764e+02 3.570577e+02 -2.427178e+02
      vertex   -1.336194e+02 3.559828e+02 -2.437608e+02
    endloop
  endfacet
  facet normal 3.413732e-01 -8.757447e-01 3.413732e-01
    outer loop
      vertex   -1.322052e+02 3.559828e+02 -2.451750e+02
      vertex   -1.336194e+02 3.559828e+02 -2.437608e+02
      vertex   -1.333354e+02 3.551016e+02 -2.463052e+02
    endloop
  endfacet
  facet normal 3.413732e-01 -8.757447e-01 3.413732e-01
    outer loop
      vertex   -1.333354e+02 3.551016e+02 -2.463052e+02
      vertex   -1.336194e+02 3.559828e+02 -2.437608e+02
      vertex   -1.347496e+02 3.551016e+02 -2.448910e+02
    endloop
  endfacet
  facet normal 2.608777e-01 -9.294545e-01 2.608777e-01
    outer loop
      vertex   -1.333354e+02 3.551016e+02 -2.463052e+02
      vertex   -1.347496e+02 3.551016e+02 -2.448910e+02
      vertex   -1.345349e+02 3.544283e+02 -2.475048e+02
    endloop
  endfacet
  facet normal 2.608777e-01 -9.294545e-01 2.608777e-01
    outer loop
      vertex   -1.345349e+02 3.544283e+02 -2.475048e+02
      vertex   -1.347496e+02 3.551016e+02 -2.448910e+02
      vertex   -1.359491e+02 3.544283e+02 -2.460906e+02
    endloop
  endfacet
  facet normal 1.762491e-01 -9.684382e-01 1.762491e-01
    outer loop
      vertex   -1.345349e+02 3.544283e+02 -2.475048e+02
      vertex   -1.359491e+02 3.544283e+02 -2.460906e+02
      vertex   -1.357848e+02 3.539734e+02 -2.487546e+02
    endloop
  endfacet
  facet normal 1.762491e-01 -9.684382e-01 1.762491e-01
    outer loop
      vertex   -1.357848e+02 3.539734e+02 -2.487546e+02
      vertex   -1.359491e+02 3.544283e+02 -2.460906e+02
      vertex   -1.371990e+02 3.539734e+02 -2.473404e+02
    endloop
  endfacet
  facet normal 8.882792e-02 -9.920782e-01 8.882792e-02
    outer loop
      vertex   -1.357848e+02 3.539734e+02 -2.487546e+02
      vertex   -1.371990e+02 3.539734e+02 -2.473404e+02
      vertex   -1.370651e+02 3.537441e+02 -2.500350e+02
    endloop
  endfacet
  facet normal 8.882792e-02 -9.920782e-01 8.882792e-02
    outer loop
      vertex   -1.370651e+02 3.537441e+02 -2.500350e+02
      vertex   -1.371990e+02 3.539734e+02 -2.473404e+02
      vertex   -1.384793e+02 3.537441e+02 -2.486207e+02
    endloop
  endfacet
  facet normal -5.941801e-07 -1.000000e+00 -5.941801e-07
    outer loop
      vertex   -1.370651e+02 3.537441e+02 -2.500350e+02
      vertex   -1.384793e+02 3.537441e+02 -2.486207e+02
      vertex   -1.383557e+02 3.537441e+02 -2.513255e+02
    endloop
  endfacet
  facet normal -5.941801e-07 -1.000000e+00 -5.941801e-07
    outer loop
      vertex   -1.383557e+02 3.537441e+02 -2.513255e+02
      vertex   -1.384793e+02 3.537441e+02 -2.486207e+02
      vertex   -1.397699e+02 3.537441e+02 -2.499113e+02
    endloop
  endfacet
  facet normal -8.882909e-02 -9.920780e-01 -8.882909e-02
    outer loop
      vertex   -1.383557e+02 3.537441e+02 -2.513255e+02
      vertex   -1.397699e+02 3.537441e+02 -2.499113e+02
      vertex   -1.396360e+02 3.539734e+02 -2.526059e+02
    endloop
  endfacet
  facet normal -8.882909e-02 -9.920780e-01 -8.882909e-02
    outer loop
      vertex   -1.396360e+02 3.539734e+02 -2.526059e+02
      vertex   -1.397699e+02 3.537441e+02 -2.499113e+02
      vertex   -1.410502e+02 3.539734e+02 -2.511917e+02
    endloop
  endfacet
  facet normal -1.762502e-01 -9.684378e-01 -1.762502e-01
    outer loop
      vertex   -1.396360e+02 3.539734e+02 -2.526059e+02
      vertex   -1.410502e+02 3.539734e+02 -2.511917e+02
      vertex   -1.408859e+02 3.544283e+02 -2.538557e+02
    endloop
  endfacet
  facet normal -1.762502e-01 -9.684378e-01 -1.762502e-01
    outer loop
      vertex   -1.408859e+02 3.544283e+02 -2.538557e+02
      vertex   -1.410502e+02 3.539734e+02 -2.511917e+02
      vertex   -1.423001e+02 3.544283e+02 -2.524415e+02
    endloop
  endfacet
  facet normal -2.608789e-01 -9.294538e-01 -2.608789e-01
    outer loop
      vertex   -1.408859e+02 3.544283e+02 -2.538557e+02
      vertex   -1.423001e+02 3.544283e+02 -2.524415e+02
      vertex   -1.420854e+02 3.551017e+02 -2.550552e+02
    endloop
  endfacet
  facet normal -2.608789e-01 -9.294538e-01 -2.608789e-01
    outer loop
      vertex   -1.420854e+02 3.551017e+02 -2.550552e+02
      vertex   -1.423001e+02 3.544283e+02 -2.524415e+02
      vertex   -1.434996e+02 3.551017e+02 -2.536410e+02
    endloop
  endfacet
  facet normal -3.413742e-01 -8.757439e-01 -3.413742e-01
    outer loop
      vertex   -1.420854e+02 3.551017e+02 -2.550552e+02
      vertex   -1.434996e+02 3.551017e+02 -2.536410e+02
      vertex   -1.432156e+02 3.559828e+02 -2.561855e+02
    endloop
  endfacet
  facet normal -3.413742e-01 -8.757439e-01 -3.413742e-01
    outer loop
      vertex   -1.432156e+02 3.559828e+02 -2.561855e+02
      vertex   -1.434996e+02 3.551017e+02 -2.536410e+02
      vertex   -1.446298e+02 3.559828e+02 -2.547712e+02
    endloop
  endfacet
  facet normal -4.164609e-01 -8.081588e-01 -4.164609e-01
    outer loop
      vertex   -1.432156e+02 3.559828e+02 -2.561855e+02
      vertex   -1.446298e+02 3.559828e+02 -2.547712e+02
      vertex   -1.442586e+02 3.570577e+02 -2.572284e+02
    endloop
  endfacet
  facet normal -4.164609e-01 -8.081588e-01 -4.164609e-01
    outer loop
      vertex   -1.442586e+02 3.570577e+02 -2.572284e+02
      vertex   -1.446298e+02 3.559828e+02 -2.547712e+02
      vertex   -1.456728e+02 3.570577e+02 -2.558142e+02
    endloop
  endfacet
  facet normal -4.849493e-01 -7.277695e-01 -4.849493e-01
    outer loop
      vertex   -1.442586e+02 3.570577e+02 -2.572284e+02
      vertex   -1.456728e+02 3.570577e+02 -2.558142e+02
      vertex   -1.451978e+02 3.583095e+02 -2.581677e+02
    endloop
  endfacet
  facet normal -4.849493e-01 -7.277695e-01 -4.849493e-01
    outer loop
      vertex   -1.451978e+02 3.583095e+02 -2.581677e+02
      vertex   -1.456728e+02 3.570577e+02 -2.558142e+02
      vertex   -1.466120e+02 3.583095e+02 -2.567535e+02
    endloop
  endfacet
  facet normal -5.457542e-01 -6.358495e-01 -5.457542e-01
    outer loop
      vertex   -1.451978e+02 3.583095e+02 -2.581677e+02
      vertex   -1.466120e+02 3.583095e+02 -2.567535e+02
      vertex   -1.460184e+02 3.597181e+02 -2.589883e+02
    endloop
  endfacet
  facet normal -5.457542e-01 -6.358495e-01 -5.457542e-01
    outer loop
      vertex   -1.460184e+02 3.597181e+02 -2.589883e+02
      vertex   -1.466120e+02 3.583095e+02 -2.567535e+02
      vertex   -1.474327e+02 3.597181e+02 -2.575741e+02
    endloop
  endfacet
  facet normal -5.979124e-01 -5.338553e-01 -5.979124e-01
    outer loop
      vertex   -1.460184e+02 3.597181e+02 -2.589883e+02
      vertex   -1.474327e+02 3.597181e+02 -2.575741e+02
      vertex   -1.467074e+02 3.612614e+02 -2.596773e+02
    endloop
  endfacet
  facet normal -5.979124e-01 -5.338553e-01 -5.979124e-01
    outer loop
      vertex   -1.467074e+02 3.612614e+02 -2.596773e+02
      vertex   -1.474327e+02 3.597181e+02 -2.575741e+02
      vertex   -1.481216e+02 3.612614e+02 -2.582631e+02
    endloop
  endfacet
  facet normal -6.405974e-01 -4.234029e-01 -6.405974e-01
    outer loop
      vertex   -1.467074e+02 3.612614e+02 -2.596773e+02
      vertex   -1.481216e+02 3.612614e+02 -2.582631e+02
      vertex   -1.472539e+02 3.629149e+02 -2.602237e+02
    endloop
  endfacet
  facet normal -6.405974e-01 -4.234029e-01 -6.405974e-01
    outer loop
      vertex   -1.472539e+02 3.629149e+02 -2.602237e+02
      vertex   -1.481216e+02 3.612614e+02 -2.582631e+02
      vertex   -1.486681e+02 3.629149e+02 -2.588095e+02
    endloop
  endfacet
  facet normal 7.071068e-01 0.000000e+00 7.071068e-01
    outer loop
      vertex   -1.295811e+02 3.679074e+02 -2.397226e+02
      vertex   -1.295811e+02 3.629149e+02 -2.397226e+02
      vertex   -1.281669e+02 3.679074e+02 -2.411368e+02
    endloop
  endfacet
  facet normal 7.071068e-01 0.000000e+00 7.071068e-01
    outer loop
      vertex   -1.281669e+02 3.679074e+02 -2.411368e+02
      vertex   -1.295811e+02 3.629149e+02 -2.397226e+02
      vertex   -1.281669e+02 3.629149e+02 -2.411368e+02
    endloop
  endfacet
  facet normal 7.071068e-01 0.000000e+00 -7.071068e-01
    outer loop
      vertex   -1.281669e+02 3.679074e+02 -2.411368e+02
      vertex   -1.281669e+02 3.629149e+02 -2.411368e+02
      vertex   -1.282825e+02 3.660989e+02 -2.412523e+02
    endloop
  endfacet
  facet normal 7.071068e-01 -9.315370e-15 -7.071068e-01
    outer loop
      vertex   -1.282825e+02 3.660989e+02 -2.412523e+02
      vertex   -1.281669e+02 3.629149e+02 -2.411368e+02
      vertex   -1.285686e+02 3.643287e+02 -2.415385e+02
    endloop
  endfacet
  facet normal 7.071068e-01 1.908875e-14 -7.071068e-01
    outer loop
      vertex   -1.285686e+02 3.643287e+02 -2.415385e+02
      vertex   -1.281669e+02 3.629149e+02 -2.411368e+02
      vertex   -1.290201e+02 3.626289e+02 -2.419900e+02
    endloop
  endfacet
  facet normal 7.071068e-01 4.912619e-15 -7.071068e-01
    outer loop
      vertex   -1.290201e+02 3.626289e+02 -2.419900e+02
      vertex   -1.281669e+02 3.629149e+02 -2.411368e+02
      vertex   -1.287134e+02 3.612614e+02 -2.416832e+02
    endloop
  endfacet
  facet normal 7.071068e-01 0.000000e+00 -7.071068e-01
    outer loop
      vertex   -1.290201e+02 3.626289e+02 -2.419900e+02
      vertex   -1.287134e+02 3.612614e+02 -2.416832e+02
      vertex   -1.296289e+02 3.610301e+02 -2.425987e+02
    endloop
  endfacet
  facet normal 7.071068e-01 1.467062e-14 -7.071068e-01
    outer loop
      vertex   -1.296289e+02 3.610301e+02 -2.425987e+02
      vertex   -1.287134e+02 3.612614e+02 -2.416832e+02
      vertex   -1.294023e+02 3.597181e+02 -2.423722e+02
    endloop
  endfacet
  facet normal 7.071068e-01 1.834781e-14 -7.071068e-01
    outer loop
      vertex   -1.296289e+02 3.610301e+02 -2.425987e+02
      vertex   -1.294023e+02 3.597181e+02 -2.423722e+02
      vertex   -1.303838e+02 3.595613e+02 -2.433537e+02
    endloop
  endfacet
  facet normal 7.071068e-01 -2.887879e-14 -7.071068e-01
    outer loop
      vertex   -1.303838e+02 3.595613e+02 -2.433537e+02
      vertex   -1.294023e+02 3.597181e+02 -2.423722e+02
      vertex   -1.302230e+02 3.583094e+02 -2.431928e+02
    endloop
  endfacet
  facet normal 7.071068e-01 -2.698767e-14 -7.071068e-01
    outer loop
      vertex   -1.303838e+02 3.595613e+02 -2.433537e+02
      vertex   -1.302230e+02 3.583094e+02 -2.431928e+02
      vertex   -1.312713e+02 3.582490e+02 -2.442412e+02
    endloop
  endfacet
  facet normal 7.071068e-01 -1.328690e-14 -7.071068e-01
    outer loop
      vertex   -1.312713e+02 3.582490e+02 -2.442412e+02
      vertex   -1.302230e+02 3.583094e+02 -2.431928e+02
      vertex   -1.311622e+02 3.570577e+02 -2.441320e+02
    endloop
  endfacet
  facet normal 7.071068e-01 -1.528904e-14 -7.071068e-01
    outer loop
      vertex   -1.312713e+02 3.582490e+02 -2.442412e+02
      vertex   -1.311622e+02 3.570577e+02 -2.441320e+02
      vertex   -1.322753e+02 3.571171e+02 -2.452452e+02
    endloop
  endfacet
  facet normal 7.071068e-01 1.115022e-15 -7.071068e-01
    outer loop
      vertex   -1.322753e+02 3.571171e+02 -2.452452e+02
      vertex   -1.311622e+02 3.570577e+02 -2.441320e+02
      vertex   -1.322052e+02 3.559828e+02 -2.451750e+02
    endloop
  endfacet
  facet normal 7.071068e-01 2.140504e-15 -7.071068e-01
    outer loop
      vertex   -1.322753e+02 3.571171e+02 -2.452452e+02
      vertex   -1.322052e+02 3.559828e+02 -2.451750e+02
      vertex   -1.333777e+02 3.561860e+02 -2.463475e+02
    endloop
  endfacet
  facet normal 7.071068e-01 -3.597558e-14 -7.071068e-01
    outer loop
      vertex   -1.333777e+02 3.561860e+02 -2.463475e+02
      vertex   -1.322052e+02 3.559828e+02 -2.451750e+02
      vertex   -1.333354e+02 3.551016e+02 -2.463052e+02
    endloop
  endfacet
  facet normal 7.071068e-01 -3.686432e-14 -7.071068e-01
    outer loop
      vertex   -1.333777e+02 3.561860e+02 -2.463475e+02
      vertex   -1.333354e+02 3.551016e+02 -2.463052e+02
      vertex   -1.345584e+02 3.554725e+02 -2.475282e+02
    endloop
  endfacet
  facet normal 7.071068e-01 3.912860e-14 -7.071068e-01
    outer loop
      vertex   -1.345584e+02 3.554725e+02 -2.475282e+02
      vertex   -1.333354e+02 3.551016e+02 -2.463052e+02
      vertex   -1.345349e+02 3.544283e+02 -2.475048e+02
    endloop
  endfacet
  facet normal 7.071068e-01 3.852032e-14 -7.071068e-01
    outer loop
      vertex   -1.345584e+02 3.554725e+02 -2.475282e+02
      vertex   -1.345349e+02 3.544283e+02 -2.475048e+02
      vertex   -1.357961e+02 3.549896e+02 -2.487660e+02
    endloop
  endfacet
  facet normal 7.071068e-01 -1.798701e-16 -7.071068e-01
    outer loop
      vertex   -1.357961e+02 3.549896e+02 -2.487660e+02
      vertex   -1.345349e+02 3.544283e+02 -2.475048e+02
      vertex   -1.357848e+02 3.539734e+02 -2.487546e+02
    endloop
  endfacet
  facet normal 7.071068e-01 0.000000e+00 -7.071068e-01
    outer loop
      vertex   -1.357961e+02 3.549896e+02 -2.487660e+02
      vertex   -1.357848e+02 3.539734e+02 -2.487546e+02
      vertex   -1.370685e+02 3.547459e+02 -2.500384e+02
    endloop
  endfacet
  facet normal 7.071068e-01 0.000000e+00 -7.071068e-01
    outer loop
      vertex   -1.370685e+02 3.547459e+02 -2.500384e+02
      vertex   -1.357848e+02 3.539734e+02 -2.487546e+02
      vertex   -1.370651e+02 3.537441e+02 -2.500350e+02
    endloop
  endfacet
  facet normal 7.071068e-01 1.062593e-16 -7.071068e-01
    outer loop
      vertex   -1.370685e+02 3.547459e+02 -2.500384e+02
      vertex   -1.370651e+02 3.537441e+02 -2.500350e+02
      vertex   -1.383557e+02 3.537441e+02 -2.513255e+02
    endloop
  endfacet
  facet normal 7.071068e-01 -1.220583e-16 -7.071068e-01
    outer loop
      vertex   -1.370685e+02 3.547459e+02 -2.500384e+02
      vertex   -1.383557e+02 3.537441e+02 -2.513255e+02
      vertex   -1.383525e+02 3.547459e+02 -2.513224e+02
    endloop
  endfacet
  facet normal 7.071068e-01 0.000000e+00 -7.071068e-01
    outer loop
      vertex   -1.383525e+02 3.547459e+02 -2.513224e+02
      vertex   -1.383557e+02 3.537441e+02 -2.513255e+02
      vertex   -1.396360e+02 3.539734e+02 -2.526059e+02
    endloop
  endfacet
  facet normal 7.071068e-01 0.000000e+00 -7.071068e-01
    outer loop
      vertex   -1.383525e+02 3.547459e+02 -2.513224e+02
      vertex   -1.396360e+02 3.539734e+02 -2.526059e+02
      vertex   -1.396249e+02 3.549896e+02 -2.525947e+02
    endloop
  endfacet
  facet normal 7.071068e-01 -3.501279e-16 -7.071068e-01
    outer loop
      vertex   -1.396249e+02 3.549896e+02 -2.525947e+02
      vertex   -1.396360e+02 3.539734e+02 -2.526059e+02
      vertex   -1.408859e+02 3.544283e+02 -2.538557e+02
    endloop
  endfacet
  facet normal 7.071068e-01 3.805300e-14 -7.071068e-01
    outer loop
      vertex   -1.396249e+02 3.549896e+02 -2.525947e+02
      vertex   -1.408859e+02 3.544283e+02 -2.538557e+02
      vertex   -1.408626e+02 3.554726e+02 -2.538325e+02
    endloop
  endfacet
  facet normal 7.071068e-01 3.764566e-14 -7.071068e-01
    outer loop
      vertex   -1.408626e+02 3.554726e+02 -2.538325e+02
      vertex   -1.408859e+02 3.544283e+02 -2.538557e+02
      vertex   -1.420854e+02 3.551017e+02 -2.550552e+02
    endloop
  endfacet
  facet normal 7.071068e-01 7.308362e-14 -7.071068e-01
    outer loop
      vertex   -1.408626e+02 3.554726e+02 -2.538325e+02
      vertex   -1.420854e+02 3.551017e+02 -2.550552e+02
      vertex   -1.420433e+02 3.561862e+02 -2.550132e+02
    endloop
  endfacet
  facet normal 7.071068e-01 7.261648e-14 -7.071068e-01
    outer loop
      vertex   -1.420433e+02 3.561862e+02 -2.550132e+02
      vertex   -1.420854e+02 3.551017e+02 -2.550552e+02
      vertex   -1.432156e+02 3.559828e+02 -2.561855e+02
    endloop
  endfacet
  facet normal 7.071068e-01 -3.221908e-15 -7.071068e-01
    outer loop
      vertex   -1.420433e+02 3.561862e+02 -2.550132e+02
      vertex   -1.432156e+02 3.559828e+02 -2.561855e+02
      vertex   -1.431457e+02 3.571173e+02 -2.561155e+02
    endloop
  endfacet
  facet normal 7.071068e-01 0.000000e+00 -7.071068e-01
    outer loop
      vertex   -1.431457e+02 3.571173e+02 -2.561155e+02
      vertex   -1.432156e+02 3.559828e+02 -2.561855e+02
      vertex   -1.442586e+02 3.570577e+02 -2.572284e+02
    endloop
  endfacet
  facet normal 7.071068e-01 0.000000e+00 -7.071068e-01
    outer loop
      vertex   -1.431457e+02 3.571173e+02 -2.561155e+02
      vertex   -1.442586e+02 3.570577e+02 -2.572284e+02
      vertex   -1.441496e+02 3.582493e+02 -2.571195e+02
    endloop
  endfacet
  facet normal 7.071068e-01 -3.485878e-15 -7.071068e-01
    outer loop
      vertex   -1.441496e+02 3.582493e+02 -2.571195e+02
      vertex   -1.442586e+02 3.570577e+02 -2.572284e+02
      vertex   -1.451978e+02 3.583095e+02 -2.581677e+02
    endloop
  endfacet
  facet normal 7.071068e-01 -4.869041e-15 -7.071068e-01
    outer loop
      vertex   -1.441496e+02 3.582493e+02 -2.571195e+02
      vertex   -1.451978e+02 3.583095e+02 -2.581677e+02
      vertex   -1.450371e+02 3.595616e+02 -2.580070e+02
    endloop
  endfacet
  facet normal 7.071068e-01 5.149673e-15 -7.071068e-01
    outer loop
      vertex   -1.450371e+02 3.595616e+02 -2.580070e+02
      vertex   -1.451978e+02 3.583095e+02 -2.581677e+02
      vertex   -1.460184e+02 3.597181e+02 -2.589883e+02
    endloop
  endfacet
  facet normal 7.071068e-01 -2.290137e-14 -7.071068e-01
    outer loop
      vertex   -1.450371e+02 3.595616e+02 -2.580070e+02
      vertex   -1.460184e+02 3.597181e+02 -2.589883e+02
      vertex   -1.457920e+02 3.610304e+02 -2.587619e+02
    endloop
  endfacet
  facet normal 7.071068e-01 -3.660607e-14 -7.071068e-01
    outer loop
      vertex   -1.457920e+02 3.610304e+02 -2.587619e+02
      vertex   -1.460184e+02 3.597181e+02 -2.589883e+02
      vertex   -1.467074e+02 3.612614e+02 -2.596773e+02
    endloop
  endfacet
  facet normal 7.071068e-01 1.851532e-14 -7.071068e-01
    outer loop
      vertex   -1.457920e+02 3.610304e+02 -2.587619e+02
      vertex   -1.467074e+02 3.612614e+02 -2.596773e+02
      vertex   -1.464008e+02 3.626292e+02 -2.593706e+02
    endloop
  endfacet
  facet normal 7.071068e-01 2.734785e-14 -7.071068e-01
    outer loop
      vertex   -1.464008e+02 3.626292e+02 -2.593706e+02
      vertex   -1.467074e+02 3.612614e+02 -2.596773e+02
      vertex   -1.472539e+02 3.629149e+02 -2.602237e+02
    endloop
  endfacet
  facet normal 7.071068e-01 0.000000e+00 -7.071068e-01
    outer loop
      vertex   -1.464008e+02 3.626292e+02 -2.593706e+02
      vertex   -1.472539e+02 3.629149e+02 -2.602237e+02
      vertex   -1.468522e+02 3.643291e+02 -2.598221e+02
    endloop
  endfacet
  facet normal 7.071068e-01 0.000000e+00 -7.071068e-01
    outer loop
      vertex   -1.468522e+02 3.643291e+02 -2.598221e+02
      vertex   -1.472539e+02 3.629149e+02 -2.602237e+02
      vertex   -1.471383e+02 3.660993e+02 -2.601082e+02
    endloop
  endfacet
  facet normal 7.071068e-01 0.000000e+00 -7.071068e-01
    outer loop
      vertex   -1.471383e+02 3.660993e+02 -2.601082e+02
      vertex   -1.472539e+02 3.629149e+02 -2.602237e+02
      vertex   -1.472539e+02 3.679078e+02 -2.602237e+02
    endloop
  endfacet
  facet normal -7.071068e-01 0.000000e+00 7.071068e-01
    outer loop
      vertex   -1.295811e+02 3.679074e+02 -2.397226e+02
      vertex   -1.296967e+02 3.660989e+02 -2.398381e+02
      vertex   -1.295811e+02 3.629149e+02 -2.397226e+02
    endloop
  endfacet
  facet normal -7.071068e-01 7.235025e-15 7.071068e-01
    outer loop
      vertex   -1.295811e+02 3.629149e+02 -2.397226e+02
      vertex   -1.296967e+02 3.660989e+02 -2.398381e+02
      vertex   -1.299828e+02 3.643287e+02 -2.401242e+02
    endloop
  endfacet
  facet normal -7.071068e-01 -1.221086e-14 7.071068e-01
    outer loop
      vertex   -1.295811e+02 3.629149e+02 -2.397226e+02
      vertex   -1.299828e+02 3.643287e+02 -2.401242e+02
      vertex   -1.304343e+02 3.626289e+02 -2.405758e+02
    endloop
  endfacet
  facet normal -7.071068e-01 -9.825238e-15 7.071068e-01
    outer loop
      vertex   -1.295811e+02 3.629149e+02 -2.397226e+02
      vertex   -1.304343e+02 3.626289e+02 -2.405758e+02
      vertex   -1.301276e+02 3.612614e+02 -2.402690e+02
    endloop
  endfacet
  facet normal -7.071068e-01 4.658490e-15 7.071068e-01
    outer loop
      vertex   -1.301276e+02 3.612614e+02 -2.402690e+02
      vertex   -1.304343e+02 3.626289e+02 -2.405758e+02
      vertex   -1.310431e+02 3.610301e+02 -2.411845e+02
    endloop
  endfacet
  facet normal -7.071068e-01 -1.102254e-14 7.071068e-01
    outer loop
      vertex   -1.301276e+02 3.612614e+02 -2.402690e+02
      vertex   -1.310431e+02 3.610301e+02 -2.411845e+02
      vertex   -1.308166e+02 3.597181e+02 -2.409580e+02
    endloop
  endfacet
  facet normal -7.071068e-01 -1.834781e-14 7.071068e-01
    outer loop
      vertex   -1.308166e+02 3.597181e+02 -2.409580e+02
      vertex   -1.310431e+02 3.610301e+02 -2.411845e+02
      vertex   -1.317980e+02 3.595613e+02 -2.419395e+02
    endloop
  endfacet
  facet normal -7.071068e-01 2.892575e-14 7.071068e-01
    outer loop
      vertex   -1.308166e+02 3.597181e+02 -2.409580e+02
      vertex   -1.317980e+02 3.595613e+02 -2.419395e+02
      vertex   -1.316372e+02 3.583094e+02 -2.417786e+02
    endloop
  endfacet
  facet normal -7.071068e-01 2.943704e-14 7.071068e-01
    outer loop
      vertex   -1.316372e+02 3.583094e+02 -2.417786e+02
      vertex   -1.317980e+02 3.595613e+02 -2.419395e+02
      vertex   -1.326855e+02 3.582490e+02 -2.428270e+02
    endloop
  endfacet
  facet normal -7.071068e-01 -1.750745e-15 7.071068e-01
    outer loop
      vertex   -1.316372e+02 3.583094e+02 -2.417786e+02
      vertex   -1.326855e+02 3.582490e+02 -2.428270e+02
      vertex   -1.325764e+02 3.570577e+02 -2.427178e+02
    endloop
  endfacet
  facet normal -7.071068e-01 -1.665732e-15 7.071068e-01
    outer loop
      vertex   -1.325764e+02 3.570577e+02 -2.427178e+02
      vertex   -1.326855e+02 3.582490e+02 -2.428270e+02
      vertex   -1.336896e+02 3.571171e+02 -2.438310e+02
    endloop
  endfacet
  facet normal -7.071068e-01 -1.896318e-14 7.071068e-01
    outer loop
      vertex   -1.325764e+02 3.570577e+02 -2.427178e+02
      vertex   -1.336896e+02 3.571171e+02 -2.438310e+02
      vertex   -1.336194e+02 3.559828e+02 -2.437608e+02
    endloop
  endfacet
  facet normal -7.071068e-01 -1.898112e-14 7.071068e-01
    outer loop
      vertex   -1.336194e+02 3.559828e+02 -2.437608e+02
      vertex   -1.336896e+02 3.571171e+02 -2.438310e+02
      vertex   -1.347919e+02 3.561860e+02 -2.449333e+02
    endloop
  endfacet
  facet normal -7.071068e-01 1.802859e-14 7.071068e-01
    outer loop
      vertex   -1.336194e+02 3.559828e+02 -2.437608e+02
      vertex   -1.347919e+02 3.561860e+02 -2.449333e+02
      vertex   -1.347496e+02 3.551016e+02 -2.448910e+02
    endloop
  endfacet
  facet normal -7.071068e-01 1.875790e-14 7.071068e-01
    outer loop
      vertex   -1.347496e+02 3.551016e+02 -2.448910e+02
      vertex   -1.347919e+02 3.561860e+02 -2.449333e+02
      vertex   -1.359726e+02 3.554725e+02 -2.461140e+02
    endloop
  endfacet
  facet normal -7.071068e-01 -3.874563e-14 7.071068e-01
    outer loop
      vertex   -1.347496e+02 3.551016e+02 -2.448910e+02
      vertex   -1.359726e+02 3.554725e+02 -2.461140e+02
      vertex   -1.359491e+02 3.544283e+02 -2.460906e+02
    endloop
  endfacet
  facet normal -7.071068e-01 -3.887970e-14 7.071068e-01
    outer loop
      vertex   -1.359491e+02 3.544283e+02 -2.460906e+02
      vertex   -1.359726e+02 3.554725e+02 -2.461140e+02
      vertex   -1.372104e+02 3.549896e+02 -2.473518e+02
    endloop
  endfacet
  facet normal -7.071068e-01 -1.982226e-14 7.071068e-01
    outer loop
      vertex   -1.359491e+02 3.544283e+02 -2.460906e+02
      vertex   -1.372104e+02 3.549896e+02 -2.473518e+02
      vertex   -1.371990e+02 3.539734e+02 -2.473404e+02
    endloop
  endfacet
  facet normal -7.071068e-01 -1.938176e-14 7.071068e-01
    outer loop
      vertex   -1.371990e+02 3.539734e+02 -2.473404e+02
      vertex   -1.372104e+02 3.549896e+02 -2.473518e+02
      vertex   -1.384827e+02 3.547459e+02 -2.486242e+02
    endloop
  endfacet
  facet normal -7.071068e-01 -6.018840e-14 7.071068e-01
    outer loop
      vertex   -1.371990e+02 3.539734e+02 -2.473404e+02
      vertex   -1.384827e+02 3.547459e+02 -2.486242e+02
      vertex   -1.384793e+02 3.537441e+02 -2.486207e+02
    endloop
  endfacet
  facet normal -7.071068e-01 -6.012948e-14 7.071068e-01
    outer loop
      vertex   -1.384793e+02 3.537441e+02 -2.486207e+02
      vertex   -1.384827e+02 3.547459e+02 -2.486242e+02
      vertex   -1.397699e+02 3.537441e+02 -2.499113e+02
    endloop
  endfacet
  facet normal -7.071068e-01 -2.001136e-14 7.071068e-01
    outer loop
      vertex   -1.397699e+02 3.537441e+02 -2.499113e+02
      vertex   -1.384827e+02 3.547459e+02 -2.486242e+02
      vertex   -1.397667e+02 3.547459e+02 -2.499082e+02
    endloop
  endfacet
  facet normal -7.071068e-01 -1.985153e-14 7.071068e-01
    outer loop
      vertex   -1.397699e+02 3.537441e+02 -2.499113e+02
      vertex   -1.397667e+02 3.547459e+02 -2.499082e+02
      vertex   -1.410502e+02 3.539734e+02 -2.511917e+02
    endloop
  endfacet
  facet normal -7.071068e-01 -5.885686e-14 7.071068e-01
    outer loop
      vertex   -1.410502e+02 3.539734e+02 -2.511917e+02
      vertex   -1.397667e+02 3.547459e+02 -2.499082e+02
      vertex   -1.410391e+02 3.549896e+02 -2.511805e+02
    endloop
  endfacet
  facet normal -7.071068e-01 -5.926588e-14 7.071068e-01
    outer loop
      vertex   -1.410502e+02 3.539734e+02 -2.511917e+02
      vertex   -1.410391e+02 3.549896e+02 -2.511805e+02
      vertex   -1.423001e+02 3.544283e+02 -2.524415e+02
    endloop
  endfacet
  facet normal -7.071068e-01 -1.872168e-14 7.071068e-01
    outer loop
      vertex   -1.423001e+02 3.544283e+02 -2.524415e+02
      vertex   -1.410391e+02 3.549896e+02 -2.511805e+02
      vertex   -1.422769e+02 3.554726e+02 -2.524183e+02
    endloop
  endfacet
  facet normal -7.071068e-01 -1.863811e-14 7.071068e-01
    outer loop
      vertex   -1.423001e+02 3.544283e+02 -2.524415e+02
      vertex   -1.422769e+02 3.554726e+02 -2.524183e+02
      vertex   -1.434996e+02 3.551017e+02 -2.536410e+02
    endloop
  endfacet
  facet normal -7.071068e-01 -3.621233e-14 7.071068e-01
    outer loop
      vertex   -1.434996e+02 3.551017e+02 -2.536410e+02
      vertex   -1.422769e+02 3.554726e+02 -2.524183e+02
      vertex   -1.434576e+02 3.561862e+02 -2.535990e+02
    endloop
  endfacet
  facet normal -7.071068e-01 -3.597603e-14 7.071068e-01
    outer loop
      vertex   -1.434996e+02 3.551017e+02 -2.536410e+02
      vertex   -1.434576e+02 3.561862e+02 -2.535990e+02
      vertex   -1.446298e+02 3.559828e+02 -2.547712e+02
    endloop
  endfacet
  facet normal -7.071068e-01 -1.576647e-14 7.071068e-01
    outer loop
      vertex   -1.446298e+02 3.559828e+02 -2.547712e+02
      vertex   -1.434576e+02 3.561862e+02 -2.535990e+02
      vertex   -1.445599e+02 3.571173e+02 -2.547013e+02
    endloop
  endfacet
  facet normal -7.071068e-01 -1.777034e-14 7.071068e-01
    outer loop
      vertex   -1.446298e+02 3.559828e+02 -2.547712e+02
      vertex   -1.445599e+02 3.571173e+02 -2.547013e+02
      vertex   -1.456728e+02 3.570577e+02 -2.558142e+02
    endloop
  endfacet
  facet normal -7.071068e-01 -1.695464e-14 7.071068e-01
    outer loop
      vertex   -1.456728e+02 3.570577e+02 -2.558142e+02
      vertex   -1.445599e+02 3.571173e+02 -2.547013e+02
      vertex   -1.455639e+02 3.582493e+02 -2.557053e+02
    endloop
  endfacet
  facet normal -7.071068e-01 -1.328698e-14 7.071068e-01
    outer loop
      vertex   -1.456728e+02 3.570577e+02 -2.558142e+02
      vertex   -1.455639e+02 3.582493e+02 -2.557053e+02
      vertex   -1.466120e+02 3.583095e+02 -2.567535e+02
    endloop
  endfacet
  facet normal -7.071068e-01 4.883886e-15 7.071068e-01
    outer loop
      vertex   -1.466120e+02 3.583095e+02 -2.567535e+02
      vertex   -1.455639e+02 3.582493e+02 -2.557053e+02
      vertex   -1.464513e+02 3.595616e+02 -2.565928e+02
    endloop
  endfacet
  facet normal -7.071068e-01 -5.149673e-15 7.071068e-01
    outer loop
      vertex   -1.466120e+02 3.583095e+02 -2.567535e+02
      vertex   -1.464513e+02 3.595616e+02 -2.565928e+02
      vertex   -1.474327e+02 3.597181e+02 -2.575741e+02
    endloop
  endfacet
  facet normal -7.071068e-01 2.293104e-14 7.071068e-01
    outer loop
      vertex   -1.474327e+02 3.597181e+02 -2.575741e+02
      vertex   -1.464513e+02 3.595616e+02 -2.565928e+02
      vertex   -1.472063e+02 3.610304e+02 -2.573477e+02
    endloop
  endfacet
  facet normal -7.071068e-01 3.660607e-14 7.071068e-01
    outer loop
      vertex   -1.474327e+02 3.597181e+02 -2.575741e+02
      vertex   -1.472063e+02 3.610304e+02 -2.573477e+02
      vertex   -1.481216e+02 3.612614e+02 -2.582631e+02
    endloop
  endfacet
  facet normal -7.071068e-01 -1.848564e-14 7.071068e-01
    outer loop
      vertex   -1.481216e+02 3.612614e+02 -2.582631e+02
      vertex   -1.472063e+02 3.610304e+02 -2.573477e+02
      vertex   -1.478150e+02 3.626292e+02 -2.579564e+02
    endloop
  endfacet
  facet normal -7.071068e-01 -2.733220e-14 7.071068e-01
    outer loop
      vertex   -1.481216e+02 3.612614e+02 -2.582631e+02
      vertex   -1.478150e+02 3.626292e+02 -2.579564e+02
      vertex   -1.486681e+02 3.629149e+02 -2.588095e+02
    endloop
  endfacet
  facet normal -7.071068e-01 2.596679e-14 7.071068e-01
    outer loop
      vertex   -1.486681e+02 3.629149e+02 -2.588095e+02
      vertex   -1.478150e+02 3.626292e+02 -2.579564e+02
      vertex   -1.482665e+02 3.643291e+02 -2.584079e+02
    endloop
  endfacet
  facet normal -7.071068e-01 -4.165370e-15 7.071068e-01
    outer loop
      vertex   -1.486681e+02 3.629149e+02 -2.588095e+02
      vertex   -1.482665e+02 3.643291e+02 -2.584079e+02
      vertex   -1.485525e+02 3.660993e+02 -2.586940e+02
    endloop
  endfacet
  facet normal -7.071068e-01 0.000000e+00 7.071068e-01
    outer loop
      vertex   -1.485525e+02 3.660993e+02 -2.586940e+02
      vertex   -1.486681e+02 3.679078e+02 -2.588095e+02
      vertex   -1.486681e+02 3.629149e+02 -2.588095e+02
    endloop
  endfacet
endsolid
