solid ASCII
  facet normal 7.053052e-01 7.133918e-02 -7.053052e-01
    outer loop
      vertex   -1.098479e+02 3.078094e+02 -1.898666e+02
      vertex   -1.119692e+02 3.078094e+02 -1.919879e+02
      vertex   -1.099271e+02 3.093748e+02 -1.897874e+02
    endloop
  endfacet
  facet normal 7.053052e-01 7.133918e-02 -7.053052e-01
    outer loop
      vertex   -1.099271e+02 3.093748e+02 -1.897874e+02
      vertex   -1.119692e+02 3.078094e+02 -1.919879e+02
      vertex   -1.120484e+02 3.093748e+02 -1.919087e+02
    endloop
  endfacet
  facet normal 6.909472e-01 2.125653e-01 -6.909472e-01
    outer loop
      vertex   -1.099271e+02 3.093748e+02 -1.897874e+02
      vertex   -1.120484e+02 3.093748e+02 -1.919087e+02
      vertex   -1.101630e+02 3.109084e+02 -1.895515e+02
    endloop
  endfacet
  facet normal 6.909472e-01 2.125653e-01 -6.909472e-01
    outer loop
      vertex   -1.101630e+02 3.109084e+02 -1.895515e+02
      vertex   -1.120484e+02 3.093748e+02 -1.919087e+02
      vertex   -1.122843e+02 3.109084e+02 -1.916728e+02
    endloop
  endfacet
  facet normal 6.625235e-01 3.494642e-01 -6.625235e-01
    outer loop
      vertex   -1.101630e+02 3.109084e+02 -1.895515e+02
      vertex   -1.122843e+02 3.109084e+02 -1.916728e+02
      vertex   -1.105508e+02 3.123789e+02 -1.891637e+02
    endloop
  endfacet
  facet normal 6.625235e-01 3.494642e-01 -6.625235e-01
    outer loop
      vertex   -1.105508e+02 3.123789e+02 -1.891637e+02
      vertex   -1.122843e+02 3.109084e+02 -1.916728e+02
      vertex   -1.126721e+02 3.123789e+02 -1.912850e+02
    endloop
  endfacet
  facet normal 6.206128e-01 4.792490e-01 -6.206128e-01
    outer loop
      vertex   -1.105508e+02 3.123789e+02 -1.891637e+02
      vertex   -1.126721e+02 3.123789e+02 -1.912850e+02
      vertex   -1.110827e+02 3.137564e+02 -1.886318e+02
    endloop
  endfacet
  facet normal 6.206128e-01 4.792490e-01 -6.206128e-01
    outer loop
      vertex   -1.110827e+02 3.137564e+02 -1.886318e+02
      vertex   -1.126721e+02 3.123789e+02 -1.912850e+02
      vertex   -1.132040e+02 3.137564e+02 -1.907531e+02
    endloop
  endfacet
  facet normal 5.660681e-01 5.992777e-01 -5.660681e-01
    outer loop
      vertex   -1.110827e+02 3.137564e+02 -1.886318e+02
      vertex   -1.132040e+02 3.137564e+02 -1.907531e+02
      vertex   -1.117477e+02 3.150128e+02 -1.879668e+02
    endloop
  endfacet
  facet normal 5.660681e-01 5.992777e-01 -5.660681e-01
    outer loop
      vertex   -1.117477e+02 3.150128e+02 -1.879668e+02
      vertex   -1.132040e+02 3.137564e+02 -1.907531e+02
      vertex   -1.138690e+02 3.150128e+02 -1.900881e+02
    endloop
  endfacet
  facet normal 5.000000e-01 7.071068e-01 -5.000000e-01
    outer loop
      vertex   -1.117477e+02 3.150128e+02 -1.879668e+02
      vertex   -1.138690e+02 3.150128e+02 -1.900881e+02
      vertex   -1.146538e+02 3.161226e+02 -1.893033e+02
    endloop
  endfacet
  facet normal 5.000000e-01 7.071068e-01 -5.000000e-01
    outer loop
      vertex   -1.117477e+02 3.150128e+02 -1.879668e+02
      vertex   -1.146538e+02 3.161226e+02 -1.893033e+02
      vertex   -1.125325e+02 3.161226e+02 -1.871820e+02
    endloop
  endfacet
  facet normal 4.237533e-01 8.005412e-01 -4.237533e-01
    outer loop
      vertex   -1.125325e+02 3.161226e+02 -1.871820e+02
      vertex   -1.146538e+02 3.161226e+02 -1.893033e+02
      vertex   -1.155422e+02 3.170632e+02 -1.884149e+02
    endloop
  endfacet
  facet normal 4.237533e-01 8.005412e-01 -4.237533e-01
    outer loop
      vertex   -1.125325e+02 3.161226e+02 -1.871820e+02
      vertex   -1.155422e+02 3.170632e+02 -1.884149e+02
      vertex   -1.134209e+02 3.170632e+02 -1.862936e+02
    endloop
  endfacet
  facet normal 3.388802e-01 8.776790e-01 -3.388802e-01
    outer loop
      vertex   -1.134209e+02 3.170632e+02 -1.862936e+02
      vertex   -1.155422e+02 3.170632e+02 -1.884149e+02
      vertex   -1.165162e+02 3.178153e+02 -1.874409e+02
    endloop
  endfacet
  facet normal 3.388802e-01 8.776790e-01 -3.388802e-01
    outer loop
      vertex   -1.134209e+02 3.170632e+02 -1.862936e+02
      vertex   -1.165162e+02 3.178153e+02 -1.874409e+02
      vertex   -1.143949e+02 3.178153e+02 -1.853196e+02
    endloop
  endfacet
  facet normal 2.471085e-01 9.369497e-01 -2.471085e-01
    outer loop
      vertex   -1.143949e+02 3.178153e+02 -1.853196e+02
      vertex   -1.165162e+02 3.178153e+02 -1.874409e+02
      vertex   -1.175560e+02 3.183638e+02 -1.864011e+02
    endloop
  endfacet
  facet normal 2.471085e-01 9.369497e-01 -2.471085e-01
    outer loop
      vertex   -1.143949e+02 3.178153e+02 -1.853196e+02
      vertex   -1.175560e+02 3.183638e+02 -1.864011e+02
      vertex   -1.154347e+02 3.183638e+02 -1.842798e+02
    endloop
  endfacet
  facet normal 1.503064e-01 9.771469e-01 -1.503064e-01
    outer loop
      vertex   -1.154347e+02 3.183638e+02 -1.842798e+02
      vertex   -1.175560e+02 3.183638e+02 -1.864011e+02
      vertex   -1.186404e+02 3.186974e+02 -1.853167e+02
    endloop
  endfacet
  facet normal 1.503064e-01 9.771469e-01 -1.503064e-01
    outer loop
      vertex   -1.154347e+02 3.183638e+02 -1.842798e+02
      vertex   -1.186404e+02 3.186974e+02 -1.853167e+02
      vertex   -1.165191e+02 3.186974e+02 -1.831954e+02
    endloop
  endfacet
  facet normal 5.044442e-02 9.974521e-01 -5.044442e-02
    outer loop
      vertex   -1.165191e+02 3.186974e+02 -1.831954e+02
      vertex   -1.186404e+02 3.186974e+02 -1.853167e+02
      vertex   -1.197474e+02 3.188094e+02 -1.842097e+02
    endloop
  endfacet
  facet normal 5.044442e-02 9.974521e-01 -5.044442e-02
    outer loop
      vertex   -1.165191e+02 3.186974e+02 -1.831954e+02
      vertex   -1.197474e+02 3.188094e+02 -1.842097e+02
      vertex   -1.176261e+02 3.188094e+02 -1.820884e+02
    endloop
  endfacet
  facet normal -7.071068e-01 -1.199366e-14 -7.071068e-01
    outer loop
      vertex   -1.186404e+02 3.186974e+02 -1.853167e+02
      vertex   -1.191110e+02 3.161078e+02 -1.848461e+02
      vertex   -1.197474e+02 3.188094e+02 -1.842097e+02
    endloop
  endfacet
  facet normal -7.071068e-01 9.405287e-15 -7.071068e-01
    outer loop
      vertex   -1.197474e+02 3.188094e+02 -1.842097e+02
      vertex   -1.191110e+02 3.161078e+02 -1.848461e+02
      vertex   -1.193855e+02 3.160567e+02 -1.845716e+02
    endloop
  endfacet
  facet normal -7.071068e-01 0.000000e+00 -7.071068e-01
    outer loop
      vertex   -1.197474e+02 3.188094e+02 -1.842097e+02
      vertex   -1.193855e+02 3.160567e+02 -1.845716e+02
      vertex   -1.196413e+02 3.159068e+02 -1.843158e+02
    endloop
  endfacet
  facet normal -7.071068e-01 -2.136300e-15 -7.071068e-01
    outer loop
      vertex   -1.191110e+02 3.161078e+02 -1.848461e+02
      vertex   -1.186404e+02 3.186974e+02 -1.853167e+02
      vertex   -1.188365e+02 3.160567e+02 -1.851206e+02
    endloop
  endfacet
  facet normal -7.071068e-01 -6.084007e-15 -7.071068e-01
    outer loop
      vertex   -1.188365e+02 3.160567e+02 -1.851206e+02
      vertex   -1.186404e+02 3.186974e+02 -1.853167e+02
      vertex   -1.175560e+02 3.183638e+02 -1.864011e+02
    endloop
  endfacet
  facet normal -7.071068e-01 -1.314985e-14 -7.071068e-01
    outer loop
      vertex   -1.188365e+02 3.160567e+02 -1.851206e+02
      vertex   -1.175560e+02 3.183638e+02 -1.864011e+02
      vertex   -1.185807e+02 3.159068e+02 -1.853764e+02
    endloop
  endfacet
  facet normal -7.071068e-01 -1.994866e-14 -7.071068e-01
    outer loop
      vertex   -1.185807e+02 3.159068e+02 -1.853764e+02
      vertex   -1.175560e+02 3.183638e+02 -1.864011e+02
      vertex   -1.165162e+02 3.178153e+02 -1.874409e+02
    endloop
  endfacet
  facet normal -7.071068e-01 -9.591656e-14 -7.071068e-01
    outer loop
      vertex   -1.185807e+02 3.159068e+02 -1.853764e+02
      vertex   -1.165162e+02 3.178153e+02 -1.874409e+02
      vertex   -1.183610e+02 3.156684e+02 -1.855961e+02
    endloop
  endfacet
  facet normal -7.071068e-01 6.843082e-14 -7.071068e-01
    outer loop
      vertex   -1.183610e+02 3.156684e+02 -1.855961e+02
      vertex   -1.165162e+02 3.178153e+02 -1.874409e+02
      vertex   -1.181924e+02 3.153578e+02 -1.857647e+02
    endloop
  endfacet
  facet normal -7.071068e-01 3.780741e-15 -7.071068e-01
    outer loop
      vertex   -1.181924e+02 3.153578e+02 -1.857647e+02
      vertex   -1.165162e+02 3.178153e+02 -1.874409e+02
      vertex   -1.155422e+02 3.170632e+02 -1.884149e+02
    endloop
  endfacet
  facet normal -7.071068e-01 -5.049979e-14 -7.071068e-01
    outer loop
      vertex   -1.181924e+02 3.153578e+02 -1.857647e+02
      vertex   -1.155422e+02 3.170632e+02 -1.884149e+02
      vertex   -1.180865e+02 3.149960e+02 -1.858706e+02
    endloop
  endfacet
  facet normal -7.071068e-01 -2.494607e-14 -7.071068e-01
    outer loop
      vertex   -1.180865e+02 3.149960e+02 -1.858706e+02
      vertex   -1.155422e+02 3.170632e+02 -1.884149e+02
      vertex   -1.146538e+02 3.161226e+02 -1.893033e+02
    endloop
  endfacet
  facet normal -7.071068e-01 4.917285e-14 -7.071068e-01
    outer loop
      vertex   -1.180865e+02 3.149960e+02 -1.858706e+02
      vertex   -1.146538e+02 3.161226e+02 -1.893033e+02
      vertex   -1.180503e+02 3.146078e+02 -1.859068e+02
    endloop
  endfacet
  facet normal -7.071068e-01 -3.293333e-15 -7.071068e-01
    outer loop
      vertex   -1.180503e+02 3.146078e+02 -1.859068e+02
      vertex   -1.146538e+02 3.161226e+02 -1.893033e+02
      vertex   -1.138690e+02 3.150128e+02 -1.900881e+02
    endloop
  endfacet
  facet normal -7.071068e-01 -5.179038e-14 -7.071068e-01
    outer loop
      vertex   -1.180503e+02 3.146078e+02 -1.859068e+02
      vertex   -1.138690e+02 3.150128e+02 -1.900881e+02
      vertex   -1.180865e+02 3.142195e+02 -1.858706e+02
    endloop
  endfacet
  facet normal -7.071068e-01 6.174997e-14 -7.071068e-01
    outer loop
      vertex   -1.180865e+02 3.142195e+02 -1.858706e+02
      vertex   -1.138690e+02 3.150128e+02 -1.900881e+02
      vertex   -1.181924e+02 3.138578e+02 -1.857647e+02
    endloop
  endfacet
  facet normal -7.071068e-01 2.593100e-14 -7.071068e-01
    outer loop
      vertex   -1.181924e+02 3.138578e+02 -1.857647e+02
      vertex   -1.138690e+02 3.150128e+02 -1.900881e+02
      vertex   -1.132040e+02 3.137564e+02 -1.907531e+02
    endloop
  endfacet
  facet normal -7.071068e-01 -1.214549e-13 -7.071068e-01
    outer loop
      vertex   -1.181924e+02 3.138578e+02 -1.857647e+02
      vertex   -1.132040e+02 3.137564e+02 -1.907531e+02
      vertex   -1.183610e+02 3.135471e+02 -1.855961e+02
    endloop
  endfacet
  facet normal -7.071068e-01 -2.193546e-14 -7.071068e-01
    outer loop
      vertex   -1.183610e+02 3.135471e+02 -1.855961e+02
      vertex   -1.132040e+02 3.137564e+02 -1.907531e+02
      vertex   -1.126721e+02 3.123789e+02 -1.912850e+02
    endloop
  endfacet
  facet normal -7.071068e-01 1.527534e-13 -7.071068e-01
    outer loop
      vertex   -1.183610e+02 3.135471e+02 -1.855961e+02
      vertex   -1.126721e+02 3.123789e+02 -1.912850e+02
      vertex   -1.185807e+02 3.133087e+02 -1.853764e+02
    endloop
  endfacet
  facet normal -7.071068e-01 -1.809912e-15 -7.071068e-01
    outer loop
      vertex   -1.185807e+02 3.133087e+02 -1.853764e+02
      vertex   -1.126721e+02 3.123789e+02 -1.912850e+02
      vertex   -1.122843e+02 3.109084e+02 -1.916728e+02
    endloop
  endfacet
  facet normal -7.071068e-01 -1.492387e-14 -7.071068e-01
    outer loop
      vertex   -1.185807e+02 3.133087e+02 -1.853764e+02
      vertex   -1.122843e+02 3.109084e+02 -1.916728e+02
      vertex   -1.120484e+02 3.093748e+02 -1.919087e+02
    endloop
  endfacet
  facet normal -7.071068e-01 2.609970e-15 -7.071068e-01
    outer loop
      vertex   -1.185807e+02 3.133087e+02 -1.853764e+02
      vertex   -1.120484e+02 3.093748e+02 -1.919087e+02
      vertex   -1.188365e+02 3.131589e+02 -1.851206e+02
    endloop
  endfacet
  facet normal -7.071068e-01 6.208049e-13 -7.071068e-01
    outer loop
      vertex   -1.188365e+02 3.131589e+02 -1.851206e+02
      vertex   -1.120484e+02 3.093748e+02 -1.919087e+02
      vertex   -1.119692e+02 3.078094e+02 -1.919879e+02
    endloop
  endfacet
  facet normal -7.071068e-01 6.972308e-14 -7.071068e-01
    outer loop
      vertex   -1.188365e+02 3.131589e+02 -1.851206e+02
      vertex   -1.119692e+02 3.078094e+02 -1.919879e+02
      vertex   -1.191110e+02 3.131078e+02 -1.848461e+02
    endloop
  endfacet
  facet normal -7.071068e-01 -3.572726e-13 -7.071068e-01
    outer loop
      vertex   -1.191110e+02 3.131078e+02 -1.848461e+02
      vertex   -1.119692e+02 3.078094e+02 -1.919879e+02
      vertex   -1.119692e+02 3.051078e+02 -1.919879e+02
    endloop
  endfacet
  facet normal -7.071068e-01 -1.402387e-16 -7.071068e-01
    outer loop
      vertex   -1.191110e+02 3.131078e+02 -1.848461e+02
      vertex   -1.119692e+02 3.051078e+02 -1.919879e+02
      vertex   -1.254043e+02 3.051078e+02 -1.785529e+02
    endloop
  endfacet
  facet normal -7.071068e-01 -0.000000e+00 -7.071068e-01
    outer loop
      vertex   -1.254043e+02 3.188094e+02 -1.785529e+02
      vertex   -1.200296e+02 3.138578e+02 -1.839276e+02
      vertex   -1.254043e+02 3.051078e+02 -1.785529e+02
    endloop
  endfacet
  facet normal -7.071068e-01 -3.674844e-14 -7.071068e-01
    outer loop
      vertex   -1.254043e+02 3.051078e+02 -1.785529e+02
      vertex   -1.200296e+02 3.138578e+02 -1.839276e+02
      vertex   -1.198610e+02 3.135471e+02 -1.840961e+02
    endloop
  endfacet
  facet normal -7.071068e-01 3.402003e-14 -7.071068e-01
    outer loop
      vertex   -1.254043e+02 3.051078e+02 -1.785529e+02
      vertex   -1.198610e+02 3.135471e+02 -1.840961e+02
      vertex   -1.196413e+02 3.133087e+02 -1.843158e+02
    endloop
  endfacet
  facet normal -7.071068e-01 -6.141488e-15 -7.071068e-01
    outer loop
      vertex   -1.197474e+02 3.188094e+02 -1.842097e+02
      vertex   -1.198610e+02 3.156684e+02 -1.840961e+02
      vertex   -1.254043e+02 3.188094e+02 -1.785529e+02
    endloop
  endfacet
  facet normal -7.071068e-01 5.132521e-14 -7.071068e-01
    outer loop
      vertex   -1.254043e+02 3.188094e+02 -1.785529e+02
      vertex   -1.198610e+02 3.156684e+02 -1.840961e+02
      vertex   -1.200296e+02 3.153578e+02 -1.839276e+02
    endloop
  endfacet
  facet normal -7.071068e-01 2.174884e-15 -7.071068e-01
    outer loop
      vertex   -1.254043e+02 3.188094e+02 -1.785529e+02
      vertex   -1.200296e+02 3.153578e+02 -1.839276e+02
      vertex   -1.201355e+02 3.149960e+02 -1.838216e+02
    endloop
  endfacet
  facet normal -7.071068e-01 -9.632879e-14 -7.071068e-01
    outer loop
      vertex   -1.201355e+02 3.149960e+02 -1.838216e+02
      vertex   -1.201717e+02 3.146078e+02 -1.837855e+02
      vertex   -1.254043e+02 3.188094e+02 -1.785529e+02
    endloop
  endfacet
  facet normal -7.071068e-01 1.122694e-13 -7.071068e-01
    outer loop
      vertex   -1.254043e+02 3.188094e+02 -1.785529e+02
      vertex   -1.201717e+02 3.146078e+02 -1.837855e+02
      vertex   -1.201355e+02 3.142195e+02 -1.838216e+02
    endloop
  endfacet
  facet normal -7.071068e-01 -3.538897e-15 -7.071068e-01
    outer loop
      vertex   -1.254043e+02 3.188094e+02 -1.785529e+02
      vertex   -1.201355e+02 3.142195e+02 -1.838216e+02
      vertex   -1.200296e+02 3.138578e+02 -1.839276e+02
    endloop
  endfacet
  facet normal -7.071068e-01 -3.446122e-15 -7.071068e-01
    outer loop
      vertex   -1.196413e+02 3.133087e+02 -1.843158e+02
      vertex   -1.193855e+02 3.131589e+02 -1.845716e+02
      vertex   -1.254043e+02 3.051078e+02 -1.785529e+02
    endloop
  endfacet
  facet normal -7.071068e-01 -5.387860e-14 -7.071068e-01
    outer loop
      vertex   -1.254043e+02 3.051078e+02 -1.785529e+02
      vertex   -1.193855e+02 3.131589e+02 -1.845716e+02
      vertex   -1.191110e+02 3.131078e+02 -1.848461e+02
    endloop
  endfacet
  facet normal -7.071068e-01 -3.216045e-15 -7.071068e-01
    outer loop
      vertex   -1.196413e+02 3.159068e+02 -1.843158e+02
      vertex   -1.198610e+02 3.156684e+02 -1.840961e+02
      vertex   -1.197474e+02 3.188094e+02 -1.842097e+02
    endloop
  endfacet
  facet normal 7.071068e-01 0.000000e+00 -7.071068e-01
    outer loop
      vertex   -1.098479e+02 3.078094e+02 -1.898666e+02
      vertex   -1.098479e+02 3.051078e+02 -1.898666e+02
      vertex   -1.119692e+02 3.078094e+02 -1.919879e+02
    endloop
  endfacet
  facet normal 7.071068e-01 -1.487791e-14 -7.071068e-01
    outer loop
      vertex   -1.119692e+02 3.078094e+02 -1.919879e+02
      vertex   -1.098479e+02 3.051078e+02 -1.898666e+02
      vertex   -1.119692e+02 3.051078e+02 -1.919879e+02
    endloop
  endfacet
  facet normal 7.010574e-01 -1.305262e-01 -7.010574e-01
    outer loop
      vertex   -1.201355e+02 3.149960e+02 -1.838216e+02
      vertex   -1.180142e+02 3.149960e+02 -1.817003e+02
      vertex   -1.201717e+02 3.146078e+02 -1.837855e+02
    endloop
  endfacet
  facet normal 7.010574e-01 -1.305262e-01 -7.010574e-01
    outer loop
      vertex   -1.201717e+02 3.146078e+02 -1.837855e+02
      vertex   -1.180142e+02 3.149960e+02 -1.817003e+02
      vertex   -1.180503e+02 3.146078e+02 -1.816641e+02
    endloop
  endfacet
  facet normal 7.010574e-01 1.305262e-01 -7.010574e-01
    outer loop
      vertex   -1.201717e+02 3.146078e+02 -1.837855e+02
      vertex   -1.180503e+02 3.146078e+02 -1.816641e+02
      vertex   -1.201355e+02 3.142195e+02 -1.838216e+02
    endloop
  endfacet
  facet normal 7.010574e-01 1.305262e-01 -7.010574e-01
    outer loop
      vertex   -1.201355e+02 3.142195e+02 -1.838216e+02
      vertex   -1.180503e+02 3.146078e+02 -1.816641e+02
      vertex   -1.180142e+02 3.142195e+02 -1.817003e+02
    endloop
  endfacet
  facet normal 6.532815e-01 3.826834e-01 -6.532815e-01
    outer loop
      vertex   -1.201355e+02 3.142195e+02 -1.838216e+02
      vertex   -1.180142e+02 3.142195e+02 -1.817003e+02
      vertex   -1.200296e+02 3.138578e+02 -1.839276e+02
    endloop
  endfacet
  facet normal 6.532815e-01 3.826834e-01 -6.532815e-01
    outer loop
      vertex   -1.200296e+02 3.138578e+02 -1.839276e+02
      vertex   -1.180142e+02 3.142195e+02 -1.817003e+02
      vertex   -1.179082e+02 3.138578e+02 -1.818062e+02
    endloop
  endfacet
  facet normal 5.609855e-01 6.087614e-01 -5.609855e-01
    outer loop
      vertex   -1.200296e+02 3.138578e+02 -1.839276e+02
      vertex   -1.179082e+02 3.138578e+02 -1.818062e+02
      vertex   -1.198610e+02 3.135471e+02 -1.840961e+02
    endloop
  endfacet
  facet normal 5.609855e-01 6.087614e-01 -5.609855e-01
    outer loop
      vertex   -1.198610e+02 3.135471e+02 -1.840961e+02
      vertex   -1.179082e+02 3.138578e+02 -1.818062e+02
      vertex   -1.177397e+02 3.135471e+02 -1.819748e+02
    endloop
  endfacet
  facet normal 4.304593e-01 7.933533e-01 -4.304593e-01
    outer loop
      vertex   -1.198610e+02 3.135471e+02 -1.840961e+02
      vertex   -1.177397e+02 3.135471e+02 -1.819748e+02
      vertex   -1.196413e+02 3.133087e+02 -1.843158e+02
    endloop
  endfacet
  facet normal 4.304593e-01 7.933533e-01 -4.304593e-01
    outer loop
      vertex   -1.196413e+02 3.133087e+02 -1.843158e+02
      vertex   -1.177397e+02 3.135471e+02 -1.819748e+02
      vertex   -1.175200e+02 3.133087e+02 -1.821945e+02
    endloop
  endfacet
  facet normal 2.705981e-01 9.238795e-01 -2.705980e-01
    outer loop
      vertex   -1.196413e+02 3.133087e+02 -1.843158e+02
      vertex   -1.175200e+02 3.133087e+02 -1.821945e+02
      vertex   -1.193855e+02 3.131589e+02 -1.845716e+02
    endloop
  endfacet
  facet normal 2.705981e-01 9.238795e-01 -2.705980e-01
    outer loop
      vertex   -1.193855e+02 3.131589e+02 -1.845716e+02
      vertex   -1.175200e+02 3.133087e+02 -1.821945e+02
      vertex   -1.172642e+02 3.131589e+02 -1.824503e+02
    endloop
  endfacet
  facet normal 9.229596e-02 9.914449e-01 -9.229596e-02
    outer loop
      vertex   -1.193855e+02 3.131589e+02 -1.845716e+02
      vertex   -1.172642e+02 3.131589e+02 -1.824503e+02
      vertex   -1.191110e+02 3.131078e+02 -1.848461e+02
    endloop
  endfacet
  facet normal 9.229596e-02 9.914449e-01 -9.229596e-02
    outer loop
      vertex   -1.191110e+02 3.131078e+02 -1.848461e+02
      vertex   -1.172642e+02 3.131589e+02 -1.824503e+02
      vertex   -1.169897e+02 3.131078e+02 -1.827248e+02
    endloop
  endfacet
  facet normal -9.229596e-02 9.914449e-01 9.229596e-02
    outer loop
      vertex   -1.191110e+02 3.131078e+02 -1.848461e+02
      vertex   -1.169897e+02 3.131078e+02 -1.827248e+02
      vertex   -1.188365e+02 3.131589e+02 -1.851206e+02
    endloop
  endfacet
  facet normal -9.229596e-02 9.914449e-01 9.229596e-02
    outer loop
      vertex   -1.188365e+02 3.131589e+02 -1.851206e+02
      vertex   -1.169897e+02 3.131078e+02 -1.827248e+02
      vertex   -1.167152e+02 3.131589e+02 -1.829993e+02
    endloop
  endfacet
  facet normal -2.705981e-01 9.238795e-01 2.705980e-01
    outer loop
      vertex   -1.188365e+02 3.131589e+02 -1.851206e+02
      vertex   -1.167152e+02 3.131589e+02 -1.829993e+02
      vertex   -1.185807e+02 3.133087e+02 -1.853764e+02
    endloop
  endfacet
  facet normal -2.705981e-01 9.238795e-01 2.705980e-01
    outer loop
      vertex   -1.185807e+02 3.133087e+02 -1.853764e+02
      vertex   -1.167152e+02 3.131589e+02 -1.829993e+02
      vertex   -1.164594e+02 3.133087e+02 -1.832551e+02
    endloop
  endfacet
  facet normal -4.304593e-01 7.933533e-01 4.304593e-01
    outer loop
      vertex   -1.185807e+02 3.133087e+02 -1.853764e+02
      vertex   -1.164594e+02 3.133087e+02 -1.832551e+02
      vertex   -1.183610e+02 3.135471e+02 -1.855961e+02
    endloop
  endfacet
  facet normal -4.304593e-01 7.933533e-01 4.304593e-01
    outer loop
      vertex   -1.183610e+02 3.135471e+02 -1.855961e+02
      vertex   -1.164594e+02 3.133087e+02 -1.832551e+02
      vertex   -1.162397e+02 3.135471e+02 -1.834748e+02
    endloop
  endfacet
  facet normal -5.609855e-01 6.087614e-01 5.609855e-01
    outer loop
      vertex   -1.183610e+02 3.135471e+02 -1.855961e+02
      vertex   -1.162397e+02 3.135471e+02 -1.834748e+02
      vertex   -1.181924e+02 3.138578e+02 -1.857647e+02
    endloop
  endfacet
  facet normal -5.609855e-01 6.087614e-01 5.609855e-01
    outer loop
      vertex   -1.181924e+02 3.138578e+02 -1.857647e+02
      vertex   -1.162397e+02 3.135471e+02 -1.834748e+02
      vertex   -1.160711e+02 3.138578e+02 -1.836434e+02
    endloop
  endfacet
  facet normal -6.532815e-01 3.826834e-01 6.532815e-01
    outer loop
      vertex   -1.181924e+02 3.138578e+02 -1.857647e+02
      vertex   -1.160711e+02 3.138578e+02 -1.836434e+02
      vertex   -1.180865e+02 3.142195e+02 -1.858706e+02
    endloop
  endfacet
  facet normal -6.532815e-01 3.826834e-01 6.532815e-01
    outer loop
      vertex   -1.180865e+02 3.142195e+02 -1.858706e+02
      vertex   -1.160711e+02 3.138578e+02 -1.836434e+02
      vertex   -1.159652e+02 3.142195e+02 -1.837493e+02
    endloop
  endfacet
  facet normal -7.010574e-01 1.305262e-01 7.010574e-01
    outer loop
      vertex   -1.180865e+02 3.142195e+02 -1.858706e+02
      vertex   -1.159652e+02 3.142195e+02 -1.837493e+02
      vertex   -1.180503e+02 3.146078e+02 -1.859068e+02
    endloop
  endfacet
  facet normal -7.010574e-01 1.305262e-01 7.010574e-01
    outer loop
      vertex   -1.180503e+02 3.146078e+02 -1.859068e+02
      vertex   -1.159652e+02 3.142195e+02 -1.837493e+02
      vertex   -1.159290e+02 3.146078e+02 -1.837855e+02
    endloop
  endfacet
  facet normal -7.010574e-01 -1.305262e-01 7.010574e-01
    outer loop
      vertex   -1.180503e+02 3.146078e+02 -1.859068e+02
      vertex   -1.159290e+02 3.146078e+02 -1.837855e+02
      vertex   -1.180865e+02 3.149960e+02 -1.858706e+02
    endloop
  endfacet
  facet normal -7.010574e-01 -1.305262e-01 7.010574e-01
    outer loop
      vertex   -1.180865e+02 3.149960e+02 -1.858706e+02
      vertex   -1.159290e+02 3.146078e+02 -1.837855e+02
      vertex   -1.159652e+02 3.149960e+02 -1.837493e+02
    endloop
  endfacet
  facet normal -6.532815e-01 -3.826834e-01 6.532815e-01
    outer loop
      vertex   -1.180865e+02 3.149960e+02 -1.858706e+02
      vertex   -1.159652e+02 3.149960e+02 -1.837493e+02
      vertex   -1.181924e+02 3.153578e+02 -1.857647e+02
    endloop
  endfacet
  facet normal -6.532815e-01 -3.826834e-01 6.532815e-01
    outer loop
      vertex   -1.181924e+02 3.153578e+02 -1.857647e+02
      vertex   -1.159652e+02 3.149960e+02 -1.837493e+02
      vertex   -1.160711e+02 3.153578e+02 -1.836434e+02
    endloop
  endfacet
  facet normal -5.609855e-01 -6.087614e-01 5.609855e-01
    outer loop
      vertex   -1.181924e+02 3.153578e+02 -1.857647e+02
      vertex   -1.160711e+02 3.153578e+02 -1.836434e+02
      vertex   -1.183610e+02 3.156684e+02 -1.855961e+02
    endloop
  endfacet
  facet normal -5.609855e-01 -6.087614e-01 5.609855e-01
    outer loop
      vertex   -1.183610e+02 3.156684e+02 -1.855961e+02
      vertex   -1.160711e+02 3.153578e+02 -1.836434e+02
      vertex   -1.162397e+02 3.156684e+02 -1.834748e+02
    endloop
  endfacet
  facet normal -4.304593e-01 -7.933533e-01 4.304593e-01
    outer loop
      vertex   -1.183610e+02 3.156684e+02 -1.855961e+02
      vertex   -1.162397e+02 3.156684e+02 -1.834748e+02
      vertex   -1.185807e+02 3.159068e+02 -1.853764e+02
    endloop
  endfacet
  facet normal -4.304593e-01 -7.933533e-01 4.304593e-01
    outer loop
      vertex   -1.185807e+02 3.159068e+02 -1.853764e+02
      vertex   -1.162397e+02 3.156684e+02 -1.834748e+02
      vertex   -1.164594e+02 3.159068e+02 -1.832551e+02
    endloop
  endfacet
  facet normal -2.705981e-01 -9.238795e-01 2.705980e-01
    outer loop
      vertex   -1.185807e+02 3.159068e+02 -1.853764e+02
      vertex   -1.164594e+02 3.159068e+02 -1.832551e+02
      vertex   -1.188365e+02 3.160567e+02 -1.851206e+02
    endloop
  endfacet
  facet normal -2.705981e-01 -9.238795e-01 2.705980e-01
    outer loop
      vertex   -1.188365e+02 3.160567e+02 -1.851206e+02
      vertex   -1.164594e+02 3.159068e+02 -1.832551e+02
      vertex   -1.167152e+02 3.160567e+02 -1.829993e+02
    endloop
  endfacet
  facet normal -9.229596e-02 -9.914449e-01 9.229596e-02
    outer loop
      vertex   -1.188365e+02 3.160567e+02 -1.851206e+02
      vertex   -1.167152e+02 3.160567e+02 -1.829993e+02
      vertex   -1.191110e+02 3.161078e+02 -1.848461e+02
    endloop
  endfacet
  facet normal -9.229596e-02 -9.914449e-01 9.229596e-02
    outer loop
      vertex   -1.191110e+02 3.161078e+02 -1.848461e+02
      vertex   -1.167152e+02 3.160567e+02 -1.829993e+02
      vertex   -1.169897e+02 3.161078e+02 -1.827248e+02
    endloop
  endfacet
  facet normal 9.229596e-02 -9.914449e-01 -9.229596e-02
    outer loop
      vertex   -1.191110e+02 3.161078e+02 -1.848461e+02
      vertex   -1.169897e+02 3.161078e+02 -1.827248e+02
      vertex   -1.193855e+02 3.160567e+02 -1.845716e+02
    endloop
  endfacet
  facet normal 9.229596e-02 -9.914449e-01 -9.229596e-02
    outer loop
      vertex   -1.193855e+02 3.160567e+02 -1.845716e+02
      vertex   -1.169897e+02 3.161078e+02 -1.827248e+02
      vertex   -1.172642e+02 3.160567e+02 -1.824503e+02
    endloop
  endfacet
  facet normal 2.705981e-01 -9.238795e-01 -2.705980e-01
    outer loop
      vertex   -1.193855e+02 3.160567e+02 -1.845716e+02
      vertex   -1.172642e+02 3.160567e+02 -1.824503e+02
      vertex   -1.196413e+02 3.159068e+02 -1.843158e+02
    endloop
  endfacet
  facet normal 2.705981e-01 -9.238795e-01 -2.705980e-01
    outer loop
      vertex   -1.196413e+02 3.159068e+02 -1.843158e+02
      vertex   -1.172642e+02 3.160567e+02 -1.824503e+02
      vertex   -1.175200e+02 3.159068e+02 -1.821945e+02
    endloop
  endfacet
  facet normal 4.304593e-01 -7.933533e-01 -4.304593e-01
    outer loop
      vertex   -1.196413e+02 3.159068e+02 -1.843158e+02
      vertex   -1.175200e+02 3.159068e+02 -1.821945e+02
      vertex   -1.198610e+02 3.156684e+02 -1.840961e+02
    endloop
  endfacet
  facet normal 4.304593e-01 -7.933533e-01 -4.304593e-01
    outer loop
      vertex   -1.198610e+02 3.156684e+02 -1.840961e+02
      vertex   -1.175200e+02 3.159068e+02 -1.821945e+02
      vertex   -1.177397e+02 3.156684e+02 -1.819748e+02
    endloop
  endfacet
  facet normal 5.609855e-01 -6.087614e-01 -5.609855e-01
    outer loop
      vertex   -1.198610e+02 3.156684e+02 -1.840961e+02
      vertex   -1.177397e+02 3.156684e+02 -1.819748e+02
      vertex   -1.200296e+02 3.153578e+02 -1.839276e+02
    endloop
  endfacet
  facet normal 5.609855e-01 -6.087614e-01 -5.609855e-01
    outer loop
      vertex   -1.200296e+02 3.153578e+02 -1.839276e+02
      vertex   -1.177397e+02 3.156684e+02 -1.819748e+02
      vertex   -1.179082e+02 3.153578e+02 -1.818062e+02
    endloop
  endfacet
  facet normal 6.532815e-01 -3.826834e-01 -6.532815e-01
    outer loop
      vertex   -1.200296e+02 3.153578e+02 -1.839276e+02
      vertex   -1.179082e+02 3.153578e+02 -1.818062e+02
      vertex   -1.201355e+02 3.149960e+02 -1.838216e+02
    endloop
  endfacet
  facet normal 6.532815e-01 -3.826834e-01 -6.532815e-01
    outer loop
      vertex   -1.201355e+02 3.149960e+02 -1.838216e+02
      vertex   -1.179082e+02 3.153578e+02 -1.818062e+02
      vertex   -1.180142e+02 3.149960e+02 -1.817003e+02
    endloop
  endfacet
  facet normal 0.000000e+00 1.000000e+00 -0.000000e+00
    outer loop
      vertex   -1.197474e+02 3.188094e+02 -1.842097e+02
      vertex   -1.254043e+02 3.188094e+02 -1.785529e+02
      vertex   -1.176261e+02 3.188094e+02 -1.820884e+02
    endloop
  endfacet
  facet normal 0.000000e+00 1.000000e+00 0.000000e+00
    outer loop
      vertex   -1.176261e+02 3.188094e+02 -1.820884e+02
      vertex   -1.254043e+02 3.188094e+02 -1.785529e+02
      vertex   -1.232829e+02 3.188094e+02 -1.764315e+02
    endloop
  endfacet
  facet normal -7.071068e-01 0.000000e+00 7.071068e-01
    outer loop
      vertex   -1.254043e+02 3.188094e+02 -1.785529e+02
      vertex   -1.254043e+02 3.051078e+02 -1.785529e+02
      vertex   -1.232829e+02 3.188094e+02 -1.764315e+02
    endloop
  endfacet
  facet normal -7.071068e-01 0.000000e+00 7.071068e-01
    outer loop
      vertex   -1.232829e+02 3.188094e+02 -1.764315e+02
      vertex   -1.254043e+02 3.051078e+02 -1.785529e+02
      vertex   -1.232829e+02 3.051078e+02 -1.764315e+02
    endloop
  endfacet
  facet normal 0.000000e+00 -1.000000e+00 0.000000e+00
    outer loop
      vertex   -1.119692e+02 3.051078e+02 -1.919879e+02
      vertex   -1.098479e+02 3.051078e+02 -1.898666e+02
      vertex   -1.254043e+02 3.051078e+02 -1.785529e+02
    endloop
  endfacet
  facet normal 0.000000e+00 -1.000000e+00 0.000000e+00
    outer loop
      vertex   -1.254043e+02 3.051078e+02 -1.785529e+02
      vertex   -1.098479e+02 3.051078e+02 -1.898666e+02
      vertex   -1.232829e+02 3.051078e+02 -1.764315e+02
    endloop
  endfacet
  facet normal 7.071068e-01 4.113714e-13 7.071068e-01
    outer loop
      vertex   -1.099271e+02 3.093748e+02 -1.897874e+02
      vertex   -1.167152e+02 3.131589e+02 -1.829993e+02
      vertex   -1.098479e+02 3.078094e+02 -1.898666e+02
    endloop
  endfacet
  facet normal 7.071068e-01 1.242590e-13 7.071068e-01
    outer loop
      vertex   -1.098479e+02 3.078094e+02 -1.898666e+02
      vertex   -1.167152e+02 3.131589e+02 -1.829993e+02
      vertex   -1.169897e+02 3.131078e+02 -1.827248e+02
    endloop
  endfacet
  facet normal 7.071068e-01 0.000000e+00 7.071068e-01
    outer loop
      vertex   -1.098479e+02 3.078094e+02 -1.898666e+02
      vertex   -1.169897e+02 3.131078e+02 -1.827248e+02
      vertex   -1.098479e+02 3.051078e+02 -1.898666e+02
    endloop
  endfacet
  facet normal 7.071068e-01 6.544473e-15 7.071068e-01
    outer loop
      vertex   -1.098479e+02 3.051078e+02 -1.898666e+02
      vertex   -1.169897e+02 3.131078e+02 -1.827248e+02
      vertex   -1.232829e+02 3.051078e+02 -1.764315e+02
    endloop
  endfacet
  facet normal 7.071068e-01 3.192806e-14 7.071068e-01
    outer loop
      vertex   -1.232829e+02 3.051078e+02 -1.764315e+02
      vertex   -1.169897e+02 3.131078e+02 -1.827248e+02
      vertex   -1.172642e+02 3.131589e+02 -1.824503e+02
    endloop
  endfacet
  facet normal 7.071068e-01 1.017932e-14 7.071068e-01
    outer loop
      vertex   -1.232829e+02 3.051078e+02 -1.764315e+02
      vertex   -1.172642e+02 3.131589e+02 -1.824503e+02
      vertex   -1.175200e+02 3.133087e+02 -1.821945e+02
    endloop
  endfacet
  facet normal 7.071068e-01 -7.529368e-14 7.071068e-01
    outer loop
      vertex   -1.167152e+02 3.131589e+02 -1.829993e+02
      vertex   -1.099271e+02 3.093748e+02 -1.897874e+02
      vertex   -1.164594e+02 3.133087e+02 -1.832551e+02
    endloop
  endfacet
  facet normal 7.071068e-01 2.763680e-14 7.071068e-01
    outer loop
      vertex   -1.164594e+02 3.133087e+02 -1.832551e+02
      vertex   -1.099271e+02 3.093748e+02 -1.897874e+02
      vertex   -1.101630e+02 3.109084e+02 -1.895515e+02
    endloop
  endfacet
  facet normal 7.071068e-01 -6.033038e-15 7.071068e-01
    outer loop
      vertex   -1.164594e+02 3.133087e+02 -1.832551e+02
      vertex   -1.101630e+02 3.109084e+02 -1.895515e+02
      vertex   -1.105508e+02 3.123789e+02 -1.891637e+02
    endloop
  endfacet
  facet normal 7.071068e-01 -2.102915e-14 7.071068e-01
    outer loop
      vertex   -1.164594e+02 3.133087e+02 -1.832551e+02
      vertex   -1.105508e+02 3.123789e+02 -1.891637e+02
      vertex   -1.162397e+02 3.135471e+02 -1.834748e+02
    endloop
  endfacet
  facet normal 7.071068e-01 2.437274e-14 7.071068e-01
    outer loop
      vertex   -1.162397e+02 3.135471e+02 -1.834748e+02
      vertex   -1.105508e+02 3.123789e+02 -1.891637e+02
      vertex   -1.110827e+02 3.137564e+02 -1.886318e+02
    endloop
  endfacet
  facet normal 7.071068e-01 -3.913211e-14 7.071068e-01
    outer loop
      vertex   -1.162397e+02 3.135471e+02 -1.834748e+02
      vertex   -1.110827e+02 3.137564e+02 -1.886318e+02
      vertex   -1.160711e+02 3.138578e+02 -1.836434e+02
    endloop
  endfacet
  facet normal 7.071068e-01 2.593100e-14 7.071068e-01
    outer loop
      vertex   -1.160711e+02 3.138578e+02 -1.836434e+02
      vertex   -1.110827e+02 3.137564e+02 -1.886318e+02
      vertex   -1.117477e+02 3.150128e+02 -1.879668e+02
    endloop
  endfacet
  facet normal 7.071068e-01 -1.375489e-13 7.071068e-01
    outer loop
      vertex   -1.160711e+02 3.138578e+02 -1.836434e+02
      vertex   -1.117477e+02 3.150128e+02 -1.879668e+02
      vertex   -1.159652e+02 3.142195e+02 -1.837493e+02
    endloop
  endfacet
  facet normal 7.071068e-01 5.449885e-14 7.071068e-01
    outer loop
      vertex   -1.159652e+02 3.142195e+02 -1.837493e+02
      vertex   -1.117477e+02 3.150128e+02 -1.879668e+02
      vertex   -1.159290e+02 3.146078e+02 -1.837855e+02
    endloop
  endfacet
  facet normal 7.071068e-01 6.004000e-14 7.071068e-01
    outer loop
      vertex   -1.159290e+02 3.146078e+02 -1.837855e+02
      vertex   -1.117477e+02 3.150128e+02 -1.879668e+02
      vertex   -1.125325e+02 3.161226e+02 -1.871820e+02
    endloop
  endfacet
  facet normal 7.071068e-01 -4.998739e-14 7.071068e-01
    outer loop
      vertex   -1.159290e+02 3.146078e+02 -1.837855e+02
      vertex   -1.125325e+02 3.161226e+02 -1.871820e+02
      vertex   -1.159652e+02 3.149960e+02 -1.837493e+02
    endloop
  endfacet
  facet normal 7.071068e-01 6.414703e-14 7.071068e-01
    outer loop
      vertex   -1.159652e+02 3.149960e+02 -1.837493e+02
      vertex   -1.125325e+02 3.161226e+02 -1.871820e+02
      vertex   -1.134209e+02 3.170632e+02 -1.862936e+02
    endloop
  endfacet
  facet normal 7.071068e-01 1.174999e-13 7.071068e-01
    outer loop
      vertex   -1.159652e+02 3.149960e+02 -1.837493e+02
      vertex   -1.134209e+02 3.170632e+02 -1.862936e+02
      vertex   -1.160711e+02 3.153578e+02 -1.836434e+02
    endloop
  endfacet
  facet normal 7.071068e-01 1.098133e-13 7.071068e-01
    outer loop
      vertex   -1.160711e+02 3.153578e+02 -1.836434e+02
      vertex   -1.134209e+02 3.170632e+02 -1.862936e+02
      vertex   -1.143949e+02 3.178153e+02 -1.853196e+02
    endloop
  endfacet
  facet normal 7.071068e-01 6.490432e-14 7.071068e-01
    outer loop
      vertex   -1.160711e+02 3.153578e+02 -1.836434e+02
      vertex   -1.143949e+02 3.178153e+02 -1.853196e+02
      vertex   -1.162397e+02 3.156684e+02 -1.834748e+02
    endloop
  endfacet
  facet normal 7.071068e-01 7.007465e-14 7.071068e-01
    outer loop
      vertex   -1.162397e+02 3.156684e+02 -1.834748e+02
      vertex   -1.143949e+02 3.178153e+02 -1.853196e+02
      vertex   -1.164594e+02 3.159068e+02 -1.832551e+02
    endloop
  endfacet
  facet normal 7.071068e-01 9.470574e-14 7.071068e-01
    outer loop
      vertex   -1.164594e+02 3.159068e+02 -1.832551e+02
      vertex   -1.143949e+02 3.178153e+02 -1.853196e+02
      vertex   -1.154347e+02 3.183638e+02 -1.842798e+02
    endloop
  endfacet
  facet normal 7.071068e-01 1.168430e-13 7.071068e-01
    outer loop
      vertex   -1.164594e+02 3.159068e+02 -1.832551e+02
      vertex   -1.154347e+02 3.183638e+02 -1.842798e+02
      vertex   -1.167152e+02 3.160567e+02 -1.829993e+02
    endloop
  endfacet
  facet normal 7.071068e-01 1.008015e-13 7.071068e-01
    outer loop
      vertex   -1.167152e+02 3.160567e+02 -1.829993e+02
      vertex   -1.154347e+02 3.183638e+02 -1.842798e+02
      vertex   -1.165191e+02 3.186974e+02 -1.831954e+02
    endloop
  endfacet
  facet normal 7.071068e-01 9.818971e-14 7.071068e-01
    outer loop
      vertex   -1.167152e+02 3.160567e+02 -1.829993e+02
      vertex   -1.165191e+02 3.186974e+02 -1.831954e+02
      vertex   -1.169897e+02 3.161078e+02 -1.827248e+02
    endloop
  endfacet
  facet normal 7.071068e-01 1.173954e-13 7.071068e-01
    outer loop
      vertex   -1.169897e+02 3.161078e+02 -1.827248e+02
      vertex   -1.165191e+02 3.186974e+02 -1.831954e+02
      vertex   -1.176261e+02 3.188094e+02 -1.820884e+02
    endloop
  endfacet
  facet normal 7.071068e-01 9.914846e-14 7.071068e-01
    outer loop
      vertex   -1.169897e+02 3.161078e+02 -1.827248e+02
      vertex   -1.176261e+02 3.188094e+02 -1.820884e+02
      vertex   -1.172642e+02 3.160567e+02 -1.824503e+02
    endloop
  endfacet
  facet normal 7.071068e-01 9.820779e-14 7.071068e-01
    outer loop
      vertex   -1.172642e+02 3.160567e+02 -1.824503e+02
      vertex   -1.176261e+02 3.188094e+02 -1.820884e+02
      vertex   -1.175200e+02 3.159068e+02 -1.821945e+02
    endloop
  endfacet
  facet normal 7.071068e-01 1.053190e-13 7.071068e-01
    outer loop
      vertex   -1.175200e+02 3.159068e+02 -1.821945e+02
      vertex   -1.176261e+02 3.188094e+02 -1.820884e+02
      vertex   -1.177397e+02 3.156684e+02 -1.819748e+02
    endloop
  endfacet
  facet normal 7.071068e-01 1.077500e-13 7.071068e-01
    outer loop
      vertex   -1.177397e+02 3.156684e+02 -1.819748e+02
      vertex   -1.176261e+02 3.188094e+02 -1.820884e+02
      vertex   -1.232829e+02 3.188094e+02 -1.764315e+02
    endloop
  endfacet
  facet normal 7.071068e-01 9.100461e-15 7.071068e-01
    outer loop
      vertex   -1.177397e+02 3.156684e+02 -1.819748e+02
      vertex   -1.232829e+02 3.188094e+02 -1.764315e+02
      vertex   -1.179082e+02 3.153578e+02 -1.818062e+02
    endloop
  endfacet
  facet normal 7.071068e-01 -3.452628e-14 7.071068e-01
    outer loop
      vertex   -1.179082e+02 3.153578e+02 -1.818062e+02
      vertex   -1.232829e+02 3.188094e+02 -1.764315e+02
      vertex   -1.180142e+02 3.149960e+02 -1.817003e+02
    endloop
  endfacet
  facet normal 7.071068e-01 4.478534e-13 7.071068e-01
    outer loop
      vertex   -1.180142e+02 3.149960e+02 -1.817003e+02
      vertex   -1.232829e+02 3.188094e+02 -1.764315e+02
      vertex   -1.180503e+02 3.146078e+02 -1.816641e+02
    endloop
  endfacet
  facet normal 7.071068e-01 -5.202066e-13 7.071068e-01
    outer loop
      vertex   -1.180503e+02 3.146078e+02 -1.816641e+02
      vertex   -1.232829e+02 3.188094e+02 -1.764315e+02
      vertex   -1.180142e+02 3.142195e+02 -1.817003e+02
    endloop
  endfacet
  facet normal 7.071068e-01 5.617999e-14 7.071068e-01
    outer loop
      vertex   -1.180142e+02 3.142195e+02 -1.817003e+02
      vertex   -1.232829e+02 3.188094e+02 -1.764315e+02
      vertex   -1.179082e+02 3.138578e+02 -1.818062e+02
    endloop
  endfacet
  facet normal 7.071068e-01 0.000000e+00 7.071068e-01
    outer loop
      vertex   -1.179082e+02 3.138578e+02 -1.818062e+02
      vertex   -1.232829e+02 3.188094e+02 -1.764315e+02
      vertex   -1.232829e+02 3.051078e+02 -1.764315e+02
    endloop
  endfacet
  facet normal 7.071068e-01 -6.515858e-15 7.071068e-01
    outer loop
      vertex   -1.179082e+02 3.138578e+02 -1.818062e+02
      vertex   -1.232829e+02 3.051078e+02 -1.764315e+02
      vertex   -1.177397e+02 3.135471e+02 -1.819748e+02
    endloop
  endfacet
  facet normal 7.071068e-01 -9.301116e-14 7.071068e-01
    outer loop
      vertex   -1.177397e+02 3.135471e+02 -1.819748e+02
      vertex   -1.232829e+02 3.051078e+02 -1.764315e+02
      vertex   -1.175200e+02 3.133087e+02 -1.821945e+02
    endloop
  endfacet
endsolid
