solid ASCII
  facet normal 7.071068e-01 0.000000e+00 -7.071068e-01
    outer loop
      vertex   -1.758210e+02 3.047078e+02 -1.974326e+02
      vertex   -1.806983e+02 3.047078e+02 -2.023099e+02
      vertex   -1.758210e+02 3.245078e+02 -1.974326e+02
    endloop
  endfacet
  facet normal 7.071068e-01 0.000000e+00 -7.071068e-01
    outer loop
      vertex   -1.758210e+02 3.245078e+02 -1.974326e+02
      vertex   -1.806983e+02 3.047078e+02 -2.023099e+02
      vertex   -1.806983e+02 3.245078e+02 -2.023099e+02
    endloop
  endfacet
  facet normal 7.071068e-01 2.030019e-15 -7.071068e-01
    outer loop
      vertex   -1.732754e+02 3.245078e+02 -1.948870e+02
      vertex   -1.566584e+02 3.245078e+02 -1.782700e+02
      vertex   -1.732754e+02 3.047078e+02 -1.948870e+02
    endloop
  endfacet
  facet normal 7.071068e-01 0.000000e+00 -7.071068e-01
    outer loop
      vertex   -1.732754e+02 3.047078e+02 -1.948870e+02
      vertex   -1.566584e+02 3.245078e+02 -1.782700e+02
      vertex   -1.566584e+02 3.047078e+02 -1.782700e+02
    endloop
  endfacet
  facet normal 0.000000e+00 -1.000000e+00 0.000000e+00
    outer loop
      vertex   -1.806983e+02 3.245078e+02 -2.023099e+02
      vertex   -1.514948e+02 3.245078e+02 -2.315134e+02
      vertex   -1.758210e+02 3.245078e+02 -1.974326e+02
    endloop
  endfacet
  facet normal 0.000000e+00 -1.000000e+00 0.000000e+00
    outer loop
      vertex   -1.758210e+02 3.245078e+02 -1.974326e+02
      vertex   -1.514948e+02 3.245078e+02 -2.315134e+02
      vertex   -1.732754e+02 3.245078e+02 -1.948870e+02
    endloop
  endfacet
  facet normal 0.000000e+00 -1.000000e+00 0.000000e+00
    outer loop
      vertex   -1.758210e+02 3.245078e+02 -1.974326e+02
      vertex   -1.732754e+02 3.245078e+02 -1.948870e+02
      vertex   -1.800636e+02 3.245078e+02 -1.931900e+02
    endloop
  endfacet
  facet normal 0.000000e+00 -1.000000e+00 0.000000e+00
    outer loop
      vertex   -1.800636e+02 3.245078e+02 -1.931900e+02
      vertex   -1.732754e+02 3.245078e+02 -1.948870e+02
      vertex   -1.775180e+02 3.245078e+02 -1.906444e+02
    endloop
  endfacet
  facet normal 1.934615e-14 -1.000000e+00 1.934615e-14
    outer loop
      vertex   -1.250507e+02 3.245078e+02 -2.050694e+02
      vertex   -1.425691e+02 3.245078e+02 -1.875509e+02
      vertex   -1.514948e+02 3.245078e+02 -2.315134e+02
    endloop
  endfacet
  facet normal 2.917641e-14 -1.000000e+00 1.735034e-14
    outer loop
      vertex   -1.514948e+02 3.245078e+02 -2.315134e+02
      vertex   -1.425691e+02 3.245078e+02 -1.875509e+02
      vertex   -1.732754e+02 3.245078e+02 -1.948870e+02
    endloop
  endfacet
  facet normal 2.635387e-09 -1.000000e+00 -1.103060e-08
    outer loop
      vertex   -1.425691e+02 3.245078e+02 -1.875509e+02
      vertex   -1.468118e+02 3.245078e+02 -1.833083e+02
      vertex   -1.732754e+02 3.245078e+02 -1.948870e+02
    endloop
  endfacet
  facet normal -3.895211e-09 -1.000000e+00 3.895273e-09
    outer loop
      vertex   -1.732754e+02 3.245078e+02 -1.948870e+02
      vertex   -1.468118e+02 3.245078e+02 -1.833083e+02
      vertex   -1.566584e+02 3.245078e+02 -1.782700e+02
    endloop
  endfacet
  facet normal -6.859073e-09 -1.000000e+00 -1.897190e-09
    outer loop
      vertex   -1.566584e+02 3.245078e+02 -1.782700e+02
      vertex   -1.468118e+02 3.245078e+02 -1.833083e+02
      vertex   -1.584968e+02 3.245078e+02 -1.716232e+02
    endloop
  endfacet
  facet normal 0.000000e+00 -1.000000e+00 0.000000e+00
    outer loop
      vertex   -1.566584e+02 3.245078e+02 -1.782700e+02
      vertex   -1.584968e+02 3.245078e+02 -1.716232e+02
      vertex   -1.609010e+02 3.245078e+02 -1.740274e+02
    endloop
  endfacet
  facet normal 7.010574e-01 -1.305262e-01 7.010574e-01
    outer loop
      vertex   -1.414723e+02 3.276960e+02 -1.864541e+02
      vertex   -1.457150e+02 3.276960e+02 -1.822115e+02
      vertex   -1.415085e+02 3.273078e+02 -1.864903e+02
    endloop
  endfacet
  facet normal 7.010574e-01 -1.305262e-01 7.010574e-01
    outer loop
      vertex   -1.415085e+02 3.273078e+02 -1.864903e+02
      vertex   -1.457150e+02 3.276960e+02 -1.822115e+02
      vertex   -1.457511e+02 3.273078e+02 -1.822476e+02
    endloop
  endfacet
  facet normal 7.010574e-01 1.305262e-01 7.010574e-01
    outer loop
      vertex   -1.415085e+02 3.273078e+02 -1.864903e+02
      vertex   -1.457511e+02 3.273078e+02 -1.822476e+02
      vertex   -1.414723e+02 3.269195e+02 -1.864541e+02
    endloop
  endfacet
  facet normal 7.010574e-01 1.305262e-01 7.010574e-01
    outer loop
      vertex   -1.414723e+02 3.269195e+02 -1.864541e+02
      vertex   -1.457511e+02 3.273078e+02 -1.822476e+02
      vertex   -1.457150e+02 3.269195e+02 -1.822115e+02
    endloop
  endfacet
  facet normal 6.532815e-01 3.826834e-01 6.532815e-01
    outer loop
      vertex   -1.414723e+02 3.269195e+02 -1.864541e+02
      vertex   -1.457150e+02 3.269195e+02 -1.822115e+02
      vertex   -1.413664e+02 3.265578e+02 -1.863482e+02
    endloop
  endfacet
  facet normal 6.532815e-01 3.826834e-01 6.532815e-01
    outer loop
      vertex   -1.413664e+02 3.265578e+02 -1.863482e+02
      vertex   -1.457150e+02 3.269195e+02 -1.822115e+02
      vertex   -1.456090e+02 3.265578e+02 -1.821055e+02
    endloop
  endfacet
  facet normal 5.609855e-01 6.087614e-01 5.609855e-01
    outer loop
      vertex   -1.413664e+02 3.265578e+02 -1.863482e+02
      vertex   -1.456090e+02 3.265578e+02 -1.821055e+02
      vertex   -1.411978e+02 3.262471e+02 -1.861796e+02
    endloop
  endfacet
  facet normal 5.609855e-01 6.087614e-01 5.609855e-01
    outer loop
      vertex   -1.411978e+02 3.262471e+02 -1.861796e+02
      vertex   -1.456090e+02 3.265578e+02 -1.821055e+02
      vertex   -1.454405e+02 3.262471e+02 -1.819370e+02
    endloop
  endfacet
  facet normal 4.304593e-01 7.933533e-01 4.304593e-01
    outer loop
      vertex   -1.411978e+02 3.262471e+02 -1.861796e+02
      vertex   -1.454405e+02 3.262471e+02 -1.819370e+02
      vertex   -1.409782e+02 3.260087e+02 -1.859599e+02
    endloop
  endfacet
  facet normal 4.304593e-01 7.933533e-01 4.304593e-01
    outer loop
      vertex   -1.409782e+02 3.260087e+02 -1.859599e+02
      vertex   -1.454405e+02 3.262471e+02 -1.819370e+02
      vertex   -1.452208e+02 3.260087e+02 -1.817173e+02
    endloop
  endfacet
  facet normal 2.705980e-01 9.238795e-01 2.705981e-01
    outer loop
      vertex   -1.409782e+02 3.260087e+02 -1.859599e+02
      vertex   -1.452208e+02 3.260087e+02 -1.817173e+02
      vertex   -1.407223e+02 3.258589e+02 -1.857041e+02
    endloop
  endfacet
  facet normal 2.705980e-01 9.238795e-01 2.705981e-01
    outer loop
      vertex   -1.407223e+02 3.258589e+02 -1.857041e+02
      vertex   -1.452208e+02 3.260087e+02 -1.817173e+02
      vertex   -1.449650e+02 3.258589e+02 -1.814615e+02
    endloop
  endfacet
  facet normal 9.229594e-02 9.914449e-01 9.229597e-02
    outer loop
      vertex   -1.407223e+02 3.258589e+02 -1.857041e+02
      vertex   -1.449650e+02 3.258589e+02 -1.814615e+02
      vertex   -1.404478e+02 3.258078e+02 -1.854296e+02
    endloop
  endfacet
  facet normal 9.229594e-02 9.914449e-01 9.229597e-02
    outer loop
      vertex   -1.404478e+02 3.258078e+02 -1.854296e+02
      vertex   -1.449650e+02 3.258589e+02 -1.814615e+02
      vertex   -1.446905e+02 3.258078e+02 -1.811870e+02
    endloop
  endfacet
  facet normal -9.229597e-02 9.914449e-01 -9.229594e-02
    outer loop
      vertex   -1.404478e+02 3.258078e+02 -1.854296e+02
      vertex   -1.446905e+02 3.258078e+02 -1.811870e+02
      vertex   -1.401733e+02 3.258589e+02 -1.851551e+02
    endloop
  endfacet
  facet normal -9.229597e-02 9.914449e-01 -9.229594e-02
    outer loop
      vertex   -1.401733e+02 3.258589e+02 -1.851551e+02
      vertex   -1.446905e+02 3.258078e+02 -1.811870e+02
      vertex   -1.444160e+02 3.258589e+02 -1.809124e+02
    endloop
  endfacet
  facet normal -2.705981e-01 9.238795e-01 -2.705980e-01
    outer loop
      vertex   -1.401733e+02 3.258589e+02 -1.851551e+02
      vertex   -1.444160e+02 3.258589e+02 -1.809124e+02
      vertex   -1.399175e+02 3.260087e+02 -1.848993e+02
    endloop
  endfacet
  facet normal -2.705981e-01 9.238795e-01 -2.705980e-01
    outer loop
      vertex   -1.399175e+02 3.260087e+02 -1.848993e+02
      vertex   -1.444160e+02 3.258589e+02 -1.809124e+02
      vertex   -1.441601e+02 3.260087e+02 -1.806566e+02
    endloop
  endfacet
  facet normal -4.304593e-01 7.933533e-01 -4.304593e-01
    outer loop
      vertex   -1.399175e+02 3.260087e+02 -1.848993e+02
      vertex   -1.441601e+02 3.260087e+02 -1.806566e+02
      vertex   -1.396978e+02 3.262471e+02 -1.846796e+02
    endloop
  endfacet
  facet normal -4.304593e-01 7.933533e-01 -4.304593e-01
    outer loop
      vertex   -1.396978e+02 3.262471e+02 -1.846796e+02
      vertex   -1.441601e+02 3.260087e+02 -1.806566e+02
      vertex   -1.439405e+02 3.262471e+02 -1.804370e+02
    endloop
  endfacet
  facet normal -5.609855e-01 6.087614e-01 -5.609855e-01
    outer loop
      vertex   -1.396978e+02 3.262471e+02 -1.846796e+02
      vertex   -1.439405e+02 3.262471e+02 -1.804370e+02
      vertex   -1.395293e+02 3.265578e+02 -1.845110e+02
    endloop
  endfacet
  facet normal -5.609855e-01 6.087614e-01 -5.609855e-01
    outer loop
      vertex   -1.395293e+02 3.265578e+02 -1.845110e+02
      vertex   -1.439405e+02 3.262471e+02 -1.804370e+02
      vertex   -1.437719e+02 3.265578e+02 -1.802684e+02
    endloop
  endfacet
  facet normal -6.532815e-01 3.826834e-01 -6.532815e-01
    outer loop
      vertex   -1.395293e+02 3.265578e+02 -1.845110e+02
      vertex   -1.437719e+02 3.265578e+02 -1.802684e+02
      vertex   -1.394233e+02 3.269195e+02 -1.844051e+02
    endloop
  endfacet
  facet normal -6.532815e-01 3.826834e-01 -6.532815e-01
    outer loop
      vertex   -1.394233e+02 3.269195e+02 -1.844051e+02
      vertex   -1.437719e+02 3.265578e+02 -1.802684e+02
      vertex   -1.436660e+02 3.269195e+02 -1.801624e+02
    endloop
  endfacet
  facet normal -7.010574e-01 1.305262e-01 -7.010574e-01
    outer loop
      vertex   -1.394233e+02 3.269195e+02 -1.844051e+02
      vertex   -1.436660e+02 3.269195e+02 -1.801624e+02
      vertex   -1.393872e+02 3.273078e+02 -1.843689e+02
    endloop
  endfacet
  facet normal -7.010574e-01 1.305262e-01 -7.010574e-01
    outer loop
      vertex   -1.393872e+02 3.273078e+02 -1.843689e+02
      vertex   -1.436660e+02 3.269195e+02 -1.801624e+02
      vertex   -1.436298e+02 3.273078e+02 -1.801263e+02
    endloop
  endfacet
  facet normal -7.010574e-01 -1.305262e-01 -7.010574e-01
    outer loop
      vertex   -1.393872e+02 3.273078e+02 -1.843689e+02
      vertex   -1.436298e+02 3.273078e+02 -1.801263e+02
      vertex   -1.394233e+02 3.276960e+02 -1.844051e+02
    endloop
  endfacet
  facet normal -7.010574e-01 -1.305262e-01 -7.010574e-01
    outer loop
      vertex   -1.394233e+02 3.276960e+02 -1.844051e+02
      vertex   -1.436298e+02 3.273078e+02 -1.801263e+02
      vertex   -1.436660e+02 3.276960e+02 -1.801624e+02
    endloop
  endfacet
  facet normal -6.532815e-01 -3.826834e-01 -6.532815e-01
    outer loop
      vertex   -1.394233e+02 3.276960e+02 -1.844051e+02
      vertex   -1.436660e+02 3.276960e+02 -1.801624e+02
      vertex   -1.395293e+02 3.280578e+02 -1.845110e+02
    endloop
  endfacet
  facet normal -6.532815e-01 -3.826834e-01 -6.532815e-01
    outer loop
      vertex   -1.395293e+02 3.280578e+02 -1.845110e+02
      vertex   -1.436660e+02 3.276960e+02 -1.801624e+02
      vertex   -1.437719e+02 3.280578e+02 -1.802684e+02
    endloop
  endfacet
  facet normal -5.609855e-01 -6.087614e-01 -5.609855e-01
    outer loop
      vertex   -1.395293e+02 3.280578e+02 -1.845110e+02
      vertex   -1.437719e+02 3.280578e+02 -1.802684e+02
      vertex   -1.396978e+02 3.283684e+02 -1.846796e+02
    endloop
  endfacet
  facet normal -5.609855e-01 -6.087614e-01 -5.609855e-01
    outer loop
      vertex   -1.396978e+02 3.283684e+02 -1.846796e+02
      vertex   -1.437719e+02 3.280578e+02 -1.802684e+02
      vertex   -1.439405e+02 3.283684e+02 -1.804370e+02
    endloop
  endfacet
  facet normal -4.304593e-01 -7.933533e-01 -4.304593e-01
    outer loop
      vertex   -1.396978e+02 3.283684e+02 -1.846796e+02
      vertex   -1.439405e+02 3.283684e+02 -1.804370e+02
      vertex   -1.399175e+02 3.286068e+02 -1.848993e+02
    endloop
  endfacet
  facet normal -4.304593e-01 -7.933533e-01 -4.304593e-01
    outer loop
      vertex   -1.399175e+02 3.286068e+02 -1.848993e+02
      vertex   -1.439405e+02 3.283684e+02 -1.804370e+02
      vertex   -1.441601e+02 3.286068e+02 -1.806566e+02
    endloop
  endfacet
  facet normal -2.705980e-01 -9.238795e-01 -2.705981e-01
    outer loop
      vertex   -1.399175e+02 3.286068e+02 -1.848993e+02
      vertex   -1.441601e+02 3.286068e+02 -1.806566e+02
      vertex   -1.401733e+02 3.287567e+02 -1.851551e+02
    endloop
  endfacet
  facet normal -2.705980e-01 -9.238795e-01 -2.705981e-01
    outer loop
      vertex   -1.401733e+02 3.287567e+02 -1.851551e+02
      vertex   -1.441601e+02 3.286068e+02 -1.806566e+02
      vertex   -1.444160e+02 3.287567e+02 -1.809124e+02
    endloop
  endfacet
  facet normal -9.229594e-02 -9.914449e-01 -9.229597e-02
    outer loop
      vertex   -1.401733e+02 3.287567e+02 -1.851551e+02
      vertex   -1.444160e+02 3.287567e+02 -1.809124e+02
      vertex   -1.404478e+02 3.288078e+02 -1.854296e+02
    endloop
  endfacet
  facet normal -9.229594e-02 -9.914449e-01 -9.229597e-02
    outer loop
      vertex   -1.404478e+02 3.288078e+02 -1.854296e+02
      vertex   -1.444160e+02 3.287567e+02 -1.809124e+02
      vertex   -1.446905e+02 3.288078e+02 -1.811870e+02
    endloop
  endfacet
  facet normal 9.229597e-02 -9.914449e-01 9.229594e-02
    outer loop
      vertex   -1.404478e+02 3.288078e+02 -1.854296e+02
      vertex   -1.446905e+02 3.288078e+02 -1.811870e+02
      vertex   -1.407223e+02 3.287567e+02 -1.857041e+02
    endloop
  endfacet
  facet normal 9.229597e-02 -9.914449e-01 9.229594e-02
    outer loop
      vertex   -1.407223e+02 3.287567e+02 -1.857041e+02
      vertex   -1.446905e+02 3.288078e+02 -1.811870e+02
      vertex   -1.449650e+02 3.287567e+02 -1.814615e+02
    endloop
  endfacet
  facet normal 2.705981e-01 -9.238795e-01 2.705980e-01
    outer loop
      vertex   -1.407223e+02 3.287567e+02 -1.857041e+02
      vertex   -1.449650e+02 3.287567e+02 -1.814615e+02
      vertex   -1.409782e+02 3.286068e+02 -1.859599e+02
    endloop
  endfacet
  facet normal 2.705981e-01 -9.238795e-01 2.705980e-01
    outer loop
      vertex   -1.409782e+02 3.286068e+02 -1.859599e+02
      vertex   -1.449650e+02 3.287567e+02 -1.814615e+02
      vertex   -1.452208e+02 3.286068e+02 -1.817173e+02
    endloop
  endfacet
  facet normal 4.304593e-01 -7.933533e-01 4.304593e-01
    outer loop
      vertex   -1.409782e+02 3.286068e+02 -1.859599e+02
      vertex   -1.452208e+02 3.286068e+02 -1.817173e+02
      vertex   -1.411978e+02 3.283684e+02 -1.861796e+02
    endloop
  endfacet
  facet normal 4.304593e-01 -7.933533e-01 4.304593e-01
    outer loop
      vertex   -1.411978e+02 3.283684e+02 -1.861796e+02
      vertex   -1.452208e+02 3.286068e+02 -1.817173e+02
      vertex   -1.454405e+02 3.283684e+02 -1.819370e+02
    endloop
  endfacet
  facet normal 5.609855e-01 -6.087614e-01 5.609855e-01
    outer loop
      vertex   -1.411978e+02 3.283684e+02 -1.861796e+02
      vertex   -1.454405e+02 3.283684e+02 -1.819370e+02
      vertex   -1.413664e+02 3.280578e+02 -1.863482e+02
    endloop
  endfacet
  facet normal 5.609855e-01 -6.087614e-01 5.609855e-01
    outer loop
      vertex   -1.413664e+02 3.280578e+02 -1.863482e+02
      vertex   -1.454405e+02 3.283684e+02 -1.819370e+02
      vertex   -1.456090e+02 3.280578e+02 -1.821055e+02
    endloop
  endfacet
  facet normal 6.532815e-01 -3.826834e-01 6.532815e-01
    outer loop
      vertex   -1.413664e+02 3.280578e+02 -1.863482e+02
      vertex   -1.456090e+02 3.280578e+02 -1.821055e+02
      vertex   -1.414723e+02 3.276960e+02 -1.864541e+02
    endloop
  endfacet
  facet normal 6.532815e-01 -3.826834e-01 6.532815e-01
    outer loop
      vertex   -1.414723e+02 3.276960e+02 -1.864541e+02
      vertex   -1.456090e+02 3.280578e+02 -1.821055e+02
      vertex   -1.457150e+02 3.276960e+02 -1.822115e+02
    endloop
  endfacet
  facet normal 8.940167e-09 -1.000000e+00 -1.797090e-08
    outer loop
      vertex   -1.405893e+02 3.245078e+02 -1.770857e+02
      vertex   -1.468118e+02 3.245078e+02 -1.833083e+02
      vertex   -1.363466e+02 3.245078e+02 -1.813284e+02
    endloop
  endfacet
  facet normal 6.832995e-09 -1.000000e+00 -6.832995e-09
    outer loop
      vertex   -1.363466e+02 3.245078e+02 -1.813284e+02
      vertex   -1.468118e+02 3.245078e+02 -1.833083e+02
      vertex   -1.425691e+02 3.245078e+02 -1.875509e+02
    endloop
  endfacet
  facet normal -7.071068e-01 -1.902893e-08 7.071068e-01
    outer loop
      vertex   -1.425691e+02 3.301078e+02 -1.790656e+02
      vertex   -1.436298e+02 3.273078e+02 -1.801263e+02
      vertex   -1.405893e+02 3.245078e+02 -1.770857e+02
    endloop
  endfacet
  facet normal -7.071068e-01 -1.902910e-08 7.071068e-01
    outer loop
      vertex   -1.405893e+02 3.245078e+02 -1.770857e+02
      vertex   -1.436298e+02 3.273078e+02 -1.801263e+02
      vertex   -1.436660e+02 3.269195e+02 -1.801624e+02
    endloop
  endfacet
  facet normal -7.071068e-01 -1.902903e-08 7.071068e-01
    outer loop
      vertex   -1.405893e+02 3.245078e+02 -1.770857e+02
      vertex   -1.436660e+02 3.269195e+02 -1.801624e+02
      vertex   -1.437719e+02 3.265578e+02 -1.802684e+02
    endloop
  endfacet
  facet normal -7.071068e-01 -1.902885e-08 7.071068e-01
    outer loop
      vertex   -1.468118e+02 3.301078e+02 -1.833083e+02
      vertex   -1.446905e+02 3.288078e+02 -1.811870e+02
      vertex   -1.425691e+02 3.301078e+02 -1.790656e+02
    endloop
  endfacet
  facet normal -7.071068e-01 -1.902874e-08 7.071068e-01
    outer loop
      vertex   -1.425691e+02 3.301078e+02 -1.790656e+02
      vertex   -1.446905e+02 3.288078e+02 -1.811870e+02
      vertex   -1.444160e+02 3.287567e+02 -1.809124e+02
    endloop
  endfacet
  facet normal -7.071068e-01 -1.902892e-08 7.071068e-01
    outer loop
      vertex   -1.425691e+02 3.301078e+02 -1.790656e+02
      vertex   -1.444160e+02 3.287567e+02 -1.809124e+02
      vertex   -1.441601e+02 3.286068e+02 -1.806566e+02
    endloop
  endfacet
  facet normal -7.071068e-01 -1.902901e-08 7.071068e-01
    outer loop
      vertex   -1.468118e+02 3.245078e+02 -1.833083e+02
      vertex   -1.457511e+02 3.273078e+02 -1.822476e+02
      vertex   -1.468118e+02 3.301078e+02 -1.833083e+02
    endloop
  endfacet
  facet normal -7.071068e-01 -1.902903e-08 7.071068e-01
    outer loop
      vertex   -1.468118e+02 3.301078e+02 -1.833083e+02
      vertex   -1.457511e+02 3.273078e+02 -1.822476e+02
      vertex   -1.457150e+02 3.276960e+02 -1.822115e+02
    endloop
  endfacet
  facet normal -7.071068e-01 -1.902896e-08 7.071068e-01
    outer loop
      vertex   -1.468118e+02 3.301078e+02 -1.833083e+02
      vertex   -1.457150e+02 3.276960e+02 -1.822115e+02
      vertex   -1.456090e+02 3.280578e+02 -1.821055e+02
    endloop
  endfacet
  facet normal -7.071068e-01 -1.902903e-08 7.071068e-01
    outer loop
      vertex   -1.405893e+02 3.245078e+02 -1.770857e+02
      vertex   -1.444160e+02 3.258589e+02 -1.809124e+02
      vertex   -1.468118e+02 3.245078e+02 -1.833083e+02
    endloop
  endfacet
  facet normal -7.071068e-01 -1.902917e-08 7.071068e-01
    outer loop
      vertex   -1.468118e+02 3.245078e+02 -1.833083e+02
      vertex   -1.444160e+02 3.258589e+02 -1.809124e+02
      vertex   -1.446905e+02 3.258078e+02 -1.811870e+02
    endloop
  endfacet
  facet normal -7.071068e-01 -1.902915e-08 7.071068e-01
    outer loop
      vertex   -1.468118e+02 3.245078e+02 -1.833083e+02
      vertex   -1.446905e+02 3.258078e+02 -1.811870e+02
      vertex   -1.449650e+02 3.258589e+02 -1.814615e+02
    endloop
  endfacet
  facet normal -7.071068e-01 -1.902890e-08 7.071068e-01
    outer loop
      vertex   -1.456090e+02 3.280578e+02 -1.821055e+02
      vertex   -1.454405e+02 3.283684e+02 -1.819370e+02
      vertex   -1.468118e+02 3.301078e+02 -1.833083e+02
    endloop
  endfacet
  facet normal -7.071068e-01 -1.902898e-08 7.071068e-01
    outer loop
      vertex   -1.468118e+02 3.301078e+02 -1.833083e+02
      vertex   -1.454405e+02 3.283684e+02 -1.819370e+02
      vertex   -1.452208e+02 3.286068e+02 -1.817173e+02
    endloop
  endfacet
  facet normal -7.071068e-01 -1.902891e-08 7.071068e-01
    outer loop
      vertex   -1.468118e+02 3.301078e+02 -1.833083e+02
      vertex   -1.452208e+02 3.286068e+02 -1.817173e+02
      vertex   -1.449650e+02 3.287567e+02 -1.814615e+02
    endloop
  endfacet
  facet normal -7.071068e-01 -1.902873e-08 7.071068e-01
    outer loop
      vertex   -1.449650e+02 3.287567e+02 -1.814615e+02
      vertex   -1.446905e+02 3.288078e+02 -1.811870e+02
      vertex   -1.468118e+02 3.301078e+02 -1.833083e+02
    endloop
  endfacet
  facet normal -7.071068e-01 -1.902894e-08 7.071068e-01
    outer loop
      vertex   -1.441601e+02 3.286068e+02 -1.806566e+02
      vertex   -1.439405e+02 3.283684e+02 -1.804370e+02
      vertex   -1.425691e+02 3.301078e+02 -1.790656e+02
    endloop
  endfacet
  facet normal -7.071068e-01 -1.902894e-08 7.071068e-01
    outer loop
      vertex   -1.425691e+02 3.301078e+02 -1.790656e+02
      vertex   -1.439405e+02 3.283684e+02 -1.804370e+02
      vertex   -1.437719e+02 3.280578e+02 -1.802684e+02
    endloop
  endfacet
  facet normal -7.071068e-01 -1.902900e-08 7.071068e-01
    outer loop
      vertex   -1.425691e+02 3.301078e+02 -1.790656e+02
      vertex   -1.437719e+02 3.280578e+02 -1.802684e+02
      vertex   -1.436660e+02 3.276960e+02 -1.801624e+02
    endloop
  endfacet
  facet normal -7.071068e-01 -1.902899e-08 7.071068e-01
    outer loop
      vertex   -1.436660e+02 3.276960e+02 -1.801624e+02
      vertex   -1.436298e+02 3.273078e+02 -1.801263e+02
      vertex   -1.425691e+02 3.301078e+02 -1.790656e+02
    endloop
  endfacet
  facet normal -7.071068e-01 -1.902896e-08 7.071068e-01
    outer loop
      vertex   -1.437719e+02 3.265578e+02 -1.802684e+02
      vertex   -1.439405e+02 3.262471e+02 -1.804370e+02
      vertex   -1.405893e+02 3.245078e+02 -1.770857e+02
    endloop
  endfacet
  facet normal -7.071068e-01 -1.902890e-08 7.071068e-01
    outer loop
      vertex   -1.405893e+02 3.245078e+02 -1.770857e+02
      vertex   -1.439405e+02 3.262471e+02 -1.804370e+02
      vertex   -1.441601e+02 3.260087e+02 -1.806566e+02
    endloop
  endfacet
  facet normal -7.071068e-01 -1.902903e-08 7.071068e-01
    outer loop
      vertex   -1.405893e+02 3.245078e+02 -1.770857e+02
      vertex   -1.441601e+02 3.260087e+02 -1.806566e+02
      vertex   -1.444160e+02 3.258589e+02 -1.809124e+02
    endloop
  endfacet
  facet normal -7.071068e-01 -1.902909e-08 7.071068e-01
    outer loop
      vertex   -1.449650e+02 3.258589e+02 -1.814615e+02
      vertex   -1.452208e+02 3.260087e+02 -1.817173e+02
      vertex   -1.468118e+02 3.245078e+02 -1.833083e+02
    endloop
  endfacet
  facet normal -7.071068e-01 -1.902912e-08 7.071068e-01
    outer loop
      vertex   -1.468118e+02 3.245078e+02 -1.833083e+02
      vertex   -1.452208e+02 3.260087e+02 -1.817173e+02
      vertex   -1.454405e+02 3.262471e+02 -1.819370e+02
    endloop
  endfacet
  facet normal -7.071068e-01 -1.902904e-08 7.071068e-01
    outer loop
      vertex   -1.468118e+02 3.245078e+02 -1.833083e+02
      vertex   -1.454405e+02 3.262471e+02 -1.819370e+02
      vertex   -1.456090e+02 3.265578e+02 -1.821055e+02
    endloop
  endfacet
  facet normal -7.071068e-01 -1.902904e-08 7.071068e-01
    outer loop
      vertex   -1.456090e+02 3.265578e+02 -1.821055e+02
      vertex   -1.457150e+02 3.269195e+02 -1.822115e+02
      vertex   -1.468118e+02 3.245078e+02 -1.833083e+02
    endloop
  endfacet
  facet normal -7.071068e-01 -1.902911e-08 7.071068e-01
    outer loop
      vertex   -1.468118e+02 3.245078e+02 -1.833083e+02
      vertex   -1.457150e+02 3.269195e+02 -1.822115e+02
      vertex   -1.457511e+02 3.273078e+02 -1.822476e+02
    endloop
  endfacet
  facet normal -6.832902e-09 1.000000e+00 2.007818e-08
    outer loop
      vertex   -1.425691e+02 3.301078e+02 -1.790656e+02
      vertex   -1.383265e+02 3.301078e+02 -1.833083e+02
      vertex   -1.468118e+02 3.301078e+02 -1.833083e+02
    endloop
  endfacet
  facet normal -6.832902e-09 1.000000e+00 6.832902e-09
    outer loop
      vertex   -1.468118e+02 3.301078e+02 -1.833083e+02
      vertex   -1.383265e+02 3.301078e+02 -1.833083e+02
      vertex   -1.425691e+02 3.301078e+02 -1.875509e+02
    endloop
  endfacet
  facet normal 7.071068e-01 1.902894e-08 -7.071068e-01
    outer loop
      vertex   -1.363466e+02 3.245078e+02 -1.813284e+02
      vertex   -1.393872e+02 3.273078e+02 -1.843689e+02
      vertex   -1.383265e+02 3.301078e+02 -1.833083e+02
    endloop
  endfacet
  facet normal 7.071068e-01 1.902904e-08 -7.071068e-01
    outer loop
      vertex   -1.383265e+02 3.301078e+02 -1.833083e+02
      vertex   -1.393872e+02 3.273078e+02 -1.843689e+02
      vertex   -1.394233e+02 3.276960e+02 -1.844051e+02
    endloop
  endfacet
  facet normal 7.071068e-01 1.902897e-08 -7.071068e-01
    outer loop
      vertex   -1.383265e+02 3.301078e+02 -1.833083e+02
      vertex   -1.394233e+02 3.276960e+02 -1.844051e+02
      vertex   -1.395293e+02 3.280578e+02 -1.845110e+02
    endloop
  endfacet
  facet normal 7.071068e-01 1.902882e-08 -7.071068e-01
    outer loop
      vertex   -1.425691e+02 3.245078e+02 -1.875509e+02
      vertex   -1.401733e+02 3.258589e+02 -1.851551e+02
      vertex   -1.363466e+02 3.245078e+02 -1.813284e+02
    endloop
  endfacet
  facet normal 7.071068e-01 1.902886e-08 -7.071068e-01
    outer loop
      vertex   -1.363466e+02 3.245078e+02 -1.813284e+02
      vertex   -1.401733e+02 3.258589e+02 -1.851551e+02
      vertex   -1.399175e+02 3.260087e+02 -1.848993e+02
    endloop
  endfacet
  facet normal 7.071068e-01 1.902896e-08 -7.071068e-01
    outer loop
      vertex   -1.363466e+02 3.245078e+02 -1.813284e+02
      vertex   -1.399175e+02 3.260087e+02 -1.848993e+02
      vertex   -1.396978e+02 3.262471e+02 -1.846796e+02
    endloop
  endfacet
  facet normal 7.071068e-01 1.902892e-08 -7.071068e-01
    outer loop
      vertex   -1.425691e+02 3.301078e+02 -1.875509e+02
      vertex   -1.415085e+02 3.273078e+02 -1.864903e+02
      vertex   -1.425691e+02 3.245078e+02 -1.875509e+02
    endloop
  endfacet
  facet normal 7.071068e-01 1.902899e-08 -7.071068e-01
    outer loop
      vertex   -1.425691e+02 3.245078e+02 -1.875509e+02
      vertex   -1.415085e+02 3.273078e+02 -1.864903e+02
      vertex   -1.414723e+02 3.269195e+02 -1.864541e+02
    endloop
  endfacet
  facet normal 7.071068e-01 1.902896e-08 -7.071068e-01
    outer loop
      vertex   -1.425691e+02 3.245078e+02 -1.875509e+02
      vertex   -1.414723e+02 3.269195e+02 -1.864541e+02
      vertex   -1.413664e+02 3.265578e+02 -1.863482e+02
    endloop
  endfacet
  facet normal 7.071068e-01 1.902884e-08 -7.071068e-01
    outer loop
      vertex   -1.383265e+02 3.301078e+02 -1.833083e+02
      vertex   -1.404478e+02 3.288078e+02 -1.854296e+02
      vertex   -1.425691e+02 3.301078e+02 -1.875509e+02
    endloop
  endfacet
  facet normal 7.071068e-01 1.902890e-08 -7.071068e-01
    outer loop
      vertex   -1.425691e+02 3.301078e+02 -1.875509e+02
      vertex   -1.404478e+02 3.288078e+02 -1.854296e+02
      vertex   -1.407223e+02 3.287567e+02 -1.857041e+02
    endloop
  endfacet
  facet normal 7.071068e-01 1.902892e-08 -7.071068e-01
    outer loop
      vertex   -1.425691e+02 3.301078e+02 -1.875509e+02
      vertex   -1.407223e+02 3.287567e+02 -1.857041e+02
      vertex   -1.409782e+02 3.286068e+02 -1.859599e+02
    endloop
  endfacet
  facet normal 7.071068e-01 1.902896e-08 -7.071068e-01
    outer loop
      vertex   -1.413664e+02 3.265578e+02 -1.863482e+02
      vertex   -1.411978e+02 3.262471e+02 -1.861796e+02
      vertex   -1.425691e+02 3.245078e+02 -1.875509e+02
    endloop
  endfacet
  facet normal 7.071068e-01 1.902892e-08 -7.071068e-01
    outer loop
      vertex   -1.425691e+02 3.245078e+02 -1.875509e+02
      vertex   -1.411978e+02 3.262471e+02 -1.861796e+02
      vertex   -1.409782e+02 3.260087e+02 -1.859599e+02
    endloop
  endfacet
  facet normal 7.071068e-01 1.902884e-08 -7.071068e-01
    outer loop
      vertex   -1.425691e+02 3.245078e+02 -1.875509e+02
      vertex   -1.409782e+02 3.260087e+02 -1.859599e+02
      vertex   -1.407223e+02 3.258589e+02 -1.857041e+02
    endloop
  endfacet
  facet normal 7.071068e-01 1.902888e-08 -7.071068e-01
    outer loop
      vertex   -1.407223e+02 3.258589e+02 -1.857041e+02
      vertex   -1.404478e+02 3.258078e+02 -1.854296e+02
      vertex   -1.425691e+02 3.245078e+02 -1.875509e+02
    endloop
  endfacet
  facet normal 7.071068e-01 1.902866e-08 -7.071068e-01
    outer loop
      vertex   -1.425691e+02 3.245078e+02 -1.875509e+02
      vertex   -1.404478e+02 3.258078e+02 -1.854296e+02
      vertex   -1.401733e+02 3.258589e+02 -1.851551e+02
    endloop
  endfacet
  facet normal 7.071068e-01 1.902900e-08 -7.071068e-01
    outer loop
      vertex   -1.396978e+02 3.262471e+02 -1.846796e+02
      vertex   -1.395293e+02 3.265578e+02 -1.845110e+02
      vertex   -1.363466e+02 3.245078e+02 -1.813284e+02
    endloop
  endfacet
  facet normal 7.071068e-01 1.902894e-08 -7.071068e-01
    outer loop
      vertex   -1.363466e+02 3.245078e+02 -1.813284e+02
      vertex   -1.395293e+02 3.265578e+02 -1.845110e+02
      vertex   -1.394233e+02 3.269195e+02 -1.844051e+02
    endloop
  endfacet
  facet normal 7.071068e-01 1.902905e-08 -7.071068e-01
    outer loop
      vertex   -1.363466e+02 3.245078e+02 -1.813284e+02
      vertex   -1.394233e+02 3.269195e+02 -1.844051e+02
      vertex   -1.393872e+02 3.273078e+02 -1.843689e+02
    endloop
  endfacet
  facet normal 7.071068e-01 1.902898e-08 -7.071068e-01
    outer loop
      vertex   -1.395293e+02 3.280578e+02 -1.845110e+02
      vertex   -1.396978e+02 3.283684e+02 -1.846796e+02
      vertex   -1.383265e+02 3.301078e+02 -1.833083e+02
    endloop
  endfacet
  facet normal 7.071068e-01 1.902894e-08 -7.071068e-01
    outer loop
      vertex   -1.383265e+02 3.301078e+02 -1.833083e+02
      vertex   -1.396978e+02 3.283684e+02 -1.846796e+02
      vertex   -1.399175e+02 3.286068e+02 -1.848993e+02
    endloop
  endfacet
  facet normal 7.071068e-01 1.902892e-08 -7.071068e-01
    outer loop
      vertex   -1.383265e+02 3.301078e+02 -1.833083e+02
      vertex   -1.399175e+02 3.286068e+02 -1.848993e+02
      vertex   -1.401733e+02 3.287567e+02 -1.851551e+02
    endloop
  endfacet
  facet normal 7.071068e-01 1.902891e-08 -7.071068e-01
    outer loop
      vertex   -1.401733e+02 3.287567e+02 -1.851551e+02
      vertex   -1.404478e+02 3.288078e+02 -1.854296e+02
      vertex   -1.383265e+02 3.301078e+02 -1.833083e+02
    endloop
  endfacet
  facet normal 7.071068e-01 1.902894e-08 -7.071068e-01
    outer loop
      vertex   -1.409782e+02 3.286068e+02 -1.859599e+02
      vertex   -1.411978e+02 3.283684e+02 -1.861796e+02
      vertex   -1.425691e+02 3.301078e+02 -1.875509e+02
    endloop
  endfacet
  facet normal 7.071068e-01 1.902894e-08 -7.071068e-01
    outer loop
      vertex   -1.425691e+02 3.301078e+02 -1.875509e+02
      vertex   -1.411978e+02 3.283684e+02 -1.861796e+02
      vertex   -1.413664e+02 3.280578e+02 -1.863482e+02
    endloop
  endfacet
  facet normal 7.071068e-01 1.902897e-08 -7.071068e-01
    outer loop
      vertex   -1.425691e+02 3.301078e+02 -1.875509e+02
      vertex   -1.413664e+02 3.280578e+02 -1.863482e+02
      vertex   -1.414723e+02 3.276960e+02 -1.864541e+02
    endloop
  endfacet
  facet normal 7.071068e-01 1.902908e-08 -7.071068e-01
    outer loop
      vertex   -1.414723e+02 3.276960e+02 -1.864541e+02
      vertex   -1.415085e+02 3.273078e+02 -1.864903e+02
      vertex   -1.425691e+02 3.301078e+02 -1.875509e+02
    endloop
  endfacet
  facet normal 6.324556e-01 4.472136e-01 6.324555e-01
    outer loop
      vertex   -1.383265e+02 3.301078e+02 -1.833083e+02
      vertex   -1.425691e+02 3.301078e+02 -1.790656e+02
      vertex   -1.363466e+02 3.245078e+02 -1.813284e+02
    endloop
  endfacet
  facet normal 6.324556e-01 4.472136e-01 6.324555e-01
    outer loop
      vertex   -1.363466e+02 3.245078e+02 -1.813284e+02
      vertex   -1.425691e+02 3.301078e+02 -1.790656e+02
      vertex   -1.405893e+02 3.245078e+02 -1.770857e+02
    endloop
  endfacet
  facet normal 7.071068e-01 3.052612e-23 7.071068e-01
    outer loop
      vertex   -1.425691e+02 3.301078e+02 -1.875509e+02
      vertex   -1.425691e+02 3.245078e+02 -1.875509e+02
      vertex   -1.250507e+02 3.301078e+02 -2.050694e+02
    endloop
  endfacet
  facet normal 7.071068e-01 0.000000e+00 7.071068e-01
    outer loop
      vertex   -1.250507e+02 3.301078e+02 -2.050694e+02
      vertex   -1.425691e+02 3.245078e+02 -1.875509e+02
      vertex   -1.250507e+02 3.245078e+02 -2.050694e+02
    endloop
  endfacet
  facet normal -7.071068e-01 0.000000e+00 7.071068e-01
    outer loop
      vertex   -1.732754e+02 3.041078e+02 -1.948870e+02
      vertex   -1.732754e+02 3.047078e+02 -1.948870e+02
      vertex   -1.758210e+02 3.041078e+02 -1.974326e+02
    endloop
  endfacet
  facet normal -7.071068e-01 3.349531e-14 7.071068e-01
    outer loop
      vertex   -1.758210e+02 3.041078e+02 -1.974326e+02
      vertex   -1.732754e+02 3.047078e+02 -1.948870e+02
      vertex   -1.758210e+02 3.047078e+02 -1.974326e+02
    endloop
  endfacet
  facet normal -7.071068e-01 0.000000e+00 -7.071068e-01
    outer loop
      vertex   -1.732754e+02 3.041078e+02 -1.948870e+02
      vertex   -1.775180e+02 3.041078e+02 -1.906444e+02
      vertex   -1.732754e+02 3.047078e+02 -1.948870e+02
    endloop
  endfacet
  facet normal -7.071068e-01 0.000000e+00 -7.071068e-01
    outer loop
      vertex   -1.732754e+02 3.047078e+02 -1.948870e+02
      vertex   -1.775180e+02 3.041078e+02 -1.906444e+02
      vertex   -1.775180e+02 3.245078e+02 -1.906444e+02
    endloop
  endfacet
  facet normal -7.071068e-01 -5.075046e-14 -7.071068e-01
    outer loop
      vertex   -1.732754e+02 3.047078e+02 -1.948870e+02
      vertex   -1.775180e+02 3.245078e+02 -1.906444e+02
      vertex   -1.732754e+02 3.245078e+02 -1.948870e+02
    endloop
  endfacet
  facet normal -2.907678e-14 1.000000e+00 -2.907678e-14
    outer loop
      vertex   -1.566584e+02 3.047078e+02 -1.782700e+02
      vertex   -1.449733e+02 3.047078e+02 -1.899551e+02
      vertex   -1.732754e+02 3.047078e+02 -1.948870e+02
    endloop
  endfacet
  facet normal -3.286621e-14 1.000000e+00 -7.331066e-15
    outer loop
      vertex   -1.732754e+02 3.047078e+02 -1.948870e+02
      vertex   -1.449733e+02 3.047078e+02 -1.899551e+02
      vertex   -1.690132e+02 3.047078e+02 -2.139950e+02
    endloop
  endfacet
  facet normal 0.000000e+00 1.000000e+00 0.000000e+00
    outer loop
      vertex   -1.732754e+02 3.047078e+02 -1.948870e+02
      vertex   -1.690132e+02 3.047078e+02 -2.139950e+02
      vertex   -1.758210e+02 3.047078e+02 -1.974326e+02
    endloop
  endfacet
  facet normal 0.000000e+00 1.000000e+00 0.000000e+00
    outer loop
      vertex   -1.758210e+02 3.047078e+02 -1.974326e+02
      vertex   -1.690132e+02 3.047078e+02 -2.139950e+02
      vertex   -1.806983e+02 3.047078e+02 -2.023099e+02
    endloop
  endfacet
  facet normal 7.071068e-01 0.000000e+00 -7.071068e-01
    outer loop
      vertex   -1.690132e+02 3.047078e+02 -2.139950e+02
      vertex   -1.449733e+02 3.047078e+02 -1.899551e+02
      vertex   -1.690132e+02 3.005078e+02 -2.139950e+02
    endloop
  endfacet
  facet normal 7.071068e-01 0.000000e+00 -7.071068e-01
    outer loop
      vertex   -1.690132e+02 3.005078e+02 -2.139950e+02
      vertex   -1.449733e+02 3.047078e+02 -1.899551e+02
      vertex   -1.449733e+02 3.005078e+02 -1.899551e+02
    endloop
  endfacet
  facet normal 0.000000e+00 1.000000e+00 0.000000e+00
    outer loop
      vertex   -1.732754e+02 3.041078e+02 -1.948870e+02
      vertex   -1.758210e+02 3.041078e+02 -1.974326e+02
      vertex   -1.775180e+02 3.041078e+02 -1.906444e+02
    endloop
  endfacet
  facet normal 0.000000e+00 1.000000e+00 0.000000e+00
    outer loop
      vertex   -1.775180e+02 3.041078e+02 -1.906444e+02
      vertex   -1.758210e+02 3.041078e+02 -1.974326e+02
      vertex   -1.800636e+02 3.041078e+02 -1.931900e+02
    endloop
  endfacet
  facet normal 7.071068e-01 1.641270e-12 7.071068e-01
    outer loop
      vertex   -1.758210e+02 3.041078e+02 -1.974326e+02
      vertex   -1.758210e+02 3.047078e+02 -1.974326e+02
      vertex   -1.800636e+02 3.041078e+02 -1.931900e+02
    endloop
  endfacet
  facet normal 7.071068e-01 4.827265e-14 7.071068e-01
    outer loop
      vertex   -1.800636e+02 3.041078e+02 -1.931900e+02
      vertex   -1.758210e+02 3.047078e+02 -1.974326e+02
      vertex   -1.800636e+02 3.245078e+02 -1.931900e+02
    endloop
  endfacet
  facet normal 7.071068e-01 0.000000e+00 7.071068e-01
    outer loop
      vertex   -1.800636e+02 3.245078e+02 -1.931900e+02
      vertex   -1.758210e+02 3.047078e+02 -1.974326e+02
      vertex   -1.758210e+02 3.245078e+02 -1.974326e+02
    endloop
  endfacet
  facet normal 7.071068e-01 0.000000e+00 7.071068e-01
    outer loop
      vertex   -1.566584e+02 3.245078e+02 -1.782700e+02
      vertex   -1.609010e+02 3.245078e+02 -1.740274e+02
      vertex   -1.566584e+02 3.047078e+02 -1.782700e+02
    endloop
  endfacet
  facet normal 7.071068e-01 0.000000e+00 7.071068e-01
    outer loop
      vertex   -1.566584e+02 3.047078e+02 -1.782700e+02
      vertex   -1.609010e+02 3.245078e+02 -1.740274e+02
      vertex   -1.609010e+02 3.005078e+02 -1.740274e+02
    endloop
  endfacet
  facet normal 7.071068e-01 5.708033e-15 7.071068e-01
    outer loop
      vertex   -1.566584e+02 3.047078e+02 -1.782700e+02
      vertex   -1.609010e+02 3.005078e+02 -1.740274e+02
      vertex   -1.449733e+02 3.005078e+02 -1.899551e+02
    endloop
  endfacet
  facet normal 7.071068e-01 -0.000000e+00 7.071068e-01
    outer loop
      vertex   -1.449733e+02 3.005078e+02 -1.899551e+02
      vertex   -1.449733e+02 3.047078e+02 -1.899551e+02
      vertex   -1.566584e+02 3.047078e+02 -1.782700e+02
    endloop
  endfacet
  facet normal 2.128091e-14 -1.000000e+00 2.128091e-14
    outer loop
      vertex   -1.690132e+02 3.005078e+02 -2.139950e+02
      vertex   -1.449733e+02 3.005078e+02 -1.899551e+02
      vertex   -1.849409e+02 3.005078e+02 -1.980673e+02
    endloop
  endfacet
  facet normal 2.128091e-14 -1.000000e+00 2.128091e-14
    outer loop
      vertex   -1.849409e+02 3.005078e+02 -1.980673e+02
      vertex   -1.449733e+02 3.005078e+02 -1.899551e+02
      vertex   -1.609010e+02 3.005078e+02 -1.740274e+02
    endloop
  endfacet
  facet normal -7.071068e-01 2.786644e-15 7.071068e-01
    outer loop
      vertex   -1.609010e+02 3.005078e+02 -1.740274e+02
      vertex   -1.775180e+02 3.041078e+02 -1.906444e+02
      vertex   -1.849409e+02 3.005078e+02 -1.980673e+02
    endloop
  endfacet
  facet normal -7.071068e-01 2.741291e-14 7.071068e-01
    outer loop
      vertex   -1.849409e+02 3.005078e+02 -1.980673e+02
      vertex   -1.775180e+02 3.041078e+02 -1.906444e+02
      vertex   -1.800636e+02 3.041078e+02 -1.931900e+02
    endloop
  endfacet
  facet normal -7.071068e-01 9.846919e-16 7.071068e-01
    outer loop
      vertex   -1.849409e+02 3.005078e+02 -1.980673e+02
      vertex   -1.800636e+02 3.041078e+02 -1.931900e+02
      vertex   -1.800636e+02 3.245078e+02 -1.931900e+02
    endloop
  endfacet
  facet normal -7.071068e-01 0.000000e+00 7.071068e-01
    outer loop
      vertex   -1.609010e+02 3.005078e+02 -1.740274e+02
      vertex   -1.609010e+02 3.245078e+02 -1.740274e+02
      vertex   -1.775180e+02 3.041078e+02 -1.906444e+02
    endloop
  endfacet
  facet normal -7.071068e-01 0.000000e+00 7.071068e-01
    outer loop
      vertex   -1.775180e+02 3.041078e+02 -1.906444e+02
      vertex   -1.609010e+02 3.245078e+02 -1.740274e+02
      vertex   -1.775180e+02 3.245078e+02 -1.906444e+02
    endloop
  endfacet
  facet normal -7.071068e-01 -1.295823e-15 7.071068e-01
    outer loop
      vertex   -1.775180e+02 3.245078e+02 -1.906444e+02
      vertex   -1.609010e+02 3.245078e+02 -1.740274e+02
      vertex   -1.584968e+02 3.301078e+02 -1.716232e+02
    endloop
  endfacet
  facet normal -7.071068e-01 -2.171396e-15 7.071068e-01
    outer loop
      vertex   -1.775180e+02 3.245078e+02 -1.906444e+02
      vertex   -1.584968e+02 3.301078e+02 -1.716232e+02
      vertex   -1.849409e+02 3.301078e+02 -1.980673e+02
    endloop
  endfacet
  facet normal -7.071068e-01 0.000000e+00 7.071068e-01
    outer loop
      vertex   -1.609010e+02 3.245078e+02 -1.740274e+02
      vertex   -1.584968e+02 3.245078e+02 -1.716232e+02
      vertex   -1.584968e+02 3.301078e+02 -1.716232e+02
    endloop
  endfacet
  facet normal -7.071068e-01 -2.801991e-14 7.071068e-01
    outer loop
      vertex   -1.775180e+02 3.245078e+02 -1.906444e+02
      vertex   -1.849409e+02 3.301078e+02 -1.980673e+02
      vertex   -1.800636e+02 3.245078e+02 -1.931900e+02
    endloop
  endfacet
  facet normal -7.071068e-01 0.000000e+00 7.071068e-01
    outer loop
      vertex   -1.800636e+02 3.245078e+02 -1.931900e+02
      vertex   -1.849409e+02 3.301078e+02 -1.980673e+02
      vertex   -1.849409e+02 3.005078e+02 -1.980673e+02
    endloop
  endfacet
  facet normal 7.071068e-01 4.576531e-23 7.071068e-01
    outer loop
      vertex   -1.468118e+02 3.245078e+02 -1.833083e+02
      vertex   -1.468118e+02 3.301078e+02 -1.833083e+02
      vertex   -1.584968e+02 3.245078e+02 -1.716232e+02
    endloop
  endfacet
  facet normal 7.071068e-01 -0.000000e+00 7.071068e-01
    outer loop
      vertex   -1.584968e+02 3.245078e+02 -1.716232e+02
      vertex   -1.468118e+02 3.301078e+02 -1.833083e+02
      vertex   -1.584968e+02 3.301078e+02 -1.716232e+02
    endloop
  endfacet
  facet normal 7.071068e-01 -0.000000e+00 7.071068e-01
    outer loop
      vertex   -1.392093e+02 3.260078e+02 -2.256978e+02
      vertex   -1.392093e+02 3.286078e+02 -2.256978e+02
      vertex   -1.424442e+02 3.260078e+02 -2.224629e+02
    endloop
  endfacet
  facet normal 7.071068e-01 -0.000000e+00 7.071068e-01
    outer loop
      vertex   -1.424442e+02 3.260078e+02 -2.224629e+02
      vertex   -1.392093e+02 3.286078e+02 -2.256978e+02
      vertex   -1.424442e+02 3.286078e+02 -2.224629e+02
    endloop
  endfacet
  facet normal 0.000000e+00 1.000000e+00 0.000000e+00
    outer loop
      vertex   -1.392093e+02 3.286078e+02 -2.256978e+02
      vertex   -1.431691e+02 3.286078e+02 -2.296576e+02
      vertex   -1.424442e+02 3.286078e+02 -2.224629e+02
    endloop
  endfacet
  facet normal 0.000000e+00 1.000000e+00 0.000000e+00
    outer loop
      vertex   -1.424442e+02 3.286078e+02 -2.224629e+02
      vertex   -1.431691e+02 3.286078e+02 -2.296576e+02
      vertex   -1.464040e+02 3.286078e+02 -2.264227e+02
    endloop
  endfacet
  facet normal -7.071068e-01 -0.000000e+00 -7.071068e-01
    outer loop
      vertex   -1.431691e+02 3.286078e+02 -2.296576e+02
      vertex   -1.431691e+02 3.260078e+02 -2.296576e+02
      vertex   -1.464040e+02 3.286078e+02 -2.264227e+02
    endloop
  endfacet
  facet normal -7.071068e-01 -0.000000e+00 -7.071068e-01
    outer loop
      vertex   -1.464040e+02 3.286078e+02 -2.264227e+02
      vertex   -1.431691e+02 3.260078e+02 -2.296576e+02
      vertex   -1.464040e+02 3.260078e+02 -2.264227e+02
    endloop
  endfacet
  facet normal 0.000000e+00 -1.000000e+00 0.000000e+00
    outer loop
      vertex   -1.431691e+02 3.260078e+02 -2.296576e+02
      vertex   -1.392093e+02 3.260078e+02 -2.256978e+02
      vertex   -1.464040e+02 3.260078e+02 -2.264227e+02
    endloop
  endfacet
  facet normal 0.000000e+00 -1.000000e+00 0.000000e+00
    outer loop
      vertex   -1.464040e+02 3.260078e+02 -2.264227e+02
      vertex   -1.392093e+02 3.260078e+02 -2.256978e+02
      vertex   -1.424442e+02 3.260078e+02 -2.224629e+02
    endloop
  endfacet
  facet normal 7.071068e-01 0.000000e+00 -7.071068e-01
    outer loop
      vertex   -1.431691e+02 3.286078e+02 -2.296576e+02
      vertex   -1.392093e+02 3.286078e+02 -2.256978e+02
      vertex   -1.431691e+02 3.260078e+02 -2.296576e+02
    endloop
  endfacet
  facet normal 7.071068e-01 0.000000e+00 -7.071068e-01
    outer loop
      vertex   -1.431691e+02 3.260078e+02 -2.296576e+02
      vertex   -1.392093e+02 3.286078e+02 -2.256978e+02
      vertex   -1.392093e+02 3.260078e+02 -2.256978e+02
    endloop
  endfacet
  facet normal -1.220186e-13 1.000000e+00 -1.220186e-13
    outer loop
      vertex   -1.250681e+02 3.286078e+02 -2.115565e+02
      vertex   -1.290279e+02 3.286078e+02 -2.155163e+02
      vertex   -1.283030e+02 3.286078e+02 -2.083216e+02
    endloop
  endfacet
  facet normal -1.220186e-13 1.000000e+00 -1.220186e-13
    outer loop
      vertex   -1.283030e+02 3.286078e+02 -2.083216e+02
      vertex   -1.290279e+02 3.286078e+02 -2.155163e+02
      vertex   -1.322628e+02 3.286078e+02 -2.122814e+02
    endloop
  endfacet
  facet normal -7.071068e-01 -0.000000e+00 -7.071068e-01
    outer loop
      vertex   -1.290279e+02 3.286078e+02 -2.155163e+02
      vertex   -1.290279e+02 3.260078e+02 -2.155163e+02
      vertex   -1.322628e+02 3.286078e+02 -2.122814e+02
    endloop
  endfacet
  facet normal -7.071068e-01 -0.000000e+00 -7.071068e-01
    outer loop
      vertex   -1.322628e+02 3.286078e+02 -2.122814e+02
      vertex   -1.290279e+02 3.260078e+02 -2.155163e+02
      vertex   -1.322628e+02 3.260078e+02 -2.122814e+02
    endloop
  endfacet
  facet normal 0.000000e+00 -1.000000e+00 0.000000e+00
    outer loop
      vertex   -1.290279e+02 3.260078e+02 -2.155163e+02
      vertex   -1.250681e+02 3.260078e+02 -2.115565e+02
      vertex   -1.322628e+02 3.260078e+02 -2.122814e+02
    endloop
  endfacet
  facet normal 0.000000e+00 -1.000000e+00 0.000000e+00
    outer loop
      vertex   -1.322628e+02 3.260078e+02 -2.122814e+02
      vertex   -1.250681e+02 3.260078e+02 -2.115565e+02
      vertex   -1.283030e+02 3.260078e+02 -2.083216e+02
    endloop
  endfacet
  facet normal 7.071068e-01 -0.000000e+00 7.071068e-01
    outer loop
      vertex   -1.250681e+02 3.260078e+02 -2.115565e+02
      vertex   -1.250681e+02 3.286078e+02 -2.115565e+02
      vertex   -1.283030e+02 3.260078e+02 -2.083216e+02
    endloop
  endfacet
  facet normal 7.071068e-01 -0.000000e+00 7.071068e-01
    outer loop
      vertex   -1.283030e+02 3.260078e+02 -2.083216e+02
      vertex   -1.250681e+02 3.286078e+02 -2.115565e+02
      vertex   -1.283030e+02 3.286078e+02 -2.083216e+02
    endloop
  endfacet
  facet normal 7.071068e-01 0.000000e+00 -7.071068e-01
    outer loop
      vertex   -1.250681e+02 3.260078e+02 -2.115565e+02
      vertex   -1.290279e+02 3.260078e+02 -2.155163e+02
      vertex   -1.250681e+02 3.286078e+02 -2.115565e+02
    endloop
  endfacet
  facet normal 7.071068e-01 0.000000e+00 -7.071068e-01
    outer loop
      vertex   -1.250681e+02 3.286078e+02 -2.115565e+02
      vertex   -1.290279e+02 3.260078e+02 -2.155163e+02
      vertex   -1.290279e+02 3.286078e+02 -2.155163e+02
    endloop
  endfacet
  facet normal -7.071068e-01 0.000000e+00 -7.071068e-01
    outer loop
      vertex   -1.849409e+02 3.005078e+02 -1.980673e+02
      vertex   -1.849409e+02 3.301078e+02 -1.980673e+02
      vertex   -1.806983e+02 3.245078e+02 -2.023099e+02
    endloop
  endfacet
  facet normal -7.071068e-01 4.452963e-15 -7.071068e-01
    outer loop
      vertex   -1.806983e+02 3.245078e+02 -2.023099e+02
      vertex   -1.849409e+02 3.301078e+02 -1.980673e+02
      vertex   -1.514948e+02 3.301078e+02 -2.315134e+02
    endloop
  endfacet
  facet normal -7.071068e-01 0.000000e+00 -7.071068e-01
    outer loop
      vertex   -1.806983e+02 3.245078e+02 -2.023099e+02
      vertex   -1.514948e+02 3.301078e+02 -2.315134e+02
      vertex   -1.514948e+02 3.245078e+02 -2.315134e+02
    endloop
  endfacet
  facet normal -7.071068e-01 -0.000000e+00 -7.071068e-01
    outer loop
      vertex   -1.806983e+02 3.245078e+02 -2.023099e+02
      vertex   -1.806983e+02 3.047078e+02 -2.023099e+02
      vertex   -1.849409e+02 3.005078e+02 -1.980673e+02
    endloop
  endfacet
  facet normal -7.071068e-01 -7.059935e-15 -7.071068e-01
    outer loop
      vertex   -1.849409e+02 3.005078e+02 -1.980673e+02
      vertex   -1.806983e+02 3.047078e+02 -2.023099e+02
      vertex   -1.690132e+02 3.005078e+02 -2.139950e+02
    endloop
  endfacet
  facet normal -7.071068e-01 0.000000e+00 -7.071068e-01
    outer loop
      vertex   -1.690132e+02 3.005078e+02 -2.139950e+02
      vertex   -1.806983e+02 3.047078e+02 -2.023099e+02
      vertex   -1.690132e+02 3.047078e+02 -2.139950e+02
    endloop
  endfacet
  facet normal -1.934615e-14 1.000000e+00 -1.934615e-14
    outer loop
      vertex   -1.250507e+02 3.301078e+02 -2.050694e+02
      vertex   -1.514948e+02 3.301078e+02 -2.315134e+02
      vertex   -1.425691e+02 3.301078e+02 -1.875509e+02
    endloop
  endfacet
  facet normal -1.934615e-14 1.000000e+00 -1.934615e-14
    outer loop
      vertex   -1.425691e+02 3.301078e+02 -1.875509e+02
      vertex   -1.514948e+02 3.301078e+02 -2.315134e+02
      vertex   -1.849409e+02 3.301078e+02 -1.980673e+02
    endloop
  endfacet
  facet normal -2.717349e-09 1.000000e+00 1.094845e-08
    outer loop
      vertex   -1.425691e+02 3.301078e+02 -1.875509e+02
      vertex   -1.849409e+02 3.301078e+02 -1.980673e+02
      vertex   -1.468118e+02 3.301078e+02 -1.833083e+02
    endloop
  endfacet
  facet normal 2.480888e-09 1.000000e+00 -2.480927e-09
    outer loop
      vertex   -1.468118e+02 3.301078e+02 -1.833083e+02
      vertex   -1.849409e+02 3.301078e+02 -1.980673e+02
      vertex   -1.584968e+02 3.301078e+02 -1.716232e+02
    endloop
  endfacet
  facet normal 7.071068e-01 -1.722641e-14 -7.071068e-01
    outer loop
      vertex   -1.514948e+02 3.245078e+02 -2.315134e+02
      vertex   -1.424442e+02 3.260078e+02 -2.224629e+02
      vertex   -1.250507e+02 3.245078e+02 -2.050694e+02
    endloop
  endfacet
  facet normal 7.071068e-01 3.947797e-15 -7.071068e-01
    outer loop
      vertex   -1.250507e+02 3.245078e+02 -2.050694e+02
      vertex   -1.424442e+02 3.260078e+02 -2.224629e+02
      vertex   -1.322628e+02 3.260078e+02 -2.122814e+02
    endloop
  endfacet
  facet normal 7.071068e-01 -1.099649e-14 -7.071068e-01
    outer loop
      vertex   -1.250507e+02 3.245078e+02 -2.050694e+02
      vertex   -1.322628e+02 3.260078e+02 -2.122814e+02
      vertex   -1.283030e+02 3.260078e+02 -2.083216e+02
    endloop
  endfacet
  facet normal 7.071068e-01 0.000000e+00 -7.071068e-01
    outer loop
      vertex   -1.514948e+02 3.301078e+02 -2.315134e+02
      vertex   -1.464040e+02 3.286078e+02 -2.264227e+02
      vertex   -1.514948e+02 3.245078e+02 -2.315134e+02
    endloop
  endfacet
  facet normal 7.071068e-01 0.000000e+00 -7.071068e-01
    outer loop
      vertex   -1.514948e+02 3.245078e+02 -2.315134e+02
      vertex   -1.464040e+02 3.286078e+02 -2.264227e+02
      vertex   -1.464040e+02 3.260078e+02 -2.264227e+02
    endloop
  endfacet
  facet normal 7.071068e-01 -9.304726e-15 -7.071068e-01
    outer loop
      vertex   -1.514948e+02 3.245078e+02 -2.315134e+02
      vertex   -1.464040e+02 3.260078e+02 -2.264227e+02
      vertex   -1.424442e+02 3.260078e+02 -2.224629e+02
    endloop
  endfacet
  facet normal 7.071068e-01 9.727668e-15 -7.071068e-01
    outer loop
      vertex   -1.464040e+02 3.286078e+02 -2.264227e+02
      vertex   -1.514948e+02 3.301078e+02 -2.315134e+02
      vertex   -1.424442e+02 3.286078e+02 -2.224629e+02
    endloop
  endfacet
  facet normal 7.071068e-01 1.722641e-14 -7.071068e-01
    outer loop
      vertex   -1.424442e+02 3.286078e+02 -2.224629e+02
      vertex   -1.514948e+02 3.301078e+02 -2.315134e+02
      vertex   -1.250507e+02 3.301078e+02 -2.050694e+02
    endloop
  endfacet
  facet normal 7.071068e-01 -3.947797e-15 -7.071068e-01
    outer loop
      vertex   -1.424442e+02 3.286078e+02 -2.224629e+02
      vertex   -1.250507e+02 3.301078e+02 -2.050694e+02
      vertex   -1.322628e+02 3.286078e+02 -2.122814e+02
    endloop
  endfacet
  facet normal 7.071068e-01 1.099649e-14 -7.071068e-01
    outer loop
      vertex   -1.322628e+02 3.286078e+02 -2.122814e+02
      vertex   -1.250507e+02 3.301078e+02 -2.050694e+02
      vertex   -1.283030e+02 3.286078e+02 -2.083216e+02
    endloop
  endfacet
  facet normal 7.071068e-01 0.000000e+00 -7.071068e-01
    outer loop
      vertex   -1.283030e+02 3.286078e+02 -2.083216e+02
      vertex   -1.250507e+02 3.301078e+02 -2.050694e+02
      vertex   -1.250507e+02 3.245078e+02 -2.050694e+02
    endloop
  endfacet
  facet normal 7.071068e-01 0.000000e+00 -7.071068e-01
    outer loop
      vertex   -1.283030e+02 3.286078e+02 -2.083216e+02
      vertex   -1.250507e+02 3.245078e+02 -2.050694e+02
      vertex   -1.283030e+02 3.260078e+02 -2.083216e+02
    endloop
  endfacet
  facet normal 7.071068e-01 0.000000e+00 -7.071068e-01
    outer loop
      vertex   -1.322628e+02 3.260078e+02 -2.122814e+02
      vertex   -1.424442e+02 3.260078e+02 -2.224629e+02
      vertex   -1.322628e+02 3.286078e+02 -2.122814e+02
    endloop
  endfacet
  facet normal 7.071068e-01 0.000000e+00 -7.071068e-01
    outer loop
      vertex   -1.322628e+02 3.286078e+02 -2.122814e+02
      vertex   -1.424442e+02 3.260078e+02 -2.224629e+02
      vertex   -1.424442e+02 3.286078e+02 -2.224629e+02
    endloop
  endfacet
endsolid
